<?xml version="1.0" encoding="UTF-8"?>
<svg id="Layer_2" data-name="Layer 2" xmlns="http://www.w3.org/2000/svg" xmlns:xlink="http://www.w3.org/1999/xlink" viewBox="0 0 62.05 62.05">
  <defs>
    <style>
      .cls-1 {
        fill: none;
      }

      .cls-1, .cls-2, .cls-3, .cls-4 {
        stroke-width: 0px;
      }

      .cls-5 {
        fill: url(#radial-gradient);
        stroke: url(#radial-gradient-2);
        stroke-miterlimit: 10;
        stroke-width: 2px;
      }

      .cls-2 {
        fill: #323232;
      }

      .cls-3 {
        fill: #fff;
      }

      .cls-4 {
        fill: #7e7e7e;
      }
    </style>
    <radialGradient id="radial-gradient" cx="135.74" cy="-714.38" fx="135.74" fy="-714.38" r="30.02" gradientTransform="translate(-104.72 745.4)" gradientUnits="userSpaceOnUse">
      <stop offset="0" stop-color="#b3b2b3" stop-opacity=".5"/>
      <stop offset="1" stop-color="#333" stop-opacity=".5"/>
    </radialGradient>
    <radialGradient id="radial-gradient-2" cx="-185.02" cy="845.15" fx="-185.02" fy="845.15" r="31.02" gradientTransform="translate(759.47 -435.76) rotate(45)" gradientUnits="userSpaceOnUse">
      <stop offset="0" stop-color="#000" stop-opacity=".25"/>
      <stop offset="1" stop-color="#000" stop-opacity=".25"/>
    </radialGradient>
  </defs>
  <circle class="cls-5" cx="31.02" cy="31.02" r="30.02"/>
  <g>
    <path class="cls-1" d="M33.44,48.09c-.13-.28-.5-.35-.72-.13h0s-.06.03-.09.01c-.05-.03-.11,0-.12.06l-.03.22c-.01.09,0,.18.04.26l.5,1.03c.08.16.23.25.41.25h.1c.33,0,.55-.34.41-.65l-.49-1.05Z"/>
    <path class="cls-1" d="M16.66,38.67s-.04-.02-.06-.02c.02,0,.04.02.06.02Z"/>
    <path class="cls-1" d="M16.85,38.75s-.04-.02-.06-.03c.02,0,.04.02.06.03Z"/>
    <path class="cls-1" d="M16.76,38.72s-.04-.02-.07-.03c.02,0,.04.02.07.03Z"/>
    <path class="cls-1" d="M31.57,47.36l-1.27-.74c-.19-.02-.41-.03-.63-.03-.19,0-.34.1-.46.25-.48.63.08,1.53.86,1.4l.91-.15c.33-.05.59-.32.62-.66,0-.03-.01-.06-.04-.08Z"/>
    <path class="cls-1" d="M37.79,33.01s0,0,.01,0c0,0,0,0-.01,0Z"/>
    <path class="cls-1" d="M37.31,33.26c-.06.03-.11.07-.17.1-.8.48-1.33,1-1.59,1.55-.37.78-.83,1.46-1.37,2.02-1.26,1.28-3.86,3.43-7.16,3.43-2.01,0-4.12-.27-5.86-.58l.29.71s.02.03.03.04l3.88,2.17c.64.36,1.42.37,2.08.03.01,0,.02,0,.03,0l4.69-.15s.05-.02.07-.04l5.07-9.24s.02-.02.03-.03c0,0-.01,0-.02,0Z"/>
    <path class="cls-1" d="M38.06,32.89s.06-.02.08-.03c-.03.01-.06.02-.08.03Z"/>
    <path class="cls-1" d="M38.32,32.78s.07-.02.1-.04c-.03.01-.07.02-.1.04Z"/>
    <path class="cls-1" d="M16.44,38.58s-.03-.01-.05-.02c.02,0,.03.01.05.02Z"/>
    <path class="cls-1" d="M15.83,38.31s-.05-.02-.08-.03c.03.01.05.02.08.03Z"/>
    <path class="cls-1" d="M17.09,38.85c-.06-.03-.13-.06-.22-.09.08.04.16.07.22.09Z"/>
    <path class="cls-1" d="M15.96,38.37s-.05-.02-.07-.03c.02.01.05.02.07.03Z"/>
    <path class="cls-1" d="M15.62,38.22s.05.02.07.03c-.02,0-.05-.02-.07-.03Z"/>
    <path class="cls-1" d="M16.56,38.63s-.04-.02-.07-.03c.02,0,.04.02.07.03Z"/>
    <path class="cls-1" d="M16.33,38.53s-.04-.02-.05-.02c.02,0,.04.02.05.02Z"/>
    <path class="cls-1" d="M16.09,38.43s-.05-.02-.08-.03c.03.01.05.02.08.03Z"/>
    <path class="cls-1" d="M37.48,33.16s.05-.03.08-.04c-.03.01-.05.03-.08.04Z"/>
    <path class="cls-1" d="M16.21,38.48s-.05-.02-.07-.03c.02.01.05.02.07.03Z"/>
    <path class="cls-1" d="M15.54,38.19s-.05-.02-.07-.03c.02.01.05.02.07.03Z"/>
    <path class="cls-1" d="M13.14,37.13s-.06-.03-.09-.04c.03.01.06.03.09.04Z"/>
    <path class="cls-1" d="M13.32,37.21s-.07-.03-.1-.05c.03.02.07.03.1.05Z"/>
    <path class="cls-1" d="M13.85,37.45s-.06-.03-.09-.04c.03.01.06.03.09.04Z"/>
    <path class="cls-1" d="M12.95,37.05s-.06-.03-.09-.04c.03.01.06.03.09.04Z"/>
    <path class="cls-1" d="M13.57,37.33s.06.03.1.04c-.03-.01-.06-.03-.1-.04Z"/>
    <path class="cls-1" d="M13.4,37.25s.07.03.1.05c-.03-.02-.07-.03-.1-.05Z"/>
    <path class="cls-1" d="M15.4,38.13s-.06-.03-.1-.04c.03.01.07.03.1.04Z"/>
    <path class="cls-1" d="M14.7,37.82s-.06-.03-.09-.04c.03.01.06.03.09.04Z"/>
    <path class="cls-1" d="M14.87,37.9s-.06-.03-.1-.04c.03.01.06.03.1.04Z"/>
    <path class="cls-1" d="M15.09,38s-.1-.04-.15-.06c.05.02.1.04.15.06Z"/>
    <path class="cls-1" d="M15.25,38.06c-.05-.02-.1-.04-.15-.07.05.02.1.04.15.07Z"/>
    <path class="cls-1" d="M14.37,37.68s-.06-.03-.09-.04c.03.01.06.03.09.04Z"/>
    <path class="cls-1" d="M14.19,37.6s-.06-.03-.09-.04c.03.01.06.03.09.04Z"/>
    <path class="cls-1" d="M14.02,37.53s-.06-.03-.09-.04c.03.01.06.03.09.04Z"/>
    <path class="cls-1" d="M14.53,37.75s-.06-.03-.09-.04c.03.01.06.03.09.04Z"/>
    <path class="cls-4" d="M52.35,29.21h-11.06c-2.02,0-3.98.53-5.66,1.53-1.35.81-2.3,1.78-2.83,2.9-.22.46-.48.85-.78,1.15-.92.93-2.79,2.49-4.97,2.49-3.78,0-8.22-1.13-8.93-1.31-2.73-1.15-5.45-2.48-7-3.28-.85-.44-1.79-.67-2.74-.69.02.26.03.45.04.55.06.1.26.38.81.86.62.54,5.28,2.64,8.43,3.97.51.14,5.25,1.4,9.37,1.4,2.73,0,4.96-1.86,6.05-2.96.42-.43.78-.96,1.07-1.59.39-.83,1.13-1.58,2.19-2.23,1.42-.86,3.08-1.31,4.8-1.31h12.32l-1.02-1.2-.08-.3Z"/>
    <path class="cls-2" d="M53.8,28.59l.69-.19.8-.23-.42-1.5-.8.23-.37-1.32.8-.23-1.02-3.61-.8.23-.37-1.32.8-.23-.42-1.5-.8.23-.57.16-.23-.85v-.05s-.03-.05-.03-.05c-.38-.9-.93-1.83-1.62-2.76-2.2-2.95-5.25-5.12-8.85-6.27-1.64-.52-3.58-1.03-5.77-1.52-4.4-.97-8.96-.81-13.18.46-3.31,1-5.07,2.25-5.25,2.38-.31.22-.62.44-.92.67-.13.1-.26.2-.38.3-.58.47-1.14.97-1.66,1.5-.11.11-.22.22-.32.33-1.16,1.21-2.16,2.55-3.01,4.02-1.26,2.17-2.18,4.61-2.73,7.26-.94,4.5-.5,8-.48,8.15v.03c.05.3.32.83,1.32,1.71.51.45,2.34,1.34,4.23,2.21.11.05.23.11.35.16,0,0-.02,0-.02-.01-.08-.03-.15.06-.09.12l.75.88s.02.03.02.04l.12.87s.02.05.05.06l2.01.91s.01,0,.02.01l4.8,4.35c1.66,1.5,3.51,2.77,5.51,3.78h0s.03.02.03.03l.31.6s.03.04.06.04c1.46.2,2.81.92,3.77,2.04l3.03,3.49s.04.03.07.03l1.36-.21c.54-.09,1.05.28,1.15.82,0,.05.06.08.1.06l2.85-1.01s.06-.05.05-.08l-.37-3.11s0-.03,0-.04l.54-1.38s0-.05,0-.07l-.68-1.18s0-.01,0-.02l-.32-1.53s0-.02-.01-.03l-1.04-1.47s-.01-.02-.01-.03l-.33-1.61s.03-.09.08-.09h.05s.06-.02.07-.04l.04-.08c.03-.06.12-.06.14.01l.24.78s.04.05.07.05h2.52s.07-.03.08-.06l.12-.58s0-.05-.02-.07c0,0,0,0-.01-.01-1.26-1.32-1.54-3.29-.72-4.92l1.15-2.28c.11.02.22.03.33.03h0c1.16,0,2.09-.94,2.09-2.09v-1.68h12.41v-1.99l-1.3-1.52-.05-.18ZM13.4,37.25s.07.03.1.05c-.03-.02-.07-.03-.1-.05ZM12.86,37.01s.06.03.09.04c-.03-.01-.06-.03-.09-.04ZM13.04,37.09s.06.03.09.04c-.03-.01-.06-.03-.09-.04ZM13.22,37.17s.07.03.1.05c-.03-.02-.07-.03-.1-.05ZM13.57,37.33s.06.03.1.04c-.03-.01-.06-.03-.1-.04ZM13.75,37.41s.06.03.09.04c-.03-.01-.06-.03-.09-.04ZM13.93,37.48s.06.03.09.04c-.03-.01-.06-.03-.09-.04ZM14.1,37.56s.06.03.09.04c-.03-.01-.06-.03-.09-.04ZM14.27,37.64s.06.03.09.04c-.03-.01-.06-.03-.09-.04ZM14.44,37.71s.06.03.09.04c-.03-.01-.06-.03-.09-.04ZM14.61,37.78s.06.03.09.04c-.03-.01-.06-.03-.09-.04ZM14.77,37.86s.06.03.1.04c-.03-.01-.06-.03-.1-.04ZM14.94,37.93s.1.04.15.06c-.05-.02-.1-.04-.15-.06ZM15.09,38c.05.02.1.04.15.07-.05-.02-.1-.04-.15-.07ZM15.3,38.09s.07.03.1.04c-.03-.01-.06-.03-.1-.04ZM15.47,38.16s.05.02.07.03c-.02-.01-.05-.02-.07-.03ZM15.62,38.22s.05.02.07.03c-.02,0-.05-.02-.07-.03ZM16.88,38.76c.08.04.16.07.22.09-.06-.03-.13-.06-.22-.09ZM15.75,38.28s.05.02.08.03c-.03-.01-.05-.02-.08-.03ZM15.89,38.34s.05.02.07.03c-.02-.01-.05-.02-.07-.03ZM16.02,38.4s.05.02.08.03c-.03-.01-.05-.02-.08-.03ZM16.14,38.45s.05.02.07.03c-.02-.01-.05-.02-.07-.03ZM16.27,38.51s.04.02.05.02c-.02,0-.04-.02-.05-.02ZM16.39,38.56s.03.01.05.02c-.02,0-.03-.01-.05-.02ZM16.5,38.6s.04.02.07.03c-.02,0-.04-.02-.07-.03ZM16.6,38.65s.04.02.06.02c-.02,0-.04-.02-.06-.02ZM16.7,38.69s.04.02.07.03c-.02,0-.04-.02-.07-.03ZM16.79,38.73s.04.02.06.03c-.02,0-.04-.02-.06-.03ZM30.99,48.09l-.91.15c-.78.13-1.35-.77-.86-1.4.11-.15.26-.25.46-.25.22,0,.43.01.63.03l1.27.74s.04.05.04.08c-.04.33-.29.6-.62.66ZM33.52,49.79h-.1c-.17,0-.33-.1-.41-.25l-.5-1.03c-.04-.08-.05-.17-.04-.26l.03-.22c0-.05.07-.08.12-.06.03.02.07.01.09-.01h0c.22-.21.59-.15.72.13l.49,1.05c.14.3-.08.65-.41.65ZM37.3,33.28l-5.07,9.24s-.04.04-.07.04l-4.69.15s-.02,0-.03,0c-.65.34-1.43.33-2.08-.03l-3.88-2.17s-.03-.02-.03-.04l-.29-.71c1.75.31,3.85.58,5.86.58,3.31,0,5.91-2.15,7.16-3.43.55-.56,1.01-1.24,1.37-2.02.26-.55.79-1.07,1.59-1.55.06-.03.11-.07.17-.1,0,0,.01,0,.02,0-.01,0-.02.02-.03.03ZM38.42,32.74s-.07.02-.1.04c.03-.01.07-.02.1-.04ZM38.14,32.85s-.06.02-.08.03c.03-.01.06-.02.08-.03ZM37.81,33s0,0-.01,0c0,0,0,0,.01,0ZM37.56,33.12s-.05.03-.08.04c.03-.01.05-.03.08-.04ZM41.13,30.71c-1.72,0-3.38.45-4.8,1.31-1.07.64-1.8,1.39-2.19,2.23-.29.62-.65,1.16-1.07,1.59-1.08,1.11-3.31,2.96-6.05,2.96-4.11,0-8.85-1.26-9.37-1.4-3.14-1.33-7.81-3.43-8.43-3.97-.55-.48-.75-.76-.81-.86-.01-.11-.03-.29-.04-.55-.08-1.19-.14-3.87.53-7.03.02-.08.03-.16.05-.24.04-.18.08-.36.13-.54.02-.08.04-.16.06-.24,0-.01,0-.02,0-.03.02-.08.04-.16.06-.24,0-.01,0-.02,0-.03.02-.07.04-.15.06-.22.02-.08.05-.17.07-.25.06-.22.13-.43.2-.65.02-.05.03-.11.05-.16.02-.06.04-.13.06-.19.03-.08.05-.16.08-.24.02-.07.05-.14.07-.21,0-.03.02-.05.03-.08.02-.06.05-.13.07-.19.08-.23.17-.45.26-.67.02-.05.04-.09.06-.14.03-.08.07-.17.11-.25.02-.04.03-.08.05-.12.08-.18.16-.36.25-.54.04-.09.08-.17.12-.26.03-.07.07-.14.1-.21.05-.1.1-.2.16-.31.03-.05.06-.11.08-.16.03-.05.06-.11.09-.16.06-.1.12-.21.18-.31.03-.05.06-.1.09-.16.21-.36.43-.72.67-1.07.03-.05.06-.09.09-.14.03-.05.07-.1.1-.15.1-.15.21-.29.31-.43.1-.14.21-.28.31-.41,0,0,0-.01.01-.02.03-.04.07-.08.1-.12,0,0,0-.01.01-.02.11-.13.22-.27.33-.4.08-.09.15-.18.23-.27.12-.13.23-.26.35-.39.04-.04.08-.09.12-.13.06-.07.13-.13.19-.2.05-.05.09-.09.14-.14.06-.06.12-.12.17-.17.41-.4.84-.79,1.28-1.16.06-.05.13-.1.19-.16.08-.06.16-.13.24-.19.04-.03.08-.07.13-.1.08-.06.15-.12.23-.17,0,0,.02-.01.02-.02.05-.04.11-.08.17-.12.07-.05.13-.1.2-.15.07-.05.14-.1.2-.14h.02s1.64-1.21,4.78-2.16c3.97-1.2,8.26-1.35,12.39-.43,2.14.47,4.04.97,5.63,1.48,3.28,1.05,6.07,3.02,8.07,5.71.61.82,1.08,1.62,1.41,2.39l2.76,10.31.08.3,1.02,1.2h-12.32Z"/>
    <path class="cls-3" d="M18.11,35.98c.71.19,5.16,1.31,8.93,1.31,2.18,0,4.05-1.56,4.97-2.49.3-.3.56-.69.78-1.15.53-1.12,1.48-2.1,2.83-2.9,1.68-1,3.64-1.53,5.66-1.53h11.06l-2.76-10.31c-.33-.77-.81-1.57-1.41-2.39-2-2.69-4.79-4.66-8.07-5.71-1.59-.51-3.48-1.01-5.63-1.48-4.14-.92-8.43-.77-12.39.43-3.14.95-4.76,2.13-4.78,2.15h-.02c-.07.06-.14.11-.2.16-.07.05-.13.1-.2.15-.06.04-.11.08-.17.12,0,0-.02.01-.02.02.25.21.5.43.75.64,0,0,0,0,0,0,.38-.22.81-.38,1.25-.42,0,0,.1.1.1.1-.04.41-.18.81-.38,1.17,0,0,0,0,0,0,.18.16.36.32.54.48.19.17.38.33.57.49,0,0,0,0,0,0,.33-.17.7-.29,1.08-.33,0,0,.1.1.1.1-.04.34-.14.67-.28.98,0,0,0,0,0,0,.72.65,1.33,1.41,1.89,2.21.31.45.6.92.83,1.44l-.1.1c-1.02-.46-1.89-1.11-2.73-1.81-.3-.25-.58-.53-.84-.82,0,0,0,0,0,0-.17.12-.35.23-.51.36-.16.13-.33.26-.5.38.75.66,1.37,1.43,1.94,2.26.31.45.6.92.83,1.44l-.1.1c-1.02-.46-1.89-1.11-2.73-1.81-.41-.34-.78-.73-1.13-1.14,0,0,0,0,0,0-.26.18-.52.35-.78.52l-.1-.1c.18-.28.36-.55.54-.82,0,0,0,0,0,0-.23-.28-.46-.56-.7-.83-.24-.26-.47-.53-.7-.79-.31.22-.63.43-.95.63l-.1-.1c.21-.33.43-.66.65-.98-.34-.39-.67-.78-1.01-1.17-.04.04-.08.09-.12.13-.12.13-.24.26-.35.39-.08.09-.16.18-.23.27-.11.13-.22.26-.33.4,0,0,0,.01-.01.02-.03.04-.07.08-.1.12,0,0,0,.01-.01.02-.11.14-.21.27-.31.41-.11.14-.21.29-.31.43-.03.05-.07.1-.1.15-.03.05-.06.09-.09.14-.23.35-.46.7-.67,1.07-.03.05-.06.1-.09.16-.06.1-.12.21-.18.31-.03.05-.06.11-.09.16-.03.05-.06.11-.08.16-.05.1-.11.2-.16.31-.04.07-.07.14-.1.21-.04.08-.08.17-.12.26-.08.18-.17.36-.25.54-.02.04-.03.08-.05.12-.04.08-.07.17-.11.25-.02.05-.04.09-.06.14-.09.22-.18.45-.26.67-.02.06-.05.13-.07.19,0,.03-.02.05-.03.08-.02.07-.05.14-.07.21-.03.08-.05.16-.08.24-.02.06-.04.13-.06.19-.02.05-.03.11-.05.16-.07.21-.13.43-.2.65-.02.08-.05.17-.07.25-.02.07-.04.15-.06.22,0,.01,0,.02,0,.03-.02.08-.04.16-.06.24,0,.01,0,.02,0,.03-.02.08-.04.16-.06.24-.04.18-.09.36-.13.54-.02.08-.03.16-.05.24-.66,3.15-.6,5.84-.53,7.03.95.02,1.89.26,2.74.69,1.55.79,4.27,2.13,7,3.28ZM41.8,24.73c1.04,0,1.87.84,1.87,1.87s-.84,1.87-1.87,1.87-1.87-.84-1.87-1.87.84-1.87,1.87-1.87ZM32.67,26.91v-.18c0-.28.22-.5.5-.5h.56c.28,0,.5.22.5.5v1.45h-1.02c-.13-.22-.32-.4-.55-.52v-.74ZM32.67,30.35v-.79c.21-.11.38-.28.51-.47h1.05v1.45c0,.28-.22.5-.5.5h-.56c-.28,0-.5-.22-.5-.5v-.18ZM29.67,26.91v-.18c0-.28.22-.5.5-.5h.56c.28,0,.5.22.5.5v.96c-.2.12-.36.29-.48.49h-1.08v-1.27ZM29.67,30.35v-1.27h1.11c.12.18.27.33.45.44v1.01c0,.28-.22.5-.5.5h-.56c-.28,0-.5-.22-.5-.5v-.18ZM26.68,26.91v-.18c0-.28.22-.5.5-.5h.56c.28,0,.5.22.5.5v1.45h-1.56v-1.27ZM26.68,30.35v-1.27h1.56v1.45c0,.28-.22.5-.5.5h-.56c-.28,0-.5-.22-.5-.5v-.18ZM23.68,26.91v-.18c0-.28.22-.5.5-.5h.56c.28,0,.5.22.5.5v1.45h-1.56v-1.27ZM23.68,30.35v-1.27h1.56v1.45c0,.28-.22.5-.5.5h-.56c-.28,0-.5-.22-.5-.5v-.18ZM20.68,26.91v-.18c0-.28.22-.5.5-.5h.56c.28,0,.5.22.5.5v1.45h-1.56v-1.27ZM20.68,30.35v-1.27h1.56v1.45c0,.28-.22.5-.5.5h-.56c-.28,0-.5-.22-.5-.5v-.18ZM16.87,25.61c.97,0,1.75.78,1.75,1.75s-.78,1.75-1.75,1.75-1.75-.78-1.75-1.75.78-1.75,1.75-1.75Z"/>
    <path class="cls-3" d="M17.03,16.22c.22.19.44.38.66.57h0c.14-.19.29-.38.43-.57.15-.19.28-.41.42-.61,0,0,0,0,0,0-.14-.16-.28-.33-.42-.49-.14-.16-.28-.31-.42-.47,0,0,0,0,0,0-.22.16-.47.3-.68.47-.2.15-.39.31-.6.46-.02.02-.05.03-.07.05,0,0,0,0,0,0,.22.2.44.39.66.59Z"/>
    <path class="cls-3" d="M15.67,15.03c.18-.24.36-.48.54-.71.19-.24.34-.51.53-.75,0,0,0,0,0,0-.22-.25-.44-.5-.65-.76-.06.05-.13.1-.19.16-.45.37-.87.75-1.28,1.16.35.3.71.61,1.06.91,0,0,0,0,0,0Z"/>
    <path class="cls-2" d="M22.24,26.91v-.18c0-.28-.22-.5-.5-.5h-.56c-.28,0-.5.22-.5.5v1.45h1.56v-1.27Z"/>
    <path class="cls-2" d="M25.24,26.91v-.18c0-.28-.22-.5-.5-.5h-.56c-.28,0-.5.22-.5.5v1.45h1.56v-1.27Z"/>
    <path class="cls-2" d="M28.24,26.91v-.18c0-.28-.22-.5-.5-.5h-.56c-.28,0-.5.22-.5.5v1.45h1.56v-1.27Z"/>
    <path class="cls-2" d="M31.24,27.69v-.96c0-.28-.22-.5-.5-.5h-.56c-.28,0-.5.22-.5.5v1.45h1.08c.12-.2.29-.37.48-.49Z"/>
    <path class="cls-2" d="M33.22,28.18h1.02v-1.45c0-.28-.22-.5-.5-.5h-.56c-.28,0-.5.22-.5.5v.92c.22.12.41.3.55.52Z"/>
    <path class="cls-2" d="M21.18,31.03h.56c.28,0,.5-.22.5-.5v-1.45h-1.56v1.45c0,.28.22.5.5.5Z"/>
    <path class="cls-2" d="M24.18,31.03h.56c.28,0,.5-.22.5-.5v-1.45h-1.56v1.45c0,.28.22.5.5.5Z"/>
    <path class="cls-2" d="M27.18,31.03h.56c.28,0,.5-.22.5-.5v-1.45h-1.56v1.45c0,.28.22.5.5.5Z"/>
    <path class="cls-2" d="M30.18,31.03h.56c.28,0,.5-.22.5-.5v-1.01c-.18-.11-.33-.26-.45-.44h-1.11v1.45c0,.28.22.5.5.5Z"/>
    <path class="cls-2" d="M33.18,31.03h.56c.28,0,.5-.22.5-.5v-1.45h-1.05c-.13.2-.31.36-.51.47v.97c0,.28.22.5.5.5Z"/>
    <circle class="cls-2" cx="41.8" cy="26.61" r="1.87"/>
    <circle class="cls-2" cx="16.87" cy="27.36" r="1.75"/>
    <path class="cls-4" d="M14.46,16.77l.1.1c.32-.2.64-.42.95-.63.23.26.47.53.7.79.24.27.47.55.7.83,0,0,0,0,0,0-.19.27-.37.54-.54.82l.1.1c.26-.17.52-.34.78-.52,0,0,0,0,0,0,.35.41.71.8,1.13,1.14.84.71,1.71,1.35,2.73,1.81l.1-.1c-.23-.53-.52-.99-.83-1.44-.57-.82-1.2-1.6-1.94-2.26.17-.13.33-.25.5-.38.16-.13.34-.24.51-.36,0,0,0,0,0,0,.26.29.54.57.84.82.84.71,1.71,1.35,2.73,1.81l.1-.1c-.23-.52-.52-.99-.83-1.44-.56-.8-1.17-1.56-1.89-2.21,0,0,0,0,0,0,.15-.31.25-.64.28-.98,0,0-.1-.1-.1-.1-.38.04-.75.16-1.08.33,0,0,0,0,0,0-.19-.16-.38-.32-.57-.49-.18-.16-.36-.32-.54-.48,0,0,0,0,0,0,.2-.36.34-.76.38-1.17,0,0-.1-.1-.1-.1-.44.05-.87.2-1.25.42,0,0,0,0,0,0-.25-.22-.5-.43-.75-.64-.08.06-.15.12-.23.17-.04.03-.08.06-.13.1-.08.06-.16.12-.24.19.22.25.43.5.65.76,0,0,0,0,0,0-.19.24-.34.52-.53.75-.18.24-.37.47-.54.71,0,0,0,0,0,0-.35-.31-.7-.61-1.06-.91-.06.06-.12.12-.17.17-.05.05-.09.09-.14.14-.07.07-.13.13-.19.2.33.39.67.78,1.01,1.17-.22.32-.44.65-.65.98ZM16.43,15.58c.2-.15.4-.3.6-.46.21-.17.46-.31.68-.47,0,0,0,0,0,0,.14.16.28.31.42.47.14.16.28.32.42.49,0,0,0,0,0,0-.14.2-.27.42-.42.61-.15.19-.29.38-.43.57h0c-.22-.19-.45-.37-.66-.57-.22-.2-.44-.39-.66-.59,0,0,0,0,0,0,.02-.02.05-.03.07-.05Z"/>
  </g>
</svg>