<?xml version="1.0" encoding="UTF-8"?>
<svg id="Layer_2" data-name="Layer 2" xmlns="http://www.w3.org/2000/svg" xmlns:xlink="http://www.w3.org/1999/xlink" viewBox="0 0 62.05 62.05">
  <defs>
    <style>
      .cls-1 {
        fill: none;
      }

      .cls-1, .cls-2, .cls-3, .cls-4 {
        stroke-width: 0px;
      }

      .cls-5 {
        fill: url(#radial-gradient);
        stroke: url(#radial-gradient-2);
        stroke-miterlimit: 10;
        stroke-width: 2px;
      }

      .cls-2 {
        fill: #323232;
      }

      .cls-3 {
        fill: #fff;
      }

      .cls-4 {
        fill: #7e7e7e;
      }
    </style>
    <radialGradient id="radial-gradient" cx="135.74" cy="-714.38" fx="135.74" fy="-714.38" r="30.02" gradientTransform="translate(-104.72 745.4)" gradientUnits="userSpaceOnUse">
      <stop offset="0" stop-color="#b3b2b3" stop-opacity=".5"/>
      <stop offset="1" stop-color="#333" stop-opacity=".5"/>
    </radialGradient>
    <radialGradient id="radial-gradient-2" cx="-185.02" cy="845.15" fx="-185.02" fy="845.15" r="31.02" gradientTransform="translate(759.47 -435.76) rotate(45)" gradientUnits="userSpaceOnUse">
      <stop offset="0" stop-color="#000" stop-opacity=".25"/>
      <stop offset="1" stop-color="#000" stop-opacity=".25"/>
    </radialGradient>
  </defs>
  <circle class="cls-5" cx="31.02" cy="31.02" r="30.02"/>
  <g>
    <path class="cls-1" d="M29.46,13.52s-.06,0-.08.01c.01,0,.02,0,.04,0,.02,0,.03,0,.05,0Z"/>
    <path class="cls-1" d="M29.35,13.54c-.1.01-.21.03-.31.04.08-.01.15-.02.23-.03.03,0,.06,0,.09-.01Z"/>
    <path class="cls-1" d="M30.34,13.42c-.11.01-.23.02-.34.04.03,0,.05,0,.08,0,.09,0,.18-.02.26-.03Z"/>
    <path class="cls-1" d="M29.95,13.46s-.01,0-.02,0c0,0,0,0,0,0,0,0,0,0,0,0Z"/>
    <path class="cls-1" d="M29,13.59c-.08.01-.15.02-.23.03.03,0,.06,0,.09-.01.05,0,.09-.01.14-.02Z"/>
    <path class="cls-1" d="M28.15,13.73s-.09,0-.19.04c.09-.02.15-.04.19-.04,0,0,0,0,0,0Z"/>
    <path class="cls-1" d="M28.75,13.63s-.08.01-.12.02c.02,0,.04,0,.05,0,.02,0,.04,0,.06-.01Z"/>
    <path class="cls-1" d="M17.17,27.67c.06-.17.12-.34.2-.5-.11.18-.18.35-.2.5Z"/>
    <path class="cls-1" d="M33.32,13.25c-.08,0-.15,0-.23,0,0,0,0,0,0,0,.07,0,.15,0,.22,0Z"/>
    <path class="cls-1" d="M32.38,13.28c-.07,0-.13,0-.2,0,.06,0,.11,0,.17,0,0,0,.02,0,.03,0Z"/>
    <path class="cls-1" d="M33.61,13.25s-.08,0-.12,0c.03,0,.06,0,.09,0,.01,0,.02,0,.03,0Z"/>
    <path class="cls-1" d="M32.03,13.29c-.06,0-.12,0-.17,0,.01,0,.03,0,.04,0,.04,0,.09,0,.13,0Z"/>
    <path class="cls-1" d="M30.75,13.38s-.09,0-.13.01c.02,0,.03,0,.05,0,.03,0,.06,0,.09,0Z"/>
    <path class="cls-1" d="M31.77,13.31s-.02,0-.04,0c0,0,.02,0,.03,0,0,0,0,0,0,0Z"/>
    <path class="cls-1" d="M30.56,13.4c-.07,0-.14.01-.21.02.05,0,.11-.01.16-.02.02,0,.03,0,.05,0Z"/>
    <polygon class="cls-1" points="39.4 28.05 39.41 28.04 39.41 28.04 39.41 28.04 39.4 28.05"/>
    <path class="cls-1" d="M41.37,27.09c-.87.41-1.64.76-1.88.9.24-.14,1.01-.49,1.88-.9Z"/>
    <path class="cls-1" d="M38.85,28.32c-.13.07-.26.13-.38.18.13-.05.26-.11.38-.18Z"/>
    <path class="cls-1" d="M21.8,29.86c-.04.09-.22.94-.48,2.12.16-.71.48-2.12.48-2.12Z"/>
    <path class="cls-1" d="M23.63,28.86l-1.09.59c.42-.22.88-.47,1.09-.59Z"/>
    <path class="cls-1" d="M37.74,28.6h.28c.05,0,.11,0,.17-.01,0,0-.02,0-.02,0,0,0-.17,0-.42.01Z"/>
    <path class="cls-1" d="M36.26,28.6h.41c-.23,0-.4,0-.41,0Z"/>
    <path class="cls-1" d="M19.43,40.17c.06-.1.1-.21.13-.32,0,0,.28-1.26.4-1.78-.25,1.03-.48,1.88-.66,2.33.04-.08.09-.15.13-.23Z"/>
    <path class="cls-1" d="M25.71,20.42c-.14,0-.27,0-.41.03.15-.01.31-.02.46-.03-.02,0-.04,0-.05,0Z"/>
    <path class="cls-1" d="M23.63,21.04s.02-.01.03-.02c0,0-.02.01-.03.02Z"/>
    <path class="cls-1" d="M45.2,24.25c-.02.19-.07.36-.15.51.09-.16.13-.33.15-.51Z"/>
    <path class="cls-1" d="M24.46,20.64s0,0,0,0c0,0,0,0,0,0Z"/>
    <path class="cls-1" d="M33.77,13.25s-.04,0-.06,0c0,0,0,0,.01,0,.02,0,.03,0,.05,0Z"/>
    <path class="cls-1" d="M40.62,20.28c.27.05.75.28,1.18.49-.42-.21-.88-.44-1.18-.49Z"/>
    <path class="cls-1" d="M24.78,20.54s.03,0,.05-.01c-.02,0-.03,0-.05.01Z"/>
    <path class="cls-1" d="M18.55,25.71c.38-.36,1.65-1.55,2.94-2.76-.93.83-2.07,1.84-2.94,2.76Z"/>
    <path class="cls-1" d="M23.46,21.16s.03-.02.05-.03c-.02.01-.03.02-.05.03Z"/>
    <path class="cls-1" d="M41.31,32.24c.36-.08.8-.17,1-.21-.21.04-.65.13-1,.21Z"/>
    <path class="cls-1" d="M41.12,33.98s0,0,0,0c0,0,0,0,0,0Z"/>
    <path class="cls-1" d="M48.17,36.85s0,0,0,0c0,0,0-.03,0-.07,0,.04,0,.06,0,.07Z"/>
    <path class="cls-1" d="M42.44,32.01s0,0-.01,0c0,.02.02.06.04.12-.02-.07-.03-.12-.03-.12Z"/>
    <path class="cls-1" d="M42.76,33.64s-.07.02-.11.02c.04,0,.08-.01.11-.02Z"/>
    <path class="cls-1" d="M42.79,33.62s-.03-.15-.08-.36c.04.21.07.36.07.37,0,0,0,0,0-.01Z"/>
    <path class="cls-1" d="M40.79,32.35s.04.29.11.63c-.07-.33-.13-.62-.11-.63Z"/>
    <path class="cls-1" d="M48.09,35.25c0,.13.03.46.05.79-.01-.33-.03-.65-.05-.79Z"/>
    <path class="cls-1" d="M48.08,35.18s-.1,0-.18,0c.08,0,.15,0,.19,0,0,0,0,0,0,0Z"/>
    <path class="cls-1" d="M41.19,33.98c.05-.01.12-.03.12-.03,0,0-.07.02-.12.03Z"/>
    <polygon class="cls-1" points="46.48 36.94 46.48 36.94 46.48 36.94 46.48 36.94"/>
    <path class="cls-1" d="M47.98,36.87c-.24.01-.61.03-.93.05.32-.02.69-.04.93-.05Z"/>
    <path class="cls-1" d="M46.41,35.27c.09,0,.31-.01.56-.03-.25.01-.46.02-.56.03Z"/>
    <polygon class="cls-1" points="46.41 35.27 46.4 35.28 46.41 35.27 46.41 35.27"/>
    <path class="cls-1" d="M46.48,36.94s-.02-.29-.04-.59c.02.3.04.55.04.59Z"/>
    <path class="cls-1" d="M35.16,13.29c-.07,0-.15,0-.22-.01.01,0,.03,0,.04,0,.06,0,.12,0,.18,0Z"/>
    <path class="cls-1" d="M22.08,20.42c.78-.74,1.79-1.22,2.85-1.39,0,0,0,0,0,0-1.06.17-2.07.65-2.85,1.39Z"/>
    <path class="cls-1" d="M48.04,19.09c1.62,1.92,2.23,4.44,2.67,6.85-.44-2.41-1.05-4.93-2.67-6.85-.18-.22-.39-.44-.62-.66.22.21.43.43.62.66Z"/>
    <path class="cls-1" d="M24.6,14.99c.14-.06.3-.12.48-.19-.81.26-1.6.59-2.35.99.3-.14.6-.28.92-.4.24-.1.57-.24.95-.4Z"/>
    <path class="cls-1" d="M44.59,16.35c-1.07-.65-2.23-1.24-3.29-1.71.63.29,1.33.65,2.16,1.09.38.2.76.4,1.13.62Z"/>
    <path class="cls-1" d="M34.85,13.28s-.05,0-.07,0c.01,0,.03,0,.04,0,0,0,.02,0,.03,0Z"/>
    <path class="cls-1" d="M34.23,13.26c-.1,0-.19,0-.29,0,.09,0,.18,0,.27,0,0,0,.01,0,.02,0Z"/>
    <path class="cls-1" d="M26.49,14.26c-.45.16-.91.34-1.24.47.22-.08.45-.17.68-.26.19-.07.37-.14.56-.21Z"/>
    <path class="cls-1" d="M29.48,13.52c.13-.02.26-.03.39-.05-.13.02-.26.03-.39.05Z"/>
    <path class="cls-1" d="M30.84,13.37c.1,0,.2-.02.31-.03-.1,0-.2.02-.31.03Z"/>
    <path class="cls-1" d="M31.26,13.34c.13,0,.25-.02.38-.03-.13,0-.25.02-.38.03Z"/>
    <path class="cls-1" d="M28.17,13.72c.13-.02.26-.04.39-.07-.13.02-.26.04-.39.07Z"/>
    <path class="cls-1" d="M38.3,13.61c-.11-.02-.22-.03-.33-.05.37.06.72.14,1.08.24-.27-.08-.52-.15-.75-.19Z"/>
    <path class="cls-1" d="M16.09,24.23c.48-1.81,1.26-3.49,2.35-4.93-1.13,1.42-1.96,3.08-2.35,4.93Z"/>
    <path class="cls-1" d="M34.39,13.26c.09,0,.18,0,.26,0-.09,0-.18,0-.26,0Z"/>
    <path class="cls-1" d="M35.41,13.3s.04,0,.05,0c-.02,0-.04,0-.05,0Z"/>
    <path class="cls-1" d="M32.58,13.27c.12,0,.24,0,.36,0-.12,0-.24,0-.36,0Z"/>
    <path class="cls-1" d="M30.76,33.6s.18.15.39.34c-.21-.19-.38-.34-.39-.34Z"/>
    <polygon class="cls-1" points="29.52 46.19 29.52 46.19 29.52 46.19 29.52 46.19 29.52 46.19"/>
    <path class="cls-1" d="M31.01,46.59c-.19-.05-.64-.17-.99-.27.35.1.79.22.99.27Z"/>
    <path class="cls-1" d="M29.54,46.07s.02-.08.02-.08c0,0-.01.04-.02.08Z"/>
    <path class="cls-1" d="M31.17,46.47v-.04s0,.02,0,.04Z"/>
    <path class="cls-1" d="M29.64,34.85s.2.21.42.4c-.22-.2-.4-.37-.42-.4Z"/>
    <path class="cls-1" d="M31.96,34.76c-.08.09-.3.34-.52.59.22-.24.44-.48.52-.59Z"/>
    <path class="cls-1" d="M29.63,34.85s0,0,0,0c0,0,0,0,0,0Z"/>
    <rect class="cls-1" x="20.69" y="26.14" height="1.3" transform="translate(-11.04 15) rotate(-31.95)"/>
    <path class="cls-1" d="M30.85,35.96s0,0,0,0c0,0,.02,0,.02,0,0,0,.01-.02.03-.04-.03.03-.05.05-.06.04,0,0,0,0,0,0Z"/>
    <path class="cls-1" d="M21.45,24.43c-.06.04-.12.07-.18.11.06-.04.12-.07.18-.11Z"/>
    <rect class="cls-1" x="21.53" y="24.45" width=".95" height=".95" transform="translate(-9.85 15.42) rotate(-31.94)"/>
    <path class="cls-1" d="M19.64,25.55c-.22.13-.42.26-.61.38l.51.81-.51-.81c.19-.12.39-.25.61-.38Z"/>
    <polygon class="cls-1" points="20.02 35.92 20.1 35.23 20.02 35.92 20.02 35.92"/>
    <path class="cls-1" d="M17.51,41.08c.12.08.25.14.39.17.26.06.48.03.67-.06-.34.14-.76.09-1.07-.11Z"/>
    <polygon class="cls-1" points="18.54 34.35 18.26 34.32 18.26 34.32 18.54 34.35"/>
    <path class="cls-1" d="M31.13,46.61v-.02s0,.01,0,.02c0,0,0,0,0,0Z"/>
    <path class="cls-1" d="M20.01,44.38s-.05,0-.08,0c.03,0,.05,0,.08,0Z"/>
    <path class="cls-1" d="M18.8,43.48c-.12-.29-.21-.58-.31-.77.1.19.19.48.31.77Z"/>
    <path class="cls-1" d="M20.65,44.09s.03-.03.05-.05c0,0,0,0,0,0,0,0,0,0,0,0-.01.02-.03.04-.05.05Z"/>
    <path class="cls-1" d="M19.95,25.37c.25-.16.51-.32.77-.48-.26.16-.51.32-.77.48Z"/>
    <path class="cls-1" d="M20.64,44.1s0,0,0,0c0,0,0,0,0,0Z"/>
    <path class="cls-1" d="M32,34.71s0-.01,0-.01c0,0-.03-.03-.09-.08.04.04.07.07.08.09Z"/>
    <path class="cls-1" d="M37.48,30.77c-.71-.07-1.42-.15-2.13-.21.29.03.58.07.87.11.5.09,1,.12,1.5.1-.08,0-.16,0-.24,0Z"/>
    <path class="cls-1" d="M47.92,27.75c.98-.16,1.97-.24,2.96-.23-1-.02-1.99.07-2.96.23Z"/>
    <path class="cls-1" d="M20.39,44.28s0,0,0,0c0,0,0,0,0,0Z"/>
    <path class="cls-1" d="M22.94,42.84c.31.08,6,1.61,6.15,1.65.25-1.39,1.85-.48,2.68-.33.52.13.76.72.56,1.2l.54.14s10.85,2.91,10.85,2.91c.45.13.75-.46.41-.75l-12.51-11.27c-.88,1.15-1.86-.38-2.55-.9-.42-.37-.35-.99.06-1.34l-2.07-1.86c-4.65,1.04-3.13,7.17-4.12,10.56Z"/>
    <path class="cls-1" d="M44.02,28.88c.17-.07.35-.14.53-.21-.47.17-.94.36-1.41.56.3-.12.59-.24.88-.35Z"/>
    <path class="cls-1" d="M30.35,34.04c-.32.36-.71.8-.72.8,0,0,0,0,0,0,0,0,.4-.44.72-.8Z"/>
    <path class="cls-1" d="M23.04,33.6c-.41.7-.68,1.49-.76,2.32.07-.83.34-1.62.76-2.32Z"/>
    <path class="cls-1" d="M22.04,38.53c-.1,1.36-.23,2.88-.58,4.03.34-1.15.48-2.67.58-4.03Z"/>
    <path class="cls-1" d="M30.75,30.4c-1.25.04-2.5.16-3.74.41,1.23-.22,2.48-.36,3.74-.41Z"/>
    <path class="cls-1" d="M42.82,29.36c-.78.29-1.65.64-2.53.93.86-.26,1.71-.6,2.53-.93Z"/>
    <path class="cls-1" d="M28.28,20.39s-.01,0-.02,0h0s.02,0,.02,0Z"/>
    <path class="cls-1" d="M39.56,20.28s.54,0,.8,0c-.72,0-1.49.01-2.26.02.02,0,.05,0,.06,0h1.4Z"/>
    <path class="cls-1" d="M32.96,20.35h1.13c-1.01,0-2.05,0-3.09.02.21,0,.41,0,.56,0h1.4Z"/>
    <path class="cls-1" d="M27.38,20.4c-.39,0-.77,0-1.15.01.04,0,.09,0,.13,0h1.02Z"/>
    <path class="cls-1" d="M23.32,21.26s.04-.03.07-.05c-.11.08-.22.17-.32.27,0,0,0,0,0,0h0c.08-.08.17-.15.25-.22Z"/>
    <path class="cls-1" d="M40.52,20.27s-.02,0-.03,0c-.02,0-.04,0-.05,0,.04,0,.06,0,.06,0,0,0,.01,0,.02,0Z"/>
    <path class="cls-1" d="M43.23,21.99c-.16-.37-.35-.74-.67-.85,0,0,0,0,0,0,0,0,0,0,0,0,.31.11.51.48.67.85Z"/>
    <path class="cls-1" d="M42.76,25.14c.24.23.57.39,1,.38.29,0,.56-.09.79-.23-.55.33-1.31.28-1.79-.15Z"/>
    <path class="cls-1" d="M42.65,23.1c.47-.53,1.32-.61,1.91-.24-.28-.2-.64-.3-1.05-.23-.38.06-.66.23-.86.47Z"/>
    <path class="cls-1" d="M43.93,25.81c.48-.27.78-.49.7-.57,0,0,0,0,0,0,.07.09-.22.3-.7.57Z"/>
    <polygon class="cls-2" points="18.38 35.74 20.02 35.92 20.02 35.92 20.1 35.23 20.18 34.53 18.54 34.35 18.26 34.32 18.26 34.32 16.9 34.16 16.9 34.16 16.9 34.16 16.82 34.86 16.74 35.55 18.38 35.74"/>
    <path class="cls-3" d="M22.17,12.81c-.34-.43-.94-.54-1.4-.26l-1.3.79-.87.53-.58.35-1.44.88-.87.53-.75.46.62.8-.49.37.57.73,6.56-5.12-.05-.07Z"/>
    <path class="cls-3" d="M46.81,27.13l.03.17-1.05.18v-.06s-.47.08-.47.08c-.29.06-.55-.26-.43-.53-.78.33-5.69,2.93-6.41,3.05-.15.03-.31.04-.46.04h-13.55l-1.39.76c-.13.33-2.14,10.12-2.4,10.1-.44.88-1.18,1.69-2.18,1.79.1.19.19.48.31.77.16.4.38.79.74.85.13.03.26.05.39.05.03,0,.05,0,.08,0,.13-.01.25-.04.37-.1,0,0,0,0,0,0,.09-.04.18-.1.25-.18,0,0,0,0,0,0,0,0,0,0,0,0,.02-.02.03-.03.05-.05,0,0,0,0,0,0,.33-.33.58-.84.76-1.47.34-1.15.48-2.67.58-4.03.08-1.05.13-2,.25-2.61.07-.83.34-1.62.76-2.32.84-1.44,2.3-2.51,3.97-2.79,0,0,0,0,0,0,1.24-.25,2.49-.38,3.74-.41,1.53-.07,3.07-.02,4.6.16.71.06,1.42.13,2.13.21.08,0,.16,0,.24,0,.86-.04,1.72-.23,2.57-.49.88-.28,1.75-.64,2.53-.93.11-.04.21-.09.32-.13.46-.2.93-.39,1.41-.56,1.09-.42,2.22-.73,3.37-.92.97-.17,1.96-.25,2.96-.23-.02-.36-.06-.72-.1-1.08l-3.97.69Z"/>
    <path class="cls-3" d="M29.95,13.46s0,0,0,0c-.02,0-.05,0-.07,0-.13.02-.26.03-.39.05,0,0-.01,0-.02,0-.02,0-.03,0-.05,0,.18-.02.36-.05.53-.07Z"/>
    <path class="cls-3" d="M33.58,13.25s-.06,0-.09,0c-.06,0-.11,0-.17,0-.07,0-.15,0-.22,0,.16,0,.32,0,.48,0Z"/>
    <polygon class="cls-3" points="28.15 13.73 28.15 13.73 28.15 13.73 28.15 13.73 28.15 13.73"/>
    <path class="cls-3" d="M35.47,13.31s0,0,0,0c-.02,0-.04,0-.05,0-.08,0-.17,0-.25-.01-.06,0-.12,0-.18,0,.16,0,.33.02.49.02Z"/>
    <path class="cls-3" d="M34.21,13.26c-.09,0-.18,0-.27,0-.06,0-.11,0-.17,0-.02,0-.03,0-.05,0,.16,0,.32,0,.49,0Z"/>
    <path class="cls-3" d="M32.35,13.28c-.06,0-.11,0-.17,0-.05,0-.1,0-.15,0-.04,0-.09,0-.13,0,.15,0,.31-.02.46-.02Z"/>
    <path class="cls-3" d="M28.64,13.65s-.06,0-.08.01c-.13.02-.26.04-.39.07,0,0,0,0-.01,0,.18-.03.36-.06.54-.09-.02,0-.04,0-.05,0Z"/>
    <path class="cls-3" d="M29.27,13.55c-.08.01-.15.02-.23.03-.01,0-.03,0-.04,0-.05,0-.09.01-.14.02.14-.02.27-.04.41-.06Z"/>
    <path class="cls-3" d="M30.51,13.4c-.05,0-.11.01-.16.02,0,0,0,0,0,0-.09,0-.18.02-.26.03.14-.02.29-.03.43-.05Z"/>
    <path class="cls-3" d="M31.16,13.35s0,0-.01,0c-.1,0-.2.02-.31.03-.03,0-.06,0-.1,0-.03,0-.06,0-.09,0,.17-.02.33-.03.5-.04Z"/>
    <path class="cls-3" d="M31.74,13.31s-.06,0-.09,0c-.13,0-.25.02-.38.03,0,0-.02,0-.03,0,.18-.01.35-.02.53-.04,0,0-.02,0-.03,0Z"/>
    <path class="cls-3" d="M34.78,13.27s-.09,0-.13,0c-.09,0-.18,0-.26,0-.02,0-.04,0-.06,0,.16,0,.33,0,.49.02-.01,0-.03,0-.04,0Z"/>
    <path class="cls-3" d="M24.34,19.15v-4.05c.07-.03.16-.07.26-.11-.38.15-.71.29-.95.4-.32.12-.62.26-.92.4-1.66.88-3.13,2.07-4.29,3.51-1.09,1.44-1.87,3.12-2.35,4.93,0,.02-.01.05-.02.07-.28,1.25-.47,2.52-.58,3.79.33-1.15.81-2.33,1.72-3.13,0,0,4.86-4.55,4.86-4.55.78-.74,1.79-1.22,2.85-1.39-.2.03-.4.07-.58.12Z"/>
    <path class="cls-3" d="M32.93,13.26c-.12,0-.24,0-.36,0-.03,0-.07,0-.1,0,.17,0,.35-.01.52-.01-.02,0-.04,0-.06,0Z"/>
    <path class="cls-3" d="M29.33,18.93c1.79-.02,3.6-.04,5.32-.05-1.69.02-3.4.03-5,.05-.1,0-.2,0-.32,0Z"/>
    <path class="cls-3" d="M25.94,14.47c.26-.1.53-.2.78-.29-.07.03-.15.05-.22.08-.18.07-.37.14-.56.21Z"/>
    <path class="cls-3" d="M25.72,18.96c.36,0,.73,0,1.1-.01-.17,0-.33,0-.46,0-.21,0-.42,0-.64,0Z"/>
    <path class="cls-3" d="M37.94,13.55v5.29c-.36,0-.73,0-1.1.01.5,0,.98,0,1.34-.01.24,0,1.54-.02,1.74-.02.55-.02,1.18-.02,1.67.24.9.47,2.45.94,2.82,2.01l1.51,3.36c.36.81.11,1.74-.57,2.26h.05s.04.21.04.21c0,0-.22.04-.22.04-.22.03-.16.37.06.33l.46-.08-.1-.55,1.05-.18.03.17,3.99-.69c-.44-2.41-1.05-4.93-2.67-6.85-.2-.23-.41-.45-.62-.66-.76-.72-1.75-1.43-2.83-2.08-.37-.22-.75-.42-1.13-.62-.83-.44-1.53-.8-2.16-1.09-.82-.36-1.6-.65-2.25-.85-.36-.1-.71-.18-1.08-.24-.61-.09-1.23-.15-1.85-.2.61.05,1.21.12,1.81.2Z"/>
    <path class="cls-3" d="M36.1,13.35c-.19-.01-.37-.03-.56-.04.19.01.38.02.56.04Z"/>
    <path class="cls-3" d="M18.58,41.19c.31-.15.54-.46.72-.79.17-.45.4-1.3.66-2.33.4-1.78.91-4.05,1.37-6.09.26-1.18.44-2.03.48-2.12.13-.07.35-.19.59-.33l-.31-.49,1.19-.74.35.56.47-.26h.86v-.56h1.4v.56h1.9v-.56h1.4v.56h1.9v-.56h1.4v.56h1.9v-.56h1.4v.56s.18,0,.41,0h1.07c.25,0,.43,0,.42-.01v-.55h1.25s0,0,0,0c0,0,.03-.03.08-.05.25-.14,1.01-.49,1.88-.9.9-.42,1.91-.91,2.56-1.28.47-.27.77-.48.7-.57-.03.02-.06.04-.09.06-.23.15-.5.23-.79.23-.42,0-.76-.15-1-.38-.27-.24-.45-.6-.46-1.07,0-.41.14-.73.36-.97.2-.23.48-.41.86-.47-.09-.17-.18-.4-.28-.65-.16-.37-.36-.74-.67-.85,0,0,0,0,0,0-.16-.05-.44-.2-.75-.37-.42-.21-.91-.44-1.18-.49-.04,0-.07,0-.11,0,0,0-.01,0-.02,0,0,0-.03,0-.06,0-.03,0-.05,0-.08,0-.26,0-.79,0-.8,0v.99h-1.4v-.98s-.04,0-.06,0c-.61,0-1.23.01-1.84.02v.96h-1.4v-.95c-.26,0-.51,0-.77,0h-1.13v.94h-1.4v-.91c-.15,0-.34,0-.56,0-.45,0-.9,0-1.35.01v.9h-1.4v-.88h0c-.29,0-.59,0-.88,0h-1.02v.87h-1.4v-.78s-.08.02-.13.03c-.02,0-.03,0-.05.01-.11.03-.22.06-.32.1,0,0,0,0,0,0-.28.1-.55.23-.8.39,0,0-.02.01-.03.02-.04.03-.08.06-.13.08-.02.01-.03.02-.05.03-.02.02-.04.03-.07.05-.02.02-.04.03-.07.05-.09.07-.17.14-.25.22h0c-.27.31-.86.84-1.57,1.47-1.29,1.21-2.56,2.4-2.94,2.76-.52.54-.94,1.05-1.18,1.46-.08.16-.15.33-.2.5,0,0,0,0,0,0-.22.64-.44,1.27-.65,1.88,0,.01,0,.02-.01.04,0,.01,0,.03-.01.04-.47,1.44-.85,2.88-.95,4.34-.07,1.11.03,2.24.37,3.41.08.26.18.53.29.8.04.1.09.25.15.41,0,.02.02.04.02.06,0,0,0,.02.01.05.06.16.13.33.2.51.21.54.51,1.28.52,1.37.08.21.22.38.39.5.31.21.72.25,1.07.11ZM38.16,23.01h1.4v3.3h-1.4v-3.3ZM34.86,23.01h1.4v3.3h-1.4v-3.3ZM31.56,23.01h1.4v3.3h-1.4v-3.3ZM28.26,23.01h1.4v3.3h-1.4v-3.3ZM24.96,23.01h1.4v3.3h-1.4v-3.3ZM21.83,24.19l.51.81-.81.5.69,1.1-1.19.74h0l-.69-1.1-.81.5-.51-.81c.19-.12.39-.25.61-.38.1-.06.2-.13.3-.19.25-.16.51-.32.77-.48.19-.12.38-.24.56-.35.06-.04.12-.07.18-.11.13-.08.26-.16.38-.24ZM17.27,30.88l3.28.37-.16,1.39-3.28-.37.16-1.39ZM16.9,34.16h0l1.36.16.27.03,1.64.19-.08.69-.08.69h0l-1.64-.19-1.64-.19.08-.69.08-.69Z"/>
    <rect class="cls-2" x="24.96" y="23.01" width="1.4" height="3.3"/>
    <path class="cls-4" d="M22.09,29.04l.31.49s.09-.05.14-.08l1.09-.59-.35-.56-1.19.74Z"/>
    <path class="cls-4" d="M20.71,24.89c-.26.16-.51.32-.77.48-.1.06-.2.13-.3.19-.22.13-.42.26-.61.38l.51.81.81-.5h0l.69,1.1h0l1.19-.74-.69-1.1.81-.5-.51-.81c-.12.08-.25.16-.38.24-.06.04-.12.07-.18.11-.18.11-.37.23-.56.35Z"/>
    <rect class="cls-2" x="28.26" y="23.01" width="1.4" height="3.3"/>
    <rect class="cls-2" x="31.56" y="23.01" width="1.4" height="3.3"/>
    <rect class="cls-2" x="34.86" y="23.01" width="1.4" height="3.3"/>
    <rect class="cls-2" x="38.16" y="23.01" width="1.4" height="3.3"/>
    <rect class="cls-4" x="24.96" y="28.04" width="1.4" height=".56"/>
    <rect class="cls-4" x="28.26" y="28.04" width="1.4" height=".56"/>
    <rect class="cls-4" x="31.56" y="28.04" width="1.4" height=".56"/>
    <rect class="cls-4" x="34.86" y="28.04" width="1.4" height=".56"/>
    <path class="cls-4" d="M38.16,28.04v.55s.02,0,.02,0c.09-.02.18-.05.28-.09.12-.05.25-.11.38-.18.21-.11.41-.22.55-.28,0,0,0,0,0,0h-1.25Z"/>
    <path class="cls-4" d="M26.36,21.28v-.86s-.08,0-.13,0c-.15,0-.31,0-.46,0-.16,0-.31.01-.46.03-.12.01-.23.03-.35.06v.78h1.4Z"/>
    <path class="cls-4" d="M28.26,21.28h1.4v-.9c-.46,0-.92,0-1.38.01h-.02v.88Z"/>
    <polygon class="cls-4" points="31.56 21.28 32.96 21.28 32.96 20.35 31.56 20.36 31.56 21.28"/>
    <path class="cls-4" d="M36.26,21.28v-.96c-.48,0-.95,0-1.4.01v.95h1.4Z"/>
    <polygon class="cls-4" points="38.16 21.28 39.56 21.28 39.56 20.28 38.16 20.3 38.16 21.28"/>
    <rect class="cls-2" x="18.13" y="30.11" width="1.4" height="3.3" transform="translate(-14.86 46.87) rotate(-83.48)"/>
    <path class="cls-3" d="M42.76,33.64s.02,0,.02-.01c0-.01-.03-.17-.07-.37-.08-.36-.19-.89-.24-1.13-.02-.06-.03-.11-.04-.12-.02,0-.06,0-.12.01-.2.04-.65.14-1,.21-.29.06-.52.12-.52.11-.02,0,.04.29.11.63.1.45.23.99.22,1,0,0,0,0,0,0,0,0,0,0,0,0,0,0,.03,0,.07,0,.05-.01.12-.03.12-.03l-.3-1.43,1.3-.28.3,1.43s.02,0,.05-.01c.04,0,.08-.02.11-.02Z"/>
    <path class="cls-3" d="M29.96,44.54s-.05.15-.06.17l1.62.43.04-.15s-1.59-.43-1.6-.45Z"/>
    <path class="cls-3" d="M29.56,45.99s-.01.04-.02.08c-.02.05-.03.11-.02.12,0,0,0,0,0,0h0s.22.06.5.13c.35.09.8.21.99.27.06.01.1.02.11.02,0,0,0-.01,0-.02l.03-.12s0-.04.01-.04l-1.62-.43Z"/>
    <path class="cls-3" d="M29.63,34.84s0,0,0,0c0,0,0,0,0,0,0,0,0,0,0,0,.02.04.2.21.42.4.33.3.75.66.8.71,0,0,0,0,0,0,0,0,.02-.01.06-.04.08-.09.3-.33.53-.58.22-.25.44-.5.52-.59.02-.02.03-.04.03-.05-.01-.02-.04-.05-.08-.09-.16-.14-.49-.45-.76-.69-.21-.19-.38-.33-.39-.34,0,0-.16.17-.36.39-.02.02-.03.04-.05.06-.32.36-.71.8-.72.8Z"/>
    <path class="cls-3" d="M48.14,36.03c-.02-.33-.04-.66-.05-.79,0-.03,0-.05-.01-.06-.04,0-.11,0-.19,0-.23.01-.61.03-.93.05-.25.01-.46.03-.56.03,0,0,0,0,0,0,0,0,0,0,0,0-.02.06.01.61.04,1.07.02.3.04.55.04.59,0,0,0,0,0,0,0,0,0,0,0,0,.1,0,.31-.01.56-.02.32-.02.7-.04.93-.05.08,0,.15,0,.19-.01,0,0,0-.03,0-.07,0-.13-.02-.44-.03-.75Z"/>
    <path class="cls-2" d="M48.03,34.34c-.07.01-1.4.07-1.52.08-.52-.03-1,.37-.96.91.12.84-.26,2.62,1.14,2.44.78-.12,2.34.24,2.33-.98-.12-.75.24-2.5-.99-2.45ZM48.17,36.85s-.11,0-.19.01c-.24.02-.61.04-.93.05-.25.01-.46.02-.56.02,0,0,0,0,0,0h0s0,0,0,0c0-.04-.02-.29-.04-.59-.03-.45-.06-1-.04-1.07,0,0,0,0,0,0h0s0,0,0,0c.09,0,.31-.02.56-.03.32-.02.69-.04.93-.05.08,0,.14,0,.18,0,0,0,0,0,0,0,0,0,0,.03.01.06.02.13.04.46.05.79.01.31.03.62.03.75,0,.04,0,.06,0,.07,0,0,0,0,0,0Z"/>
    <path class="cls-4" d="M42.65,23.1c-.21.23-.35.56-.36.97,0,.48.19.83.46,1.07.48.43,1.24.48,1.79.15.03-.02.06-.04.09-.06,0,0,0,0,0,0,0,0,0,0,0,0,.19-.14.32-.3.41-.47.08-.15.13-.32.15-.51.05-.53-.2-1.08-.63-1.39-.59-.37-1.44-.29-1.91.24Z"/>
    <path class="cls-2" d="M52.59,25.08v-2.19l-.2-.42-.48-.25-2.41-4.48-1.73-2.29-3.24-1.9-1.62.26c-1.88-.94-3.36-1.49-4.4-1.65-4.74-.6-9.42-.71-13.94,1.27-.17.06-.34.12-.5.18l-1.11-1.43c-.65-.83-1.82-1.05-2.72-.5l-1.4.85-.87.53-.58.35-2.31,1.41-.66.4s-.07.04-.1.07c-.43.34-.52.97-.17,1.41l-.28.21h0c-.11.09-.13.26-.05.37l.69.88-.22.17.69.88.22-.17.88,1.13c-.65,1.17-1.15,2.47-1.46,3.89-.29,1.33-.49,2.69-.6,4.05l-3.41.45c-.73.1-1.25.77-1.15,1.5l1.29,9.82c.1.73.77,1.25,1.5,1.15l3.31-.43c.29.76.66,1.47,1.19,1.71.41.83.85,2.63,1.73,3.11,1.55.95,3.18.2,3.93-1.35.2.05,6.35,1.7,6.33,1.7-.21.49.02,1.1.56,1.23.86.15,2.43,1.07,2.69-.36,19.94,4.54,16.66,8.76,16.05-8.38l-1.32.07.43,8.21c.06.93-1.21,1.29-1.66.49-.17-.21-2.61-12.28-2.71-12.54,1.42-.18.59-1.81.49-2.66-.27-1.21-1.89-.39-2.65-.31-1.19.25-.4,1.89-.32,2.62.11.55.69.8,1.19.62l1.98,9.32c.1.46-.45.78-.8.46l-10.15-9.14c.4-.35.46-.97.05-1.33-.69-.51-1.67-2.05-2.54-.91l-1.27-1.14c2.41-.3,4.86-.26,7.26.09,1.08.16,2.2.14,3.27-.05-.07-.44.22-.87.67-.96.54-.02,3.02-.92,3.45-.4,1.01-.37,1.85-.79,2.86-1.07l.22,4.25,1.32-.07-.24-4.5c1.58-.34,3.22-.38,4.82-.26-.03-.91-.06-1.95-.18-2.85.24-.09.19-.46-.07-.48,0-.03,0-.06-.01-.1l.07.09.39-.62ZM42.3,32.24l-1.3.28.3,1.43s-.07.02-.12.03c-.03,0-.06.01-.07,0,0,0,0,0,0,0,0,0,0,0,0,0,0-.01-.12-.55-.22-1-.07-.33-.13-.62-.11-.63,0,0,.24-.05.52-.11.35-.08.79-.18,1-.21.06,0,.1-.02.12-.01,0,0,.01,0,.01,0,0,0,0,.05.03.12.05.24.16.77.24,1.13.04.21.08.36.08.36,0,0,0,0,0,.01,0,0-.01,0-.02.01-.03,0-.07.02-.11.02-.03,0-.05,0-.05.01l-.3-1.43ZM27.96,13.76c.1-.03.17-.04.19-.04,0,0,0,0,0,0,0,0,0,0,0,0,0,0,0,0,.01,0,.13-.02.26-.04.39-.07.03,0,.06,0,.08-.01.04,0,.08-.01.12-.02,0,0,0,0,.01,0,.08-.01.15-.02.23-.03.01,0,.03,0,.04,0,.1-.02.21-.03.31-.04,0,0,.02,0,.02,0,.03,0,.06,0,.08-.01,0,0,.01,0,.02,0,.13-.02.26-.03.39-.05.02,0,.05,0,.07,0,0,0,.01,0,.02,0,.01,0,.03,0,.04,0,.11-.01.23-.03.34-.04,0,0,0,0,0,0,.07,0,.14-.01.21-.02.02,0,.04,0,.06,0,.04,0,.09,0,.13-.01.03,0,.06,0,.1,0,.1,0,.2-.02.31-.03,0,0,0,0,.01,0,.02,0,.05,0,.07,0,0,0,.02,0,.03,0,.13,0,.25-.02.38-.03.03,0,.06,0,.09,0,.01,0,.02,0,.04,0,.03,0,.06,0,.08,0,.06,0,.12,0,.17,0,.05,0,.1,0,.15,0,.07,0,.13,0,.2,0,.03,0,.06,0,.09,0,.03,0,.07,0,.1,0,.12,0,.24,0,.36,0,.02,0,.04,0,.06,0,.03,0,.07,0,.1,0,.08,0,.15,0,.23,0,.06,0,.11,0,.17,0,.04,0,.08,0,.12,0,.03,0,.07,0,.1,0,.02,0,.04,0,.06,0,.06,0,.11,0,.17,0,.1,0,.19,0,.29,0,.03,0,.07,0,.1,0,.02,0,.04,0,.06,0,.09,0,.18,0,.26,0,.04,0,.09,0,.13,0,.02,0,.05,0,.07,0,.03,0,.06,0,.09,0,.07,0,.15,0,.22.01.08,0,.17,0,.25.01.02,0,.04,0,.05,0,0,0,0,0,0,0,.02,0,.04,0,.06,0,.19.01.38.02.56.04,0,0,.02,0,.02,0,.62.05,1.23.12,1.85.2.11.02.22.03.33.05.22.04.47.11.75.19.65.19,1.42.49,2.25.85,1.07.47,2.22,1.06,3.29,1.71,1.08.65,2.07,1.36,2.83,2.08.23.22.44.44.62.66,1.62,1.92,2.23,4.44,2.67,6.85l-3.99.69-.03-.17-1.05.18.1.55-.46.08c-.21.04-.27-.3-.06-.33,0,0,.22-.04.22-.04l-.04-.22h-.05c.68-.51.93-1.44.57-2.25l-1.51-3.36c-.37-1.07-1.91-1.55-2.82-2.01-.5-.26-1.12-.26-1.67-.24-.2,0-1.5.02-1.74.02-.36,0-.84,0-1.34.01-.72,0-1.45.01-2.18.02-1.72.02-3.53.03-5.32.05-.7,0-1.76.02-2.51.02-.37,0-.74,0-1.1.01-.26,0-.53.03-.79.06-1.06.17-2.07.65-2.85,1.39,0,0-4.86,4.55-4.86,4.55-.91.81-1.4,1.99-1.72,3.13.11-1.28.3-2.55.58-3.79,0-.02.01-.05.02-.07.39-1.85,1.22-3.51,2.35-4.93,1.15-1.44,2.63-2.63,4.29-3.51.75-.4,1.53-.73,2.35-.99.06-.02.12-.05.18-.07.33-.13.78-.31,1.24-.47.07-.03.15-.05.22-.08.51-.19.98-.34,1.24-.41ZM15.1,17.26l.49-.37-.62-.8.75-.46.87-.53,1.44-.88.58-.35.87-.53,1.3-.79c.47-.28,1.07-.17,1.4.26l.05.07-6.56,5.12-.57-.73ZM17.9,41.25c-.14-.03-.28-.09-.39-.17-.17-.12-.31-.3-.39-.5-.02-.09-.31-.83-.52-1.37-.07-.18-.14-.36-.2-.51,0-.02-.01-.04-.01-.05,0-.02-.02-.04-.02-.06-.06-.17-.12-.31-.15-.41-.11-.27-.21-.53-.29-.8-.35-1.17-.44-2.3-.37-3.41.1-1.46.48-2.9.95-4.34,0-.01,0-.03.01-.04,0-.01,0-.02.01-.04.2-.62.42-1.24.65-1.88,0,0,0,0,0,0,.02-.14.1-.31.2-.5.24-.42.67-.92,1.18-1.46.88-.91,2.01-1.92,2.94-2.76.71-.63,1.3-1.16,1.57-1.47,0,0,0,0,0,0,.1-.1.21-.19.32-.27.02-.02.04-.03.07-.05.02-.01.03-.02.05-.03.04-.03.08-.06.13-.08,0,0,.02-.01.03-.02.25-.16.52-.29.8-.39,0,0,0,0,0,0,.11-.04.21-.07.32-.1.02,0,.03,0,.05-.01.04-.01.08-.02.13-.03.12-.02.23-.04.35-.06.13-.02.27-.02.41-.03.02,0,.04,0,.05,0,.15,0,.31,0,.46,0,.38,0,.76,0,1.15-.01.29,0,.58,0,.88,0,0,0,.01,0,.02,0,.46,0,.92,0,1.38-.01.45,0,.9,0,1.35-.01,1.04-.01,2.07-.02,3.09-.03.26,0,.52,0,.77,0,.45,0,.92,0,1.4-.01.6,0,1.22-.01,1.84-.02.77,0,1.54-.02,2.26-.02.03,0,.05,0,.08,0,.02,0,.04,0,.05,0,0,0,.02,0,.03,0,.03,0,.07,0,.11,0,.3.05.76.28,1.18.49.31.16.6.31.75.37,0,0,0,0,0,0,.32.11.52.48.67.85.1.24.19.48.28.65.41-.08.77.02,1.05.23.43.31.68.86.63,1.39-.02.17-.07.35-.15.51-.09.18-.23.34-.41.47,0,0,0,0,0,0,.08.09-.22.3-.7.57-.66.37-1.67.86-2.56,1.28-.87.41-1.64.76-1.88.9-.04.02-.07.04-.08.05,0,0,0,0,0,0,0,0,0,0,0,0-.14.06-.34.17-.55.28-.13.06-.26.13-.38.18-.1.04-.19.07-.28.09-.06.01-.12.02-.17.01h-13.92l-.47.26c-.21.12-.67.37-1.09.59-.05.03-.1.05-.14.08-.25.13-.47.25-.59.33,0,0-.32,1.41-.48,2.12-.46,2.04-.97,4.31-1.37,6.09-.12.52-.4,1.78-.4,1.78-.03.11-.07.22-.13.32-.04.08-.08.15-.13.23-.19.33-.41.64-.72.79-.19.09-.41.13-.67.06ZM31.14,46.59v.02s0,0,0,0c-.01,0-.05,0-.11-.02-.21-.05-.65-.17-.99-.27-.27-.08-.49-.14-.5-.13,0,0,0,0,0,0,0,0,0,0,0,0-.01-.01,0-.07.02-.12.01-.04.02-.08.02-.08l1.62.43v.04s-.04.12-.04.12ZM31.52,45.14l-1.62-.43s.03-.18.06-.17c.01.02,1.62.4,1.6.45l-.04.15ZM30.35,34.04s.03-.04.05-.06c.2-.22.36-.39.36-.39,0,0,.17.15.39.34.27.24.61.55.76.69.05.05.08.08.09.08,0,0,0,0,0,.01,0,.01-.02.03-.03.05-.08.11-.3.35-.52.59-.22.24-.45.48-.53.58-.02.02-.03.04-.03.04,0,0-.02,0-.02,0,0,0,0,0,0,0-.04-.05-.46-.41-.8-.71-.22-.2-.4-.37-.42-.4,0,0,0,0,0,0,0,0,0,0,0,0,0,0,0,0,0,0,0,0,0,0,0,0,0,0,.4-.44.72-.8ZM29.13,34.15c-.4.35-.47.97-.06,1.34.69.52,1.68,2.05,2.55.9l12.51,11.27c.34.29.04.88-.41.75,0,0-10.85-2.91-10.85-2.91l-.54-.14c.2-.48-.04-1.08-.56-1.2-.83-.15-2.42-1.06-2.68.33-.15-.04-5.84-1.57-6.15-1.65.99-3.38-.53-9.52,4.12-10.56l2.07,1.86ZM47.92,27.75c-1.15.19-2.28.5-3.37.92-.18.07-.35.14-.53.21-.29.11-.58.23-.88.35-.11.04-.21.09-.32.13-.82.33-1.66.66-2.53.93-.85.26-1.71.45-2.57.49-.5.02-1,0-1.5-.1-.29-.04-.58-.08-.87-.11-1.53-.18-3.07-.23-4.6-.16-1.25.06-2.5.19-3.74.41,0,0,0,0,0,0-1.67.28-3.13,1.35-3.97,2.79-.41.7-.68,1.49-.76,2.32-.11.62-.17,1.57-.25,2.61-.1,1.36-.23,2.88-.58,4.03-.18.62-.43,1.14-.76,1.47,0,0,0,0,0,0-.01.02-.03.04-.05.05,0,0,0,0,0,0,0,0,0,0,0,0-.07.08-.16.13-.25.18,0,0,0,0,0,0-.11.05-.24.08-.37.1-.03,0-.05,0-.08,0-.13,0-.27-.01-.39-.05-.36-.06-.57-.45-.74-.85-.12-.29-.21-.58-.31-.77,1.01-.1,1.75-.91,2.18-1.79.26.02,2.27-9.77,2.4-10.1l1.39-.76h13.55c.16,0,.31-.01.46-.04.73-.12,5.63-2.72,6.41-3.05-.12.27.13.59.43.53,0,0,.46-.08.46-.08v.06s1.06-.18,1.06-.18l-.03-.17,3.97-.69c.04.36.08.72.1,1.08-.99,0-1.98.07-2.96.23Z"/>
    <path class="cls-4" d="M25.26,14.73c-.06.02-.12.05-.18.07-.17.07-.34.13-.48.19-.1.04-.18.08-.26.11v4.05c.19-.06.38-.1.58-.12,0,0,0,0,0,0,.26-.04.53-.05.79-.06.22,0,.43,0,.64,0,.13,0,.29,0,.46,0,.75,0,1.81-.02,2.51-.02.12,0,.23,0,.32,0,1.6-.02,3.31-.03,5-.05.74,0,1.47-.01,2.18-.02.37,0,.74,0,1.1-.01v-5.29c-.6-.08-1.21-.15-1.81-.2,0,0-.02,0-.02,0-.19-.01-.37-.03-.56-.04-.02,0-.04,0-.06,0-.16,0-.33-.02-.49-.02-.01,0-.03,0-.04,0-.03,0-.06,0-.09,0,0,0-.02,0-.03,0-.16,0-.33-.01-.49-.02-.03,0-.07,0-.1,0,0,0-.01,0-.02,0-.16,0-.32,0-.49,0,0,0,0,0-.01,0-.03,0-.07,0-.1,0-.01,0-.02,0-.03,0-.16,0-.32,0-.48,0,0,0,0,0,0,0-.03,0-.07,0-.1,0-.17,0-.35,0-.52.01-.03,0-.06,0-.09,0,0,0-.02,0-.03,0-.15,0-.31.01-.46.02-.01,0-.03,0-.04,0-.03,0-.06,0-.08,0,0,0,0,0,0,0-.18.01-.35.02-.53.04-.02,0-.05,0-.07,0-.17.01-.34.03-.5.04-.02,0-.03,0-.05,0-.02,0-.04,0-.06,0-.02,0-.03,0-.05,0-.14.01-.29.03-.43.05-.03,0-.05,0-.08,0-.01,0-.03,0-.04,0,0,0,0,0,0,0-.18.02-.36.04-.53.07-.01,0-.02,0-.04,0,0,0-.02,0-.02,0-.03,0-.06,0-.09.01-.14.02-.27.04-.41.06-.03,0-.06,0-.09.01,0,0,0,0-.01,0-.02,0-.04,0-.06.01-.18.03-.36.06-.54.09,0,0,0,0,0,0h0s0,0,0,0c-.04,0-.11.02-.19.04-.27.07-.73.23-1.24.41-.25.09-.52.19-.78.29-.23.09-.46.18-.68.26ZM28.64,13.95c1.24-.66,2.79-.2,3.45,1.04.66,1.24.2,2.79-1.04,3.45-1.24.66-2.79.2-3.45-1.04-.66-1.24-.2-2.79,1.04-3.45Z"/>
    <path class="cls-2" d="M27.6,17.4c.66,1.24,2.21,1.71,3.45,1.04,1.24-.66,1.71-2.21,1.04-3.45-.66-1.24-2.21-1.71-3.45-1.04-1.24.66-1.71,2.21-1.04,3.45ZM28.38,14.53c.06-.05.12-.1.18-.14.05-.04.11-.07.17-.11.06-.04.13-.07.2-.1.11-.05.23-.09.35-.13,0,0,0,0,0,0,.32.6.64,1.19.96,1.79.51-.28,1.03-.55,1.54-.83,0,0,.01.02.02.02.02.03.03.05.05.08,0,0,0,0,0,0,.02.03.03.06.05.1,0,0,0,0,0,0,.01.03.03.05.04.08,0,0,0,.02.01.03-.46.25-.92.5-1.39.74h0c.52.02,1.05.03,1.57.05,0,.12,0,.25-.01.37-.29,0-.57-.02-.85-.03,0,0,0,0,0,0,.27.08.55.16.82.25,0,0,0,0,0,0-.02.1-.05.2-.09.29,0,.02-.01.03-.02.05,0,0,0,0,0,0,0,0,0,0,0,0-.66-.2-1.31-.4-1.97-.6,0,0,0,0-.01,0,0,0,0,0,0,.01-.2.66-.4,1.31-.59,1.97,0,0,0,0,0,.01,0,0,0,0,0,0-.04-.01-.09-.02-.13-.03-.07-.02-.15-.05-.22-.07.08-.28.17-.55.25-.82,0,0,0,0,0,0-.15.24-.3.48-.45.73-.11-.06-.21-.12-.31-.19.28-.45.55-.89.83-1.34,0,0,0,0,0,0-.46.25-.92.5-1.39.74-.07-.1-.12-.21-.17-.32.51-.27,1.02-.55,1.53-.82,0,0,0-.01,0-.01-.31-.59-.63-1.17-.94-1.76,0-.01,0-.02,0-.02Z"/>
    <path class="cls-3" d="M29.32,16.31s0,0,0,.01c-.51.27-1.02.55-1.53.82.05.11.11.22.17.32.46-.25.92-.5,1.39-.74,0,0,0,0,0,0-.28.45-.55.89-.83,1.34.1.07.2.14.31.19.15-.24.3-.49.45-.73,0,0,0,0,0,0-.08.27-.16.55-.25.82.07.02.15.05.22.07.04.01.09.02.13.03,0,0,0,0,0,0,0,0,0,0,0-.01.2-.66.4-1.31.59-1.97,0,0,0,0,0-.01,0,0,.01,0,.01,0,.66.2,1.31.4,1.97.6,0,0,0,0,0,0,0,0,0,0,0,0,0-.02.01-.03.02-.05.04-.1.06-.19.09-.29,0,0,0,0,0,0-.27-.08-.55-.16-.82-.25,0,0,0,0,0,0,.28,0,.57.02.85.03.01-.12.02-.25.01-.37-.52-.02-1.05-.03-1.57-.05h0c.46-.25.92-.5,1.39-.75,0,0,0-.02-.01-.03-.01-.03-.03-.05-.04-.08,0,0,0,0,0,0-.02-.03-.03-.06-.05-.1,0,0,0,0,0,0-.02-.03-.03-.05-.05-.08,0,0,0-.02-.02-.02-.51.28-1.03.55-1.54.83-.32-.6-.64-1.19-.96-1.79,0,0,0,0,0,0-.12.03-.24.08-.35.13-.07.03-.13.07-.2.1-.06.03-.11.07-.17.11-.06.05-.12.09-.18.14,0,0,0,.01,0,.02.31.59.63,1.17.94,1.76Z"/>
  </g>
</svg>