<?xml version="1.0" encoding="UTF-8"?>
<svg id="Layer_2" data-name="Layer 2" xmlns="http://www.w3.org/2000/svg" xmlns:xlink="http://www.w3.org/1999/xlink" viewBox="0 0 62.05 62.05">
  <defs>
    <style>
      .cls-1 {
        fill: none;
      }

      .cls-1, .cls-2, .cls-3, .cls-4 {
        stroke-width: 0px;
      }

      .cls-5 {
        fill: url(#radial-gradient);
        stroke: url(#radial-gradient-2);
        stroke-miterlimit: 10;
        stroke-width: 2px;
      }

      .cls-2 {
        fill: #323232;
      }

      .cls-3 {
        fill: #fff;
      }

      .cls-4 {
        fill: #7e7e7e;
      }
    </style>
    <radialGradient id="radial-gradient" cx="135.74" cy="-714.38" fx="135.74" fy="-714.38" r="30.02" gradientTransform="translate(-104.72 745.4)" gradientUnits="userSpaceOnUse">
      <stop offset="0" stop-color="#b3b2b3" stop-opacity=".5"/>
      <stop offset="1" stop-color="#333" stop-opacity=".5"/>
    </radialGradient>
    <radialGradient id="radial-gradient-2" cx="-185.02" cy="845.15" fx="-185.02" fy="845.15" r="31.02" gradientTransform="translate(759.47 -435.76) rotate(45)" gradientUnits="userSpaceOnUse">
      <stop offset="0" stop-color="#000" stop-opacity=".25"/>
      <stop offset="1" stop-color="#000" stop-opacity=".25"/>
    </radialGradient>
  </defs>
  <circle class="cls-5" cx="31.02" cy="31.02" r="30.02"/>
  <g>
    <path class="cls-1" d="M18.36,18.87c-.07.03-.13.06-.19.08-.03.01-.05.02-.07.03-.04.02-.07.03-.11.05-.02,0-.03.01-.05.02-.23.1-.44.18-.6.25-.27.1-.54.22-.79.34.57-.3,1.18-.57,1.81-.77Z"/>
    <path class="cls-1" d="M12.82,22.69c-.95,1.25-1.62,2.71-2.04,4.28.34-1.61,1.06-3.05,2.04-4.28Z"/>
    <polygon class="cls-1" points="37.59 8.38 37.59 8.39 37.43 8.28 37.59 8.38"/>
    <path class="cls-1" d="M21.25,17.85s-.09.02-.17.04c.09-.03.15-.04.17-.04Z"/>
    <path class="cls-1" d="M19.5,18.43c-.06.02-.11.05-.17.07-.1.03-.2.07-.3.11.14-.06.3-.12.47-.18Z"/>
    <path class="cls-1" d="M15.69,32.06c-.05.25-.15.69-.25,1.09.1-.49.19-.87.25-1.09Z"/>
    <path class="cls-1" d="M29.93,30.76c-.05.01-.09.01-.12.01h-.24c.18,0,.32-.01.36-.01Z"/>
    <path class="cls-1" d="M13.97,39.68c-.08.43-.18.85-.18.85-.02.1-.06.19-.11.28-.04.06-.08.13-.11.2.11-.29.25-.75.4-1.33Z"/>
    <path class="cls-1" d="M18,19.03s.07-.03.11-.05c-.04.02-.08.03-.11.05Z"/>
    <path class="cls-1" d="M18.2,22.5c-.08.02-.17.04-.25.06.08-.02.16-.05.25-.06Z"/>
    <path class="cls-1" d="M23.14,17.59c-.08.01-.17.02-.25.03.01,0,.02-.01.02-.01.08-.01.16-.01.23-.02Z"/>
    <path class="cls-1" d="M22,17.73s-.01,0-.02.01c-.03,0-.06.01-.09.01.03-.01.06-.01.09-.02h.02Z"/>
    <path class="cls-1" d="M23.5,32.32c-1.08.05-2.17.17-3.24.36,1.08-.21,2.16-.32,3.24-.36Z"/>
    <path class="cls-1" d="M13.34,28.45c.12-.08.25-.16.39-.24-.14.09-.27.17-.39.24Z"/>
    <path class="cls-1" d="M12.94,41.69c-.11.05-.24.08-.37.08-.07,0-.14,0-.22-.02-.03-.01-.05-.01-.08-.03.22.06.46.05.67-.03Z"/>
    <path class="cls-1" d="M14.13,27.95c.22-.14.44-.28.66-.41-.22.14-.45.28-.66.41Z"/>
    <path class="cls-1" d="M29.56,32.65c-.44.02-.88-.01-1.31-.09-.25-.03-.5-.07-.75-.09.62.05,1.23.11,1.85.17.07.01.14.01.21.01Z"/>
    <path class="cls-1" d="M35.48,30.82c-.16.06-.31.12-.46.19-.25.09-.5.19-.75.29.4-.17.8-.33,1.21-.48Z"/>
    <path class="cls-1" d="M15.16,26.15c-1.01.94-1.94,1.82-2.24,2.1.66-.69,1.5-1.44,2.24-2.1Z"/>
    <polygon class="cls-2" points="14.19 37.12 14.26 36.52 14.33 35.91 12.91 35.75 12.67 35.72 11.48 35.59 11.42 36.19 11.35 36.8 12.77 36.96 14.19 37.12"/>
    <path class="cls-3" d="M16.11,17.11l-5.69,4.45-.1-.13-.4-.51.21-.15.22-.17-.3-.38-.24-.31.65-.4.75-.46,1.02-.62.23-.14.5-.31.75-.46.39-.23.74-.46c.2-.12.44-.16.65-.12.16.03.31.1.43.2.05.05.1.09.14.15l.05.05Z"/>
    <path class="cls-3" d="M36.06,30.61c-.19.07-.39.14-.58.21-.41.15-.81.31-1.21.48h-.01c-.08.04-.17.07-.25.11-.01,0-.02.01-.03.01-.18.07-.36.14-.54.21-.35.14-.71.27-1.07.4-.19.07-.38.13-.57.19h0c-.49.15-.98.27-1.48.35-.25.04-.5.07-.75.08-.07,0-.14,0-.21-.01-.62-.06-1.23-.12-1.85-.17h0c-.64-.08-1.29-.13-1.93-.15-.69-.03-1.38-.03-2.07,0-1.08.04-2.16.15-3.24.36h-.01s-.03.01-.03.01c-1.44.25-2.69,1.18-3.41,2.41-.09.15-.17.3-.24.46-.22.49-.37,1.01-.42,1.56-.04.22-.07.49-.1.8-.04.43-.07.93-.11,1.47-.09,1.17-.2,2.49-.5,3.5-.16.54-.37.98-.66,1.27h0s0,.01-.01.02-.02.02-.03.03h0c-.07.07-.14.12-.22.16,0,0-.01,0-.01,0-.03.01-.06.02-.1.03-.07.03-.14.04-.22.05h-.07c-.11.01-.22-.01-.33-.04h-.02c-.3-.06-.49-.39-.63-.74-.1-.25-.18-.51-.27-.67.88-.08,1.52-.79,1.9-1.55.02,0,.05-.07.1-.2.44-1.28,1.88-8.31,1.98-8.57l1.21-.66h11.76c.13,0,.27-.01.4-.04.02,0,.04-.01.06-.01.7-.18,4-1.91,5.18-2.48.23.35.43.72.61,1.11Z"/>
    <polygon class="cls-3" points="21.25 17.85 21.25 17.85 21.25 17.85 21.25 17.85"/>
    <path class="cls-3" d="M22,17.73s-.01,0-.02.01c-.03,0-.06.01-.09.01.03-.01.06-.01.09-.02h.02Z"/>
    <path class="cls-3" d="M23.5,17.55s-.01,0-.01.01h-.06s.05,0,.07-.01Z"/>
    <path class="cls-3" d="M24.36,17.49c-.12.01-.23.02-.35.03.09-.01.18-.02.27-.03h.08Z"/>
    <path class="cls-3" d="M18.44,22.46c-.69.1-1.35.37-1.92.76-.18.12-.34.25-.5.4-.01,0-.03.03-.05.04l-1.34,1.26-.15.14-.17.16-.14.13h-.01s-.45.43-.45.43l-.14.13-1.81,1.7s-.01.01-.02.02c-.24.21-.44.45-.62.72-.4.59-.66,1.29-.86,1.98.06-.7.15-1.39.27-2.07.02-.14.05-.27.07-.41.05-.27.11-.55.17-.82,0-.02,0-.04,0-.06.42-1.57,1.09-3.03,2.04-4.28.35-.44.74-.85,1.15-1.23.77-.71,1.64-1.32,2.57-1.81t0-.01c.25-.12.52-.24.79-.34.16-.07.37-.15.6-.25v3.51c.08-.02.17-.04.25-.06.08-.02.17-.03.25-.04Z"/>
    <path class="cls-3" d="M32.03,26.57l.04.5c.18,2.43-2.5,4.06-4.55,2.74-.03-.02-.05-.04-.08-.06-1.45-1-1.92-2.93-1.09-4.48.07-.11.13-.22.21-.33.03-.05.07-.1.11-.15-.24-.34-.39-.76-.41-1.2-.28,0-.56.01-.84.01v.81h-1.21v-.8h-.05c-.15,0-.29.01-.44.01h-.69c-.16,0-.32,0-.48,0v.78h-1.21v-.77c-.25,0-.51.01-.76.01-.3,0-.6,0-.89.01v.75h-1.21v-.68h-.01s-.07.02-.1.03c-.02,0-.03,0-.04.01-.04.01-.08.02-.11.03-.02,0-.04.01-.06.02-.04.01-.08.02-.11.03-.06.02-.11.04-.16.06-.15.06-.29.13-.43.21-.04.02-.08.04-.11.07-.01,0-.02,0-.02,0-.04.03-.08.05-.11.08-.02.01-.03.02-.05.03-.02,0-.03.02-.05.04-.04.03-.08.05-.11.08-.02.02-.04.03-.05.05-.04.03-.08.06-.12.1-.24.27-.75.73-1.37,1.28h0c-.1.1-.21.19-.31.29-1.01.94-1.94,1.82-2.24,2.1-.45.47-.82.91-1.03,1.27-.07.14-.13.29-.18.43h0c-.14.43-.29.84-.43,1.25-.04.13-.09.26-.13.39,0,.01,0,.02-.01.02h0v.02s-.01.02-.01.03c-.41,1.25-.74,2.5-.82,3.77-.02.3-.03.6-.01.91.02.67.13,1.35.33,2.05.07.23.16.46.25.69.03.09.08.21.14.36,0,0,0,.03.02.04h0v.02s0,0,0,.02c.01.04.03.09.05.13.01.04.03.08.04.12.03.07.05.13.08.2.1.26.23.58.32.82.07.19.13.34.13.37.01.01.02.03.02.04.01.01.01.02.01.02.01.02.01.03.02.04.01.01.01.02.02.03h0c.07.13.16.23.27.31.04.03.08.05.13.07.04.03.09.04.13.05.22.06.46.05.67-.03.16-.08.3-.21.42-.37.08-.1.14-.2.21-.31.11-.29.25-.75.4-1.33.02-.09.04-.17.06-.26.04-.17.08-.32.1-.43,0,0,.01,0,.01-.01.31-1.4.71-3.16,1.07-4.8.04-.16.08-.32.11-.48.03-.15.08-.35.12-.55.1-.49.19-.87.25-1.09.01-.03.02-.06.02-.08.01-.03.01-.05.02-.07.01-.03.01-.05.01-.05,0-.01.01-.01.02-.02.11-.06.28-.16.48-.26.01,0,.01-.01.01-.01l-.26-.43,1.03-.64.3.49.41-.22h.75v-.49h1.21v.49h1.65v-.49h1.21v.49h1.66v-.49h1.21v.49h1.65v-.49h1.21v.49h1.29c.18,0,.32-.01.36-.01v-.48h1.09s.03-.02.07-.05c.19-.1.77-.37,1.44-.69.07-.03.13-.06.19-.09.13-.06.27-.12.4-.19.47-.22.95-.45,1.36-.67.07-.03.13-.06.19-.09-.75-.82-1.64-1.47-2.64-1.93ZM14.26,36.52l-.07.6-1.42-.16-1.43-.16.07-.61.07-.6,1.18.14.24.02,1.43.17-.07.6ZM14.51,34.27l-2.84-.32.14-1.21,2.84.33-.14,1.2ZM16.1,29.03l-1.03.64-.6-.95-.7.43-.44-.7c.12-.08.26-.16.39-.24.05-.03.1-.06.14-.09.09-.05.18-.11.27-.16.21-.14.44-.28.66-.42.17-.1.33-.2.49-.3.05-.04.1-.07.15-.1.12-.07.23-.14.33-.21l.44.71-.7.43.6.96ZM19.69,28.78h-1.21v-2.87h1.21v2.87ZM22.55,28.78h-1.21v-2.87h1.21v2.87ZM25.42,28.78h-1.21v-2.87h1.21v2.87Z"/>
    <rect class="cls-2" x="18.48" y="25.91" width="1.21" height="2.86"/>
    <path class="cls-4" d="M17.32,30.99c-.18.11-.57.31-.93.51h-.01s-.08.05-.12.07h-.01l-.26-.43,1.03-.64.3.49Z"/>
    <path class="cls-4" d="M14.48,28.72l.6.96,1.03-.64-.6-.96.7-.44-.44-.7c-.1.07-.22.13-.33.21-.05.03-.1.06-.15.1-.16.1-.32.2-.49.3-.22.14-.45.28-.66.41-.09.06-.18.11-.26.16-.05.03-.09.06-.14.09-.14.09-.27.17-.39.24l.44.7.7-.44Z"/>
    <rect class="cls-2" x="21.34" y="25.91" width="1.21" height="2.86"/>
    <rect class="cls-2" x="24.21" y="25.91" width="1.21" height="2.86"/>
    <rect class="cls-4" x="18.48" y="30.28" width="1.21" height=".49"/>
    <rect class="cls-4" x="21.34" y="30.28" width="1.21" height=".49"/>
    <rect class="cls-4" x="24.21" y="30.28" width="1.21" height=".49"/>
    <rect class="cls-4" x="27.07" y="30.28" width="1.21" height=".49"/>
    <path class="cls-4" d="M31.01,30.28c-.06.03-.13.06-.21.11-.09.04-.18.09-.27.13t0,.01c-.1.05-.2.1-.31.14h-.01c-.09.04-.17.07-.24.08h-.01s-.01,0-.02,0v-.48h1.08Z"/>
    <path class="cls-4" d="M19.69,23.66v.75h-1.21v-.68c.1-.02.2-.03.3-.05.12-.01.23-.02.35-.02h.56Z"/>
    <path class="cls-4" d="M22.55,23.63v.78h-1.21v-.77h.02c.19,0,.39,0,.59-.01h.6Z"/>
    <path class="cls-4" d="M25.42,23.6v.81h-1.21v-.8c.36,0,.74-.01,1.1-.01h.11Z"/>
    <rect class="cls-2" x="12.56" y="32.08" width="1.21" height="2.86" transform="translate(-21.62 42.79) rotate(-83.5)"/>
    <path class="cls-4" d="M26.26,17.44v4.89c-1.06.01-2.12.02-3.14.03h-.27c-.19,0-.39.01-.58.01h-.26c-.52,0-1.17,0-1.7.02h-.22c-.32,0-.64.01-.95.01-.08,0-.15.01-.23.01-.16.01-.31.02-.46.04h-.01c-.08.02-.17.03-.25.05-.08.02-.17.04-.25.06v-3.51s.03-.02.05-.02c.04-.02.07-.03.11-.05.02-.01.04-.02.07-.03.06-.02.12-.05.19-.08.07-.03.15-.06.22-.08.05-.02.1-.05.16-.07h.01c.08-.03.18-.07.28-.11.1-.04.2-.08.3-.11.06-.02.11-.05.17-.07.09-.04.19-.08.28-.11.01,0,.02,0,.03,0,.06-.02.11-.04.17-.06.01,0,.02,0,.02-.01.09-.03.17-.06.25-.08.1-.04.2-.08.3-.11.21-.07.4-.13.53-.16.08-.02.13-.03.17-.04.11-.02.21-.03.31-.05.02,0,.03,0,.04-.01.02,0,.05,0,.07-.01h.01s.05-.01.08-.01h.02s.02-.01.03-.01c.03,0,.05,0,.08,0,.03-.01.06-.01.09-.02h.04c.08-.01.15-.02.23-.03.01,0,.03,0,.04,0h.02s.04-.01.06-.01h.01c.06-.01.12-.02.18-.02l.18-.03h.07s.03,0,.04,0h.04s.02-.01.02-.01c.08-.01.16-.01.23-.02h.01c.05-.01.1-.01.14-.02h.05s.03,0,.04,0h.05s.05,0,.07-.01h.08s.06-.01.1-.01c.05-.01.11-.01.17-.02h.16c.12-.01.23-.02.35-.03h.06s.03-.01.04-.01h.12c.06-.01.11-.01.17-.01.05,0,.09-.01.14-.01h.2c.1-.01.2-.01.31-.01h.14c.07,0,.13,0,.2,0h.52Z"/>
    <path class="cls-4" d="M23.31,36.8l-1.11,1.11v3.24c6.31,2.52,12.18,5.96,17.48,10.24h0s3.53-8.17,3.53-8.17l-.1-1.92c-1.5.17-3.02.26-4.53.26-1.71,0-3.44-.11-5.14-.33l-2.11-.27-1.84-4.15h-6.2Z"/>
    <path class="cls-3" d="M44.92,38.83h-.25l-.29.36-.23.04c-.51.07-1.02.14-1.51.19-2.97.32-5.98.28-8.94-.1l-1.03-.13-1.92-4.31h-8.24l-2.23,2.24v5.34c6.59,2.49,12.71,6,18.19,10.43l1.57,1.26.65-.26,4.46-10.32-.23-4.74ZM39.68,51.39c-5.3-4.27-11.17-7.71-17.48-10.24v-3.24l1.11-1.11h6.2l1.84,4.15,2.11.27c1.69.22,3.42.33,5.13.33,1.51,0,3.03-.08,4.53-.25l.1,1.92-3.54,8.17Z"/>
    <path class="cls-3" d="M43.56,28.02v2.77h-6.05l-.17-.41c-.72-1.73-1.92-3.19-3.48-4.23-.6-.39-1.23-.72-1.89-.97.01-.22.04-.43.09-.64.06-.27.15-.53.27-.78.26.09.51.19.76.3v-1.12s.04-.04.05-.06l.22-.32,5.49,3.97c1.35.98,3.02,1.51,4.69,1.49h.02Z"/>
    <polygon class="cls-3" points="34.09 20.4 33.09 21.84 33.09 20.99 33.41 20.52 33.09 20.3 33.09 19.71 34.09 20.4"/>
    <path class="cls-3" d="M30.02,15.42l-.26,1.43c-.26-.04-.52-.08-.78-.12v4.75l-1.45,2.1s0-.08,0-.11v-8.37c.84.07,1.68.18,2.5.32Z"/>
    <path class="cls-4" d="M33.09,19.71v.6l-1.18,1.71c-.22.31-.64.39-.95.18l-.04-.03c-.31-.22-.39-.64-.17-.95l1.12-1.62-.36-.25-1.12,1.62c-.22.31-.64.39-.95.18-.09-.06-.21-.04-.27.05l-.19.28v-4.75c.26.04.52.08.78.12l-.27,1.48.93.64-.95,1.37c-.06.09-.09.19-.08.29.12.01.23.05.33.12.09.06.21.04.27-.05l1.39-2.02,1.16.8-1.39,2.02c-.06.09-.04.21.05.27l.04.03c.08.06.21.03.27-.05l1.46-2.12.12.08Z"/>
    <path class="cls-4" d="M32.63,22.52c-.07.09-.04.21.04.27h.02c.1.08.17.16.22.26.07-.02.13-.06.18-.11v1.12c-.25-.11-.5-.21-.76-.3.04-.11.09-.21.15-.3.04-.09.02-.2-.06-.26h-.02c-.31-.22-.39-.65-.17-.96l.86-1.25v.85l-.46.68Z"/>
    <path class="cls-2" d="M22.91,17.61s-.01.01-.02.01c.08-.01.17-.02.25-.03-.07.01-.15.01-.23.02ZM23.43,17.56h.06s.01-.01.01-.01c-.02.01-.05.01-.07.01Z"/>
    <path class="cls-2" d="M39.96,9.18l.33-.47-3.2-2.21-.36.52c-.28.41-1.57,1.23-4.35,2.33-.85.33-1.46,1.08-1.62,1.98l-.52,2.85c-.88-.16-1.78-.27-2.68-.34-.33-.03-.67.09-.91.32-.25.22-.39.55-.39.88v1.14c-2.75-.07-5.46.26-8.11,1.42-.15.05-.29.1-.43.16l-.97-1.24c-.57-.73-1.58-.91-2.36-.43l-1.22.74-.75.46-.5.3-2,1.22-.57.35s-.06.04-.09.06c-.37.29-.44.84-.15,1.22l-.24.19c-.06.05-.09.11-.09.18,0,.05.02.1.05.14l.6.76-.19.15.59.77.2-.15.76.97c-.57,1.02-1,2.15-1.27,3.38-.25,1.16-.43,2.33-.53,3.52l-2.96.39c-.64.08-1.08.66-1,1.3l1.12,8.53c.09.63.67,1.08,1.31,1l2.87-.38c.25.66.57,1.27,1.03,1.49.35.71.73,2.28,1.5,2.69,1.34.83,2.76.17,3.41-1.17l.45-1.07c.87-2.94-.46-8.27,3.58-9.17l1.47-.23c.06,0,.13-.01.2-.02l-2.9,2.9v6.7l.39.14c6.62,2.46,12.76,5.95,18.25,10.38l2.12,1.72,1.78-.72.52-1.2.67-.19,4.52-10.39-.97-5.39-.93-.54h-1.07l-1.37,1.04c-.16.02-.31.04-.47.05-2.87.31-5.78.28-8.65-.09l-.36-.05-1.96-4.4h-.64c0-.35.24-.66.59-.74.47-.01,2.62-.8,3-.35.73-.27,1.36-.57,2.06-.8l.12.27h8.15v-4.15c1.57-.28,3.01-1.03,4.16-2.18l2.33-2.33s.07-.07.1-.11c.29-.3.56-.63.8-.97.12-.18.24-.36.34-.55l.44-.77.24-.42.75-1.3,1.04-1.81-15.06-8.28ZM32,11.55c.09-.47.4-.85.85-1.03,1.91-.75,3.29-1.44,4.13-2.04.13-.09.25-.19.35-.27l.1.07.16.1h0s-1.24,1.8-1.24,1.8l-5.13,7.43.09.06-.15.22-.03.04-.02-.02-.23-.16,1.12-6.2ZM10.42,21.56l-.1-.13-.4-.51.21-.15.22-.17-.3-.38-.24-.31.65-.4.75-.46,1.02-.62.23-.14.5-.31.75-.46.39-.23.74-.46c.2-.12.44-.16.65-.12.16.03.31.1.43.2.05.05.1.09.14.15l.05.05-5.69,4.45ZM10.53,28.26c.02-.14.05-.27.07-.41.05-.27.11-.55.17-.82,0-.02,0-.04,0-.06.34-1.61,1.06-3.05,2.04-4.28.35-.44.74-.85,1.15-1.23.77-.71,1.64-1.32,2.57-1.81t0-.01c.57-.3,1.18-.57,1.81-.77.07-.03.15-.06.22-.08.05-.02.1-.05.16-.07h.01c.08-.03.18-.07.28-.11.14-.06.3-.12.47-.18.09-.04.19-.08.28-.11.01,0,.02,0,.03,0,.06-.02.11-.04.17-.06.01,0,.02,0,.02-.01.09-.03.17-.06.25-.08.1-.04.2-.08.3-.11.21-.07.4-.13.53-.16.09-.03.15-.04.17-.04.11-.02.21-.03.31-.05.02,0,.03,0,.04-.01.02,0,.05,0,.07-.01h.01s.05-.01.08-.01h.02s.02-.01.03-.01c.03,0,.05,0,.08,0,.03-.01.06-.01.09-.02h.04c.08-.01.15-.02.23-.03.01,0,.03,0,.04,0h.02s.04-.01.06-.01h.01c.06-.01.12-.02.18-.02l.18-.03h.07s.03,0,.04,0h.04s.02-.01.02-.01c.08-.01.16-.01.23-.02h.01c.05-.01.1-.01.14-.02h.05s.03,0,.04,0h.05s.05,0,.07-.01h.08s.06-.01.1-.01c.05-.01.11-.01.17-.02h.16c.09-.01.18-.02.27-.03h.14s.03-.01.04-.01h.12c.06-.01.11-.01.17-.01.05,0,.09-.01.14-.01h.2c.1-.01.2-.01.31-.01h.14c.07,0,.13,0,.2,0h.52v4.89c-1.06.01-2.12.02-3.14.03h-.27c-.19,0-.39.01-.58.01h-.26c-.52,0-1.17,0-1.7.02h-.22c-.32,0-.64.01-.95.01-.08,0-.15.01-.23.01-.16.01-.31.02-.46.04h-.01c-.69.11-1.35.38-1.92.77-.18.12-.34.25-.5.4-.01,0-.03.03-.05.04l-1.34,1.26-.15.14-.17.16-.14.13h-.01s-.45.43-.45.43l-.14.13-1.81,1.7s-.01.01-.02.02c-.24.21-.44.45-.62.72-.4.59-.66,1.29-.86,1.98.06-.7.15-1.39.27-2.07ZM12.57,41.77c-.07,0-.14,0-.22-.02-.03-.01-.05-.01-.08-.03-.04-.01-.09-.02-.13-.05-.05-.02-.09-.04-.13-.07-.11-.08-.2-.18-.27-.3h0s-.01-.03-.02-.04c-.01,0-.01-.02-.02-.04,0,0,0-.01-.01-.02,0,0-.01-.03-.02-.04,0-.03-.06-.18-.13-.37-.09-.24-.22-.56-.32-.82-.03-.07-.05-.13-.08-.2-.01-.04-.03-.08-.04-.12-.02-.04-.04-.09-.05-.13,0-.01,0-.01,0-.02h0v-.02s-.02-.03-.02-.04c-.06-.15-.11-.27-.14-.36-.09-.23-.18-.46-.25-.69-.2-.7-.31-1.38-.33-2.05-.02-.31,0-.61.01-.91.08-1.27.41-2.52.82-3.77,0-.01.01-.02.01-.03h0v-.02s.01-.01.01-.02c.04-.13.09-.26.13-.39.14-.41.29-.82.43-1.24h0c.03-.13.09-.28.18-.44.21-.36.58-.8,1.03-1.27.66-.69,1.5-1.44,2.24-2.1.1-.1.21-.19.31-.28h0c.62-.56,1.13-1.02,1.37-1.29.04-.04.08-.07.12-.1.01-.02.03-.03.05-.05.03-.03.07-.05.11-.08.02-.02.03-.03.05-.04.02-.01.03-.02.05-.03.03-.03.07-.05.11-.08,0,0,0,0,.02,0,.03-.03.07-.05.11-.07.14-.08.28-.15.43-.21.05-.02.1-.04.16-.06.03-.01.07-.02.11-.03.02,0,.04-.02.06-.02.03-.01.07-.02.11-.03,0-.01.02-.01.04-.01.03,0,.07-.02.1-.03h.01c.1-.02.2-.03.3-.05.12-.01.23-.02.35-.02h.56c.29-.01.59-.01.89-.01.25,0,.51-.01.76-.01h.02c.19,0,.39,0,.59-.01h.6c.16,0,.32,0,.48,0h.69c.15,0,.29-.01.44-.01h.05c.36,0,.74-.01,1.1-.01h.11c.28,0,.56-.01.84-.01.02.44.17.86.41,1.2-.04.05-.08.1-.11.15-.08.11-.14.22-.21.33-.83,1.55-.36,3.48,1.09,4.48.03.02.05.04.08.06,2.05,1.32,4.73-.31,4.55-2.74l-.04-.5c1,.46,1.89,1.11,2.64,1.93-.06.03-.12.06-.19.09-.41.22-.89.45-1.36.67-.13.07-.27.13-.4.19-.06.03-.12.06-.19.09-.67.32-1.25.59-1.44.69-.04.03-.06.04-.07.05h-.01c-.06.03-.13.06-.21.11-.09.04-.18.09-.27.13t0,.01c-.1.05-.2.1-.31.14h-.01c-.09.04-.17.07-.24.08h-.01s-.01,0-.02,0c-.05.01-.09.01-.12.01h-12.08l-.41.22c-.18.11-.57.31-.93.51h-.01s-.08.05-.12.07h-.01s0,.01-.01.01c-.2.1-.37.2-.48.26-.01.01-.02.01-.02.02,0,0,0,.02-.01.05-.01.02-.01.04-.02.07,0,.02-.01.05-.02.08-.05.25-.15.69-.25,1.09-.04.2-.09.4-.12.55-.03.16-.07.32-.11.48-.36,1.64-.76,3.4-1.07,4.8,0,.01-.01.01-.01.01-.02.11-.06.26-.1.43-.02.09-.04.17-.06.26-.08.43-.18.85-.18.85-.02.1-.06.19-.11.28-.04.06-.08.13-.11.2-.07.11-.13.21-.21.31-.12.16-.26.29-.42.37-.11.05-.24.08-.37.08ZM28.02,26.33c.28-.42.82-.57,1.27-.39.02,0,.05.02.07.04.05.02.1.05.14.08.04.02.07.04.09.07.41.35.5.96.19,1.41-.03.04-.05.07-.08.09-.31.37-.84.48-1.27.27-.05-.03-.1-.05-.14-.09h-.01c-.48-.34-.6-1-.26-1.48ZM32.67,39.19l1.03.13c2.96.38,5.97.42,8.94.1.49-.05,1-.12,1.51-.19l.23-.04.29-.36h.25l.23,4.74-4.46,10.32-.65.26-1.57-1.26c-5.48-4.43-11.6-7.94-18.19-10.43v-5.34l2.23-2.24h8.24l1.92,4.31ZM35.48,30.82c-.16.06-.31.12-.46.19-.25.09-.5.19-.75.29h-.01c-.08.04-.17.07-.25.11-.01,0-.02.01-.03.01-.18.07-.36.14-.54.21-.35.14-.71.27-1.07.4-.19.07-.38.13-.57.19h0c-.49.15-.98.27-1.48.35-.25.04-.5.07-.75.08-.44.02-.88-.01-1.31-.09-.25-.03-.5-.07-.75-.09h0c-.64-.08-1.29-.13-1.93-.15-.69-.03-1.38-.03-2.07,0-1.08.05-2.17.17-3.24.36h-.01s-.03.01-.03.01c-1.44.25-2.69,1.18-3.41,2.41-.09.15-.17.3-.24.46-.22.49-.37,1.01-.42,1.56-.04.22-.07.49-.1.8-.04.43-.07.93-.11,1.47-.09,1.17-.2,2.49-.5,3.5-.16.54-.37.98-.66,1.27h0s0,.01-.01.02-.02.02-.03.03h0c-.07.07-.14.12-.22.16,0,0-.01,0-.01,0-.03.01-.06.02-.1.03-.07.03-.14.04-.22.05h-.07c-.11.01-.22-.01-.33-.04h-.02c-.3-.06-.49-.39-.63-.74-.1-.25-.18-.51-.27-.67.88-.08,1.52-.79,1.9-1.55.02,0,.05-.07.1-.2.44-1.28,1.88-8.31,1.98-8.57l1.21-.66h11.76c.13,0,.27-.01.4-.04.02,0,.04-.01.06-.01.7-.18,4-1.91,5.18-2.48.23.35.43.72.61,1.11-.19.07-.39.14-.58.21ZM43.56,30.79h-6.05l-.17-.41c-.72-1.73-1.92-3.19-3.48-4.23-.6-.39-1.23-.72-1.89-.97.01-.22.04-.43.09-.64.06-.27.15-.53.27-.78.04-.11.09-.21.15-.3.04-.09.02-.2-.06-.26h-.02c-.31-.22-.39-.65-.17-.96l.86-1.25.32-.47-.32-.22h0s-1.18,1.72-1.18,1.72c-.22.31-.64.39-.95.18l-.04-.03c-.31-.22-.39-.64-.17-.95l1.12-1.62-.36-.25-1.12,1.62c-.22.31-.64.39-.95.18-.09-.06-.21-.04-.27.05l-.19.28-1.45,2.1s0-.08,0-.11v-8.37c.84.07,1.68.18,2.5.32l-.26,1.43-.27,1.48.93.64-.95,1.37c-.06.09-.09.19-.08.29.12.01.23.05.33.12.09.06.21.04.27-.05l1.39-2.02,1.16.8-1.39,2.02c-.06.09-.04.21.05.27l.04.03c.08.06.21.03.27-.05l1.46-2.12.12.08,1,.69-1,1.44-.46.68c-.07.09-.04.21.04.27h.02c.1.08.17.16.22.26.07-.02.13-.06.18-.11.02-.02.04-.04.05-.06l.22-.32,5.49,3.97c1.35.98,3.02,1.51,4.69,1.49h.02v2.77ZM52.88,18.65l-.04.08-.71,1.23-.24.42-.43.75c-.04.06-.07.12-.11.19-.08.12-.16.24-.24.35-.07.1-.14.19-.21.28-.02.02-.03.04-.05.07-.14.16-.28.32-.44.48l-.15.15-2.17,2.18c-1.22,1.22-2.84,1.91-4.57,1.93-1.4.01-2.8-.43-3.93-1.25l-5.51-3.99.9-1.3-1.77-1.26,2.88-4.17,1.58-2.29.28-.4.86-1.24.43-.64,14.04,7.73-.4.7Z"/>
    <path class="cls-3" d="M50.26,22.65l-2.17,2.18c-1.22,1.22-2.84,1.91-4.57,1.93-1.4.01-2.8-.43-3.93-1.25l-5.51-3.99.9-1.3-1.77-1.26,2.88-4.17,14.17,7.86Z"/>
    <polygon class="cls-3" points="53.28 17.95 52.88 18.65 38.81 10.86 39.24 10.22 53.28 17.95"/>
    <polygon class="cls-3" points="52.13 19.96 51.89 20.38 37.67 12.5 37.95 12.1 52.13 19.96"/>
    <path class="cls-3" d="M36.35,10.18l-5.13,7.43.09.06-.15.22-.03.04-.02-.02-.23-.16,1.12-6.2c.09-.47.4-.85.85-1.03,1.91-.75,3.29-1.44,4.13-2.04.13-.09.25-.19.35-.27l.1.07.16.11-1.24,1.79Z"/>
    <path class="cls-4" d="M29.78,27.54s-.05.07-.08.09c-.31.37-.84.48-1.27.27-.05-.03-.1-.05-.14-.09h-.01c-.48-.34-.6-1-.26-1.48.28-.42.82-.57,1.27-.39.02,0,.05.02.07.04.05.02.1.05.14.08.04.02.07.04.09.07.41.35.5.96.19,1.41Z"/>
    <path class="cls-4" d="M51.89,20.38l-.43.75c-.04.06-.07.12-.11.19-.08.12-.16.24-.24.35-.07.1-.14.19-.21.28-.02.02-.03.04-.05.07-.14.16-.28.32-.44.48l-.15.15-14.17-7.86,1.58-2.29,14.22,7.88Z"/>
    <polygon class="cls-4" points="52.88 18.65 52.84 18.73 52.13 19.96 37.95 12.1 38.81 10.86 52.88 18.65"/>
  </g>
</svg>