<?xml version="1.0" encoding="UTF-8"?>
<svg id="Layer_2" data-name="Layer 2" xmlns="http://www.w3.org/2000/svg" xmlns:xlink="http://www.w3.org/1999/xlink" viewBox="0 0 62.05 62.05">
  <defs>
    <style>
      .cls-1 {
        fill: none;
      }

      .cls-1, .cls-2, .cls-3, .cls-4 {
        stroke-width: 0px;
      }

      .cls-5 {
        fill: url(#radial-gradient);
        stroke: url(#radial-gradient-2);
        stroke-miterlimit: 10;
        stroke-width: 2px;
      }

      .cls-2 {
        fill: #323232;
      }

      .cls-3 {
        fill: #fff;
      }

      .cls-4 {
        fill: #7e7e7e;
      }
    </style>
    <radialGradient id="radial-gradient" cx="135.74" cy="-714.38" fx="135.74" fy="-714.38" r="30.02" gradientTransform="translate(-104.72 745.4)" gradientUnits="userSpaceOnUse">
      <stop offset="0" stop-color="#b3b2b3" stop-opacity=".5"/>
      <stop offset="1" stop-color="#333" stop-opacity=".5"/>
    </radialGradient>
    <radialGradient id="radial-gradient-2" cx="-185.02" cy="845.15" fx="-185.02" fy="845.15" r="31.02" gradientTransform="translate(759.47 -435.76) rotate(45)" gradientUnits="userSpaceOnUse">
      <stop offset="0" stop-color="#000" stop-opacity=".25"/>
      <stop offset="1" stop-color="#000" stop-opacity=".25"/>
    </radialGradient>
  </defs>
  <circle class="cls-5" cx="31.02" cy="31.02" r="30.02"/>
  <g>
    <path class="cls-1" d="M35.13,17.07c.19-.55-.01-1.28-.41-1.57-.52-.3-1.32-.48-1.78-.48-1.36.11-5.26-.35-6.47.48-.55.5-.57,1.04-.37,1.57h9.03Z"/>
    <path class="cls-3" d="M43.97,26.98v3.77h1.42c.09,0,.18,0,.27.02v-4.52c0-.66-.46-1.21-1.08-1.35-.32.98-.54,1.82-.61,2.07Z"/>
    <path class="cls-3" d="M15.02,31.19c.79,0,1.53.19,2.19.52v-4.74c-.06-.25-.29-1.11-.62-2.11h-.62c-.76,0-1.39.62-1.39,1.39v4.94h.43Z"/>
    <path class="cls-4" d="M47.79,12.73c-.2,1.78-1.66,6.47-2.81,8.13-.61.88-1.14,2.21-1.54,3.39l-.52-.63v-.04s.48-7.93.48-7.93l.28.08,2.74-5,.07.03c.17.08,1.44.72,1.3,1.98Z"/>
    <path class="cls-4" d="M18.27,23.62l-.52.63c-.4-1.18-.93-2.51-1.54-3.39-1.15-1.66-2.62-6.35-2.81-8.13-.14-1.27,1.13-1.9,1.3-1.98l.08-.03,2.74,5,.28-.08.48,7.93v.04Z"/>
    <rect class="cls-4" x="11.66" y="46.09" width="5.54" height="1.46"/>
    <path class="cls-4" d="M12.95,37.12c.18-.17.53-.16.78-.16h0c.38.02.77.03,1.17.02.78,0,1.04,0,1.12.6h1.18v-4.35c-.61-.47-1.37-.75-2.19-.75h-2.73c-.35,0-.63.28-.63.63v4.47h1.13c.01-.18.04-.35.15-.47Z"/>
    <path class="cls-4" d="M13.59,37.55c.45,0,.89.01,1.34.02.17,0,.45.04.57-.06.06-.14-.53-.1-.62-.1-.16,0-.32,0-.47-.02h0c-.24-.02-.51-.02-.76-.02-.07,0-.39,0-.36.11.04.06.18.07.29.08Z"/>
    <path class="cls-3" d="M17.21,37.59h-1.18c0,.07.02.15.02.23.01.22.03.45-.01.66-.02.12-.06.24-.09.36-.06.25-.08.52-.07.77.01.22.09.39.12.59.03.32-.03.7-.17.99-.16.36-.95.73-1.01.14-.01-.27.07-.56.22-.79.13-.2.32-.35.43-.55.17-.27.3-1.28-.27-1.05-.3.17-.45.64-.48.98-.02.13-.02.31-.13.37-.17.1-.44.02-.49-.19-.02-.08-.03-.17-.04-.26-.02-.3-.13-.69-.36-.88-.16-.14-.39-.12-.47.08-.08.24-.06.55.01.79.09.29.32.45.47.72.05.09.09.18.12.28.07.22.19.6-.05.74-.32.12-.7-.11-.85-.4-.12-.22-.14-.48-.16-.73-.03-.25.02-.49.09-.73.06-.26.07-.57.04-.84-.03-.18-.09-.36-.11-.55-.02-.21,0-.43.01-.64,0-.04,0-.08,0-.11h-1.13v.65h-.68v7.21h.68v.65h5.54v-8.5Z"/>
    <path class="cls-3" d="M14.9,38.09c-.17,0-.35,0-.52,0h0c-.21-.01-.43-.01-.65-.01-.14,0-.29,0-.39.05-.14.07-.07.2.04.27.06.04.14.07.21.09.53.15,1.11.16,1.63,0,.11-.04.3-.11.29-.24-.05-.18-.45-.14-.61-.14Z"/>
    <path class="cls-4" d="M21.52,19.15s-.1.09-.15.14l-1.4,1.54c-.22.13-.53.01-.55-.21l-.15-3.77c-.01-.14.09-.27.26-.31l.73-.17c.12-.03.25,0,.34.07l.83,2.09c.04.1.1.19.15.28.06.1.04.23-.05.32Z"/>
    <path class="cls-4" d="M41.91,16.86l-.15,3.77c-.02.23-.33.34-.55.21l-1.4-1.54c-.05-.05-.1-.1-.15-.14-.1-.09-.11-.23-.04-.33.05-.08.1-.17.14-.26l.84-2.11c.09-.07.22-.1.34-.07l.73.17c.16.04.27.17.26.31Z"/>
    <path class="cls-3" d="M34.65,21.92c-.14-.13-.31-.18-.5-.17-.16,0-.31.02-.47.04-.24.03-.47.07-.69.16h1.68s-.02-.02-.03-.03Z"/>
    <path class="cls-3" d="M21.93,50.18v-11.53h.42c0-1.59.03-5.56.32-7.71.04-.28.18-.52.39-.68-.13,0-.26-.04-.39-.06-.36-.06-.73-.08-1.09,0-.33.07-.8.2-1.05-.11-.08-.12-.07-.3-.07-.44h0c-.02-.27.02-.59.22-.78.2-.19.22-.44.22-.71,0-.16.01-.33-.03-.49-.05-.18-.2-.3-.3-.45-.14-.2-.14-.7-.02-.92.12-.21.53-.11.75-.13.63,0,1.27,0,1.9-.03.12,0,.25.02.33.12.15.2.14.64.01.9h7.32c-.02-.09-.03-.18-.11-.24,0,0-.01-.02-.02-.03-.03-.09-.05-.17-.08-.26,0-.01,0-.03,0-.04.04-.06.02-.12,0-.17-.02-.06-.04-.13-.07-.19-.02-.05-.06-.1-.08-.15h-9.24v-1.43h8.85c-.04-.15,0-.18.15-.27.01,0,.02-.04.02-.06-.06-.3-.11-.6-.02-.9,0,0,0-.01,0-.02h-8.09v-1.43h8.84c.1-.11.21-.22.33-.32.14-.13.31-.24.47-.34.42-.27.88-.44,1.37-.54.38-.08.76-.1,1.14-.1.19,0,.37.04.54.11.3.12.57.3.77.57.11.15.22.31.26.5.01.04.02.08.03.12h2.37v1.43h-2.25c0,.06,0,.12,0,.18.01.36.01.72.01,1.08h3.22v1.43h-3.23c0,.2,0,.38-.01.56,0,.17-.01.35-.02.52h2.53c-.1-.23-.09-.66.01-.86.12-.21.53-.11.75-.13.63,0,1.27,0,1.9-.03.12,0,.25.02.33.12.16.22.14.73-.03.97-.09.13-.21.24-.27.39-.06.16-.05.35-.04.53,0,.2,0,.42.13.58.33.35.36.59.35,1.07.01.32-.15.45-.47.47-.18.01-.34-.03-.51-.06-.36-.06-.73-.08-1.09,0-.33.07-.8.2-1.05-.11-.08-.12-.07-.3-.07-.44h0c-.02-.27.02-.59.22-.78.09-.08.14-.18.17-.28h-2.9c-.02.2-.08.39-.18.57-.24.41-.58.69-1.04.82-.03,0-.06.02-.09.03h-1.18c-.16-.05-.32-.09-.47-.16-.19-.09-.38-.18-.55-.3-.15-.11-.29-.24-.41-.38-.16-.19-.3-.39-.45-.59h-8.36s.04.09.08.14c.33.35.36.59.35,1.07,0,.1-.01.19-.04.25.1,0,.2,0,.3.02l5.4,1.18c.52.11.87.6.81,1.13-.1.93-.26,2.4-.37,3.63-.08.88-.07,1.77,0,2.65h.95c0-1.59.03-5.56.32-7.71.08-.6.66-1,1.25-.88l5.4,1.18c.2.04.38.15.52.29.27-.46.77-.77,1.34-.77h3.15v-3.79l-.43-2.11-5.36-6.47-.07-.03h-12.47l-.07.03-5.36,6.47-.43,2.11v22.42c0,.44.36.79.79.79h2.64ZM19.01,36.06h2.38v11.56h-2.38v-11.56Z"/>
    <path class="cls-3" d="M34.91,27.15c.01-.29.02-.59.02-.88v-.21h-2.78s.04.05.07.07c0,0,.01,0,.01.01.02.13.11.24.06.38,0,.02,0,.05,0,.07.04.1.05.2.13.3.05.07.06.17.08.26h2.39Z"/>
    <path class="cls-3" d="M33.25,28.73c.3.18.64.23.99.21.24-.01.45-.15.54-.36h-1.74c.07.05.14.1.21.15Z"/>
    <path class="cls-3" d="M32.06,28.62c0,.07.06.14.14.15.08,0,.14-.06.14-.14,0-.01,0-.03,0-.04h-.27s0,.03,0,.04Z"/>
    <path class="cls-3" d="M23.05,26.71c-.07-.04-.17-.05-.26-.05-.51,0-1.02.01-1.53.02-.08,0-.16.01-.23.04-.16.07-.09.21.04.25.22.07.5.02.72.04h0c.26.02.6.01.87-.02.13-.02.4-.04.45-.14.03-.06,0-.11-.08-.15Z"/>
    <path class="cls-3" d="M39.1,26.97c.22.07.5.02.72.04h0c.26.02.6.01.87-.02.13-.02.4-.04.45-.14.03-.06,0-.11-.08-.15-.07-.04-.17-.05-.26-.05-.51,0-1.02.01-1.53.02-.08,0-.16.01-.23.04-.16.07-.09.21.04.25Z"/>
    <path class="cls-3" d="M34.92,24.63c0-.21,0-.42,0-.63,0-.21,0-.42-.02-.63h-3.58c-.03.08-.06.16-.09.25,0,.02,0,.04,0,.06.05.1.11.21.16.31.02.04.04.05.08.04.08-.01.12,0,.15.08.02.04.04.09.05.13.04.13.07.26.11.39h3.14Z"/>
    <path class="cls-3" d="M46.95,32.65v14.08h4.11v-15.06h-1.65c-.95,0-1.82.37-2.46.98Z"/>
    <path class="cls-2" d="M49.41,30.38c-.9,0-1.74.24-2.46.67v-4.79c0-1.22-.82-2.25-1.94-2.57.3-.78.65-1.55,1.02-2.08,1.27-1.83,2.82-6.78,3.03-8.73.25-2.29-1.99-3.28-2.09-3.32l-2.79-.98c-1.18-.41-2.49.17-2.97,1.33l-2.17,5.23h.03s-1.32,1.31-1.32,1.31c-.03-.11-.06-.22-.09-.33-1.32-4.6-6.04-3.31-9.56-3.49-2.59.04-4.17,1.62-4.69,3.82l-1.33-1.31h.03s-2.17-5.24-2.17-5.24c-.48-1.16-1.78-1.74-2.97-1.33l-2.75.96-.04.02c-.1.04-2.34,1.03-2.09,3.32.22,1.95,1.77,6.9,3.03,8.73.35.51.69,1.23.98,1.98h-.15c-1.48,0-2.68,1.2-2.68,2.68v4.94h-1.01c-1.06,0-1.92.86-1.92,1.92v3.83h-.68v9.79h.68v2.11h6.84v.54c0,1.15.93,2.08,2.08,2.08h2.64v.91h16.17c.27.71.96,1.22,1.77,1.22h5.2c1.04,0,1.89-.85,1.89-1.89v-3.69h5.41v-17.64h-2.95ZM41.59,14.49l-.78-.21,1.61-3.87c.22-.53.81-.79,1.35-.6l2.65.92.07.03c.17.08,1.44.72,1.3,1.98-.2,1.78-1.66,6.47-2.81,8.13-.61.88-1.14,2.21-1.54,3.39l-.52-.63v-.04s-.03,0-.03,0l-4.72-5.7,3.43-3.39ZM26.47,15.49c1.2-.83,5.11-.37,6.47-.48.47,0,1.26.18,1.78.48.4.29.6,1.02.41,1.57h-9.03c-.2-.53-.18-1.07.37-1.57ZM17.21,47.55h-5.54v-2.11h-.68v-7.21h.68v-5.12c0-.35.28-.63.63-.63h2.73c.82,0,1.58.28,2.19.75v14.31ZM17.21,31.72c-.66-.33-1.4-.52-2.19-.52h-.43v-4.94c0-.76.62-1.39,1.39-1.39h.62c.33,1,.55,1.86.62,2.11v4.74ZM18.27,23.62l-.52.63c-.4-1.18-.93-2.51-1.54-3.39-1.15-1.66-2.62-6.35-2.81-8.13-.14-1.27,1.13-1.9,1.3-1.98l.08-.03,2.65-.92c.54-.19,1.13.08,1.35.6l1.61,3.87-.78.21,3.43,3.39-4.72,5.7h-.04v.04ZM23.12,26.86c-.06.1-.32.13-.45.14-.28.03-.61.03-.87.02h0c-.22-.02-.5.03-.72-.04-.13-.04-.2-.18-.04-.25.07-.03.15-.04.23-.04.51,0,1.02-.02,1.53-.02.08,0,.19,0,.26.05.07.04.1.09.07.15ZM37.98,51.08h-14.75v-11.15h14.75v11.15ZM38.19,31.52c-.14-.14-.31-.24-.52-.29l-5.4-1.18c-.59-.13-1.17.27-1.25.88-.28,2.14-.32,6.12-.32,7.71h-.96c-.08-.88-.08-1.77,0-2.65.11-1.24.27-2.7.37-3.63.06-.53-.29-1.02-.81-1.13l-5.4-1.18c-.1-.02-.2-.03-.3-.02.03-.07.05-.15.04-.25,0-.48-.02-.72-.35-1.07-.03-.04-.06-.09-.08-.14-.05-.14-.05-.29-.06-.44,0-.18-.02-.37.04-.53.06-.15.18-.26.27-.39.01-.02.03-.04.04-.07.13-.26.13-.7-.01-.9-.08-.1-.21-.12-.33-.12-.63.02-1.27.02-1.9.03-.22.02-.62-.08-.75.13-.11.22-.11.72.02.92.1.15.25.27.3.45.04.16.03.32.03.49,0,.27-.01.52-.22.72-.2.19-.23.51-.22.78h0c0,.15,0,.33.07.45.25.31.72.17,1.05.11.36-.07.73-.06,1.09,0,.13.02.25.05.39.06-.2.16-.35.4-.39.68-.28,2.14-.32,6.12-.32,7.71h-.42v11.53h-2.64c-.44,0-.79-.35-.79-.79v-22.42l.43-2.11,5.36-6.47.07-.03h12.47l.07.03,5.36,6.47.43,2.11v3.79h-3.15c-.57,0-1.07.31-1.34.77ZM45.66,51.71c0,.33-.27.6-.6.6h-5.2c-.33,0-.6-.27-.6-.6v-8.31h6.39v8.31ZM45.66,40.99l-.63,1.12h-5.13l-.63-1.12v-8.67c0-.15.12-.27.27-.27h5.86c.15,0,.27.12.27.27v8.67ZM45.66,30.78c-.09-.01-.18-.02-.27-.02h-1.42v-3.77c.06-.25.28-1.09.61-2.07.62.14,1.08.69,1.08,1.35v4.52ZM51.06,46.73h-4.11v-14.08c.64-.61,1.51-.98,2.46-.98h1.65v15.06Z"/>
    <path class="cls-3" d="M43.77,9.8c-.54-.19-1.13.08-1.35.6l-1.61,3.87.78.21-3.43,3.39,4.72,5.7h.04l.48-7.93.28.08,2.74-5-2.65-.92ZM41.76,20.63c-.02.23-.33.34-.55.21l-1.4-1.54c-.05-.05-.1-.1-.15-.14-.1-.09-.11-.23-.04-.33.05-.08.1-.17.14-.26l.84-2.11c.09-.07.22-.1.34-.07l.73.17c.16.04.27.17.26.31l-.15,3.77Z"/>
    <path class="cls-3" d="M19.6,14.49l.78-.21-1.61-3.87c-.22-.53-.81-.79-1.35-.6l-2.65.92,2.74,5,.28-.08.48,7.93h.04l4.72-5.7-3.43-3.39ZM21.38,19.3l-1.4,1.54c-.22.13-.53.01-.55-.21l-.15-3.77c-.01-.14.09-.27.26-.31l.73-.17c.12-.03.25,0,.34.07l.83,2.09c.04.1.1.19.15.28.06.1.04.23-.05.32-.05.05-.1.09-.15.14Z"/>
    <path class="cls-3" d="M45.66,43.4h-6.39v8.31c0,.33.27.6.6.6h5.2c.33,0,.6-.27.6-.6v-8.31Z"/>
    <path class="cls-3" d="M45.03,42.11l.63-1.12v-8.67c0-.15-.12-.27-.27-.27h-5.86c-.15,0-.27.12-.27.27v8.67l.63,1.12h5.13ZM39.85,40.83v-3.72h5.24v3.72l-.39.7h-4.45l-.39-.7Z"/>
    <polygon class="cls-4" points="44.69 41.53 45.08 40.83 45.08 37.11 39.85 37.11 39.85 40.83 40.24 41.53 44.69 41.53"/>
    <path class="cls-4" d="M34.68,21.95h-1.68s-.05.02-.08.03c-.22.09-.44.19-.65.31-.22.12-.41.28-.57.47-.07.08-.12.17-.18.25-.08.12-.14.24-.19.36h6.96v-1.43h-3.6Z"/>
    <path class="cls-4" d="M31.01,21.95h-8.84v1.43h8.09c.08-.27.17-.54.3-.8.12-.23.28-.44.45-.63Z"/>
    <path class="cls-4" d="M33.62,24.63h-1.84c.07.23.13.47.2.7,0,.01,0,.02.01.04.06.13.15.26.09.42,0,0,0,.01,0,.02.03.08.02.18.07.25h7.11v-1.43h-5.65Z"/>
    <path class="cls-4" d="M30.43,25.8c-.02-.08-.05-.15-.07-.23-.08-.3-.17-.59-.25-.89,0-.02,0-.03-.01-.05h-8.85v1.43h9.24s-.01-.02-.01-.04c-.02-.07-.02-.15-.04-.23Z"/>
    <path class="cls-4" d="M34.35,27.15h-1.84s0,.04.01.07c0,.04,0,.08.02.12.04.18.1.36.13.54.02.12.05.25-.1.33.02.01.03.03.04.04.08.06.16.12.24.19.06.05.13.1.19.15h5.81c.04-.13.04-.28.04-.43,0-.16.01-.33-.03-.49-.05-.18-.2-.3-.3-.45-.01-.02-.02-.04-.04-.07h-4.19Z"/>
    <path class="cls-4" d="M32.2,28.48c-.06,0-.11.04-.13.09h.27c-.02-.06-.07-.09-.13-.09Z"/>
    <path class="cls-4" d="M31.57,28.57s-.06-.07-.11-.06c-.09.02-.16,0-.19-.1-.01-.03-.03-.06-.05-.08-.11-.13-.15-.28-.19-.44-.02-.06-.02-.14-.06-.18-.06-.08-.07-.18-.1-.27-.02-.06-.05-.12,0-.18,0,0,0-.02,0-.03-.01-.03-.02-.05-.03-.08h-7.32s-.02.05-.04.07c-.09.13-.21.24-.27.39-.06.16-.05.35-.04.53,0,.15,0,.3.05.44h8.36s0,0,0-.01Z"/>
    <rect class="cls-4" x="19.01" y="36.06" width="2.38" height="11.56"/>
    <path class="cls-3" d="M37.98,41.33v-1.39h-14.75v11.15h14.75v-9.76ZM28,49.12s-.04-.02-.05-.05c-.02-.1-.04-.2-.06-.3h-2.56v-6.12h2.33s.04-.07.06-.1c.01-.02.03-.04.04-.06.02-.03.04-.06.06-.09,0,0,0,0,0-.01,0,0,0,0,0-.01.05-.07.09-.14.15-.2.05-.06.1-.12.16-.18,0,0,0,0,.01-.01.04-.04.08-.08.12-.12.02-.02.05-.04.07-.06.02-.01.03-.03.05-.04l.04-.04s.05-.04.08-.06c.06-.04.11-.08.17-.12.04-.03.08-.05.12-.07.06-.04.12-.07.19-.1.02-.01.04-.02.06-.03.04-.02.09-.04.13-.06,0,0,0,0,0,0,.03-.01.07-.03.1-.04.02,0,.04-.01.06-.02,0,0,.01,0,.02,0,.03-.01.06-.02.1-.03,0,0,0,0,0,0,.02,0,.05-.01.07-.02.02,0,.03,0,.05-.01.06-.01.11-.03.17-.04.02,0,.03,0,.05-.01.03,0,.06,0,.08-.01.03,0,.07,0,.1-.01,0,0,.01,0,.02,0,.02,0,.04,0,.06,0,.04,0,.07,0,.11,0h0s.09,0,.14,0c.02,0,.05,0,.07,0,.09,0,.18,0,.27.02.03,0,.06,0,.09.01.07,0,.14.02.21.04.07.02.14.03.21.05.03,0,.06.02.09.03.1.03.2.07.3.12.03.02.07.03.1.05.05.03.1.05.15.08.03.02.06.03.09.05.03.02.06.04.09.06.02.01.04.03.06.04.02.01.04.03.06.05.32.23.58.51.78.85.01.02.02.03.03.05.02.04.04.07.06.11h3.28v6.12h-2.93c-.54.49-1.08.98-1.63,1.46-.01.01-.02.02-.04.03-.02,0-.04,0-.05-.01-1.21-.38-2.42-.76-3.63-1.14Z"/>
    <path class="cls-2" d="M34.92,24c0,.21,0,.42,0,.63h1.13c0-.36,0-.72-.01-1.08,0-.06,0-.12,0-.18h-1.13c0,.21.01.42.02.63Z"/>
    <path class="cls-2" d="M34.93,26.27c0,.29-.01.59-.02.88h1.1c0-.17.01-.35.02-.52,0-.18.01-.37.01-.55h0s-1.11-.01-1.11-.01v.21Z"/>
    <path class="cls-2" d="M30.87,27.26c-.05.06-.02.12,0,.18.03.09.04.19.1.27.04.05.04.12.06.18.04.16.08.31.19.44.02.02.04.05.05.08.03.1.1.11.19.1.06-.01.08.02.11.06,0,0,0,0,0,.01.15.2.29.4.45.59.12.14.26.27.41.38.17.12.36.22.55.3.15.07.31.11.47.16h1.18s.06-.03.09-.03c.46-.13.8-.41,1.04-.82.1-.18.16-.37.18-.57h-1.17c-.09.21-.3.35-.54.36-.35.02-.69-.03-.99-.21-.07-.04-.14-.1-.21-.15-.06-.05-.13-.1-.19-.15-.08-.06-.16-.12-.24-.19-.01-.01-.03-.02-.04-.04.15-.08.12-.21.1-.33-.04-.18-.09-.36-.13-.54,0-.04,0-.08-.02-.12,0-.02,0-.04-.01-.07-.02-.1-.03-.2-.08-.26-.07-.09-.09-.2-.13-.3,0-.02-.01-.05,0-.07.04-.14-.04-.25-.06-.38,0,0,0-.01-.01-.01-.03-.02-.05-.04-.07-.07-.05-.08-.04-.17-.07-.25,0,0,0-.01,0-.02.06-.16-.03-.29-.09-.42,0-.01-.01-.02-.01-.04-.07-.23-.13-.47-.2-.7-.04-.13-.07-.26-.11-.39-.01-.05-.03-.09-.05-.13-.03-.07-.07-.09-.15-.08-.04,0-.06,0-.08-.04-.05-.1-.11-.21-.16-.31,0-.02,0-.04,0-.06.03-.08.06-.17.09-.25.05-.13.12-.25.19-.36.06-.09.11-.17.18-.25.16-.19.35-.35.57-.47.21-.12.43-.22.65-.31.03-.01.05-.02.08-.03.22-.08.46-.13.69-.16.16-.02.31-.03.47-.04.19,0,.36.04.5.17.01,0,.02.02.03.03h1.24s-.02-.08-.03-.12c-.05-.18-.15-.34-.26-.5-.2-.27-.46-.44-.77-.57-.17-.07-.35-.1-.54-.11-.38,0-.77.01-1.14.1-.49.1-.95.27-1.37.54-.16.1-.32.21-.47.34-.11.1-.23.21-.33.32-.18.19-.33.4-.45.63-.13.25-.22.52-.3.8,0,0,0,.01,0,.02-.09.31-.04.6.02.9,0,.02,0,.05-.02.06-.16.09-.19.12-.15.27,0,.01,0,.03.01.05.08.3.16.59.25.89.02.08.05.15.07.23.02.07.02.15.04.23,0,.01,0,.02.01.04.02.05.06.1.08.15.03.06.05.12.07.19.02.06.05.11,0,.17,0,.01,0,.03,0,.04.03.09.05.17.08.26,0,.01,0,.03.02.03.08.06.09.15.11.24,0,.03.01.06.03.08,0,0,0,.02,0,.03ZM32.34,28.62c0,.08-.06.15-.14.14-.07,0-.14-.07-.14-.15,0-.01,0-.03,0-.04.02-.05.07-.09.13-.09.07,0,.12.04.13.09,0,.01,0,.03,0,.04Z"/>
    <path class="cls-2" d="M38.87,27.66c.04.16.03.32.03.49,0,.15,0,.3-.04.43-.03.1-.08.2-.17.28-.2.19-.23.51-.22.78h0c0,.15,0,.33.07.45.25.31.72.17,1.05.11.36-.07.73-.06,1.09,0,.17.03.33.07.51.06.32-.02.49-.15.47-.47,0-.48-.02-.72-.35-1.07-.13-.16-.13-.38-.13-.58,0-.18-.02-.37.04-.53.06-.15.18-.26.27-.39.16-.24.19-.75.03-.97-.08-.1-.21-.12-.33-.12-.63.02-1.27.02-1.9.03-.22.02-.62-.08-.75.13-.1.2-.11.63-.01.86.01.02.02.05.04.07.1.15.25.27.3.45ZM39.06,26.73c.07-.03.15-.04.23-.04.51,0,1.02-.02,1.53-.02.08,0,.19,0,.26.05.07.04.1.09.08.15-.06.1-.32.13-.45.14-.28.03-.61.03-.87.02h0c-.22-.02-.5.03-.72-.04-.13-.04-.2-.18-.04-.25Z"/>
    <path class="cls-2" d="M14.9,36.99c-.4,0-.78,0-1.17-.02h0c-.25,0-.6-.01-.78.16-.12.11-.14.29-.15.47,0,.04,0,.08,0,.11,0,.21-.03.43-.01.64.02.19.08.37.11.55.04.27.03.57-.04.84-.07.24-.13.47-.09.73.02.25.04.52.16.73.15.28.54.52.85.4.24-.13.12-.52.05-.74-.03-.1-.07-.19-.12-.28-.15-.27-.38-.43-.47-.72-.07-.25-.1-.55-.01-.79.08-.21.31-.22.47-.08.24.19.34.58.36.88,0,.09.01.17.04.26.05.2.32.29.49.19.11-.07.11-.25.13-.37.03-.34.18-.8.48-.98.57-.23.44.78.27,1.05-.11.2-.3.36-.43.55-.14.23-.23.52-.22.79.06.59.85.22,1.01-.14.14-.29.2-.67.17-.99-.03-.2-.11-.38-.12-.59,0-.26,0-.52.07-.77.03-.12.06-.24.09-.36.04-.21.02-.44.01-.66,0-.09-.01-.16-.02-.23-.08-.61-.34-.61-1.12-.6ZM13.65,37.36c.25,0,.52,0,.76.02h0c.15.01.31.02.47.02.09,0,.68-.03.62.1-.12.1-.4.05-.57.06-.45,0-.89,0-1.34-.02-.11,0-.25-.02-.29-.08-.03-.11.28-.11.36-.11ZM15.22,38.48c-.53.16-1.1.15-1.63,0-.07-.02-.15-.05-.21-.09-.11-.07-.18-.2-.04-.27.11-.06.26-.05.39-.05.22,0,.44,0,.65.01h0c.17,0,.34.01.52,0,.16,0,.56-.04.61.14,0,.13-.18.2-.29.24Z"/>
    <path class="cls-4" d="M27.68,47.79s0,0,0,0c0,0,.02-.02.02-.02,0,0,.01-.01.02-.02.16-.15.33-.3.49-.45,0,0,.02-.01.02-.02,0,0,0,0,0,0,0,0,.02-.02.03-.03-.25-.08-.5-.16-.75-.24.21-.29.41-.57.62-.86,0,0,0,0,0,0h0c-.14-.15-.26-.31-.36-.48,0,0,0-.01-.01-.02-.02-.03-.03-.06-.05-.09-.04-.07-.07-.13-.1-.2-.1-.22-.18-.45-.23-.69,0-.03-.01-.06-.02-.08,0-.01,0-.03,0-.04,0-.02,0-.05-.01-.07-.02-.15-.03-.3-.02-.45,0-.02,0-.05,0-.07,0,0,0,0,0,0,0-.04,0-.07,0-.11,0-.02,0-.05,0-.07.04-.4.15-.78.34-1.13h-2.33v6.12h2.56c-.07-.32-.14-.63-.21-.95,0-.01,0-.03,0-.04Z"/>
    <path class="cls-4" d="M33.24,43.27s0,.03.01.04c.09.34.12.68.09,1.03,0,.04,0,.09-.01.13-.02.19-.07.39-.13.59h0s0,0,0,0c.31.17.61.35.92.52-.2.18-.39.35-.59.53.01,0,.03,0,.04.01h0s.02,0,.03,0c.21.07.42.13.63.2.02,0,.03.01.05.02,0,0,0,0,0,0,0,0,.01.02.01.03.09.41.18.83.27,1.24,0,.03,0,.05-.02.07-.4.36-.8.72-1.2,1.08h2.93v-6.12h-3.28c.09.17.17.35.23.54,0,.03.01.05.02.08Z"/>
    <polygon class="cls-4" points="33.54 46.12 33.53 46.12 33.53 46.12 33.54 46.12"/>
    <path class="cls-2" d="M31.68,50.27s.03-.02.04-.03c.54-.49,1.08-.98,1.63-1.46.4-.36.8-.72,1.2-1.08.02-.02.03-.04.02-.07-.09-.41-.18-.83-.27-1.24,0-.01,0-.02-.01-.03,0,0,0,0,0,0-.02,0-.04-.01-.05-.02-.21-.07-.42-.13-.63-.2-.01,0-.02,0-.03,0h0s-.02,0-.04-.01c.2-.18.39-.35.59-.53-.31-.18-.61-.35-.92-.52,0,0,0,0,0,0h0c.06-.19.11-.39.13-.59,0-.04.01-.08.01-.13.03-.35,0-.69-.09-1.03,0-.01,0-.03-.01-.04,0-.03-.01-.05-.02-.08-.06-.19-.13-.37-.23-.54-.02-.04-.04-.07-.06-.11,0-.02-.02-.03-.03-.05-.2-.33-.46-.62-.78-.85-.02-.02-.04-.03-.06-.05-.02-.01-.04-.03-.06-.04-.03-.02-.06-.04-.09-.06-.03-.02-.06-.04-.09-.05-.05-.03-.1-.06-.15-.08-.03-.02-.07-.03-.1-.05-.1-.04-.2-.08-.3-.12-.03-.01-.06-.02-.09-.03-.07-.02-.14-.04-.21-.05-.07-.02-.14-.03-.21-.04-.03,0-.06,0-.09-.01-.09-.01-.18-.02-.27-.02-.02,0-.05,0-.07,0-.05,0-.09,0-.14,0h0s-.07,0-.11,0c-.02,0-.04,0-.06,0,0,0-.01,0-.02,0-.03,0-.07,0-.1.01-.03,0-.06,0-.08.01-.02,0-.03,0-.05.01-.06.01-.11.02-.17.04-.02,0-.03,0-.05.01-.02,0-.05.01-.07.02,0,0,0,0,0,0-.03,0-.06.02-.1.03,0,0-.01,0-.02,0-.02,0-.04.01-.06.02-.03.01-.07.02-.1.04,0,0,0,0,0,0-.04.02-.09.04-.13.06-.02.01-.04.02-.06.03-.06.03-.13.06-.19.1-.04.02-.08.05-.12.07-.06.04-.12.08-.17.12-.03.02-.05.04-.08.06l-.04.04s-.03.03-.05.04c-.02.02-.05.04-.07.06-.04.04-.08.08-.12.12,0,0,0,.01-.01.01-.05.06-.11.12-.16.18-.05.07-.1.13-.15.2,0,0,0,0,0,.01,0,0,0,0,0,.01-.02.03-.04.06-.06.09-.01.02-.03.04-.04.06-.02.03-.04.07-.06.1-.19.35-.31.73-.34,1.13,0,.02,0,.05,0,.07,0,.04,0,.07,0,.11,0,0,0,0,0,0,0,.02,0,.05,0,.07,0,.15,0,.3.02.45,0,.03,0,.05.01.07,0,.01,0,.02,0,.04,0,.03.01.06.02.08.05.24.12.47.23.69.03.07.07.14.1.2.02.03.03.06.05.09,0,0,0,.01.01.02.1.17.22.33.36.48h0s0,0,0,0c-.21.28-.41.57-.62.86.25.08.5.16.75.24-.01,0-.02.02-.03.03,0,0,0,0,0,0,0,0-.02.01-.02.02-.16.15-.33.3-.49.45,0,0-.01.01-.02.02,0,0-.01.01-.02.02,0,0,0,0,0,0,0,.01,0,.02,0,.04.07.32.14.63.21.95.02.1.04.2.06.3,0,.03.02.04.05.05,1.21.38,2.42.76,3.63,1.14.01,0,.03,0,.05.01ZM33.53,46.12h0,0s0,0,0,0ZM30.76,44.13s.02,0,.03.01l.05.03c.2.11.4.23.61.34l.24.14c.08.05.16.09.24.14.09.05.18.1.26.15.11.06.23.13.34.19.08.05.17.1.25.15.06.03.11.07.17.1.02.01.05.02.07.03l.24.13c.06.03.11.06.17.1-.06.05-.11.1-.17.15h-.01s-.03.03-.04.05c-.57.52-1.16,1.05-1.73,1.56l-.71-3.27ZM34.04,47.12c.03.13.06.27.09.4-.42.38-.84.76-1.27,1.14-.31.28-.62.56-.93.84l-.09-.4c.73-.66,1.47-1.33,2.2-1.98Z"/>
    <path class="cls-3" d="M31.93,49.5c.31-.28.62-.56.93-.84.42-.38.84-.76,1.27-1.14-.03-.13-.06-.27-.09-.4-.72.65-1.46,1.32-2.2,1.98l.09.4Z"/>
    <path class="cls-3" d="M33.2,45.84s.03-.02.04-.03h.01c.06-.06.11-.11.17-.16-.06-.03-.11-.06-.17-.1l-.24-.13s-.04-.02-.07-.03c-.06-.03-.12-.07-.17-.1-.08-.05-.17-.1-.25-.15-.11-.07-.23-.13-.34-.19-.09-.05-.18-.1-.26-.15-.08-.05-.16-.09-.24-.14l-.24-.14c-.2-.12-.4-.23-.61-.34l-.05-.03s-.02-.01-.03-.01l.71,3.27c.57-.51,1.15-1.04,1.73-1.56Z"/>
  </g>
</svg>