<?xml version="1.0" encoding="UTF-8"?>
<svg width="62.05" height="62.05" id="Layer_2" data-name="Layer 2" xmlns="http://www.w3.org/2000/svg" xmlns:xlink="http://www.w3.org/1999/xlink" viewBox="0 0 62.05 62.05">
  <defs>
    <style>
      .cls-1 {
        fill: url(#radial-gradient);
        stroke: url(#radial-gradient-2);
        stroke-miterlimit: 10;
        stroke-width: 2px;
      }

      .cls-2 {
        fill: #323232;
      }

      .cls-2, .cls-3, .cls-4 {
        stroke-width: 0px;
      }

      .cls-3 {
        fill: #fff;
      }

      .cls-4 {
        fill: #7e7e7e;
      }
    </style>
    <radialGradient id="radial-gradient" cx="135.74" cy="-714.38" fx="135.74" fy="-714.38" r="30.02" gradientTransform="translate(-104.72 745.4)" gradientUnits="userSpaceOnUse">
      <stop offset="0" stop-color="#b3b2b3" stop-opacity=".5"/>
      <stop offset="1" stop-color="#333" stop-opacity=".5"/>
    </radialGradient>
    <radialGradient id="radial-gradient-2" cx="-185.02" cy="845.15" fx="-185.02" fy="845.15" r="31.02" gradientTransform="translate(759.47 -435.76) rotate(45)" gradientUnits="userSpaceOnUse">
      <stop offset="0" stop-color="#000" stop-opacity=".25"/>
      <stop offset="1" stop-color="#000" stop-opacity=".25"/>
    </radialGradient>
  </defs>
  <circle class="cls-1" cx="31.02" cy="31.02" r="30.02"/>
  <g>
    <path class="cls-4" d="M37.9,15.11c-.05.17-.11.34-.18.5-.27.65-.67,1.25-1.18,1.76-1.02,1.02-2.39,1.59-3.83,1.59h-4.29c-.72,0-1.42-.14-2.07-.41-.64-.27-1.24-.66-1.74-1.16l-.03-.03c-.63-.63-1.08-1.41-1.34-2.24l.42.14c2.23.73,4.55,1.09,6.9,1.09,1.16,0,2.34-.09,3.49-.27,1.16-.18,2.31-.46,3.41-.82l.43-.14Z"/>
    <path class="cls-4" d="M15.91,36.35c.45-.51.82-1.08,1.08-1.72.31-.74.46-1.52.46-2.33v-4.57c0-.08,0-.16,0-.24,0-.03,0-.05,0-.08,0-.05,0-.1,0-.16,0-.03,0-.06,0-.09,0-.05,0-.09-.01-.14,0-.03,0-.07-.01-.1,0-.04-.01-.09-.02-.13,0-.03-.01-.07-.02-.1,0-.04-.02-.09-.02-.13,0-.04-.01-.07-.02-.1,0-.04-.02-.08-.03-.13,0-.04-.02-.07-.03-.11-.01-.04-.02-.08-.03-.12,0-.04-.02-.07-.03-.11,0-.02-.01-.05-.02-.07-.28,1.72-.65,3.43-1.11,5.1-.5,1.8-1.11,3.59-1.81,5.33h1.66Z"/>
    <path class="cls-4" d="M43.95,25.99s-.02.07-.03.1c-.01.04-.02.08-.03.13,0,.03-.02.07-.03.1-.01.04-.02.09-.03.13,0,.03-.01.07-.02.1,0,.04-.02.09-.02.13,0,.03-.01.07-.02.1,0,.05-.01.09-.02.14,0,.03,0,.07-.01.1,0,.05,0,.1-.01.14,0,.03,0,.06,0,.09,0,.05,0,.11,0,.16,0,.03,0,.05,0,.08,0,.08,0,.16,0,.24v4.57c0,1.48.56,2.94,1.54,4.04h1.65c-1.37-3.36-2.35-6.85-2.92-10.42,0,.02-.02.05-.02.07Z"/>
    <polygon class="cls-4" points="43.32 39.09 42.88 40.39 18.26 40.39 17.82 39.09 43.32 39.09"/>
    <rect class="cls-2" x="23.53" y="23.67" width="14.66" height="6.52"/>
    <path class="cls-2" d="M48.76,36.35c-1.68-3.95-2.79-8.1-3.31-12.36l-.23-1.84.64-1.9v-8.5c0-1.2-.86-2.21-2.05-2.4l-3.74-.59c-.7-.11-1.42.09-1.96.55-.54.47-.85,1.14-.85,1.85v2.33l-.33.1c-1.02.33-2.07.59-3.14.76-1.07.16-2.15.25-3.22.25-2.17,0-4.31-.34-6.37-1.01l-.33-.1v-2.33c0-.71-.31-1.38-.85-1.85-.54-.46-1.25-.66-1.96-.55l-3.74.59c-1.18.19-2.05,1.2-2.05,2.4v8.5l.64,1.9-.22,1.84c-.28,2.22-.71,4.43-1.3,6.57-.54,1.96-1.22,3.91-2.02,5.79h-2.21v12.37l7.91,1.22c.2.99,1.04,1.76,2.07,1.85l6.48.53c1.31.11,2.63.16,3.95.16s2.63-.05,3.94-.16l6.48-.53c1.07-.09,1.93-.91,2.09-1.96l7.89-1.1v-12.38h-2.21ZM46.88,36.35h-1.65c-.99-1.11-1.54-2.56-1.54-4.05v-4.88c.01-.06.01-.11.01-.16.01-.03.01-.06.01-.09.01-.05.01-.1.02-.15,0-.03.01-.06.01-.09.01-.05.01-.1.02-.14.01-.03.01-.07.02-.1.01-.05.01-.09.02-.13.01-.04.02-.07.02-.11.01-.04.02-.08.03-.12.01-.04.02-.07.03-.11,0-.04.02-.08.03-.12.01-.04.02-.07.03-.11.01-.02.02-.04.02-.07.58,3.58,1.55,7.07,2.92,10.43ZM16.06,31.02c.46-1.67.83-3.38,1.11-5.1,0,.02,0,.05.02.07.01.04.02.07.03.11s.02.08.03.12c.01.04.02.07.03.11.01.04.02.08.03.12,0,.04.01.07.02.11.01.04.02.08.02.13.01.03.02.07.02.1.01.04.01.09.02.13,0,.04.01.07.01.1,0,.05,0,.1.02.14,0,.04,0,.07,0,.1,0,.05,0,.1.01.16v4.88c0,.81-.15,1.59-.46,2.33-.26.63-.62,1.21-1.08,1.72h-1.65c.71-1.74,1.32-3.53,1.81-5.33ZM11.89,47.23v-9.15h3.76l1.91,5.74.17,2.34v.09l.14,1.9-5.98-.92ZM42.88,40.39l-1.03,3.09-.19,2.61c-.08.59-.15,1.2-.2,1.81l-.09,1.62c-.02.28-.24.51-.52.54l-6.48.53c-2.53.21-5.08.21-7.61,0l-6.48-.53c-.28-.03-.5-.26-.52-.54l-.08-1.59v-.03c-.06-.63-.13-1.24-.22-1.83l-.18-2.59-1.03-3.09-.43-1.3-.55-1.66c.55-.64.99-1.35,1.32-2.14.39-.95.59-1.95.59-2.99v-4.57c0-.83-.13-1.66-.39-2.45l-1.78-5.31v-8.22c0-.32.23-.6.54-.67v3.57h3.8v-4.18c.27-.03.45.09.54.16.09.08.25.25.25.53v2.38c0,.23.01.46.03.68l.07.56,1,.33.42.14c2.23.72,4.56,1.09,6.91,1.09,1.16,0,2.33-.09,3.49-.28,1.16-.18,2.31-.46,3.41-.81l.42-.14,1.01-.33.06-.56c.02-.22.04-.45.04-.68v-2.38c0-.28.15-.45.24-.53.09-.07.28-.2.56-.15h.02v4.17h3.8v-3.56c.29.08.5.35.5.66v8.22l-1.78,5.31c-.26.79-.39,1.62-.39,2.45v4.57c0,1.91.68,3.71,1.91,5.13l-.55,1.66-.43,1.3ZM49.24,47.22l-5.97.83.12-1.77.18-2.46,1.91-5.74h3.76v9.14Z"/>
    <polygon class="cls-3" points="49.24 38.08 49.24 47.22 43.27 48.05 43.4 46.28 43.57 43.82 45.48 38.08 49.24 38.08"/>
    <path class="cls-3" d="M42.88,40.39l-1.03,3.09-.19,2.61c-.08.6-.15,1.21-.21,1.81l-.09,1.62c-.02.28-.24.51-.52.53l-6.48.53c-2.53.21-5.08.21-7.61,0l-6.48-.53c-.28-.02-.5-.25-.52-.53l-.09-1.6v-.03c-.06-.63-.13-1.24-.21-1.82l-.18-2.59-1.03-3.09h24.62Z"/>
    <polygon class="cls-3" points="17.87 48.15 11.9 47.23 11.9 38.08 15.66 38.08 17.57 43.82 17.73 46.16 17.73 46.22 17.74 46.25 17.87 48.15"/>
    <path class="cls-3" d="M42.34,25.28l1.78-5.31v-8.22c0-.31-.21-.58-.5-.66v3.56h-3.8v-4.17h-.02c-.28-.05-.47.08-.56.15-.09.08-.24.25-.24.53v2.38c0,.23-.02.46-.04.68l-.06.56-1.01.33c-.05.17-.11.34-.17.5-.28.65-.67,1.25-1.18,1.76-1.02,1.01-2.39,1.59-3.83,1.59h-4.29c-.72,0-1.42-.15-2.07-.42-.65-.26-1.24-.66-1.74-1.16l-.04-.03c-.62-.63-1.08-1.4-1.33-2.24l-1-.33-.07-.56c-.02-.22-.03-.45-.03-.68v-2.38c0-.28-.16-.45-.25-.53-.09-.07-.27-.19-.54-.16v4.18h-3.8v-3.57c-.31.07-.54.35-.54.67v8.22l1.78,5.31c.26.79.39,1.62.39,2.45v4.57c0,1.04-.2,2.04-.59,2.99-.33.79-.77,1.5-1.32,2.14l.55,1.66h25.49l.55-1.66c-1.23-1.42-1.91-3.22-1.91-5.13v-4.57c0-.83.13-1.66.39-2.45ZM38.19,30.18h-14.66v-6.51h14.66v6.51Z"/>
  </g>
</svg>