<?xml version="1.0" encoding="UTF-8"?>
<svg id="Layer_2" data-name="Layer 2" xmlns="http://www.w3.org/2000/svg" xmlns:xlink="http://www.w3.org/1999/xlink" viewBox="0 0 62.05 62.05">
  <defs>
    <style>
      .cls-1 {
        fill: url(#radial-gradient);
        stroke: url(#radial-gradient-2);
        stroke-miterlimit: 10;
        stroke-width: 2px;
      }

      .cls-2 {
        fill: #323232;
      }

      .cls-2, .cls-3, .cls-4 {
        stroke-width: 0px;
      }

      .cls-3 {
        fill: #fff;
      }

      .cls-4 {
        fill: #7e7e7e;
      }
    </style>
    <radialGradient id="radial-gradient" cx="135.74" cy="-714.38" fx="135.74" fy="-714.38" r="30.02" gradientTransform="translate(-104.72 745.4)" gradientUnits="userSpaceOnUse">
      <stop offset="0" stop-color="#b3b2b3" stop-opacity=".5"/>
      <stop offset="1" stop-color="#333" stop-opacity=".5"/>
    </radialGradient>
    <radialGradient id="radial-gradient-2" cx="-185.02" cy="845.15" fx="-185.02" fy="845.15" r="31.02" gradientTransform="translate(759.47 -435.76) rotate(45)" gradientUnits="userSpaceOnUse">
      <stop offset="0" stop-color="#000" stop-opacity=".25"/>
      <stop offset="1" stop-color="#000" stop-opacity=".25"/>
    </radialGradient>
  </defs>
  <circle class="cls-1" cx="31.02" cy="31.02" r="30.02"/>
  <g>
    <rect class="cls-4" x="20.08" y="33.14" width="22.06" height="11.36"/>
    <path class="cls-2" d="M51.81,30.08l-1.03-2.57c-.39-.98-1.33-1.61-2.38-1.61-1.18,0-2.2.8-2.49,1.94l-.72,2.89h-.21c-.08-.85-.15-2.05-.23-3.31-.14-2.29-.32-5.13-.6-7.5-.28-2.32-.6-3.8-1.04-4.69l2.26-4.68c.36-.75.34-1.6-.04-2.33-.39-.73-1.08-1.23-1.91-1.35l-3.26-.48s-.03,0-.04,0l-.54-.02c-.95.07-1.81.67-2.19,1.57-.19.46-.37.88-.52,1.26l-.03.08c-.61,1.48-1.01,2.45-1.38,2.72-.25.19-.81.25-1.58.3h-.01s-.09,0-.15,0c-.25.01-.53.03-.83.04h-.21c-.49.03-1.05.06-1.69.09h0c-.55-.03-1.05-.05-1.49-.07h-.07c-.42-.02-.78-.04-1.1-.06h-.16c-.75-.06-1.31-.13-1.56-.31-.36-.25-.71-1.11-1.3-2.54l-.02-.05s-.02-.06-.04-.09l-.02-.04c-.16-.4-.35-.85-.56-1.35-.39-.89-1.25-1.49-2.2-1.56h-.45s-.07.02-.1.02l-3.27.49c-.82.12-1.52.61-1.91,1.35-.39.73-.4,1.59-.04,2.33l2.26,4.68c-.43.89-.76,2.37-1.04,4.7-.28,2.38-.46,5.23-.6,7.53v.02c-.08,1.29-.15,2.44-.23,3.25h-.22l-.72-2.89c-.29-1.14-1.31-1.94-2.49-1.94-1.06,0-1.99.63-2.38,1.61l-1.03,2.57h-2.13v17.42h2.13l1.03,2.57c.39.98,1.33,1.61,2.38,1.61,1.18,0,2.2-.8,2.49-1.94l.8-3.22s.01.01.02.02c1.1,1.12,2.83,1.08,5.96.99h.44c1.57-.05,3.68-.11,6.29-.08v.05s.61-.03.61-.03c.09,0,.18,0,.27,0h0c.15,0,.31,0,.46.01l.61.02v-.06c3.18-.07,5.62.02,7.43.09h.08c.84.03,1.63.06,2.31.06,1.6,0,2.76-.16,3.58-.97.03-.03.06-.06.09-.09,0,0,0,0,0,0l.8,3.22c.29,1.14,1.31,1.94,2.49,1.94,1.06,0,1.99-.63,2.38-1.61l1.03-2.57h2.13v-17.42h-2.13ZM45.32,39.85c0-.16-.01-.32-.02-.49,0-.08,0-.17,0-.25,0-.26-.01-.53-.02-.82,0-.24-.01-.49-.01-.74-.01-.76-.02-1.59-.02-2.49,0-.28,0-.56,0-.86,0-.29,0-.59.01-.9h.38v1.31h.65v2.37h-.65v3.43h.65v2.37h-.65v1.31h-.29c0-.08.01-.16.02-.24,0-.08,0-.17.01-.25,0-.06,0-.13,0-.19,0-.2,0-.4,0-.62,0-.02,0-.05,0-.07,0-.08,0-.16,0-.25,0-.59-.03-1.26-.05-2.02,0,0,0-.02,0-.03,0-.11,0-.22-.01-.33,0-.08,0-.16,0-.23ZM15.1,38.29v.82h-.65v4.98h.65v.82l-.65.67h-4.42v-13.58h4.42l.65.49v.82h-.65v4.98h.65ZM12.06,30.69l.99-2.47c.05-.12.13-.23.24-.3.03-.02.05-.03.08-.05.09-.04.18-.06.28-.06.3,0,.55.2.63.49l.6,2.38h-2.81ZM14.87,46.89l-.6,2.38c-.01.05-.03.11-.06.15-.03.06-.08.12-.13.17-.12.11-.27.17-.44.17-.13,0-.26-.04-.36-.11-.1-.07-.19-.17-.24-.3l-.99-2.47h2.81ZM15.75,42.79v-2.37h.65v-3.43h-.65v-2.37h.65v-1.31h.57c0,.31.02.62.02.92,0,.3,0,.59.01.87,0,1.18,0,2.25-.03,3.2,0,.02,0,.04,0,.06v5.74h-.57v-1.31h-.65ZM43.87,44.91s-.02.06-.04.09c-.01.03-.03.05-.04.08-.03.05-.06.09-.09.13-.02.02-.03.04-.05.05-.09.09-.22.17-.39.23-.11.04-.23.07-.37.1-.14.03-.3.04-.47.06-.77.06-1.85.02-3.24-.03-.02,0-.05,0-.07,0-.43-.02-.89-.03-1.39-.05-1.09-.04-2.35-.07-3.79-.07-.67,0-1.38,0-2.14.02-.13,0-.25,0-.38,0-.13,0-.26,0-.39.01-.17,0-.33,0-.5.01-1.71-.03-3.22-.03-4.53,0-.73.01-1.39.03-1.99.04-.24,0-.47.01-.7.02-.15,0-.29,0-.44.01-.16,0-.31,0-.46.01s-.29,0-.43,0c-.14,0-.28,0-.41,0-.13,0-.26,0-.39,0-.13,0-.25,0-.36,0-.12,0-.23,0-.34,0-.05,0-.11,0-.16,0-.16,0-.31-.01-.45-.02-.24-.02-.45-.04-.63-.07-.07-.01-.15-.03-.21-.04-.03,0-.07-.02-.1-.02-.06-.02-.12-.03-.18-.05-.03,0-.05-.02-.08-.03-.13-.05-.23-.12-.31-.19,0,0-.01,0-.02-.02-.04-.04-.07-.08-.1-.13-.03-.05-.06-.1-.08-.16h.05v-12.26h.53l.11-.52c.09-.41.16-1.18.23-2.18.05-.69.1-1.48.15-2.36.04-.71.09-1.48.14-2.27.02-.32.04-.63.07-.95.01-.16.02-.32.04-.48.02-.32.05-.64.08-.96.01-.16.03-.32.04-.48.07-.79.15-1.57.23-2.3.07-.56.13-1.04.2-1.46.04-.25.08-.49.12-.7.03-.14.05-.27.08-.4.12-.56.23-.94.32-1.21.02-.06.04-.11.06-.16.02-.05.04-.09.06-.13.07-.15.13-.23.17-.27,0,0,0,0,.01-.01l.37-.33-2.79-5.77s-.02-.05-.03-.07c-.02-.05-.03-.1-.03-.15-.01-.13.01-.26.08-.38.04-.07.09-.13.14-.18.08-.07.17-.12.27-.15.03,0,.05-.01.08-.02l3.27-.49s.06,0,.09,0c.2,0,.39.09.52.23.04.05.08.11.1.17.12.28.23.54.33.79.03.06.05.12.08.18.08.18.15.36.22.52.03.07.05.13.08.2.14.34.27.64.38.92.12.28.23.53.34.75s.22.42.33.6c.11.18.23.34.35.48.11.13.23.24.35.34.04.03.09.07.13.1.49.34,1.04.49,1.85.58.08,0,.17.02.26.03.09,0,.18.02.28.02.01,0,.02,0,.04,0,.21.01.43.03.67.04.12,0,.24.01.37.02s.26.01.4.02c.41.02.86.04,1.36.07.07,0,.14,0,.22.01h.07s0,0,0,0h0c.67-.04,1.26-.07,1.77-.09.12,0,.24-.01.36-.02.12,0,.23-.01.34-.02.05,0,.11,0,.16,0,.16,0,.31-.02.45-.03.01,0,.02,0,.04,0,.17-.01.33-.02.48-.04.58-.06,1.03-.15,1.42-.31.18-.08.34-.17.5-.28.02,0,.03-.02.04-.03.08-.06.16-.12.23-.19.04-.03.07-.07.11-.1.03-.04.07-.07.1-.11.51-.58.88-1.45,1.47-2.87.04-.09.07-.17.11-.27.08-.2.17-.4.26-.62.05-.11.09-.22.14-.34.02-.06.05-.12.07-.17.02-.06.05-.12.07-.18.07-.15.18-.27.33-.34.09-.04.18-.06.28-.06.03,0,.07,0,.1,0l3.27.49s.05,0,.08.02c.1.03.19.08.27.15.06.05.11.11.14.18.06.12.09.25.08.38,0,.05-.02.1-.03.15,0,.02-.02.05-.03.07l-1.48,3.07-.16.33-1.14,2.36.36.33s.02.02.03.03c.02.03.05.06.08.11,0,.01.02.03.02.04.02.03.03.06.05.1,0,.02.02.04.03.06.02.04.04.09.06.15.02.05.04.11.06.18.06.16.12.37.18.62.04.15.08.32.11.5.03.12.05.26.08.4.01.07.03.14.04.22.09.52.19,1.16.28,1.93.14,1.16.25,2.44.35,3.71.01.16.02.32.03.48.08,1.11.15,2.21.21,3.2.03.47.06.92.08,1.35.02.36.05.71.07,1.03,0,.11.02.21.02.31,0,.05,0,.1.01.15.06.79.13,1.4.2,1.76l.11.52h.64c-.03,1.18-.04,2.26-.03,3.24,0,.33,0,.65,0,.96,0,.15,0,.31,0,.46,0,.45.02.88.03,1.28,0,.14,0,.27.01.4.01.39.02.76.03,1.11,0,.13,0,.26.01.38.05,1.58.09,2.78,0,3.61,0,.05,0,.1-.02.14-.03.27-.08.5-.16.67ZM46.95,44.09h.65v-4.98h-.65v-.82h.65v-4.98h-.65v-.82l.65-.49h4.42v13.58h-4.42l-.65-.67v-.82ZM47.17,30.69l.6-2.38c.07-.29.33-.49.63-.49.27,0,.5.16.6.41l.99,2.47h-2.81ZM49.98,46.89l-.99,2.47c-.1.25-.33.41-.6.41-.09,0-.18-.02-.26-.06-.05-.02-.09-.05-.14-.08-.07-.05-.13-.12-.17-.2-.03-.05-.05-.1-.06-.15l-.6-2.38h2.81Z"/>
    <path class="cls-3" d="M47.17,46.89l.6,2.38c.01.05.03.11.06.15.04.08.1.15.17.2.04.03.09.06.14.08.08.04.17.06.26.06.27,0,.5-.16.6-.41l.99-2.47h-2.81Z"/>
    <path class="cls-3" d="M48.4,27.82c-.3,0-.55.2-.63.49l-.6,2.38h2.81l-.99-2.47c-.1-.25-.33-.41-.6-.41Z"/>
    <path class="cls-3" d="M52.01,45.58h0v-13.58h-4.42l-.65.49v.82h.65v4.98h-.65v.82h.65v4.98h-.65v.82l.65.67h4.42ZM49,44.5v-.82h2.45v.82h-2.45ZM49,40.99v-.82h2.45v.82h-2.45ZM49,37.48v-.82h2.45v.82h-2.45ZM51.46,33.96h-2.45v-.82h2.45v.82Z"/>
    <path class="cls-3" d="M45.34,40.44c.02.77.05,1.43.05,2.02,0,.08,0,.17,0,.25,0,.02,0,.05,0,.07,0,.22,0,.43,0,.62,0,.07,0,.13,0,.19,0,.09,0,.17-.01.25,0,.08-.01.16-.02.24h.29v-1.31h.65v-2.37h-.65v-3.43h.65v-2.37h-.65v-1.31h-.38c0,.31-.01.61-.01.9,0,.29,0,.58,0,.86,0,.9,0,1.73.02,2.49,0,.25,0,.5.01.74,0,.28.01.55.02.82,0,.09,0,.17,0,.25,0,.17.01.33.02.49,0,.08,0,.16,0,.23,0,.11,0,.22.01.33,0,0,0,.02,0,.03Z"/>
    <path class="cls-3" d="M16.97,44.09v-5.74s0-.04,0-.06c.03-.95.04-2.01.03-3.2,0-.28,0-.57-.01-.87,0-.3-.01-.6-.02-.92h-.57v1.31h-.65v2.37h.65v3.43h-.65v2.37h.65v1.31h.57Z"/>
    <path class="cls-3" d="M12.06,46.89l.99,2.47c.05.12.13.22.24.3.1.07.23.11.36.11.17,0,.32-.06.44-.17.05-.05.1-.1.13-.17.03-.05.05-.1.06-.15l.6-2.38h-2.81Z"/>
    <path class="cls-3" d="M13.65,27.82c-.1,0-.2.02-.28.06-.03.01-.06.03-.08.05-.1.07-.19.17-.24.3l-.99,2.47h2.81l-.6-2.38c-.07-.29-.33-.49-.63-.49Z"/>
    <path class="cls-3" d="M15.1,33.31v-.82l-.65-.49h-4.42v13.58h4.42l.65-.67v-.82h-.65v-4.98h.65v-.82h-.65v-4.98h.65ZM11.01,37.48v-.82h2.45v.82h-2.45ZM13.46,40.17v.82h-2.45v-.82h2.45ZM11.01,33.96v-.82h2.45v.82h-2.45ZM11.01,43.68h2.45v.82h-2.45v-.82Z"/>
    <path class="cls-3" d="M20.08,13.13l3.53-2.75c-.03-.06-.05-.13-.08-.2-.07-.17-.14-.34-.22-.52-.03-.06-.05-.12-.08-.18-.1-.25-.21-.52-.33-.79-.03-.06-.06-.12-.1-.17-.13-.15-.32-.24-.52-.23-.03,0-.06,0-.09,0l-3.27.49s-.05,0-.08.02c-.1.03-.19.08-.27.15-.06.05-.11.11-.14.18-.06.12-.09.25-.08.38,0,.05.02.1.03.15,0,.02.02.05.03.07l2.79,5.77-1.13-2.37Z"/>
    <path class="cls-3" d="M42.15,12.79l1.48-3.07s.02-.05.03-.07c.02-.05.03-.1.03-.15.01-.13-.01-.26-.08-.38-.04-.07-.09-.13-.14-.18-.08-.07-.17-.12-.27-.15-.03,0-.05-.01-.08-.02l-3.27-.49s-.07,0-.1,0c-.1,0-.19.02-.28.06-.14.07-.26.19-.33.34-.03.06-.05.12-.07.18-.02.06-.05.12-.07.17-.05.12-.09.23-.14.34-.09.22-.18.43-.26.62-.04.09-.07.18-.11.27l3.65,2.53Z"/>
    <path class="cls-3" d="M44.04,44.09c.09-.83.05-2.03,0-3.61,0-.13,0-.25-.01-.38-.01-.35-.02-.72-.03-1.11,0-.13,0-.26-.01-.4-.01-.41-.02-.83-.03-1.28,0-.15,0-.3,0-.46,0-.31,0-.63,0-.96,0-.99,0-2.07.03-3.24h-.64l-.11-.52c-.08-.36-.14-.97-.2-1.76,0-.05,0-.1-.01-.15,0-.1-.02-.21-.02-.31-.02-.32-.05-.66-.07-1.03-.03-.42-.06-.88-.08-1.35-.06-.99-.13-2.09-.21-3.2-.01-.16-.02-.32-.03-.48-.1-1.28-.21-2.56-.35-3.71-.09-.77-.19-1.41-.28-1.93-.01-.07-.03-.15-.04-.22-.03-.14-.05-.27-.08-.4-.04-.19-.08-.35-.11-.5-.06-.25-.12-.45-.18-.62-.02-.07-.04-.13-.06-.18-.02-.05-.04-.1-.06-.15,0-.02-.02-.04-.03-.06-.02-.04-.04-.07-.05-.1,0-.01-.02-.03-.02-.04-.03-.05-.06-.09-.08-.11-.01-.01-.02-.02-.03-.03l-.36-.33-4.26-1.92h-.04c-.16.11-.32.2-.5.28-.39.17-.85.26-1.42.31-.15.02-.31.03-.48.04-.01,0-.02,0-.04,0-.14,0-.29.02-.45.03-.05,0-.11,0-.16,0-.11,0-.22.01-.34.02-.12,0-.24.01-.36.02-.52.02-1.1.05-1.77.09h0s0,0,0,0h0s-.07,0-.07,0c-.07,0-.15,0-.22-.01-.5-.03-.95-.05-1.36-.07-.14,0-.27-.01-.4-.02s-.25-.01-.37-.02c-.24-.01-.46-.02-.67-.04-.01,0-.02,0-.04,0-.1,0-.19-.01-.28-.02-.09,0-.18-.02-.26-.03-.8-.09-1.36-.24-1.85-.58l-4.29,1.93-.37.33s0,0-.01.01c-.04.04-.1.12-.17.27-.02.04-.04.08-.06.13-.02.05-.04.1-.06.16-.1.27-.21.65-.32,1.21-.03.12-.05.26-.08.4-.04.21-.08.44-.12.7-.07.42-.13.91-.2,1.46-.09.73-.16,1.51-.23,2.3-.01.16-.03.32-.04.48-.03.32-.05.64-.08.96-.01.16-.02.32-.04.48-.02.32-.05.64-.07.95-.05.79-.1,1.55-.14,2.27-.05.87-.1,1.67-.15,2.36-.07,1-.15,1.77-.23,2.18l-.11.52h-.53v12.26h-.05c.02.06.05.11.08.16.03.05.06.09.1.13,0,0,.01.01.02.02.08.08.18.14.31.19.03.01.05.02.08.03.06.02.11.04.18.05.03,0,.06.02.1.02.07.01.14.03.21.04.19.03.4.05.63.07.14,0,.29.02.45.02.05,0,.11,0,.16,0,.11,0,.22,0,.34,0,.12,0,.24,0,.36,0,.13,0,.25,0,.39,0,.13,0,.27,0,.41,0,.14,0,.28,0,.43,0s.3,0,.46-.01c.14,0,.29,0,.44-.01.22,0,.45-.01.7-.02.6-.02,1.27-.03,1.99-.04,1.31-.02,2.82-.02,4.53,0,.17,0,.34-.01.5-.01.13,0,.26,0,.39-.01.13,0,.26,0,.38,0,.75-.02,1.47-.02,2.14-.02,1.45,0,2.7.03,3.79.07.5.02.96.03,1.39.05.02,0,.05,0,.07,0,1.39.05,2.47.09,3.24.03.17-.01.33-.03.47-.06.14-.03.26-.06.37-.1.16-.06.29-.13.39-.23.02-.02.03-.03.05-.05.03-.04.06-.08.09-.13.01-.02.03-.05.04-.08.01-.03.02-.06.04-.09.07-.18.12-.41.16-.67,0-.05.01-.09.02-.14ZM20.08,44.5v-11.36h22.06v11.36h-22.06ZM20.08,26.94v-.82h2.45v.82h-2.45ZM22.53,29.63v.82h-2.45v-.82h2.45ZM27.44,26.12v.82h-2.45v-.82h2.45ZM24.98,23.42v-.82h2.45v.82h-2.45ZM27.44,29.63v.82h-2.45v-.82h2.45ZM29.89,23.42v-.82h2.45v.82h-2.45ZM32.34,26.12v.82h-2.45v-.82h2.45ZM29.89,29.63h2.45v.82h-2.45v-.82ZM34.79,26.94v-.82h2.45v.82h-2.45ZM37.24,29.63v.82h-2.45v-.82h2.45ZM39.69,22.61h2.45v.82h-2.45v-.82ZM39.69,26.12h2.45v.82h-2.45v-.82ZM39.69,29.63h2.45v.82h-2.45v-.82ZM37.24,23.42h-2.45v-.82h2.45v.82ZM20.08,22.61h2.45v.82h-2.45v-.82Z"/>
    <path class="cls-4" d="M25.51,13.57s-.09-.06-.13-.1c-.13-.1-.24-.21-.35-.34-.12-.14-.24-.3-.35-.48-.11-.18-.22-.38-.33-.6s-.22-.47-.34-.75c-.12-.28-.25-.58-.38-.92l-3.53,2.75,1.13,2.37,4.29-1.93Z"/>
    <path class="cls-4" d="M40.85,15.49l1.14-2.36.16-.33-3.65-2.53c-.58,1.41-.96,2.29-1.47,2.87-.03.04-.07.08-.1.11-.03.04-.07.07-.11.1-.07.07-.15.13-.23.19-.01.01-.03.02-.04.03h.04l4.26,1.92Z"/>
    <rect class="cls-4" x="29.89" y="22.61" width="2.45" height=".82"/>
    <rect class="cls-4" x="20.08" y="22.61" width="2.45" height=".82"/>
    <rect class="cls-4" x="34.79" y="22.61" width="2.45" height=".82"/>
    <rect class="cls-4" x="24.98" y="22.61" width="2.45" height=".82"/>
    <rect class="cls-4" x="39.69" y="22.61" width="2.45" height=".82"/>
    <rect class="cls-4" x="29.89" y="26.12" width="2.45" height=".82"/>
    <rect class="cls-4" x="20.08" y="26.12" width="2.45" height=".82"/>
    <rect class="cls-4" x="24.98" y="26.12" width="2.45" height=".82"/>
    <rect class="cls-4" x="39.69" y="26.12" width="2.45" height=".82"/>
    <rect class="cls-4" x="34.79" y="26.12" width="2.45" height=".82"/>
    <rect class="cls-4" x="20.08" y="29.63" width="2.45" height=".82"/>
    <rect class="cls-4" x="29.89" y="29.63" width="2.45" height=".82"/>
    <rect class="cls-4" x="39.69" y="29.63" width="2.45" height=".82"/>
    <rect class="cls-4" x="34.79" y="29.63" width="2.45" height=".82"/>
    <rect class="cls-4" x="24.98" y="29.63" width="2.45" height=".82"/>
    <rect class="cls-4" x="49" y="33.14" width="2.45" height=".82"/>
    <rect class="cls-4" x="49" y="36.66" width="2.45" height=".82"/>
    <rect class="cls-4" x="49" y="40.17" width="2.45" height=".82"/>
    <rect class="cls-4" x="49" y="43.68" width="2.45" height=".82"/>
    <rect class="cls-4" x="11.01" y="33.14" width="2.45" height=".82"/>
    <rect class="cls-4" x="11.01" y="36.66" width="2.45" height=".82"/>
    <rect class="cls-4" x="11.01" y="40.17" width="2.45" height=".82"/>
    <rect class="cls-4" x="11.01" y="43.68" width="2.45" height=".82"/>
  </g>
</svg>