<?xml version="1.0" encoding="UTF-8"?>
<svg id="Layer_2" data-name="Layer 2" xmlns="http://www.w3.org/2000/svg" xmlns:xlink="http://www.w3.org/1999/xlink" viewBox="0 0 62.06 62.06">
  <defs>
    <style>
      .cls-1 {
        fill: none;
      }

      .cls-1, .cls-2, .cls-3, .cls-4 {
        stroke-width: 0px;
      }

      .cls-5 {
        fill: url(#radial-gradient);
        stroke: url(#radial-gradient-2);
        stroke-miterlimit: 10;
        stroke-width: 2px;
      }

      .cls-2 {
        fill: #323232;
      }

      .cls-3 {
        fill: #fff;
      }

      .cls-4 {
        fill: #7e7e7e;
      }
    </style>
    <radialGradient id="radial-gradient" cx="1742.74" cy="-2832.45" fx="1742.74" fy="-2832.45" r="30.02" gradientTransform="translate(-2894.45 1612.63) rotate(30)" gradientUnits="userSpaceOnUse">
      <stop offset="0" stop-color="#b3b2b3" stop-opacity=".5"/>
      <stop offset="1" stop-color="#333" stop-opacity=".5"/>
    </radialGradient>
    <radialGradient id="radial-gradient-2" cx="-556.63" cy="-1823.55" fx="-556.63" fy="-1823.55" r="31.02" gradientTransform="translate(-1586.32 1040.66) rotate(75)" gradientUnits="userSpaceOnUse">
      <stop offset="0" stop-color="#000" stop-opacity=".25"/>
      <stop offset="1" stop-color="#000" stop-opacity=".25"/>
    </radialGradient>
  </defs>
  <circle class="cls-5" cx="31.03" cy="31.03" r="30.02"/>
  <g>
    <path class="cls-1" d="M29.13,14.83s0,.03.01.04c0-.01-.01-.03-.01-.04Z"/>
    <path class="cls-1" d="M33.3,20.02s-.07-.05-.1-.08c.09.08.18.15.27.22-.06-.05-.12-.09-.17-.14Z"/>
    <path class="cls-1" d="M31.51,18.39c.32.35.67.66,1.03.99-.37-.33-.71-.64-1.03-.99Z"/>
    <path class="cls-1" d="M29.98,16.5c-.14-.21-.27-.43-.39-.64.48.87,1.04,1.6,1.78,2.39-.54-.57-1.03-1.18-1.39-1.75Z"/>
    <path class="cls-1" d="M29,14.38c0,.05.03.11.04.16-.02-.05-.03-.11-.04-.16Z"/>
    <path class="cls-1" d="M36.75,22.31s0,0,0,0c.31.18.61.32.94.48-.31-.15-.62-.31-.93-.48Z"/>
    <path class="cls-1" d="M36.11,21.94c.08.05.17.1.25.14-.08-.05-.17-.1-.25-.14Z"/>
    <path class="cls-1" d="M28.91,13.89c0-.07-.01-.15-.01-.22,0,.07,0,.15,0,.23,0,0,.01.02,0,.03,0,.02,0,.04,0,.07,0-.03,0-.06-.01-.1Z"/>
    <path class="cls-1" d="M35.22,21.4c-.1-.06-.2-.13-.29-.19.26.17.52.35.8.51-.17-.1-.34-.21-.5-.32Z"/>
    <path class="cls-1" d="M38.27,23.07s0,0,0,0c.08.04.17.08.25.11-.08-.04-.17-.07-.25-.11Z"/>
    <path class="cls-1" d="M34.28,20.76c-.07-.05-.13-.1-.2-.14.08.06.15.12.23.17-.01,0-.02-.01-.03-.02Z"/>
    <path class="cls-1" d="M28.94,14.08s.01.08.02.12c0-.04-.01-.08-.02-.12Z"/>
    <path class="cls-1" d="M32.17,10.86c-.02.08-.03.16-.02.24,0-.08,0-.16.02-.24Z"/>
    <path class="cls-1" d="M32.24,11.87s-.02-.07-.02-.1c.01.05.02.11.04.15,0-.02-.01-.03-.01-.05Z"/>
    <path class="cls-1" d="M32.32,12.13s0,0,0,0c0,.02,0,.04.02.06,0-.02-.01-.03-.02-.05Z"/>
    <path class="cls-1" d="M32.5,12.59h0c.03.05.05.12.09.18-.03-.06-.06-.12-.09-.18Z"/>
    <path class="cls-1" d="M45.56,20.57s-.03,0-.04,0c.01,0,.03,0,.04,0Z"/>
    <path class="cls-1" d="M10.68,42.41s.05.56.05.6c0,0-.05-.58-.05-.6Z"/>
    <path class="cls-1" d="M46.41,24.48s0,0,0,0c0,0,0,0-.01,0,0,0,0,0,.01,0Z"/>
    <path class="cls-1" d="M28.98,12.99s.02-.07.03-.1c-.02.05-.04.11-.05.16,0-.02,0-.04.02-.06Z"/>
    <path class="cls-1" d="M32.65,12.89s0,.01,0,.02c0,0,0-.01,0-.02Z"/>
    <path class="cls-1" d="M28.91,13.42s0,0,0,0c0,0,0,.02,0,.03,0,.02,0,.04,0,.05,0-.03,0-.05,0-.08Z"/>
    <path class="cls-1" d="M32.34,10.38c2.72-5.19,23.83,8.73,13.25,10.19,10.69-1.44-10.86-15.56-13.29-10.1.01-.03.02-.06.04-.09Z"/>
    <path class="cls-1" d="M33.92,14.67c2.17,2.6,6.35,5.03,9.69,5.65-3.34-.63-7.52-3.06-9.69-5.65Z"/>
    <path class="cls-1" d="M46.93,24.29s-.02,0-.03.01c.01,0,.02-.01.03,0,.06-.03.11-.06.17-.09-.05.03-.11.06-.17.08Z"/>
    <path class="cls-1" d="M30.96,13.73s-.04-.09-.06-.13c.02.04.04.09.06.13Z"/>
    <path class="cls-1" d="M46.16,22.43c-.1,0-.2.01-.29.01.1,0,.2,0,.29-.01Z"/>
    <path class="cls-1" d="M31.05,13.9s.04.06.05.1c-.03-.05-.05-.1-.08-.15,0,.02.02.04.03.05Z"/>
    <path class="cls-1" d="M39.57,20.98c-1.77-.76-3.55-1.86-5.01-3.06,1.46,1.21,3.24,2.31,5.01,3.06Z"/>
    <path class="cls-1" d="M30.7,13.17c.05.12.1.24.16.36h0c-.07-.11-.1-.23-.16-.35,0,0,0,0,0-.01-.04-.11-.09-.23-.13-.34.04.11.08.23.13.34Z"/>
    <path class="cls-1" d="M39.27,23.5s-.03-.01-.05-.02c.1.04.21.09.32.12-.09-.03-.18-.07-.27-.1Z"/>
    <path class="cls-1" d="M32.08,40.03c-.08-.26-.21-.5-.38-.71,1.88-1.7,2.32-3.49,1.93-5.03-.08-.31-.2-.61-.34-.9-.02-.04-.04-.07-.05-.11-.15-.29-.33-.56-.53-.81-.11-.13-.23-.26-.35-.39-1.36-1.42-3.5-2.2-5.37-1.73-.72.18-1.4.55-1.98,1.15-.06.05-.11.11-.15.17-.1.09-.18.19-.25.3-.32.42-.59.92-.81,1.51-.12.34-.23.7-.31,1.09-1.13-.07-1.86.29-2.28.84-.08.11-.15.23-.21.36-.91,1.95,1.16,5.35,3.88,3.09.64.66,1.52,1.17,2.41,1.4-.03.1-.05.21-.06.31-.14.99.3,1.75.97,2.2.02.02.05.04.08.06.77.48,1.8.58,2.62.21.6-.27,1.08-.81,1.24-1.64.02-.05.03-.1.04-.15.03-.16.03-.33.02-.49,0-.02,0-.04,0-.06-.01-.23-.04-.45-.12-.67ZM23.92,38.12c-1.39,1.01-2.93-1.19-1.52-2.15,1.39-1.02,2.94,1.19,1.52,2.15ZM28.27,38.78s-.02.02-.03.03c-.07.05-.14.11-.21.17-.06.06-.12.12-.18.19-.87-.15-1.75-.66-2.32-1.34.36-1.02-.04-2.21-.92-2.82.19-1.14.59-1.98,1.11-2.56.05-.06.1-.1.15-.15,1.08-1.05,2.62-1.12,3.95-.57.11.04.22.09.32.14,1.21.6,2.19,1.7,2.39,2.98.12.73-.02,1.52-.52,2.31-.03.06-.07.12-.11.18-.28.41-.66.81-1.15,1.21-.32-.15-.67-.22-1.03-.22-.13,0-.25.01-.38.03-.11.01-.22.04-.33.07-.16.05-.32.11-.46.18-.06.04-.12.07-.18.11-.03.02-.07.04-.1.06ZM30.48,41.9c-1.4,1.01-2.93-1.18-1.53-2.15,1.4-1.01,2.93,1.19,1.53,2.15Z"/>
    <path class="cls-1" d="M30.54,12.73c-.04-.1-.06-.2-.1-.31.03.1.06.2.1.31Z"/>
    <path class="cls-1" d="M29.16,12.81s-.08.03-.13.06h0s.09-.04.13-.06Z"/>
    <path class="cls-1" d="M47.67,23.79s-.02.02-.02.02c.04-.03.07-.07.1-.1-.02.03-.05.05-.07.08Z"/>
    <path class="cls-1" d="M46.41,22.41c-.05,0-.1,0-.15,0h0c.05,0,.1,0,.15,0Z"/>
    <path class="cls-1" d="M40.41,23.91c.44.14.86.28,1.29.37-.43-.1-.85-.23-1.29-.37Z"/>
    <path class="cls-1" d="M47.28,24.1s.02-.01.04-.02c0,0,.01-.01.02-.02-.02.01-.04.02-.05.04Z"/>
    <path class="cls-1" d="M44.28,24.68c-.75-.03-1.55-.15-2.38-.34,1.04.25,1.98.37,2.96.35-.19,0-.38,0-.58,0Z"/>
    <path class="cls-1" d="M47.05,22.32c.17-.03.33-.07.49-.11-.16.04-.33.09-.5.12h0s0,0,.01,0Z"/>
    <path class="cls-1" d="M46.61,22.39c-.05,0-.1,0-.15.02.05,0,.1-.01.15-.02Z"/>
    <path class="cls-3" d="M48.26,19.57c-.07.1-.14.23-.24.3-.57.53-1.37.68-2.46.69-.01,0-.03,0-.04,0-4.92-.28-10.52-3.53-12.95-7.81-.09-.2-.17-.39-.25-.59-1.23-8.02,18.69,2.66,15.94,7.41Z"/>
    <path class="cls-1" d="M46.85,22.36s.07-.01.11-.02c-.1.02-.2.03-.31.05.07,0,.13-.02.2-.03Z"/>
    <path class="cls-4" d="M46.81,17.04c-.87-.81-2.89-2.85-3.89-1.2-.68.96-1.3,2.27.12,3.07,1.15.23,3.53,1.85,4.34.42.57-.73.36-1.75-.57-2.29Z"/>
    <path class="cls-4" d="M47.69,18.28c-.08-.41-.38-.8-.76-1.17-.16-.16-.33-.31-.51-.46-.07-.06-.15-.12-.23-.19-.29-.23-.59-.46-.83-.67-.01,0-.03-.02-.04-.03-.11-.1-.21-.19-.29-.28-.28-.18-.57-.25-.84-.25h-.02c-.45.01-.87.21-1.2.53-.44.42-.74,1.04-.76,1.63-.01.04-.01.08-.01.11,0,.42.14.82.46,1.13.1.11.23.2.38.28,1.15.23,3.54,1.85,4.34.41.26-.31.35-.6.32-.89.01-.05,0-.1,0-.15Z"/>
    <path class="cls-4" d="M47.76,23.68s-.07.09-.11.13c-.02,0-.04.04-.07.05-.06.07-.15.13-.24.19h0s-.01.01-.02.02c-.01,0-.03,0-.04.02-.12.05-.23.13-.35.19-5.95,1.69-14.28-3.39-17.33-8.44,0,0,0-.01-.01-.02-.19-.33-.32-.64-.43-.97-.01,0-.01-.03-.02-.03-.08-.21-.13-.43-.18-.65,0-.1-.03-.21-.04-.3-.02-.15,0-.3,0-.44.03-.19.04-.4.12-.57.51-.2,1.04-.44,1.37-.58.07.17.09.37.17.54.04.11.08.23.13.34,0,0,0,.01,0,.01.06.12.09.23.16.35h0c.06.1.11.22.16.32h0c2.98,4.96,9.38,8.63,15.13,8.59.04,0,.07,0,.11,0h0c.11,0,.23-.03.34-.04.02,0,.03,0,.04,0,.12-.03.23-.04.36-.06,0,0,.01,0,.01,0h.01c.16-.03.32-.07.47-.11,0,0,.02,0,.03,0,.01,0,.02,0,.04,0,.04.38.11.87.18,1.48Z"/>
    <path class="cls-2" d="M49.36,21.2c5.26-7.24-15.32-19.13-18.99-10.97h0c-.58.26-1.8.78-2.7,1.16-.39,1.59-18.77,30.18-16.94,31.58h.01s-.01,0-.01.02h0s.01.01.01.02h-.01s.01.05.02.08c2.18,7.01,12.8,13.14,19.97,11.53.01-.01.06-.01.07-.03,2.1,1.04,17.77-29.39,18.93-30.47l-.05-.32c-.13-.96-.25-2.02-.31-2.6ZM47.74,23.7h0s-.01.01-.01.01h0s-.01.02-.01.02v.02c-.09.15-.33.57-.7,1.22l-.17.3-.39.69c-.06.09-.11.19-.17.29-.02.03-.04.06-.05.09-.02.04-.05.08-.06.12-.04.05-.07.11-.11.17-.02.04-.04.08-.06.12-.06.09-.11.18-.17.28-.03.05-.06.09-.08.14-.08.15-.17.3-.26.45-.05.08-.09.16-.13.24l-.16.27-.26.45-.29.51c-.04.07-.09.15-.14.23-.05.1-.11.19-.16.29-.44.75-.89,1.55-1.37,2.37-.06.11-.13.23-.19.34-.15.27-.31.53-.46.8l-1.39,2.4c-.1.17-.2.35-.29.52-.03.06-.07.11-.1.17-.12.19-.23.39-.34.58-.09.16-.19.32-.27.48-.04.05-.07.11-.1.16l-1.47,2.55c-.36.63-.73,1.25-1.08,1.87-.24.41-.47.81-.7,1.21l-2.79,4.83c-.09.16-.18.31-.26.46-.09.14-.17.28-.25.42-.06.1-.12.2-.17.3-.21.35-.38.63-.5.85l-.09.16v.02c-.04.05-.07.11-.1.16l-.17.3c-.1.17-.19.32-.27.46l-.42.73s-.04.06-.05.08c-.04.03-.09.06-.13.09,0,.01-.01.01-.02.02-.9.63-1.96.96-3.1,1.05h-.02c-.16.02-.33.03-.49.02-2.69.06-5.8-1.13-8.52-2.9-.17-.1-.34-.21-.5-.32-.09-.05-.18-.11-.27-.19-.76-.54-1.49-1.12-2.15-1.73-.26-.24-.52-.48-.76-.72-.15-.14-.29-.29-.42-.43l-.05-.05c-.21-.22-.39-.44-.58-.67-.53-.65-.99-1.31-1.34-1.95-.22-.4-.4-.8-.54-1.19-.01-.04-.03-.08-.04-.12v-.08c0-.14.03-.31.08-.52.13-.58.46-1.42.94-2.44.03-.06.05-.11.08-.17.17-.37.36-.75.57-1.16,0-.01.01-.03.02-.04.01-.04.03-.07.05-.11.05-.11.12-.22.17-.33,2.29-4.46,6.22-10.98,9.43-16.28.11-.2.23-.4.34-.59.26-.42.51-.84.76-1.24.03-.05.06-.11.09-.16,1.94-3.22,3.44-5.73,3.84-6.62,0,0,0-.01,0-.01,0-.02.01-.04.02-.05,0-.01.01-.01.01-.01v-.02s.01,0,.01-.02h0s0-.02.01-.02h0s.09-.04.13-.06c.47-.19.94-.4,1.25-.53.03.09.05.19.08.29.02.09.05.17.09.25.04.12.08.23.13.34h0v.02c.06.11.09.23.16.34h-.01s.06.09.07.14c.04.06.07.12.09.18h.01c2.96,4.93,9.31,8.59,15.04,8.59h.21c.07-.01.16-.02.25-.03.03-.01.06-.01.09-.02.02.01.03,0,.04.01.05-.02.09-.03.14-.03.01,0,.03-.01.04-.01.02,0,.03,0,.05,0,.04,0,.09,0,.13-.01,0-.01.01-.01.01-.01h.03s.04-.01.06-.01c.13-.03.27-.07.4-.1,0,0,.02,0,.02-.01h.04c.04.38.11.87.18,1.48,0,0,0,.01-.01.02ZM48.48,18.93c-.02.1-.04.2-.07.29-.28.76-1.16,1.27-2.82,1.34h-.03s-.03,0-.04-.01c-1.18-.07-2.41-.31-3.62-.69-.05-.01-.09-.03-.14-.04-.03-.02-.06-.03-.1-.03h0c-.22-.08-.45-.16-.67-.25-.23-.09-.46-.18-.68-.28-1.59-.67-3.11-1.59-4.44-2.7-.18-.14-.36-.29-.54-.46-.17-.15-.34-.31-.51-.47-.2-.2-.39-.4-.58-.6-.65-.72-1.22-1.49-1.67-2.29-.14-.34-.23-.65-.29-.93h0c-.24-1.18.18-1.9,1.03-2.25.01-.01.03-.01.04-.02.98-.39,2.53-.28,4.28.21.04,0,.07.01.11.03.01,0,.03,0,.05,0,0,0,.01,0,.02.01,1.39.4,2.92,1.04,4.4,1.86,1.58.94,2.99,2.03,4.06,3.13.04.03.07.06.09.09.22.22.41.43.58.64.03.03.06.06.07.08.02.01.03.02.03.03.02.02.04.04.05.06.95,1.17,1.49,2.28,1.4,3.15v.04s-.01.03-.01.05Z"/>
    <path class="cls-1" d="M46.19,26.46l-14.65,25.37c-.14.24-.32.43-.56.59-5.94,2.46-15.22-3.42-18-8.62-.37-.82-.67-1.98-.23-2.81.8-1.37,15.94-27.66,16.27-28.12l6.45,7.41,9.34,3.51,2.93-.07-1.55,2.75Z"/>
    <path class="cls-2" d="M23.92,38.12c-1.39,1.01-2.94-1.19-1.52-2.15,1.39-1.02,2.93,1.19,1.52,2.15Z"/>
    <path class="cls-2" d="M31.96,37.27c-.31.54-.72.97-1.21,1.29-.96-.44-2.21-.21-2.9.62-.87-.15-1.75-.66-2.32-1.34.36-1.02-.04-2.21-.92-2.83.58-6.31,10.42-3.31,7.35,2.26Z"/>
    <path class="cls-2" d="M30.48,41.91c-1.39,1.01-2.93-1.18-1.53-2.15,1.4-1.01,2.93,1.19,1.53,2.15Z"/>
    <path class="cls-3" d="M47.64,23.81s-.04.04-.06.06c-.07.07-.16.12-.24.18h0l-.02.02s-.02.01-.02.01c-.01,0-.02.01-.02.02-.09.04-.17.09-.26.14-.03.02-.06.03-.09.05h0c-1.28.36-2.66.41-4.08.22-.11-.02-.21-.03-.32-.05-.03,0-.07-.01-.1-.02-.04,0-.08-.01-.12-.02-2.76-.49-5.61-1.87-8-3.64-.04-.02-.08-.05-.11-.08-.25-.18-.49-.36-.72-.55-1.62-1.32-2.97-2.81-3.88-4.29h0s0-.02-.01-.03c-.19-.32-.31-.63-.43-.96t-.01-.02s-.01-.02-.01-.02c-.05-.15-.09-.3-.13-.45-.02-.06-.03-.13-.05-.19,0-.04,0-.08,0-.12-.01-.06-.02-.13-.03-.19-.02-.14,0-.3,0-.44,0-.1.02-.2.04-.29,0-.06.02-.11.04-.16,0-.02.01-.04.02-.06,0,0-.01,0-.01.01-.23.43-1.8,3.14-3.86,6.68-.03.05-.06.11-.09.16-1,1.71-2.11,3.62-3.24,5.54-.21.37-.43.74-.64,1.11-.65,1.12-1.31,2.24-1.93,3.33-.12.21-.24.42-.36.62-1.8,3.08-3.4,5.84-4.36,7.51-.05.11-.12.22-.17.33-.16.28-.3.52-.41.72-.07.13-.13.24-.18.33-.01,0-.01.01-.01.01,0,0-.01.02-.01.03-.04.08-.08.14-.1.19,0,.07-.01.14-.01.2-.1,2.33,1.09,4.13,2.8,5.7t0,0c1.29,1.17,2.86,2.21,4.42,3.25,1.69.84,3.4,1.69,5.07,2.21,0,.01.03.01.05.01,2.25.7,4.43.79,6.41-.56.03-.05.07-.12.13-.2h0s.01-.03.03-.04c.02-.05.05-.1.09-.16.12-.22.29-.5.5-.85.05-.1.11-.2.17-.3.08-.14.16-.28.25-.42,1.43-2.44,3.91-6.74,6.4-11.08.2-.35.41-.71.61-1.06.03-.06.07-.11.1-.17.57-.99,1.13-1.97,1.68-2.92.15-.27.31-.53.46-.8.06-.11.13-.22.19-.34.48-.82.93-1.62,1.37-2.37.05-.1.11-.19.16-.29.15-.25.29-.5.43-.74.08-.15.17-.3.26-.45.05-.09.1-.18.16-.27.04-.08.08-.16.13-.24.09-.16.17-.3.26-.45.02-.05.05-.09.08-.14.08-.14.15-.27.23-.4.05-.1.11-.2.17-.29.01-.03.03-.06.05-.09.2-.36.39-.69.56-.98.06-.1.11-.2.17-.3.37-.65.61-1.07.7-1.22,0-.01.01-.02.01-.03l-.09.09ZM31.7,39.32c.17.21.3.45.38.71.07.22.11.44.12.67,0,.02,0,.04,0,.06,0,.21-.01.43-.06.64-.13.59-.47,1.12-.98,1.47-.08.06-.17.12-.26.17-.86.49-1.88.33-2.62-.21-.03-.02-.06-.04-.08-.06-.66-.51-1.09-1.31-.97-2.2.01-.1.03-.21.06-.31-.89-.23-1.77-.74-2.41-1.4-2.72,2.26-4.79-1.14-3.88-3.09.06-.13.13-.25.21-.36.42-.55,1.15-.91,2.28-.84.08-.39.19-.75.31-1.09.21-.59.49-1.09.81-1.51.07-.11.15-.21.25-.3.04-.06.09-.12.15-.17.58-.6,1.26-.97,1.98-1.15,1.87-.46,4,.32,5.37,1.73.12.13.24.26.35.39.21.25.38.53.53.81.02.04.04.07.05.11.14.29.26.59.34.9.39,1.54-.05,3.33-1.93,5.03Z"/>
    <path class="cls-4" d="M32.54,50.1c-2.66,8.71-25.01-4.17-18.78-10.85-1.49,6.34,14.02,15.3,18.78,10.85Z"/>
  </g>
</svg>