<?xml version="1.0" encoding="UTF-8"?>
<svg width="62.06" height="62.06" id="Layer_2" data-name="Layer 2" xmlns="http://www.w3.org/2000/svg" xmlns:xlink="http://www.w3.org/1999/xlink" viewBox="0 0 62.06 62.06">
  <defs>
    <style>
      .cls-1 {
        fill: none;
      }

      .cls-1, .cls-2, .cls-3, .cls-4 {
        stroke-width: 0px;
      }

      .cls-5 {
        fill: url(#radial-gradient);
        stroke: url(#radial-gradient-2);
        stroke-miterlimit: 10;
        stroke-width: 2px;
      }

      .cls-2 {
        fill: #323232;
      }

      .cls-3 {
        fill: #fff;
      }

      .cls-4 {
        fill: #7e7e7e;
      }
    </style>
    <radialGradient id="radial-gradient" cx="271.68" cy="-1521.59" fx="271.68" fy="-1521.59" r="30.02" gradientTransform="translate(-965.05 1212.93) rotate(30)" gradientUnits="userSpaceOnUse">
      <stop offset="0" stop-color="#b3b2b3" stop-opacity=".5"/>
      <stop offset="1" stop-color="#333" stop-opacity=".5"/>
    </radialGradient>
    <radialGradient id="radial-gradient-2" cx="-669.91" cy="143.56" fx="-669.91" fy="143.56" r="31.02" gradientTransform="translate(343.08 640.96) rotate(75)" gradientUnits="userSpaceOnUse">
      <stop offset="0" stop-color="#000" stop-opacity=".25"/>
      <stop offset="1" stop-color="#000" stop-opacity=".25"/>
    </radialGradient>
  </defs>
  <circle class="cls-5" cx="31.03" cy="31.03" r="30.02"/>
  <g>
    <path class="cls-1" d="M29.39,7.91c-1.16-1.32-3.06-1.58-4.56-.57-1.21.82-1.65,2.09-1.82,3.26-.09,1.72.94,3.13,2.39,3.39,1.56.29,2.9-.19,3.95-1.36,1.18-1.32,1.17-3.43.04-4.72Z"/>
    <path class="cls-1" d="M40.71,50.44h0c.36.21.83.09,1.04-.28l.21-.37c.21-.36.09-.83-.28-1.04h0c-.16-.09-.37-.04-.46.12l-.63,1.1c-.09.16-.04.37.12.46Z"/>
    <path class="cls-1" d="M34.33,19.7c.52,2,2.7,2.8,4.39,1.53,2.34-1.76,3.56-4.19,3.92-6.94-.02-.46-.02-.79-.05-1.11-.1-.97-.57-1.68-1.51-2.03-.9-.33-1.7-.08-2.36.56-1.73,1.66-3.17,3.53-4.1,5.77-.29.71-.49,1.44-.29,2.22Z"/>
    <path class="cls-1" d="M40.17,50.62s.02,0,.04.02c-.01,0-.02-.02-.03-.02h0Z"/>
    <path class="cls-1" d="M40.29,51.18h0c-.16-.09-.37-.04-.46.12l-.63,1.1c-.09.16-.04.37.12.46h0c.36.21.83.09,1.04-.28l.21-.37c.21-.36.09-.83-.28-1.04Z"/>
    <path class="cls-3" d="M36.01,53.6l-20.32-11.73-.91,1.58c-.93,1.61-.38,3.68,1.23,4.61l14.47,8.36c1.61.93,3.68.38,4.61-1.23l.91-1.58Z"/>
    <path class="cls-3" d="M45.19,30.95l-14.48-8.35c-1.61-.93-3.67-.38-4.6,1.23l-8.6,14.88,20.32,11.73,8.59-14.88c.93-1.61.38-3.68-1.23-4.61ZM41.68,41.11l-4.63-2.67-.45.79c-.26.45-.85.61-1.31.35l-7.09-4.1c-.46-.26-.62-.85-.36-1.31l.46-.78-4.63-2.67,3.18-5.51,4.62,2.67.46-.78c.26-.46.85-.62,1.31-.35l7.09,4.09c.46.27.62.85.35,1.31l-.45.79,4.63,2.67-3.18,5.5Z"/>
    <rect class="cls-4" x="37.78" y="34.35" width="6.36" height="5.34" transform="translate(-11.59 53.98) rotate(-60)"/>
    <rect class="cls-4" x="24.39" y="26.63" width="6.36" height="5.34" transform="translate(-11.59 38.53) rotate(-60)"/>
    <path class="cls-2" d="M40.33,30.84l-7.09-4.09c-.46-.27-1.05-.11-1.31.35l-.46.78-3.17,5.51-.46.78c-.26.46-.1,1.05.36,1.31l7.09,4.1c.46.26,1.05.1,1.31-.35l.45-.79,3.18-5.5.45-.79c.27-.46.11-1.04-.35-1.31ZM37.09,35.96l-2.42-1.39-1.39,2.42-1.84-1.06,1.4-2.42-2.42-1.4,1.06-1.83,2.42,1.39,1.4-2.42,1.83,1.06-1.4,2.42,2.42,1.4-1.06,1.83Z"/>
    <polygon class="cls-3" points="33.9 31.67 31.48 30.28 30.42 32.11 32.84 33.51 31.44 35.93 33.28 36.99 34.67 34.57 37.09 35.96 38.15 34.13 35.73 32.73 37.13 30.31 35.29 29.25 33.9 31.67"/>
    <path class="cls-2" d="M46.25,29.12l-9.66-5.58c1.4.02,2.68-.48,3.81-1.61,1.59-1.61,2.84-3.45,3.63-5.58.51-1.39.62-2.82.25-4.27-.66-2.61-3.03-3.79-5.48-2.68-1.76.8-3.35,1.87-4.68,3.28-1.45,1.54-2.65,3.26-3.87,4.97-.41.58-.92,1.13-1.19,1.77-.11.24-.26.44-.42.62-.21.02-.42.04-.63.08.12-.32.23-.64.35-.97.03.03.06.05.09.08.13-.09.32-.14.39-.26,1.13-2.07,2.29-4.11,3.35-6.22.95-1.9.78-3.81-.49-5.5-2.35-3.11-7.18-2.97-9.48.18-1.4,1.93-1.81,5.79,1.17,7.79.7.47,1.38.97,2.04,1.5.21.16.33.42.47.66.1.18.17.38.26.57.03,0,.07.01.11.01-.06.1-.11.21-.18.31-.32.46-.68.91-.97,1.39-1.66,2.7-3.32,5.41-4.93,8.14-.48.8-1.19,1.25-1.99,1.53-2.06.71-4.15,1.34-6.23,2-1.67.53-2.73,2.09-2.6,3.82.01.09.03.19,0,.25-.35.6-.55,1.27-1.06,1.8-.62.65-.73,1.46-.42,2.33.09.23.22.31.44.21.75-.37,1.51-.75,2.25-1.13.09-.05.19-.19.18-.28-.02-.31.18-.41.41-.52,2.02-.95,4.04-1.9,6.07-2.85l-4.3,7.43c-1.51,2.62-.61,5.99,2.01,7.5l14.48,8.36c2.62,1.51,5.99.61,7.5-2.01l.45-.78s.02.02.03.03l.59.33c.16.1.37.04.46-.12l.85-1.29c.13-.2.33-.34.56-.4.26-.06.48-.23.62-.46l1.02-1.77c.09-.16.03-.37-.13-.46.16.09.37.04.47-.13l1.02-1.77c.13-.23.16-.5.09-.75-.07-.23-.04-.48.06-.7l.7-1.37c.09-.16.03-.37-.13-.47l-.58-.33s-.03-.02-.04-.02l5.29-9.16c1.51-2.62.61-5.99-2.01-7.5ZM34.62,17.48c.93-2.23,2.37-4.1,4.1-5.77.66-.64,1.46-.89,2.36-.56.94.35,1.4,1.07,1.51,2.03.03.33.03.65.05,1.11-.36,2.76-1.58,5.18-3.92,6.95-1.68,1.26-3.87.46-4.39-1.54-.2-.77,0-1.51.29-2.22ZM25.41,14c-1.45-.27-2.48-1.67-2.39-3.4.17-1.17.61-2.44,1.82-3.26,1.49-1.01,3.39-.76,4.55.57,1.14,1.29,1.14,3.4-.04,4.72-1.04,1.18-2.38,1.65-3.94,1.37ZM35.1,55.18c-.93,1.61-3,2.16-4.61,1.23l-14.48-8.35c-1.61-.93-2.16-3-1.23-4.61l.91-1.58,20.32,11.73-.91,1.58ZM40.57,52.22l-.21.37c-.21.36-.68.49-1.04.28-.11-.07-.17-.18-.17-.3,0-.06.01-.12.04-.17l.64-1.1c.09-.16.3-.22.46-.12.25.14.38.39.38.65,0,.13-.03.27-.1.39ZM41.97,49.8l-.21.36c-.21.37-.68.49-1.05.28-.11-.06-.16-.17-.16-.29,0-.06,0-.12.04-.17l.64-1.1c.09-.16.3-.22.46-.13.24.14.38.4.38.67,0,.13-.03.26-.1.38ZM46.42,35.56l-8.59,14.88-20.32-11.73,8.6-14.88c.93-1.61,2.99-2.16,4.6-1.23l14.48,8.35c1.61.93,2.16,3,1.23,4.61Z"/>
  </g>
</svg>