<?xml version="1.0" encoding="UTF-8" standalone="no"?>
<svg
   id="Layer_2"
   viewBox="0 0 62.099998 62.099997"
   version="1.1"
   sodipodi:docname="syringe.svg"
   width="62.099998"
   height="62.099998"
   inkscape:version="1.2.2 (732a01da63, 2022-12-09)"
   xmlns:inkscape="http://www.inkscape.org/namespaces/inkscape"
   xmlns:sodipodi="http://sodipodi.sourceforge.net/DTD/sodipodi-0.dtd"
   xmlns="http://www.w3.org/2000/svg"
   xmlns:svg="http://www.w3.org/2000/svg">
  <sodipodi:namedview
     id="namedview31"
     pagecolor="#ffffff"
     bordercolor="#000000"
     borderopacity="0.25"
     inkscape:showpageshadow="2"
     inkscape:pageopacity="0.0"
     inkscape:pagecheckerboard="0"
     inkscape:deskcolor="#d1d1d1"
     showgrid="false"
     showguides="false"
     inkscape:zoom="8.5750851"
     inkscape:cx="14.110647"
     inkscape:cy="31.311643"
     inkscape:window-width="1920"
     inkscape:window-height="991"
     inkscape:window-x="-9"
     inkscape:window-y="-9"
     inkscape:window-maximized="1"
     inkscape:current-layer="Layer_2">
    <inkscape:page
       x="0"
       y="0"
       width="62.099998"
       height="62.099998"
       id="page5232" />
    <inkscape:page
       x="-13.061095"
       y="-16.093134"
       width="1.9824876"
       height="0"
       id="page5234" />
  </sodipodi:namedview>
  <defs
     id="defs4">
    <style
       id="style2">
      .cls-1 {
        fill: #fff;
      }

      .cls-2 {
        fill: #323232;
      }
    </style>
    <radialGradient
       id="radial-gradient"
       cx="258.29999"
       cy="-1568.8199"
       fx="258.29999"
       fy="-1568.8199"
       r="30.02"
       gradientTransform="matrix(0.86594418,0.5028666,-0.4999531,0.8709905,-976.9954,1267.7239)"
       gradientUnits="userSpaceOnUse">
      <stop
         offset="0"
         stop-color="#b3b2b3"
         stop-opacity=".5"
         id="stop158" />
      <stop
         offset="1"
         stop-color="#333"
         stop-opacity=".5"
         id="stop160" />
    </radialGradient>
    <radialGradient
       id="radial-gradient-2"
       cx="-712.76001"
       cy="119.62"
       fx="-712.76001"
       fy="119.62"
       r="31.02"
       gradientTransform="matrix(0.25879477,0.97146367,-0.96583523,0.26030291,331.01186,692.47466)"
       gradientUnits="userSpaceOnUse">
      <stop
         offset="0"
         stop-color="#000"
         stop-opacity=".25"
         id="stop163" />
      <stop
         offset="1"
         stop-color="#000"
         stop-opacity=".25"
         id="stop165" />
    </radialGradient>
  </defs>
  <g
     id="g16"
     transform="matrix(1,0,0,1.0447761,14,6)">
    <path
       class="cls-2"
       d="M 30.16,4.63 30.58,3.93 24.13,0 23.71,0.7 25.18,1.59 23.89,3.71 22.42,2.81 22,3.51 22.52,3.82 8.73,26.46 l 0.39,0.23 -1.6,2.85 -0.2,1.67 -1.45,2.38 -0.22,1.83 0.67,0.4 -6.32,10.37 0.12,0.5 0.32,0.19 6.5,-10.68 0.67,0.4 1.52,-1.02 1.45,-2.39 1.39,-0.94 1.79,-2.73 0.39,0.24 13.79,-22.64 0.51,0.31 0.42,-0.69 -1.46,-0.89 1.28,-2.12 z m -19.35,26.48 -1.42,0.95 -1.45,2.39 -0.38,0.25 -0.2,-0.12 0.06,-0.45 1.45,-2.39 0.2,-1.69 1.42,-2.52 1.9,1.16 z m 2.81,-3.55 -2.69,-1.64 0.62,-1.02 2.69,1.64 z M 15.4,24.63 12.71,22.99 23.47,5.33 26.15,6.97 Z M 26.04,5.01 25.26,4.54 26.13,3.11 26.91,3.58 Z"
       id="path6" />
    <polygon
       class="cls-1"
       points="7.56,34.7 7.36,34.58 7.42,34.13 8.87,31.74 9.07,30.05 10.49,27.53 12.39,28.69 10.81,31.11 9.39,32.06 7.94,34.45 "
       id="polygon8" />
    <rect
       class="cls-1"
       x="11.99"
       y="24.65"
       width="1.2"
       height="3.1500001"
       transform="rotate(-58.66,12.590206,26.228722)"
       id="rect10" />
    <rect
       class="cls-1"
       x="25.25"
       y="3.5999999"
       width="1.67"
       height="0.91000003"
       transform="rotate(-58.66,26.087214,4.0614284)"
       id="rect12" />
    <rect
       class="cls-1"
       x="9.1000004"
       y="13.41"
       width="20.67"
       height="3.1500001"
       transform="rotate(-58.66,19.435659,14.982944)"
       id="rect14" />
  </g>
  <g
     id="g28"
     transform="matrix(1,0,0,1.0447761,14,6)">
    <path
       class="cls-2"
       d="m 30.79,16.97 -0.45,0.43 0.91,0.94 -1.37,1.31 -0.9,-0.95 -0.45,0.43 0.32,0.33 -14.62,13.95 0.24,0.25 -1.74,1.78 -0.48,1.19 -1.54,1.47 -0.51,1.3 0.41,0.43 -6.7,6.39 v 0.39 c 0,0 0.18,0.2 0.18,0.2 l 6.9,-6.58 0.41,0.43 1.32,-0.46 1.54,-1.47 1.21,-0.42 1.86,-1.65 0.24,0.25 14.62,-13.95 0.32,0.33 0.44,-0.43 -0.9,-0.94 1.36,-1.31 0.91,0.95 0.45,-0.43 z m -15.95,20.27 -1.23,0.42 -1.54,1.47 -0.33,0.12 -0.12,-0.13 0.13,-0.32 1.54,-1.47 0.48,-1.21 1.54,-1.58 1.18,1.23 z m 2.77,-2.06 -1.65,-1.73 0.66,-0.63 1.65,1.73 z m 1.89,-1.8 -1.65,-1.74 11.4,-10.88 1.65,1.74 z m 11.71,-12.35 -0.48,-0.5 0.92,-0.88 0.48,0.5 z"
       id="path18" />
    <polygon
       class="cls-1"
       points="16.49,35.77 14.84,37.24 13.61,37.66 12.07,39.13 11.74,39.25 11.62,39.12 11.75,38.8 13.29,37.33 13.77,36.12 15.31,34.54 "
       id="polygon20" />
    <rect
       class="cls-1"
       x="16.66"
       y="32.799999"
       width="0.91000003"
       height="2.4000001"
       transform="rotate(-43.66,17.116664,34.001144)"
       id="rect22" />
    <rect
       class="cls-1"
       x="30.790001"
       y="19.99"
       width="1.28"
       height="0.69999999"
       transform="rotate(-43.66,31.425643,20.337835)"
       id="rect24" />
    <rect
       class="cls-1"
       x="16.5"
       y="25.870001"
       width="15.76"
       height="2.4000001"
       transform="rotate(-43.66,24.368581,27.070911)"
       id="rect26" />
  </g>
  <ellipse
     class="cls-5"
     cx="31.02"
     cy="31.195026"
     id="circle170"
     style="fill:url(#radial-gradient);stroke:url(#radial-gradient-2);stroke-width:2.00563px;stroke-miterlimit:10"
     rx="30.017185"
     ry="30.19211" />
</svg>
