<?xml version="1.0" encoding="UTF-8"?>
<svg width="62.06" height="62.06" id="Layer_2" data-name="Layer 2" xmlns="http://www.w3.org/2000/svg" xmlns:xlink="http://www.w3.org/1999/xlink" viewBox="0 0 62.06 62.06">
  <defs>
    <style>
      .cls-1 {
        fill: none;
      }

      .cls-1, .cls-2, .cls-3, .cls-4 {
        stroke-width: 0px;
      }

      .cls-5 {
        fill: url(#radial-gradient);
        stroke: url(#radial-gradient-2);
        stroke-miterlimit: 10;
        stroke-width: 2px;
      }

      .cls-2 {
        fill: #323232;
      }

      .cls-3 {
        fill: #fff;
      }

      .cls-4 {
        fill: #7e7e7e;
      }
    </style>
    <radialGradient id="radial-gradient" cx="258.3" cy="-1568.82" fx="258.3" fy="-1568.82" r="30.02" gradientTransform="translate(-977.08 1260.51) rotate(30)" gradientUnits="userSpaceOnUse">
      <stop offset="0" stop-color="#b3b2b3" stop-opacity=".5"/>
      <stop offset="1" stop-color="#333" stop-opacity=".5"/>
    </radialGradient>
    <radialGradient id="radial-gradient-2" cx="-712.76" cy="119.62" fx="-712.76" fy="119.62" r="31.02" gradientTransform="translate(331.05 688.54) rotate(75)" gradientUnits="userSpaceOnUse">
      <stop offset="0" stop-color="#000" stop-opacity=".25"/>
      <stop offset="1" stop-color="#000" stop-opacity=".25"/>
    </radialGradient>
  </defs>
  <circle class="cls-5" cx="31.03" cy="31.03" r="30.02"/>
  <g>
    <path class="cls-1" d="M29.56,39.54l.17-.03.16.05c.9.27,1.81.51,2.71.73v-.02s-.39-.17-.39-.17l-.12-.05-.04-.02-1.13-.48-.13-.06-.19-.08-1.18-.5-.5.77c.2-.05.42-.1.64-.14Z"/>
    <path class="cls-1" d="M34.28,23.86c-8.21-4.74-16.79-7.1-21.73-6.03.49,1.53,1.49,3.24,2.91,5.02l.86-1.32,4.88,3.17-1.68,2.59,3.96,2.57.45-.69,4.36,2.83-.45.69,2.47,1.6.05-.12.44.19c.72-.64,1.8-.76,2.65-.21l1.26.82c.54.35.92.88,1.07,1.51l.21.09.8.34-.34.8-.83,1.96-.33.78-.16.39c1.3.25,2.58.45,3.82.59,4.81.55,8.98.22,11.66-.9l-.05-.21c-1.15-4.89-7.69-11.5-16.28-16.46Z"/>
    <path class="cls-2" d="M11.21,18.2h-.04s-.17-.71-.17-.71c.06.24.12.47.21.71Z"/>
    <path class="cls-4" d="M52.56,41.1c-.14.1-.3.18-.45.27-.25.14-.51.27-.78.39.11-.33.19-.63.25-.89,0-.04.01-.06.02-.08.06-.3.11-.57.12-.78,0,0,0-.02,0-.03.05-.49,0-.72,0-.72-.78-2.4-2.6-5.13-5.32-7.93-3.03-3.11-6.98-6.12-11.41-8.68-4.44-2.56-9.02-4.48-13.22-5.54-3.79-.96-7.05-1.18-9.52-.64,0,0-.3.24-.59.73-.15.26-.3.6-.41,1h-.04c-.08-.23-.15-.47-.21-.71-.04-.18-.08-.35-.1-.52,0-.02.24-.59.59-1.3.3-.59.69-1.28,1.1-1.8.15-.18.3-.35.45-.48,1.38-1.58,4.45-2.14,8.57-1.56,4.83.69,10.55,2.84,16.12,6.05,5.56,3.22,10.3,7.1,13.3,10.94,1.99,2.53,3.07,4.86,3.13,6.71.13.64,0,1.48-.25,2.3-.1.37-.23.74-.36,1.08-.11.26-.21.52-.31.76-.08.18-.16.34-.23.49-.26.56-.47.93-.47.93Z"/>
    <rect class="cls-3" x="24.89" y="37.06" width=".73" height="4.01" transform="translate(-21.26 38.97) rotate(-57)"/>
    <polygon class="cls-3" points="18.2 28.1 17.79 28.74 19.95 30.14 23.22 31.53 23.3 31.41 18.2 28.1"/>
    <path class="cls-3" d="M16.98,33.25l-1.22-.52c0,.18-.04.36-.12.52l4.55,2.95.4-.61-3.6-2.34Z"/>
    <polygon class="cls-4" points="20.59 35.59 20.19 36.2 20.77 36.59 20.31 37.29 22.33 38.61 22.79 37.9 23.38 38.28 23.78 37.66 20.59 35.59"/>
    <polygon class="cls-4" points="24.33 31.11 23.89 31.79 23.3 31.41 23.22 31.53 26.13 32.76 26.35 32.42 24.33 31.11"/>
    <polygon class="cls-3" points="17.43 26.73 17.81 26.14 18.36 26.5 19.27 25.11 16.73 23.46 15.82 24.85 16.38 25.21 16 25.8 17.43 26.73"/>
    <polygon class="cls-3" points="14.25 32.83 13.7 32.47 14.01 31.99 13.35 31.71 13.21 32.03 12.41 31.69 11.61 31.35 10.81 32.58 13.34 34.23 14.25 32.83"/>
    <polygon class="cls-4" points="14.92 28.01 16.23 28.56 17.43 26.73 16 25.8 14.83 27.59 15.06 27.68 14.92 28.01"/>
    <path class="cls-3" d="M11.14,30.2l.14-.32.32.14-.14.32,1.29.55.14-.32,16.9,7.18-.14.32,1.29.55.14-.32.32.14-.14.32,1.29.55.14-.32.64.27-.14.32,1.29.55c.19-.46.97-2.28,1.16-2.74l-1.29-.55-.14.32-.64-.27.14-.32-1.29-.55-.14.32-.32-.14.14-.32-1.29-.55-.14.32-16.9-7.18.14-.32-1.29-.55-.14.32-.32-.14.14-.32-1.29-.55-.14.32-.64-.27.14-.32-1.29-.55c-.19.46-.97,2.28-1.16,2.74l1.29.55.14-.32.64.27-.14.32,1.29.55Z"/>
    <path class="cls-3" d="M51.32,41.76c-2.93,1.28-7.32,1.66-12.53,1.07-2.09-.24-4.27-.63-6.48-1.17-.02,0-.03,0-.05-.01l-1.7,5.24c4.16,1.01,8.18,1.48,11.62,1.38,5.17-.16,8.58-1.6,9.34-3.95l1.04-3.21c-.15.09-.3.18-.46.27-.25.14-.51.27-.79.39Z"/>
    <path class="cls-4" d="M32.26,41.64c-.86-.21-1.74-.44-2.61-.7-1.52.32-2.57,1.04-2.88,1.99-.31.94.08,2.08,1.09,3.22.87.26,1.76.5,2.65.71.02,0,.03,0,.05.01l1.7-5.24Z"/>
    <path class="cls-2" d="M52.14,27.95c-3.12-3.98-7.98-7.98-13.7-11.29-5.72-3.3-11.63-5.51-16.63-6.23-5.22-.74-8.9.24-10.36,2.77l-3.45,5.99c-.99,1.7-.85,3.94.31,6.45l-.03.11-.4.93-.77,1.81-.34.8.81.34,1.12.48.81.35.78.33-1.42,2.19,4.88,3.18,1.13-1.73,3.96,2.56-.46.71,4.36,2.84.46-.72,2.7,1.76c-.2.28-.35.59-.46.92-.48,1.49.06,3.17,1.52,4.75l.13.14.18.05c.96.28,1.93.55,2.9.78,4.3,1.05,8.46,1.54,12.05,1.43,5.88-.18,9.66-1.92,10.63-4.91l2.11-6.5c1.41-2.54.41-6.18-2.82-10.29ZM14.25,32.83l-.91,1.39-2.54-1.65.8-1.22.51.21.29.12.81.35.13-.33h.01s.66.29.66.29l-.32.48.56.35h0ZM12.89,30.56l-.14.32-1.29-.55.13-.32-.09-.04-.23-.1h0s-.13.33-.13.33l-1.29-.55.14-.32-.64-.28-.15.33-1.28-.55s.03-.06.04-.1c.04-.08.08-.17.12-.28.07-.17.16-.36.24-.57.29-.68.63-1.5.76-1.78l1.29.54-.14.32h0s.45.2.45.2l.19.08h.01l.13-.33,1.28.55-.13.32.32.14h.01l.14-.32,1.28.54-.14.33,16.9,7.17.14-.32,1.29.55-.13.32.31.13.14-.32,1.29.55-.14.32.65.27.14-.32,1.28.56c-.12.28-.47,1.1-.76,1.78-.08.21-.17.4-.24.57-.04.11-.08.2-.12.28-.01.04-.03.07-.04.1l-1.29-.55.14-.32-.64-.28-.14.32-1.28-.54.13-.32-.32-.14-.14.32-1.29-.55.14-.32-16.9-7.17ZM14.22,21.13c-.12-.17-.23-.33-.33-.49-.16-.27-.32-.54-.46-.8-.38-.7-.67-1.37-.88-2.02,4.93-1.06,13.52,1.3,21.74,6.04,8.58,4.96,15.12,11.57,16.27,16.46l.05.21c-2.68,1.12-6.86,1.45-11.66.9-.04,0-.08-.01-.12-.01-.59-.07-1.18-.15-1.78-.24-.64-.1-1.28-.21-1.93-.34l.17-.4.33-.77.83-1.96.34-.8-.8-.35-.21-.08h0c-.02-.09-.05-.16-.08-.24-.13-.37-.34-.7-.63-.98-.11-.11-.24-.21-.37-.3l-1.26-.81c-.16-.1-.33-.18-.5-.23-.35-.12-.72-.14-1.08-.08-.26.05-.51.14-.74.28-.12.07-.23.15-.33.24l-.44-.19-.05.12-2.46-1.6h0l.45-.69h0s-2.65-1.72-2.65-1.72l-1.71-1.11h-.01l-.44.68-3.96-2.56h0s1.69-2.59,1.69-2.59l-4.89-3.18-.85,1.32h-.01c-.46-.59-.87-1.16-1.23-1.71ZM19.95,30.13l-1.31-.85-.85-.55h-.01l.25-.38.17-.24,5.1,3.3.58.38.45-.69,2.02,1.31-.23.35-2.9-1.23-3.27-1.4ZM15.99,25.8l.38-.59-.55-.36.9-1.39h.01s1.57,1.02,1.57,1.02l.96.63-.26.39-.65.99-.55-.35-.38.58-1.19,1.84-1.31-.55h0s.14-.33.14-.33l-.23-.1,1.16-1.78ZM29.76,39.06l.84.34.19.09.13.05,1.13.48.04.02.12.05.39.17v.02c-.9-.22-1.81-.46-2.72-.73l-.16-.05-.16.03c-.22.04-.44.09-.64.14l.49-.76h.01l.34.15ZM23.38,38.27h-.01l-.23-.15-.35-.24h0s-.46.72-.46.72l-2.02-1.31.46-.71-.58-.38h-.01l-4.54-2.95h-.01c.03-.05.05-.1.07-.16.04-.1.05-.2.05-.31v-.05h.01l1.22.52,3.6,2.34h0l3.18,2.07h.01l3.36,2.18-.41.62-3.35-2.19ZM53.92,37.82c-.1.37-.22.74-.36,1.08-.1.26-.21.53-.31.77-.08.17-.16.34-.23.49-.26.56-.46.93-.46.93h0s-1.04,3.21-1.04,3.21c-.19.58-.54,1.11-1.05,1.58-.25.24-.54.46-.88.66-.32.21-.69.39-1.09.56-1.59.67-3.73,1.07-6.32,1.15-1.5.05-3.1-.02-4.77-.18-.88-.09-1.77-.21-2.68-.35-.46-.07-.92-.15-1.38-.24-.92-.17-1.86-.37-2.8-.6,0-.01,0-.01-.02-.01-.01-.01-.02-.01-.03-.01-.88-.21-1.77-.45-2.64-.71-1.01-1.14-1.4-2.28-1.09-3.22.31-.95,1.36-1.67,2.88-1.99.86.25,1.74.49,2.61.7.01,0,.03.01.05.01,1.1.27,2.2.5,3.28.7,1.08.2,2.15.36,3.19.47.43.05.86.09,1.27.13,2.03.17,3.92.19,5.62.06h.01c1.11-.09,2.14-.24,3.08-.44.63-.14,1.22-.31,1.77-.51.27-.09.54-.2.79-.31.11-.33.19-.63.25-.89.01-.03.02-.06.03-.08.06-.3.1-.57.12-.78v-.03c.05-.49,0-.72,0-.72-.78-2.4-2.61-5.13-5.33-7.93-3.03-3.11-6.98-6.11-11.4-8.67-4.45-2.56-9.02-4.48-13.23-5.55-3.79-.96-7.05-1.18-9.52-.64,0,0-.3.24-.59.73-.15.26-.3.6-.41,1h-.03c.57,1.81,1.76,3.82,3.45,5.88l-.17.27c-.25.37-.23.85,0,1.2l-.97,1.49-.55-.24-.07-.03-.27-.1-1.28-.55-.8-.34-.77-.33c-.05-.09-.09-.19-.14-.28-.72-1.51-1.38-3.64-.43-5.28l1.69-2.92s.24-.59.6-1.3c.29-.59.68-1.28,1.09-1.8.15-.18.31-.35.45-.48,1.38-1.58,4.45-2.15,8.57-1.56,4.83.69,10.55,2.84,16.13,6.05,5.56,3.22,10.29,7.1,13.3,10.94,1.99,2.53,3.07,4.87,3.13,6.71.13.64-.01,1.48-.25,2.3Z"/>
    <path class="cls-3" d="M13.52,27.04l-.55-.24-.07-.03-.26-.11-1.28-.54-.81-.34-.77-.33c-.05-.09-.09-.19-.14-.28-.71-1.51-1.37-3.63-.42-5.28l1.69-2.92c.02.18.06.35.1.52l.17.72h.04c.57,1.8,1.76,3.8,3.45,5.86l-.17.27c-.25.37-.23.85,0,1.2l-.97,1.49Z"/>
    <path class="cls-4" d="M51.59,40.05h0s.01,0,.02,0c0,0,0,0-.02,0Z"/>
  </g>
</svg>