<?xml version="1.0" encoding="UTF-8"?>
<svg width="88.72" height="88.72" id="Layer_2" data-name="Layer 2" xmlns="http://www.w3.org/2000/svg" viewBox="0 0 88.72 88.72">
  <defs>
    <style>
      .cls-1 {
        fill: #984422;
      }

      .cls-1, .cls-2, .cls-3, .cls-4, .cls-5, .cls-6 {
        stroke-width: 0px;
      }

      .cls-7 {
        fill: none;
        stroke-width: 4px;
      }

      .cls-7, .cls-8 {
        stroke: #000;
        stroke-miterlimit: 10;
      }

      .cls-2 {
        fill: #5f260d;
      }

      .cls-3 {
        fill: #045ba7;
      }

      .cls-4 {
        fill: #313471;
      }

      .cls-8 {
        stroke-width: 5px;
      }

      .cls-8, .cls-6 {
        fill: #2f3471;
      }

      .cls-5 {
        fill: #26a7df;
      }
    </style>
  </defs>
  <g>
    <g>
      <path class="cls-3" d="M44.36,83.22c-21.43,0-38.86-17.43-38.86-38.86S22.93,5.5,44.36,5.5s38.86,17.43,38.86,38.86-17.43,38.86-38.86,38.86Z"/>
      <path class="cls-4" d="M44.36,9c19.5,0,35.36,15.86,35.36,35.36s-15.86,35.36-35.36,35.36c-9.44,0-18.32-3.68-25-10.36-6.68-6.68-10.36-15.56-10.36-25,0-19.5,15.86-35.36,35.36-35.36M44.36,2C20.97,2,2,20.97,2,44.36c0,23.39,18.97,42.36,42.36,42.36s42.36-18.97,42.36-42.36S67.75,2,44.36,2h0Z"/>
    </g>
    <circle class="cls-7" cx="44.36" cy="44.36" r="42.36"/>
    <rect class="cls-5" x="30.88" y="35.89" width="26.96" height="16.17" rx="2.92" ry="2.92"/>
    <circle class="cls-8" cx="44.62" cy="67.85" r="7.7"/>
    <circle class="cls-6" cx="44.62" cy="17.36" r="5.48"/>
  </g>
  <g>
    <path class="cls-1" d="M43.91,11.82c.23-.03.47-.05.71-.05,3.03,0,5.48,2.45,5.48,5.48,0,.31-.03.61-.08.91h0s.22-.05.22-.05l8.73-5.59.16-2.16c-3.78-1.66-7.89-2.7-12.21-3l-.6.53-2.41,3.93Z"/>
    <path class="cls-2" d="M83.7,33.34l-1.04.59-2.42,1.39c.71,2.86,1.09,5.85,1.09,8.93,0,18.25-13.29,33.46-30.71,36.44l-.52.51.46,2.23.23,1.13s.05,0,.08,0c19.88-3.18,34.31-20.13,34.31-40.3,0-3.7-.49-7.37-1.48-10.91Z"/>
    <path class="cls-1" d="M70.55,53.53s-4.72,8.92-5.11,9.18c-.39.26-7.6,5.03-7.6,5.03l-.92,6.77-6.31,6.18c17.42-2.98,30.71-18.18,30.71-36.44,0-3.07-.38-6.07-1.09-8.93l-11.66,6.68,1.97,11.53Z"/>
    <path class="cls-2" d="M49.68,4.94l-2.76,2.42c4.31.3,8.43,1.34,12.21,3l.21-2.84.08-1.19c-2.37-.95-4.84-1.68-7.39-2.16l-2.19.62-.17.15Z"/>
    <path class="cls-2" d="M11.81,61.75c-2.82-5.21-4.42-11.18-4.42-17.51,0-5.91,1.39-11.5,3.87-16.46l-1.09-3.62h0s-.45-1.5-.45-1.5c-4.05,6.46-6.18,13.89-6.18,21.58s2.17,15.23,6.28,21.74l.59-1.26,1.4-2.98Z"/>
    <path class="cls-1" d="M9.62,49.6v-9.2s2.46-9.87,2.46-9.87l-.82-2.73c-2.47,4.96-3.87,10.55-3.87,16.46,0,6.33,1.6,12.29,4.42,17.51l3.22-6.85-5.41-5.31Z"/>
  </g>
</svg>