<?xml version="1.0" encoding="UTF-8"?>
<svg id="Layer_1" data-name="Layer 1" xmlns="http://www.w3.org/2000/svg" viewBox="0 0 88.72 88.72">
  <defs>
    <style>
      .cls-1 {
        fill: #000;
      }

      .cls-1, .cls-2, .cls-3, .cls-4, .cls-5 {
        stroke-width: 0px;
      }

      .cls-2 {
        fill: #045ba7;
      }

      .cls-3 {
        fill: #313471;
      }

      .cls-4 {
        fill: #26a7df;
      }

      .cls-5 {
        fill: #2f3471;
      }
    </style>
  </defs>
  <path class="cls-2" d="M81.72,44.36c0-20.6-16.76-37.36-37.36-37.36S7,23.76,7,44.36s16.76,37.36,37.36,37.36,37.36-16.76,37.36-37.36ZM44.62,11.88c3.03,0,5.48,2.45,5.48,5.48s-2.45,5.48-5.48,5.48-5.48-2.45-5.48-5.48,2.45-5.48,5.48-5.48ZM44.62,78.05c-5.62,0-10.2-4.58-10.2-10.2s4.58-10.2,10.2-10.2,10.2,4.58,10.2,10.2-4.58,10.2-10.2,10.2ZM57.84,49.14c0,1.61-1.31,2.92-2.92,2.92h-21.12c-1.61,0-2.92-1.31-2.92-2.92v-10.34c0-1.61,1.31-2.92,2.92-2.92h21.12c1.61,0,2.92,1.31,2.92,2.92v10.34Z"/>
  <path class="cls-3" d="M44.36,4C22.11,4,4,22.11,4,44.36s18.11,40.36,40.36,40.36,40.36-18.11,40.36-40.36S66.61,4,44.36,4ZM7,44.36C7,23.76,23.76,7,44.36,7s37.36,16.76,37.36,37.36-16.76,37.36-37.36,37.36S7,64.96,7,44.36Z"/>
  <path class="cls-1" d="M44.36,0C19.9,0,0,19.9,0,44.36s19.9,44.36,44.36,44.36,44.36-19.9,44.36-44.36S68.82,0,44.36,0ZM44.36,84.72c-22.25,0-40.36-18.11-40.36-40.36S22.11,4,44.36,4s40.36,18.11,40.36,40.36-18.11,40.36-40.36,40.36Z"/>
  <rect class="cls-4" x="30.88" y="35.89" width="26.96" height="16.17" rx="2.92" ry="2.92"/>
  <path class="cls-5" d="M44.62,62.65c-2.87,0-5.2,2.33-5.2,5.2s2.33,5.2,5.2,5.2,5.2-2.33,5.2-5.2-2.33-5.2-5.2-5.2Z"/>
  <path class="cls-1" d="M44.62,57.65c-5.62,0-10.2,4.58-10.2,10.2s4.58,10.2,10.2,10.2,10.2-4.58,10.2-10.2-4.58-10.2-10.2-10.2ZM44.62,73.05c-2.87,0-5.2-2.33-5.2-5.2s2.33-5.2,5.2-5.2,5.2,2.33,5.2,5.2-2.33,5.2-5.2,5.2Z"/>
  <circle class="cls-5" cx="44.62" cy="17.36" r="5.48" transform="translate(-2.21 7.37) rotate(-9.22)"/>
</svg>