<?xml version="1.0" encoding="UTF-8"?>
<svg id="Layer_1" data-name="Layer 1" xmlns="http://www.w3.org/2000/svg" version="1.1" viewBox="0 0 114 114">
  <defs>
    <style>
      .cls-1 {
        fill: #70b944;
      }

      .cls-1, .cls-2, .cls-3 {
        stroke-width: 0px;
      }

      .cls-2 {
        fill: #5d9842;
      }

      .cls-3 {
        fill: #4c7637;
      }

      .cls-4 {
        opacity: .95;
      }
    </style>
  </defs>
  <g class="cls-4">
    <path class="cls-3" d="M108.78,66.43l.02-.09c1.1-4.46,5.92-8.31,5.12-13.58-.01-6.36-4.67-8.51-7.13-13.05-.87-1.98-.67-3.88-.63-6.17.48-4.02-.91-8.27-3.91-11.13-2.65-2.76-6.54-3.16-9.3-4.46-5.12-2.18-5.06-9.39-10.17-11.87-6.36-4.07-10.25-.51-16.28-.97-3.51-.66-6.12-3.64-9.62-4.68-3.04-.85-7.02-.46-9.79,1.13-3.6,2.15-6.09,6.52-10.66,6.26-4.57-.13-8.78-.59-12.58,2.66-3.41,2.27-4.27,6.43-5.6,9.88-1.82,5.29-7.51,5.02-11.09,9.29-6.51,8.47-.17,12.49-2.51,19.46-1.23,3.06-3.74,5.29-4.46,9.12-.35,2.29-.13,4.7.59,6.89,1.84,5.07,7.17,6.91,7.06,12.35.17,3.01-.69,6.4.95,9.83,1.11,2.27,2.77,4.46,4.92,5.78,3.04,1.89,7.24,1.98,9.71,4.49,2.67,2.92,3.07,6.98,6.87,9.67,7.02,4.92,10.38,1.17,17.19,1.55,6.58,1.87,8.31,6.8,16.81,4.62,3.52-.87,5.54-3.55,7.84-5.31,4.64-4.25,11.24.16,16.58-3.7,6.19-3.41,5.13-8.74,8.54-13.47,2.87-3.08,7.69-3.5,10.3-7.68,4.6-6.86.82-10.36,1.25-16.86ZM95.3,64.62c-.72,4.45-6.04,5.51-6.23,9.82-.26,1.97.06,4.24-1.22,6.37-3.06,5.17-6.28,3.62-10.37,5.9-3.48,3.11-3.29,6.55-9.07,7.57-3.15.54-5.31-1.23-8.01-1.35-2.41-.02-4.49,1.97-6.87,2.52-1.68.4-3.55.14-5.18-.42-2.45-.87-3.68-2.92-5.22-4.3-2.58-2.69-6.05-1-9.4-2.56-1.41-.71-2.69-1.77-3.62-3.05-1.5-2.2-1.37-4.49-2.26-6.57-2.24-4.5-7.26-3.38-8.21-10.63-.34-3.8,2.55-6.43.87-9.87-1.03-2.31-2.63-4.75-2.07-7.49.26-3.41,2.52-5.23,4.8-7.38,2.33-2.09,1.43-5.41,2.13-8.19.57-2.11,2.31-4.23,4.19-5.29,2.2-1.19,4.9-1.01,6.92-2.39,3.14-2.7,3.3-6.3,8.35-7.41,3.68-1.27,7.14,2.24,10.67.82,1.96-.71,4.04-2.4,6.66-2.34,2.84-.07,5.57,1.31,7.28,3.49,1.09,1.12,1.91,2.14,3.29,2.68,3.39,1.01,6.69-.21,9.77,2.87,2.94,2.16,2.47,6.36,4.1,9.05l.03.05c2.94,3.35,6.46,3.22,7.56,8.76.76,3.29-1.37,5.83-1.27,8.7.64,3.94,3.73,6.01,2.38,10.65Z"/>
    <path class="cls-2" d="M94.18,45.27c-1.1-5.55-4.62-5.41-7.56-8.76l-.03-.05c-1.63-2.69-1.16-6.89-4.1-9.05-3.09-3.07-6.38-1.86-9.77-2.87-1.38-.54-2.2-1.56-3.29-2.68-1.72-2.18-4.44-3.56-7.28-3.49-2.61-.05-4.7,1.64-6.66,2.34-3.53,1.42-6.99-2.1-10.67-.82-5.05,1.11-5.21,4.72-8.35,7.41-2.02,1.38-4.72,1.2-6.92,2.39-1.89,1.06-3.62,3.18-4.19,5.29-.7,2.78.21,6.11-2.13,8.19-2.28,2.15-4.54,3.97-4.8,7.38-.56,2.75,1.05,5.18,2.07,7.49,1.68,3.44-1.21,6.06-.87,9.87.95,7.25,5.96,6.13,8.21,10.63.88,2.08.75,4.37,2.26,6.57.94,1.28,2.21,2.34,3.62,3.05,3.35,1.56,6.81-.13,9.4,2.56,1.54,1.38,2.77,3.43,5.22,4.3,1.63.56,3.5.82,5.18.42,2.39-.56,4.46-2.54,6.87-2.52,2.7.12,4.86,1.89,8.01,1.35,5.78-1.02,5.59-4.46,9.07-7.57,4.09-2.28,7.32-.73,10.37-5.9,1.28-2.13.96-4.4,1.22-6.37.19-4.3,5.51-5.36,6.23-9.82,1.35-4.65-1.75-6.72-2.38-10.65-.1-2.88,2.03-5.42,1.27-8.7ZM80.83,69.67c-1.28,1.81-3.2,1.99-4.59,3.26-1.19,1.17-1.24,3.16-2.13,4.6-.63,1.02-1.67,1.81-2.74,2.33-1.62.77-3.23.37-4.66.45-2.58-.05-3.45,2.47-5.85,3.35-1.04.34-2.18.45-3.27.28-1.81-.34-2.87-1.53-4.32-2.11-3.3-1.11-5.21,1.9-9.22-1.19-2.03-1.7-1.9-4.4-4.41-5.26-1.64-.63-3.61-1.04-4.69-2.65-1.54-1.8-1.33-3.8-1.26-5.96.12-2.16-1.95-3.35-2.97-5.05-.75-1.31-.94-3.2-.53-4.64.49-1.66,1.9-2.9,2.22-4.56.22-2.86-1.47-4.7.46-7.72,1.18-2.43,4.59-2.4,5.63-4.82.61-1.3.81-3.15,2.11-4.41,1.36-1.42,3.37-2.08,5.28-1.86,1.08.02,1.98.11,2.92-.3,2.16-1.17,3.17-3.38,6.19-3.38,2.5-.38,4.32,1.9,6.44,2.43h.04c3.08.21,4.74-1.58,7.99.6,1.98,1.24,2.18,3.52,3.64,4.88,2.24,1.62,4.77,1.11,6.38,4.05,1.83,2.53-.26,5.66,1.75,7.86.84,1.09,2.1,2.05,2.52,3.71,1.03,4.03-1.3,4.85-2.19,7.97-.18,3.23,1.6,4.82-.74,8.15Z"/>
    <path class="cls-1" d="M83.76,53.55c-.41-1.67-1.68-2.63-2.52-3.71-2.01-2.2.07-5.33-1.75-7.86-1.61-2.94-4.14-2.43-6.38-4.05-1.46-1.36-1.66-3.65-3.64-4.88-3.25-2.18-4.91-.39-7.99-.59h-.04c-2.11-.53-3.94-2.81-6.44-2.43-3.02,0-4.03,2.21-6.19,3.38-.94.41-1.84.32-2.92.3-1.91-.23-3.92.43-5.28,1.86-1.31,1.25-1.5,3.1-2.11,4.41-1.04,2.43-4.45,2.4-5.63,4.82-1.93,3.01-.24,4.86-.46,7.72-.31,1.66-1.72,2.9-2.22,4.56-.4,1.44-.22,3.33.53,4.64,1.02,1.71,3.09,2.89,2.97,5.05-.06,2.17-.28,4.16,1.26,5.96,1.07,1.62,3.05,2.02,4.69,2.65,2.51.86,2.38,3.56,4.41,5.26,4.01,3.09,5.92.08,9.22,1.19,1.45.58,2.51,1.77,4.32,2.11,1.08.17,2.23.06,3.27-.28,2.4-.87,3.27-3.4,5.85-3.35,1.43-.08,3.04.33,4.66-.45,1.07-.52,2.12-1.31,2.74-2.33.89-1.44.94-3.43,2.13-4.6,1.38-1.26,3.31-1.45,4.59-3.26,2.33-3.33.56-4.92.74-8.15.89-3.12,3.22-3.94,2.19-7.97Z"/>
  </g>
</svg>