<?xml version="1.0" encoding="UTF-8"?>
<svg id="Layer_1" data-name="Layer 1" xmlns="http://www.w3.org/2000/svg" viewBox="0 0 115.16 115.16">
  <defs>
    <style>
      .cls-1 {
        fill: #e6e7e8;
        opacity: .5;
      }

      .cls-1, .cls-2, .cls-3 {
        stroke-width: 0px;
      }

      .cls-4 {
        fill: #8a8132;
      }

      .cls-4, .cls-5 {
        stroke-miterlimit: 10;
      }

      .cls-4, .cls-5, .cls-6 {
        stroke: #000;
        stroke-width: 4px;
      }

      .cls-2 {
        fill: #453e16;
      }

      .cls-5, .cls-7, .cls-8 {
        fill: none;
      }

      .cls-7 {
        stroke: #282204;
      }

      .cls-7, .cls-6, .cls-8 {
        stroke-linejoin: round;
      }

      .cls-7, .cls-8 {
        stroke-width: 2px;
      }

      .cls-6 {
        fill: #726b2c;
      }

      .cls-3 {
        fill: #323031;
      }

      .cls-8 {
        stroke: #4b4325;
      }
    </style>
  </defs>
  <rect class="cls-4" x="2" y="2" width="111.16" height="111.16"/>
  <rect class="cls-2" x="2" y="2" width="111.16" height="111.16"/>
  <rect class="cls-8" x="93.25" y="2" width="9.95" height="111.16"/>
  <g>
    <rect class="cls-7" x="83.29" y="2" width="9.95" height="111.16"/>
    <rect class="cls-7" x="73.34" y="2" width="9.95" height="111.16"/>
    <rect class="cls-7" x="63.38" y="2" width="9.95" height="111.16"/>
    <rect class="cls-7" x="53.43" y="2" width="9.95" height="111.16"/>
    <rect class="cls-7" x="43.48" y="2" width="9.95" height="111.16"/>
    <rect class="cls-7" x="33.52" y="2" width="9.95" height="111.16"/>
    <rect class="cls-7" x="23.57" y="2" width="9.95" height="111.16"/>
    <rect class="cls-7" x="2" y="2" width="21.57" height="111.16"/>
  </g>
  <g>
    <path class="cls-1" d="M23.3,86.87l-10.46-10.46,2.27-2.27,10.46,10.46-2.27,2.27Z"/>
    <path class="cls-1" d="M32.14,78.39c-.61.61-1.25,1.13-1.92,1.56-.67.43-1.35.72-2.04.87s-1.36.14-2.01-.03c-.65-.17-1.27-.55-1.86-1.14l-.16-.16c-.06-.06-.09-.1-.11-.14l2.26-2.26s.06.09.11.14l.14.14c.32.32.69.51,1.09.56.4.05.83-.05,1.29-.28.46-.23.91-.58,1.37-1.04.29-.29.54-.57.73-.84.19-.26.35-.52.46-.76.11-.24.18-.47.21-.68.03-.21,0-.4-.06-.58-.07-.18-.18-.34-.33-.49-.27-.27-.59-.41-.94-.4-.35,0-.74.1-1.17.29-.43.19-.89.43-1.38.71-.49.28-.99.58-1.5.88-.51.3-1.04.57-1.59.79-.54.23-1.08.38-1.61.46-.53.08-1.06.04-1.58-.12-.53-.16-1.04-.49-1.52-.98-.52-.52-.86-1.08-1.01-1.67-.16-.59-.16-1.21,0-1.85.15-.64.43-1.28.83-1.91.4-.64.91-1.26,1.52-1.87.57-.57,1.17-1.05,1.79-1.44.62-.39,1.26-.65,1.9-.78.64-.13,1.26-.11,1.87.05.61.17,1.17.52,1.7,1.05l.18.18-2.21,2.21-.12-.12c-.27-.27-.59-.43-.95-.46s-.74.05-1.14.23c-.41.18-.81.47-1.2.87-.43.43-.75.83-.97,1.21-.22.38-.33.73-.33,1.04,0,.32.11.58.32.79.24.24.53.36.87.34.33-.02.72-.13,1.14-.32.43-.19.88-.44,1.36-.73.48-.29.98-.59,1.49-.88s1.05-.56,1.59-.79c.54-.23,1.08-.39,1.61-.46.53-.08,1.06-.04,1.58.11s1.01.46,1.48.93c.8.8,1.26,1.64,1.36,2.52.1.87-.07,1.76-.52,2.65-.45.89-1.1,1.77-1.97,2.64Z"/>
    <path class="cls-1" d="M38.24,71.93l-10.46-10.46,2.27-2.27,8.52,8.52,5.27-5.28,1.94,1.94-7.55,7.55Z"/>
    <path class="cls-1" d="M46.18,63.98l-6.43-14.48,2.8-2.81,14.48,6.43-2.45,2.45-2.81-1.31-4.56,4.56,1.31,2.81-2.35,2.35ZM46.04,56.34l3.25-3.25-3.51-1.65c-.15-.07-.34-.16-.55-.26-.21-.1-.45-.22-.7-.35-.25-.13-.5-.26-.75-.4s-.47-.25-.67-.35l-.09.09c.14.24.3.54.48.88.18.34.35.67.5.99.16.32.29.58.39.78l1.65,3.51Z"/>
    <path class="cls-1" d="M58.28,51.88l-10.46-10.46,2.09-2.09,9.85,1.43c.13,0,.31.03.53.07.22.04.43.07.63.11.2.04.36.08.46.12l.08-.08-.51-.51-.45-.45-5.64-5.64,2.15-2.15,10.46,10.46-2.09,2.09-10.08-1.48c-.24-.04-.51-.09-.79-.15-.28-.06-.5-.11-.64-.15l-.08.08.45.45.42.42,5.78,5.78-2.15,2.15Z"/>
    <path class="cls-1" d="M69.78,40.38l-10.46-10.46,4.27-4.27c1.09-1.09,2.2-1.82,3.34-2.21s2.3-.4,3.48-.05,2.37,1.13,3.57,2.33,1.97,2.38,2.33,3.56.35,2.35-.04,3.48c-.39,1.14-1.12,2.25-2.21,3.34l-4.27,4.27ZM70.18,36.24l1.98-1.98c.46-.46.8-.93,1.02-1.42.22-.49.32-.98.3-1.47-.03-.49-.17-1-.44-1.51-.27-.51-.66-1.03-1.18-1.55l-.46-.46c-.52-.52-1.03-.91-1.55-1.18-.51-.27-1.02-.42-1.51-.44-.49-.03-.99.07-1.48.29-.49.22-.97.56-1.43,1.01l-1.98,1.98,6.72,6.72Z"/>
    <path class="cls-1" d="M81.05,29.12l-10.46-10.46,5.73-5.73c.77-.77,1.55-1.28,2.34-1.52.79-.24,1.55-.24,2.3,0,.75.24,1.44.68,2.08,1.32.68.68,1.13,1.44,1.35,2.26.22.83.18,1.67-.13,2.52l6.33,2.06-2.52,2.52-5.66-1.97-2.91,2.91,3.81,3.81-2.27,2.27ZM77.71,21.24l3.16-3.16c.46-.46.67-.95.65-1.49s-.28-1.04-.76-1.52c-.3-.3-.62-.51-.95-.62-.33-.11-.66-.11-.98,0-.33.1-.65.31-.96.62l-3.16,3.16,3,3Z"/>
    <path class="cls-1" d="M41.59,105.16l-10.46-10.46,2.27-2.27,10.46,10.46-2.27,2.27Z"/>
    <path class="cls-1" d="M46.18,100.57l-10.46-10.46,2.09-2.09,9.85,1.43c.13,0,.31.03.53.07s.43.07.63.11c.2.04.36.08.46.12l.08-.08-.51-.51-.45-.45-5.64-5.64,2.15-2.15,10.46,10.46-2.09,2.09-10.08-1.48c-.24-.04-.51-.09-.79-.15s-.5-.11-.64-.15l-.08.08c.15.15.3.3.45.45.15.15.29.29.42.42l5.78,5.78-2.15,2.15Z"/>
    <path class="cls-1" d="M57.67,89.07l-10.46-10.46,4.27-4.27c1.09-1.09,2.2-1.82,3.34-2.21s2.3-.4,3.48-.05c1.18.36,2.37,1.13,3.57,2.33s1.97,2.38,2.33,3.56c.36,1.18.35,2.35-.04,3.48-.39,1.14-1.12,2.25-2.21,3.34l-4.27,4.27ZM58.07,84.93l1.98-1.98c.46-.46.8-.93,1.02-1.42.22-.49.32-.98.3-1.47-.03-.49-.17-1-.44-1.51-.27-.51-.66-1.03-1.18-1.55l-.46-.46c-.52-.52-1.03-.91-1.55-1.18s-1.02-.42-1.51-.44c-.49-.03-.99.07-1.48.29-.49.22-.97.56-1.43,1.01l-1.98,1.98,6.72,6.72Z"/>
    <path class="cls-1" d="M68.59,78.16l-2.18-2.18,2.21-2.21,2.18,2.18-2.21,2.21Z"/>
  </g>
  <rect class="cls-6" x="2" y="2" width="111.16" height="14.1"/>
  <rect class="cls-6" x="2" y="99.05" width="111.16" height="14.1"/>
  <rect class="cls-6" x="2" y="2" width="14.1" height="111.16"/>
  <rect class="cls-6" x="99.05" y="2" width="14.1" height="111.16"/>
  <rect class="cls-5" x="2" y="2" width="111.16" height="111.16"/>
  <rect class="cls-6" x="2" y="50.53" width="111.16" height="14.1"/>
  <circle class="cls-3" cx="9.05" cy="57.58" r="1.59"/>
  <circle class="cls-3" cx="106.1" cy="57.58" r="1.59"/>
  <g>
    <circle class="cls-3" cx="9.05" cy="9.05" r="1.59"/>
    <circle class="cls-3" cx="9.05" cy="106.1" r="1.59"/>
  </g>
  <g>
    <circle class="cls-3" cx="106.1" cy="9.05" r="1.59"/>
    <circle class="cls-3" cx="106.1" cy="106.1" r="1.59"/>
  </g>
</svg>