<?xml version="1.0" encoding="UTF-8"?>
<svg id="Layer_1" data-name="Layer 1" xmlns="http://www.w3.org/2000/svg" viewBox="0 0 115.16 115.16">
  <defs>
    <style>
      .cls-1 {
        fill: #000;
      }

      .cls-1, .cls-2, .cls-3, .cls-4, .cls-5 {
        stroke-width: 0px;
      }

      .cls-2 {
        fill: #653416;
      }

      .cls-3 {
        fill: #462112;
      }

      .cls-4 {
        fill: #231f20;
      }

      .cls-5 {
        fill: #ab6d32;
      }
    </style>
  </defs>
  <polygon class="cls-2" points="52.43 97.05 52.43 70.38 44.48 62.43 44.48 97.05 52.43 97.05"/>
  <polygon class="cls-2" points="42.48 97.05 42.48 60.43 34.52 52.47 34.52 97.05 42.48 97.05"/>
  <polygon class="cls-2" points="22.57 40.52 18.1 36.05 18.1 97.05 22.57 97.05 22.57 40.52"/>
  <polygon class="cls-2" points="36.05 18.1 42.48 24.53 42.48 18.1 36.05 18.1"/>
  <polygon class="cls-2" points="72.34 97.05 72.34 90.29 64.38 82.34 64.38 97.05 72.34 97.05"/>
  <polygon class="cls-2" points="79.1 97.05 74.34 92.29 74.34 97.05 79.1 97.05"/>
  <polygon class="cls-2" points="44.48 18.1 44.48 26.53 52.43 34.48 52.43 18.1 44.48 18.1"/>
  <polygon class="cls-2" points="62.38 97.05 62.38 80.34 54.43 72.38 54.43 97.05 62.38 97.05"/>
  <polygon class="cls-2" points="32.52 97.05 32.52 50.47 24.57 42.52 24.57 97.05 32.52 97.05"/>
  <polygon class="cls-2" points="64.38 18.1 64.38 46.43 72.34 54.39 72.34 18.1 64.38 18.1"/>
  <polygon class="cls-2" points="74.34 18.1 74.34 56.39 82.29 64.34 82.29 18.1 74.34 18.1"/>
  <polygon class="cls-2" points="84.29 18.1 84.29 66.34 92.25 74.3 92.25 18.1 84.29 18.1"/>
  <polygon class="cls-2" points="94.25 18.1 94.25 76.3 97.05 79.1 97.05 18.1 94.25 18.1"/>
  <polygon class="cls-2" points="54.43 18.1 54.43 36.48 62.38 44.43 62.38 18.1 54.43 18.1"/>
  <polygon class="cls-3" points="92.25 18.1 92.25 74.3 94.25 76.3 94.25 18.1 92.25 18.1"/>
  <polygon class="cls-3" points="82.29 18.1 82.29 64.34 84.29 66.34 84.29 18.1 82.29 18.1"/>
  <polygon class="cls-3" points="72.34 18.1 72.34 54.39 74.34 56.39 74.34 18.1 72.34 18.1"/>
  <polygon class="cls-3" points="74.34 97.05 74.34 92.29 72.34 90.29 72.34 97.05 74.34 97.05"/>
  <polygon class="cls-3" points="64.38 97.05 64.38 82.34 62.38 80.34 62.38 97.05 64.38 97.05"/>
  <polygon class="cls-3" points="62.38 18.1 62.38 44.43 64.38 46.43 64.38 18.1 62.38 18.1"/>
  <polygon class="cls-3" points="52.43 18.1 52.43 34.48 54.43 36.48 54.43 18.1 52.43 18.1"/>
  <polygon class="cls-3" points="54.43 97.05 54.43 72.38 52.43 70.38 52.43 97.05 54.43 97.05"/>
  <polygon class="cls-3" points="44.48 97.05 44.48 62.43 42.48 60.43 42.48 97.05 44.48 97.05"/>
  <polygon class="cls-3" points="42.48 18.1 42.48 24.53 44.48 26.53 44.48 18.1 42.48 18.1"/>
  <polygon class="cls-3" points="34.52 97.05 34.52 52.47 32.52 50.47 32.52 97.05 34.52 97.05"/>
  <polygon class="cls-3" points="24.57 97.05 24.57 42.52 22.57 40.52 22.57 97.05 24.57 97.05"/>
  <polygon class="cls-5" points="97.05 97.05 97.05 84.76 30.4 18.1 18.1 18.1 18.1 30.4 84.76 97.05 97.05 97.05"/>
  <rect class="cls-5" x="18.1" y="4" width="78.95" height="10.1"/>
  <rect class="cls-5" x="18.1" y="101.05" width="78.95" height="10.1"/>
  <path class="cls-5" d="M14.1,4H4v107.16h10.1V4ZM9.05,7.46c.88,0,1.59.71,1.59,1.59s-.71,1.59-1.59,1.59-1.59-.71-1.59-1.59.71-1.59,1.59-1.59ZM9.05,107.69c-.88,0-1.59-.71-1.59-1.59s.71-1.59,1.59-1.59,1.59.71,1.59,1.59-.71,1.59-1.59,1.59Z"/>
  <path class="cls-5" d="M111.16,4h-10.1v107.16h10.1V4ZM106.1,7.46c.88,0,1.59.71,1.59,1.59s-.71,1.59-1.59,1.59-1.59-.71-1.59-1.59.71-1.59,1.59-1.59ZM106.1,107.69c-.88,0-1.59-.71-1.59-1.59s.71-1.59,1.59-1.59,1.59.71,1.59,1.59-.71,1.59-1.59,1.59Z"/>
  <path class="cls-1" d="M113.16,0H0v115.16h115.16V0h-2ZM111.16,98.86v12.29h-10.1V4h10.1v94.86ZM18.1,111.16v-10.1h78.95v10.1H18.1ZM97.05,4v10.1H18.1V4h78.95ZM4,101.05V4h10.1v107.16H4v-10.1ZM18.1,36.05l4.47,4.47,2,2,7.95,7.95,2,2,7.95,7.95,2,2,7.95,7.95,2,2,7.95,7.95,2,2,7.95,7.95,2,2,4.76,4.76H18.1v-61ZM18.1,30.4v-12.29h12.29l66.66,66.66v12.29h-12.29L18.1,30.4ZM94.25,76.3l-2-2-7.95-7.95-2-2-7.95-7.95-2-2-7.95-7.95-2-2-7.95-7.95-2-2-7.95-7.95-2-2-6.42-6.42h61v61l-2.81-2.81Z"/>
  <path class="cls-4" d="M106.1,10.64c.88,0,1.59-.71,1.59-1.59s-.71-1.59-1.59-1.59-1.59.71-1.59,1.59.71,1.59,1.59,1.59Z"/>
  <path class="cls-4" d="M106.1,104.52c-.88,0-1.59.71-1.59,1.59s.71,1.59,1.59,1.59,1.59-.71,1.59-1.59-.71-1.59-1.59-1.59Z"/>
  <path class="cls-4" d="M9.05,10.64c.88,0,1.59-.71,1.59-1.59s-.71-1.59-1.59-1.59-1.59.71-1.59,1.59.71,1.59,1.59,1.59Z"/>
  <path class="cls-4" d="M9.05,104.52c-.88,0-1.59.71-1.59,1.59s.71,1.59,1.59,1.59,1.59-.71,1.59-1.59-.71-1.59-1.59-1.59Z"/>
</svg>