<?xml version="1.0" encoding="UTF-8"?>
<svg id="Layer_1" data-name="Layer 1" xmlns="http://www.w3.org/2000/svg" viewBox="0 0 146.59 81.04">
  <defs>
    <style>
      .cls-1 {
        fill: #000;
      }

      .cls-1, .cls-2, .cls-3, .cls-4, .cls-5, .cls-6 {
        stroke-width: 0px;
      }

      .cls-2 {
        fill: #563910;
      }

      .cls-3 {
        fill: #845217;
      }

      .cls-4 {
        fill: #42b66a;
      }

      .cls-5 {
        fill: #a75826;
      }

      .cls-6 {
        fill: #129f4a;
      }
    </style>
  </defs>
  <path class="cls-2" d="M27.23,5.75v-.75c0-.55-.45-1-1-1h-11.15c-.55,0-1,.45-1,1v.75h13.15Z"/>
  <path class="cls-2" d="M132.51,5.75v-.75c0-.55-.45-1-1-1h-11.15c-.55,0-1,.45-1,1v.75h13.15Z"/>
  <path class="cls-3" d="M137.03,53.52h-64.89l-4.84,2.27c-.27,1.28-.68,2.51-1.24,3.69l1.98,2.71c.86,1.17.76,2.78-.23,3.83-.58.62-1.38.94-2.19.94-.56,0-1.12-.16-1.62-.48l-2.14-1.38c-1.25,1.11-2.66,2.04-4.17,2.74l-.21,3.96c-.08,1.43-1.15,2.61-2.57,2.81-.14.02-.29.03-.43.03-1.26,0-2.4-.79-2.83-2.01l-1.12-3.19h-.12c-.87,0-1.73-.06-2.59-.19l-.51.96c-.53.99-1.56,1.59-2.65,1.59-.27,0-.53-.04-.8-.11-1.35-.37-2.27-1.63-2.2-3.04l.07-1.54c-.32-.19-.64-.38-.95-.59l-7.73,6.32c-.55.45-1.23.68-1.9.68-.73,0-1.45-.26-2.02-.78-1.1-1-1.3-2.66-.47-3.89l6.17-9.18c-.93-1.93-1.49-4.02-1.65-6.15H4v20.52c0,.52.15,1.01.38,1.44h137.83c.24-.43.38-.91.38-1.44v-20.52h-5.56Z"/>
  <path class="cls-2" d="M115.5,31.56h-60.35l-.1,4c1.05.29,2.07.68,3.05,1.17l5.95-2.84c.42-.2.86-.29,1.29-.29.97,0,1.92.47,2.49,1.33.83,1.23.63,2.89-.47,3.89l-3.21,2.92c.64.84,1.2,1.73,1.67,2.67l9.76,1.41c1.31.19,2.34,1.22,2.54,2.53.19,1.31-.49,2.59-1.69,3.16l-4.29,2.01h70.45v-21.96h-27.09Z"/>
  <path class="cls-2" d="M115.5,75.48H4.38c.51.93,1.49,1.56,2.62,1.56h132.59c1.13,0,2.11-.64,2.62-1.56h-26.71Z"/>
  <polygon class="cls-3" points="52.14 31.56 52.26 26.63 52.14 31.56 52.14 31.56"/>
  <path class="cls-2" d="M53.54,38.28s.09.02.14.03c-.05-.01-.09-.02-.14-.03Z"/>
  <path class="cls-2" d="M55.04,38.71c.06.02.13.04.19.07-.06-.02-.13-.04-.19-.07Z"/>
  <polygon class="cls-2" points="51.99 38.02 51.99 38.02 52.14 31.56 52.14 31.56 51.99 38.02"/>
  <path class="cls-2" d="M56.5,39.3c.05.03.11.05.16.07-.05-.03-.11-.05-.16-.07Z"/>
  <polygon class="cls-2" points="59.9 41.55 65.33 36.6 59.9 41.55 59.9 41.55"/>
  <path class="cls-3" d="M64.33,55.3s-.02.09-.03.14c.01-.05.02-.09.03-.14Z"/>
  <polygon class="cls-3" points="54.49 71.66 54.8 65.78 54.8 65.78 54.8 65.78 54.49 71.66"/>
  <polygon class="cls-3" points="65.63 63.97 65.63 63.97 62.52 59.73 62.52 59.73 62.52 59.73 65.63 63.97"/>
  <polygon class="cls-3" points="52.6 66.28 52.6 66.28 52.6 66.28 52.6 66.28"/>
  <path class="cls-3" d="M55.95,65.34c-.24.1-.49.2-.74.29.25-.09.5-.18.74-.29Z"/>
  <path class="cls-3" d="M63.91,56.8c-.02.06-.04.12-.06.18.02-.06.04-.12.06-.18Z"/>
  <path class="cls-3" d="M59.4,63.27c-.14.11-.28.22-.42.33.14-.11.29-.22.42-.33Z"/>
  <path class="cls-3" d="M57.07,64.81c-.2.11-.41.21-.62.31.21-.1.41-.2.62-.31Z"/>
  <path class="cls-3" d="M58.46,63.98c-.29.2-.59.39-.9.57.31-.18.61-.37.9-.57Z"/>
  <path class="cls-3" d="M63.32,58.27s-.04.1-.07.14c.02-.05.04-.1.07-.14Z"/>
  <path class="cls-3" d="M60.26,62.51c-.11.11-.22.21-.33.31.11-.1.22-.21.33-.31Z"/>
  <polygon class="cls-3" points="64.59 53.75 64.59 53.76 64.59 53.75 64.59 53.75"/>
  <rect class="cls-3" x="46.51" y="29.7" width="0" height="1.88" transform="translate(-5.56 10.87) rotate(-12.59)"/>
  <path class="cls-2" d="M36.15,52.42c0,.37.03.74.06,1.1h.01c-.03-.36-.07-.73-.07-1.1Z"/>
  <rect class="cls-2" x="36.3" y="38.09" width="0" height="7.12" transform="translate(-15.13 61.85) rotate(-70.36)"/>
  <polygon class="cls-2" points="36.08 43.2 38.12 44.98 38.12 44.99 38.12 44.98 36.08 43.2"/>
  <polygon class="cls-2" points="35.16 45.44 21.97 46.55 21.97 46.55 35.16 45.44"/>
  <polygon class="cls-2" points="44.71 38.64 44.27 39.33 44.27 39.33 44.71 38.64"/>
  <path class="cls-2" d="M42.96,40.04s.02-.01.03-.02c-.01,0-.02.01-.03.02Z"/>
  <polygon class="cls-2" points="30.47 49.19 36.2 50.97 36.2 50.97 30.47 49.19"/>
  <rect class="cls-2" x="47.03" y="31.53" width="0" height="2.94" transform="translate(-3.52 60.31) rotate(-63.43)"/>
  <path class="cls-2" d="M40.66,41.81s.01-.01.02-.02c0,0-.01.01-.02.02Z"/>
  <path class="cls-2" d="M41.76,40.87s.02-.02.03-.03c-.01,0-.02.02-.03.03Z"/>
  <path class="cls-3" d="M50.65,66.46c.38,0,.75-.04,1.12-.07-.37.03-.74.07-1.12.07Z"/>
  <polygon class="cls-3" points="44.68 68.81 46.26 65.84 46.26 65.84 46.26 65.84 44.68 68.81"/>
  <polygon class="cls-3" points="44.84 65.32 44.84 65.32 44.68 68.81 44.84 65.32 44.84 65.32"/>
  <path class="cls-3" d="M36.21,53.52c0,.06.02.12.02.18,0-.06,0-.12-.01-.18h-.01Z"/>
  <polygon class="cls-3" points="38.38 59.83 31.18 70.53 38.38 59.83 38.38 59.83"/>
  <path class="cls-3" d="M50.42,66.47c.08,0,.15,0,.23,0-.46,0-.92-.01-1.38-.05.38.03.76.05,1.15.05Z"/>
  <path class="cls-3" d="M36.43,54.99c-.06-.29-.11-.59-.15-.89.04.3.09.6.15.89Z"/>
  <path class="cls-3" d="M37.16,57.43c-.04-.11-.09-.23-.13-.34.04.11.09.23.13.34Z"/>
  <path class="cls-3" d="M47.49,66.15c-.23-.05-.45-.1-.67-.16.22.06.45.11.67.16Z"/>
  <path class="cls-3" d="M36.79,56.41c-.1-.33-.2-.67-.28-1.01.08.34.17.68.28,1.01Z"/>
  <path class="cls-3" d="M48.9,66.37c-.29-.03-.58-.07-.87-.12.29.05.58.09.87.12Z"/>
  <path class="cls-3" d="M29.37,31.56h13.76l.18-2.09c.12-1.48,1.31-2.64,2.79-2.74.07,0,.14,0,.21,0,.72,0,1.39.26,1.91.69l1.5-2.39c.56-.89,1.53-1.4,2.54-1.4.29,0,.58.04.87.13,1.29.39,2.17,1.59,2.13,2.94l-.12,4.87h87.45v-10.32H4v10.32h25.37Z"/>
  <path class="cls-2" d="M29.37,53.52h3.84c0-.12-.03-.23-.04-.35l-12.1-3.76c-1.37-.43-2.25-1.76-2.09-3.19s1.3-2.54,2.73-2.66l9.32-.79-.07-.06c-1.08-.95-1.34-2.53-.61-3.78.55-.94,1.55-1.48,2.59-1.48.34,0,.68.06,1.01.17l4.9,1.75c1.01-.91,2.11-1.7,3.31-2.35l.59-.93.38-4.54H4v21.96h25.37Z"/>
  <rect class="cls-3" x="4" y="9.75" width="138.59" height="7.5" rx="3" ry="3"/>
  <path class="cls-1" d="M139.59,5.75h-3.08v-.75c0-2.76-2.24-5-5-5h-11.15c-2.76,0-5,2.24-5,5v.75H31.23v-.75c0-2.76-2.24-5-5-5h-11.15c-2.76,0-5,2.24-5,5v.75h-3.08c-3.86,0-7,3.14-7,7v1.5c0,1.51.49,2.91,1.31,4.06-.8.73-1.31,1.77-1.31,2.94v52.8c0,3.86,3.14,7,7,7h132.59c3.86,0,7-3.14,7-7V21.24c0-1.17-.51-2.21-1.31-2.94.82-1.15,1.31-2.55,1.31-4.06v-1.5c0-3.86-3.14-7-7-7ZM142.21,75.48c-.51.93-1.49,1.56-2.62,1.56H7c-1.13,0-2.11-.64-2.62-1.56-.24-.43-.38-.91-.38-1.44V21.24h138.59v52.8c0,.52-.15,1.01-.38,1.44ZM15.08,4h11.15c.55,0,1,.45,1,1v.75h-13.15v-.75c0-.55.45-1,1-1ZM120.36,4h11.15c.55,0,1,.45,1,1v.75h-13.15v-.75c0-.55.45-1,1-1ZM142.59,14.24c0,1.65-1.35,3-3,3H7c-1.65,0-3-1.35-3-3v-1.5c0-1.65,1.35-3,3-3h132.59c1.65,0,3,1.35,3,3v1.5Z"/>
  <path class="cls-5" d="M51.87,43.03l6.12-2.92c-.43-.27-.87-.51-1.32-.73-.05-.03-.11-.05-.16-.07-.41-.2-.84-.37-1.27-.53-.06-.02-.13-.04-.19-.07-.44-.15-.9-.28-1.36-.39-.05-.01-.09-.02-.14-.03-.51-.11-1.03-.2-1.55-.26h0s0,0,0,0l-.12,5.01Z"/>
  <path class="cls-5" d="M55.13,45.89l8.62,1.25c-.82-2.17-2.15-4.08-3.85-5.59h0s0,0,0,0l-4.77,4.34Z"/>
  <path class="cls-5" d="M49.99,58.87l-3.73,6.98s0,0,0,0c.18.06.37.1.55.15.22.06.45.11.67.16.18.04.36.07.54.1.29.05.58.09.87.12.12.01.24.03.37.04.45.04.91.05,1.38.05.38,0,.75-.04,1.12-.07.28-.03.56-.06.83-.11,0,0,0,0,0,0l-2.6-7.41Z"/>
  <path class="cls-5" d="M59.79,56.01l2.73,3.73s0,0,0,0c.27-.43.51-.87.73-1.32.02-.05.04-.1.07-.14.2-.42.37-.84.53-1.28.02-.06.04-.12.06-.18.15-.44.28-.9.39-1.36.01-.05.02-.09.03-.14.11-.51.2-1.02.26-1.55,0,0,0,0,0,0l-4.8,2.25Z"/>
  <path class="cls-5" d="M55.21,58.16l-.41,7.62s0,0,0,0c.14-.04.27-.1.41-.15.25-.09.5-.18.74-.29.17-.07.34-.15.5-.22.21-.1.41-.2.62-.31.16-.09.33-.17.49-.26.31-.18.61-.37.9-.57.18-.12.34-.25.52-.38.14-.11.29-.22.42-.33.18-.15.35-.29.53-.45.11-.1.22-.21.33-.31.41-.39.8-.81,1.17-1.24l-5.41-3.48-.81.38Z"/>
  <path class="cls-5" d="M38.12,44.98s0,0,0,0c-.04.07-.08.14-.12.21l.34-.03-.21-.19Z"/>
  <path class="cls-5" d="M41.62,43.55l2.65-4.22s0,0,0,0h0c-.44.21-.87.44-1.28.7-.01,0-.02.01-.03.02-.4.25-.79.52-1.17.8-.01,0-.02.02-.03.03-.38.29-.74.6-1.08.92,0,0-.01.01-.02.02-.35.33-.69.68-1,1.04h0l1.96.7Z"/>
  <path class="cls-5" d="M45.14,59.11l-4.37,3.58c1.19,1.1,2.56,1.99,4.07,2.63,0,0,0,0,0,0l.3-6.21Z"/>
  <path class="cls-5" d="M42.92,53.07l-6.72-2.09h0c-.04.48-.06.96-.05,1.45,0,.37.04.73.07,1.1,0,.06,0,.12.01.18.01.13.03.27.05.4.04.3.09.6.15.89.03.13.05.27.08.4.08.34.18.68.28,1.01.07.23.15.46.23.68.04.11.09.23.13.34.33.84.74,1.64,1.22,2.39h0s4.54-6.76,4.54-6.76Z"/>
  <path class="cls-1" d="M76.43,51.51c1.2-.56,1.89-1.85,1.69-3.16-.19-1.31-1.23-2.34-2.54-2.53l-9.76-1.41c-.48-.94-1.04-1.83-1.67-2.67l3.21-2.92c1.1-1,1.3-2.66.47-3.89-.57-.85-1.52-1.33-2.49-1.33-.44,0-.88.09-1.29.29l-5.95,2.84c-.98-.49-2-.88-3.05-1.17l.1-4,.12-4.87c.03-1.35-.84-2.55-2.13-2.94-.29-.09-.58-.13-.87-.13-1.01,0-1.98.51-2.54,1.4l-1.5,2.39c-.53-.44-1.2-.69-1.91-.69-.07,0-.14,0-.21,0-1.48.1-2.66,1.27-2.79,2.74l-.18,2.09-.38,4.54-.59.93c-1.2.65-2.3,1.43-3.31,2.35l-4.9-1.75c-.33-.12-.67-.17-1.01-.17-1.04,0-2.04.54-2.59,1.48-.73,1.24-.47,2.83.61,3.78l.07.06-9.32.79c-1.43.12-2.57,1.24-2.73,2.66s.72,2.76,2.09,3.19l12.1,3.76c0,.12.03.23.04.35.17,2.13.72,4.22,1.65,6.15l-6.17,9.18c-.83,1.23-.63,2.89.47,3.89.57.52,1.29.78,2.02.78.67,0,1.35-.22,1.9-.68l7.73-6.32c.31.21.62.41.95.59l-.07,1.54c-.07,1.4.85,2.66,2.2,3.04.27.07.53.11.8.11,1.09,0,2.11-.59,2.65-1.59l.51-.96c.86.13,1.72.2,2.59.2h.12s1.12,3.19,1.12,3.19c.43,1.21,1.57,2.01,2.83,2.01.14,0,.28-.01.43-.03,1.42-.2,2.49-1.38,2.57-2.81l.21-3.96c1.52-.71,2.92-1.63,4.17-2.74l2.14,1.38c.5.32,1.06.48,1.62.48.8,0,1.6-.32,2.19-.94.99-1.05,1.09-2.66.23-3.83l-1.98-2.71c.55-1.18.97-2.42,1.24-3.69l4.84-2.27,4.29-2.01ZM64.33,55.3s-.02.09-.03.14c-.11.46-.24.91-.39,1.36-.02.06-.04.12-.06.18-.16.44-.33.87-.53,1.28-.02.05-.04.1-.07.14-.22.45-.46.9-.73,1.32,0,0,0,0,0,0l3.11,4.24h0s0,0,0,0l-4.2-2.71c-.36.44-.76.85-1.17,1.24-.11.11-.22.21-.33.31-.17.15-.35.3-.53.45-.14.11-.28.22-.42.33-.17.13-.34.26-.52.38-.29.2-.59.39-.9.57-.16.09-.32.18-.49.26-.2.11-.41.21-.62.31-.17.08-.33.15-.5.22-.24.1-.49.2-.74.29-.14.05-.27.1-.41.15,0,0,0,0,0,0l-.31,5.88-1.89-5.38s0,0,0,0c-.27.04-.55.08-.83.11-.37.04-.74.07-1.12.07-.08,0-.15,0-.23,0-.39,0-.77-.02-1.15-.05-.12-.01-.25-.03-.37-.04-.29-.03-.58-.07-.87-.12-.18-.03-.36-.07-.54-.1-.23-.05-.45-.1-.67-.16-.18-.05-.37-.09-.55-.15h0l-1.59,2.97.17-3.49s0,0,0,0c-1.51-.64-2.88-1.54-4.07-2.63l-9.59,7.84,7.2-10.7h0c-.48-.75-.89-1.56-1.22-2.39-.04-.11-.09-.23-.13-.34-.08-.22-.16-.45-.23-.68-.1-.33-.2-.67-.28-1.01-.03-.13-.05-.27-.08-.4-.06-.29-.11-.59-.15-.89-.02-.13-.03-.27-.05-.4,0-.06-.02-.12-.02-.18-.03-.36-.06-.73-.06-1.1,0-.49,0-.97.05-1.45h0l-5.73-1.78-8.5-2.64h0,0s13.19-1.11,13.19-1.11l2.84-.24c.04-.07.08-.14.12-.21,0,0,0,0,0,0l-2.04-1.78-3.13-2.74h0s0,0,0,0l6.7,2.39h0c.32-.36.65-.71,1-1.04,0,0,.01-.01.02-.02.35-.32.71-.63,1.08-.92.01,0,.02-.02.03-.03.38-.29.77-.55,1.17-.8.01,0,.02-.01.03-.02.41-.25.84-.48,1.28-.7h0l.43-.69.98-1.56.62-7.35h0s0,0,0,0l.41,1.84.64,2.87,4.91-7.8-.12,4.94-.15,6.46h0c.53.06,1.04.15,1.55.26.05.01.09.02.14.03.46.11.92.24,1.36.39.06.02.13.04.19.07.43.16.86.33,1.27.53.05.03.11.05.16.07.46.22.9.46,1.32.73l7.35-3.51-5.44,4.95h0c1.7,1.51,3.03,3.42,3.85,5.59l11.4,1.65-10.56,4.96s0,0,0,0c-.06.52-.15,1.04-.26,1.55Z"/>
  <polygon class="cls-6" points="49.52 44.15 51.87 43.03 51.99 38.02 52.14 31.56 52.26 26.63 47.35 34.43 47.35 34.43 49.52 44.15"/>
  <polygon class="cls-6" points="53.48 47.4 59.79 56.01 64.59 53.75 64.59 53.75 75.15 48.79 63.75 47.14 55.13 45.89 53.48 47.4"/>
  <polygon class="cls-6" points="55.21 58.16 56.02 57.78 51.97 55.18 49.99 58.87 52.6 66.28 52.6 66.28 54.49 71.66 54.8 65.78 55.21 58.16"/>
  <polygon class="cls-6" points="41.62 43.55 45.04 44.77 45.69 37.08 44.71 38.64 44.27 39.33 41.62 43.55"/>
  <polygon class="cls-6" points="45.51 51.45 38.33 45.17 38 45.2 35.16 45.44 21.97 46.55 21.97 46.55 30.47 49.19 36.2 50.97 42.92 53.07 38.38 59.83 31.18 70.53 40.77 62.69 45.14 59.11 45.51 51.45"/>
  <polygon class="cls-4" points="59.79 56.01 53.48 47.4 55.13 45.89 59.9 41.55 65.33 36.6 57.99 40.11 51.87 43.03 49.52 44.15 47.35 34.43 46.71 31.56 46.3 29.73 46.3 29.73 45.69 37.08 45.04 44.77 41.62 43.55 39.66 42.85 32.95 40.46 32.95 40.46 36.08 43.2 38.12 44.98 38.33 45.17 45.51 51.45 45.14 59.11 44.84 65.32 44.68 68.81 46.26 65.84 49.99 58.87 51.97 55.18 56.02 57.78 61.43 61.26 65.63 63.97 65.63 63.97 62.52 59.73 59.79 56.01"/>
</svg>