<?xml version="1.0" encoding="UTF-8"?>
<svg width="89.64" height="92.99" id="Layer_2" data-name="Layer 2" xmlns="http://www.w3.org/2000/svg" viewBox="0 0 89.64 92.99">
  <defs>
    <style>
      .cls-1 {
        fill: #a86930;
      }

      .cls-1, .cls-2, .cls-3 {
        stroke-width: 0px;
      }

      .cls-2 {
        fill: #000;
      }

      .cls-4 {
        opacity: .5;
      }

      .cls-3 {
        fill: #835322;
      }
    </style>
  </defs>
  <g>
    <path class="cls-3" d="M35.6,90.99c-.5,0-.99-.19-1.36-.53-.41-.38-.64-.91-.64-1.47v-2.98c-4.96-1.2-9.7-3.34-13.89-6.26l-2.25,2.25c-.38.38-.88.59-1.41.59-.03,0-.06,0-.09,0-.56-.03-1.09-.29-1.45-.72l-6.74-8.15c-.66-.8-.6-1.96.13-2.69l1.55-1.55C-.63,55.09-.46,35.91,9.85,21.7l-.22-.22c-.38-.38-.59-.88-.59-1.41s.21-1.04.59-1.41l13.24-13.24c.38-.38.88-.59,1.41-.59h0c.53,0,1.04.21,1.41.59l2.18,2.18c4.91-1.98,10.1-2.98,15.43-2.98,1.3,0,2.62.06,3.92.19l.29-1.25c.22-.92,1.04-1.54,1.95-1.54.14,0,.28.01.42.05l18.3,3.95c.52.11.98.43,1.26.88.29.45.38,1,.27,1.52l-1.1,4.9c1.36,1.06,2.66,2.2,3.87,3.41,6.22,6.22,10.19,14.02,11.56,22.65h1.59c1.1,0,2,.9,2,2v10.53c0,1.1-.9,2-2,2h-1.84c-1.58,8.06-5.46,15.36-11.31,21.2-4.54,4.54-10.11,7.98-16.17,9.99v2.51c0,1.05-.81,1.92-1.85,1.99l-18.72,1.41c-.05,0-.1,0-.15,0Z"/>
    <path class="cls-2" d="M49.48,4l18.3,3.95-1.38,6.16c1.64,1.19,3.21,2.53,4.69,4,6.51,6.51,10.25,14.74,11.23,23.23h3.33v10.53h-3.52c-1.22,7.98-4.9,15.65-11.04,21.79-4.84,4.84-10.62,8.15-16.76,9.93v3.98l-18.72,1.41v-4.59s0,0,0,0c-5.72-1.14-11.24-3.57-16.09-7.27l-3.46,3.46-6.74-8.15,2.76-2.76c-10.85-14.21-10.7-34.12.44-48.17l-1.45-1.45,13.24-13.24,3.13,3.13c5.05-2.23,10.47-3.35,15.89-3.35,1.82,0,3.65.13,5.46.38l.7-2.99M49.47,0c-1.68,0-3.21,1.06-3.77,2.68-.8-.04-1.59-.07-2.38-.07-5.14,0-10.16.89-14.94,2.65l-1.26-1.26c-.75-.75-1.77-1.17-2.83-1.17s-2.08.42-2.83,1.17l-13.24,13.24c-.75.75-1.17,1.77-1.17,2.83,0,.57.12,1.13.35,1.64-9.67,14.31-9.88,33-.55,47.52l-.38.38c-1.46,1.46-1.57,3.79-.25,5.38l6.74,8.15c.72.87,1.77,1.39,2.89,1.45.06,0,.13,0,.19,0,1.06,0,2.08-.42,2.83-1.17l1.09-1.09c3.59,2.3,7.53,4.07,11.63,5.23v1.44c0,1.11.46,2.18,1.28,2.93.74.69,1.71,1.07,2.72,1.07.1,0,.2,0,.3-.01l18.72-1.41c2.09-.16,3.7-1.9,3.7-3.99v-1.09c5.83-2.16,11.17-5.57,15.59-9.99,5.74-5.74,9.67-12.81,11.51-20.62h.23c2.21,0,4-1.79,4-4v-10.53c0-2.18-1.75-3.95-3.92-4-1.66-8.38-5.71-15.95-11.82-22.06-.97-.97-1.99-1.9-3.05-2.78l.83-3.68c.23-1.04.04-2.13-.53-3.03-.57-.9-1.48-1.53-2.53-1.76L50.32.09c-.28-.06-.57-.09-.85-.09h0Z"/>
  </g>
  <circle class="cls-1" cx="43.3" cy="45.89" r="30.24"/>
  <g class="cls-4">
    <path class="cls-2" d="M75.51,30.05c-2.98,3.68-7.23,5.56-11.65,6.8-4.22,1.54-8.49,2.95-12.8,4.25,0,0-.16-.36-.16-.36,4.75-3.03,9.73-5.63,14.55-8.53,3.01-1.72,6.4-2.57,9.9-2.52,0,0,.16.36.16.36h0Z"/>
  </g>
  <g class="cls-4">
    <path class="cls-2" d="M6.75,44.06c3.95-1.49,7.6-.84,11.34.51,3.66.96,7.28,2.06,10.88,3.27,0,0-.07.39-.07.39-3.79-.05-7.57-.21-11.34-.51-1.88-.15-3.82.06-5.62-.55-1.81-.57-3.59-1.31-5.25-2.72l.07-.39h0Z"/>
  </g>
  <g class="cls-4">
    <path class="cls-2" d="M42.89,82.98c-1.98-3.59-1.79-7.17-.93-10.92.49-3.62,1.12-7.22,1.87-10.8,0,0,.4.02.4.02.43,3.63.75,7.27.93,10.92.09,1.82.54,3.65.16,5.45-.34,1.8-.85,3.59-2.03,5.35l-.4-.02h0Z"/>
  </g>
  <g class="cls-4">
    <path class="cls-2" d="M23.6,17.76c1.43.13,2.53.64,3.59,1.43.97.67,1.3,1.88,1.91,2.86,1.23,1.97,2.36,4,3.37,6.11,0,0-.3.26-.3.26-1.92-1.33-3.75-2.76-5.5-4.29-.87-.76-2.01-1.28-2.52-2.34-.61-1.16-.94-2.33-.85-3.77,0,0,.3-.26.3-.26h0Z"/>
  </g>
  <g class="cls-4">
    <path class="cls-2" d="M48.71,53.68c4.7-.06,8.83,2,12.56,4.61,3.84,2.26,7.62,4.64,11.33,7.12,0,0-.18.36-.18.36-5.32-1.71-10.45-3.88-15.72-5.73-3.22-1.21-6.01-3.28-8.18-6,0,0,.18-.36.18-.36h0Z"/>
  </g>
</svg>