<?xml version="1.0" encoding="UTF-8"?>
<svg id="Layer_2" data-name="Layer 2" xmlns="http://www.w3.org/2000/svg" viewBox="0 0 78.62 78.61">
  <defs>
    <style>
      .cls-1 {
        fill: #000;
      }

      .cls-1, .cls-2, .cls-3, .cls-4 {
        stroke-width: 0px;
      }

      .cls-5 {
        opacity: .5;
      }

      .cls-2 {
        fill: #69665f;
      }

      .cls-3 {
        fill: #7f7b6f;
      }

      .cls-4 {
        fill: #231f20;
      }
    </style>
  </defs>
  <g class="cls-5">
    <polygon class="cls-4" points="16.59 78.61 0 62.02 0 16.6 16.6 0 62.02 0 78.62 16.6 78.62 62.02 62.03 78.61 16.59 78.61"/>
  </g>
  <g>
    <polygon class="cls-3" points="21.29 68.2 10.41 57.32 10.41 21.3 21.3 10.41 57.32 10.41 68.21 21.3 68.21 57.32 57.33 68.2 21.29 68.2"/>
    <path class="cls-1" d="M56.49,12.41l9.73,9.73v34.36l-9.72,9.72H22.12l-9.72-9.72V22.13l9.73-9.73h34.36M58.14,8.41H20.48l-1.17,1.17-9.73,9.73-1.17,1.17v37.67l1.17,1.17,9.72,9.72,1.17,1.17h37.69l1.17-1.17,9.72-9.72,1.17-1.17V20.48l-1.17-1.17-9.73-9.73-1.17-1.17h0Z"/>
  </g>
  <path class="cls-2" d="M23.94,54.67h0c-.57-.57-.89-1.34-.89-2.15v-26.41c0-.81.32-1.58.89-2.15h.01c.57-.58,1.35-.9,2.15-.9h26.41c.81,0,1.58.32,2.15.89h.01c.57.58.89,1.36.89,2.16v26.41c0,.81-.32,1.58-.89,2.15h0c-.57.57-1.34.89-2.15.89h-26.43c-.81,0-1.58-.32-2.15-.89Z"/>
</svg>