<?xml version="1.0" encoding="UTF-8"?>
<svg id="Layer_1" data-name="Layer 1" xmlns="http://www.w3.org/2000/svg" viewBox="0 0 118.7 108.92">
  <defs>
    <style>
      .cls-1 {
        fill: #000;
      }

      .cls-1, .cls-2, .cls-3, .cls-4 {
        stroke-width: 0px;
      }

      .cls-2 {
        fill: #676767;
      }

      .cls-3 {
        fill: #979797;
      }

      .cls-4 {
        fill: gray;
      }
    </style>
  </defs>
  <path class="cls-4" d="M102.79,24.78c-.19-.27-.4-.53-.61-.79l-26.21-1.28-45.32,27.34-1.33,15.08-17.87,19.92,6.69,8.35c1.23,1.53,2.83,2.74,4.63,3.49l17.07,7.11c1.44.6,2.95.9,4.5.9h40.82c3.59,0,6.93-1.61,9.16-4.43l15.99-20.16c1.48-1.86,2.34-4.1,2.5-6.47l1.85-27.1c.17-2.59-.53-5.2-1.99-7.35l-9.9-14.62ZM101.54,62.73c-.07,1.03-.45,2.01-1.09,2.82l-5.94,7.49c-.96,1.22-2.43,1.93-3.98,1.93h-15.16c-.67,0-1.34-.13-1.96-.39l-6.34-2.64c-.79-.33-1.48-.85-2.01-1.52l-1.33-1.66-1.08-1.35-1.89-2.36c-.84-1.05-1.23-2.39-1.09-3.73l1.14-10.52c.1-.91.44-1.77.99-2.5l2.32-3.09c.33-.44.72-.82,1.17-1.13l10-6.93c.78-.54,1.69-.85,2.63-.9l4.45-.24c.66-.03,1.32.06,1.94.28l7.04,2.44c.63.22,1.21.56,1.71,1l3.79,3.36c.32.28.6.61.84.96l.12.17,2.07,3.06,1.49,2.2c.64.94.94,2.07.86,3.2l-.69,10.07Z"/>
  <path class="cls-2" d="M30.65,50.05l45.32-27.34,26.21,1.28c-.4-.5-.84-.98-1.32-1.42l-10.2-9.04c-1.16-1.03-2.48-1.8-3.93-2.3l-18.96-6.58c-1.25-.43-2.55-.65-3.87-.65-.2,0-.4,0-.6.02l-11.97.64c-2.17.11-4.25.83-6.04,2.06l-26.93,18.65c-1.04.71-1.95,1.59-2.7,2.6l-6.24,8.32c-1.26,1.68-2.04,3.67-2.27,5.76l-3.07,28.32c-.34,3.1.55,6.15,2.5,8.58l4.89,6.11,17.87-19.92,1.33-15.08Z"/>
  <path class="cls-3" d="M99.88,47.27l-2.07-3.06-.12-.17c-.24-.35-.52-.67-.84-.96l-3.79-3.36c-.5-.44-1.08-.78-1.71-1l-7.04-2.44c-.62-.22-1.28-.31-1.94-.28l-4.45.24c-.94.05-1.85.36-2.63.9l-10,6.93c-.45.31-.85.69-1.17,1.13l-2.32,3.09c-.55.73-.89,1.59-.99,2.5l-1.14,10.52c-.15,1.34.24,2.68,1.09,3.73l1.89,2.36,1.08,1.35,1.33,1.66c.53.67,1.23,1.19,2.01,1.52l6.34,2.64c.62.26,1.29.39,1.96.39h15.16c1.55,0,3.02-.71,3.98-1.93l5.94-7.49c.64-.81,1.02-1.79,1.09-2.82l.69-10.07c.08-1.13-.23-2.26-.86-3.2l-1.49-2.2Z"/>
  <path class="cls-1" d="M116,37.16l-9.9-14.63c-.73-1.08-1.6-2.06-2.58-2.95l-10.21-9.05c-1.55-1.37-3.32-2.41-5.27-3.09L69.09.87c-1.93-.67-3.95-.96-5.99-.85l-11.97.64c-2.91.15-5.71,1.11-8.11,2.77l-26.93,18.65c-1.39.96-2.61,2.13-3.63,3.49l-6.24,8.32c-1.69,2.25-2.74,4.92-3.05,7.73L.09,69.94c-.45,4.17.74,8.25,3.35,11.51l11.58,14.46c1.64,2.05,3.79,3.67,6.22,4.69l17.07,7.11c1.93.8,3.96,1.21,6.04,1.21h40.82c4.82,0,9.3-2.17,12.29-5.94l15.99-20.16c1.98-2.5,3.14-5.5,3.36-8.68l1.85-27.11c.23-3.48-.71-6.98-2.67-9.87ZM114.68,46.76l-1.85,27.1c-.16,2.37-1.03,4.61-2.5,6.47l-15.99,20.16c-2.23,2.81-5.57,4.43-9.16,4.43h-40.82c-1.55,0-3.06-.3-4.5-.9l-17.07-7.11c-1.81-.75-3.41-1.96-4.63-3.49l-6.69-8.35-4.89-6.11c-1.95-2.43-2.83-5.47-2.5-8.58l3.07-28.32c.23-2.09,1.02-4.09,2.27-5.76l6.24-8.32c.76-1.01,1.66-1.88,2.7-2.6L45.3,6.72c1.78-1.24,3.87-1.95,6.04-2.06l11.97-.64c.2-.01.4-.02.6-.02,1.32,0,2.62.22,3.87.65l18.96,6.58c1.45.5,2.77,1.28,3.93,2.3l10.2,9.04c.49.43.92.92,1.32,1.42.21.26.42.51.61.79l9.9,14.62c1.46,2.15,2.16,4.77,1.99,7.35Z"/>
</svg>