<?xml version="1.0" encoding="UTF-8"?>
<svg id="Layer_1" data-name="Layer 1" xmlns="http://www.w3.org/2000/svg" version="1.1" viewBox="0 0 351.89 355.5">
  <defs>
    <style>
      .cls-1 {
        fill: #a86930;
      }

      .cls-1, .cls-2, .cls-3, .cls-4, .cls-5, .cls-6, .cls-7 {
        stroke-width: 0px;
      }

      .cls-2 {
        fill: #000;
      }

      .cls-3 {
        fill: #568907;
      }

      .cls-3, .cls-5, .cls-7 {
        opacity: .8;
      }

      .cls-4 {
        fill: #2a3f01;
        opacity: .9;
      }

      .cls-5 {
        fill: #457008;
      }

      .cls-6 {
        fill: #835322;
      }

      .cls-7 {
        fill: #456804;
      }
    </style>
  </defs>
  <path class="cls-3" d="M319.98,180.96c-4.17-3-8.64,1.98-13.03,2.34-4.4,1.23-10.42-1.96-13.54.6-2.59,2.46-3.96,6.28-6.89,8.51-3.18,3.24-10.12,3.45-10.69,8.33-.28,2.07-.05,4.33-.29,6.44-.22,2.51-1.04,4.92-2.32,7.09-1.2,2.23-2.99,4.09-3.34,6.4-.28,2.82,2.1,5.13,3.32,7.52,2.49,3.95,2.3,8.55,2.4,13.02.24,5.87,8.45,5.11,12.74,10.99,1.58,1.85,2.92,4.67,4.47,6.19,1.88,1.92,4.67,1.3,7.09.98,2.4-.35,4.86-.45,7.19.08,4.01.53,7.78,4.61,11.7,2.84,2.08-1.06,4.33-3.61,6.57-4.95,2.36-1.53,5.09-2.27,7.9-2.63,1.66-.26,3.38-.38,4.84-1.17,2.3-1.36,2.53-3.87,3.43-6.47,2.42-9.56,11.55-10.22,10.14-16.49-1.13-4.32-2.56-8.7-1.25-13.18.43-1.89,1.22-3.86,1.45-5.75.64-4.53-6.14-7-8.15-11.19-1.74-2.69-2.17-6.06-3.41-8.92-2.08-4.82-10-1.9-15.84-6.93-1.48-1.1-2.99-2.63-4.45-3.65h-.01Z"/>
  <path class="cls-7" d="M217.17,19.97c-14.8-10.64-30.67,7.04-46.24,8.32-15.61,4.38-36.99-6.97-48.04,2.11-9.2,8.74-14.07,22.3-24.47,30.19-11.3,11.5-35.9,12.24-37.93,29.56-.99,7.34-.19,15.35-1.02,22.84-.79,8.9-3.7,17.47-8.22,25.16-4.27,7.92-10.6,14.51-11.84,22.71-.98,10.01,7.46,18.19,11.77,26.7,8.83,14.01,8.16,30.36,8.52,46.2.85,20.84,29.99,18.12,45.19,39,5.6,6.56,10.35,16.57,15.86,21.98,6.68,6.81,16.59,4.61,25.17,3.49,8.53-1.23,17.24-1.61,25.52.29,14.22,1.89,27.63,16.35,41.51,10.07,7.37-3.76,15.35-12.8,23.31-17.55,8.37-5.41,18.07-8.04,28.03-9.35,5.9-.92,11.98-1.34,17.16-4.13,8.17-4.83,8.97-13.75,12.16-22.96,8.6-33.91,40.97-36.26,35.97-58.52-4.01-15.35-9.09-30.88-4.44-46.77,1.51-6.71,4.35-13.68,5.13-20.39,2.27-16.06-21.78-24.85-28.91-39.71-6.19-9.54-7.7-21.51-12.12-31.66-7.39-17.11-35.49-6.75-56.23-24.59-5.26-3.91-10.6-9.33-15.8-12.95l-.05-.03Z"/>
  <path class="cls-3" d="M104.33,187.2c-6.62-4.76-13.72,3.15-20.69,3.72-6.98,1.96-16.55-3.12-21.49.95-4.12,3.91-6.29,9.98-10.95,13.51-5.05,5.14-16.07,5.47-16.97,13.23-.44,3.29-.09,6.87-.46,10.22-.36,3.98-1.65,7.82-3.68,11.26-1.91,3.54-4.74,6.49-5.3,10.16-.44,4.48,3.34,8.14,5.27,11.94,3.95,6.27,3.65,13.58,3.81,20.67.38,9.33,13.42,8.11,20.22,17.45,2.5,2.94,4.63,7.41,7.1,9.84,2.99,3.05,7.42,2.06,11.26,1.56,3.82-.55,7.71-.72,11.42.13,6.36.84,12.36,7.31,18.57,4.51,3.3-1.68,6.87-5.73,10.43-7.85,3.75-2.42,8.09-3.6,12.54-4.18,2.64-.41,5.36-.6,7.68-1.85,3.66-2.16,4.01-6.15,5.44-10.28,3.85-15.17,18.33-16.23,16.1-26.19-1.79-6.87-4.07-13.82-1.99-20.93.68-3,1.94-6.12,2.3-9.12,1.02-7.19-9.74-11.12-12.94-17.77-2.77-4.27-3.45-9.63-5.42-14.16-3.31-7.66-15.88-3.02-25.16-11-2.35-1.75-4.74-4.18-7.07-5.79h-.02Z"/>
  <path class="cls-3" d="M185.98.96c-4.17-3-8.64,1.98-13.03,2.34-4.4,1.23-10.42-1.96-13.54.6-2.59,2.46-3.96,6.28-6.89,8.51-3.18,3.24-10.12,3.45-10.69,8.33-.28,2.07-.05,4.33-.29,6.44-.22,2.51-1.04,4.92-2.32,7.09-1.2,2.23-2.99,4.09-3.34,6.4-.28,2.82,2.1,5.13,3.32,7.52,2.49,3.95,2.3,8.55,2.4,13.02.24,5.87,8.45,5.11,12.74,10.99,1.58,1.85,2.92,4.67,4.47,6.19,1.88,1.92,4.67,1.3,7.09.98,2.4-.35,4.86-.45,7.19.08,4.01.53,7.78,4.61,11.7,2.84,2.08-1.06,4.33-3.61,6.57-4.95,2.36-1.53,5.09-2.27,7.9-2.63,1.66-.26,3.38-.38,4.84-1.17,2.3-1.36,2.53-3.87,3.43-6.47,2.42-9.56,11.55-10.22,10.14-16.49-1.13-4.32-2.56-8.7-1.25-13.18.43-1.89,1.22-3.86,1.45-5.75.64-4.53-6.14-7-8.15-11.19-1.74-2.69-2.17-6.06-3.41-8.92-2.08-4.82-10-1.9-15.84-6.93-1.48-1.1-2.99-2.63-4.45-3.65h-.01Z"/>
  <path class="cls-4" d="M278.64,104.07c-2.22-13.58-20.13-12.61-29.12-20.24-10.66-5.99-16.02-23.46-26.77-24.51-9.58-.24-19.41,4.39-29.17,3.06-12.16.11-25.69-12.63-36.02-4.47-4.44,3.39-8.3,8.09-12.74,11.65-5.17,4.32-11.3,7.35-17.82,9.04-6.51,1.95-13.4,2.09-18.44,5.8-5.86,4.82-5.73,13.69-7.96,20.53-2.76,12.19-11.84,20.56-20.11,29.2-10.67,11.58,6.34,25.68,3.31,44.93-.51,6.49-3.32,14.37-3.27,20.2-.07,7.2,6.39,11.32,11.57,15.29,5.2,3.9,10.06,8.34,13.46,13.78,6.58,8.6,6.02,23.47,16.78,27.53,5.94,1.92,15.02,1.36,21.81,3.08,7.36,1.58,13.94,5.35,19.95,9.97,3.64,2.65,7.11,5.68,11.37,6.95,6.94,1.78,12.13-2.55,18.75-5.77,22.69-13.51,41.22,2.51,50.43-12.03,6.05-10.33,11.63-21.33,22.59-27.33,4.39-2.77,9.62-4.98,13.62-8.14,9.78-7.36,1.64-24.88,5.77-36.63,1.79-8.4,7.37-15.59,10.43-23.36,5.19-13.08-15.34-22.54-16.88-43.13-.72-4.9-.68-10.64-1.52-15.34v-.04Z"/>
  <g>
    <path class="cls-6" d="M185.26,204.18c-8.68,0-17.2-2.77-24.19-7.83l-.22.22c-.39.39-.9.59-1.41.59s-1.02-.2-1.41-.59l-13.24-13.24c-.38-.38-.59-.88-.59-1.41s.21-1.04.59-1.41l2.18-2.18c-2.47-6.13-3.43-12.76-2.8-19.35l-1.25-.29c-1.06-.25-1.73-1.3-1.5-2.37l3.95-18.3c.11-.52.43-.98.88-1.26.32-.21.7-.31,1.08-.31.15,0,.29.02.44.05l4.9,1.1c1.06-1.36,2.2-2.66,3.41-3.86,6.22-6.22,14.02-10.19,22.65-11.56v-1.59c0-1.1.9-2,2-2h10.53c1.1,0,2,.9,2,2v1.84c8.06,1.58,15.36,5.46,21.2,11.31,4.54,4.54,7.98,10.11,9.99,16.17h2.51c1.05,0,1.92.81,1.99,1.85l1.41,18.72c.04.55-.15,1.1-.53,1.51s-.91.64-1.47.64h-2.98c-1.2,4.96-3.34,9.7-6.26,13.89l2.25,2.25c.4.4.61.95.58,1.51-.03.56-.29,1.09-.72,1.45l-8.15,6.74c-.37.31-.82.46-1.27.46-.51,0-1.03-.2-1.41-.59l-1.55-1.55c-6.87,4.79-15.18,7.4-23.6,7.4Z"/>
    <path class="cls-2" d="M191.25,120.56v3.52c7.98,1.22,15.65,4.9,21.79,11.04,4.84,4.84,8.15,10.62,9.93,16.76h3.98l1.41,18.72h-4.59s0,0,0,0c-1.14,5.72-3.57,11.24-7.27,16.09l3.46,3.46-8.15,6.74-2.76-2.76c-7.01,5.35-15.4,8.03-23.8,8.03s-17.25-2.82-24.37-8.47l-1.45,1.45-13.24-13.24,3.13-3.13c-2.98-6.75-3.98-14.16-2.97-21.35l-2.99-.7,3.95-18.3,6.16,1.38c1.19-1.64,2.53-3.21,4-4.69,6.51-6.51,14.74-10.25,23.23-11.23v-3.33h10.53M191.25,116.56h-10.53c-2.18,0-3.95,1.75-4,3.92-8.38,1.66-15.95,5.71-22.06,11.82-.97.97-1.9,1.99-2.78,3.05l-3.68-.83c-.29-.07-.58-.1-.88-.1-.76,0-1.51.22-2.15.63-.9.57-1.53,1.48-1.76,2.53l-3.95,18.3c-.43,1.99.7,3.96,2.58,4.62-.33,5.89.55,11.78,2.59,17.32l-1.26,1.26c-1.56,1.56-1.56,4.09,0,5.66l13.24,13.24c.78.78,1.8,1.17,2.83,1.17.56,0,1.13-.12,1.65-.35,7.1,4.78,15.56,7.38,24.17,7.38s16.42-2.41,23.34-6.83l.39.39c.78.78,1.8,1.17,2.83,1.17.9,0,1.8-.3,2.55-.92l8.15-6.74c.87-.72,1.39-1.77,1.45-2.89.05-1.13-.37-2.22-1.17-3.02l-1.09-1.09c2.3-3.59,4.07-7.53,5.23-11.63h1.44c1.11,0,2.18-.46,2.93-1.28.76-.82,1.14-1.91,1.06-3.02l-1.41-18.72c-.16-2.09-1.9-3.7-3.99-3.7h-1.09c-2.16-5.83-5.57-11.17-9.99-15.59-5.74-5.74-12.81-9.67-20.62-11.51v-.23c0-2.21-1.79-4-4-4h0Z"/>
  </g>
  <path class="cls-5" d="M279.37,6.79c-8.94-6.43-18.52,4.25-27.92,5.02-9.42,2.64-22.33-4.21-29,1.28-5.56,5.28-8.49,13.46-14.77,18.23-6.82,6.94-21.68,7.39-22.9,17.85-.6,4.43-.12,9.27-.62,13.79-.48,5.37-2.23,10.55-4.97,15.19-2.58,4.78-6.4,8.76-7.15,13.71-.59,6.04,4.5,10.98,7.11,16.12,5.33,8.46,4.93,18.33,5.14,27.89.51,12.58,18.11,10.94,27.29,23.54,3.38,3.96,6.25,10,9.58,13.27,4.03,4.11,10.02,2.78,15.2,2.1,5.15-.74,10.41-.97,15.41.18,8.59,1.14,16.68,9.87,25.06,6.08,4.45-2.27,9.27-7.73,14.08-10.6,5.06-3.27,10.91-4.86,16.92-5.64,3.56-.56,7.23-.81,10.36-2.5,4.93-2.92,5.42-8.3,7.34-13.87,5.19-20.47,24.74-21.9,21.72-35.33-2.42-9.26-5.49-18.64-2.68-28.24.91-4.05,2.62-8.26,3.1-12.31,1.37-9.7-13.15-15-17.46-23.98-3.73-5.76-4.65-12.99-7.31-19.11-4.46-10.33-21.43-4.07-33.95-14.85-3.18-2.36-6.4-5.63-9.54-7.82l-.03-.02Z"/>
  <path class="cls-5" d="M100.28,28.47c-8.35-6-17.29,3.97-26.07,4.69-8.8,2.47-20.86-3.93-27.09,1.19-5.19,4.93-7.93,12.57-13.8,17.02-6.37,6.48-20.24,6.9-21.39,16.67-.56,4.14-.11,8.66-.57,12.88-.45,5.02-2.08,9.85-4.64,14.19-2.41,4.47-5.98,8.18-6.68,12.81-.55,5.64,4.21,10.26,6.64,15.05,4.98,7.9,4.6,17.12,4.8,26.05.48,11.75,16.91,10.22,25.48,21.99,3.16,3.7,5.84,9.34,8.94,12.39,3.77,3.84,9.35,2.6,14.19,1.97,4.81-.69,9.72-.91,14.39.16,8.02,1.06,15.58,9.22,23.41,5.68,4.15-2.12,8.65-7.22,13.15-9.9,4.72-3.05,10.19-4.54,15.8-5.27,3.32-.52,6.76-.76,9.68-2.33,4.61-2.72,5.06-7.75,6.86-12.95,4.85-19.12,23.1-20.45,20.28-33-2.26-8.65-5.13-17.41-2.51-26.37.85-3.78,2.45-7.71,2.89-11.5,1.28-9.06-12.28-14.01-16.3-22.39-3.49-5.38-4.34-12.13-6.83-17.85-4.17-9.65-20.01-3.81-31.7-13.86-2.97-2.21-5.98-5.26-8.91-7.3l-.03-.02Z"/>
  <path class="cls-5" d="M221.08,171.21c-9.4-6.76-19.48,4.47-29.37,5.28-9.91,2.78-23.49-4.43-30.51,1.34-5.84,5.55-8.93,14.16-15.54,19.18-7.17,7.3-22.8,7.77-24.09,18.77-.63,4.66-.12,9.75-.65,14.51-.5,5.65-2.35,11.09-5.22,15.98-2.71,5.03-6.73,9.22-7.52,14.42-.62,6.35,4.74,11.55,7.48,16.95,5.61,8.9,5.18,19.28,5.41,29.34.54,13.24,19.05,11.51,28.7,24.76,3.56,4.17,6.57,10.52,10.07,13.96,4.24,4.32,10.54,2.93,15.98,2.21,5.41-.78,10.95-1.02,16.21.19,9.03,1.2,17.54,10.38,26.36,6.4,4.68-2.39,9.75-8.13,14.81-11.15,5.32-3.44,11.48-5.11,17.8-5.94,3.74-.59,7.61-.85,10.9-2.63,5.19-3.07,5.7-8.73,7.72-14.58,5.46-21.54,26.02-23.03,22.85-37.17-2.55-9.75-5.77-19.61-2.82-29.7.96-4.26,2.76-8.69,3.26-12.95,1.44-10.2-13.83-15.78-18.36-25.22-3.93-6.06-4.89-13.66-7.69-20.1-4.69-10.87-22.54-4.29-35.71-15.62-3.34-2.48-6.73-5.93-10.03-8.22l-.03-.02Z"/>
  <g>
    <path class="cls-1" d="M185.27,191.14c-7.54,0-14.63-2.94-19.97-8.27s-8.27-12.42-8.27-19.97,2.94-14.63,8.27-19.97,12.42-8.27,19.97-8.27,14.63,2.94,19.97,8.27c11.01,11.01,11.01,28.92,0,39.93-5.33,5.33-12.42,8.27-19.97,8.27Z"/>
    <path class="cls-2" d="M185.27,136.66c7.01,0,13.6,2.73,18.55,7.68,4.96,4.96,7.68,11.54,7.68,18.55s-2.73,13.6-7.68,18.55-11.54,7.68-18.55,7.68-13.6-2.73-18.55-7.68c-4.96-4.96-7.68-11.54-7.68-18.55s2.73-13.6,7.68-18.55c4.96-4.96,11.54-7.68,18.55-7.68M185.27,132.66c-7.74,0-15.48,2.95-21.38,8.86-11.81,11.81-11.81,30.95,0,42.76,5.9,5.9,13.64,8.86,21.38,8.86s15.48-2.95,21.38-8.86c11.81-11.81,11.81-30.95,0-42.76-5.9-5.9-13.64-8.86-21.38-8.86h0Z"/>
  </g>
</svg>