<?xml version="1.0" encoding="UTF-8"?>
<svg width="62.05" height="62.05" id="Layer_2" data-name="Layer 2" xmlns="http://www.w3.org/2000/svg" xmlns:xlink="http://www.w3.org/1999/xlink" viewBox="0 0 62.05 62.05">
  <defs>
    <style>
      .cls-1 {
        fill: none;
      }

      .cls-1, .cls-2, .cls-3, .cls-4 {
        stroke-width: 0px;
      }

      .cls-5 {
        fill: url(#radial-gradient);
        stroke: url(#radial-gradient-2);
        stroke-miterlimit: 10;
        stroke-width: 2px;
      }

      .cls-2 {
        fill: #323232;
      }

      .cls-3 {
        fill: #fff;
      }

      .cls-4 {
        fill: #7e7e7e;
      }
    </style>
    <radialGradient id="radial-gradient" cx="135.74" cy="-714.38" fx="135.74" fy="-714.38" r="30.02" gradientTransform="translate(-104.72 745.4)" gradientUnits="userSpaceOnUse">
      <stop offset="0" stop-color="#b3b2b3" stop-opacity=".5"/>
      <stop offset="1" stop-color="#333" stop-opacity=".5"/>
    </radialGradient>
    <radialGradient id="radial-gradient-2" cx="-185.02" cy="845.15" fx="-185.02" fy="845.15" r="31.02" gradientTransform="translate(759.47 -435.76) rotate(45)" gradientUnits="userSpaceOnUse">
      <stop offset="0" stop-color="#000" stop-opacity=".25"/>
      <stop offset="1" stop-color="#000" stop-opacity=".25"/>
    </radialGradient>
  </defs>
  <circle class="cls-5" cx="31.02" cy="31.02" r="30.02"/>
  <g>
    <path class="cls-1" d="M23.3,12.34s0,0-.01,0c0,0,.02-.01.03-.02,0,0-.01,0-.02,0Z"/>
    <path class="cls-1" d="M33.14,10.23h0c.29,0,.57.02.85.07-.28-.05-.57-.07-.85-.07Z"/>
    <path class="cls-1" d="M23.53,12.2s-.05.03-.07.04c.03-.02.05-.03.08-.05,0,0,0,0,0,0Z"/>
    <path class="cls-1" d="M23.72,12.1s.05-.02.07-.04c-.02.01-.05.02-.07.04Z"/>
    <path class="cls-1" d="M28.28,10.28c.23-.03.46-.05.69-.05-.23,0-.47.02-.69.05Z"/>
    <path class="cls-1" d="M23.62,12.15s-.05.03-.07.04c.04-.02.07-.04.11-.06-.01,0-.02.01-.04.02Z"/>
    <path class="cls-1" d="M28.89,27.28h0s.02.02.03.02c-.01,0-.02-.01-.03-.02Z"/>
    <path class="cls-1" d="M29.15,25.82c-.01.46.05.93-.03,1.38.08-.45.02-.92.03-1.38Z"/>
    <path class="cls-1" d="M23.03,12.53s0,0-.01,0c.03-.02.07-.05.1-.07-.03.02-.06.04-.09.06Z"/>
    <path class="cls-1" d="M23.21,12.4s-.06.04-.09.06c0,0,0,0,0,0,.04-.03.08-.05.11-.08,0,0-.02.01-.03.02Z"/>
    <path class="cls-1" d="M22.9,12.63s0,0,0,0c0,0,0,0,0,0Z"/>
    <path class="cls-1" d="M32.97,26.8c0-.27,0-.54,0-.81.01.35-.01.72,0,1.07-.01-.08,0-.16,0-.26Z"/>
    <path class="cls-1" d="M38.65,12.24s-.03-.02-.05-.03c.03.02.06.04.09.05-.02,0-.03-.02-.05-.03Z"/>
    <path class="cls-1" d="M34.22,10.34s.04,0,.06.01c-.02,0-.04,0-.06-.01Z"/>
    <path class="cls-1" d="M38.77,12.31s-.02-.01-.03-.02c.03.02.06.04.09.06-.02-.01-.04-.02-.05-.03Z"/>
    <path class="cls-1" d="M39.2,12.61s-.03-.02-.05-.04c.03.02.06.04.09.07-.01-.01-.03-.02-.04-.03Z"/>
    <path class="cls-1" d="M39.09,12.53s-.06-.04-.09-.06c.04.02.07.05.1.08,0,0-.01,0-.02-.01Z"/>
    <path class="cls-1" d="M38.87,12.38s.05.03.07.05c-.02-.02-.05-.03-.07-.05Z"/>
    <path class="cls-1" d="M38.13,11.97s.09.04.13.06c-.04-.02-.09-.04-.13-.06Z"/>
    <path class="cls-1" d="M34.48,10.4c.07.02.14.04.21.06-.07-.02-.14-.04-.21-.06Z"/>
    <path class="cls-1" d="M38.53,12.17s-.06-.04-.1-.05c.04.02.07.04.1.06,0,0,0,0,0,0Z"/>
    <path class="cls-1" d="M38.42,12.11s-.08-.04-.11-.06c.04.02.08.04.12.06,0,0,0,0,0,0Z"/>
    <path class="cls-1" d="M33.24,24.49h-.02s.01,0,.02,0Z"/>
    <path class="cls-1" d="M30.63,23.51c-.08-.02-.19-.03-.28-.03.09,0,.2.01.28.03Z"/>
    <path class="cls-1" d="M31.99,21.75c.2-.03.41-.07.61-.11-.2.05-.4.08-.61.11v1.89c-.18-.05-.37-.09-.56-.11.19.02.38.06.56.11v-1.89Z"/>
    <path class="cls-1" d="M28.17,24.5h0c0-.12.04-.23.12-.3-.07.08-.11.19-.12.3Z"/>
    <polygon class="cls-1" points="39.6 18.83 33.69 21.28 39.6 18.83 39.6 18.83"/>
    <path class="cls-1" d="M28.34,24.15c.13-.07.29-.06.43-.08-.14.02-.31.01-.43.08Z"/>
    <polygon class="cls-1" points="22.52 18.84 22.52 18.84 28.44 21.29 22.52 18.84"/>
    <path class="cls-1" d="M30.17,24.08c-.24-.02-.47-.03-.71-.04.24,0,.48.02.71.04Z"/>
    <path class="cls-1" d="M33.02,21.52c.13-.04.25-.08.38-.13-.13.05-.25.09-.38.13Z"/>
    <path class="cls-1" d="M32.98,24.63c-.02.17-.01.34-.02.51,0-.17,0-.34.02-.51Z"/>
    <path class="cls-1" d="M32.64,21.62s.06-.01.09-.02c-.03,0-.06.02-.09.02Z"/>
    <path class="cls-1" d="M30.8,24.33s-.1-.16-.29-.21c.2.05.25.24.31.2,0,0,0,0-.01,0Z"/>
    <path class="cls-1" d="M33.18,24.49s0,0,0,0c0,0,.02,0,.03,0,0,0-.01,0-.02,0Z"/>
    <path class="cls-1" d="M33.13,24.5s0,0,0,0c.01,0,.02,0,.03,0,0,0-.02,0-.03,0Z"/>
    <path class="cls-1" d="M33.11,24.5s-.01,0-.02,0c0,0,.02,0,.03,0,0,0,0,0,0,0Z"/>
    <path class="cls-1" d="M39.45,12.82s0,0-.01,0c0,0,.02.01.02.02,0,0,0,0-.01-.01Z"/>
    <path class="cls-1" d="M32.06,24.33c-.19-.11-.9-.32-1.18-.11.37-.22,1.1,0,1.33.22-.03-.04-.08-.08-.15-.11Z"/>
    <path class="cls-1" d="M33.34,24.5s0,0,0,0c0,0,0,0,0,0Z"/>
    <path class="cls-1" d="M33.41,24.18s-.06,0-.09,0c.21.02.51-.03.65.17-.12-.17-.38-.15-.57-.16Z"/>
    <path class="cls-1" d="M33,24.59s0,.01,0,.02c0,0,0,.01,0,.02,0-.01,0-.02.01-.04,0,0,0,0,0,0Z"/>
    <path class="cls-1" d="M33.07,24.52s0,0,0,0c0,0,.01,0,.02,0,0,0,0,0-.01,0Z"/>
    <path class="cls-1" d="M33.04,24.54s0,0-.01.01c0,0,.01-.01.02-.02,0,0,0,0,0,0Z"/>
    <path class="cls-1" d="M23.89,12.01s-.01,0-.02,0c.04-.02.07-.04.11-.05-.03.01-.06.03-.1.04Z"/>
    <path class="cls-1" d="M33.98,27.41s0,0,0,0c0,0,0,0,0,0Z"/>
    <path class="cls-1" d="M37.85,11.84c-.19-.08-2.78-1.26-2.88-1.28.1.02,2.7,1.21,2.88,1.28Z"/>
    <path class="cls-1" d="M32.24,27.29s.03-.05.04-.07c-.24.34-.77.4-1.16.38.39.03.81-.06,1.12-.31Z"/>
    <path class="cls-1" d="M30.66,27.56c.27-.25.06-.08.34.03-.17-.03-.14-.19-.21-.15-.27.32-.79.18-1.17.25.34-.05.71.01,1.03-.12Z"/>
    <path class="cls-1" d="M32.7,27.39h0s.01.01.02.02c0,0-.01-.01-.02-.02Z"/>
    <path class="cls-1" d="M33.39,27.57c.26-.01.49,0,.59-.16-.14.23-.82.17-1.05.11.09.03.27.05.45.05Z"/>
    <path class="cls-1" d="M34.01,27.28s0,.04,0,.07c0-.02,0-.04,0-.07h0Z"/>
    <path class="cls-1" d="M32.89,27.5s0,0,0,0c0,0,0,0,.01,0,0,0,0,0,0,0Z"/>
    <path class="cls-1" d="M32.74,27.42h0s.03.02.05.03c-.02,0-.03-.02-.05-.03Z"/>
    <path class="cls-1" d="M32.84,27.48s0,0,.01,0c0,0,0,0-.01,0Z"/>
    <path class="cls-1" d="M32.79,27.45s.02.01.04.02c-.01,0-.02-.01-.04-.02Z"/>
    <path class="cls-1" d="M32.66,27.36s-.08-.07-.12-.1c.05.04.09.07.14.11,0,0,0,0-.01,0Z"/>
    <path class="cls-1" d="M29.25,27.69s0,0,.01,0c-.28,0-.56.05-.81-.03.25.07.53.02.8.03Z"/>
    <path class="cls-1" d="M32.98,19.57s5.03-2.09,5.07-2.1c-.04.02-5.03,2.08-5.07,2.1Z"/>
    <path class="cls-4" d="M20.91,16.37c.11.02.22.04.32.06h0c-.18-.04-.36-.07-.54-.09.07,0,.15.02.22.03Z"/>
    <path class="cls-4" d="M16.93,27.28v-2.78h.55c-.02-6.42-.58-6.83,3.68-11.98-.22-.7-.92-1.22-1.74-1.22-1.69,0-3.07,1.29-3.07,2.87v14.49h1.13v-1.39h-.55Z"/>
    <path class="cls-4" d="M20.14,16.29c.09,0,.19.01.28.02-.16-.01-.33-.02-.49-.03.07,0,.14,0,.21,0Z"/>
    <path class="cls-4" d="M20.67,16.33c-.07,0-.13-.02-.2-.02.07,0,.13.01.2.02Z"/>
    <polygon class="cls-4" points="21.24 14.54 19.93 16.28 21.24 14.54 21.24 14.54"/>
    <path class="cls-4" d="M41.43,16.33s-.04,0-.06,0c.02,0,.04,0,.06,0Z"/>
    <path class="cls-4" d="M41.08,16.38c-.06.01-.12.02-.17.03.06-.01.12-.02.17-.03Z"/>
    <path class="cls-4" d="M41.83,16.29s-.09,0-.14.01c.05,0,.09,0,.14-.01Z"/>
    <path class="cls-4" d="M41.22,16.36s.06,0,.1-.01c-.04,0-.07.01-.11.02,0,0,.01,0,.02,0Z"/>
    <path class="cls-4" d="M41.92,16.28c.09,0,.18,0,.26-.01l-1.2-1.59,1.2,1.59c-.09,0-.18,0-.26.01Z"/>
    <path class="cls-4" d="M41.62,16.31s-.09,0-.13.01c.04,0,.09,0,.13-.01Z"/>
    <path class="cls-4" d="M44.64,27.28v1.39h1.14v-14.49c0-1.58-1.38-2.87-3.07-2.87-.83,0-1.53.52-1.75,1.23,4.26,5.14,3.7,5.57,3.67,11.97h.58v2.78h-.58Z"/>
    <path class="cls-2" d="M47.06,28.91v-14.73c0-2.25-1.95-4.08-4.36-4.08-1.17,0-2.19.61-2.72,1.5-.78-.7-3.21-1.61-4.16-2.08-1.62-.89-5.07-.5-6.86-.58-1.72-.12-3.98,1.21-5.52,1.85-.47.21-.92.48-1.33.8-.53-.89-1.55-1.5-2.71-1.5-2.4,0-4.36,1.83-4.36,4.08v14.69c-.87.38-1.47,1.24-1.47,2.25v9.18c0,.73.32,1.38.82,1.83v4.45c0,.91.53,1.75,1.35,2.15l1.72.84c-.13,1.06.58,2.1,1.7,2.09.23,0,.42.19.42.42,0,.57.47,1.04,1.04,1.04h20.82c.57,0,1.04-.47,1.04-1.04,0-.23.19-.42.42-.42,1.11,0,1.84-1.02,1.7-2.08l1.73-.84c.82-.4,1.35-1.24,1.35-2.15v-4.53c.46-.45.74-1.07.74-1.76v-9.18c0-.97-.57-1.82-1.39-2.21ZM33.97,24.35c-.12-.17-.38-.15-.57-.16-.31-.04-.61.03-.84.25-.32.31-.23.03-.51-.1-.21-.11-1.06-.39-1.26,0-.25-.34-.95-.25-1.35-.28-.42.05-1.25-.15-1.29.46h-9.4c.06-1.11-.17-5.37.21-6.37.73,0,1.57-.02,2.26.21h0c.42.12.88.34,1.29.5h0c1.27.45,6.35,2.83,7.62,2.9v1.71c.22.02.47.02.67.11.35-.11.82-.04,1.18.07v-1.89c1.24-.07,6.38-2.47,7.61-2.91h0c.33-.13.95-.41,1.29-.5h0c.69-.23,1.53-.21,2.25-.21.38.98.15,5.29.21,6.38h-9.36c0-.05,0-.1-.01-.16ZM33.22,27.27c-.44,0-.18-.98-.25-1.29,0-.46-.03-.92.02-1.38.05-.13.24-.14.35-.11h-.11v2.77s-.01,0-.02,0ZM28.97,27.31s-.06,0-.08-.03h.02v-2.78h0c.42-.19.18,1.08.24,1.32-.05.3.16,1.44-.18,1.49ZM16.35,28.67v-14.49c0-1.58,1.38-2.87,3.07-2.87.82,0,1.52.52,1.74,1.22-4.27,5.14-3.7,5.58-3.68,11.98h-.55v2.78h.55v1.39h-1.13ZM44.64,24.5c.02-6.41.59-6.83-3.67-11.97.22-.71.92-1.23,1.75-1.23,1.69,0,3.07,1.29,3.07,2.87v14.49h-1.14v-1.39h.58v-2.78h-.58ZM22.9,12.63c.07-.06.15-.12.23-.17,0,0,0,0,0,0,.5-.43,3.07-1.44,3.69-1.76.47-.21.96-.35,1.46-.42.36-.08,4.4-.03,4.87-.05.74,0,1.48.16,2.16.46,4.55,1.98,3.94,1.65,6.88,5.58-1.39-.04-2.91.69-4.17,1.21-2.32.77-6.37,3.44-8.87,2.09-1.89-.73-6-2.62-7.91-3.14h0c-.43-.09-.87-.14-1.31-.15l1.31-1.74h0c.46-.61,1.04-1.46,1.66-1.91ZM46.43,46.59c0,.42-.24.81-.62.99l-2.46,1.19v1.18c-.02.82-1.71-.06-2.11,1.88h-20.37c-.4-1.94-2.08-1.05-2.11-1.88,0,0,0-1.19,0-1.19l-2.45-1.19c-.38-.18-.62-.57-.62-.99v-5.17c-.48-.15-.82-.59-.82-1.12,0-.69,0-8.27,0-9.18.06-1.45,1.62-1.15,2.61-1.17v6.7l1.29,1.22v-10.59h9.4c.07.59.69.38,1.11.41.44-.07,1.21.09,1.51-.26,0,0,.01,0,.02,0,.1.17.23.18.46.18,1.42-.06.71-.83,1.43-.21h0s.02.02.04.03h0c.22.19,1.28.29,1.27-.14h9.34v10.59l1.29-1.22v-6.7c.99.01,2.47-.26,2.54,1.17,0,1.09,0,8.28,0,9.18,0,.49-.31.92-.74,1.09v5.2Z"/>
    <path class="cls-3" d="M40.46,24.5v-6.02c-1.79.64-6.6,2.99-8.47,3.27v1.89c-.36-.11-.82-.18-1.18-.07-.2-.09-.45-.09-.67-.11v-1.71c-1.89-.28-6.72-2.64-8.52-3.28v6.03h6.55c.04-.61.86-.41,1.29-.46.4.04,1.1-.05,1.35.28.2-.39,1.05-.11,1.26,0,.15.05.17.19.28.25.21-.07.37-.32.6-.37.28-.04,1.1-.14,1.06.29h6.47Z"/>
    <path class="cls-3" d="M40.46,43.94h-6.45c0,.41-.82.3-1.08.24-.23-.06-.39-.31-.61-.38-.06,0-.03.1-.09.15-.33.27-.78.35-1.19.3-.22,0-.19-.19-.26-.16-.3.34-1.07.19-1.51.26-.42-.02-1.05.17-1.11-.41h-6.55v6.38l1.58,1.52h15.69l1.58-1.52v-6.38ZM31.99,51.03h-1.85v-6.11c.23-.02.42,0,.66-.09.39.09.82.06,1.19-.06v6.26Z"/>
    <path class="cls-3" d="M21.61,31.43v9.73h6.55c.02-.57.77-.42,1.17-.46.41.03,1.24-.05,1.47.29.18-.38,1.05-.11,1.26,0,.32.17.18.4.51.1.23-.22.53-.28.84-.25.23,0,.62,0,.58.32h6.47v-13.89h-6.45c0,.43-1.04.33-1.27.14h0s-.02-.02-.04-.03h0c-.72-.62,0,.15-1.43.21-.23,0-.36-.01-.46-.18,0,0,0,0-.02,0-.31.35-1.07.19-1.51.26-.42-.03-1.04.18-1.11-.41h-6.55v4.15ZM30.43,28.24c.11,0,.23-.02.37-.07.39.09.82.06,1.19-.06v1.12h6.44v2.16h-6.44v1.39h6.44v2.16h-6.44v1.39h6.44v2.16h-6.44v1.81c-.37-.11-.82-.18-1.18-.07-.18-.09-.47-.09-.67-.11v-1.63h-6.47v-2.16h6.47v-1.39h-6.47v-2.16h6.47v-1.39h-6.47v-2.16h6.47v-.97c.1,0,.2-.01.29-.02Z"/>
    <path class="cls-2" d="M30.99,44.87c-.06,0-.12-.02-.19-.03-.24.09-.43.07-.66.09v6.11h1.85v-6.26c-.31.1-.67.13-1,.1Z"/>
    <rect class="cls-4" x="27.68" y="13.29" width="6.74" height="3.91"/>
    <path class="cls-3" d="M29.15,25.82c-.07-.24.18-1.52-.24-1.32h0v2.78h-.02c.45.22.21-1.21.26-1.46Z"/>
    <path class="cls-3" d="M33.34,24.5c-.47-.12-.36.34-.37.64,0,.55.01,1.1,0,1.65,0,.21-.02.5.26.48v-2.77h.11Z"/>
    <path class="cls-3" d="M33.34,41.16c-.14-.04-.36-.01-.37.17-.02.71,0,1.42,0,2.12,0,.26,0,.49.26.48v-2.77h.11Z"/>
    <path class="cls-3" d="M29.15,41.49c.02-.17-.04-.42-.24-.32h0v2.78h-.02c.49.34.18-2.15.26-2.45Z"/>
    <path class="cls-3" d="M21.95,13.6c-.44.59-1.56,2.08-2.02,2.68,1.37-.04,2.92.68,4.17,1.21,2.34.77,6.37,3.44,8.89,2.08.04-.02,5.03-2.09,5.07-2.1,1.24-.52,2.76-1.23,4.13-1.2-3.06-4.14-2.47-3.65-7.21-5.72-.58-.22-1.2-.33-1.83-.33-.61.02-4.48-.06-5,.07-.98.09-3.24,1.31-4.16,1.67-.8.36-1.51.93-2.04,1.63ZM34.42,13.29v3.91h-6.74v-3.91h6.74Z"/>
    <path class="cls-3" d="M46.43,41.39c.43-.17.74-.59.74-1.09,0-.86,0-8.13,0-9.18-.06-1.42-1.55-1.16-2.54-1.17v6.7l-1.29,1.22v10.9l2.46-1.19c.38-.18.62-.57.62-.99v-5.2Z"/>
    <path class="cls-4" d="M43.35,41.47v-14.19h-2.89v13.89h.75v2.78h-.75v6.38l-1.58,1.52h2.36c.4-1.95,2.08-1.05,2.11-1.88,0-.55,0-7.71,0-8.48Z"/>
    <path class="cls-4" d="M40.46,24.5h2.89c-.06-1.11.17-5.37-.21-6.38-.73,0-1.56-.02-2.25.21h0c-.14.04-.29.09-.43.15v6.02Z"/>
    <path class="cls-4" d="M21.61,18.47c-.12-.05-.25-.09-.38-.13h0c-.7-.23-1.54-.22-2.26-.21-.37.97-.15,5.29-.21,6.37,0,0,2.85,0,2.85,0v-6.03Z"/>
    <path class="cls-3" d="M18.77,41.47v-3.6l-1.29-1.22v-6.7c-.99.02-2.55-.29-2.61,1.17,0,.95,0,8.45,0,9.18,0,.52.35.97.82,1.12v5.17c0,.42.24.81.62.99l2.45,1.19v-7.3Z"/>
    <path class="cls-4" d="M21.61,43.94h-.77v-2.78h.77v-13.89h-2.85c0,6.57,0,16.17,0,22.68.03.83,1.71-.07,2.11,1.88h2.32l-1.58-1.52v-6.38Z"/>
    <path class="cls-2" d="M33.99,41.16c.03-.32-.35-.31-.58-.32-.31-.03-.61.03-.84.25-.33.3-.19.07-.51-.1-.2-.12-1.08-.38-1.26,0-.23-.34-1.06-.26-1.47-.29-.4.04-1.15-.11-1.17.46h-7.33v2.78h7.33c.06.58.69.39,1.11.41.44-.07,1.21.09,1.51-.26.07-.03.03.15.26.16.41.05.86-.04,1.19-.3.05-.05.03-.15.09-.15.21.08.38.32.61.38.26.06,1.07.17,1.08-.24h7.2v-2.78h-7.22ZM29.15,43.77c0,.13-.14.26-.25.17h.02v-2.78h0c.2-.1.26.15.24.32-.01.76.03,1.52,0,2.28ZM33.23,43.94c-.26.02-.27-.22-.26-.48.01-.7-.02-1.41,0-2.12,0-.19.22-.21.37-.17h-.11v2.77Z"/>
    <rect class="cls-4" x="23.67" y="29.23" width="6.47" height="2.16"/>
    <rect class="cls-4" x="31.99" y="29.23" width="6.44" height="2.16"/>
    <rect class="cls-4" x="31.99" y="32.78" width="6.44" height="2.16"/>
    <rect class="cls-4" x="23.67" y="32.78" width="6.47" height="2.16"/>
    <rect class="cls-4" x="31.99" y="36.33" width="6.44" height="2.16"/>
    <rect class="cls-4" x="23.67" y="36.33" width="6.47" height="2.16"/>
    <path class="cls-2" d="M30.14,29.23v10.89c.21.02.49.02.67.11.35-.11.8-.04,1.18.07v-12.19c-.37.12-.8.15-1.19.06-.24.09-.43.07-.66.09v.97Z"/>
  </g>
</svg>