<?xml version="1.0" encoding="UTF-8"?>
<svg id="Layer_2" data-name="Layer 2" xmlns="http://www.w3.org/2000/svg" xmlns:xlink="http://www.w3.org/1999/xlink" viewBox="0 0 62.05 62.05">
  <defs>
    <style>
      .cls-1 {
        fill: none;
      }

      .cls-1, .cls-2, .cls-3, .cls-4 {
        stroke-width: 0px;
      }

      .cls-5 {
        fill: url(#radial-gradient);
        stroke: url(#radial-gradient-2);
        stroke-miterlimit: 10;
        stroke-width: 2px;
      }

      .cls-2 {
        fill: #323232;
      }

      .cls-3 {
        fill: #fff;
      }

      .cls-4 {
        fill: #7e7e7e;
      }
    </style>
    <radialGradient id="radial-gradient" cx="135.74" cy="-714.38" fx="135.74" fy="-714.38" r="30.02" gradientTransform="translate(-104.72 745.4)" gradientUnits="userSpaceOnUse">
      <stop offset="0" stop-color="#b3b2b3" stop-opacity=".5"/>
      <stop offset="1" stop-color="#333" stop-opacity=".5"/>
    </radialGradient>
    <radialGradient id="radial-gradient-2" cx="-185.02" cy="845.15" fx="-185.02" fy="845.15" r="31.02" gradientTransform="translate(759.47 -435.76) rotate(45)" gradientUnits="userSpaceOnUse">
      <stop offset="0" stop-color="#000" stop-opacity=".25"/>
      <stop offset="1" stop-color="#000" stop-opacity=".25"/>
    </radialGradient>
  </defs>
  <circle class="cls-5" cx="31.02" cy="31.02" r="30.02"/>
  <g>
    <path class="cls-1" d="M18.7,12.15c-.08-.17-.15-.3-.21-.4-.25.19-.64.57-1.06,1.2-.55.83-.8,1.56-.83,1.8.01.09.04.25.09.44.5-.54,1.17-.93,1.93-1.07v-1.97h.08Z"/>
    <path class="cls-1" d="M18.58,50.72s-.03-.06-.04-.09c.01.03.03.06.04.09.02.04.04.08.06.12.06.11.13.22.21.33-.08-.1-.15-.21-.21-.33-.02-.04-.04-.08-.06-.12Z"/>
    <path class="cls-1" d="M43.41,14.12c.76.14,1.43.53,1.93,1.07.05-.19.08-.34.09-.44-.02-.24-.28-.97-.83-1.8-.42-.63-.81-1.01-1.06-1.2-.07.1-.14.23-.21.4h.07v1.97Z"/>
    <path class="cls-1" d="M16.78,49.74c.03.29.08.58.16.86.03.09.06.19.09.28-.03-.09-.06-.18-.09-.28-.08-.28-.13-.57-.16-.86Z"/>
    <path class="cls-1" d="M27.5,13.91c0-.13.1-.23.23-.23h.52c.12,0,.23-.1.23-.23v-.21c0-.13.1-.23.23-.23h1.64c.13,0,.23.1.23.23v.21c0,.06.03.12.07.16.04.04.1.07.16.07.13,0,.23.1.23.23,0-.13.1-.23.23-.23.06,0,.12-.03.16-.07.04-.04.07-.1.07-.16v-.21c0-.13.1-.23.23-.23h1.64c.13,0,.23.1.23.23v.21c0,.13.1.23.23.23h.52c.13,0,.23.1.23.23v.16h1.07c-1.28-1.07-2.92-1.68-4.6-1.68-1.68,0-3.32.61-4.6,1.68h1.08v-.16Z"/>
    <path class="cls-1" d="M18.08,36.66s.04-.03.06-.04c.06-.04.12-.07.19-.1.03-.01.06-.02.08-.03-.03.01-.06.02-.09.03-.07.03-.13.06-.19.1-.02.01-.04.02-.06.04-.39.26-.65.71-.66,1.21,0-.5.27-.95.66-1.21Z"/>
    <path class="cls-1" d="M43.77,49.62c-.05.55-.24,1.05-.53,1.47.29-.42.48-.92.53-1.47Z"/>
    <path class="cls-1" d="M46.63,38.87s.04-.1.04-.15v-.7c0-.09-.04-.17-.09-.22-.06-.06-.14-.09-.22-.09-.09,0-.17.04-.23.1,0,.03,0,.06,0,.09v.06s-.06.83-.06.83c.05-.09.15-.15.26-.15.15,0,.27.1.3.24Z"/>
    <path class="cls-1" d="M21.29,52.39c-.34,0-.67-.05-.97-.16.3.1.63.16.97.16Z"/>
    <path class="cls-1" d="M29.59,13.6c.16,0,.3.13.31.29h.01c.17,0,.31-.14.31-.31s-.14-.31-.31-.31h-.7c-.17,0-.31.14-.31.31s.14.31.31.31h.07c0-.08.04-.15.1-.2.06-.05.13-.08.21-.08Z"/>
    <path class="cls-1" d="M32.47,13.6c.16,0,.3.13.31.29h.07c.17,0,.31-.14.31-.31s-.14-.31-.31-.31h-.7c-.17,0-.31.14-.31.31s.14.31.31.31h.01c.01-.16.14-.29.31-.29Z"/>
    <path class="cls-1" d="M43.38,15.66s-.07-.02-.1-.03c-.04,0-.07-.02-.11-.02.04,0,.07.01.11.02.03,0,.07.02.1.03Z"/>
    <path class="cls-1" d="M43.64,15.77s.02.01.03.02c-.01,0-.02-.01-.03-.02-.03-.01-.06-.03-.09-.04-.03-.01-.06-.02-.09-.04.03.01.06.02.09.04.03.01.06.03.09.04Z"/>
    <path class="cls-2" d="M46.19,30.43c.05-.24.08-.49.08-.74v-4.96c.51-2.08,1.12-4.13,1.61-5.78.69-2.31,1-3.36,1.03-4.06.05-1.25-.69-2.69-1.14-3.43-.46-.76-1.41-2.13-2.69-2.84-1.13-.63-2.33-.62-3.28.04-.98.66-1.68,1.81-2.13,3.5h-.84v1.91h-1.06l-.53-.55c-1.62-1.67-3.88-2.63-6.22-2.64h0c-2.33.01-4.6.97-6.22,2.64l-.53.55h-1.05v-1.91h-.84c-.45-1.69-1.15-2.84-2.13-3.5-.96-.66-2.15-.67-3.28-.04-1.28.71-2.24,2.08-2.69,2.84-.45.74-1.19,2.18-1.14,3.43.03.7.34,1.75,1.02,4.06.5,1.65,1.1,3.68,1.61,5.76v4.98c0,.25.03.5.08.74l.69,3.21c.05.21.12.42.2.62-.04.57-.09,1.15-.15,1.75-.42.51-.67,1.17-.67,1.89v.02l.17,2.32c-.21,1.57-.44,3.06-.63,4.33-.22,1.44-.36,2.44-.44,3.13h-.55v3.18h2.56c.12.35.29.67.49.98.2.3.44.59.71.84.84.77,1.93,1.19,3.07,1.19h19.45c1.14,0,2.23-.42,3.07-1.19.55-.51.96-1.13,1.2-1.82h2.56v-3.18h-.54c-.08-.69-.23-1.69-.44-3.13-.14-.89-.28-1.88-.43-2.94h-.17c-.17,0-.31-.15-.29-.32l.11-1.09s.02-.09.04-.13c.01,0,.03-.03.04-.04.04-.04.08-.07.13-.08v-1.03c0-.06.01-.12.04-.16l.06-.83v-.05s0-.07,0-.1c.06-.06.14-.1.23-.1s.17.04.23.09c.05.06.09.14.09.23v.7s-.02.11-.04.15c0,.02.01.04.01.07v.51h.05c.12,0,.22-.1.22-.23v-1.64c0-.13-.1-.23-.22-.23h-.21c-.07,0-.12-.02-.16-.06-.05-.04-.07-.1-.07-.16,0-.13-.1-.23-.23-.23h-.07c-.11-.33-.28-.62-.49-.88-.06-.6-.11-1.2-.15-1.77.08-.19.15-.4.19-.61l.69-3.21ZM31.02,12.39c1.68,0,3.32.6,4.6,1.68h-1.07v-.16c0-.13-.1-.23-.22-.23h-.53c-.12,0-.23-.1-.23-.22v-.21c0-.13-.1-.23-.22-.23h-1.65c-.12,0-.22.1-.22.23v.21c0,.06-.03.12-.07.16s-.1.06-.16.06c-.12,0-.23.1-.23.23,0-.13-.1-.23-.23-.23-.06,0-.11-.02-.16-.06-.04-.04-.06-.1-.06-.16v-.21c0-.13-.1-.23-.23-.23h-1.64c-.13,0-.23.1-.23.23v.21c0,.12-.1.22-.23.22h-.52c-.13,0-.23.1-.23.23v.16h-1.08c1.29-1.08,2.93-1.68,4.61-1.68ZM16.69,15.19c-.04-.19-.08-.34-.09-.43.03-.24.28-.98.83-1.8.42-.64.81-1.02,1.06-1.21.06.1.13.24.21.41h-.08v1.96c-.75.14-1.43.53-1.93,1.07ZM44.42,40.6l-.17,2.36-.49,6.66c-.05.55-.23,1.05-.52,1.47-.08.11-.16.21-.25.31-.02.02-.04.04-.06.06-.04.05-.09.09-.13.14-.04.03-.07.06-.11.09-.12.1-.26.19-.4.28-.09.05-.19.11-.3.15-.29.13-.61.22-.95.25,0,0-.02,0-.02.01h-.14s-.09.01-.14.01h-19.45c-.34,0-.67-.06-.97-.16-.1-.03-.19-.07-.28-.11-.13-.05-.25-.12-.36-.19-.2-.12-.38-.27-.54-.43-.03-.03-.06-.06-.09-.1-.07-.07-.14-.15-.2-.23-.07-.11-.14-.21-.21-.33-.02-.04-.04-.08-.06-.12-.02-.03-.03-.06-.04-.09-.11-.22-.18-.46-.23-.72-.02-.09-.03-.19-.04-.29l-.49-6.68-.17-2.36-.2-2.71c.01-.5.27-.95.67-1.21.02-.01.04-.03.06-.04.06-.03.12-.07.19-.09.02-.02.05-.03.08-.04.15-.05.32-.08.49-.08h24.23c.07,0,.14.01.21.02s.14.02.2.04c.04.01.07.02.1.03.56.2.97.74.98,1.37l-.2,2.73ZM44.76,19.53h-.02v2.31h.02v7.85c0,.14-.01.28-.04.42l-.69,3.21c-.2.91-1.01,1.57-1.94,1.57h-22.14c-.93,0-1.75-.66-1.95-1.57l-.69-3.21c-.02-.14-.04-.28-.04-.42v-7.85h.02v-2.31h-.02v-1.97c0-1.1.89-1.99,1.99-1.99h9.81l.04-.38c.01-.1.08-.18.16-.23v-1.04s0-.02.01-.03h-.08c-.17,0-.31-.14-.31-.31,0-.18.14-.32.31-.32h.7c.18,0,.32.14.32.32,0,.17-.14.31-.32.31h-.01v1.05c.11.04.19.14.21.25l.04.38h1.77l.04-.38s0-.02.01-.03c0-.03.01-.06.03-.09.01-.02.03-.03.04-.05.04-.03.08-.06.12-.08v-1.02s.01-.02.01-.03h-.02c-.17,0-.31-.14-.31-.31,0-.18.14-.32.31-.32h.7c.17,0,.32.14.32.32,0,.17-.15.31-.32.31h-.07v1.07c.09.05.15.13.16.23l.04.38h9.81c.13,0,.26.01.39.04.03.01.07.01.1.02.04.01.07.02.11.03.02.01.05.02.08.03s.06.02.09.04c.03.01.06.02.09.04.01,0,.02.01.03.01.1.06.2.12.29.19.49.36.8.94.8,1.59v1.97ZM45.34,15.19c-.5-.54-1.17-.93-1.93-1.07v-1.96h-.07c.07-.17.15-.31.21-.41.25.19.64.57,1.06,1.21.55.82.8,1.56.83,1.8-.02.09-.05.24-.1.43Z"/>
    <path class="cls-3" d="M43.97,15.96c-.09-.07-.19-.13-.3-.18-.01,0-.02-.01-.03-.02-.03-.01-.06-.03-.09-.04-.03-.01-.06-.02-.09-.04-.03,0-.05-.02-.08-.03-.03-.01-.07-.02-.1-.03-.04,0-.07-.02-.11-.02-.13-.03-.26-.04-.39-.04h-9.81l.08.71c.02.17-.12.32-.29.32h-.63c-.17,0-.31-.15-.29-.32l.08-.71h-1.77l.08.71c.02.17-.12.32-.29.32h-.63c-.17,0-.31-.15-.29-.32l.08-.71h-9.82c-1.1,0-1.99.89-1.99,1.99v1.97h27.49v-1.97c0-.65-.31-1.23-.8-1.59Z"/>
    <path class="cls-3" d="M17.27,21.84v7.85c0,.14.02.28.04.42l.69,3.21c.2.91,1.01,1.57,1.94,1.57h22.14c.93,0,1.75-.66,1.94-1.57l.69-3.21c.03-.14.04-.28.04-.42v-7.85h-27.49ZM19.74,23.62h22.57v7.99h-13.15c-.18.23-.43.4-.71.51-.18.07-.37.1-.56.1-.16.33-.38.62-.64.89-1.32,1.32-3.47,1.32-4.79,0-.43-.43-.72-.95-.87-1.5h-1.84v-7.99Z"/>
    <path class="cls-2" d="M29.42,29.99c-.08-.23-.21-.43-.38-.6-.35-.35-.83-.52-1.31-.48-.14-.22-.3-.42-.48-.61-.18-.18-.39-.35-.61-.48.02-.24-.01-.49-.1-.72-.08-.23-.21-.43-.38-.6-.14-.14-.3-.25-.48-.33-.4-.18-.85-.2-1.26-.05-.23.08-.43.21-.6.38-.31.31-.48.73-.49,1.16-.33.16-.63.38-.89.64-.89.89-1.18,2.16-.87,3.3.15.55.44,1.07.87,1.5,1.32,1.32,3.47,1.32,4.79,0,.26-.26.48-.56.64-.89.19,0,.38-.04.56-.1.28-.1.53-.28.71-.51.09-.11.16-.23.22-.35.18-.4.2-.85.05-1.26ZM27.59,31.71c-.67,1.96-3.37,2.57-4.81,1.06-1.5-1.41-.91-4.14,1.06-4.81-.34-2.02,2.8-1.87,2.27.11.58.27,1.1.79,1.37,1.37.61-.22,1.29.12,1.5.71.35.85-.51,1.81-1.39,1.56Z"/>
    <path class="cls-4" d="M43.64,36.5s-.06-.02-.1-.03c-.07-.02-.14-.03-.21-.04-.07,0-.13-.02-.2-.02h-24.24c-.17,0-.33.03-.49.08-.03.01-.06.02-.08.03-.07.03-.13.06-.19.1-.02.01-.04.02-.06.04-.39.26-.65.71-.66,1.21l.2,2.7c8.9,1.31,17.91,1.31,26.81.03l.2-2.73c-.01-.63-.42-1.17-.98-1.37Z"/>
    <path class="cls-4" d="M17.79,42.94l.49,6.68c0,.1.02.2.04.29.05.25.12.49.23.72.01.03.03.06.04.09.02.04.04.08.06.12.06.11.13.22.21.33.06.08.12.16.19.23.03.03.06.07.09.1.16.16.34.31.54.43.12.07.24.14.37.2.09.04.18.08.28.11.3.1.63.16.97.16h19.45s.09,0,.14,0c.02,0,.04,0,.06,0,.03,0,.05,0,.08,0,0,0,.01,0,.02,0,.34-.03.66-.12.96-.25.1-.05.2-.1.3-.16.14-.08.27-.18.4-.28.04-.03.07-.06.1-.09,0,0,0,0,0,0,.05-.04.09-.09.14-.13.02-.02.04-.04.06-.06.09-.1.17-.2.25-.31.29-.42.48-.92.53-1.47l.49-6.66c-4.36.61-8.75.91-13.14.91s-8.9-.31-13.32-.94Z"/>
    <path class="cls-3" d="M17.61,40.57l.17,2.36c4.42.62,8.87.94,13.32.94s8.78-.31,13.14-.91l.17-2.36c-8.9,1.29-17.91,1.28-26.81-.03Z"/>
    <rect class="cls-4" x="17.3" y="19.53" width="27.45" height="2.32"/>
    <path class="cls-4" d="M22.45,28.31c.26-.26.56-.48.89-.64,0-.43.18-.85.49-1.16.17-.17.37-.3.6-.38.42-.15.86-.13,1.26.05.18.08.34.19.48.33.17.17.3.37.38.6.08.23.12.48.1.72.22.14.42.3.61.48.18.18.35.39.48.61.48-.04.97.13,1.31.48.17.17.3.37.38.6.15.41.13.86-.05,1.26-.06.13-.13.25-.22.35h13.15v-7.99h-22.57v7.99h1.84c-.31-1.14-.02-2.41.87-3.3Z"/>
    <path class="cls-4" d="M29.29,16.61h.63c.17,0,.31-.15.29-.32l-.08-.71-.04-.38c-.01-.12-.1-.22-.2-.25v-1.03s0-.01,0-.02c-.01-.16-.14-.29-.31-.29-.08,0-.16.03-.21.08-.05.05-.09.12-.1.2,0,0,0,.01,0,.02v1.05c-.09.04-.15.13-.16.23l-.04.38-.08.71c-.02.17.12.32.29.32Z"/>
    <path class="cls-4" d="M32.13,16.61h.63c.17,0,.31-.15.29-.32l-.08-.71-.04-.38c-.01-.1-.07-.19-.16-.23v-1.05s0-.01,0-.02c-.01-.16-.14-.29-.31-.29s-.3.13-.31.29c0,0,0,.01,0,.02v1.03s-.09.04-.12.08c-.02.02-.03.03-.04.05-.02.03-.03.06-.04.09,0,.01,0,.02,0,.03l-.04.38-.08.71c-.02.17.12.32.29.32Z"/>
    <path class="cls-4" d="M46.63,38.87c-.03-.14-.15-.24-.3-.24-.11,0-.21.06-.26.15-.03.05-.05.1-.05.16v1.03s-.09.04-.13.08c-.01.01-.03.03-.04.05-.02.04-.04.08-.04.12l-.11,1.09c-.02.17.12.32.29.32h.63c.17,0,.31-.15.29-.32l-.11-1.09c-.01-.1-.07-.19-.16-.23v-1.05s0-.05,0-.07Z"/>
    <path class="cls-3" d="M27.48,29.44c-.27-.58-.79-1.1-1.37-1.37.53-1.97-2.61-2.13-2.27-.11-1.97.66-2.56,3.4-1.06,4.81,1.44,1.51,4.14.9,4.81-1.06.88.25,1.74-.71,1.39-1.56-.22-.59-.89-.93-1.5-.71ZM24.8,27.15c.68-.26,1.08.81.39,1.05-.68.26-1.08-.81-.39-1.05ZM26.96,31.6s0,0,0,0c-.7,1.76-3.34,1.85-4.16.14-.66-1.2.02-2.86,1.35-3.24.41.43,1.15.47,1.6.08.53.21,1,.68,1.21,1.21-.39.45-.35,1.19.08,1.6-.02.07-.05.14-.08.2ZM28.06,31.08c-.69.26-1.07-.83-.38-1.06.68-.24,1.06.82.38,1.06Z"/>
    <path class="cls-2" d="M27.69,30.03c-.7.23-.31,1.32.38,1.06.68-.24.3-1.3-.38-1.06Z"/>
    <path class="cls-2" d="M25.18,28.21c.69-.24.29-1.32-.39-1.05-.69.24-.29,1.31.39,1.05Z"/>
    <path class="cls-2" d="M26.96,29.8c-.21-.53-.69-1-1.21-1.21-.45.39-1.19.35-1.6-.08-1.33.38-2,2.04-1.35,3.24.82,1.71,3.46,1.62,4.16-.14,0,0,0,0,0,0,.03-.07.05-.14.08-.2-.43-.41-.47-1.15-.08-1.6Z"/>
  </g>
</svg>