<?xml version="1.0" encoding="UTF-8"?>
<svg width="81.31" height="81.31" id="Layer_1" data-name="Layer 1" xmlns="http://www.w3.org/2000/svg" xmlns:xlink="http://www.w3.org/1999/xlink" viewBox="0 0 81.31 81.31">
  <defs>
    <style>
      .cls-1 {
        fill: #000;
      }

      .cls-1, .cls-2, .cls-3, .cls-4, .cls-5 {
        stroke-width: 0px;
      }

      .cls-2 {
        fill: none;
      }

      .cls-6 {
        fill: url(#radial-gradient);
        stroke: #0071bc;
        stroke-miterlimit: 10;
        stroke-width: 2px;
      }

      .cls-3 {
        fill: #323232;
      }

      .cls-4 {
        fill: #fff;
      }

      .cls-5 {
        fill: #7e7e7e;
      }
    </style>
    <radialGradient id="radial-gradient" cx="872.2" cy="-1151.27" fx="872.2" fy="-1151.27" r="39.66" gradientTransform="translate(237.99 1471.46) rotate(-45)" gradientUnits="userSpaceOnUse">
      <stop offset="0" stop-color="#b3b2b3" stop-opacity=".5"/>
      <stop offset="1" stop-color="#333" stop-opacity=".5"/>
    </radialGradient>
  </defs>
  <circle class="cls-6" cx="40.66" cy="40.66" r="39.66"/>
  <g>
    <path class="cls-2" d="M39.68,38.36c-.06-.06-.13-.08-.21-.08-.08,0-.15.03-.21.08l-.02.02c-.1.11-.1.29.01.39h0c.11.12.3.12.41,0s.12-.3,0-.41Z"/>
    <path class="cls-2" d="M32.87,49.38c.06.09.03.34.11.46.08.14.23.27.35.36.12.1.29.15.38.2s.2.06.16.08c-.04.03-.27.08-.4.07-.13-.02-.27-.11-.39-.19-.12-.08-.21-.18-.31-.31-.06-.08-.16-.22-.22-.32l-.29.3.14-.07s.03.06.04.11c.04.11.1.25.18.35.12.14.31.32.48.39.15.06.37.12.55.06.16-.05.34-.21.51-.38.03-.03.06-.06.08-.07.21-.19.48-.47.62-.68.12-.18.19-.35.22-.53.02-.15,0-.31-.07-.45-.06-.13-.2-.26-.31-.38l-.03-.03c-.09-.09-.24-.2-.33-.27-.04-.03-.07-.05-.09-.07l.1-.12-1.48,1.5Z"/>
    <path class="cls-2" d="M18.6,63.95s-.01-.04-.02-.06c0,.02.02.04.03.06h0Z"/>
    <path class="cls-2" d="M18.45,63.2l2.72-2.72h0s-2.72,2.72-2.72,2.72c-.02.08-.04.17-.03.25,0,.04.02.1.04.16-.03-.06-.05-.12-.05-.17,0-.07.01-.16.03-.25Z"/>
    <path class="cls-2" d="M26.22,53.42l-.57.57.13.13c.16.16.18.42.06.6.12-.18.1-.44-.06-.6l-.15-.15.58-.58h.01Z"/>
    <polygon class="cls-2" points="64.96 15.38 65.29 15.05 64.46 14.21 64.12 14.55 64.96 15.38"/>
    <path class="cls-2" d="M56.34,19.8l-3.65,3.65.15.08.18-.18.9-.24,2.34-2.34.57.57,1.04-1.04-.54-.54c-.18.04-.38.07-.57.07-.15,0-.29-.02-.42-.04Z"/>
    <polygon class="cls-2" points="65.54 14.8 65.87 14.47 65.03 13.63 64.7 13.96 65.54 14.8"/>
    <path class="cls-5" d="M39.15,37.69h0c-.12.05-.24.12-.33.22-.24.24-.32.58-.24.88l-6.47,6.47-.11-.43,2.95-2.95-.61-.61,3.59-3.59h1.22Z"/>
    <path class="cls-3" d="M44.22,43.41c-.12-.09-.3-.22-.54-.42-.43-.33-1.25-.99-1.62-1.32-.24-.21-.41-.39-.53-.52h0s-.68-.68-.68-.68l-3.06,3.07v1.31l-.28.27h.01s-.4.42-.4.42l.24.24c.29.28.73.72,1.07,1.04l.04.04c.45.42.99.94,1.4,1.27.32.26.68.48.9.63.02.01.03.02.06.03l.39.27,3.59-5.24-.6-.41ZM40.98,47.74c-.16-.1-.33-.22-.49-.35-.19-.16-.42-.36-.66-.58-.24-.21-.48-.44-.7-.64l-.04-.05c-.19-.17-.41-.39-.62-.59h.01s.27-.29.27-.29v-1.31l2.1-2.1c.14.14.32.33.57.56.3.26.84.7,1.28,1.04.14.11.28.22.39.31.17.14.29.24.41.32l-2.52,3.68Z"/>
    <path class="cls-4" d="M43.09,43.74c-.11-.09-.25-.2-.39-.31-.44-.36-.97-.8-1.27-1.05-.26-.22-.44-.41-.57-.56h-.01s-2.1,2.11-2.1,2.11v1.31l-.27.28c.21.22.42.42.61.6l.05.04c.21.21.46.43.69.65.24.22.47.42.66.58.17.12.33.25.49.35l2.52-3.68h0c-.11-.09-.24-.19-.41-.32ZM39.12,45.77l2.69-2.69,1.27,1.02-2.15,3.16-1.81-1.49Z"/>
    <path class="cls-3" d="M36.08,43.79l.16.38-1.5.99-.3.97-1.5,1.75h0s-.02.01-.02.02c-.24.24-.62.24-.86,0s-.24-.63,0-.86c.04-.04.08-.07.12-.1l1.73-1.41.37-.91,1.82-.83Z"/>
    <path class="cls-3" d="M46.58,32.36c.08.08.1.18.04.24l-.38.38c.03.12,0,.25-.1.35-.15.15-.38.15-.53,0s-.15-.38,0-.53c.07-.07.17-.11.26-.11.02,0,.06,0,.08.01l.38-.38c.06-.06.16-.04.24.04Z"/>
    <path class="cls-3" d="M49.14,29.8c.08.08.1.18.04.24l-.38.38c.03.12,0,.25-.1.35-.15.15-.38.15-.53,0s-.15-.38,0-.53c.07-.07.16-.11.26-.11.02,0,.06,0,.08.01l.38-.38c.06-.06.16-.04.24.04Z"/>
    <path class="cls-3" d="M52.73,26.21c.08.08.1.18.04.24l-.38.38c.03.12,0,.25-.1.35-.15.15-.38.15-.53,0s-.15-.38,0-.53c.07-.07.17-.11.26-.11.02,0,.06,0,.08.01l.38-.38c.06-.06.16-.04.24.04Z"/>
    <path class="cls-3" d="M54.69,24.25c.08.08.1.18.04.24l-.38.38c.03.12,0,.25-.1.35-.15.15-.38.15-.53,0s-.15-.38,0-.53c.07-.07.17-.11.26-.11.02,0,.06,0,.08.01l.38-.38c.06-.06.16-.04.24.04Z"/>
    <path class="cls-3" d="M45.01,30.75c.08.08.1.18.04.24l-.38.38c.03.12,0,.25-.1.35-.15.15-.38.15-.53,0s-.15-.38,0-.53c.07-.07.17-.11.26-.11.02,0,.06,0,.08.01l.38-.38c.06-.06.16-.04.24.04Z"/>
    <path class="cls-3" d="M47.25,28.51c.08.08.1.18.04.24l-.38.38c.03.12,0,.25-.1.35-.15.15-.38.15-.53,0s-.15-.38,0-.53c.07-.07.17-.11.26-.11.02,0,.06,0,.08.01l.38-.38c.06-.06.16-.04.24.04Z"/>
    <path class="cls-3" d="M50.83,24.93c.08.08.1.18.04.24l-.38.38c.03.12,0,.25-.1.35-.15.15-.38.15-.53,0s-.15-.38,0-.53c.07-.07.17-.11.26-.11.02,0,.06,0,.08.01l.38-.38c.06-.06.16-.04.24.04Z"/>
    <path class="cls-3" d="M64.84,12.98l-2.74,2.74c-.07.07-.12.17-.11.28,0,.05.01.1.03.15l-2.22,2.21-.92-.92c-.07-.08-.19-.12-.3-.12s-.22.04-.3.12l-.84.84c-.09.09-.2.17-.31.22-.12.05-.25.07-.38.07-.26,0-.5-.1-.69-.29l-4.5,4.51-.33-.19-.41.41-.31-.32-.52.52.31.31-.29.29-.3-.31-.52.53.31.3-.29.29-.31-.31-.52.52.3.3-.28.29-.3-.3-.53.52.31.31-.28.28-.32-.31-.52.52.31.31-.27.27-.31-.31-.52.52.3.31-.29.3-.3-.3-.53.52.31.31-.28.28-.32-.31-.52.52.31.31-.29.28-.3-.3-.52.52.31.31-.29.29-.31-.32-.52.52.31.31-.28.28-.31-.31-.52.52.31.31-.3.29-.3-.3-.52.52.31.31-.29.29-.31-.32-.52.52.31.31-.29.29-.3-.31-.52.53.31.3-.29.29-.31-.31-.52.52.3.3-.27.28-.33-.33-.52.52.33.33-.3.3-.32-.33-.52.52.32.33-.29.28-.32-.32-.52.52.32.32-10.25,10.26v2.37l.58.58v.02s.22.24.22.24l-1.95,1.98.24.17-.45.46-.2-.19c-.19-.19-.49-.19-.67,0l-.03.02-.53-.52-3.96,3.96.53.52-.03.03c-.18.19-.18.49,0,.67l.2.2-2.76,2.76-1.28.54-1.45,1.45.79.79c.14.17.47.35.82.65.39.34.96.75,1.52,1.33.55.58,1.45,1.82,1.81,2.16l.64.65.73-.73.78-1.36-.37-.37c.11-.11.23-.22.37-.36.28-.27.6-.65.93-1.19.49-.82,1.11-2.19,1.71-3.49.15-.35.31-.68.46-1,.53-1.15,1.13-2.48,1.6-3.57.15-.33.29-.64.41-.91.17-.39.33-.75.47-1.07l.19.13.6-1.18.06-.11c.14-.1.32-.13.5-.09.19.05.36.2.42.39v.04s1.06,5.1,1.06,5.1c.03.14.11.25.23.32.12.07.27.08.4.03l2.99-1.13v.02l.5-.21.08-.03.62-.25-.48-1.43h-.83l-.85-2.4h.01s-.02-.06-.04-.1v-.02s-.03-.04-.04-.06c-.06-.14-.2-.45-.21-.55-.01-.02-.01-.03-.01-.04s.01-.04.02-.05.02-.04.03-.06c.02-.05.11-.17.14-.22,0,0,.01,0,.01-.03l.62-.9-.28-.28c.2.05.38.05.53,0,.23-.07.43-.27.63-.45l.08-.07c.07-.07.15-.14.22-.21.18-.18.34-.37.46-.52.15-.22.24-.43.26-.66.04-.22,0-.44-.09-.64-.08-.18-.24-.33-.38-.47l-.04-.03c-.08-.09-.2-.19-.31-.26l1.4-1.4.72.72.02-.02.38.67c.05.08.15.1.23.06l.11-.07c.08-.04.11-.15.07-.23l-.46-.78.58-.57-.71-.71.71-.71.02-1.38,4.28-4.28.54.54,1.3-1.26-.25-.95,9.78-9.78.31.31.52-.52-.31-.31.28-.29.32.32.52-.52-.32-.32.29-.28.31.31.53-.52-.32-.31.29-.29.31.31.52-.52-.31-.31.28-.29.32.32.52-.52-.32-.32.17-.16.53.53,1.04-1.03-.6-.6,1.03-1.04c.17.16.43.16.6,0l1.34-1.34c.16-.17.16-.43,0-.6l2.2-2.2c.15.06.31.03.43-.09l1.61-1.61h0s.32-.33.32-.33h.01l.83-.83-1.69-1.68ZM52.7,23.44l3.64-3.64c.13.02.27.04.4.04.2,0,.39-.03.57-.07l.54.54-1.02,1.03h0l-.56-.56-2.34,2.33-.89.24h-.01l-.17.18h0l-.15-.08h.01ZM26.12,54.96c-.12.28-.26.58-.4.92-.48,1.07-1.07,2.41-1.6,3.54-.15.32-.3.66-.46,1.01-.02.04-.03.07-.04.1-.56,1.21-1.18,2.54-1.62,3.3-.11.19-.22.34-.32.49-.29.39-.57.64-.8.84l-.03.03-.34-.33-.3.3c-.08.01-.15.02-.21,0-.1-.02-.25-.12-.35-.17l-1.04-1.03s-.02-.04-.02-.07h-.01c-.02-.06-.06-.13-.08-.2-.01-.02-.02-.03-.02-.05-.01-.01-.01-.02-.01-.02-.02-.03-.02-.07-.03-.09-.01-.03-.01-.06-.02-.08,0-.04,0-.09.01-.14.01-.04.02-.08.03-.11l2.71-2.71-.15-.16.33-.34-.67-.67-.34.34-.18-.18.8-.8.13.14c.18.17.45.18.64.03.01-.01.02-.02.04-.03l4.05-4.05s.02-.03.02-.04c.06-.09.08-.19.08-.29,0-.02,0-.04,0-.06-.01-.07-.04-.14-.09-.2-.01-.02-.01-.05-.03-.07l-.14-.13.57-.57h.01s.44.3.44.3c-.16.37-.35.79-.55,1.24ZM27.05,52.84l-.4-.28.37-.39h.01s.21.23.21.23c-.05.11-.11.26-.19.44ZM33.13,56.82h.61l-.15.05h-.01l-2.46.94-.83-4.06-.12-.56-.4-.67s-.04-.04-.06-.06l-.19-.15s-.05-.03-.08-.04c-.02-.02-.05-.03-.07-.04s-.04-.03-.06-.04c-.02,0-.04,0-.05,0l-.2-.07c-.15-.04-.29-.06-.44-.05l-.09-.09,2.07-2.08.95.98.67.67.03.02v.02s-.15.2-.15.2t-.02.03h0s-.01.02-.01.03c-.1.15-.19.3-.24.44-.01.01-.01.03-.02.03-.06.17-.11.34-.06.63.04.18.15.44.28.72,0,.02.01.04.02.05l1.09,3.11ZM34.66,48.34l.04.04s.06.06.09.09c.08.09.18.19.22.29.02.04.04.08.05.13.02.08.03.16.03.24,0,.03-.01.05-.01.08,0,.04-.02.09-.03.13-.03.11-.07.21-.14.32-.01.03-.03.05-.05.08-.14.21-.41.47-.61.68h-.01s-.06.05-.09.07c-.04.04-.08.08-.13.12-.08.08-.16.15-.24.19-.05.02-.09.05-.14.06-.04.02-.09.03-.14.03h-.06s-.03,0-.04-.01c-.11,0-.22-.04-.31-.08-.13-.05-.26-.16-.37-.28-.04-.03-.08-.07-.11-.11-.04-.04-.08-.11-.1-.17-.04-.07-.06-.13-.08-.18-.02-.03-.03-.07-.05-.1h0s-.14.06-.14.06l.29-.3h0c.05.12.16.24.22.33.05.07.1.13.16.17.04.06.09.1.15.14.12.08.26.17.39.19.06.01.15,0,.22-.01.01,0,.02,0,.03-.01.02,0,.03,0,.05-.01.05-.01.09-.03.11-.04h.01s-.01-.02-.02-.03c-.01,0-.02-.01-.04-.01-.02,0-.04,0-.06-.02s-.04-.01-.06-.02c-.03-.02-.08-.04-.13-.07-.08-.03-.17-.08-.24-.13-.06-.04-.12-.09-.18-.16-.07-.06-.13-.13-.17-.2-.08-.13-.06-.37-.12-.46l1.47-1.5-.1.12s.06.04.1.07c.1.07.24.18.33.27ZM36.7,43.03l-.02,1.39-5.12,5.1-.96-.97-2.12,2.12-.21-.22,10.99-10.99s.08.02.12.03h.11c.17,0,.34-.05.49-.14.02-.01.05-.03.07-.04.03-.03.06-.06.09-.09.02-.02.05-.04.06-.07.02-.02.04-.05.06-.07.01-.02.02-.03.02-.04.05-.07.08-.15.1-.23.06-.26.02-.53-.12-.75-.04-.05-.07-.1-.12-.15-.17-.17-.41-.27-.65-.27-.12,0-.23.02-.34.06-.12.04-.22.12-.32.21-.24.24-.32.58-.24.88l-10.99,10.99h0l-.3-.31v-1.59l24.1-24.1.16.09.6.35h0s-.01.01-.01.01l-10.17,10.18v1.14l-1.82,1.82,1.1,1.11-4.55,4.55ZM39.27,38.76c-.1-.11-.1-.28-.01-.39v-.02c.07-.05.14-.08.22-.08s.15.03.21.08c.01.02.02.03.03.05l.02.02s.01.01.01.02c.03.08.03.17-.01.25,0,0,0,.01-.01.02,0,.01-.01.03-.02.04-.01,0-.02.01-.02.02-.01.01-.02.01-.02.02-.01.01-.02.01-.03.02-.01,0-.01,0-.02,0-.01.01-.02.01-.03.01-.07.04-.15.04-.22,0-.01,0-.02,0-.03-.01-.01,0-.01,0-.02,0-.02-.01-.03-.03-.05-.04h0ZM42.44,37.2h0s.25.94.25.94l-.21.21h-.01s-.98-.98-.98-.98l1.42-1.42v-1.15h.01l10.59-10.6.9-.24,1.85-1.84.63.63-14.45,14.45ZM64.97,15.37l-.83-.83h-.01s.32-.34.32-.34h.01s.83.85.83.85l-.32.32ZM65.55,14.79l-.84-.84.33-.33.84.84-.33.33Z"/>
    <path class="cls-4" d="M42.44,37.2l14.45-14.45-.63-.63-1.85,1.84-.9.24-10.59,10.6v1.14h-.01s-1.42,1.43-1.42,1.43l.99.98.21-.21h.01l-.26-.93h0ZM53.74,24.67c.06-.06.16-.11.26-.1.02,0,.06,0,.08.01l.37-.38h.01s.05-.02.07-.02c.06,0,.11.02.16.07.02.02.04.05.06.07h0s0,.01.01.02c.02.05.02.09-.01.13h-.01s-.38.38-.38.38c.03.12,0,.26-.1.35-.14.15-.38.15-.52,0-.15-.14-.15-.38,0-.53ZM51.78,26.64c.06-.07.16-.12.26-.11.02,0,.06,0,.08.01l.37-.38s.01,0,.01-.01h.01s.01-.01.02-.01c.03-.01.07-.01.11.01.03.02.06.04.09.06.05.05.08.1.08.15v.02s0,.02,0,.02t-.01.02s0,.01,0,.02l-.38.37c.03.12,0,.26-.1.35-.14.15-.38.15-.52,0-.15-.14-.15-.38,0-.52ZM48.19,30.23c.06-.07.16-.11.26-.11.02,0,.05,0,.08,0l.37-.37h.01s.01-.01.01-.01c.06-.04.14-.02.22.05.02.02.04.05.06.07h0s0,.02.01.02c.02.05.01.1-.01.13-.01,0-.01.01-.01.01l-.38.38c.03.11,0,.25-.1.34-.14.15-.38.15-.52,0-.15-.14-.15-.38,0-.52ZM45.63,32.79c.06-.07.16-.12.26-.11.02,0,.05,0,.08,0l.37-.37h0s.01,0,.01,0c.06-.04.14-.02.22.05.02.02.04.05.06.07h0s0,.02.01.02c.02.05.01.1-.01.13-.01,0-.01.01-.01.01l-.38.38c.03.11,0,.25-.1.34-.14.15-.38.15-.52,0-.15-.14-.15-.38,0-.52ZM43.52,34.89c.07-.07.17-.11.26-.1.02,0,.06,0,.08.01l.38-.38s.01-.01.02-.01t.01-.01s.03-.01.04-.01c.03,0,.06,0,.09.02.02.02.05.04.07.06s.04.04.06.07c.02.03.02.05.02.08v.02s0,.01-.01.02v.02h0s0,0-.01.02l-.37.37c.02.12-.01.25-.1.35-.15.15-.39.15-.53,0-.15-.15-.15-.38,0-.53Z"/>
    <path class="cls-4" d="M31.55,50.87h0l.67.67.02.04-.14.21h0s-.01.01-.02.03h0s-.02.02-.02.03c-.1.15-.19.29-.24.43,0,.02-.01.03-.02.04-.06.16-.11.34-.06.63.03.18.15.44.27.72,0,.02.01.03.02.04l1.09,3.11h.44l.02.06-2.47.94-.83-4.06-.12-.55h0c-.15-.53-.58-.95-1.11-1.09-.15-.03-.29-.06-.44-.05l-.09-.09,2.07-2.07.95.97Z"/>
    <path class="cls-4" d="M51.55,23.87l-.16-.09h-.01l-24.09,24.1h0v1.59l.31.31h0l4.51-4.52-.11-.43,2.95-2.95-.6-.61,3.58-3.58h1.22c.11-.03.22-.05.34-.05.24,0,.48.1.65.27.05.05.08.1.12.15.15.22.19.49.12.75-.02.08-.05.16-.1.23,0,.01-.01.02-.02.04-.02.02-.04.05-.06.07-.01.03-.04.05-.06.07-.03.03-.06.06-.09.09-.02,0-.05.03-.07.04-.15.09-.32.14-.49.14h-.11s-.08-.02-.12-.03l-10.99,10.99.21.22,2.12-2.12.96.97,5.12-5.1.02-1.39,4.55-4.55-1.11-1.11h.01l1.81-1.82v-1.14h.01l10.17-10.18-.59-.36ZM36.24,44.18l-1.5.98-.3.98-1.5,1.74h-.01l-.02.02c-.06.06-.13.11-.2.13-.08.04-.16.05-.24.05-.06,0-.11-.01-.17-.03-.05-.02-.11-.04-.16-.08-.02-.01-.04-.02-.05-.03-.02,0-.03-.03-.04-.04h-.01s0-.01-.02-.02c-.01,0-.03-.03-.03-.05-.04-.04-.06-.09-.08-.14-.06-.14-.05-.3,0-.44.04-.08.08-.15.14-.21.04-.04.07-.07.11-.1l1.73-1.4h0s.37-.91.37-.91l1.26-.58.07-.04.49-.23h0s.16.39.16.39h0ZM45.08,30.9s0,.07-.02.09l-.38.37s.01.06.01.09c0,.1-.03.19-.11.26-.03.04-.08.06-.12.08-.09.04-.19.04-.28,0-.04-.01-.07-.03-.1-.06,0-.01-.02-.01-.02-.02l-.03-.03c-.09-.11-.11-.26-.06-.38.03-.04.05-.08.09-.12.03-.03.06-.05.1-.07.04-.02.09-.03.13-.03h.03s.06,0,.08.01l.37-.38s.1-.04.16-.01c.03.01.06.03.08.06.02.02.04.04.05.07t.01.01h0v.02s0,.01,0,.02v.02ZM47.32,28.66s0,.07-.02.09l-.38.37s.01.06.01.09c0,.09-.03.17-.11.25h0c-.13.15-.35.16-.5.03-.01-.01-.02-.01-.02-.02-.01-.01-.02-.02-.03-.03-.09-.11-.11-.26-.06-.38.03-.04.05-.08.09-.12.06-.06.17-.11.26-.1.02,0,.06,0,.08.01l.37-.38s.1-.04.16-.01c.03.01.06.03.08.06.02.02.04.04.05.07t0,.01h0s.01.01.01.02v.04ZM50.91,25.08s0,.03-.01.05c0,.01-.01.02-.01.03l-.38.38c.02.07.01.14-.02.21h0c-.02.06-.04.1-.08.13h-.01c-.08.08-.16.11-.26.11-.05,0-.1-.01-.14-.03-.03,0-.07-.02-.1-.05,0-.01-.01-.02-.02-.03-.01,0-.01,0-.02-.02s-.02-.02-.02-.04c-.02-.02-.03-.05-.04-.08-.03-.08-.03-.18,0-.26.02-.05.05-.09.08-.12.03-.03.08-.06.12-.08.05-.02.09-.03.14-.03h.01s.05,0,.07.01l.38-.37c.05-.05.16-.04.23.04.03.02.05.05.06.07h0s.01.02.01.02h0s0,.02.01.03v.03Z"/>
    <path class="cls-4" d="M27.02,52.18l.23.23h-.02c-.05.1-.11.25-.18.43l-.4-.28.38-.38Z"/>
    <path class="cls-3" d="M44.47,34.47c.08.08.1.18.04.24l-.38.38c.03.12,0,.25-.1.35-.15.15-.38.15-.53,0s-.15-.38,0-.53c.07-.07.17-.11.26-.11.02,0,.06,0,.08.01l.38-.38c.06-.06.16-.04.24.04Z"/>
    <polygon class="cls-5" points="43.08 44.1 40.93 47.27 39.12 45.77 41.8 43.08 43.08 44.1"/>
    <polygon class="cls-1" points="33.73 56.82 33.58 56.88 33.56 56.82 33.73 56.82"/>
    <polygon class="cls-1" points="32.22 51.54 32.24 51.57 32.23 51.58 32.22 51.54"/>
  </g>
</svg>