<?xml version="1.0" encoding="UTF-8"?>
<svg id="Layer_2" data-name="Layer 2" xmlns="http://www.w3.org/2000/svg" viewBox="0 0 94.84 89.45">
  <defs>
    <style>
      .cls-1, .cls-2, .cls-3 {
        stroke: #000;
        stroke-linejoin: round;
        stroke-width: 4px;
      }

      .cls-1, .cls-4 {
        fill: #563a15;
      }

      .cls-2 {
        fill: #a86930;
      }

      .cls-5, .cls-6, .cls-4 {
        stroke-width: 0px;
      }

      .cls-5, .cls-3 {
        fill: #835322;
      }

      .cls-6 {
        fill: #332111;
      }
    </style>
  </defs>
  <g>
    <polygon class="cls-1" points="89.69 87.45 89.69 42.17 92.84 35.7 92.84 25.49 89.69 22.44 89.69 6 70.97 6 70.97 64.08 69.22 65.81 69.22 72.65 70.97 76.31 70.97 87.45 89.69 87.45"/>
    <circle class="cls-6" cx="75.5" cy="70.29" r="2.94"/>
    <circle class="cls-6" cx="84.31" cy="17.79" r="2.94"/>
  </g>
  <g>
    <polygon class="cls-1" points="67.52 85.45 67.52 40.17 70.68 33.7 70.68 23.49 67.52 20.44 67.52 4 48.8 4 48.8 62.08 47.05 63.81 47.05 70.65 48.8 74.31 48.8 85.45 67.52 85.45"/>
    <circle class="cls-6" cx="53.33" cy="68.29" r="2.94"/>
    <circle class="cls-6" cx="62.14" cy="15.79" r="2.94"/>
  </g>
  <g>
    <polygon class="cls-1" points="44.69 85.45 44.69 40.17 47.84 33.7 47.84 23.49 44.69 20.44 44.69 4 25.96 4 25.96 62.08 24.22 63.81 24.22 70.65 25.96 74.31 25.96 85.45 44.69 85.45"/>
    <circle class="cls-6" cx="30.5" cy="68.29" r="2.94"/>
    <circle class="cls-6" cx="39.3" cy="15.79" r="2.94"/>
  </g>
  <g>
    <polygon class="cls-1" points="22.47 87.45 22.47 42.17 25.62 35.7 25.62 25.49 22.47 22.44 22.47 6 3.75 6 3.75 64.08 2 65.81 2 72.65 3.75 76.31 3.75 87.45 22.47 87.45"/>
    <circle class="cls-6" cx="8.28" cy="70.29" r="2.94"/>
    <circle class="cls-6" cx="17.08" cy="17.79" r="2.94"/>
  </g>
  <g>
    <polygon class="cls-3" points="35.54 2 35.54 47.28 38.69 53.74 38.69 63.96 35.54 67.01 35.54 83.45 16.82 83.45 16.82 25.36 15.07 23.63 15.07 16.8 16.82 13.13 16.82 2 35.54 2"/>
    <circle class="cls-4" cx="24.22" cy="65.1" r="2.94"/>
    <circle class="cls-4" cx="30.16" cy="15.76" r="2.94"/>
  </g>
  <g>
    <polygon class="cls-3" points="56.5 85.45 56.5 40.17 59.65 33.7 59.65 23.49 56.5 20.44 56.5 4 37.78 4 37.78 62.08 36.03 63.81 36.03 70.65 37.78 74.31 37.78 85.45 56.5 85.45"/>
    <circle class="cls-4" cx="48.18" cy="74.16" r="2.94"/>
    <circle class="cls-4" cx="45.31" cy="39.77" r="2.94"/>
  </g>
  <g>
    <polygon class="cls-3" points="47.96 87.45 47.96 42.17 51.11 35.7 51.11 25.49 47.96 22.44 47.96 6 29.24 6 29.24 64.08 27.49 65.81 27.49 72.65 29.24 76.31 29.24 87.45 47.96 87.45"/>
    <circle class="cls-4" cx="36.64" cy="24.35" r="2.94"/>
    <circle class="cls-4" cx="42.58" cy="73.69" r="2.94"/>
  </g>
  <g>
    <polygon class="cls-3" points="77.88 2 77.88 47.28 81.03 53.74 81.03 63.96 77.88 67.01 77.88 83.45 59.15 83.45 59.15 25.36 57.41 23.63 57.41 16.8 59.15 13.13 59.15 2 77.88 2"/>
    <circle class="cls-4" cx="69.56" cy="13.28" r="2.94"/>
    <circle class="cls-4" cx="66.69" cy="47.68" r="2.94"/>
  </g>
  <g>
    <polygon class="cls-3" points="67.52 87.45 67.52 42.17 70.68 35.7 70.68 25.49 67.52 22.44 67.52 6 48.8 6 48.8 64.08 47.05 65.81 47.05 72.65 48.8 76.31 48.8 87.45 67.52 87.45"/>
    <circle class="cls-4" cx="59.2" cy="76.16" r="2.94"/>
    <circle class="cls-4" cx="56.33" cy="41.77" r="2.94"/>
  </g>
  <g>
    <polygon class="cls-2" points="56.9 4 56.9 49.28 60.05 55.74 60.05 65.96 56.9 69.01 56.9 85.45 38.18 85.45 38.18 27.36 36.43 25.63 36.43 18.8 38.18 15.13 38.18 4 56.9 4"/>
    <circle class="cls-5" cx="45.58" cy="67.1" r="2.94"/>
    <circle class="cls-5" cx="51.52" cy="17.76" r="2.94"/>
  </g>
</svg>