<?xml version="1.0" encoding="UTF-8"?>
<svg width="34.08" height="26.72" id="Layer_2" data-name="Layer 2" xmlns="http://www.w3.org/2000/svg" viewBox="0 0 34.08 26.72">
  <defs>
    <style>
      .cls-1 {
        fill: #a86930;
      }

      .cls-1, .cls-2, .cls-3, .cls-4 {
        stroke-width: 0px;
      }

      .cls-2 {
        fill: #000;
      }

      .cls-3 {
        fill: #332111;
      }

      .cls-4 {
        fill: #563a15;
      }
    </style>
  </defs>
  <g>
    <path class="cls-1" d="M26,9.71v-.91c0-2.65-2.15-4.8-4.81-4.8h-9.23c-2.61.07-4.69,2.19-4.69,4.8v4.12l-3.27.95v3.1l3.27.85v.1c0,2.65,2.15,4.8,4.81,4.8h9.11c2.56,0,4.64-1.99,4.8-4.5l4.09-2.04v-4.63l-4.08-1.84Z"/>
    <polygon class="cls-3" points="4 13.87 4 16.97 7.27 17.82 7.27 12.92 4 13.87"/>
    <polygon class="cls-3" points="26 9.71 25.99 18.22 30.08 16.18 30.08 11.55 26 9.71"/>
    <path class="cls-4" d="M26,8.8c0-2.65-2.15-4.8-4.81-4.8h-9.23c-2.61.07-4.69,2.19-4.69,4.8v9.12c0,2.65,2.15,4.8,4.81,4.8h9.11c2.56,0,4.64-1.99,4.8-4.5v-8.51s.01-.91.01-.91ZM16.63,17.44c-2.25,0-4.08-1.83-4.08-4.08s1.82-4.08,4.08-4.08,4.08,1.83,4.08,4.08-1.82,4.08-4.08,4.08Z"/>
    <path class="cls-3" d="M16.63,9.28c-2.25,0-4.08,1.83-4.08,4.08s1.82,4.08,4.08,4.08,4.08-1.83,4.08-4.08-1.82-4.08-4.08-4.08Z"/>
  </g>
  <path class="cls-2" d="M21.19,4c2.66,0,4.81,2.15,4.81,4.8v.91l4.08,1.84v4.63l-4.09,2.04c-.16,2.51-2.24,4.5-4.8,4.5h-9.11c-2.66,0-4.81-2.15-4.81-4.8v-.1l-3.27-.85v-3.1l3.27-.95v-4.12c0-2.61,2.08-4.73,4.69-4.79h9.18s.05,0,.05,0M21.19,0h-9.23s-.04,0-.04,0h-.04C7.05.12,3.27,3.98,3.27,8.8v1.11l-.39.11-2.88.84v9.19l2.99.78.86.23c1.27,3.3,4.48,5.65,8.23,5.65h9.11c3.76,0,7.02-2.39,8.26-5.76l2.41-1.2,2.21-1.1v-9.69l-2.36-1.06-1.9-.86c-.82-4.02-4.38-7.05-8.63-7.05h0Z"/>
</svg>