<?xml version="1.0" encoding="UTF-8"?>
<svg width="30.81" height="29.98" id="Layer_2" data-name="Layer 2" xmlns="http://www.w3.org/2000/svg" viewBox="0 0 30.81 29.98">
  <defs>
    <style>
      .cls-1 {
        fill: #000;
      }

      .cls-1, .cls-2, .cls-3 {
        stroke-width: 0px;
      }

      .cls-2 {
        fill: #835322;
      }

      .cls-3 {
        fill: #563a15;
      }
    </style>
  </defs>
  <path class="cls-1" d="M15.94,4l1.93,3.26h.05c2.66,0,4.81,2.15,4.81,4.8v.91l4.08,1.84v4.63l-4.09,2.04c-.16,2.51-2.24,4.5-4.8,4.5h-9.11c-2.66,0-4.81-2.15-4.81-4.8v-9.12c0-2.61,2.08-4.73,4.69-4.79l1.74-3.27h5.51M18.22,0h-10.19l-1.13,2.12-.84,1.57C2.52,4.83,0,8.13,0,12.06v9.12c0,4.85,3.95,8.8,8.81,8.8h9.11c3.76,0,7.02-2.39,8.26-5.76l2.41-1.2,2.21-1.1v-9.69l-2.36-1.06-1.9-.86c-.65-3.22-3.07-5.81-6.2-6.71l-.97-1.64-1.16-1.96h0Z"/>
  <polygon class="cls-3" points="17.87 7.26 8.69 7.27 10.43 4 15.94 4 17.87 7.26"/>
  <polygon class="cls-3" points="26.81 14.81 26.81 19.44 22.72 21.48 22.73 12.97 26.81 14.81"/>
  <path class="cls-2" d="M22.73,12.06v9.42c-.17,2.51-2.25,4.5-4.81,4.5h-9.11c-2.66,0-4.81-2.15-4.81-4.8v-9.12c0-2.61,2.08-4.73,4.69-4.79h9.18s.05,0,.05,0c2.66,0,4.81,2.15,4.81,4.8Z"/>
  <path class="cls-3" d="M17.45,16.62c0,2.25-1.82,4.08-4.08,4.08s-4.08-1.83-4.08-4.08,1.82-4.08,4.08-4.08,4.08,1.83,4.08,4.08Z"/>
</svg>