<?xml version="1.0" encoding="UTF-8"?>
<svg id="Layer_2" data-name="Layer 2" xmlns="http://www.w3.org/2000/svg" viewBox="0 0 39.84 37.56">
  <defs>
    <style>
      .cls-1 {
        fill: #a86930;
      }

      .cls-1, .cls-2 {
        stroke-width: 0px;
      }

      .cls-2 {
        fill: #000;
      }

      .cls-3 {
        opacity: .5;
      }
    </style>
  </defs>
  <g class="cls-3">
    <g>
      <path class="cls-1" d="M19.91,35.56c-3.04,0-6.04-.87-8.6-2.47l-.75.75-7.62-7.62,1.63-1.62c-.63-1.83-.92-3.76-.87-5.69l-1.32-.31,2.27-10.52,2.98.67c.26-.31.54-.6.82-.88,2.18-2.18,4.86-3.66,7.83-4.34v-1.52h7.81v1.65c2.76.73,5.26,2.16,7.31,4.21,1.56,1.56,2.79,3.44,3.61,5.48h1.87l.81,10.78h-2.27c-.39,1.25-.93,2.46-1.61,3.58l1.64,1.64-6.05,5-1.12-1.12c-2.51,1.51-5.43,2.33-8.37,2.33Z"/>
      <path class="cls-2" d="M22.08,4v1.28c2.89.44,5.67,1.77,7.89,4,1.75,1.75,2.95,3.85,3.6,6.07h1.44l.51,6.78h-1.66c-.41,2.07-1.29,4.07-2.63,5.83l1.25,1.25-2.95,2.44-1-1c-2.54,1.94-5.58,2.91-8.62,2.91s-6.25-1.02-8.83-3.07l-.53.53-4.8-4.8,1.13-1.13c-1.08-2.44-1.44-5.13-1.08-7.73l-1.08-.25,1.43-6.63,2.23.5c.43-.59.91-1.16,1.45-1.7,2.36-2.36,5.34-3.71,8.41-4.07v-1.21h3.81M26.08,0h-11.81v2.01c-2.71.89-5.21,2.4-7.24,4.44-.03.03-.06.06-.09.09l-3.82-.86-.85,3.94-1.43,6.63-.83,3.84,1.72.4c.08,1.19.27,2.37.58,3.53L.11,26.22l2.83,2.83,4.8,4.8,2.83,2.83,1.09-1.09c2.54,1.29,5.38,1.98,8.26,1.98s5.53-.65,8.01-1.86l1.35,1.35,2.8-2.32,2.95-2.44,3.39-2.8-2.14-2.14c.2-.4.38-.81.54-1.22h3.01s-.32-4.3-.32-4.3l-.51-6.78-.28-3.7h-2.43c-.88-1.81-2.06-3.47-3.49-4.9-1.93-1.93-4.21-3.37-6.72-4.27V0h0Z"/>
    </g>
  </g>
</svg>