<?xml version="1.0" encoding="UTF-8"?>
<svg id="Layer_2" data-name="Layer 2" xmlns="http://www.w3.org/2000/svg" xmlns:xlink="http://www.w3.org/1999/xlink" viewBox="0 0 358.75 185.62">
  <defs>
    <style>
      .cls-1 {
        fill: #000;
      }

      .cls-1, .cls-2, .cls-3, .cls-4, .cls-5, .cls-6 {
        stroke-width: 0px;
      }

      .cls-2 {
        fill: url(#New_Pattern_Swatch_9);
      }

      .cls-3 {
        fill: none;
      }

      .cls-4 {
        fill: #835322;
      }

      .cls-5 {
        fill: url(#New_Pattern_Swatch_10);
      }

      .cls-6 {
        fill: #563a15;
      }

      .cls-7 {
        opacity: .25;
      }
    </style>
    <pattern id="New_Pattern_Swatch_10" data-name="New Pattern Swatch 10" x="0" y="0" width="96.91" height="76.41" patternTransform="translate(270.28 -165.52)" patternUnits="userSpaceOnUse" viewBox="0 0 96.91 76.41">
      <g>
        <rect class="cls-3" width="96.91" height="76.41"/>
        <polygon class="cls-4" points="49.96 53.12 71.18 53.12 71.18 10.87 71.18 10.04 71.18 0 49.96 0 49.96 38.2 49.96 53.12"/>
        <rect class="cls-4" x="49.96" y="56.12" width="21.23" height="20.29"/>
        <rect class="cls-4" x="74.18" y="0" width="21.23" height="8.54"/>
        <polygon class="cls-4" points="95.41 11.54 74.18 11.54 74.18 54.62 74.18 76.41 95.41 76.41 95.41 11.54"/>
        <polygon class="cls-4" points="1.5 1.5 1.5 74.91 22.73 74.91 22.73 38.2 22.73 1.5 1.5 1.5"/>
        <polygon class="cls-4" points="46.96 39.7 25.73 39.7 25.73 76.41 46.96 76.41 46.96 54.62 46.96 39.7"/>
        <rect class="cls-4" x="25.73" y="0" width="21.23" height="36.7"/>
        <path class="cls-6" d="M96.91,0v76.41h-1.5V11.54h-21.23v64.86h-3v-20.29h-21.23v20.29h-3v-36.7h-21.23v36.7H0V0h25.73v36.7h21.23V0h3v53.12h21.23V0h3v8.54h21.23V0h1.5ZM22.73,38.2V1.5H1.5v73.41h21.23v-36.7Z"/>
      </g>
    </pattern>
    <pattern id="New_Pattern_Swatch_9" data-name="New Pattern Swatch 9" x="0" y="0" width="96.91" height="76.41" patternTransform="translate(270.28 -165.52)" patternUnits="userSpaceOnUse" viewBox="0 0 96.91 76.41">
      <g>
        <rect class="cls-3" x="0" width="96.91" height="76.41"/>
        <g>
          <polygon class="cls-4" points="49.96 53.12 71.18 53.12 71.18 10.87 71.18 10.04 71.18 0 49.96 0 49.96 38.2 49.96 53.12"/>
          <rect class="cls-4" x="49.96" y="56.12" width="21.23" height="20.29"/>
          <rect class="cls-4" x="74.18" y="0" width="21.23" height="8.54"/>
          <polygon class="cls-4" points="95.41 11.54 74.18 11.54 74.18 54.62 74.18 76.41 95.41 76.41 95.41 11.54"/>
          <polygon class="cls-4" points="1.5 1.5 1.5 74.91 22.73 74.91 22.73 38.2 22.73 1.5 1.5 1.5"/>
          <polygon class="cls-4" points="46.96 39.7 25.73 39.7 25.73 76.41 46.96 76.41 46.96 54.62 46.96 39.7"/>
          <rect class="cls-4" x="25.73" y="0" width="21.23" height="36.7"/>
          <path class="cls-6" d="M96.91,0v76.41h-1.5V11.54h-21.23v64.86h-3v-20.29h-21.23v20.29h-3v-36.7h-21.23v36.7H0V0h25.73v36.7h21.23V0h3v53.12h21.23V0h3v8.54h21.23V0h1.5ZM22.73,38.2V1.5H1.5v73.41h21.23v-36.7Z"/>
        </g>
        <g class="cls-7">
          <polygon class="cls-1" points="95.41 0 74.18 0 71.18 0 49.96 0 46.96 0 25.73 0 24.23 0 22.73 0 0 0 0 76.41 22.73 76.41 24.23 76.41 25.73 76.41 46.96 76.41 49.96 76.41 71.18 76.41 74.18 76.41 95.41 76.41 96.91 76.41 96.91 10.88 96.91 10.04 96.91 8.54 96.91 0 95.41 0"/>
        </g>
      </g>
    </pattern>
  </defs>
  <g>
    <rect class="cls-5" x="2" y="2" width="179.37" height="181.62" rx="2" ry="2"/>
    <path class="cls-1" d="M179.37,4v177.62H4V4h175.37M179.37,0H4C1.79,0,0,1.79,0,4v177.62c0,2.21,1.79,4,4,4h175.37c2.21,0,4-1.79,4-4V4c0-2.21-1.79-4-4-4h0Z"/>
  </g>
  <g>
    <rect class="cls-2" x="177.37" y="2" width="179.38" height="181.62" rx="2" ry="2"/>
    <path class="cls-1" d="M354.75,4v177.62h-175.38V4h175.38M354.75,0h-175.38c-2.21,0-4,1.79-4,4v177.62c0,2.21,1.79,4,4,4h175.38c2.21,0,4-1.79,4-4V4c0-2.21-1.79-4-4-4h0Z"/>
  </g>
</svg>