<?xml version="1.0" encoding="UTF-8"?>
<svg id="Layer_2" data-name="Layer 2" xmlns="http://www.w3.org/2000/svg" viewBox="0 0 40.09 40.09">
  <defs>
    <style>
      .cls-1 {
        fill: #ada18e;
      }

      .cls-1, .cls-2 {
        stroke-width: 0px;
      }

      .cls-3 {
        fill: #888278;
        stroke: #403c2a;
        stroke-miterlimit: 10;
        stroke-width: 4px;
      }

      .cls-2 {
        fill: #69644f;
      }
    </style>
  </defs>
  <g>
    <path class="cls-3" d="M38.09,20.05c0,.66-.04,1.31-.11,1.96-.3,2.79-1.24,5.4-2.67,7.66-.3.48-.63.94-.98,1.39-2.02,2.64-4.77,4.7-7.95,5.88-1.97.75-4.1,1.15-6.33,1.15s-4.49-.43-6.51-1.21c-3.2-1.23-5.96-3.36-7.97-6.07-.16-.19-.3-.38-.43-.58-.32-.47-.62-.95-.89-1.45-1.43-2.59-2.25-5.57-2.25-8.73,0-2.95.71-5.74,1.96-8.19.03-.07.07-.13.11-.2.55-1.05,1.2-2.03,1.93-2.94,3.31-4.1,8.37-6.72,14.05-6.72s11.16,2.85,14.45,7.25c1.84,2.45,3.06,5.37,3.45,8.56.09.73.14,1.48.14,2.24Z"/>
    <path class="cls-2" d="M7.83,27.5c.46.67.98,1.3,1.56,1.88l-2.61,2.61c-.74-.73-1.41-1.53-2.01-2.41-1.85-2.71-2.94-6-2.94-9.53,0-4.02,1.4-7.71,3.74-10.6.37-.47.78-.91,1.21-1.34l2.62,2.62c-.34.33-.66.67-.95,1.04-1.83,2.26-2.92,5.15-2.92,8.28,0,2.75.84,5.32,2.29,7.44Z"/>
    <path class="cls-2" d="M32.09,27.5c-.46.67-.98,1.3-1.56,1.88l2.61,2.61c.74-.73,1.41-1.53,2.01-2.41,1.85-2.71,2.94-6,2.94-9.53,0-4.02-1.4-7.71-3.74-10.6-.37-.47-.78-.91-1.21-1.34l-2.62,2.62c.34.33.66.67.95,1.04,1.83,2.26,2.92,5.15,2.92,8.28,0,2.75-.84,5.32-2.29,7.44Z"/>
    <path class="cls-2" d="M22.34,30.05l-1.65-2.74h-1.29l-1.65,2.74-2.69,1.85v1.31l3.05,2.07h3.88l3.04-2.07v-1.31l-2.69-1.85ZM21.9,33.1c0,.67-.53,1.21-1.2,1.21h-1.31c-.66,0-1.2-.54-1.2-1.21v-2.46c0-.24.19-.43.44-.43h.31v-.54c0-.12.1-.21.21-.21h1.79c.12,0,.21.09.21.21v.54h.32c.24,0,.43.19.43.43v2.46Z"/>
  </g>
  <path class="cls-1" d="M34.71,28.48c.01.26,0,.52-.02.79-.17.39-.27.85-.32,1.36-.02.14-.03.28-.04.43-2.02,2.64-4.77,4.7-7.95,5.88v-5.44c0-.3-.25-.55-.55-.55s-.56-.25-.56-.56v-1.81c0-1.85-1.5-3.35-3.36-3.35h-3.9c-1.86,0-3.36,1.5-3.36,3.35v1.81c0,.31-.25.56-.55.56s-.56.25-.56.55v5.38c-3.2-1.23-5.96-3.36-7.97-6.07,0-.06-.01-.12-.02-.18-.05-.51-.15-.97-.32-1.36-.02-.28-.02-.56-.02-.83.02-1.46.42-2.74,1.13-3.86.29-.48.64-.92,1.04-1.34,2.72-2.87,7.65-4.3,12.58-4.3s9.85,1.43,12.58,4.29c.4.42.75.87,1.04,1.35.71,1.13,1.12,2.43,1.13,3.9Z"/>
</svg>