<?xml version="1.0" encoding="UTF-8"?>
<svg width="78.17" height="60.64" id="Layer_2" data-name="Layer 2" xmlns="http://www.w3.org/2000/svg" viewBox="0 0 78.17 60.64">
  <defs>
    <style>
      .cls-1 {
        opacity: .5;
      }

      .cls-2 {
        fill: #050505;
      }

      .cls-2, .cls-3, .cls-4 {
        stroke-width: 0px;
      }

      .cls-3 {
        fill: rgba(202, 32, 38, .61);
        fill-rule: evenodd;
      }

      .cls-4 {
        fill: #a48666;
      }
    </style>
  </defs>
  <g class="cls-1">
    <g>
      <polygon class="cls-4" points="2.77 27.76 8.73 21.82 13.41 17.17 28.38 2.29 51.62 9.99 47.92 16.43 45.09 29.49 31.82 32.61 25.08 52.24 2.77 27.76"/>
      <path class="cls-2" d="M28.91,4.57l19.75,6.55-2.63,4.58-2.63,12.13-13.12,3.08-6,17.49-9.81-10.76-4.44-4.87-4.5-4.94,4.61-4.59,4.68-4.65,14.09-14.02M27.84,0l-1.74,1.74-14.09,14.02-4.68,4.65-4.61,4.59-2.71,2.7,2.58,2.83,4.5,4.94,4.44,4.87,9.81,10.76,4.55,4.99,2.19-6.39,5.28-15.4,10.97-2.57,2.46-.58.54-2.47,2.5-11.52,2.32-4.04,2.44-4.25-4.65-1.54L30.17.77l-2.34-.77h0Z"/>
    </g>
    <g>
      <polygon class="cls-4" points="43.98 46 60.38 39.27 66.12 29.87 75.42 46.68 53.12 58.09 43.98 46"/>
      <path class="cls-2" d="M66.03,33.84l6.64,12-18.97,9.7-6.57-8.68,14.6-5.99,4.29-7.03M66.2,25.89l-3.58,5.87-3.61,5.91-13.39,5.5-4.8,1.97,3.13,4.14,6.57,8.68,2.02,2.68,2.99-1.53,18.97-9.7,3.68-1.88-2-3.62-6.64-12-3.33-6.02h0Z"/>
    </g>
    <path class="cls-3" d="M18.27,24.54c-.63-2.34-1.84-4.36-3.45-5.95l-4.68,4.65c.82.79,1.44,1.81,1.76,3,.16.57.23,1.15.23,1.72,0,1.84-.78,3.59-2.1,4.81l4.44,4.87c3.49-3.22,5.12-8.21,3.8-13.1Z"/>
  </g>
</svg>