<?xml version="1.0" encoding="UTF-8" standalone="no"?>
<svg
   id="Layer_2"
   data-name="Layer 2"
   viewBox="0 0 372.64 171.87"
   version="1.1"
   sodipodi:docname="conex_blue.svg"
   inkscape:version="1.2.2 (732a01da63, 2022-12-09)"
   xmlns:inkscape="http://www.inkscape.org/namespaces/inkscape"
   xmlns:sodipodi="http://sodipodi.sourceforge.net/DTD/sodipodi-0.dtd"
   xmlns="http://www.w3.org/2000/svg"
   xmlns:svg="http://www.w3.org/2000/svg">
  <sodipodi:namedview
     id="namedview31"
     pagecolor="#ffffff"
     bordercolor="#000000"
     borderopacity="0.25"
     inkscape:showpageshadow="2"
     inkscape:pageopacity="0.0"
     inkscape:pagecheckerboard="0"
     inkscape:deskcolor="#d1d1d1"
     showgrid="false"
     inkscape:zoom="3.5154571"
     inkscape:cx="237.52245"
     inkscape:cy="41.104185"
     inkscape:window-width="1920"
     inkscape:window-height="991"
     inkscape:window-x="-9"
     inkscape:window-y="-9"
     inkscape:window-maximized="1"
     inkscape:current-layer="Layer_2" />
  <defs
     id="defs4">
    <style
       id="style2">
      .cls-1 {
        fill: #2f4d5b;
      }

      .cls-1, .cls-2, .cls-3 {
        stroke-width: 0px;
      }

      .cls-2 {
        fill: #000;
      }

      .cls-3 {
        fill: #1d3837;
      }
    </style>
  </defs>
  <g
     id="g10"
     transform="matrix(-1.0015268,0,0,1,372.99557,0)">
    <polygon
       class="cls-1"
       points="370.64,169.87 2,169.87 2,148.49 17.64,139.39 17.64,32.48 2,23.38 2,2 370.64,2 "
       id="polygon6" />
    <path
       class="cls-2"
       d="M 368.64,4 V 167.87 H 4 v -18.23 l 15.64,-9.1 V 31.33 L 4,22.23 V 4 h 364.64 m 4,-4 H 0 v 24.53 l 1.99,1.16 13.65,7.94 V 138.24 L 1.99,146.18 0,147.34 v 24.53 h 372.64 z"
       id="path8" />
  </g>
  <g
     id="g28"
     transform="matrix(-1.0015268,0,0,1,372.99557,0)">
    <polygon
       class="cls-3"
       points="4,4 35,4 35,167.87 4,167.87 4,149.64 19.64,140.54 19.64,31.33 4,22.23 "
       id="polygon12" />
    <rect
       class="cls-3"
       x="54"
       y="4"
       width="31"
       height="163.87"
       id="rect14" />
    <rect
       class="cls-3"
       x="105"
       y="4"
       width="31"
       height="163.87"
       id="rect16" />
    <rect
       class="cls-3"
       x="155"
       y="4"
       width="31"
       height="163.87"
       id="rect18" />
    <rect
       class="cls-3"
       x="206"
       y="4"
       width="31"
       height="163.87"
       id="rect20" />
    <rect
       class="cls-3"
       x="256"
       y="4"
       width="31"
       height="163.87"
       id="rect22" />
    <rect
       class="cls-3"
       x="307"
       y="4"
       width="31"
       height="163.87"
       id="rect24" />
    <rect
       class="cls-3"
       x="357"
       y="4"
       width="11.64"
       height="163.87"
       id="rect26" />
  </g>
</svg>
