<?xml version="1.0" encoding="UTF-8"?>
<svg width="795.85" height="1388.43" id="Layer_1" data-name="Layer 1" xmlns="http://www.w3.org/2000/svg" xmlns:xlink="http://www.w3.org/1999/xlink" viewBox="0 0 795.85 1388.43">
  <defs>
    <style>
      .cls-1 {
        fill: #75706e;
      }

      .cls-1, .cls-2, .cls-3, .cls-4, .cls-5, .cls-6, .cls-7, .cls-8, .cls-9 {
        stroke-width: 0px;
      }

      .cls-2, .cls-8 {
        fill: #000;
      }

      .cls-10 {
        opacity: .5;
      }

      .cls-3 {
        fill: #4f4f49;
      }

      .cls-4 {
        fill: #efc130;
      }

      .cls-5 {
        fill: #8c8373;
      }

      .cls-6, .cls-11 {
        fill: none;
      }

      .cls-11 {
        stroke: #8c8373;
        stroke-miterlimit: 10;
        stroke-width: 20px;
      }

      .cls-7 {
        fill: url(#New_Pattern_Swatch_16);
        opacity: .15;
      }

      .cls-8 {
        opacity: .25;
      }

      .cls-9 {
        fill: #5a5a52;
      }
    </style>
    <pattern id="New_Pattern_Swatch_16" data-name="New Pattern Swatch 16" x="0" y="0" width="47.26" height="47.27" patternTransform="translate(-124.73 502.32)" patternUnits="userSpaceOnUse" viewBox="0 0 47.26 47.27">
      <g>
        <rect class="cls-6" width="47.26" height="47.27"/>
        <path class="cls-1" d="M47.26,44.53v2.74h-2.74c.81-1.01,1.73-1.93,2.74-2.74Z"/>
        <polygon class="cls-1" points="47.26 23.63 47.26 23.63 47.26 23.63 47.26 23.63"/>
        <polygon class="cls-1" points="29.53 41.36 29.53 41.37 29.53 41.37 29.53 41.36"/>
        <polygon class="cls-1" points="36.9 34 36.9 34 36.9 34 36.9 34"/>
        <polygon class="cls-1" points="34 36.9 34 36.9 34 36.9 34 36.9"/>
        <path class="cls-1" d="M47.26,0v2.75c-1.73,1.4-3.73,2.49-5.9,3.16.67-2.17,1.75-4.17,3.16-5.91h2.74Z"/>
        <path class="cls-1" d="M26.37,0c-.41.51-.83.99-1.29,1.45-2.04,2.03-4.55,3.59-7.35,4.45.67-2.17,1.76-4.16,3.15-5.9h5.49Z"/>
        <path class="cls-1" d="M41.36,17.72h-.02c-5.61-1.74-10.06-6.22-11.8-11.81,5.6,1.75,10.09,6.21,11.82,11.81Z"/>
        <path class="cls-1" d="M29.54,17.73c-1.75,5.6-6.21,10.08-11.82,11.81,1.73-5.61,6.22-10.06,11.82-11.81Z"/>
        <polygon class="cls-1" points="17.72 5.9 17.73 5.9 17.73 5.9 17.72 5.9"/>
        <path class="cls-1" d="M47.26,20.9v5.48c-1.73,1.4-3.73,2.49-5.89,3.16h-.01c.87-2.8,2.42-5.32,4.46-7.35.45-.46.94-.89,1.44-1.29Z"/>
        <polygon class="cls-1" points="10.36 13.27 10.36 13.27 10.36 13.27 10.36 13.27"/>
        <polygon class="cls-1" points="13.26 10.37 13.26 10.37 13.26 10.37 13.26 10.37"/>
        <path class="cls-1" d="M41.36,41.36c-2.81-.87-5.32-2.42-7.36-4.46-2.04-2.04-3.59-4.57-4.46-7.36,2.79.87,5.32,2.43,7.36,4.46,2.03,2.04,3.59,4.56,4.46,7.36Z"/>
        <path class="cls-1" d="M2.73,0C1.92,1.01,1,1.93,0,2.75V0h2.73Z"/>
        <path class="cls-1" d="M5.9,17.73h0c-.87,2.8-2.43,5.32-4.46,7.35-.46.46-.94.89-1.44,1.3v-5.49c1.73-1.39,3.73-2.48,5.89-3.16h.01Z"/>
        <path class="cls-1" d="M17.72,17.73c-2.8-.87-5.32-2.43-7.35-4.46h-.01c-2.03-2.04-3.59-4.57-4.46-7.36,2.79.87,5.32,2.42,7.36,4.46s3.59,4.55,4.46,7.36Z"/>
        <path class="cls-1" d="M5.9,41.36c-.67,2.17-1.76,4.17-3.16,5.91H0v-2.74c1.74-1.4,3.73-2.49,5.9-3.17Z"/>
        <path class="cls-1" d="M29.53,41.37c-.67,2.16-1.76,4.16-3.16,5.9h-5.48c.4-.5.83-.99,1.29-1.45,2.03-2.03,4.56-3.58,7.35-4.45Z"/>
        <path class="cls-1" d="M17.72,41.36c-1.73-5.61-6.21-10.06-11.81-11.82l.08.1-.09-.09c1.75,5.59,6.2,10.07,11.8,11.8h-.01s.03.01.03.01Z"/>
      </g>
    </pattern>
  </defs>
  <rect class="cls-9" width="795.85" height="1388.43"/>
  <rect class="cls-3" x="183.42" width="429" height="364.25"/>
  <rect class="cls-7" width="795.85" height="1388.43"/>
  <polyline class="cls-11" points="267.18 1138.62 267.18 694.22 397.92 694.22 397.92 546.68"/>
  <path class="cls-5" d="M47.25,1138.62h408.22s0,202.38,0,202.38H47.25s0-202.38,0-202.38M47.25,1118.62h-20v222.38s0,20,0,20h428.22s20,0,20,0v-222.38s0-20,0-20H47.25Z"/>
  <path class="cls-8" d="M76.32,1043.57c-19.79-3.55-30.67,44.14-13.49,52.06,12.63,6.15,26.17-2.24,37.11-8.47,13.75-7.55,23.03-2.62,37.14-.77,58.69,2.82,34.47-72.69-25.57-55.36-6.72,1.96-21.12,13.41-28.32,12.1,0,0-6.86.45-6.86.45Z"/>
  <path class="cls-4" d="M612.42,0H183.42s0,85.06,0,85.06h429s0-85.06,0-85.06ZM195.77,72.65V12.35s61.47,0,61.47,0l-9.66,13.24-34.35,47.06h-17.46ZM236.6,72.65l34.35-47.06,9.66-13.24h38.27s-9.67,13.24-9.67,13.24l-34.35,47.06h-38.26ZM298.23,72.65l34.35-47.06,9.67-13.24h39.98s-9.67,13.24-9.67,13.24l-34.35,47.06h-39.98ZM361.58,72.65l34.35-47.06,9.67-13.24h40.42s-9.66,13.24-9.66,13.24l-34.35,47.06h-40.43ZM425.38,72.65l34.35-47.06,9.66-13.24h38.21s-9.66,13.24-9.66,13.24l-34.35,47.06h-38.21ZM486.95,72.65l34.35-47.06,9.67-13.24h40.02s-9.66,13.24-9.66,13.24l-34.35,47.06h-40.03ZM550.35,72.65l34.35-47.06,9.66-13.24h5.66s0,60.3,0,60.3h-49.67Z"/>
  <path class="cls-8" d="M488.22,1286.3c-3.48-13.7-17.14-20.01-33.75-13.44-10.83,4.17-20.48,13-29.01,22.79-6.18,7.2-11.88,15.3-14.46,23.52-3.06,9.86-2.01,19.28,1.03,26.75,5.96,15.32,27.56,14.42,45.12.84,9.01-6.98,17.01-16.76,23.26-26.35,7.8-11.96,10.59-23.77,7.83-34.08v-.03Z"/>
  <g class="cls-10">
    <path class="cls-2" d="M397.92,168.71l26.4,25.71h-52.8l26.4-25.71M397.92,154.75l-51,49.67h102l-51-49.67h0Z"/>
  </g>
  <path class="cls-8" d="M514.17,891.61c-19.79-3.55-30.67,44.14-13.49,52.06,12.63,6.15,26.17-2.24,37.11-8.47,13.75-7.55,23.03-2.62,37.14-.77,58.69,2.82,34.47-72.69-25.57-55.36-6.72,1.96-21.12,13.41-28.32,12.1,0,0-6.86.45-6.86.45Z"/>
  <path class="cls-8" d="M294.19,745.17c-22.02-7.39-47.93-2.38-61.3,13.92-8.85,10.54-10.23,23.6-8.92,36.56,1.08,9.47,3.95,19.25,11.05,26.94,8.56,9.2,21.94,15.22,35.44,18.45,27.33,6.82,54.45-8.89,60.12-30.87,2.9-11.28.9-23.88-3.15-35.11-5.03-14-16.43-24.42-33.19-29.88l-.05-.02Z"/>
  <path class="cls-8" d="M719.1,1201.27c-12.05-7.39-26.24-2.38-33.56,13.92-4.85,10.54-5.6,23.6-4.88,36.56.59,9.47,2.16,19.25,6.05,26.94,4.69,9.2,12.01,15.22,19.4,18.45,14.96,6.82,29.81-8.89,32.91-30.87,1.58-11.28.49-23.88-1.72-35.11-2.76-14-9-24.42-18.17-29.88l-.03-.02Z"/>
  <path class="cls-8" d="M296.56,494.23c3.38-4.2,1.05-9.54-1.81-13.61-1.6-2.33-3.49-4.54-5.6-6.45-5.47-4.9-12.38-7.8-18.82-11.25-2.02-1.06-4.02-2.17-5.91-3.44-3.51-2.31-6.77-5.49-9.15-8.78-2.53-3.36-4.2-6.98-6.84-10.08-3.71-4.41-9.56-6.79-15.31-6.97-9.32-.27-19.01,3.14-26.08,9.35-5.33,4.73-9.54,11.06-12.37,17.62-1.59,3.67-2.73,7.37-4.1,11.12-1.42,3.91-3.18,7.79-5.27,11.38-1.26,2.18-2.6,4.22-3.93,6.29-2.01,3.11-3.87,6.32-5.12,9.81-1.26,3.78-2.07,7.25-.15,10.27,2.94,3.91,9.18,3.61,14.07,2.64,4.03-.86,7.97-2.41,11.85-3.85,9.32-3.52,18.49-6.86,27.93-9.59,6.85-2,13.88-3.49,21.06-3.89,9.57-.57,18.94.73,28.43,1.86,5.78.53,13.25,2.31,17.08-2.43h.01Z"/>
  <path class="cls-8" d="M721.29,146.06c5.37-.5,7.57-5.9,8.49-10.79.55-2.77.82-5.67.71-8.51-.3-7.34-3.05-14.31-5.07-21.33-.65-2.19-1.25-4.4-1.66-6.63-.8-4.13-.79-8.68-.1-12.68.65-4.16,2.07-7.88,2.45-11.93.57-5.73-1.81-11.58-5.69-15.83-6.31-6.87-15.52-11.43-24.89-12.16-7.11-.52-14.57.88-21.25,3.43-3.74,1.42-7.18,3.19-10.83,4.82-3.79,1.71-7.8,3.16-11.83,4.17-2.44.62-4.83,1.08-7.25,1.57-3.64.73-7.23,1.64-10.6,3.18-3.59,1.73-6.64,3.57-7.47,7.06-.75,4.83,3.82,9.09,7.93,11.92,3.43,2.29,7.29,4.03,11.03,5.8,9.03,4.22,17.81,8.46,26.36,13.32,6.21,3.51,12.18,7.51,17.48,12.38,7.08,6.46,12.69,14.08,18.5,21.67,3.65,4.51,7.59,11.11,13.66,10.54h.02Z"/>
</svg>