<?xml version="1.0" encoding="UTF-8"?><svg id="Layer_1" xmlns="http://www.w3.org/2000/svg" xmlns:xlink="http://www.w3.org/1999/xlink" viewBox="0 0 1436 1832"><defs><style>.cls-1{fill:#453e16;}.cls-1,.cls-2,.cls-3,.cls-4,.cls-5,.cls-6,.cls-7,.cls-8,.cls-9,.cls-10,.cls-11,.cls-12,.cls-13,.cls-14,.cls-15,.cls-16,.cls-17,.cls-18,.cls-19,.cls-20{stroke:#000;}.cls-1,.cls-2,.cls-3,.cls-4,.cls-5,.cls-6,.cls-7,.cls-9,.cls-11,.cls-13,.cls-14,.cls-15,.cls-16,.cls-17,.cls-19,.cls-20{stroke-width:4px;}.cls-1,.cls-3,.cls-21,.cls-4,.cls-5,.cls-6,.cls-22,.cls-7,.cls-9,.cls-10,.cls-14,.cls-23,.cls-24,.cls-16,.cls-17,.cls-25,.cls-20,.cls-26{fill-rule:evenodd;}.cls-1,.cls-3,.cls-4,.cls-5,.cls-6,.cls-7,.cls-9,.cls-27,.cls-12,.cls-13,.cls-14,.cls-15,.cls-16,.cls-17{stroke-miterlimit:10;}.cls-2,.cls-8,.cls-11,.cls-18,.cls-19,.cls-20{stroke-linejoin:round;}.cls-2,.cls-15{fill:#d9ba87;}.cls-28{fill:url(#linear-gradient-2);}.cls-3{fill:#726b2c;}.cls-21{fill:#434343;}.cls-4{fill:#efefef;}.cls-5,.cls-22{fill:#645e53;}.cls-6{fill:#4c5b4f;}.cls-29{fill:#fff;}.cls-7{fill:#8d8475;}.cls-30{opacity:.25;}.cls-8,.cls-31{fill:none;}.cls-8,.cls-10{stroke-width:2.67px;}.cls-32{fill:url(#radial-gradient);}.cls-9{fill:#3d3e45;}.cls-10{stroke-miterlimit:8.9;}.cls-33{fill:#231f20;}.cls-34{fill:#1f1f1f;}.cls-35,.cls-18{fill:#93885a;}.cls-11{fill:#d6a657;}.cls-27{fill:#808184;stroke:#929497;stroke-width:2px;}.cls-36{fill:#666;}.cls-37{fill:url(#New_Pattern_Swatch_24);}.cls-12,.cls-38{fill:#58595b;}.cls-12,.cls-18{stroke-width:3px;}.cls-13{fill:#6d5635;}.cls-39{fill:url(#radial-gradient-2);}.cls-14{fill:#c2b7a3;}.cls-23{fill:#2b342c;}.cls-40{fill:#3d290b;}.cls-41{fill:#404041;}.cls-24{fill:#8c8a77;}.cls-16{fill:#585736;}.cls-17{fill:#274e13;}.cls-25{fill:#af5e4a;}.cls-42{opacity:.1;}.cls-43{fill:#bcb179;}.cls-44{fill:gray;}.cls-45{fill:#6d6e70;}.cls-19{fill:#754f17;}.cls-46{fill:url(#linear-gradient);}.cls-20{fill:#9a9782;}.cls-47{fill:#fbb03b;}.cls-26{fill:#f1c232;}.cls-48{opacity:.5;}</style><pattern id="New_Pattern_Swatch_24" x="0" y="0" width="98.94" height="75.79" patternTransform="translate(561.19 212.23)" patternUnits="userSpaceOnUse" viewBox="0 0 98.94 75.79"><rect class="cls-31" width="98.94" height="75.79"/><polygon class="cls-42" points="35.27 22.64 24.77 29.06 28.27 37.8 37.02 36.05 43.47 30.22 38.18 26.14 35.27 22.64"/><polygon class="cls-42" points="51.53 61.51 47.77 63.81 49.03 66.94 52.16 66.31 54.47 64.22 52.58 62.76 51.53 61.51"/><polygon class="cls-42" points="21.53 21.51 17.77 23.81 19.03 26.94 22.16 26.31 24.47 24.22 22.58 22.76 21.53 21.51"/><polygon class="cls-42" points="95.53 1.51 91.77 3.81 93.03 6.94 96.16 6.31 98.47 4.22 96.58 2.76 95.53 1.51"/><polygon class="cls-42" points="89.53 42.51 85.77 44.81 87.03 47.94 90.16 47.31 92.47 45.22 90.58 43.76 89.53 42.51"/><polygon class="cls-42" points="69.53 17.51 65.77 19.81 67.03 22.94 70.16 22.31 72.47 20.22 70.58 18.76 69.53 17.51"/><polygon class="cls-42" points="32.83 4.55 26.36 8.51 28.52 13.89 33.91 12.82 37.88 9.22 34.62 6.71 32.83 4.55"/><polygon class="cls-42" points="49.63 2.65 46.25 16.68 56.4 21.04 62.21 12.33 62.72 2.14 54.95 3.14 49.63 2.65"/><polygon class="cls-42" points="58.5 68.92 69.1 71.48 72.38 63.81 65.81 59.42 58.11 59.04 58.86 64.91 58.5 68.92"/><polygon class="cls-42" points="60.92 51.79 70.47 45.95 67.29 38 59.33 39.59 53.47 44.89 58.27 48.61 60.92 51.79"/><polygon class="cls-42" points="86.8 31.6 97.47 25.08 93.91 16.19 85.02 17.97 78.47 23.89 83.84 28.04 86.8 31.6"/><polygon class="cls-42" points="11.67 53.14 22.16 46.73 18.66 37.98 9.92 39.73 3.47 45.56 8.75 49.65 11.67 53.14"/><polygon class="cls-42" points="28.62 71.79 40.94 64.26 36.83 54 26.57 56.05 19 62.89 25.2 67.68 28.62 71.79"/><polygon class="cls-42" points="9.62 17.79 21.94 10.26 17.83 0 7.57 2.05 0 8.89 6.2 13.68 9.62 17.79"/><polygon class="cls-42" points="84.17 72.16 91.47 67.7 89.04 61.62 82.95 62.84 78.47 66.89 82.14 69.73 84.17 72.16"/></pattern><linearGradient id="linear-gradient" x1="3313.64" y1="-3481.44" x2="3531.64" y2="-3481.44" gradientTransform="translate(3773.67 3724.64) rotate(-90)" gradientUnits="userSpaceOnUse"><stop offset="0" stop-color="#4ec5e1" stop-opacity=".5"/><stop offset="1" stop-color="#4ec5e1" stop-opacity=".5"/></linearGradient><linearGradient id="linear-gradient-2" x1="3584.48" y1="-2461.58" x2="3643.17" y2="-2402.9" gradientTransform="translate(3773.67 3724.64) rotate(-90)" gradientUnits="userSpaceOnUse"><stop offset="0" stop-color="#929497"/><stop offset="1" stop-color="#404041"/></linearGradient><radialGradient id="radial-gradient" cx="3418.32" cy="-3017.03" fx="3418.32" fy="-3017.03" r="69.98" gradientTransform="translate(3773.67 3724.64) rotate(-90)" gradientUnits="userSpaceOnUse"><stop offset="0" stop-color="#000"/><stop offset=".5" stop-color="#000" stop-opacity=".36"/><stop offset="1" stop-color="#000" stop-opacity="0"/></radialGradient><radialGradient id="radial-gradient-2" cx="2041.32" cy="-3170.03" fx="2041.32" fy="-3170.03" xlink:href="#radial-gradient"/></defs><path class="cls-36" d="M435,1814v-212h427v-202h-417v-814H176v-102H18V120h158V18h1242v1382h-368v414H435ZM380.47,411v-218h-176.47v218h176.47Z"/><path d="M1416,20v1378h-368v414H437v-208h427v-206h-417v-814H178v-102H20V122h158V20h1238M202,413h180.47v-222h-180.47v222M1420,16H174v102H16v368h158v102h269v814h417v198h-427v216h619v-414h368V16h0ZM206,195h172.47v214h-172.47v-214h0Z"/><path class="cls-37" d="M178,122H20v360h158v102h269v814h417v206h-427v208h611v-414h368V20H178v102ZM382.47,191v222h-180.47v-222h180.47Z"/><path class="cls-44" d="M419,1830v-244h427v-170h-417v-814H160v-102H2V104h158V2h1274v1414h-368v414H419ZM1046,1810v-414h368V22H180v102H22v356h158v102h269v814h417v210h-427v204h607Z"/><path d="M1432,4v1410h-368v414H421v-240h427v-174h-417v-814H162v-102H4V106h158V4h1270M20,482h158v102h269v814h417v206h-427v208h611v-414h368V20H178v102H20v360M1436,0H158v102H0v400h158v102h269v814h417v166h-427v248h651v-414h368V0h0ZM182,24h1230v1370h-368v414H441v-200h427v-214h-417v-814H182v-102H24V126h158V24h0Z"/><rect class="cls-46" x="204" y="193" width="176.47" height="218"/><path d="M378.47,195v214h-172.47v-214h172.47M382.47,191h-180.47v222h180.47v-222h0Z"/><path class="cls-36" d="M194,421v-238h196.47v238h-196.47ZM380.47,411v-218h-176.47v218h176.47Z"/><path d="M388.47,185v234h-192.47v-234h192.47M202,413h180.47v-222h-180.47v222M392.47,181h-200.47v242h200.47v-242h0ZM206,195h172.47v214h-172.47v-214h0Z"/><g class="cls-48"><polygon class="cls-29" points="378 212.32 361.18 195.5 366.8 195.5 378 206.7 378 212.32"/></g><g class="cls-48"><polygon class="cls-29" points="378 239.22 334.28 195.5 351.05 195.5 378 222.45 378 239.22"/></g><g class="cls-48"><polygon class="cls-29" points="206.47 391.68 223.29 408.5 217.67 408.5 206.47 397.3 206.47 391.68"/></g><g class="cls-48"><polygon class="cls-29" points="206.47 364.78 250.19 408.5 233.42 408.5 206.47 381.55 206.47 364.78"/></g><path class="cls-30" d="M968.14,1516.36c-2.49,13.87,30.94,21.49,36.49,9.46,4.31-8.85-1.57-18.34-5.94-26.01-5.29-9.63-1.83-16.14-.54-26.03,1.97-41.13-50.94-24.16-38.8,17.92,1.38,4.71,9.4,14.8,8.48,19.85,0,0,.31,4.81.31,4.81Z"/><path class="cls-30" d="M1362.86,776.6c20.73-15.26-13.99-67.38-36.48-58.4-16.84,6.31-20.97,26.29-24.82,41.94-5.09,19.43-17.86,23.7-32,35.18-54.32,52.05,37.17,96.06,73.96,25.02,4.1-7.97,6.15-31.44,13.71-36.97,0,0,5.63-6.76,5.63-6.76Z"/><path class="cls-30" d="M529.27,1249.31c-5.18,15.43-1.67,33.59,9.75,42.96,7.39,6.2,16.54,7.17,25.63,6.25,6.64-.76,13.49-2.77,18.88-7.74,6.44-6,10.66-15.37,12.93-24.84,4.78-19.15-6.23-38.16-21.64-42.13-7.91-2.03-16.73-.63-24.6,2.2-9.81,3.53-17.11,11.52-20.94,23.26v.04Z"/><path class="cls-30" d="M647.27,493.31c-5.18,15.43-1.67,33.59,9.75,42.96,7.39,6.2,16.54,7.17,25.63,6.25,6.64-.76,13.49-2.77,18.88-7.74,6.44-6,10.66-15.37,12.93-24.84,4.78-19.15-6.23-38.16-21.64-42.13-7.91-2.03-16.73-.63-24.6,2.2-9.81,3.53-17.11,11.52-20.94,23.26v.04Z"/><path class="cls-30" d="M1156.27,1227.31c-5.18,15.43-1.67,33.59,9.75,42.96,7.39,6.2,16.54,7.17,25.63,6.25,6.64-.76,13.49-2.77,18.88-7.74,6.44-6,10.66-15.37,12.93-24.84,4.78-19.15-6.23-38.16-21.64-42.13-7.91-2.03-16.73-.63-24.6,2.2-9.81,3.53-17.11,11.52-20.94,23.26v.04Z"/><path class="cls-30" d="M891,279.39c2.57,9.57,12.19,13.86,23.78,9.1,7.55-3.02,14.23-9.3,20.12-16.24,4.27-5.1,8.18-10.83,9.92-16.62,2.05-6.94,1.23-13.53-.97-18.74-4.32-10.68-19.44-9.85-31.62-.17-6.25,4.97-11.76,11.9-16.05,18.68-5.35,8.45-7.2,16.76-5.17,23.95v.02Z"/><path class="cls-30" d="M520.68,747.51c-9.57,2.57-13.86,12.19-9.1,23.78,3.02,7.55,9.3,14.23,16.24,20.12,5.1,4.27,10.83,8.18,16.62,9.92,6.94,2.05,13.53,1.23,18.74-.97,10.68-4.32,9.85-19.44.17-31.62-4.97-6.25-11.9-11.76-18.68-16.05-8.45-5.35-16.76-7.2-23.95-5.17h-.02Z"/><path class="cls-30" d="M1017.53,569.33c-12.09,3.24-17.51,15.4-11.5,30.03,3.82,9.53,11.75,17.98,20.51,25.41,6.44,5.39,13.68,10.34,20.99,12.53,8.76,2.59,17.09,1.55,23.67-1.22,13.49-5.46,12.44-24.56.21-39.95-6.28-7.89-15.04-14.86-23.6-20.28-10.68-6.76-21.17-9.1-30.26-6.53h-.03Z"/><path class="cls-30" d="M1270.82,300.04c-4.92-3.97-11.19-1.23-15.97,2.12-2.73,1.88-5.33,4.1-7.57,6.57-5.75,6.41-9.15,14.53-13.2,22.08-1.25,2.37-2.55,4.72-4.03,6.93-2.71,4.12-6.44,7.94-10.3,10.74-3.94,2.96-8.19,4.93-11.83,8.02-5.17,4.35-7.96,11.22-8.17,17.96-.32,10.94,3.69,22.31,10.97,30.6,5.55,6.26,12.97,11.19,20.67,14.51,4.31,1.87,8.65,3.2,13.05,4.81,4.58,1.67,9.14,3.73,13.35,6.18,2.56,1.48,4.95,3.05,7.38,4.61,3.65,2.36,7.42,4.54,11.51,6.01,4.43,1.48,8.5,2.43,12.05.18,4.58-3.45,4.23-10.77,3.1-16.51-1.01-4.73-2.83-9.36-4.52-13.91-4.13-10.94-8.04-21.7-11.26-32.77-2.34-8.03-4.09-16.28-4.56-24.71-.66-11.23.86-22.22,2.18-33.36.63-6.78,2.71-15.55-2.85-20.04h-.02Z"/><path class="cls-30" d="M504.82,98.04c-4.92-3.97-11.19-1.23-15.97,2.12-2.73,1.88-5.33,4.1-7.57,6.57-5.75,6.41-9.15,14.53-13.2,22.08-1.25,2.37-2.55,4.72-4.03,6.93-2.71,4.12-6.44,7.94-10.3,10.74-3.94,2.96-8.19,4.93-11.83,8.02-5.17,4.35-7.96,11.22-8.17,17.96-.32,10.94,3.69,22.31,10.97,30.6,5.55,6.26,12.97,11.19,20.67,14.51,4.31,1.87,8.65,3.2,13.05,4.81,4.58,1.67,9.14,3.73,13.35,6.18,2.56,1.48,4.95,3.05,7.38,4.61,3.65,2.36,7.42,4.54,11.51,6.01,4.43,1.48,8.5,2.43,12.05.18,4.58-3.45,4.23-10.77,3.1-16.51-1.01-4.73-2.83-9.36-4.52-13.91-4.13-10.94-8.04-21.7-11.26-32.77-2.34-8.03-4.09-16.28-4.56-24.71-.66-11.23.86-22.22,2.18-33.36.63-6.78,2.71-15.55-2.85-20.04h-.02Z"/><path class="cls-30" d="M549.55,1766.79c.59,6.29,6.92,8.88,12.66,9.96,3.25.64,6.65.96,9.98.84,8.61-.35,16.79-3.58,25.02-5.95,2.56-.76,5.16-1.47,7.78-1.95,4.84-.94,10.18-.92,14.88-.11,4.88.76,9.25,2.43,14,2.88,6.73.67,13.59-2.12,18.57-6.67,8.06-7.4,13.41-18.21,14.27-29.21.61-8.35-1.04-17.1-4.03-24.93-1.67-4.39-3.74-8.43-5.65-12.71-2-4.45-3.71-9.15-4.89-13.88-.73-2.87-1.27-5.67-1.85-8.5-.86-4.27-1.92-8.48-3.73-12.44-2.03-4.21-4.19-7.79-8.28-8.76-5.67-.88-10.67,4.48-13.99,9.3-2.68,4.02-4.73,8.55-6.81,12.94-4.95,10.59-9.93,20.9-15.63,30.93-4.12,7.28-8.81,14.29-14.52,20.51-7.58,8.31-16.52,14.88-25.42,21.71-5.29,4.28-13.03,8.9-12.37,16.03v.02Z"/><path class="cls-30" d="M761.55,973.79c.59,6.29,6.92,8.88,12.66,9.96,3.25.64,6.65.96,9.98.84,8.61-.35,16.79-3.58,25.02-5.95,2.56-.76,5.16-1.47,7.78-1.95,4.84-.94,10.18-.92,14.88-.11,4.88.76,9.25,2.43,14,2.88,6.73.67,13.59-2.12,18.57-6.67,8.06-7.4,13.41-18.21,14.27-29.21.61-8.35-1.04-17.1-4.03-24.93-1.67-4.39-3.74-8.43-5.65-12.71-2-4.45-3.71-9.15-4.89-13.88-.73-2.87-1.27-5.67-1.85-8.5-.86-4.27-1.92-8.48-3.73-12.44-2.03-4.21-4.19-7.79-8.28-8.76-5.67-.88-10.67,4.48-13.99,9.3-2.68,4.02-4.73,8.55-6.81,12.94-4.95,10.59-9.93,20.9-15.63,30.93-4.12,7.28-8.81,14.29-14.52,20.51-7.58,8.31-16.52,14.88-25.42,21.71-5.29,4.28-13.03,8.9-12.37,16.03v.02Z"/><rect class="cls-40" x="485" y="624" width="48" height="53"/><path class="cls-19" d="M470.24,644.08c3.35-9,3.15-18.02-.36-27.17-.7-1.82.8-3.75,2.75-3.53,11.21,1.24,22.29,3.09,33.63,2.26.11,0,.23,0,.34,0,11.34.83,22.41-1.02,33.63-2.26,1.94-.21,3.45,1.71,2.75,3.53-3.51,9.15-3.71,18.17-.36,27.17.67,1.81-.75,3.71-2.68,3.54-22.34-1.96-44.68-1.96-67.02,0-1.92.17-3.35-1.73-2.68-3.54Z"/><path class="cls-13" d="M542.61,685.08c-3.35-9-3.15-18.02.36-27.17.7-1.82-.8-3.75-2.75-3.53-11.21,1.24-22.29,3.09-33.63,2.26-.11,0-.23,0-.34,0-11.34.83-22.41-1.02-33.63-2.26-1.94-.21-3.45,1.71-2.75,3.53,3.51,9.15,3.71,18.17.36,27.17-.67,1.81.75,3.71,2.68,3.54,22.34-1.96,44.68-1.96,67.02,0,1.92.17,3.35-1.73,2.68-3.54Z"/><path class="cls-11" d="M538.19,688.01c-8.27-3.08-16.55-2.89-24.95.33-1.68.64-3.44-.74-3.24-2.52,1.14-10.3,2.84-20.47,2.07-30.88,0-.1,0-.21,0-.31.76-10.41-.94-20.58-2.07-30.88-.2-1.78,1.57-3.16,3.24-2.52,8.4,3.23,16.68,3.41,24.95.33,1.66-.62,3.41.69,3.25,2.46-1.8,20.51-1.8,41.02,0,61.54.16,1.77-1.59,3.08-3.25,2.46Z"/><path class="cls-15" d="M480.26,616.05c8.27,3.08,16.55,2.89,24.95-.33,1.68-.64,3.44.74,3.24,2.52-1.14,10.3-2.84,20.47-2.07,30.88,0,.1,0,.21,0,.31-.76,10.41.94,20.58,2.07,30.88.2,1.78-1.57,3.16-3.24,2.52-8.4-3.23-16.68-3.41-24.95-.33-1.66.62-3.41-.69-3.25-2.46,1.8-20.51,1.8-41.02,0-61.54-.16-1.77,1.59-3.08,3.25-2.46Z"/><path class="cls-20" d="M1158.46,1159.01l83.06,5.05,116.69-11.24v92.01l-113.88-6.19-88.64,7.29,5.51-59.81-2.74-27.11Z"/><path class="cls-24" d="M1304.58,1178.64c1.59-.61,4.97,1.02,8.14,1.14,3.18.08,8.71-1.47,10.95-.57,2.24.9,3.09,4.72,2.52,5.9s-3.22.69-5.9,1.14c-2.65.41-7.25,1.87-10.1,1.38-2.85-.45-6.07-2.73-7-4.19-.94-1.51-.2-4.19,1.38-4.8Z"/><path class="cls-24" d="M1322.99,1203.92c-.45,1.51,1.47,6.23,2.52,7,1.06.81,3.46-.73,3.91-2.24s-.04-5.94-1.14-6.72c-1.06-.81-4.85.45-5.29,1.95Z"/><path class="cls-24" d="M1217.62,1214.34c.98.98,2.36,4.84,3.5,6.31,1.14,1.47,2.44,1.43,3.34,2.48s1.91,2.73,2.08,3.83c.2,1.1-.2,2.28-.98,2.77s-2.32,1.06-3.5.33c-1.18-.77-2.32-3.66-3.62-4.84s-3.38-1.34-4.23-2.4c-.86-1.02-.98-2.48-.81-3.79.16-1.34,1.14-3.38,1.87-4.15.73-.77,1.42-1.51,2.36-.53Z"/><path class="cls-24" d="M1265.62,1173.18c1.47.61,5.9,4.56,6.6,6.6s-1.34,5.33-2.52,5.62c-1.18.28-3.58-2.4-4.64-3.91-1.02-1.55-1.63-3.95-1.55-5.33.08-1.38.65-3.58,2.12-2.97Z"/><path class="cls-24" d="M1284.84,1218.62c1.71,1.14,5.78,3.95,7.69,4.48,1.91.53,3.38-.61,3.79-1.26s-.24-1.59-1.38-2.65-3.38-3.3-5.46-3.79c-2.12-.49-6.39.28-7.17.86s.81,1.22,2.52,2.36Z"/><path class="cls-24" d="M1340.37,1162.96c-1.63.33-4.23,3.38-4.07,4.36s3.54,1.87,5.17,1.55,4.8-2.52,4.64-3.5c-.16-1.02-4.11-2.73-5.74-2.4Z"/><path class="cls-24" d="M1344.44,1222.69c-.53-.41-2.52,4.19-3.91,4.93s-3.71-1.22-4.48-.57-1.55,4.15-.29,4.64c1.26.49,6.39-.2,7.86-1.67,1.43-1.51,1.34-6.92.81-7.33Z"/><path class="cls-24" d="M1173.16,1217.64c1.06-.04,1.59,6.03,2.81,7.45,1.22,1.38,3.09.33,4.48.98,1.38.65,3.66,1.99,3.79,2.93.12.98-.98,2.44-3.09,2.81s-7.78.53-9.69-.57c-1.91-1.06-2.12-3.62-1.83-5.9.33-2.24,2.52-7.65,3.54-7.69Z"/><path class="cls-24" d="M1182.73,1182.46c1.02-.2,5.7,5.13,5.62,6.39-.08,1.26-5.25,2.2-6.19,1.1-.94-1.06-.45-7.33.57-7.49Z"/><path class="cls-24" d="M1217.62,1172.77c2.2.45,3.58,4.03,5.74,4.64,2.16.61,5.46-1.71,7.29-.98s3.87,4.07,3.66,5.33c-.24,1.22-2.08,2.12-5.05,2.12s-9.57-.57-12.74-2.12c-3.18-1.51-6.51-5.54-6.31-7,.16-1.55,5.25-2.44,7.41-2Z"/><path class="cls-24" d="M1254.55,1194.23c-1.22.04.08,5.66.98,7.57s3.26,3.95,4.48,3.91,3.87-2.16,2.93-4.07c-.9-1.91-7.17-7.45-8.39-7.41Z"/><path class="cls-24" d="M1255.07,1227.45c-1.83-.77.41-1.79,1.38-2.52,1.02-.73,3.01-1.75,4.64-1.83s3.99.33,5.05,1.38c1.06,1.06,3.09,4.56,1.26,5.05-1.83.53-10.5-1.3-12.34-2.08Z"/><rect class="cls-11" x="1358.57" y="1172.93" width="16" height="35" rx="3.28" ry="3.28" transform="translate(-261.54 394.26) rotate(-15)"/><rect class="cls-2" x="1349.57" y="1186.93" width="16" height="35" rx="3.28" ry="3.28"/><polygon class="cls-6" points="1251.87 1101.12 1250.32 1101.12 1250.32 1095.62 1204.19 1095.62 1204.19 1101.12 1201.78 1101.12 1201.78 1112.58 1204.19 1112.58 1204.19 1118.11 1250.32 1118.11 1250.32 1112.58 1251.87 1112.58 1251.87 1101.12"/><polygon class="cls-23" points="1238.95 1106.14 1238.95 1104.72 1234.06 1104.72 1230.97 1104.72 1223.67 1104.72 1220.49 1104.72 1215.69 1104.72 1215.69 1106.14 1220.49 1106.14 1220.49 1107.55 1215.69 1107.55 1215.69 1108.97 1220.49 1108.97 1223.67 1108.97 1230.97 1108.97 1234.06 1108.97 1238.95 1108.97 1238.95 1107.55 1234.06 1107.55 1234.06 1106.14 1238.95 1106.14"/><polygon class="cls-6" points="1279.87 1131.12 1278.32 1131.12 1278.32 1125.62 1232.19 1125.62 1232.19 1131.12 1229.78 1131.12 1229.78 1142.58 1232.19 1142.58 1232.19 1148.11 1278.32 1148.11 1278.32 1142.58 1279.87 1142.58 1279.87 1131.12"/><polygon class="cls-23" points="1266.95 1136.14 1266.95 1134.72 1262.06 1134.72 1258.97 1134.72 1251.67 1134.72 1248.49 1134.72 1243.69 1134.72 1243.69 1136.14 1248.49 1136.14 1248.49 1137.55 1243.69 1137.55 1243.69 1138.97 1248.49 1138.97 1251.67 1138.97 1258.97 1138.97 1262.06 1138.97 1266.95 1138.97 1266.95 1137.55 1262.06 1137.55 1262.06 1136.14 1266.95 1136.14"/><polygon class="cls-6" points="1126.07 1246.83 1126.07 1248.37 1120.58 1248.37 1120.58 1294.51 1126.07 1294.51 1126.07 1296.91 1137.53 1296.91 1137.53 1294.51 1143.07 1294.51 1143.07 1248.37 1137.53 1248.37 1137.53 1246.83 1126.07 1246.83"/><polygon class="cls-23" points="1131.09 1259.74 1129.68 1259.74 1129.68 1264.64 1129.68 1267.73 1129.68 1275.02 1129.68 1278.2 1129.68 1283 1131.09 1283 1131.09 1278.2 1132.51 1278.2 1132.51 1283 1133.93 1283 1133.93 1278.2 1133.93 1275.02 1133.93 1267.73 1133.93 1264.64 1133.93 1259.74 1132.51 1259.74 1132.51 1264.64 1131.09 1264.64 1131.09 1259.74"/><g class="cls-48"><path class="cls-47" d="M1276.4,1228.62c-.13,0-.26-.05-.35-.15l-2.83-2.83c-.2-.2-.2-.51,0-.71l6.07-6.07s.09-.08.15-.1l2.36-1.06,2.77-2.77c.1-.1.23-.15.35-.15s.25.05.35.14l1.53,1.53c.2.2.2.51,0,.71l-2.77,2.77-1,2.23c-.05.1-.16.25-.26.31l-6.01,6.01c-.1.1-.23.15-.35.15Z"/><path d="M1284.92,1215.28l.11.11,1.41,1.41-2.83,2.83-1.04,2.31-.03.07-.06.03-6.07,6.07-1.38-1.38-1.45-1.45,6.07-6.07,2.44-1.1,2.83-2.83M1284.92,1214.28c-.26,0-.51.1-.71.29l-2.7,2.7-2.27,1.03c-.11.05-.21.12-.3.2l-6.07,6.07c-.19.19-.29.44-.29.71s.11.52.29.71l1.45,1.45,1.38,1.38c.19.19.44.29.71.29s.52-.11.71-.29l5.96-5.96c.17-.1.3-.26.38-.44l.03-.07.96-2.14,2.7-2.7c.19-.19.29-.44.29-.71s-.11-.52-.29-.71l-1.41-1.41-.11-.11c-.2-.2-.45-.29-.71-.29h0Z"/></g><g class="cls-48"><path class="cls-47" d="M1255.4,1215.62c-.13,0-.26-.05-.35-.15l-2.83-2.83c-.2-.2-.2-.51,0-.71l6.07-6.07s.09-.08.15-.1l2.36-1.06,2.77-2.77c.1-.1.23-.15.35-.15s.25.05.35.14l1.53,1.53c.2.2.2.51,0,.71l-2.77,2.77-1,2.23c-.05.1-.16.25-.26.31l-6.01,6.01c-.1.1-.23.15-.35.15Z"/><path d="M1263.92,1202.28l.11.11,1.41,1.41-2.83,2.83-1.04,2.31-.03.07-.06.03-6.07,6.07-1.38-1.38-1.45-1.45,6.07-6.07,2.44-1.1,2.83-2.83M1263.92,1201.28c-.26,0-.51.1-.71.29l-2.7,2.7-2.27,1.03c-.11.05-.21.12-.3.2l-6.07,6.07c-.19.19-.29.44-.29.71s.11.52.29.71l1.45,1.45,1.38,1.38c.19.19.44.29.71.29s.52-.11.71-.29l5.96-5.96c.17-.1.3-.26.38-.44l.03-.07.96-2.14,2.7-2.7c.19-.19.29-.44.29-.71s-.11-.52-.29-.71l-1.41-1.41-.11-.11c-.2-.2-.45-.29-.71-.29h0Z"/></g><g class="cls-48"><path class="cls-47" d="M1298.9,1236.98c-.13,0-.26-.05-.35-.15l-2.77-2.77-2.23-1c-.1-.05-.25-.15-.31-.26l-6.01-6.01c-.2-.2-.2-.51,0-.71l2.83-2.83c.1-.1.23-.15.35-.15s.26.05.35.15l6.07,6.07s.08.09.1.15l1.06,2.36,2.77,2.77c.09.09.15.22.15.35s-.05.26-.15.35l-1.52,1.52c-.1.1-.23.15-.35.15Z"/><path d="M1290.42,1223.61l6.07,6.07,1.1,2.44,2.83,2.83-.11.11-1.41,1.41-2.83-2.83-2.31-1.04-.07-.03-.03-.06-6.07-6.07,1.38-1.38,1.45-1.45M1290.42,1222.61c-.26,0-.51.1-.71.29l-1.45,1.45-1.38,1.38c-.39.39-.39,1.02,0,1.41l5.96,5.96c.1.17.26.3.44.38l.07.03,2.14.96,2.7,2.7c.2.2.45.29.71.29s.51-.1.71-.29l1.41-1.41.11-.11c.39-.39.39-1.02,0-1.41l-2.7-2.7-1.03-2.27c-.05-.11-.12-.21-.2-.3l-6.07-6.07c-.2-.2-.45-.29-.71-.29h0Z"/></g><g class="cls-48"><path class="cls-47" d="M1246.41,1224.88s-.09,0-.12-.01h-8.5c-.28,0-.5-.22-.5-.5v-4c0-.28.22-.5.5-.5h8.59c.06,0,.12.01.18.03l2.42.91h3.91c.28,0,.5.22.5.5v2.15c0,.28-.22.5-.5.5h-3.91l-2.28.87c-.07.03-.18.05-.28.05Z"/><path d="M1246.37,1220.36l2.5.95h4.01v2.15h-4.01l-2.37.9-.07.03-.07-.02h-8.59v-4h8.59M1246.37,1219.36h-8.59c-.55,0-1,.45-1,1v4c0,.55.45,1,1,1h8.43c.07.02.15.02.22.02.12,0,.24-.02.35-.07l.07-.03,2.2-.83h3.82c.55,0,1-.45,1-1v-2.15c0-.55-.45-1-1-1h-3.82l-2.33-.88c-.11-.04-.23-.06-.35-.06h0Z"/></g><g class="cls-48"><path class="cls-47" d="M1269.9,1232.98c-.13,0-.26-.05-.35-.15l-2.77-2.77-2.23-1c-.1-.05-.25-.15-.31-.26l-6.01-6.01c-.2-.2-.2-.51,0-.71l2.83-2.83c.1-.1.23-.15.35-.15s.26.05.35.15l6.07,6.07s.08.09.1.15l1.06,2.36,2.77,2.77c.09.09.15.22.15.35s-.05.26-.15.35l-1.52,1.52c-.1.1-.23.15-.35.15Z"/><path d="M1261.42,1219.61l6.07,6.07,1.1,2.44,2.83,2.83-.11.11-1.41,1.41-2.83-2.83-2.31-1.04-.07-.03-.03-.06-6.07-6.07,1.38-1.38,1.45-1.45M1261.42,1218.61c-.26,0-.51.1-.71.29l-1.45,1.45-1.38,1.38c-.39.39-.39,1.02,0,1.41l5.96,5.96c.1.17.26.3.44.38l.07.03,2.14.96,2.7,2.7c.2.2.45.29.71.29s.51-.1.71-.29l1.41-1.41.11-.11c.39-.39.39-1.02,0-1.41l-2.7-2.7-1.03-2.27c-.05-.11-.12-.21-.2-.3l-6.07-6.07c-.2-.2-.45-.29-.71-.29h0Z"/></g><g class="cls-48"><path class="cls-33" d="M1309.68,1225.59l-.59-.59c-.31-.31-.31-.81,0-1.11h0c.31-.31.31-.81,0-1.11l-2.12-2.12c-.31-.31-.81-.31-1.11,0l-.35.35c-.31.31-.31.81,0,1.11l1.41,1.41c.31.31.31.81,0,1.11l-.59.59c-.31.31-.81.31-1.11,0l-1.41-1.41c-.31-.31-.81-.31-1.11,0l-.35.35c-.31.31-.31.81,0,1.11l2.12,2.12c.31.31.81.31,1.11,0h0c.31-.31.81-.31,1.11,0l.59.59c.31.31.81.31,1.11,0l1.3-1.3c.31-.31.31-.81,0-1.11Z"/></g><g class="cls-48"><path class="cls-33" d="M1281.94,1207.21l-.59-.59c-.31-.31-.31-.81,0-1.11h0c.31-.31.31-.81,0-1.11l-2.12-2.12c-.31-.31-.81-.31-1.11,0l-.35.35c-.31.31-.31.81,0,1.11l1.41,1.41c.31.31.31.81,0,1.11l-.59.59c-.31.31-.81.31-1.11,0l-1.41-1.41c-.31-.31-.81-.31-1.11,0l-.35.35c-.31.31-.31.81,0,1.11l2.12,2.12c.31.31.81.31,1.11,0h0c.31-.31.81-.31,1.11,0l.59.59c.31.31.81.31,1.11,0l1.3-1.3c.31-.31.31-.81,0-1.11Z"/></g><g class="cls-48"><path class="cls-33" d="M1296.27,1214.17h-.84c-.43,0-.79-.35-.79-.79h0c0-.43-.35-.79-.79-.79h-3c-.43,0-.79.35-.79.79v.5c0,.43.35.79.79.79h2c.43,0,.79.35.79.79v.84c0,.43-.35.79-.79.79h-2c-.43,0-.79.35-.79.79v.5c0,.43.35.79.79.79h3c.43,0,.79-.35.79-.79h0c0-.43.35-.79.79-.79h.84c.43,0,.79-.35.79-.79v-1.84c0-.43-.35-.79-.79-.79Z"/></g><g class="cls-48"><path class="cls-33" d="M1253.86,1235l.59-.59c.31-.31.81-.31,1.11,0h0c.31.31.81.31,1.11,0l2.12-2.12c.31-.31.31-.81,0-1.11l-.35-.35c-.31-.31-.81-.31-1.11,0l-1.41,1.41c-.31.31-.81.31-1.11,0l-.59-.59c-.31-.31-.31-.81,0-1.11l1.41-1.41c.31-.31.31-.81,0-1.11l-.35-.35c-.31-.31-.81-.31-1.11,0l-2.12,2.12c-.31.31-.31.81,0,1.11h0c.31.31.31.81,0,1.11l-.59.59c-.31.31-.31.81,0,1.11l1.3,1.3c.31.31.81.31,1.11,0Z"/></g><g class="cls-48"><path class="cls-33" d="M1290.43,1200.44l-.59.59c-.31.31-.31.81,0,1.11h0c.31.31.31.81,0,1.11l-2.12,2.12c-.31.31-.81.31-1.11,0l-.35-.35c-.31-.31-.31-.81,0-1.11l1.41-1.41c.31-.31.31-.81,0-1.11l-.59-.59c-.31-.31-.81-.31-1.11,0l-1.41,1.41c-.31.31-.81.31-1.11,0l-.35-.35c-.31-.31-.31-.81,0-1.11l2.12-2.12c.31-.31.81-.31,1.11,0h0c.31.31.81.31,1.11,0l.59-.59c.31-.31.81-.31,1.11,0l1.3,1.3c.31.31.31.81,0,1.11Z"/></g><g class="cls-48"><path class="cls-38" d="M1195.08,1193.14c-.47,0-.92-.18-1.26-.52l-10.22-10.22c-.34-.34-.52-.78-.52-1.26v-4.21c0-.47.19-.93.52-1.26l6.61-6.61c.34-.33.78-.52,1.26-.52s.92.18,1.26.52l12.32,12.32c.34.34.52.78.52,1.26s-.19.92-.52,1.26l-8.71,8.71c-.34.34-.78.52-1.26.52Z"/><path d="M1191.47,1169.55c.12,0,.35.03.55.23l12.32,12.32c.3.3.3.8,0,1.1l-8.71,8.71c-.2.2-.43.23-.55.23s-.35-.03-.55-.23l-10.22-10.22c-.15-.15-.23-.34-.23-.55v-4.21c0-.21.08-.4.23-.55l6.61-6.61c.2-.2.43-.23.55-.23M1191.47,1167.55c-.71,0-1.42.27-1.96.81l-6.61,6.61c-.52.52-.81,1.23-.81,1.96v4.21c0,.74.29,1.44.81,1.96l10.22,10.22c.54.54,1.25.81,1.96.81s1.42-.27,1.96-.81l8.71-8.71c1.08-1.08,1.08-2.84,0-3.93l-12.32-12.32c-.54-.54-1.25-.81-1.96-.81h0Z"/><polygon class="cls-41" points="1202 1182.39 1194.82 1189.57 1186.27 1181.02 1186.27 1177.58 1191.73 1172.12 1202 1182.39"/></g><g class="cls-48"><path class="cls-38" d="M1201.45,1233.31c-.8,0-1.51-.54-1.71-1.32l-3.19-11.9c-.25-.95.31-1.92,1.26-2.18l16.83-4.51c.15-.04.31-.06.46-.06.8,0,1.51.54,1.71,1.32l2.42,9.02c.12.46.06.94-.18,1.35l-2.1,3.64c-.23.41-.63.71-1.08.83l-13.96,3.74c-.15.04-.31.06-.46.06h0Z"/><path d="M1215.1,1214.35c.35,0,.66.24.75.58l2.42,9.02c.05.2.03.41-.08.59l-2.1,3.64c-.1.18-.27.31-.47.36l-13.96,3.74c-.07.02-.14.03-.2.03-.35,0-.66-.24-.75-.58l-3.19-11.9c-.11-.41.14-.84.55-.95l16.83-4.51c.07-.02.14-.03.2-.03M1215.1,1212.35c-.24,0-.48.03-.72.1l-16.83,4.51c-1.48.4-2.36,1.92-1.96,3.4l3.19,11.9c.33,1.24,1.45,2.06,2.68,2.06.24,0,.48-.03.72-.1l13.96-3.74c.71-.19,1.32-.66,1.69-1.29l2.1-3.64c.37-.64.47-1.4.28-2.11l-2.42-9.02c-.33-1.24-1.45-2.06-2.68-2.06h0Z"/><polygon class="cls-41" points="1199.95 1220.31 1202.57 1230.11 1214.26 1226.98 1215.98 1224.01 1213.98 1216.55 1199.95 1220.31"/></g><rect class="cls-40" x="449" y="909" width="115" height="53" transform="translate(-429 1442) rotate(-90)"/><path class="cls-19" d="M512.92,1007.76c9-3.35,18.02-3.15,27.17.36,1.82.7,3.75-.8,3.53-2.75-1.24-11.21-3.09-22.29-2.26-33.63,0-.11,0-.23,0-.34-.83-11.34,1.02-22.41,2.26-33.63.21-1.94-1.71-3.45-3.53-2.75-9.15,3.51-18.17,3.71-27.17.36-1.81-.67-3.71.75-3.54,2.68,1.96,22.34,1.96,44.68,0,67.02-.17,1.92,1.73,3.35,3.54,2.68Z"/><path class="cls-13" d="M471.92,935.39c9,3.35,18.02,3.15,27.17-.36,1.82-.7,3.75.8,3.53,2.75-1.24,11.21-3.09,22.29-2.26,33.63,0,.11,0,.23,0,.34-.83,11.34,1.02,22.41,2.26,33.63.21,1.94-1.71,3.45-3.53,2.75-9.15-3.51-18.17-3.71-27.17-.36-1.81.67-3.71-.75-3.54-2.68,1.96-22.34,1.96-44.68,0-67.02-.17-1.92,1.73-3.35,3.54-2.68Z"/><path class="cls-11" d="M468.99,939.81c3.08,8.27,2.89,16.55-.33,24.95-.64,1.68.74,3.44,2.52,3.24,10.3-1.14,20.47-2.84,30.88-2.07.1,0,.21,0,.31,0,10.41-.76,20.58.94,30.88,2.07,1.78.2,3.16-1.57,2.52-3.24-3.23-8.4-3.41-16.68-.33-24.95.62-1.66-.69-3.41-2.46-3.25-20.51,1.8-41.02,1.8-61.54,0-1.77-.16-3.08,1.59-2.46,3.25Z"/><path class="cls-15" d="M540.95,997.74c-3.08-8.27-2.89-16.55.33-24.95.64-1.68-.74-3.44-2.52-3.24-10.3,1.14-20.47,2.84-30.88,2.07-.1,0-.21,0-.31,0-10.41.76-20.58-.94-30.88-2.07-1.78-.2-3.16,1.57-2.52,3.24,3.23,8.4,3.41,16.68.33,24.95-.62,1.66.69,3.41,2.46,3.25,20.51-1.8,41.02-1.8,61.54,0,1.77.16,3.08-1.59,2.46-3.25Z"/><path class="cls-19" d="M468.24,903.92c3.35,9,3.15,18.02-.36,27.17-.7,1.82.8,3.75,2.75,3.53,11.21-1.24,22.29-3.09,33.63-2.26.11,0,.23,0,.34,0,11.34-.83,22.41,1.02,33.63,2.26,1.94.21,3.45-1.71,2.75-3.53-3.51-9.15-3.71-18.17-.36-27.17.67-1.81-.75-3.71-2.68-3.54-22.34,1.96-44.68,1.96-67.02,0-1.92-.17-3.35,1.73-2.68,3.54Z"/><path class="cls-13" d="M540.61,862.92c-3.35,9-3.15,18.02.36,27.17.7,1.82-.8,3.75-2.75,3.53-11.21-1.24-22.29-3.09-33.63-2.26-.11,0-.23,0-.34,0-11.34-.83-22.41,1.02-33.63,2.26-1.94.21-3.45-1.71-2.75-3.53,3.51-9.15,3.71-18.17.36-27.17-.67-1.81.75-3.71,2.68-3.54,22.34,1.96,44.68,1.96,67.02,0,1.92-.17,3.35,1.73,2.68,3.54Z"/><path class="cls-11" d="M532.98,862.91c-8.27,3.08-16.55,2.89-24.95-.33-1.68-.64-3.44.74-3.24,2.52,1.14,10.3,2.84,20.47,2.07,30.88,0,.1,0,.21,0,.31.76,10.41-.94,20.58-2.07,30.88-.2,1.78,1.57,3.16,3.24,2.52,8.4-3.23,16.68-3.41,24.95-.33,1.66.62,3.41-.69,3.25-2.46-1.8-20.51-1.8-41.02,0-61.54.16-1.77-1.59-3.08-3.25-2.46Z"/><path class="cls-15" d="M475.05,933.03c8.27-3.08,16.55-2.89,24.95.33,1.68.64,3.44-.74,3.24-2.52-1.14-10.3-2.84-20.47-2.07-30.88,0-.1,0-.21,0-.31-.76-10.41.94-20.58,2.07-30.88.2-1.78-1.57-3.16-3.24-2.52-8.4,3.23-16.68,3.41-24.95.33-1.66-.62-3.41.69-3.25,2.46,1.8,20.51,1.8,41.02,0,61.54-.16,1.77,1.59,3.08,3.25,2.46Z"/><rect class="cls-40" x="1313" y="1291" width="115" height="53" transform="translate(53 2688) rotate(-90)"/><path class="cls-19" d="M1376.92,1389.76c9-3.35,18.02-3.15,27.17.36,1.82.7,3.75-.8,3.53-2.75-1.24-11.21-3.09-22.29-2.26-33.63,0-.11,0-.23,0-.34-.83-11.34,1.02-22.41,2.26-33.63.21-1.94-1.71-3.45-3.53-2.75-9.15,3.51-18.17,3.71-27.17.36-1.81-.67-3.71.75-3.54,2.68,1.96,22.34,1.96,44.68,0,67.02-.17,1.92,1.73,3.35,3.54,2.68Z"/><path class="cls-13" d="M1335.92,1317.39c9,3.35,18.02,3.15,27.17-.36,1.82-.7,3.75.8,3.53,2.75-1.24,11.21-3.09,22.29-2.26,33.63,0,.11,0,.23,0,.34-.83,11.34,1.02,22.41,2.26,33.63.21,1.94-1.71,3.45-3.53,2.75-9.15-3.51-18.17-3.71-27.17-.36-1.81.67-3.71-.75-3.54-2.68,1.96-22.34,1.96-44.68,0-67.02-.17-1.92,1.73-3.35,3.54-2.68Z"/><path class="cls-11" d="M1332.99,1321.81c3.08,8.27,2.89,16.55-.33,24.95-.64,1.68.74,3.44,2.52,3.24,10.3-1.14,20.47-2.84,30.88-2.07.1,0,.21,0,.31,0,10.41-.76,20.58.94,30.88,2.07,1.78.2,3.16-1.57,2.52-3.24-3.23-8.4-3.41-16.68-.33-24.95.62-1.66-.69-3.41-2.46-3.25-20.51,1.8-41.02,1.8-61.54,0-1.77-.16-3.08,1.59-2.46,3.25Z"/><path class="cls-15" d="M1404.95,1379.74c-3.08-8.27-2.89-16.55.33-24.95.64-1.68-.74-3.44-2.52-3.24-10.3,1.14-20.47,2.84-30.88,2.07-.1,0-.21,0-.31,0-10.41.76-20.58-.94-30.88-2.07-1.78-.2-3.16,1.57-2.52,3.24,3.23,8.4,3.41,16.68.33,24.95-.62,1.66.69,3.41,2.46,3.25,20.51-1.8,41.02-1.8,61.54,0,1.77.16,3.08-1.59,2.46-3.25Z"/><path class="cls-19" d="M1332.24,1285.92c3.35,9,3.15,18.02-.36,27.17-.7,1.82.8,3.75,2.75,3.53,11.21-1.24,22.29-3.09,33.63-2.26.11,0,.23,0,.34,0,11.34-.83,22.41,1.02,33.63,2.26,1.94.21,3.45-1.71,2.75-3.53-3.51-9.15-3.71-18.17-.36-27.17.67-1.81-.75-3.71-2.68-3.54-22.34,1.96-44.68,1.96-67.02,0-1.92-.17-3.35,1.73-2.68,3.54Z"/><path class="cls-13" d="M1404.61,1244.92c-3.35,9-3.15,18.02.36,27.17.7,1.82-.8,3.75-2.75,3.53-11.21-1.24-22.29-3.09-33.63-2.26-.11,0-.23,0-.34,0-11.34-.83-22.41,1.02-33.63,2.26-1.94.21-3.45-1.71-2.75-3.53,3.51-9.15,3.71-18.17.36-27.17-.67-1.81.75-3.71,2.68-3.54,22.34,1.96,44.68,1.96,67.02,0,1.92-.17,3.35,1.73,2.68,3.54Z"/><path class="cls-11" d="M1396.98,1244.91c-8.27,3.08-16.55,2.89-24.95-.33-1.68-.64-3.44.74-3.24,2.52,1.14,10.3,2.84,20.47,2.07,30.88,0,.1,0,.21,0,.31.76,10.41-.94,20.58-2.07,30.88-.2,1.78,1.57,3.16,3.24,2.52,8.4-3.23,16.68-3.41,24.95-.33,1.66.62,3.41-.69,3.25-2.46-1.8-20.51-1.8-41.02,0-61.54.16-1.77-1.59-3.08-3.25-2.46Z"/><path class="cls-15" d="M1339.05,1315.03c8.27-3.08,16.55-2.89,24.95.33,1.68.64,3.44-.74,3.24-2.52-1.14-10.3-2.84-20.47-2.07-30.88,0-.1,0-.21,0-.31-.76-10.41.94-20.58,2.07-30.88.2-1.78-1.57-3.16-3.24-2.52-8.4,3.23-16.68,3.41-24.95.33-1.66-.62-3.41.69-3.25,2.46,1.8,20.51,1.8,41.02,0,61.54-.16,1.77,1.59,3.08,3.25,2.46Z"/><rect class="cls-40" x="1190" y="1321" width="115" height="53" transform="translate(2495 2695) rotate(180)"/><path class="cls-19" d="M1319.76,1341.08c-3.35-9-3.15-18.02.36-27.17.7-1.82-.8-3.75-2.75-3.53-11.21,1.24-22.29,3.09-33.63,2.26-.11,0-.23,0-.34,0-11.34.83-22.41-1.02-33.63-2.26-1.94-.21-3.45,1.71-2.75,3.53,3.51,9.15,3.71,18.17.36,27.17-.67,1.81.75,3.71,2.68,3.54,22.34-1.96,44.68-1.96,67.02,0,1.92.17,3.35-1.73,2.68-3.54Z"/><path class="cls-13" d="M1247.39,1382.08c3.35-9,3.15-18.02-.36-27.17-.7-1.82.8-3.75,2.75-3.53,11.21,1.24,22.29,3.09,33.63,2.26.11,0,.23,0,.34,0,11.34.83,22.41-1.02,33.63-2.26,1.94-.21,3.45,1.71,2.75,3.53-3.51,9.15-3.71,18.17-.36,27.17.67,1.81-.75,3.71-2.68,3.54-22.34-1.96-44.68-1.96-67.02,0-1.92.17-3.35-1.73-2.68-3.54Z"/><path class="cls-11" d="M1251.81,1385.01c8.27-3.08,16.55-2.89,24.95.33,1.68.64,3.44-.74,3.24-2.52-1.14-10.3-2.84-20.47-2.07-30.88,0-.1,0-.21,0-.31-.76-10.41.94-20.58,2.07-30.88.2-1.78-1.57-3.16-3.24-2.52-8.4,3.23-16.68,3.41-24.95.33-1.66-.62-3.41.69-3.25,2.46,1.8,20.51,1.8,41.02,0,61.54-.16,1.77,1.59,3.08,3.25,2.46Z"/><path class="cls-15" d="M1309.74,1313.05c-8.27,3.08-16.55,2.89-24.95-.33-1.68-.64-3.44.74-3.24,2.52,1.14,10.3,2.84,20.47,2.07,30.88,0,.1,0,.21,0,.31.76,10.41-.94,20.58-2.07,30.88-.2,1.78,1.57,3.16,3.24,2.52,8.4-3.23,16.68-3.41,24.95-.33,1.66.62,3.41-.69,3.25-2.46-1.8-20.51-1.8-41.02,0-61.54.16-1.77-1.59-3.08-3.25-2.46Z"/><path class="cls-19" d="M1215.92,1385.76c9-3.35,18.02-3.15,27.17.36,1.82.7,3.75-.8,3.53-2.75-1.24-11.21-3.09-22.29-2.26-33.63,0-.11,0-.23,0-.34-.83-11.34,1.02-22.41,2.26-33.63.21-1.94-1.71-3.45-3.53-2.75-9.15,3.51-18.17,3.71-27.17.36-1.81-.67-3.71.75-3.54,2.68,1.96,22.34,1.96,44.68,0,67.02-.17,1.92,1.73,3.35,3.54,2.68Z"/><path class="cls-13" d="M1174.92,1313.39c9,3.35,18.02,3.15,27.17-.36,1.82-.7,3.75.8,3.53,2.75-1.24,11.21-3.09,22.29-2.26,33.63,0,.11,0,.23,0,.34-.83,11.34,1.02,22.41,2.26,33.63.21,1.94-1.71,3.45-3.53,2.75-9.15-3.51-18.17-3.71-27.17-.36-1.81.67-3.71-.75-3.54-2.68,1.96-22.34,1.96-44.68,0-67.02-.17-1.92,1.73-3.35,3.54-2.68Z"/><path class="cls-11" d="M1174.91,1321.02c3.08,8.27,2.89,16.55-.33,24.95-.64,1.68.74,3.44,2.52,3.24,10.3-1.14,20.47-2.84,30.88-2.07.1,0,.21,0,.31,0,10.41-.76,20.58.94,30.88,2.07,1.78.2,3.16-1.57,2.52-3.24-3.23-8.4-3.41-16.68-.33-24.95.62-1.66-.69-3.41-2.46-3.25-20.51,1.8-41.02,1.8-61.54,0-1.77-.16-3.08,1.59-2.46,3.25Z"/><path class="cls-15" d="M1245.03,1378.95c-3.08-8.27-2.89-16.55.33-24.95.64-1.68-.74-3.44-2.52-3.24-10.3,1.14-20.47,2.84-30.88,2.07-.1,0-.21,0-.31,0-10.41.76-20.58-.94-30.88-2.07-1.78-.2-3.16,1.57-2.52,3.24,3.23,8.4,3.41,16.68.33,24.95-.62,1.66.69,3.41,2.46,3.25,20.51-1.8,41.02-1.8,61.54,0,1.77.16,3.08-1.59,2.46-3.25Z"/><rect class="cls-40" x="429" y="1687" width="115" height="53" transform="translate(-1227 2200) rotate(-90)"/><path class="cls-19" d="M492.92,1785.76c9-3.35,18.02-3.15,27.17.36,1.82.7,3.75-.8,3.53-2.75-1.24-11.21-3.09-22.29-2.26-33.63,0-.11,0-.23,0-.34-.83-11.34,1.02-22.41,2.26-33.63.21-1.94-1.71-3.45-3.53-2.75-9.15,3.51-18.17,3.71-27.17.36-1.81-.67-3.71.75-3.54,2.68,1.96,22.34,1.96,44.68,0,67.02-.17,1.92,1.73,3.35,3.54,2.68Z"/><path class="cls-13" d="M451.92,1713.39c9,3.35,18.02,3.15,27.17-.36,1.82-.7,3.75.8,3.53,2.75-1.24,11.21-3.09,22.29-2.26,33.63,0,.11,0,.23,0,.34-.83,11.34,1.02,22.41,2.26,33.63.21,1.94-1.71,3.45-3.53,2.75-9.15-3.51-18.17-3.71-27.17-.36-1.81.67-3.71-.75-3.54-2.68,1.96-22.34,1.96-44.68,0-67.02-.17-1.92,1.73-3.35,3.54-2.68Z"/><path class="cls-11" d="M448.99,1717.81c3.08,8.27,2.89,16.55-.33,24.95-.64,1.68.74,3.44,2.52,3.24,10.3-1.14,20.47-2.84,30.88-2.07.1,0,.21,0,.31,0,10.41-.76,20.58.94,30.88,2.07,1.78.2,3.16-1.57,2.52-3.24-3.23-8.4-3.41-16.68-.33-24.95.62-1.66-.69-3.41-2.46-3.25-20.51,1.8-41.02,1.8-61.54,0-1.77-.16-3.08,1.59-2.46,3.25Z"/><path class="cls-15" d="M520.95,1775.74c-3.08-8.27-2.89-16.55.33-24.95.64-1.68-.74-3.44-2.52-3.24-10.3,1.14-20.47,2.84-30.88,2.07-.1,0-.21,0-.31,0-10.41.76-20.58-.94-30.88-2.07-1.78-.2-3.16,1.57-2.52,3.24,3.23,8.4,3.41,16.68.33,24.95-.62,1.66.69,3.41,2.46,3.25,20.51-1.8,41.02-1.8,61.54,0,1.77.16,3.08-1.59,2.46-3.25Z"/><path class="cls-19" d="M448.24,1681.92c3.35,9,3.15,18.02-.36,27.17-.7,1.82.8,3.75,2.75,3.53,11.21-1.24,22.29-3.09,33.63-2.26.11,0,.23,0,.34,0,11.34-.83,22.41,1.02,33.63,2.26,1.94.21,3.45-1.71,2.75-3.53-3.51-9.15-3.71-18.17-.36-27.17.67-1.81-.75-3.71-2.68-3.54-22.34,1.96-44.68,1.96-67.02,0-1.92-.17-3.35,1.73-2.68,3.54Z"/><path class="cls-13" d="M520.61,1640.92c-3.35,9-3.15,18.02.36,27.17.7,1.82-.8,3.75-2.75,3.53-11.21-1.24-22.29-3.09-33.63-2.26-.11,0-.23,0-.34,0-11.34-.83-22.41,1.02-33.63,2.26-1.94.21-3.45-1.71-2.75-3.53,3.51-9.15,3.71-18.17.36-27.17-.67-1.81.75-3.71,2.68-3.54,22.34,1.96,44.68,1.96,67.02,0,1.92-.17,3.35,1.73,2.68,3.54Z"/><path class="cls-11" d="M512.98,1640.91c-8.27,3.08-16.55,2.89-24.95-.33-1.68-.64-3.44.74-3.24,2.52,1.14,10.3,2.84,20.47,2.07,30.88,0,.1,0,.21,0,.31.76,10.41-.94,20.58-2.07,30.88-.2,1.78,1.57,3.16,3.24,2.52,8.4-3.23,16.68-3.41,24.95-.33,1.66.62,3.41-.69,3.25-2.46-1.8-20.51-1.8-41.02,0-61.54.16-1.77-1.59-3.08-3.25-2.46Z"/><path class="cls-15" d="M455.05,1711.03c8.27-3.08,16.55-2.89,24.95.33,1.68.64,3.44-.74,3.24-2.52-1.14-10.3-2.84-20.47-2.07-30.88,0-.1,0-.21,0-.31-.76-10.41.94-20.58,2.07-30.88.2-1.78-1.57-3.16-3.24-2.52-8.4,3.23-16.68,3.41-24.95.33-1.66-.62-3.41.69-3.25,2.46,1.8,20.51,1.8,41.02,0,61.54-.16,1.77,1.59,3.08,3.25,2.46Z"/><rect class="cls-40" x="460.35" y="750" width="115" height="53" transform="translate(-258.65 1294.35) rotate(-90)"/><path class="cls-19" d="M511.42,848.76c-9-3.35-18.02-3.15-27.17.36-1.82.7-3.75-.8-3.53-2.75,1.24-11.21,3.09-22.29,2.26-33.63,0-.11,0-.23,0-.34.83-11.34-1.02-22.41-2.26-33.63-.21-1.94,1.71-3.45,3.53-2.75,9.15,3.51,18.17,3.71,27.17.36,1.81-.67,3.71.75,3.54,2.68-1.96,22.34-1.96,44.68,0,67.02.17,1.92-1.73,3.35-3.54,2.68Z"/><path class="cls-13" d="M552.42,776.39c-9,3.35-18.02,3.15-27.17-.36-1.82-.7-3.75.8-3.53,2.75,1.24,11.21,3.09,22.29,2.26,33.63,0,.11,0,.23,0,.34.83,11.34-1.02,22.41-2.26,33.63-.21,1.94,1.71,3.45,3.53,2.75,9.15-3.51,18.17-3.71,27.17-.36,1.81.67,3.71-.75,3.54-2.68-1.96-22.34-1.96-44.68,0-67.02.17-1.92-1.73-3.35-3.54-2.68Z"/><path class="cls-11" d="M555.36,780.81c-3.08,8.27-2.89,16.55.33,24.95.64,1.68-.74,3.44-2.52,3.24-10.3-1.14-20.47-2.84-30.88-2.07-.1,0-.21,0-.31,0-10.41-.76-20.58.94-30.88,2.07-1.78.2-3.16-1.57-2.52-3.24,3.23-8.4,3.41-16.68.33-24.95-.62-1.66.69-3.41,2.46-3.25,20.51,1.8,41.02,1.8,61.54,0,1.77-.16,3.08,1.59,2.46,3.25Z"/><path class="cls-15" d="M483.4,838.74c3.08-8.27,2.89-16.55-.33-24.95-.64-1.68.74-3.44,2.52-3.24,10.3,1.14,20.47,2.84,30.88,2.07.1,0,.21,0,.31,0,10.41.76,20.58-.94,30.88-2.07,1.78-.2,3.16,1.57,2.52,3.24-3.23,8.4-3.41,16.68-.33,24.95.62,1.66-.69,3.41-2.46,3.25-20.51-1.8-41.02-1.8-61.54,0-1.77.16-3.08-1.59-2.46-3.25Z"/><path class="cls-19" d="M556.11,744.92c-3.35,9-3.15,18.02.36,27.17.7,1.82-.8,3.75-2.75,3.53-11.21-1.24-22.29-3.09-33.63-2.26-.11,0-.23,0-.34,0-11.34-.83-22.41,1.02-33.63,2.26-1.94.21-3.45-1.71-2.75-3.53,3.51-9.15,3.71-18.17.36-27.17-.67-1.81.75-3.71,2.68-3.54,22.34,1.96,44.68,1.96,67.02,0,1.92-.17,3.35,1.73,2.68,3.54Z"/><path class="cls-13" d="M483.74,703.92c3.35,9,3.15,18.02-.36,27.17-.7,1.82.8,3.75,2.75,3.53,11.21-1.24,22.29-3.09,33.63-2.26.11,0,.23,0,.34,0,11.34-.83,22.41,1.02,33.63,2.26,1.94.21,3.45-1.71,2.75-3.53-3.51-9.15-3.71-18.17-.36-27.17.67-1.81-.75-3.71-2.68-3.54-22.34,1.96-44.68,1.96-67.02,0-1.92-.17-3.35,1.73-2.68,3.54Z"/><path class="cls-11" d="M491.37,703.91c8.27,3.08,16.55,2.89,24.95-.33,1.68-.64,3.44.74,3.24,2.52-1.14,10.3-2.84,20.47-2.07,30.88,0,.1,0,.21,0,.31-.76,10.41.94,20.58,2.07,30.88.2,1.78-1.57,3.16-3.24,2.52-8.4-3.23-16.68-3.41-24.95-.33-1.66.62-3.41-.69-3.25-2.46,1.8-20.51,1.8-41.02,0-61.54-.16-1.77,1.59-3.08,3.25-2.46Z"/><path class="cls-15" d="M549.3,774.03c-8.27-3.08-16.55-2.89-24.95.33-1.68.64-3.44-.74-3.24-2.52,1.14-10.3,2.84-20.47,2.07-30.88,0-.1,0-.21,0-.31.76-10.41-.94-20.58-2.07-30.88-.2-1.78,1.57-3.16,3.24-2.52,8.4,3.23,16.68,3.41,24.95.33,1.66-.62,3.41.69,3.25,2.46-1.8,20.51-1.8,41.02,0,61.54.16,1.77-1.59,3.08-3.25,2.46Z"/><rect class="cls-40" x="1305" y="1064" width="115" height="53" transform="translate(272 2453) rotate(-90)"/><path class="cls-19" d="M1356.08,1162.76c-9-3.35-18.02-3.15-27.17.36-1.82.7-3.75-.8-3.53-2.75,1.24-11.21,3.09-22.29,2.26-33.63,0-.11,0-.23,0-.34.83-11.34-1.02-22.41-2.26-33.63-.21-1.94,1.71-3.45,3.53-2.75,9.15,3.51,18.17,3.71,27.17.36,1.81-.67,3.71.75,3.54,2.68-1.96,22.34-1.96,44.68,0,67.02.17,1.92-1.73,3.35-3.54,2.68Z"/><path class="cls-13" d="M1397.08,1090.39c-9,3.35-18.02,3.15-27.17-.36-1.82-.7-3.75.8-3.53,2.75,1.24,11.21,3.09,22.29,2.26,33.63,0,.11,0,.23,0,.34.83,11.34-1.02,22.41-2.26,33.63-.21,1.94,1.71,3.45,3.53,2.75,9.15-3.51,18.17-3.71,27.17-.36,1.81.67,3.71-.75,3.54-2.68-1.96-22.34-1.96-44.68,0-67.02.17-1.92-1.73-3.35-3.54-2.68Z"/><path class="cls-11" d="M1400.01,1094.81c-3.08,8.27-2.89,16.55.33,24.95.64,1.68-.74,3.44-2.52,3.24-10.3-1.14-20.47-2.84-30.88-2.07-.1,0-.21,0-.31,0-10.41-.76-20.58.94-30.88,2.07-1.78.2-3.16-1.57-2.52-3.24,3.23-8.4,3.41-16.68.33-24.95-.62-1.66.69-3.41,2.46-3.25,20.51,1.8,41.02,1.8,61.54,0,1.77-.16,3.08,1.59,2.46,3.25Z"/><path class="cls-15" d="M1328.05,1152.74c3.08-8.27,2.89-16.55-.33-24.95-.64-1.68.74-3.44,2.52-3.24,10.3,1.14,20.47,2.84,30.88,2.07.1,0,.21,0,.31,0,10.41.76,20.58-.94,30.88-2.07,1.78-.2,3.16,1.57,2.52,3.24-3.23,8.4-3.41,16.68-.33,24.95.62,1.66-.69,3.41-2.46,3.25-20.51-1.8-41.02-1.8-61.54,0-1.77.16-3.08-1.59-2.46-3.25Z"/><path class="cls-19" d="M1400.76,1058.92c-3.35,9-3.15,18.02.36,27.17.7,1.82-.8,3.75-2.75,3.53-11.21-1.24-22.29-3.09-33.63-2.26-.11,0-.23,0-.34,0-11.34-.83-22.41,1.02-33.63,2.26-1.94.21-3.45-1.71-2.75-3.53,3.51-9.15,3.71-18.17.36-27.17-.67-1.81.75-3.71,2.68-3.54,22.34,1.96,44.68,1.96,67.02,0,1.92-.17,3.35,1.73,2.68,3.54Z"/><path class="cls-13" d="M1328.39,1017.92c3.35,9,3.15,18.02-.36,27.17-.7,1.82.8,3.75,2.75,3.53,11.21-1.24,22.29-3.09,33.63-2.26.11,0,.23,0,.34,0,11.34-.83,22.41,1.02,33.63,2.26,1.94.21,3.45-1.71,2.75-3.53-3.51-9.15-3.71-18.17-.36-27.17.67-1.81-.75-3.71-2.68-3.54-22.34,1.96-44.68,1.96-67.02,0-1.92-.17-3.35,1.73-2.68,3.54Z"/><path class="cls-11" d="M1336.02,1017.91c8.27,3.08,16.55,2.89,24.95-.33,1.68-.64,3.44.74,3.24,2.52-1.14,10.3-2.84,20.47-2.07,30.88,0,.1,0,.21,0,.31-.76,10.41.94,20.58,2.07,30.88.2,1.78-1.57,3.16-3.24,2.52-8.4-3.23-16.68-3.41-24.95-.33-1.66.62-3.41-.69-3.25-2.46,1.8-20.51,1.8-41.02,0-61.54-.16-1.77,1.59-3.08,3.25-2.46Z"/><path class="cls-15" d="M1393.95,1088.03c-8.27-3.08-16.55-2.89-24.95.33-1.68.64-3.44-.74-3.24-2.52,1.14-10.3,2.84-20.47,2.07-30.88,0-.1,0-.21,0-.31.76-10.41-.94-20.58-2.07-30.88-.2-1.78,1.57-3.16,3.24-2.52,8.4,3.23,16.68,3.41,24.95.33,1.66-.62,3.41.69,3.25,2.46-1.8,20.51-1.8,41.02,0,61.54.16,1.77-1.59,3.08-3.25,2.46Z"/><rect class="cls-40" x="1306" y="895" width="115" height="53" transform="translate(442 2285) rotate(-90)"/><path class="cls-19" d="M1369.92,993.76c9-3.35,18.02-3.15,27.17.36,1.82.7,3.75-.8,3.53-2.75-1.24-11.21-3.09-22.29-2.26-33.63,0-.11,0-.23,0-.34-.83-11.34,1.02-22.41,2.26-33.63.21-1.94-1.71-3.45-3.53-2.75-9.15,3.51-18.17,3.71-27.17.36-1.81-.67-3.71.75-3.54,2.68,1.96,22.34,1.96,44.68,0,67.02-.17,1.92,1.73,3.35,3.54,2.68Z"/><path class="cls-13" d="M1328.92,921.39c9,3.35,18.02,3.15,27.17-.36,1.82-.7,3.75.8,3.53,2.75-1.24,11.21-3.09,22.29-2.26,33.63,0,.11,0,.23,0,.34-.83,11.34,1.02,22.41,2.26,33.63.21,1.94-1.71,3.45-3.53,2.75-9.15-3.51-18.17-3.71-27.17-.36-1.81.67-3.71-.75-3.54-2.68,1.96-22.34,1.96-44.68,0-67.02-.17-1.92,1.73-3.35,3.54-2.68Z"/><path class="cls-11" d="M1325.99,925.81c3.08,8.27,2.89,16.55-.33,24.95-.64,1.68.74,3.44,2.52,3.24,10.3-1.14,20.47-2.84,30.88-2.07.1,0,.21,0,.31,0,10.41-.76,20.58.94,30.88,2.07,1.78.2,3.16-1.57,2.52-3.24-3.23-8.4-3.41-16.68-.33-24.95.62-1.66-.69-3.41-2.46-3.25-20.51,1.8-41.02,1.8-61.54,0-1.77-.16-3.08,1.59-2.46,3.25Z"/><path class="cls-15" d="M1397.95,983.74c-3.08-8.27-2.89-16.55.33-24.95.64-1.68-.74-3.44-2.52-3.24-10.3,1.14-20.47,2.84-30.88,2.07-.1,0-.21,0-.31,0-10.41.76-20.58-.94-30.88-2.07-1.78-.2-3.16,1.57-2.52,3.24,3.23,8.4,3.41,16.68.33,24.95-.62,1.66.69,3.41,2.46,3.25,20.51-1.8,41.02-1.8,61.54,0,1.77.16,3.08-1.59,2.46-3.25Z"/><path class="cls-19" d="M1325.24,889.92c3.35,9,3.15,18.02-.36,27.17-.7,1.82.8,3.75,2.75,3.53,11.21-1.24,22.29-3.09,33.63-2.26.11,0,.23,0,.34,0,11.34-.83,22.41,1.02,33.63,2.26,1.94.21,3.45-1.71,2.75-3.53-3.51-9.15-3.71-18.17-.36-27.17.67-1.81-.75-3.71-2.68-3.54-22.34,1.96-44.68,1.96-67.02,0-1.92-.17-3.35,1.73-2.68,3.54Z"/><path class="cls-13" d="M1397.61,848.92c-3.35,9-3.15,18.02.36,27.17.7,1.82-.8,3.75-2.75,3.53-11.21-1.24-22.29-3.09-33.63-2.26-.11,0-.23,0-.34,0-11.34-.83-22.41,1.02-33.63,2.26-1.94.21-3.45-1.71-2.75-3.53,3.51-9.15,3.71-18.17.36-27.17-.67-1.81.75-3.71,2.68-3.54,22.34,1.96,44.68,1.96,67.02,0,1.92-.17,3.35,1.73,2.68,3.54Z"/><path class="cls-11" d="M1389.98,848.91c-8.27,3.08-16.55,2.89-24.95-.33-1.68-.64-3.44.74-3.24,2.52,1.14,10.3,2.84,20.47,2.07,30.88,0,.1,0,.21,0,.31.76,10.41-.94,20.58-2.07,30.88-.2,1.78,1.57,3.16,3.24,2.52,8.4-3.23,16.68-3.41,24.95-.33,1.66.62,3.41-.69,3.25-2.46-1.8-20.51-1.8-41.02,0-61.54.16-1.77-1.59-3.08-3.25-2.46Z"/><path class="cls-15" d="M1332.05,919.03c8.27-3.08,16.55-2.89,24.95.33,1.68.64,3.44-.74,3.24-2.52-1.14-10.3-2.84-20.47-2.07-30.88,0-.1,0-.21,0-.31-.76-10.41.94-20.58,2.07-30.88.2-1.78-1.57-3.16-3.24-2.52-8.4,3.23-16.68,3.41-24.95.33-1.66-.62-3.41.69-3.25,2.46,1.8,20.51,1.8,41.02,0,61.54-.16,1.77,1.59,3.08,3.25,2.46Z"/><rect class="cls-40" x="1188" y="846" width="115" height="53" transform="translate(2491 1745) rotate(180)"/><path class="cls-19" d="M1317.76,866.08c-3.35-9-3.15-18.02.36-27.17.7-1.82-.8-3.75-2.75-3.53-11.21,1.24-22.29,3.09-33.63,2.26-.11,0-.23,0-.34,0-11.34.83-22.41-1.02-33.63-2.26-1.94-.21-3.45,1.71-2.75,3.53,3.51,9.15,3.71,18.17.36,27.17-.67,1.81.75,3.71,2.68,3.54,22.34-1.96,44.68-1.96,67.02,0,1.92.17,3.35-1.73,2.68-3.54Z"/><path class="cls-13" d="M1245.39,907.08c3.35-9,3.15-18.02-.36-27.17-.7-1.82.8-3.75,2.75-3.53,11.21,1.24,22.29,3.09,33.63,2.26.11,0,.23,0,.34,0,11.34.83,22.41-1.02,33.63-2.26,1.94-.21,3.45,1.71,2.75,3.53-3.51,9.15-3.71,18.17-.36,27.17.67,1.81-.75,3.71-2.68,3.54-22.34-1.96-44.68-1.96-67.02,0-1.92.17-3.35-1.73-2.68-3.54Z"/><path class="cls-11" d="M1249.81,910.01c8.27-3.08,16.55-2.89,24.95.33,1.68.64,3.44-.74,3.24-2.52-1.14-10.3-2.84-20.47-2.07-30.88,0-.1,0-.21,0-.31-.76-10.41.94-20.58,2.07-30.88.2-1.78-1.57-3.16-3.24-2.52-8.4,3.23-16.68,3.41-24.95.33-1.66-.62-3.41.69-3.25,2.46,1.8,20.51,1.8,41.02,0,61.54-.16,1.77,1.59,3.08,3.25,2.46Z"/><path class="cls-15" d="M1307.74,838.05c-8.27,3.08-16.55,2.89-24.95-.33-1.68-.64-3.44.74-3.24,2.52,1.14,10.3,2.84,20.47,2.07,30.88,0,.1,0,.21,0,.31.76,10.41-.94,20.58-2.07,30.88-.2,1.78,1.57,3.16,3.24,2.52,8.4-3.23,16.68-3.41,24.95-.33,1.66.62,3.41-.69,3.25-2.46-1.8-20.51-1.8-41.02,0-61.54.16-1.77-1.59-3.08-3.25-2.46Z"/><path class="cls-19" d="M1213.92,910.76c9-3.35,18.02-3.15,27.17.36,1.82.7,3.75-.8,3.53-2.75-1.24-11.21-3.09-22.29-2.26-33.63,0-.11,0-.23,0-.34-.83-11.34,1.02-22.41,2.26-33.63.21-1.94-1.71-3.45-3.53-2.75-9.15,3.51-18.17,3.71-27.17.36-1.81-.67-3.71.75-3.54,2.68,1.96,22.34,1.96,44.68,0,67.02-.17,1.92,1.73,3.35,3.54,2.68Z"/><path class="cls-13" d="M1172.92,838.39c9,3.35,18.02,3.15,27.17-.36,1.82-.7,3.75.8,3.53,2.75-1.24,11.21-3.09,22.29-2.26,33.63,0,.11,0,.23,0,.34-.83,11.34,1.02,22.41,2.26,33.63.21,1.94-1.71,3.45-3.53,2.75-9.15-3.51-18.17-3.71-27.17-.36-1.81.67-3.71-.75-3.54-2.68,1.96-22.34,1.96-44.68,0-67.02-.17-1.92,1.73-3.35,3.54-2.68Z"/><path class="cls-11" d="M1172.91,846.02c3.08,8.27,2.89,16.55-.33,24.95-.64,1.68.74,3.44,2.52,3.24,10.3-1.14,20.47-2.84,30.88-2.07.1,0,.21,0,.31,0,10.41-.76,20.58.94,30.88,2.07,1.78.2,3.16-1.57,2.52-3.24-3.23-8.4-3.41-16.68-.33-24.95.62-1.66-.69-3.41-2.46-3.25-20.51,1.8-41.02,1.8-61.54,0-1.77-.16-3.08,1.59-2.46,3.25Z"/><path class="cls-15" d="M1243.03,903.95c-3.08-8.27-2.89-16.55.33-24.95.64-1.68-.74-3.44-2.52-3.24-10.3,1.14-20.47,2.84-30.88,2.07-.1,0-.21,0-.31,0-10.41.76-20.58-.94-30.88-2.07-1.78-.2-3.16,1.57-2.52,3.24,3.23,8.4,3.41,16.68.33,24.95-.62,1.66.69,3.41,2.46,3.25,20.51-1.8,41.02-1.8,61.54,0,1.77.16,3.08-1.59,2.46-3.25Z"/><rect class="cls-40" x="806.5" y="1482.5" width="165" height="26" transform="translate(-606.5 2384.5) rotate(-90)"/><path class="cls-19" d="M908.08,1451.76c-9-3.35-18.02-3.15-27.17.36-1.82.7-3.75-.8-3.53-2.75,1.24-11.21,3.09-22.29,2.26-33.63,0-.11,0-.23,0-.34.83-11.34-1.02-22.41-2.26-33.63-.21-1.94,1.71-3.45,3.53-2.75,9.15,3.51,18.17,3.71,27.17.36,1.81-.67,3.71.75,3.54,2.68-1.96,22.34-1.96,44.68,0,67.02.17,1.92-1.73,3.35-3.54,2.68Z"/><path class="cls-19" d="M900.08,1621.76c-9-3.35-18.02-3.15-27.17.36-1.82.7-3.75-.8-3.53-2.75,1.24-11.21,3.09-22.29,2.26-33.63,0-.11,0-.23,0-.34.83-11.34-1.02-22.41-2.26-33.63-.21-1.94,1.71-3.45,3.53-2.75,9.15,3.51,18.17,3.71,27.17.36,1.81-.67,3.71.75,3.54,2.68-1.96,22.34-1.96,44.68,0,67.02.17,1.92-1.73,3.35-3.54,2.68Z"/><path class="cls-13" d="M908.08,1471.39c-9,3.35-18.02,3.15-27.17-.36-1.82-.7-3.75.8-3.53,2.75,1.24,11.21,3.09,22.29,2.26,33.63,0,.11,0,.23,0,.34.83,11.34-1.02,22.41-2.26,33.63-.21,1.94,1.71,3.45,3.53,2.75,9.15-3.51,18.17-3.71,27.17-.36,1.81.67,3.71-.75,3.54-2.68-1.96-22.34-1.96-44.68,0-67.02.17-1.92-1.73-3.35-3.54-2.68Z"/><path class="cls-11" d="M879.02,1540.91c8.27,3.08,16.55,2.89,24.95-.33,1.68-.64,3.44.74,3.24,2.52-1.14,10.3-2.84,20.47-2.07,30.88,0,.1,0,.21,0,.31-.76,10.41.94,20.58,2.07,30.88.2,1.78-1.57,3.16-3.24,2.52-8.4-3.23-16.68-3.41-24.95-.33-1.66.62-3.41-.69-3.25-2.46,1.8-20.51,1.8-41.02,0-61.54-.16-1.77,1.59-3.08,3.25-2.46Z"/><path class="cls-11" d="M879.02,1394.91c8.27,3.08,16.55,2.89,24.95-.33,1.68-.64,3.44.74,3.24,2.52-1.14,10.3-2.84,20.47-2.07,30.88,0,.1,0,.21,0,.31-.76,10.41.94,20.58,2.07,30.88.2,1.78-1.57,3.16-3.24,2.52-8.4-3.23-16.68-3.41-24.95-.33-1.66.62-3.41-.69-3.25-2.46,1.8-20.51,1.8-41.02,0-61.54-.16-1.77,1.59-3.08,3.25-2.46Z"/><path class="cls-15" d="M901.95,1533.03c-8.27-3.08-16.55-2.89-24.95.33-1.68.64-3.44-.74-3.24-2.52,1.14-10.3,2.84-20.47,2.07-30.88,0-.1,0-.21,0-.31.76-10.41-.94-20.58-2.07-30.88-.2-1.78,1.57-3.16,3.24-2.52,8.4,3.23,16.68,3.41,24.95.33,1.66-.62,3.41.69,3.25,2.46-1.8,20.51-1.8,41.02,0,61.54.16,1.77-1.59,3.08-3.25,2.46Z"/><rect class="cls-40" x="940.49" y="1482.5" width="165" height="26" transform="translate(-472.51 2518.49) rotate(-90)"/><path class="cls-19" d="M1003.91,1451.76c9-3.35,18.02-3.15,27.17.36,1.82.7,3.75-.8,3.53-2.75-1.24-11.21-3.09-22.29-2.26-33.63,0-.11,0-.23,0-.34-.83-11.34,1.02-22.41,2.26-33.63.21-1.94-1.71-3.45-3.53-2.75-9.15,3.51-18.17,3.71-27.17.36-1.81-.67-3.71.75-3.54,2.68,1.96,22.34,1.96,44.68,0,67.02-.17,1.92,1.73,3.35,3.54,2.68Z"/><path class="cls-19" d="M1011.91,1621.76c9-3.35,18.02-3.15,27.17.36,1.82.7,3.75-.8,3.53-2.75-1.24-11.21-3.09-22.29-2.26-33.63,0-.11,0-.23,0-.34-.83-11.34,1.02-22.41,2.26-33.63.21-1.94-1.71-3.45-3.53-2.75-9.15,3.51-18.17,3.71-27.17.36-1.81-.67-3.71.75-3.54,2.68,1.96,22.34,1.96,44.68,0,67.02-.17,1.92,1.73,3.35,3.54,2.68Z"/><path class="cls-13" d="M1003.91,1471.39c9,3.35,18.02,3.15,27.17-.36,1.82-.7,3.75.8,3.53,2.75-1.24,11.21-3.09,22.29-2.26,33.63,0,.11,0,.23,0,.34-.83,11.34,1.02,22.41,2.26,33.63.21,1.94-1.71,3.45-3.53,2.75-9.15-3.51-18.17-3.71-27.17-.36-1.81.67-3.71-.75-3.54-2.68,1.96-22.34,1.96-44.68,0-67.02-.17-1.92,1.73-3.35,3.54-2.68Z"/><path class="cls-11" d="M1032.96,1540.91c-8.27,3.08-16.55,2.89-24.95-.33-1.68-.64-3.44.74-3.24,2.52,1.14,10.3,2.84,20.47,2.07,30.88,0,.1,0,.21,0,.31.76,10.41-.94,20.58-2.07,30.88-.2,1.78,1.57,3.16,3.24,2.52,8.4-3.23,16.68-3.41,24.95-.33,1.66.62,3.41-.69,3.25-2.46-1.8-20.51-1.8-41.02,0-61.54.16-1.77-1.59-3.08-3.25-2.46Z"/><path class="cls-11" d="M1032.96,1394.91c-8.27,3.08-16.55,2.89-24.95-.33-1.68-.64-3.44.74-3.24,2.52,1.14,10.3,2.84,20.47,2.07,30.88,0,.1,0,.21,0,.31.76,10.41-.94,20.58-2.07,30.88-.2,1.78,1.57,3.16,3.24,2.52,8.4-3.23,16.68-3.41,24.95-.33,1.66.62,3.41-.69,3.25-2.46-1.8-20.51-1.8-41.02,0-61.54.16-1.77-1.59-3.08-3.25-2.46Z"/><path class="cls-15" d="M1010.03,1533.03c8.27-3.08,16.55-2.89,24.95.33,1.68.64,3.44-.74,3.24-2.52-1.14-10.3-2.84-20.47-2.07-30.88,0-.1,0-.21,0-.31-.76-10.41.94-20.58,2.07-30.88.2-1.78-1.57-3.16-3.24-2.52-8.4,3.23-16.68,3.41-24.95.33-1.66-.62-3.41.69-3.25,2.46,1.8,20.51,1.8,41.02,0,61.54-.16,1.77,1.59,3.08,3.25,2.46Z"/><path class="cls-45" d="M1341.48,154.72c-24.19,0-43.87-19.68-43.87-43.87s19.68-43.87,43.87-43.87,43.87,19.68,43.87,43.87-19.68,43.87-43.87,43.87Z"/><path d="M1341.48,68.98c23.13,0,41.87,18.75,41.87,41.87s-18.75,41.87-41.87,41.87-41.87-18.75-41.87-41.87,18.75-41.87,41.87-41.87M1341.48,64.98c-25.29,0-45.87,20.58-45.87,45.87s20.58,45.87,45.87,45.87,45.87-20.58,45.87-45.87-20.58-45.87-45.87-45.87h0Z"/><path class="cls-28" d="M1334.97,69.48c-1.58.25-3.13.59-4.65,1.01l-8.57,22.91v-19.49c-1.38.74-2.72,1.56-4,2.44v28.9l-9.22-20.23c-.95,1.22-1.85,2.48-2.66,3.8l12.08,26.51c.15.7.33,1.38.55,2.05l-17.44-17.44c-.41,1.53-.74,3.09-.98,4.68l17.59,17.59-17.78-6.65c.17,1.55.43,3.07.77,4.56l27.99,10.47h-24.09c.74,1.38,1.56,2.72,2.44,4h29.86l-20.84,9.5c1.23.95,2.52,1.83,3.85,2.64l24.08-10.97-15.05,15.05c1.47.46,2.98.84,4.51,1.14l20.53-20.53-7.88,21.07c1.55-.17,3.06-.42,4.55-.76l10.6-28.34v24.42c1.38-.74,2.72-1.56,4-2.44v-31.09l9.85,21.62c.94-1.26,1.8-2.58,2.6-3.94l-9.36-20.54,12.85,12.85c.49-1.44.9-2.92,1.23-4.43l-18.82-18.82-.1-.23-.08.04-1.37-1.37c-.85-1.4-1.85-2.7-2.98-3.89l23.84,8.92c-.24-1.58-.58-3.13-.99-4.64l-23.27-8.7h19.81c-.74-1.38-1.56-2.72-2.44-4h-30.13l21.01-9.57c-1.24-.95-2.53-1.83-3.87-2.63l-25.75,11.73,15.99-15.99c-1.5-.44-3.03-.79-4.59-1.06l-21.89,21.89,8.23-22.01Z"/><circle class="cls-27" cx="1341.48" cy="110.85" r="25.28"/><circle cx="1341.48" cy="110.85" r="6.64"/><path class="cls-16" d="M627.92,880.62l12.57,7.7-49.73,81.05-12.57-7.7,49.73-81.05Z"/><path class="cls-9" d="M576.61,960.69l15.82,9.69-4.05,6.61-15.82-9.69,4.05-6.61Z"/><path class="cls-17" d="M630.38,873.02l15.82,9.69-4.05,6.61-15.82-9.69,4.05-6.61Z"/><path class="cls-26" d="M587.93,951.21l3.09-5.01,7.54,4.64-3.09,5.01-7.54-4.64Z"/><path class="cls-25" d="M620.33,898.44l3.09-5.01,7.54,4.64-3.09,5.01-7.54-4.64Z"/><path class="cls-8" d="M618.3,910.4l-14.47,23.57"/><path class="cls-10" d="M602.31,932.98l-1.06,5.22,4.19-3.34-3.13-1.88Z"/><path class="cls-16" d="M650.56,894.5l12.57,7.7-49.73,81.05-12.57-7.7,49.73-81.05Z"/><path class="cls-9" d="M599.25,974.57l15.82,9.69-4.05,6.61-15.82-9.69,4.05-6.61Z"/><path class="cls-17" d="M653,886.93l15.82,9.69-4.05,6.61-15.82-9.69,4.05-6.61Z"/><path class="cls-26" d="M610.61,965.12l3.09-5.01,7.54,4.64-3.09,5.01-7.54-4.64Z"/><path class="cls-25" d="M642.98,912.32l3.09-5.01,7.54,4.64-3.09,5.01-7.54-4.64Z"/><path class="cls-8" d="M643.48,925.82l-14.47,23.57"/><path class="cls-10" d="M627.46,948.43l-1.06,5.22,4.19-3.34-3.13-1.88Z"/><path class="cls-16" d="M636.15,892.6l12.57,7.7-49.73,81.05-12.57-7.7,49.73-81.05Z"/><path class="cls-9" d="M584.84,972.67l15.82,9.69-4.05,6.61-15.82-9.69,4.05-6.61Z"/><path class="cls-17" d="M638.61,885l15.82,9.69-4.05,6.61-15.82-9.69,4.05-6.61Z"/><path class="cls-26" d="M596.17,963.19l3.09-5.01,7.54,4.64-3.09,5.01-7.54-4.64Z"/><path class="cls-25" d="M628.56,910.42l3.09-5.01,7.54,4.64-3.09,5.01-7.54-4.64Z"/><path class="cls-8" d="M626.31,922.79l-14.47,23.57"/><path class="cls-10" d="M610.29,945.4l-1.06,5.22,4.19-3.34-3.13-1.88Z"/><path class="cls-16" d="M691.83,741.8l14.34,3.43-22.17,92.45-14.34-3.43,22.17-92.45Z"/><path class="cls-9" d="M667.83,833.83l18.05,4.33-1.82,7.52-18.05-4.33,1.82-7.52Z"/><path class="cls-17" d="M691.79,733.83l18.05,4.33-1.82,7.52-18.05-4.33,1.82-7.52Z"/><path class="cls-26" d="M675.7,821.31l1.37-5.72,8.61,2.06-1.37,5.72-8.61-2.06Z"/><path class="cls-25" d="M690.14,761.1l1.37-5.72,8.61,2.06-1.37,5.72-8.61-2.06Z"/><path class="cls-8" d="M694.76,773.76l-6.44,26.9"/><path class="cls-10" d="M686.55,800.24l.61,5.32,2.96-4.45-3.57-.87Z"/><path class="cls-16" d="M640.42,829.26l14.76-.39-2.53-95.08-14.76.39,2.53,95.08Z"/><path class="cls-9" d="M635.99,734.25l18.57-.49-.21-7.73-18.57.49.21,7.73Z"/><path class="cls-17" d="M638.72,837.07l18.57-.49-.21-7.73-18.57.49.21,7.73Z"/><path class="cls-26" d="M641.11,748.13l.16,5.92,8.85-.23-.16-5.92-8.85.23Z"/><path class="cls-25" d="M642.75,810.05l.16,5.92,8.85-.23-.16-5.92-8.85.23Z"/><path class="cls-8" d="M649.92,798.64l-.73-27.65"/><path class="cls-10" d="M651,770.94l-1.98-4.96-1.71,5.06,3.69-.1Z"/><path class="cls-7" d="M508.93,1332.93v-135.21s192.77,0,192.77,0v135.21s-192.77,0-192.77,0Z"/><path class="cls-5" d="M508.93,1332.93v-135.21s27.32,0,27.32,0v135.21s-27.32,0-27.32,0Z"/><path class="cls-5" d="M674.39,1332.93v-135.21s27.32,0,27.32,0v135.21s-27.32,0-27.32,0Z"/><path class="cls-14" d="M534.52,1243.14h0c-2.24,2.24-5.88,2.24-8.11,0h0c-1.08-1.08-1.68-2.54-1.68-4.06s.6-2.97,1.68-4.06l24.07-24.07c2.24-2.24,5.88-2.24,8.11,0h0c2.24,2.24,2.24,5.88,0,8.11l-24.07,24.07Z"/><path class="cls-14" d="M684.23,1235h0c2.24,2.24,2.24,5.88,0,8.11h0c-1.08,1.08-2.54,1.68-4.06,1.68s-2.97-.6-4.06-1.68l-24.07-24.07c-2.24-2.24-2.24-5.88,0-8.11h0c2.24-2.24,5.88-2.24,8.11,0l24.07,24.07Z"/><path class="cls-21" d="M605.32,1312.11h0c-25.84,0-46.8-20.96-46.8-46.8h0c0-12.4,4.93-24.32,13.72-33.08,8.78-8.78,20.68-13.72,33.08-13.72h0c25.84,0,46.8,20.96,46.8,46.8h0c0,25.84-20.96,46.8-46.8,46.8Z"/><path class="cls-4" d="M569.01,1291.09l32.32-29.88,8.05,9.75-33.91,27.92-6.45-7.79Z"/><path class="cls-4" d="M597.9,1309.3l1.73-43.98,12.59,1.22-4.24,43.73-10.07-.97Z"/><path class="cls-4" d="M634.76,1299.98l-32.85-29.28,8.94-8.94,31.08,31.08-7.17,7.15Z"/><path class="cls-4" d="M650.69,1269.12l-43.94,2.54v-12.63s43.94,0,43.94,0v10.1Z"/><path class="cls-4" d="M641.86,1239.54l-32.32,29.88-8.05-9.75,33.91-27.92,6.45,7.79Z"/><path class="cls-4" d="M612.97,1221.35l-1.73,43.98-12.59-1.22,4.24-43.73,10.07.97Z"/><path class="cls-4" d="M576.13,1230.64l32.85,29.28-8.94,8.94-31.08-31.08,7.17-7.15Z"/><path class="cls-4" d="M560.2,1261.53l43.94-2.54v12.63s-43.94,0-43.94,0v-10.1Z"/><path class="cls-4" d="M605.32,1274.07h0c-4.84,0-8.76-3.92-8.76-8.76h0c0-2.33.92-4.54,2.56-6.2,1.64-1.64,3.87-2.56,6.2-2.56h0c4.84,0,8.76,3.92,8.76,8.76h0c0,4.84-3.92,8.76-8.76,8.76Z"/><path class="cls-22" d="M605.32,1271.05h0c-3.18,0-5.74-2.58-5.74-5.74h0c0-1.52.6-2.97,1.68-4.06s2.54-1.68,4.06-1.68h0c3.18,0,5.74,2.58,5.74,5.74h0c0,3.18-2.58,5.74-5.74,5.74Z"/><path class="cls-7" d="M508.93,1038.72v135.21s192.77,0,192.77,0v-135.21s-192.77,0-192.77,0Z"/><path class="cls-5" d="M508.93,1038.72v135.21s27.32,0,27.32,0v-135.21s-27.32,0-27.32,0Z"/><path class="cls-5" d="M674.39,1038.72v135.21s27.32,0,27.32,0v-135.21s-27.32,0-27.32,0Z"/><path class="cls-14" d="M534.52,1128.51h0c-2.24-2.24-5.88-2.24-8.11,0h0c-1.08,1.08-1.68,2.54-1.68,4.06s.6,2.97,1.68,4.06l24.07,24.07c2.24,2.24,5.88,2.24,8.11,0h0c2.24-2.24,2.24-5.88,0-8.11l-24.07-24.07Z"/><path class="cls-14" d="M684.23,1136.65h0c2.24-2.24,2.24-5.88,0-8.11h0c-1.08-1.08-2.54-1.68-4.06-1.68s-2.97.6-4.06,1.68l-24.07,24.07c-2.24,2.24-2.24,5.88,0,8.11h0c2.24,2.24,5.88,2.24,8.11,0l24.07-24.07Z"/><path class="cls-21" d="M605.32,1059.54h0c-25.84,0-46.8,20.96-46.8,46.8h0c0,12.4,4.93,24.32,13.72,33.08,8.78,8.78,20.68,13.72,33.08,13.72h0c25.84,0,46.8-20.96,46.8-46.8h0c0-25.84-20.96-46.8-46.8-46.8Z"/><path class="cls-4" d="M569.01,1080.56l32.32,29.88,8.05-9.75-33.91-27.92-6.45,7.79Z"/><path class="cls-4" d="M597.9,1062.35l1.73,43.98,12.59-1.22-4.24-43.73-10.07.97Z"/><path class="cls-4" d="M634.76,1071.66l-32.85,29.28,8.94,8.94,31.08-31.08-7.17-7.15Z"/><path class="cls-4" d="M650.69,1102.53l-43.94-2.54v12.63s43.94,0,43.94,0v-10.1Z"/><path class="cls-4" d="M641.86,1132.11l-32.32-29.88-8.05,9.75,33.91,27.92,6.45-7.79Z"/><path class="cls-4" d="M612.97,1150.3l-1.73-43.98-12.59,1.22,4.24,43.73,10.07-.97Z"/><path class="cls-4" d="M576.13,1141.01l32.85-29.28-8.94-8.94-31.08,31.08,7.17,7.15Z"/><path class="cls-4" d="M560.2,1110.12l43.94,2.54v-12.63s-43.94,0-43.94,0v10.1Z"/><path class="cls-4" d="M605.32,1097.58h0c-4.84,0-8.76,3.92-8.76,8.76h0c0,2.33.92,4.54,2.56,6.2,1.64,1.64,3.87,2.56,6.2,2.56h0c4.84,0,8.76-3.92,8.76-8.76h0c0-4.84-3.92-8.76-8.76-8.76Z"/><path class="cls-22" d="M605.32,1100.6h0c-3.18,0-5.74,2.58-5.74,5.74h0c0,1.52.6,2.97,1.68,4.06s2.54,1.68,4.06,1.68h0c3.18,0,5.74-2.58,5.74-5.74h0c0-3.18-2.58-5.74-5.74-5.74Z"/><rect class="cls-18" x="1310.12" y="1186.21" width="24.26" height="10.69" transform="translate(2815.43 222.76) rotate(105)"/><rect class="cls-12" x="1283.91" y="1171.21" width="7.4" height="22.13" transform="translate(-187.63 2120.02) rotate(-75)"/><rect x="1354.09" y="1196.26" width="7.4" height="9.63" transform="translate(2869.37 200.41) rotate(105)"/><path class="cls-35" d="M1269.09,1181.14l12.33,3.31,1.92-7.15-12.33-3.31c-1.97-.53-4,.65-4.53,2.62-.26.99-.1,1.99.37,2.8.48.83,1.26,1.47,2.25,1.73Z"/><path d="M1270.04,1173.87c.32,0,.64.04.96.13l12.33,3.31-1.92,7.15-12.33-3.31c-1.97-.53-3.14-2.56-2.62-4.53.44-1.65,1.94-2.74,3.57-2.74M1270.04,1170.87c-3.03,0-5.69,2.04-6.47,4.97-.46,1.73-.22,3.53.67,5.08.9,1.55,2.34,2.66,4.07,3.12l12.33,3.31c.26.07.52.1.78.1,1.32,0,2.54-.88,2.9-2.22l1.92-7.15c.21-.77.1-1.59-.3-2.28-.4-.69-1.05-1.19-1.82-1.4l-12.33-3.31c-.57-.15-1.15-.23-1.73-.23h0Z"/><rect class="cls-43" x="1302.38" y="1172.56" width="10.4" height="30.12" transform="translate(-177.97 2143.32) rotate(-75)"/><path d="M1295.43,1180.54l26.2,7.02-1.92,7.15-26.2-7.02,1.92-7.15M1293.31,1176.86l-.78,2.9-1.92,7.15-.78,2.9,2.9.78,26.2,7.02,2.9.78.78-2.9,1.92-7.15.78-2.9-2.9-.78-26.2-7.02-2.9-.78h0Z"/><rect class="cls-35" x="1296.83" y="1184.14" width="7.4" height="3.19" transform="translate(2782.46 236.41) rotate(105)"/><rect class="cls-35" x="1301.66" y="1185.43" width="7.4" height="3.19" transform="translate(2789.79 233.38) rotate(105)"/><rect class="cls-35" x="1306.48" y="1186.73" width="7.4" height="3.19" transform="translate(2797.12 230.34) rotate(105)"/><rect class="cls-35" x="1311.31" y="1188.02" width="7.4" height="3.19" transform="translate(2804.45 227.3) rotate(105)"/><rect class="cls-35" x="1315.79" y="1189.59" width="7.4" height="2.46" transform="translate(2811.24 224.49) rotate(105)"/><rect class="cls-43" x="1308.23" y="1177" width="3.19" height="22.46" transform="translate(2796.58 230.56) rotate(105)"/><rect class="cls-34" x="1298.51" y="1181.79" width="3.19" height="7.67" transform="translate(2781.83 236.67) rotate(105)"/><rect class="cls-43" x="1332.92" y="1178.76" width="10.4" height="34.1" transform="translate(-163.26 2178.86) rotate(-75)"/><path d="M1324.06,1188.21l30.04,8.05-1.92,7.15-30.04-8.05,1.92-7.15M1321.94,1184.54l-.78,2.9-1.92,7.15-.78,2.9,2.9.78,30.04,8.05,2.9.78.78-2.9,1.92-7.15.78-2.9-2.9-.78-30.04-8.05-2.9-.78h0Z"/><rect class="cls-35" x="1339.56" y="1195.59" width="7.4" height="3.19" transform="translate(2847.31 209.55) rotate(105)"/><rect class="cls-35" x="1345.21" y="1197.1" width="7.4" height="3.19" transform="translate(2855.89 205.99) rotate(105)"/><rect class="cls-35" x="1334.73" y="1194.29" width="7.4" height="3.19" transform="translate(2839.98 212.59) rotate(105)"/><rect class="cls-35" x="1329.9" y="1193" width="7.4" height="3.19" transform="translate(2832.65 215.62) rotate(105)"/><rect class="cls-35" x="1325.07" y="1191.7" width="7.4" height="3.19" transform="translate(2825.32 218.66) rotate(105)"/><rect class="cls-35" x="1320.59" y="1190.87" width="7.4" height="2.46" transform="translate(2818.53 221.47) rotate(105)"/><rect class="cls-43" x="1336.53" y="1180.26" width="3.19" height="31.1" transform="translate(2839.52 212.78) rotate(105)"/><rect class="cls-34" x="1342.07" y="1193.46" width="3.19" height="7.67" transform="translate(2847.94 209.29) rotate(105)"/><rect x="1308.48" y="1193.9" width="5.96" height="3.35" transform="translate(2805.73 238.25) rotate(105)"/><g class="cls-48"><polygon class="cls-1" points="757.77 1347.81 796.45 1280.82 797.07 1287.4 806.08 1283.56 803.71 1291.23 808.07 1291.34 772.69 1352.62 770.42 1348.89 764.96 1354.79 763.78 1345.06 757.77 1347.81"/><polygon class="cls-3" points="742.85 1304.96 809.84 1343.64 807.09 1337.62 816.81 1336.45 810.92 1330.99 814.65 1328.72 753.37 1293.34 753.26 1297.7 745.58 1295.32 749.43 1304.33 742.85 1304.96"/></g><polygon class="cls-32" points="759.91 280.32 756.65 257.98 753.38 280.32 737.9 236.34 746.48 282.17 732.48 264.46 740.82 285.43 705.42 255.09 735.77 290.49 714.79 282.15 732.5 296.15 686.67 287.56 730.65 303.05 708.31 306.31 730.65 309.58 686.67 325.06 732.5 316.48 714.79 330.48 735.77 322.14 705.42 357.54 740.82 327.19 732.48 348.17 746.48 330.46 737.9 376.29 753.38 332.31 756.65 354.65 759.91 332.31 775.4 376.29 766.81 330.46 780.81 348.17 772.47 327.19 807.87 357.54 777.53 322.14 798.5 330.48 780.79 316.48 826.62 325.06 782.64 309.58 804.98 306.31 782.64 303.05 826.62 287.56 780.79 296.15 798.5 282.15 777.53 290.49 807.87 255.09 772.47 285.43 780.81 264.46 766.81 282.17 775.4 236.34 759.91 280.32"/><polygon class="cls-39" points="606.91 1657.32 603.65 1634.98 600.38 1657.32 584.9 1613.34 593.48 1659.17 579.48 1641.46 587.82 1662.43 552.42 1632.09 582.77 1667.49 561.79 1659.15 579.5 1673.15 533.67 1664.56 577.65 1680.05 555.31 1683.31 577.65 1686.58 533.67 1702.06 579.5 1693.48 561.79 1707.48 582.77 1699.14 552.42 1734.54 587.82 1704.19 579.48 1725.17 593.48 1707.46 584.9 1753.29 600.38 1709.31 603.65 1731.65 606.91 1709.31 622.4 1753.29 613.81 1707.46 627.81 1725.17 619.47 1704.19 654.87 1734.54 624.53 1699.14 645.5 1707.48 627.79 1693.48 673.62 1702.06 629.64 1686.58 651.98 1683.31 629.64 1680.05 673.62 1664.56 627.79 1673.15 645.5 1659.15 624.53 1667.49 654.87 1632.09 619.47 1662.43 627.81 1641.46 613.81 1659.17 622.4 1613.34 606.91 1657.32"/></svg>