<?xml version="1.0" encoding="UTF-8"?>
<svg width="802.85" height="1396.43" id="Layer_3" data-name="Layer 3" xmlns="http://www.w3.org/2000/svg" xmlns:xlink="http://www.w3.org/1999/xlink" viewBox="0 0 802.85 1396.43">
  <defs>
    <style>
      .cls-1 {
        fill: url(#linear-gradient-12);
      }

      .cls-1, .cls-2, .cls-3, .cls-4, .cls-5, .cls-6, .cls-7, .cls-8, .cls-9, .cls-10, .cls-11, .cls-12, .cls-13, .cls-14, .cls-15, .cls-16, .cls-17, .cls-18, .cls-19, .cls-20, .cls-21, .cls-22, .cls-23, .cls-24, .cls-25, .cls-26, .cls-27, .cls-28, .cls-29, .cls-30, .cls-31, .cls-32, .cls-33 {
        stroke-width: 0px;
      }

      .cls-2 {
        fill: url(#linear-gradient-17);
      }

      .cls-3 {
        fill: #36322b;
      }

      .cls-4 {
        fill: url(#linear-gradient-19);
      }

      .cls-5 {
        fill: url(#linear-gradient);
      }

      .cls-6, .cls-32 {
        fill: #000;
      }

      .cls-34 {
        opacity: .5;
      }

      .cls-7 {
        fill: url(#linear-gradient-21);
      }

      .cls-8 {
        fill: url(#linear-gradient-6);
      }

      .cls-9 {
        fill: url(#New_Pattern_Swatch_19);
      }

      .cls-10 {
        fill: url(#linear-gradient-15);
      }

      .cls-11 {
        fill: url(#linear-gradient-11);
      }

      .cls-12 {
        fill: url(#linear-gradient-5);
      }

      .cls-13 {
        fill: none;
      }

      .cls-14 {
        fill: #696051;
      }

      .cls-15 {
        fill: url(#linear-gradient-13);
      }

      .cls-16 {
        fill: url(#linear-gradient-23);
      }

      .cls-17 {
        fill: url(#linear-gradient-16);
      }

      .cls-18 {
        fill: url(#linear-gradient-22);
      }

      .cls-19 {
        fill: url(#linear-gradient-20);
      }

      .cls-20 {
        fill: url(#linear-gradient-14);
      }

      .cls-21 {
        fill: #5a554d;
      }

      .cls-22 {
        fill: url(#linear-gradient-2);
      }

      .cls-23 {
        fill: url(#linear-gradient-7);
      }

      .cls-24 {
        fill: url(#linear-gradient-3);
      }

      .cls-25 {
        fill: url(#linear-gradient-9);
      }

      .cls-26 {
        fill: #a09b90;
      }

      .cls-27 {
        fill: url(#linear-gradient-8);
      }

      .cls-28 {
        fill: url(#linear-gradient-24);
      }

      .cls-29 {
        fill: url(#linear-gradient-18);
      }

      .cls-30 {
        fill: url(#New_Pattern_Swatch_18);
      }

      .cls-31 {
        fill: url(#linear-gradient-10);
      }

      .cls-32 {
        opacity: .25;
      }

      .cls-33 {
        fill: url(#linear-gradient-4);
      }
    </style>
    <linearGradient id="linear-gradient" x1="497.93" y1="243.12" x2="596.61" y2="243.12" gradientUnits="userSpaceOnUse">
      <stop offset="0" stop-color="#a09b90"/>
      <stop offset="1" stop-color="#404038"/>
    </linearGradient>
    <linearGradient id="linear-gradient-2" x1="497.92" y1="329.46" x2="596.62" y2="329.46" xlink:href="#linear-gradient"/>
    <linearGradient id="linear-gradient-3" x1="603.65" y1="329.46" x2="702.34" y2="329.46" gradientUnits="userSpaceOnUse">
      <stop offset="0" stop-color="#404038"/>
      <stop offset="1" stop-color="#a09b90"/>
    </linearGradient>
    <linearGradient id="linear-gradient-4" x1="603.66" y1="243.12" x2="702.35" y2="243.12" xlink:href="#linear-gradient-3"/>
    <linearGradient id="linear-gradient-5" x1="100.51" x2="199.19" xlink:href="#linear-gradient"/>
    <linearGradient id="linear-gradient-6" x1="100.5" y1="329.46" x2="199.19" y2="329.46" xlink:href="#linear-gradient"/>
    <linearGradient id="linear-gradient-7" x1="206.23" x2="304.92" xlink:href="#linear-gradient-3"/>
    <linearGradient id="linear-gradient-8" x1="206.24" y1="243.12" x2="304.92" y2="243.12" xlink:href="#linear-gradient-3"/>
    <linearGradient id="linear-gradient-9" y1="655.04" y2="655.04" xlink:href="#linear-gradient"/>
    <linearGradient id="linear-gradient-10" x1="497.92" y1="741.38" x2="596.62" y2="741.38" xlink:href="#linear-gradient"/>
    <linearGradient id="linear-gradient-11" y1="741.38" y2="741.38" xlink:href="#linear-gradient-3"/>
    <linearGradient id="linear-gradient-12" x1="603.66" y1="655.04" x2="702.35" y2="655.04" xlink:href="#linear-gradient-3"/>
    <linearGradient id="linear-gradient-13" x1="100.51" y1="655.04" x2="199.19" y2="655.04" xlink:href="#linear-gradient"/>
    <linearGradient id="linear-gradient-14" x1="100.5" y1="741.38" x2="199.19" y2="741.38" xlink:href="#linear-gradient"/>
    <linearGradient id="linear-gradient-15" x1="206.23" y1="741.38" x2="304.92" y2="741.38" xlink:href="#linear-gradient-3"/>
    <linearGradient id="linear-gradient-16" x1="206.24" y1="655.04" x2="304.92" y2="655.04" xlink:href="#linear-gradient-3"/>
    <linearGradient id="linear-gradient-17" y1="1066.96" y2="1066.96" xlink:href="#linear-gradient"/>
    <linearGradient id="linear-gradient-18" x1="497.92" y1="1153.3" x2="596.62" y2="1153.3" xlink:href="#linear-gradient"/>
    <linearGradient id="linear-gradient-19" y1="1153.3" y2="1153.3" xlink:href="#linear-gradient-3"/>
    <linearGradient id="linear-gradient-20" x1="603.66" y1="1066.96" x2="702.35" y2="1066.96" xlink:href="#linear-gradient-3"/>
    <linearGradient id="linear-gradient-21" x1="100.51" y1="1066.96" x2="199.19" y2="1066.96" xlink:href="#linear-gradient"/>
    <linearGradient id="linear-gradient-22" x1="100.5" y1="1153.3" x2="199.19" y2="1153.3" xlink:href="#linear-gradient"/>
    <linearGradient id="linear-gradient-23" x1="206.23" y1="1153.3" x2="304.92" y2="1153.3" xlink:href="#linear-gradient-3"/>
    <linearGradient id="linear-gradient-24" x1="206.24" y1="1066.96" x2="304.92" y2="1066.96" xlink:href="#linear-gradient-3"/>
    <pattern id="New_Pattern_Swatch_19" data-name="New Pattern Swatch 19" x="0" y="0" width="129" height="143.5" patternTransform="translate(-121.73 506.32)" patternUnits="userSpaceOnUse" viewBox="0 0 129 143.5">
      <g>
        <rect class="cls-13" width="129" height="143.5"/>
        <path class="cls-21" d="M84.58,67.45c-.05-.34-.08-.68-.08-1.03v-25.84c0-.35.03-.69.08-1.03-.43-1.19-1.55-2.05-2.89-2.05h-29.41c.45.93.71,1.97.71,3.08v25.84c0,1.1-.26,2.15-.71,3.08h29.41c1.34,0,2.46-.86,2.89-2.05Z"/>
        <path class="cls-21" d="M84.5,4.58c0-1.1.26-2.15.71-3.08h-35.91c-1.59,0-2.89,1.22-3.05,2.78,0,.1.02.2.02.3v25.84c0,.1-.01.2-.02.3.15,1.55,1.45,2.78,3.05,2.78h35.91c-.45-.93-.71-1.97-.71-3.08V4.58Z"/>
        <path class="cls-14" d="M42.27,30.42V4.58c0-1.7-1.38-3.08-3.08-3.08H6.81c-1.7,0-3.08,1.38-3.08,3.08v25.84c0,1.7,1.38,3.08,3.08,3.08h32.39c1.7,0,3.08-1.38,3.08-3.08Z"/>
        <path class="cls-21" d="M42.24,102.72c0-.1-.02-.2-.02-.3v-25.84c0-.1.01-.2.02-.3-.15-1.55-1.45-2.78-3.05-2.78H6.81c-1.7,0-3.08,1.38-3.08,3.08v25.84c0,1.7,1.38,3.08,3.08,3.08h32.39c1.59,0,2.89-1.22,3.05-2.78Z"/>
        <path class="cls-21" d="M49,66.42v-25.84c0-1.7-1.38-3.08-3.08-3.08H14.56c.45.93.71,1.97.71,3.08v25.84c0,1.1-.26,2.15-.71,3.08h31.36c1.7,0,3.08-1.38,3.08-3.08Z"/>
        <path class="cls-21" d="M84.58,139.45c-.05-.34-.08-.68-.08-1.03v-25.84c0-.35.03-.69.08-1.03-.43-1.19-1.55-2.05-2.89-2.05h-29.41c.45.93.71,1.97.71,3.08v25.84c0,1.1-.26,2.15-.71,3.08h29.41c1.34,0,2.46-.86,2.89-2.05Z"/>
        <path class="cls-14" d="M49,138.42v-25.84c0-1.7-1.38-3.08-3.08-3.08H14.56c.45.93.71,1.97.71,3.08v25.84c0,1.1-.26,2.15-.71,3.08h31.36c1.7,0,3.08-1.38,3.08-3.08Z"/>
        <path class="cls-14" d="M8.19,69.5c1.7,0,3.08-1.38,3.08-3.08v-25.84c0-1.7-1.38-3.08-3.08-3.08H0v32h8.19Z"/>
        <path class="cls-21" d="M8.19,141.5c1.7,0,3.08-1.38,3.08-3.08v-25.84c0-1.7-1.38-3.08-3.08-3.08H0v24.5h.05v7.5h8.15Z"/>
        <path class="cls-21" d="M127.05,30.42V4.58c0-1.7-1.38-3.08-3.08-3.08h-32.39c-1.7,0-3.08,1.38-3.08,3.08v25.84c0,1.7,1.38,3.08,3.08,3.08h32.39c1.7,0,3.08-1.38,3.08-3.08Z"/>
        <path class="cls-21" d="M127.05,102.42v-25.84c0-1.7-1.38-3.08-3.08-3.08h-29.18c.45.93.71,1.97.71,3.08v25.84c0,1.1-.26,2.15-.71,3.08h29.18c1.7,0,3.08-1.38,3.08-3.08Z"/>
        <path class="cls-14" d="M123.97,37.5h-32.39c-1.7,0-3.08,1.38-3.08,3.08v25.84c0,1.7,1.38,3.08,3.08,3.08h37.42v-32h-5.03Z"/>
        <path class="cls-21" d="M123.97,109.5h-32.39c-1.7,0-3.08,1.38-3.08,3.08v25.84c0,1.7,1.38,3.08,3.08,3.08h37.42v-32h-5.03Z"/>
        <path class="cls-3" d="M129,143.5H.05v-2h8.15c1.7,0,3.08-1.38,3.08-3.08v-25.84c0-1.7-1.38-3.08-3.08-3.08H0v-40h8.19c1.7,0,3.08-1.38,3.08-3.08v-25.84c0-1.7-1.38-3.08-3.08-3.08H0V0h.36c.19.22.37.46.53.71.16-.25.34-.48.53-.71h127.58v37.5h-37.42c-1.7,0-3.08,1.38-3.08,3.08v25.84c0,1.7,1.38,3.08,3.08,3.08h37.42v40h-37.42c-1.7,0-3.08,1.38-3.08,3.08v25.84c0,1.7,1.38,3.08,3.08,3.08h37.42v2ZM39.19,33.5c1.7,0,3.08-1.38,3.08-3.08V4.58c0-1.7-1.38-3.08-3.08-3.08H6.81c-1.7,0-3.08,1.38-3.08,3.08v25.84c0,1.7,1.38,3.08,3.08,3.08h32.39ZM85.21,33.5c-.45-.93-.71-1.97-.71-3.08V4.58c0-1.1.26-2.15.71-3.08h-35.91c-1.59,0-2.89,1.22-3.05,2.78,0,.1.02.2.02.3v25.84c0,.1-.01.2-.02.3.15,1.55,1.45,2.78,3.05,2.78h35.91ZM123.97,33.5c1.7,0,3.08-1.38,3.08-3.08V4.58c0-1.7-1.38-3.08-3.08-3.08h-32.39c-1.7,0-3.08,1.38-3.08,3.08v25.84c0,1.7,1.38,3.08,3.08,3.08h32.39ZM45.92,69.5c1.7,0,3.08-1.38,3.08-3.08v-25.84c0-1.7-1.38-3.08-3.08-3.08H14.56c.45.93.71,1.97.71,3.08v25.84c0,1.1-.26,2.15-.71,3.08h31.36ZM81.69,69.5c1.34,0,2.46-.86,2.89-2.05-.05-.34-.08-.68-.08-1.03v-25.84c0-.35.03-.69.08-1.03-.43-1.19-1.55-2.05-2.89-2.05h-29.41c.45.93.71,1.97.71,3.08v25.84c0,1.1-.26,2.15-.71,3.08h29.41ZM39.19,105.5c1.59,0,2.89-1.22,3.05-2.78,0-.1-.02-.2-.02-.3v-25.84c0-.1.01-.2.02-.3-.15-1.55-1.45-2.78-3.05-2.78H6.81c-1.7,0-3.08,1.38-3.08,3.08v25.84c0,1.7,1.38,3.08,3.08,3.08h32.39ZM88.42,105.5c1.7,0,3.08-1.38,3.08-3.08v-25.84c0-1.7-1.38-3.08-3.08-3.08h-39.12c-1.7,0-3.08,1.38-3.08,3.08v25.84c0,1.7,1.38,3.08,3.08,3.08h39.12ZM123.97,105.5c1.7,0,3.08-1.38,3.08-3.08v-25.84c0-1.7-1.38-3.08-3.08-3.08h-29.18c.45.93.71,1.97.71,3.08v25.84c0,1.1-.26,2.15-.71,3.08h29.18ZM45.92,141.5c1.7,0,3.08-1.38,3.08-3.08v-25.84c0-1.7-1.38-3.08-3.08-3.08H14.56c.45.93.71,1.97.71,3.08v25.84c0,1.1-.26,2.15-.71,3.08h31.36ZM81.69,141.5c1.34,0,2.46-.86,2.89-2.05-.05-.34-.08-.68-.08-1.03v-25.84c0-.35.03-.69.08-1.03-.43-1.19-1.55-2.05-2.89-2.05h-29.41c.45.93.71,1.97.71,3.08v25.84c0,1.1-.26,2.15-.71,3.08h29.41Z"/>
        <path class="cls-14" d="M91.5,102.42v-25.84c0-1.7-1.38-3.08-3.08-3.08h-39.12c-1.7,0-3.08,1.38-3.08,3.08v25.84c0,1.7,1.38,3.08,3.08,3.08h39.12c1.7,0,3.08-1.38,3.08-3.08Z"/>
      </g>
    </pattern>
    <pattern id="New_Pattern_Swatch_18" data-name="New Pattern Swatch 18" x="0" y="0" width="129" height="143.5" patternTransform="translate(-121.73 506.32)" patternUnits="userSpaceOnUse" viewBox="0 0 129 143.5">
      <g>
        <rect class="cls-13" width="129" height="143.5"/>
        <g>
          <path class="cls-21" d="M44.42,76.05c.05.34.08.68.08,1.03v25.84c0,.35-.03.69-.08,1.03.43,1.19,1.55,2.05,2.89,2.05h3.12s26.29,0,26.29,0c-.45-.93-.71-1.97-.71-3.08v-25.84c0-1.1.26-2.15.71-3.08h-26.29s-3.12,0-3.12,0c-1.34,0-2.46.86-2.89,2.05Z"/>
          <path class="cls-21" d="M44.5,138.92c0,1.1-.26,2.15-.71,3.08h35.91c1.59,0,2.89-1.22,3.05-2.78,0-.1-.02-.2-.02-.3v-25.84c0-.1.01-.2.02-.3-.15-1.55-1.45-2.78-3.05-2.78h-29.27s-3.12,0-3.12,0h-3.52c.45.93.71,1.97.71,3.08v25.84Z"/>
          <path class="cls-14" d="M86.73,113.08v25.84c0,1.7,1.38,3.08,3.08,3.08h32.39c1.7,0,3.08-1.38,3.08-3.08v-25.84c0-1.7-1.38-3.08-3.08-3.08h-1.39s-31,0-31,0c-1.7,0-3.08,1.38-3.08,3.08Z"/>
          <path class="cls-21" d="M86.76,40.78c0,.1.02.2.02.3v25.84c0,.1-.01.2-.02.3.15,1.55,1.45,2.78,3.05,2.78h31s1.39,0,1.39,0c1.7,0,3.08-1.38,3.08-3.08v-25.84c0-1.7-1.38-3.08-3.08-3.08h-1.39s-31,0-31,0c-1.59,0-2.89,1.22-3.05,2.78Z"/>
          <path class="cls-21" d="M80,77.08v25.84c0,1.7,1.38,3.08,3.08,3.08h6.73s24.64,0,24.64,0c-.45-.93-.71-1.97-.71-3.08v-25.84c0-1.1.26-2.15.71-3.08h-24.64s-6.73,0-6.73,0c-1.7,0-3.08,1.38-3.08,3.08Z"/>
          <path class="cls-21" d="M44.42,4.05c.05.34.08.68.08,1.03v25.84c0,.35-.03.69-.08,1.03.43,1.19,1.55,2.05,2.89,2.05h3.12s26.29,0,26.29,0c-.45-.93-.71-1.97-.71-3.08V5.08c0-1.1.26-2.15.71-3.08h-26.29s-3.12,0-3.12,0c-1.34,0-2.46.86-2.89,2.05Z"/>
          <path class="cls-14" d="M80,5.08v25.84c0,1.7,1.38,3.08,3.08,3.08h6.73s24.64,0,24.64,0c-.45-.93-.71-1.97-.71-3.08V5.08c0-1.1.26-2.15.71-3.08h-31.36c-1.7,0-3.08,1.38-3.08,3.08Z"/>
          <path class="cls-14" d="M120.81,74c-1.7,0-3.08,1.38-3.08,3.08v25.84c0,1.7,1.38,3.08,3.08,3.08h1.39s6.81,0,6.81,0v-32s-6.81,0-6.81,0h-1.39Z"/>
          <path class="cls-21" d="M120.81,2c-1.7,0-3.08,1.38-3.08,3.08v25.84c0,1.7,1.38,3.08,3.08,3.08h1.39s6.81,0,6.81,0V9.5s-.05,0-.05,0V2s-6.76,0-6.76,0h-1.39Z"/>
          <path class="cls-21" d="M1.95,113.08v25.84c0,1.7,1.38,3.08,3.08,3.08h32.16s.23,0,.23,0c1.7,0,3.08-1.38,3.08-3.08v-25.84c0-1.7-1.38-3.08-3.08-3.08h-.23s-32.16,0-32.16,0c-1.7,0-3.08,1.38-3.08,3.08Z"/>
          <path class="cls-21" d="M1.95,41.08v25.84c0,1.7,1.38,3.08,3.08,3.08h29.18c-.45-.93-.71-1.97-.71-3.08v-25.84c0-1.1.26-2.15.71-3.08H5.03c-1.7,0-3.08,1.38-3.08,3.08Z"/>
          <path class="cls-14" d="M5.03,106h32.16s.23,0,.23,0c1.7,0,3.08-1.38,3.08-3.08v-25.84c0-1.7-1.38-3.08-3.08-3.08h-.23s-32.16,0-32.16,0h-.23s-4.81,0-4.81,0v32s4.81,0,4.81,0h.23Z"/>
          <path class="cls-21" d="M5.03,34h32.16s.23,0,.23,0c1.7,0,3.08-1.38,3.08-3.08V5.08c0-1.7-1.38-3.08-3.08-3.08H4.81s-4.81,0-4.81,0v7.5s0,2.29,0,2.29v22.21s4.81,0,4.81,0h.23Z"/>
          <path class="cls-3" d="M0,0h4.81s32.62,0,32.62,0h4.92s.04,0,.04,0h4.92s3.12,0,3.12,0h27.74s1.54,0,1.54,0h3.38s32.81,0,32.81,0h4.92s1.39,0,1.39,0h6.76v2h-6.76s-1.39,0-1.39,0c-1.7,0-3.08,1.38-3.08,3.08v25.84c0,1.7,1.38,3.08,3.08,3.08h1.39s6.81,0,6.81,0v4s0,32,0,32v4h-6.81s-1.39,0-1.39,0c-1.7,0-3.08,1.38-3.08,3.08v25.84c0,1.7,1.38,3.08,3.08,3.08h1.39s6.81,0,6.81,0v4s0,33.5,0,33.5h-.36c-.19-.22-.37-.46-.53-.71-.16.25-.34.48-.53.71h-43.17s-41.61,0-41.61,0H0s0-33.5,0-33.5v-4h4.81s.23,0,.23,0h32.16s.23,0,.23,0c1.7,0,3.08-1.38,3.08-3.08v-25.84c0-1.7-1.38-3.08-3.08-3.08h-.23s-32.16,0-32.16,0h-.23s-4.81,0-4.81,0v-4s0-32,0-32v-4h4.81s.23,0,.23,0h32.16s.23,0,.23,0c1.7,0,3.08-1.38,3.08-3.08V5.08c0-1.7-1.38-3.08-3.08-3.08H4.81s-4.81,0-4.81,0V0ZM89.81,110c-1.7,0-3.08,1.38-3.08,3.08v25.84c0,1.7,1.38,3.08,3.08,3.08h32.39c1.7,0,3.08-1.38,3.08-3.08v-25.84c0-1.7-1.38-3.08-3.08-3.08h-1.39s-31,0-31,0ZM43.79,110c.45.93.71,1.97.71,3.08v25.84c0,1.1-.26,2.15-.71,3.08h35.91c1.59,0,2.89-1.22,3.05-2.78,0-.1-.02-.2-.02-.3v-25.84c0-.1.01-.2.02-.3-.15-1.55-1.45-2.78-3.05-2.78h-29.27s-3.12,0-3.12,0h-3.52ZM5.03,110c-1.7,0-3.08,1.38-3.08,3.08v25.84c0,1.7,1.38,3.08,3.08,3.08h32.16s.23,0,.23,0c1.7,0,3.08-1.38,3.08-3.08v-25.84c0-1.7-1.38-3.08-3.08-3.08h-.23s-32.16,0-32.16,0ZM83.08,74c-1.7,0-3.08,1.38-3.08,3.08v25.84c0,1.7,1.38,3.08,3.08,3.08h6.73s24.64,0,24.64,0c-.45-.93-.71-1.97-.71-3.08v-25.84c0-1.1.26-2.15.71-3.08h-24.64s-6.73,0-6.73,0ZM47.31,74c-1.34,0-2.46.86-2.89,2.05.05.34.08.68.08,1.03v25.84c0,.35-.03.69-.08,1.03.43,1.19,1.55,2.05,2.89,2.05h3.12s26.29,0,26.29,0c-.45-.93-.71-1.97-.71-3.08v-25.84c0-1.1.26-2.15.71-3.08h-26.29s-3.12,0-3.12,0ZM89.81,38c-1.59,0-2.89,1.22-3.05,2.78,0,.1.02.2.02.3v25.84c0,.1-.01.2-.02.3.15,1.55,1.45,2.78,3.05,2.78h31s1.39,0,1.39,0c1.7,0,3.08-1.38,3.08-3.08v-25.84c0-1.7-1.38-3.08-3.08-3.08h-1.39s-31,0-31,0ZM40.58,38c-1.7,0-3.08,1.38-3.08,3.08v25.84c0,1.7,1.38,3.08,3.08,3.08h6.73s3.12,0,3.12,0h29.27c1.7,0,3.08-1.38,3.08-3.08v-25.84c0-1.7-1.38-3.08-3.08-3.08h-29.27s-3.12,0-3.12,0h-6.73ZM5.03,38c-1.7,0-3.08,1.38-3.08,3.08v25.84c0,1.7,1.38,3.08,3.08,3.08h29.18c-.45-.93-.71-1.97-.71-3.08v-25.84c0-1.1.26-2.15.71-3.08H5.03ZM83.08,2c-1.7,0-3.08,1.38-3.08,3.08v25.84c0,1.7,1.38,3.08,3.08,3.08h6.73s24.64,0,24.64,0c-.45-.93-.71-1.97-.71-3.08V5.08c0-1.1.26-2.15.71-3.08h-31.36ZM47.31,2c-1.34,0-2.46.86-2.89,2.05.05.34.08.68.08,1.03v25.84c0,.35-.03.69-.08,1.03.43,1.19,1.55,2.05,2.89,2.05h3.12s26.29,0,26.29,0c-.45-.93-.71-1.97-.71-3.08V5.08c0-1.1.26-2.15.71-3.08h-26.29s-3.12,0-3.12,0Z"/>
          <path class="cls-14" d="M37.5,41.08v25.84c0,1.7,1.38,3.08,3.08,3.08h6.73s3.12,0,3.12,0h29.27c1.7,0,3.08-1.38,3.08-3.08v-25.84c0-1.7-1.38-3.08-3.08-3.08h-29.27s-3.12,0-3.12,0h-6.73c-1.7,0-3.08,1.38-3.08,3.08Z"/>
        </g>
        <path class="cls-32" d="M0,2v7.5s0,2.29,0,2.29v22.21s0,4,0,4v32s0,4,0,4v32s0,4,0,4v33.5s42.81,0,42.81,0h41.61s43.17,0,43.17,0c.19-.22.37-.46.53-.71.16.25.34.48.53.71h.36s0-33.5,0-33.5v-4s0-32,0-32v-4s0-32,0-32v-4s0-24.5,0-24.5h-.05V2s0-2,0-2h-6.76s-1.39,0-1.39,0h-4.92s-32.81,0-32.81,0h-3.38s-1.54,0-1.54,0h-27.74s-3.12,0-3.12,0h-4.92s-.04,0-.04,0h-4.92s-32.62,0-32.62,0H0s0,2,0,2Z"/>
      </g>
    </pattern>
  </defs>
  <g>
    <g>
      <polygon class="cls-5" points="584.34 273.24 584.34 278.13 500.88 208.11 506.72 208.11 584.34 273.24"/>
      <polygon class="cls-22" points="584.34 294.44 584.34 299.33 506.7 364.48 500.88 364.48 584.34 294.44"/>
      <polygon class="cls-24" points="699.41 364.48 693.58 364.48 615.95 299.34 615.95 294.44 699.41 364.48"/>
      <path class="cls-6" d="M615.95,283.35l89.68-75.24h-6.22l-83.46,70.02v-4.89l77.62-65.13h-6.23l-72.1,60.51h-30.19l-72.11-60.51h-6.22l77.62,65.13v4.89l-83.46-70.02h-6.23l89.69,75.24v5.88l-89.68,75.25h6.22l83.46-70.04v4.89l-77.64,65.15h6.22l72.12-60.51h30.2l72.11,60.51h6.23l-77.63-65.14v-4.9l83.46,70.04h6.22l-89.68-75.25v-5.88ZM611.95,299.97h-23.61v-27.35h23.61v27.35Z"/>
      <polygon class="cls-33" points="699.41 208.11 615.95 278.13 615.95 273.24 693.57 208.11 699.41 208.11"/>
      <rect class="cls-26" x="588.34" y="272.62" width="23.61" height="27.35"/>
    </g>
    <g class="cls-34">
      <circle class="cls-6" cx="592.29" cy="276.58" r="1.96"/>
    </g>
    <g class="cls-34">
      <circle class="cls-6" cx="608.99" cy="276.58" r="1.96"/>
    </g>
    <g class="cls-34">
      <circle class="cls-6" cx="592.29" cy="297.01" r="1.96"/>
    </g>
    <g class="cls-34">
      <circle class="cls-6" cx="608.99" cy="297.01" r="1.96"/>
    </g>
  </g>
  <g>
    <g>
      <polygon class="cls-12" points="186.91 273.24 186.91 278.13 103.45 208.11 109.29 208.11 186.91 273.24"/>
      <polygon class="cls-8" points="186.91 294.44 186.91 299.33 109.27 364.48 103.45 364.48 186.91 294.44"/>
      <polygon class="cls-23" points="301.98 364.48 296.15 364.48 218.52 299.34 218.52 294.44 301.98 364.48"/>
      <path class="cls-6" d="M218.52,283.35l89.68-75.24h-6.22l-83.46,70.02v-4.89l77.62-65.13h-6.23l-72.1,60.51h-30.19l-72.11-60.51h-6.22l77.62,65.13v4.89l-83.46-70.02h-6.23l89.69,75.24v5.88l-89.68,75.25h6.22l83.46-70.04v4.89l-77.64,65.15h6.22l72.12-60.51h30.2l72.11,60.51h6.23l-77.63-65.14v-4.9l83.46,70.04h6.22l-89.68-75.25v-5.88ZM214.52,299.97h-23.61v-27.35h23.61v27.35Z"/>
      <polygon class="cls-27" points="301.98 208.11 218.52 278.13 218.52 273.24 296.14 208.11 301.98 208.11"/>
      <rect class="cls-26" x="190.91" y="272.62" width="23.61" height="27.35"/>
    </g>
    <g class="cls-34">
      <circle class="cls-6" cx="194.87" cy="276.58" r="1.96"/>
    </g>
    <g class="cls-34">
      <circle class="cls-6" cx="211.56" cy="276.58" r="1.96"/>
    </g>
    <g class="cls-34">
      <circle class="cls-6" cx="194.87" cy="297.01" r="1.96"/>
    </g>
    <g class="cls-34">
      <circle class="cls-6" cx="211.56" cy="297.01" r="1.96"/>
    </g>
  </g>
  <g>
    <g>
      <polygon class="cls-25" points="584.34 685.16 584.34 690.05 500.88 620.03 506.72 620.03 584.34 685.16"/>
      <polygon class="cls-31" points="584.34 706.36 584.34 711.25 506.7 776.4 500.88 776.4 584.34 706.36"/>
      <polygon class="cls-11" points="699.41 776.4 693.58 776.4 615.95 711.26 615.95 706.36 699.41 776.4"/>
      <path class="cls-6" d="M615.95,695.27l89.68-75.24h-6.22l-83.46,70.02v-4.89l77.62-65.13h-6.23l-72.1,60.51h-30.19l-72.11-60.51h-6.22l77.62,65.13v4.89l-83.46-70.02h-6.23l89.69,75.24v5.88l-89.68,75.25h6.22l83.46-70.04v4.89l-77.64,65.15h6.22l72.12-60.51h30.2l72.11,60.51h6.23l-77.63-65.14v-4.9l83.46,70.04h6.22l-89.68-75.25v-5.88ZM611.95,711.89h-23.61v-27.35h23.61v27.35Z"/>
      <polygon class="cls-1" points="699.41 620.03 615.95 690.05 615.95 685.16 693.57 620.03 699.41 620.03"/>
      <rect class="cls-26" x="588.34" y="684.54" width="23.61" height="27.35"/>
    </g>
    <g class="cls-34">
      <circle class="cls-6" cx="592.29" cy="688.5" r="1.96"/>
    </g>
    <g class="cls-34">
      <circle class="cls-6" cx="608.99" cy="688.5" r="1.96"/>
    </g>
    <g class="cls-34">
      <circle class="cls-6" cx="592.29" cy="708.93" r="1.96"/>
    </g>
    <g class="cls-34">
      <circle class="cls-6" cx="608.99" cy="708.93" r="1.96"/>
    </g>
  </g>
  <g>
    <g>
      <polygon class="cls-15" points="186.91 685.16 186.91 690.05 103.45 620.03 109.29 620.03 186.91 685.16"/>
      <polygon class="cls-20" points="186.91 706.36 186.91 711.25 109.27 776.4 103.45 776.4 186.91 706.36"/>
      <polygon class="cls-10" points="301.98 776.4 296.15 776.4 218.52 711.26 218.52 706.36 301.98 776.4"/>
      <path class="cls-6" d="M218.52,695.27l89.68-75.24h-6.22l-83.46,70.02v-4.89l77.62-65.13h-6.23l-72.1,60.51h-30.19l-72.11-60.51h-6.22l77.62,65.13v4.89l-83.46-70.02h-6.23l89.69,75.24v5.88l-89.68,75.25h6.22l83.46-70.04v4.89l-77.64,65.15h6.22l72.12-60.51h30.2l72.11,60.51h6.23l-77.63-65.14v-4.9l83.46,70.04h6.22l-89.68-75.25v-5.88ZM214.52,711.89h-23.61v-27.35h23.61v27.35Z"/>
      <polygon class="cls-17" points="301.98 620.03 218.52 690.05 218.52 685.16 296.14 620.03 301.98 620.03"/>
      <rect class="cls-26" x="190.91" y="684.54" width="23.61" height="27.35"/>
    </g>
    <g class="cls-34">
      <circle class="cls-6" cx="194.87" cy="688.5" r="1.96"/>
    </g>
    <g class="cls-34">
      <circle class="cls-6" cx="211.56" cy="688.5" r="1.96"/>
    </g>
    <g class="cls-34">
      <circle class="cls-6" cx="194.87" cy="708.93" r="1.96"/>
    </g>
    <g class="cls-34">
      <circle class="cls-6" cx="211.56" cy="708.93" r="1.96"/>
    </g>
  </g>
  <g>
    <g>
      <polygon class="cls-2" points="584.34 1097.08 584.34 1101.97 500.88 1031.95 506.72 1031.95 584.34 1097.08"/>
      <polygon class="cls-29" points="584.34 1118.28 584.34 1123.17 506.7 1188.32 500.88 1188.32 584.34 1118.28"/>
      <polygon class="cls-4" points="699.41 1188.32 693.58 1188.32 615.95 1123.18 615.95 1118.28 699.41 1188.32"/>
      <path class="cls-6" d="M615.95,1107.19l89.68-75.24h-6.22l-83.46,70.02v-4.89l77.62-65.13h-6.23l-72.1,60.51h-30.19l-72.11-60.51h-6.22l77.62,65.13v4.89l-83.46-70.02h-6.23l89.69,75.24v5.88l-89.68,75.25h6.22l83.46-70.04v4.89l-77.64,65.15h6.22l72.12-60.51h30.2l72.11,60.51h6.23l-77.63-65.14v-4.9l83.46,70.04h6.22l-89.68-75.25v-5.88ZM611.95,1123.81h-23.61v-27.35h23.61v27.35Z"/>
      <polygon class="cls-19" points="699.41 1031.95 615.95 1101.97 615.95 1097.08 693.57 1031.95 699.41 1031.95"/>
      <rect class="cls-26" x="588.34" y="1096.46" width="23.61" height="27.35"/>
    </g>
    <g class="cls-34">
      <circle class="cls-6" cx="592.29" cy="1100.41" r="1.96"/>
    </g>
    <g class="cls-34">
      <circle class="cls-6" cx="608.99" cy="1100.41" r="1.96"/>
    </g>
    <g class="cls-34">
      <circle class="cls-6" cx="592.29" cy="1120.85" r="1.96"/>
    </g>
    <g class="cls-34">
      <circle class="cls-6" cx="608.99" cy="1120.85" r="1.96"/>
    </g>
  </g>
  <g>
    <g>
      <polygon class="cls-7" points="186.91 1097.08 186.91 1101.97 103.45 1031.95 109.29 1031.95 186.91 1097.08"/>
      <polygon class="cls-18" points="186.91 1118.28 186.91 1123.17 109.27 1188.32 103.45 1188.32 186.91 1118.28"/>
      <polygon class="cls-16" points="301.98 1188.32 296.15 1188.32 218.52 1123.18 218.52 1118.28 301.98 1188.32"/>
      <path class="cls-6" d="M218.52,1107.19l89.68-75.24h-6.22l-83.46,70.02v-4.89l77.62-65.13h-6.23l-72.1,60.51h-30.19l-72.11-60.51h-6.22l77.62,65.13v4.89l-83.46-70.02h-6.23l89.69,75.24v5.88l-89.68,75.25h6.22l83.46-70.04v4.89l-77.64,65.15h6.22l72.12-60.51h30.2l72.11,60.51h6.23l-77.63-65.14v-4.9l83.46,70.04h6.22l-89.68-75.25v-5.88ZM214.52,1123.81h-23.61v-27.35h23.61v27.35Z"/>
      <polygon class="cls-28" points="301.98 1031.95 218.52 1101.97 218.52 1097.08 296.14 1031.95 301.98 1031.95"/>
      <rect class="cls-26" x="190.91" y="1096.46" width="23.61" height="27.35"/>
    </g>
    <g class="cls-34">
      <circle class="cls-6" cx="194.87" cy="1100.41" r="1.96"/>
    </g>
    <g class="cls-34">
      <circle class="cls-6" cx="211.56" cy="1100.41" r="1.96"/>
    </g>
    <g class="cls-34">
      <circle class="cls-6" cx="194.87" cy="1120.85" r="1.96"/>
    </g>
    <g class="cls-34">
      <circle class="cls-6" cx="211.56" cy="1120.85" r="1.96"/>
    </g>
  </g>
  <g>
    <path class="cls-9" d="M2,1394.43V2h401.42v1392.43H2ZM317.58,1186.32v-152.37H87.85v152.37h229.73ZM317.58,774.4v-152.37H87.85v152.37h229.73ZM317.58,362.48v-152.37H87.85v152.37h229.73Z"/>
    <path class="cls-6" d="M401.42,4v1388.43H4V4h397.42M85.85,364.48h233.73v-156.37H85.85v156.37M85.85,776.4h233.73v-156.37H85.85v156.37M85.85,1188.32h233.73v-156.37H85.85v156.37M405.42,0H0v1396.43h405.42V0h0ZM89.85,212.11h225.73v148.37H89.85v-148.37h0ZM89.85,624.03h225.73v148.37H89.85v-148.37h0ZM89.85,1035.95h225.73v148.37H89.85v-148.37h0Z"/>
  </g>
  <g>
    <path class="cls-30" d="M399.42,1394.43V2h401.43v1392.43h-401.43ZM715,1186.32v-152.37h-229.73v152.37h229.73ZM715,774.4v-152.37h-229.73v152.37h229.73ZM715,362.48v-152.37h-229.73v152.37h229.73Z"/>
    <path class="cls-6" d="M798.85,4v1388.43h-397.43V4h397.43M483.27,364.48h233.73v-156.37h-233.73v156.37M483.27,776.4h233.73v-156.37h-233.73v156.37M483.27,1188.32h233.73v-156.37h-233.73v156.37M802.85,0h-405.43v1396.43h405.43V0h0ZM487.27,212.11h225.73v148.37h-225.73v-148.37h0ZM487.27,624.03h225.73v148.37h-225.73v-148.37h0ZM487.27,1035.95h225.73v148.37h-225.73v-148.37h0Z"/>
  </g>
</svg>