<?xml version="1.0" encoding="UTF-8"?>
<svg width="72.68" height="72.68" id="Layer_2" data-name="Layer 2" xmlns="http://www.w3.org/2000/svg" xmlns:xlink="http://www.w3.org/1999/xlink" viewBox="0 0 72.68 72.68">
  <defs>
    <style>
      .cls-1 {
        fill: none;
      }

      .cls-1, .cls-2, .cls-3, .cls-4 {
        stroke-width: 0px;
      }

      .cls-5 {
        fill: url(#radial-gradient);
        stroke: url(#radial-gradient-2);
        stroke-miterlimit: 10;
        stroke-width: 2px;
      }

      .cls-2 {
        fill: #323232;
      }

      .cls-3 {
        fill: #fff;
      }

      .cls-4 {
        fill: #7e7e7e;
      }
    </style>
    <radialGradient id="radial-gradient" cx="916.26" cy="-1036.59" fx="916.26" fy="-1036.59" r="35.34" gradientTransform="translate(121.42 1417.22) rotate(-45)" gradientUnits="userSpaceOnUse">
      <stop offset="0" stop-color="#b3b2b3" stop-opacity=".5"/>
      <stop offset="1" stop-color="#333" stop-opacity=".5"/>
    </radialGradient>
    <radialGradient id="radial-gradient-2" cx="127.2" cy="36.34" fx="127.2" fy="36.34" r="36.34" gradientTransform="translate(-90.87)" gradientUnits="userSpaceOnUse">
      <stop offset="0" stop-color="#000" stop-opacity=".25"/>
      <stop offset="1" stop-color="#000" stop-opacity=".25"/>
    </radialGradient>
  </defs>
  <circle class="cls-5" cx="36.34" cy="36.34" r="35.34"/>
  <g>
    <path class="cls-1" d="M41.38,40.14l-5.11,2.95c-.29.17-.39.54-.22.84.08.15.22.24.37.29s.32.02.46-.06l5.11-2.95c.29-.17.39-.54.22-.84-.08-.15-.22-.24-.37-.29s-.32-.02-.46.06Z"/>
    <path class="cls-2" d="M29.58,45.22l-3.45-5.98-2.12-.39-.61.36-.26-.44-.64.38c-.15.08-.34.03-.42-.12-.19-.33-.62-.44-.95-.25l-3.89,2.25c-.33.19-.44.61-.25.94.08.15.03.33-.11.42l-.65.37.25.44-.72.42-.39.22v-.02c-.39-.65-1.22-.88-1.87-.5-.46.26-.71.76-.68,1.26l-.13-.22-.7.41-.15-.25,1.95-7.28-2.15-.57-1.35,5.05.43.12-.68,2.51-2.1,1.21,6.68,11.56,3.38-1.94-.28-.48.7-.41-.44-.77,10.87-6.28.73-2.02ZM13.96,44.07c.14-.07.31-.03.38.11.08.13.04.3-.1.38-.13.07-.3.03-.38-.11-.07-.13-.03-.3.1-.38ZM28.11,45.35v.02l-.24.64-.11.32-8.6,4.96-.38.23-1.8,1.03c-.34.2-.51.58-.47.94.01.11.04.21.09.31l-.32.18-4.4-7.61.32-.19c.07.09.14.17.22.23.3.23.71.26,1.06.07l1.79-1.04,8.99-5.18.35.06.66.12h.02s2.84,4.9,2.84,4.9h-.02Z"/>
    <path class="cls-3" d="M58.97,21.3l-2.7,1.57-4.92,3.61-6.07,3.5-.28-.48-4.58,2.64-.49.93-11.08,6.4,1.89,3.27,22.52-12.99,5.57-2.45,2.7-1.56-2.56-4.44ZM48.1,32.08l-1.03-1.79,5.01-2.89,1.03,1.78-5.01,2.9Z"/>
    <path class="cls-2" d="M43.94,27c-.11.06-.25.02-.32-.09l-.07-.13c-.07-.12-.03-.26.08-.32l-.29-.5-5.06,2.92.29.5c.11-.06.25-.02.32.09l.07.13c.07.12.03.26-.08.32l.29.5,5.06-2.92-.29-.5Z"/>
    <path class="cls-2" d="M47.8,37.84l-.07.04c-.12.07-.26.08-.38.05-.13-.03-.24-.12-.31-.24-.08.05-.16.1-.24.15-.65.38-1.39.57-2.14.55-.47-.01-.94-.1-1.38-.27l-10.39,6.01.56.97c.26-.15.6-.06.75.2l.14.25-.67.38.69,1.18,2.3-1.33.93,1.62,3.45-1.99-.22-.38c-.23-.41-.09-.94.32-1.18l3.64-2.1c.42-.24.95-.1,1.18.32l.22.37,3.21-1.85-1.59-2.75ZM41.99,41.2l-5.11,2.95c-.14.08-.31.1-.46.06-.15-.04-.29-.14-.37-.29-.17-.29-.07-.67.22-.84l5.11-2.94c.15-.09.31-.11.46-.07.15.04.29.14.38.29.16.29.06.67-.23.84Z"/>
    <path class="cls-2" d="M32.55,49.12l.55.96c.15.26.47.34.73.2l3.78-2.18-1.09-1.88-3.78,2.18c-.26.15-.34.47-.2.73Z"/>
    <circle class="cls-4" cx="14.1" cy="44.32" r=".28"/>
    <path class="cls-2" d="M64.74,25.94l-4.76-8.24-.39.22c-.2.12-.46.16-.69.09l-2.41-.67.12-.44-5.05-1.35-.58,2.15,7,1.87.1.19-2.78,1.61-4.92,3.61-4.45,2.56-.27-.48-6.5,3.75-.49.93-12.26,7.07,3.68,6.37,16.82-9.72.65,1.13,2.47.09,10.24-5.91.13.24,2.32-1.33-1.12-1.93,3.14-1.81ZM58.83,27.3l-5.57,2.45-22.52,12.99-1.89-3.27,11.08-6.4.49-.93,4.58-2.64.28.48,6.07-3.5,4.92-3.61,2.7-1.57,2.56,4.44-2.7,1.56Z"/>
    <path class="cls-3" d="M20.7,49.63l-2.84-4.92,7.4-4.27-.67-.12-.35-.06-8.99,5.19h0s-1.79,1.03-1.79,1.03c-.34.2-.75.16-1.05-.06-.08-.06-.16-.14-.22-.23l-.32.19,4.4,7.62.32-.19c-.05-.1-.08-.2-.09-.3-.04-.37.13-.74.47-.94l1.79-1.04.38-.23,8.6-4.97.11-.31.23-.65h0s-7.41,4.26-7.41,4.26Z"/>
    <polygon class="cls-4" points="17.86 44.71 20.7 49.63 28.11 45.35 28.12 45.34 25.29 40.43 25.27 40.44 17.86 44.71"/>
    <rect class="cls-4" x="47.2" y="28.71" width="5.79" height="2.06" transform="translate(-8.16 29.03) rotate(-30)"/>
  </g>
</svg>