<?xml version="1.0" encoding="UTF-8"?>
<svg width="72.68" height="72.68" id="Layer_2" data-name="Layer 2" xmlns="http://www.w3.org/2000/svg" xmlns:xlink="http://www.w3.org/1999/xlink" viewBox="0 0 72.68 72.68">
  <defs>
    <style>
      .cls-1 {
        fill: url(#radial-gradient);
        stroke: url(#radial-gradient-2);
        stroke-miterlimit: 10;
        stroke-width: 2px;
      }

      .cls-2 {
        fill: #323232;
      }

      .cls-2, .cls-3, .cls-4 {
        stroke-width: 0px;
      }

      .cls-3 {
        fill: #fff;
      }

      .cls-4 {
        fill: #7e7e7e;
      }
    </style>
    <radialGradient id="radial-gradient" cx="852.01" cy="-1100.85" fx="852.01" fy="-1100.85" r="35.34" gradientTransform="translate(212.29 1417.22) rotate(-45)" gradientUnits="userSpaceOnUse">
      <stop offset="0" stop-color="#b3b2b3" stop-opacity=".5"/>
      <stop offset="1" stop-color="#333" stop-opacity=".5"/>
    </radialGradient>
    <radialGradient id="radial-gradient-2" cx="36.34" cy="36.34" fx="36.34" fy="36.34" r="36.34" gradientUnits="userSpaceOnUse">
      <stop offset="0" stop-color="#000" stop-opacity=".25"/>
      <stop offset="1" stop-color="#000" stop-opacity=".25"/>
    </radialGradient>
  </defs>
  <circle class="cls-1" cx="36.34" cy="36.34" r="35.34"/>
  <g>
    <path class="cls-3" d="M55.78,21.61l-18.62,10.75.34.08,1.68.19,3.9,6.75c.38-.6.91-1.12,1.55-1.49l18.3-10.57-2.59-4.49c-.92-1.59-2.96-2.14-4.56-1.22Z"/>
    <path class="cls-2" d="M61.93,21.91c-1.43-2.47-4.6-3.32-7.07-1.9l-22.41,12.94,1.91.66s.05.01.08.02h.03c.38.14.79.25,1.19.35l.08.02c.05.01.11.02.16.03.09.02.18.04.25.06.03,0,.09,0,.09.02h.07s.03.01.04.02h.03c.18.04.33.06.46.08l.15.03h.06s.13.02.13.02l.87.09,6.01,10.42.16-3.11c.05-.91.54-1.73,1.33-2.18l19.89-11.49-3.51-6.08ZM44.63,37.89c-.64.37-1.17.88-1.56,1.49l-3.89-6.75-1.68-.19-.34-.08,18.62-10.75c1.59-.92,3.64-.37,4.56,1.22l2.59,4.49-18.3,10.57Z"/>
    <path class="cls-3" d="M36.35,36.93c-.97-.15-3.24-.61-5.09-1.71-.21-.12-.41-.25-.61-.39-2-1.43-5.9-7.11-7.31-9.24l-12.17,7.03c1.1,1.6,3.16,4.74,3.33,6.06.06.49,0,1.13-.2,1.96-.54,2.26-.4,4.65.41,6.9l.02.06c.25.69.56,1.36.93,2l.25.43c.08-.11.18-.2.31-.27l7.34-4.24c.5-.29,1.15-.12,1.44.39l1.53,2.66,1.07-2.06,9.07-5.24,3.07,5.34,1.65-.95-5.04-8.73ZM21.22,44.88l-1.84-3.19,7.47-4.31,1.84,3.19-7.47,4.31Z"/>
    <path class="cls-2" d="M37.48,35.22l-.46-.05s-2.79-.32-4.83-1.53c-.16-.1-.32-.2-.47-.31-1.74-1.24-5.88-7.26-7.32-9.47l-.48-.73-15.41,8.9.59.82c1.64,2.31,3.47,5.29,3.57,6.06.02.15.03.52-.16,1.31-.62,2.61-.46,5.35.47,7.94l.02.05c.28.8.64,1.58,1.07,2.31l3.54,6.14,9.72-5.61,1.65-3.22,7.01-4.04,3.08,5.33,4.83-2.79-6.42-11.11ZM36.67,41.27l-9.07,5.24-1.07,2.06-.59,1.15-7.66,4.43-2.37-4.12-.25-.43c-.37-.64-.68-1.31-.93-2l-.02-.06c-.81-2.25-.95-4.64-.41-6.9.2-.83.26-1.47.2-1.96-.17-1.32-2.23-4.46-3.33-6.06l12.17-7.03c1.41,2.13,5.31,7.81,7.31,9.24.2.14.4.27.61.39,1.85,1.1,4.12,1.56,5.09,1.71l5.04,8.73-1.65.95-3.07-5.34Z"/>
    <path class="cls-4" d="M25,45.91c-.29-.51-.94-.68-1.44-.39l-7.34,4.24c-.13.07-.23.16-.31.27l2.37,4.12,7.66-4.43.59-1.15-1.53-2.66ZM20.88,52.11l-1.6.93c-.38.22-.87.09-1.09-.29l-.93-1.61c-.22-.38-.09-.87.29-1.09l1.61-.93c.38-.22.87-.09,1.09.3l.93,1.6c.22.38.09.87-.3,1.09ZM25.07,49.7l-1.61.93c-.38.22-.87.08-1.09-.3l-.93-1.61c-.22-.38-.09-.86.29-1.08l1.61-.93c.38-.22.87-.09,1.09.29l.93,1.61c.22.38.09.87-.29,1.09Z"/>
    <polygon class="cls-2" points="28.03 51.71 19.42 56.68 20.8 59.07 38.02 49.13 37.18 47.68 33.69 49.7 32.64 47.87 36.12 45.85 35.66 45.05 29.68 48.5 28.03 51.71"/>
    <rect class="cls-2" x="17.5" y="49.36" width="3.45" height="3.45" rx=".8" ry=".8" transform="translate(-22.97 16.46) rotate(-30)"/>
    <rect class="cls-2" x="21.68" y="46.95" width="3.45" height="3.45" rx=".8" ry=".8" transform="translate(-21.2 18.22) rotate(-30)"/>
    <rect class="cls-4" x="19.72" y="39.3" width="8.63" height="3.68" transform="translate(-17.35 17.53) rotate(-30)"/>
  </g>
</svg>