<?xml version="1.0" encoding="UTF-8"?>
<svg id="Layer_2" data-name="Layer 2" xmlns="http://www.w3.org/2000/svg" xmlns:xlink="http://www.w3.org/1999/xlink" viewBox="0 0 72.68 72.68">
  <defs>
    <style>
      .cls-1 {
        fill: none;
      }

      .cls-1, .cls-2, .cls-3, .cls-4 {
        stroke-width: 0px;
      }

      .cls-5 {
        fill: url(#radial-gradient);
        stroke: url(#radial-gradient-2);
        stroke-miterlimit: 10;
        stroke-width: 2px;
      }

      .cls-2 {
        fill: #323232;
      }

      .cls-3 {
        fill: #fff;
      }

      .cls-4 {
        fill: #7e7e7e;
      }
    </style>
    <radialGradient id="radial-gradient" cx="787.76" cy="-1165.1" fx="787.76" fy="-1165.1" r="35.34" gradientTransform="translate(303.16 1417.22) rotate(-45)" gradientUnits="userSpaceOnUse">
      <stop offset="0" stop-color="#b3b2b3" stop-opacity=".5"/>
      <stop offset="1" stop-color="#333" stop-opacity=".5"/>
    </radialGradient>
    <radialGradient id="radial-gradient-2" cx="-54.53" cy="36.34" fx="-54.53" fy="36.34" r="36.34" gradientTransform="translate(90.87)" gradientUnits="userSpaceOnUse">
      <stop offset="0" stop-color="#000" stop-opacity=".25"/>
      <stop offset="1" stop-color="#000" stop-opacity=".25"/>
    </radialGradient>
  </defs>
  <circle class="cls-5" cx="36.34" cy="36.34" r="35.34"/>
  <g>
    <circle class="cls-1" cx="34.02" cy="46.44" r=".69"/>
    <circle class="cls-1" cx="37.94" cy="44.18" r=".69"/>
    <path class="cls-1" d="M35.38,41.12l-.73.42-.4,1.02-4.24,2.45-1.69.19-.82.47.12.21c.27.47.88.64,1.35.36l6.16-3.56c.47-.27.64-.88.36-1.35l-.12-.21Z"/>
    <path class="cls-1" d="M33.29,33.02l.22-.17h0s1.53-1.16,1.53-1.16c.12-.09.16-.26.08-.4l-.32-.55-2.26,1.3.28.83c.07.2.31.27.47.14Z"/>
    <path class="cls-1" d="M59.58,18.97c.74,1.07,1.44,2.17,2.08,3.29s1.25,2.27,1.8,3.44l.33-.19c-.55-1.17-1.16-2.33-1.8-3.45s-1.34-2.22-2.08-3.28l-.33.19Z"/>
    <path class="cls-2" d="M39.08,43.26c-.09.06-.2.07-.3.04-.1-.03-.19-.09-.25-.19l-.19-.33c-.11-.18-.06-.41.11-.53l-1.44-2.5.28-.16-3.18-5.51c-.23-.39-.12-.89.24-1.15l11.25-8.19-.72-1.25-1.9,1.1.23.4-.39.22-.23-.39-1.11.64.23.39-.4.23-.23-.39-1.1.64.22.39-.39.23-.23-.39-1.11.64.23.39-.4.23-.22-.4-1.11.64.23.4-.4.23-.23-.4-1.11.64.23.4-.39.23-.23-.4-1.11.64.23.4-.4.22-.23-.39-2.65,1.53.23.4,1.13,3.56-.81.47-1.11-.2-.26.15-.49-.85.29-.17-.33-.58-.78.14-3.02,1.74-.51.61.33.58.29-.17.49.85-.27.16-.98,1.41-.81.47-.09-.16-2.1,1.21,3.02,5.22c.16-.09.35-.12.52-.09.02,0,.05,0,.07.02.19.05.36.17.47.36l1.37,2.37,3.95-2.28c.2-.11.44-.05.56.15h0c.11.2.05.45-.14.56l-.63.36c-.31.18-.41.58-.23.89l.59,1.02,8.94-5.17-.63-1.09c-.18-.31-.58-.42-.89-.24ZM34.79,30.74l.32.56c.08.13.04.3-.08.39l-1.53,1.16-.21.17c-.17.12-.41.05-.48-.15l-.28-.82,2.26-1.31ZM25.03,41.39l1.09-.63.99-1.41,3.51-2.03,1.1.21.87-.5,1.74,3.01-.86.49-.4,1.02-3.53,2.04-1.69.19-1.08.62-1.74-3.01ZM34.36,47.04c-.33.19-.75.07-.94-.25-.19-.33-.07-.75.25-.94.33-.19.75-.08.94.25.19.33.08.75-.25.94ZM35.14,42.68l-6.17,3.56c-.47.27-1.08.11-1.35-.36l-.12-.21.82-.47,1.69-.19,4.24-2.45.4-1.02.73-.42.12.21c.27.48.11,1.08-.36,1.35ZM38.28,44.78c-.33.18-.75.07-.94-.26-.19-.32-.08-.74.25-.93.33-.19.75-.08.94.25s.08.75-.25.94Z"/>
    <path class="cls-3" d="M32.59,37.03l-.87.5-1.1-.21-3.51,2.03-.99,1.41-1.09.63,1.74,3.01,1.08-.62,1.69-.19,3.53-2.04.4-1.02.86-.49-1.74-3.01ZM31.16,42.13c-.94.54-2.15.22-2.69-.72s-.22-2.14.72-2.68c.94-.55,2.14-.22,2.69.72.54.94.22,2.14-.72,2.68Z"/>
    <circle class="cls-4" cx="30.17" cy="40.43" r="1.97"/>
    <path class="cls-4" d="M61.66,22.25c.64,1.11,1.25,2.27,1.8,3.44l-1.27.73c-.55-1.18-1.16-2.33-1.8-3.44s-1.34-2.22-2.09-3.28l1.27-.73c.74,1.07,1.44,2.17,2.08,3.29Z"/>
    <polygon class="cls-4" points="17.91 45.51 19.65 48.51 19.64 48.52 20.19 49.47 19.2 50.04 18.91 49.52 18.9 49.52 16.64 45.61 16.64 45.6 16.35 45.09 17.34 44.52 17.91 45.51 17.91 45.51"/>
    <path class="cls-4" d="M10.36,49.44l2.08,3.6-1.54.89c-.42-.55-.81-1.14-1.15-1.74s-.66-1.23-.93-1.87l1.54-.89Z"/>
    <polygon class="cls-4" points="51.64 24.13 52.8 26.15 44.93 30.7 44.29 29.6 51.64 24.13"/>
    <path class="cls-2" d="M25.01,47.11l-3.2-5.54-3.37,1.94-.57-.99-1.09.63-1.42-.92-.74.42.76,1.31-1.03.59.3.52-.73.42-1.18.57-4.51,2.61.13.23-1.37.8.22.58c.35.91.77,1.8,1.26,2.65.49.85,1.06,1.66,1.67,2.42l.4.48,1.37-.79.13.24,4.48-2.58,1.12-.76.73-.42.3.51,3.52-2.03-.55-.95,3.37-1.94ZM19.2,50.04l-.29-.52h-.01l-2.01,1.17-1.13.75-3.18,1.84-.14-.24-1.55.9c-.42-.56-.8-1.14-1.15-1.74-.34-.6-.66-1.23-.93-1.87l1.55-.89-.14-.24,3.19-1.84,1.17-.57,2.06-1.18h0s-.29-.52-.29-.52l.99-.57.57.98h0s3.36-1.94,3.36-1.94l1.74,3.01-3.36,1.94h-.01l.55.95-.99.58Z"/>
    <polygon class="cls-3" points="16.64 45.61 18.9 49.52 16.89 50.69 15.76 51.44 12.58 53.28 12.44 53.04 12.44 53.05 10.36 49.44 10.36 49.44 10.23 49.2 13.41 47.37 14.58 46.79 16.64 45.61"/>
    <rect class="cls-3" x="18.52" y="44.3" width="3.88" height="3.47" transform="translate(-20.28 16.4) rotate(-30)"/>
    <path class="cls-2" d="M65.41,25.5c-.65-1.42-1.37-2.83-2.15-4.17-.78-1.35-1.63-2.68-2.54-3.95l-.39-.54-6.03,3.49-3.43,2.55-7.35,5.47-4.06,3.02-4.71,2.72,3.2,5.54,4.71-2.72,16.95-7.31,6.07-3.5-.27-.6ZM63.47,25.69l-1.27.74-3.21,1.85-16.95,7.31-.04.02-3.52,2.03-1.73-3.01,3.52-2.03,4.02-3,7.35-5.47,3.46-2.58,3.21-1.85,1.27-.74.33-.19c.74,1.07,1.44,2.17,2.09,3.29.64,1.11,1.25,2.27,1.8,3.44l-.33.19Z"/>
    <path class="cls-3" d="M60.4,22.98c.64,1.11,1.25,2.27,1.8,3.44l-3.21,1.85-16.95,7.31-.04.02-3.52,2.03-1.74-3.01,3.52-2.03,4.03-3,.63,1.1,7.88-4.55-1.17-2.02,3.47-2.58,3.21-1.85c.74,1.07,1.44,2.17,2.09,3.28Z"/>
  </g>
</svg>