<?xml version="1.0" encoding="UTF-8"?>
<svg id="Layer_2" data-name="Layer 2" xmlns="http://www.w3.org/2000/svg" xmlns:xlink="http://www.w3.org/1999/xlink" viewBox="0 0 72.68 72.68">
  <defs>
    <style>
      .cls-1 {
        fill: url(#radial-gradient);
        stroke: url(#radial-gradient-2);
        stroke-miterlimit: 10;
        stroke-width: 2px;
      }

      .cls-2 {
        fill: #323232;
      }

      .cls-2, .cls-3, .cls-4 {
        stroke-width: 0px;
      }

      .cls-3 {
        fill: #fff;
      }

      .cls-4 {
        fill: #7e7e7e;
      }
    </style>
    <radialGradient id="radial-gradient" cx="852.01" cy="-1100.85" fx="852.01" fy="-1100.85" r="35.34" gradientTransform="translate(212.29 1417.22) rotate(-45)" gradientUnits="userSpaceOnUse">
      <stop offset="0" stop-color="#b3b2b3" stop-opacity=".5"/>
      <stop offset="1" stop-color="#333" stop-opacity=".5"/>
    </radialGradient>
    <radialGradient id="radial-gradient-2" cx="36.34" cy="36.34" fx="36.34" fy="36.34" r="36.34" gradientUnits="userSpaceOnUse">
      <stop offset="0" stop-color="#000" stop-opacity=".25"/>
      <stop offset="1" stop-color="#000" stop-opacity=".25"/>
    </radialGradient>
  </defs>
  <circle class="cls-1" cx="36.34" cy="36.34" r="35.34"/>
  <g>
    <path class="cls-3" d="M56.04,19.62c0-.08-.05-.13-.08-.15-.03-.01-.09-.04-.16,0l-1.85,1.07c.06.14.12.28.17.42.01,0,.01.01.01.01l-1.49,9.48c-.13.84-1.2.97-1.65.19l-3-5.19-.32.18-.63-1.1-4.09,2.36-9.64,9.67-.49-.85-2.86,1.65.32.56-2.75,1.58.14.24-7.95,4.59,2.46,4.26-4.69,2.7.78,1.36,4.21-2.44.59,1.03,3.75-2.22.7,1.2,2.86-1.65c.05-.03.06-.09.03-.13l-.64-1.11,6.13-3.54.76-1.38,9.96-4.3,2.92-.13,5.61-3.24v-2.02s.89-13.1.89-13.1ZM32.38,43.86c-1.01.58-2.3.24-2.88-.77-.59-1.01-.24-2.3.77-2.89,1.01-.58,2.3-.23,2.88.78.59,1.01.24,2.3-.77,2.88ZM39.23,38.1l-1.37-2.38,6.99-4.04,1.38,2.38-7,4.04Z"/>
    <path class="cls-4" d="M52.64,30.45l1.49-9.47s0,0,0-.01c-.06-.14-.12-.28-.18-.42l-3.64,2.1c.04.88-.41,1.7-1.18,2.14l-1.14.66,3,5.2c.45.78,1.52.65,1.65-.2Z"/>
    <path class="cls-2" d="M58.42,17.02c.03-.33-.13-.65-.41-.82-.28-.17-.63-.18-.92-.02l-15.5,8.95-7.81,7.84-.16-.27-6.67,3.86.32.55-.88.51c-.47-.28-1.02-.39-1.56-.3l-.53.08.92,1.58-7.62,4.4c-.25.15-.34.47-.19.72l2.2,3.81-3.22,1.85-2.64-4.58-1.75,1.01,6.01,10.42,3.58-2.07-.55-.95.63-.37.61,1.05,3.75-2.22.68,1.18,4.77-2.76c.79-.45,1.23-1.35,1.14-2.24l4.92-2.84.69-1.26,8.89-3.83,3.06-.14,7.19-4.16-.03-3.16,1.08-15.82ZM55.15,34.74l-5.61,3.24-2.92.13-9.96,4.3-.76,1.38-6.13,3.54.64,1.11s.02.1-.03.13l-2.86,1.65-.7-1.2-3.75,2.22-.59-1.03-4.21,2.44-.78-1.36,4.69-2.7-2.46-4.26,7.95-4.59-.14-.24,2.75-1.58-.32-.56,2.86-1.65.49.85,9.64-9.67,4.09-2.36.63,1.1.32-.18,1.13-.66c.78-.45,1.22-1.27,1.19-2.14l3.64-2.11,1.85-1.07c.07-.04.13-.01.16,0,.03.02.08.07.08.15l-.9,13.1v2.02Z"/>
    <polygon class="cls-2" points="27.49 35.76 32.34 32.96 32.11 32.57 32.35 32.43 31.53 31 31.29 31.14 31.06 30.74 26.21 33.54 26.44 33.94 26.2 34.07 27.03 35.5 27.26 35.37 27.49 35.76"/>
    <polygon class="cls-2" points="57.85 37.42 50.68 41.56 47.55 41.71 46.53 42.15 43.69 43.37 33.96 48.99 34.84 50.5 41.43 46.69 42.9 49.23 50.07 45.1 50.67 46.13 65.36 37.64 63.89 35.1 59.2 37.81 57.85 37.42"/>
    <circle class="cls-2" cx="31.32" cy="42.03" r="2.11"/>
    <rect class="cls-4" x="38" y="33.51" width="8.08" height="2.75" transform="translate(-11.81 25.7) rotate(-30)"/>
    <path class="cls-2" d="M33.51,54.08c.29.5.94.68,1.44.39l7.59-4.38-1.38-2.39-8.51,4.91.85,1.47Z"/>
    <path class="cls-3" d="M17.94,29.73l-2.69,1.55.26,4.3c.05.88-.39,1.71-1.16,2.15l-5.03,2.91.73,1.27,11.9-6.87c-1.5-2.32-3.26-4.72-4.01-5.31ZM16.69,34.3l2.28-1.32v2.64l-2.28-1.32Z"/>
    <path class="cls-2" d="M16.63,42.99l7.3-4.22-1.37-2.38,1.45-.84-.4-.65s-1.01-1.59-2.13-3.17c-2.13-2.99-2.92-3.48-3.46-3.56l-.25-.04-4.04,2.33.31,5.2c.02.33-.14.64-.43.8l-6.3,3.64,2.21,3.82.63-.37,1.06,1.83,2.01-1.17c.43-.24.97-.09,1.22.33l2.35,4.08,1.55-.89-2.04-3.53c-.24-.42-.1-.96.33-1.21ZM10.05,41.91l-.73-1.27,5.03-2.91c.77-.44,1.21-1.27,1.16-2.15l-.26-4.3,2.69-1.55c.75.59,2.51,2.99,4.01,5.31l-11.9,6.87Z"/>
    <polygon class="cls-4" points="18.97 35.62 18.97 32.98 16.69 34.3 18.97 35.62"/>
  </g>
</svg>