<?xml version="1.0" encoding="UTF-8"?>
<svg id="Layer_2" data-name="Layer 2" xmlns="http://www.w3.org/2000/svg" viewBox="0 0 40.09 40.09">
  <defs>
    <style>
      .cls-1 {
        fill: #252a12;
        stroke-width: 0px;
      }

      .cls-2 {
        fill: #495523;
        stroke: #373f2a;
        stroke-miterlimit: 10;
        stroke-width: 4px;
      }
    </style>
  </defs>
  <path class="cls-2" d="M38.09,20.05c0,3.53-1.02,6.84-2.78,9.62-3.19,5.06-8.83,8.42-15.26,8.42s-11.65-3.11-14.91-7.86c-1.98-2.9-3.14-6.41-3.14-10.18,0-4.29,1.5-8.24,4-11.33,3.31-4.1,8.37-6.72,14.05-6.72s11.16,2.85,14.45,7.25c2.26,3.01,3.59,6.75,3.59,10.8Z"/>
  <path class="cls-1" d="M23.24,27.31h-6.4c-.42,0-.76.34-.76.76v8.22h7.92v-8.22c0-.42-.34-.76-.76-.76ZM20.05,27.72c.27,0,.49.22.49.49s-.22.49-.49.49-.49-.22-.49-.49.22-.49.49-.49ZM17.12,35.21c-.27,0-.49-.22-.49-.49s.22-.49.49-.49.49.22.49.49-.22.49-.49.49ZM21.84,32.76c0,.46-.37.83-.83.83h-1.94c-.46,0-.83-.37-.83-.83v-2.46c0-.46.37-.83.83-.83h1.94c.46,0,.83.37.83.83v2.46ZM22.97,35.21c-.27,0-.49-.22-.49-.49s.22-.49.49-.49.49.22.49.49-.22.49-.49.49Z"/>
  <path class="cls-1" d="M7.83,27.49c.46.67.98,1.3,1.56,1.88l-2.61,2.61c-.74-.73-1.41-1.53-2.01-2.41-1.85-2.71-2.94-6-2.94-9.53,0-4.02,1.4-7.71,3.74-10.6.37-.47.78-.91,1.21-1.34l2.62,2.62c-.34.33-.66.67-.95,1.04-1.83,2.26-2.92,5.15-2.92,8.28,0,2.75.84,5.32,2.29,7.44Z"/>
  <path class="cls-1" d="M32.09,27.49c-.46.67-.98,1.3-1.56,1.88l2.61,2.61c.74-.73,1.41-1.53,2.01-2.41,1.85-2.71,2.94-6,2.94-9.53,0-4.02-1.4-7.71-3.74-10.6-.37-.47-.78-.91-1.21-1.34l-2.62,2.62c.34.33.66.67.95,1.04,1.83,2.26,2.92,5.15,2.92,8.28,0,2.75-.84,5.32-2.29,7.44Z"/>
</svg>