<?xml version="1.0" encoding="UTF-8"?>
<svg id="Layer_2" data-name="Layer 2" xmlns="http://www.w3.org/2000/svg" viewBox="0 0 40.09 40.09">
  <defs>
    <style>
      .cls-1 {
        fill: #4f5058;
        stroke-width: 0px;
      }

      .cls-2 {
        fill: #22242e;
        stroke: #131318;
        stroke-miterlimit: 10;
        stroke-width: 4px;
      }
    </style>
  </defs>
  <path class="cls-2" d="M2,20.05c0,3.53,1.02,6.84,2.78,9.62,3.19,5.06,8.83,8.42,15.26,8.42s11.65-3.11,14.91-7.86c1.98-2.9,3.14-6.41,3.14-10.18,0-4.29-1.5-8.24-4-11.33-3.31-4.1-8.37-6.72-14.05-6.72-5.91,0-11.16,2.85-14.45,7.25-2.26,3.01-3.59,6.75-3.59,10.8Z"/>
  <path class="cls-1" d="M32.26,27.49c-.46.67-.98,1.3-1.56,1.88l2.61,2.61c.74-.73,1.41-1.53,2.01-2.41,1.85-2.71,2.94-6,2.94-9.53,0-4.02-1.4-7.71-3.74-10.6-.37-.47-.78-.91-1.21-1.34l-2.62,2.62c.34.33.66.67.95,1.04,1.83,2.26,2.92,5.15,2.92,8.28,0,2.75-.84,5.32-2.29,7.44Z"/>
  <path class="cls-1" d="M8,27.49c.46.67.98,1.3,1.56,1.88l-2.61,2.61c-.74-.73-1.41-1.53-2.01-2.41-1.85-2.71-2.94-6-2.94-9.53s1.4-7.71,3.74-10.6c.37-.47.78-.91,1.21-1.34l2.62,2.62c-.34.33-.66.67-.95,1.04-1.83,2.26-2.92,5.15-2.92,8.28,0,2.75.84,5.32,2.29,7.44Z"/>
  <path class="cls-1" d="M17.75,30.05l1.65-2.74h1.29l1.65,2.74,2.69,1.85v1.31l-3.05,2.07h-3.88l-3.04-2.07v-1.31l2.69-1.85ZM18.19,33.1c0,.67.53,1.21,1.2,1.21h1.31c.66,0,1.2-.54,1.2-1.21v-2.46c0-.24-.19-.43-.44-.43h-.31v-.55c0-.12-.1-.21-.21-.21h-1.79c-.12,0-.21.09-.21.21v.55h-.32c-.24,0-.43.19-.43.43v2.46Z"/>
</svg>