<?xml version="1.0" encoding="UTF-8" standalone="no"?>
<!-- Created with Inkscape (http://www.inkscape.org/) -->

<svg
   version="1.1"
   id="svg1"
   width="1280"
   height="576"
   viewBox="0 0 1280 576"
   sodipodi:docname="1584769242_2_-insas_rifle.svg"
   inkscape:version="1.3.2 (091e20e, 2023-11-25, custom)"
   inkscape:export-filename="suroi guns\INSAS Battle Rifle 56 (Assault Rifle; 5.56mm)\ibr_56_gun_loot_s2.svg"
   inkscape:export-xdpi="96"
   inkscape:export-ydpi="96"
   xml:space="preserve"
   xmlns:inkscape="http://www.inkscape.org/namespaces/inkscape"
   xmlns:sodipodi="http://sodipodi.sourceforge.net/DTD/sodipodi-0.dtd"
   xmlns="http://www.w3.org/2000/svg"
   xmlns:svg="http://www.w3.org/2000/svg"><defs
     id="defs1"><clipPath
       clipPathUnits="userSpaceOnUse"
       id="clipPath28"><g
         id="g29"><rect
           width="110.41056"
           height="110.41056"
           fill="#ffffff"
           id="rect28"
           x="0.62669873"
           y="6.7051821"
           style="stroke-width:1.00373" /></g></clipPath><clipPath
       clipPathUnits="userSpaceOnUse"
       id="clipPath27"><g
         id="g28"><rect
           width="110.41056"
           height="110.41056"
           fill="#ffffff"
           id="rect27"
           x="0.62669873"
           y="6.7051821"
           style="stroke-width:1.00373" /></g></clipPath><clipPath
       clipPathUnits="userSpaceOnUse"
       id="clipPath17"><g
         id="g18"><rect
           width="110.41056"
           height="110.41056"
           fill="#ffffff"
           id="rect17"
           x="0.62669873"
           y="6.7051821"
           style="stroke-width:1.00373" /></g></clipPath></defs><sodipodi:namedview
     id="namedview1"
     pagecolor="#ffffff"
     bordercolor="#000000"
     borderopacity="0.25"
     inkscape:showpageshadow="2"
     inkscape:pageopacity="0.0"
     inkscape:pagecheckerboard="0"
     inkscape:deskcolor="#d1d1d1"
     inkscape:zoom="0.74146827"
     inkscape:cx="383.02381"
     inkscape:cy="163.86406"
     inkscape:window-width="1920"
     inkscape:window-height="991"
     inkscape:window-x="-9"
     inkscape:window-y="-9"
     inkscape:window-maximized="1"
     inkscape:current-layer="g1" /><g
     inkscape:groupmode="layer"
     inkscape:label="Image"
     id="g1"><path
       d="m 49.625163,61.592582 2.461955,-1.568332 1.494758,2.528001 c 0.186293,0.322499 -0.01827,1.085637 -0.340767,1.271929 l -1.343998,0.775885 c 0.310354,0.5376 -0.147348,1.482814 -0.496847,1.684565 l -4.825745,3.001159 c -0.618199,0.356928 -1.724713,-0.0077 -1.910906,-0.330228 l -1.748,-3.088886 0.288574,-0.183783 1.595733,2.763877 c 0.279339,0.4838 1.181092,0.680029 1.637991,0.416148 l 4.680003,-2.881214 c 0.430099,-0.248223 0.569417,-0.937988 0.429798,-1.179887 z"
       fill="#373737"
       stroke="#323232"
       stroke-width="0.573555"
       stroke-miterlimit="3.99393"
       id="path16-9"
       clip-path="url(#clipPath27)"
       transform="matrix(6.0421582,3.7013651,-3.7755595,5.9234224,514.95572,-239.36801)"
       style="fill:#6c6774;fill-opacity:1" /><path
       d="m 43.293619,65.624575 2.521276,-1.606072 c -0.512908,1.06225 -0.236982,1.786242 0.09174,2.211122 0.329726,0.425984 0.726602,0.798971 2.088365,0.550447 0.259365,-0.04738 0.340165,0.340968 0.0094,0.388745 -1.625243,0.234773 -2.260505,0.01917 -3.081759,-1.302844 -0.651924,0.281848 -1.02461,0.211085 -1.629058,-0.241398 z"
       fill="#363636"
       stroke="#323232"
       stroke-width="0.573555"
       stroke-miterlimit="3.99393"
       id="path14"
       clip-path="url(#clipPath28)"
       transform="matrix(5.929612,3.7052328,-3.7052328,5.929612,522.25675,-241.00487)" /><path
       d="m 52.698692,64.136642 0.273316,0.09315 0.68284,1.182697 c 0.108603,0.1881 0.41976,0.04426 0.349399,-0.20175 L 53.463235,63.578768 C 53.4,63.687873 53.323817,63.7758 53.239704,63.824381 Z"
       fill="#353535"
       stroke="#323232"
       stroke-width="0.573555"
       stroke-miterlimit="3.99393"
       id="path36-1"
       clip-path="url(#clipPath17)"
       transform="matrix(5.929612,3.7052328,-3.7052328,5.929612,517.65847,-236.65852)" /><path
       style="fill:#6c6774;fill-opacity:1;stroke:#323036;stroke-width:5;stroke-linecap:round;stroke-linejoin:round;stroke-dasharray:none;stroke-opacity:1;paint-order:markers fill stroke"
       d="m 689.96599,186.77145 c 10.40315,-1.78117 16.46279,-5.72191 30.125,6.125 17.08117,18.8212 -9.78159,19.93431 13.625,34.25 h -14.5 c -12.34536,-12.59244 3.7268,-16.87283 -6.02513,-28.28921 -6.21664,-6.16803 -12.34022,-4.93954 -21.34987,-2.96079 z"
       id="path44"
       sodipodi:nodetypes="ccccccc" /><rect
       style="fill:#6c6774;fill-opacity:1;stroke:#323036;stroke-width:4.34786;stroke-linecap:round;stroke-linejoin:round;stroke-dasharray:none;stroke-opacity:1;paint-order:markers fill stroke"
       id="rect12"
       width="79.320808"
       height="9.0399342"
       x="891.42328"
       y="240.24835" /><rect
       style="fill:#6c6774;fill-opacity:1;stroke:#323036;stroke-width:3.05691;stroke-linecap:round;stroke-linejoin:round;stroke-dasharray:none;stroke-opacity:1;paint-order:markers fill stroke"
       id="rect15"
       width="14.902935"
       height="41.40387"
       x="956.57959"
       y="239.94333" /><path
       style="fill:#cc762d;fill-opacity:1;stroke:#58380e;stroke-width:8;stroke-linecap:round;stroke-linejoin:round;stroke-dasharray:none;stroke-opacity:1;paint-order:markers fill stroke"
       d="m 525.47867,299.78076 v 20.68555 l -11.42337,3.70487 -29.33025,78.7286 4.01362,5.24858 c 0.28765,5.3177 -0.98811,9.22088 -9.26219,6.79226 L 441.81024,400.7386 c -2.72408,-0.76627 -2.54862,-3.18943 -2.46991,-5.5573 l 27.04554,-68.1187 c 0.78472,-2.90483 2.96117,-5.66315 0.10914,-8.95079 l -11.46137,-11.67969 -3.60214,-0.21832 -1.20073,-7.09512 z"
       id="path6"
       sodipodi:nodetypes="cccccccccccccc" /><path
       style="fill:#323036;fill-opacity:1;stroke:#323036;stroke-width:8;stroke-linecap:round;stroke-linejoin:round;stroke-dasharray:none;stroke-opacity:1;paint-order:markers fill stroke"
       d="m 760.60491,235.3891 30.78197,-10.26065 7.20429,0.21831 0.10051,20.54282 -38.4472,-0.19961 z"
       id="path23"
       sodipodi:nodetypes="cccccc" /><path
       style="fill:#6c6774;fill-opacity:1;stroke:#323036;stroke-width:8;stroke-linecap:round;stroke-linejoin:round;stroke-dasharray:none;stroke-opacity:1;paint-order:markers fill stroke"
       d="m 730.37541,233.39498 c 6.15428,-2.35085 12.06497,-4.86408 15.78716,-8.83633 l 6.02601,1.88421 1.19523,4.09331 -0.0996,3.76843 z"
       id="path21"
       sodipodi:nodetypes="cccccc" /><path
       style="fill:#6c6774;fill-opacity:1;stroke:#323036;stroke-width:8;stroke-linecap:round;stroke-linejoin:round;stroke-dasharray:none;stroke-opacity:1;paint-order:markers fill stroke"
       d="m 699.18585,227.81333 -0.15437,6.02042 12.96706,-2.16117 -6.32916,-6.48353 -4.16798,-0.15437 z"
       id="path20" /><rect
       style="fill:#323036;fill-opacity:1;stroke:#323036;stroke-width:8;stroke-linecap:round;stroke-linejoin:round;stroke-dasharray:none;stroke-opacity:1;paint-order:markers fill stroke"
       id="rect20"
       width="115.31423"
       height="10.034037"
       x="674.94977"
       y="230.13567" /><rect
       style="fill:#6c6774;fill-opacity:1;stroke:#323036;stroke-width:4;stroke-linecap:round;stroke-linejoin:round;stroke-dasharray:none;stroke-opacity:1;paint-order:markers fill stroke"
       id="rect16"
       width="80.120445"
       height="12.662086"
       x="953.97021"
       y="269.36322" /><path
       style="fill:#6c6774;fill-opacity:1;stroke:#323036;stroke-width:4;stroke-linecap:round;stroke-linejoin:round;stroke-dasharray:none;stroke-opacity:1;paint-order:markers fill stroke"
       d="m 954.75098,240.47088 0.38592,-11.57773 h 3.93643 v -3.78205 l 5.32576,-3.24177 5.32576,2.46991 0.69466,15.97727 z"
       id="path16" /><path
       style="fill:#6c6774;fill-opacity:1;stroke:#323036;stroke-width:4;stroke-linecap:round;stroke-linejoin:round;stroke-dasharray:none;stroke-opacity:1;paint-order:markers fill stroke"
       d="m 893.32579,258.34836 5e-4,33.27582 6.34288,-5.67826 5.17138,-0.61747 2.00682,-2.93303 39.20963,-0.38593 6.484,2.85585 4.7876,-9.14512 -4.7876,-9.30207 -6.484,2.39273 -39.67274,-0.77185 -0.30875,-9.6481 z"
       id="path13"
       sodipodi:nodetypes="ccccccccccccc" /><path
       style="fill:#b0a9a0;fill-opacity:1;stroke:#323036;stroke-width:8;stroke-linecap:round;stroke-linejoin:round;stroke-dasharray:none;stroke-opacity:1;paint-order:markers fill stroke"
       d="m 605.78944,305.0221 c 2.01312,35.36652 5.61514,70.73304 18.55651,106.09956 l 65.93017,-18.77482 C 679.9083,360.61886 673.43349,328.89086 672.37456,297.16288 Z"
       id="path8"
       sodipodi:nodetypes="ccccc" /><path
       style="fill:none;fill-opacity:1;stroke:#46413a;stroke-width:4;stroke-linecap:square;stroke-linejoin:miter;stroke-dasharray:none;stroke-opacity:1;paint-order:markers fill stroke"
       d="m 623.10314,307.25712 c -0.53889,16.39708 0.99412,35.97578 3.92855,51.85091 2.92627,15.83105 6.82192,31.20085 13.87557,45.09044"
       id="path28-2-9"
       sodipodi:nodetypes="csc" /><path
       style="fill:none;fill-opacity:1;stroke:#46413a;stroke-width:4;stroke-linecap:square;stroke-linejoin:miter;stroke-dasharray:none;stroke-opacity:1;paint-order:markers fill stroke"
       d="m 640.49876,307.26959 c -1.07627,32.74864 3.53794,64.17331 17.66489,91.99117"
       id="path28-2"
       sodipodi:nodetypes="cc" /><path
       style="fill:none;fill-opacity:1;stroke:#464039;stroke-width:4;stroke-linecap:square;stroke-linejoin:miter;stroke-dasharray:none;stroke-opacity:1;paint-order:markers fill stroke"
       d="m 657.98063,305.75587 c -1.07628,32.74863 3.28216,61.69018 17.40911,89.50804"
       id="path28"
       sodipodi:nodetypes="cc" /><path
       style="fill:#353744;fill-opacity:1;stroke:#323036;stroke-width:8;stroke-linecap:round;stroke-linejoin:round;stroke-dasharray:none;stroke-opacity:1;paint-order:markers fill stroke"
       d="m 478.98345,236.80911 5.34294,-13.33744 c 1.97884,-4.77735 4.53405,-6.72397 11.10024,-7.81716 5.18702,1.03222 8.39733,1.63402 11.15024,7.375 l 3.33935,14.0633 z"
       id="path7"
       sodipodi:nodetypes="cccccc" /><path
       style="fill:#353744;fill-opacity:1;stroke:#323036;stroke-width:4;stroke-linecap:round;stroke-linejoin:round;stroke-dasharray:none;stroke-opacity:1;paint-order:markers fill stroke"
       d="m 559.6083,235.8115 5.23948,-8.8962 15.28183,-0.16374 1.91023,2.83805 h 7.09513 l 2.7289,-2.59549 17.8664,0.16859 5.71128,9.19457 z"
       id="path5"
       sodipodi:nodetypes="ccccccccc" /><path
       style="fill:#cc762d;fill-opacity:1;stroke:#5d3b0f;stroke-width:8;stroke-linecap:round;stroke-linejoin:round;stroke-dasharray:none;stroke-opacity:1;paint-order:markers fill stroke"
       d="m 450.74091,254.34111 v 52.6401 l -25.0079,-1.23496 c -14.11976,0.94664 -27.75483,3.02425 -40.13615,8.02724 -57.86831,21.05056 -110.77942,49.53692 -165.48442,75.33245 -7.70134,2.43443 -13.94808,1.5261 -20.68555,-0.61748 -2.8713,-2.049 -1.99613,-4.47265 -2.16118,-6.79226 l 4.01362,-49.39834 c 1.26431,-21.92052 0.0122,-43.84102 -3.08739,-65.76153 4.22378,-3.46019 12.5622,-4.19419 12.5622,-4.19419 12.31023,-0.85083 27.07067,0.65494 27.07067,0.65494 4.06687,0.4151 4.2,8.1467 12.10539,8.14969 67.28815,-6.45846 133.23171,-14.12822 200.81071,-16.80566 z"
       id="path1"
       sodipodi:nodetypes="ccccccccccccc" /><path
       style="fill:#6c6774;fill-opacity:1;stroke:#323036;stroke-width:8.01386;stroke-linecap:round;stroke-linejoin:round;stroke-dasharray:none;stroke-opacity:1;paint-order:markers fill stroke"
       d="m 722.33439,239.75332 v 57.83134 l -168.46718,9.42456 c -2.90523,3.7434 -7.69663,7.80376 -12.65738,8.06609 -6.11862,-0.10648 -10.56063,-4.90313 -14.51201,-8.09389 h -75.81131 v -53.04035 l 23.24578,-16.85862 z"
       id="path2"
       sodipodi:nodetypes="ccccccccc" /><path
       style="fill:#7b7585;fill-opacity:1;stroke:#323036;stroke-width:8;stroke-linecap:round;stroke-linejoin:round;stroke-dasharray:none;stroke-opacity:1;paint-order:markers fill stroke"
       d="m 451.38375,255.86324 h 156.80712 v 10.33454 H 451.26796 Z"
       id="path4" /><path
       style="fill:#7b7585;fill-opacity:1;stroke:#323036;stroke-width:8;stroke-linecap:round;stroke-linejoin:round;stroke-dasharray:none;stroke-opacity:1;paint-order:markers fill stroke"
       d="m 608.04173,268.35574 -0.30871,-10.31429 c 0.5618,-7.23501 5.08807,-8.96831 10.65156,-9.26219 h 72.24498 c 4.00648,0.12912 4.12519,2.71364 4.32243,5.24859 v 14.32789 z"
       id="path3"
       sodipodi:nodetypes="ccccccc" /><rect
       style="fill:#95909d;fill-opacity:1;stroke:#323036;stroke-width:4;stroke-linecap:round;stroke-linejoin:round;stroke-dasharray:none;stroke-opacity:1;paint-order:markers fill stroke"
       id="rect6"
       width="28.004864"
       height="8.535552"
       x="607.23151"
       y="312.14532"
       transform="rotate(-2.5)" /><path
       style="fill:#6c6774;fill-opacity:1;stroke:#323036;stroke-width:4;stroke-linecap:round;stroke-linejoin:round;stroke-dasharray:none;stroke-opacity:1;paint-order:markers fill stroke"
       d="m 924.279,239.738 3.937,-3.628 h 14.202 l 3.01,3.628 v 10.883 l -3.01,3.164 h -14.202 l -3.937,-3.164 z"
       id="path12"
       sodipodi:nodetypes="ccccccccc" /><path
       style="fill:#6c6774;fill-opacity:1;stroke:#323036;stroke-width:4;stroke-linecap:round;stroke-linejoin:round;stroke-dasharray:none;stroke-opacity:1;paint-order:markers fill stroke"
       d="m 933.77809,238.03166 37.07523,8.60726 v -11.70723 l -14.2122,0.0162 -22.92172,0.026 z"
       id="path15"
       sodipodi:nodetypes="cccccc" /><path
       style="fill:#6c6774;fill-opacity:1;stroke:#323036;stroke-width:4;stroke-linecap:round;stroke-linejoin:round;stroke-dasharray:none;stroke-opacity:1;paint-order:markers fill stroke"
       d="m 1029.9584,269.35385 6.8222,-4.80286 4.0934,-0.10915 3.493,2.83805 37.2335,0.42655 5.0767,-3.28866 35.9196,0.0627 c 2.3754,2.54435 2.6903,6.76631 2.9159,11.27706 -0.5268,3.87591 -1.0064,7.81962 -3.7894,9.92816 l -35.4341,-0.31169 -4.6839,-3.1686 -37.2383,0.57459 -3.4935,2.83898 h -4.093 l -6.8221,-4.85836 z"
       id="path17"
       sodipodi:nodetypes="cccccccccccccccc" /><ellipse
       style="fill:#6c6774;fill-opacity:1;stroke:#323036;stroke-width:4;stroke-linecap:round;stroke-linejoin:round;stroke-dasharray:none;stroke-opacity:1;paint-order:markers fill stroke"
       id="path18"
       cx="963.56952"
       cy="246.83409"
       rx="6.0308647"
       ry="5.9762869" /><ellipse
       style="fill:#45414a;fill-opacity:1;stroke:none;stroke-width:5.36239;stroke-linecap:round;stroke-linejoin:round;stroke-dasharray:none;stroke-opacity:1;paint-order:markers fill stroke"
       id="path19"
       cx="963.50049"
       cy="246.84686"
       rx="1.8487772"
       ry="1.8247672" /><ellipse
       style="fill:#6c6774;fill-opacity:1;stroke:#323036;stroke-width:7.84442;stroke-linecap:round;stroke-linejoin:round;stroke-dasharray:none;stroke-opacity:1;paint-order:markers fill stroke"
       id="path22"
       cx="748.2735"
       cy="228.96434"
       rx="2.1917005"
       ry="2.1218436" /><rect
       style="fill:#6c6774;fill-opacity:1;stroke:#323036;stroke-width:8;stroke-linecap:round;stroke-linejoin:round;stroke-dasharray:none;stroke-opacity:1;paint-order:markers fill stroke"
       id="rect22"
       width="12.195213"
       height="3.4733202"
       x="773.32178"
       y="13.602655"
       transform="rotate(15)" /><path
       style="fill:#6d645c;fill-opacity:1;stroke:#323036;stroke-width:8;stroke-linecap:round;stroke-linejoin:round;stroke-dasharray:none;stroke-opacity:1;paint-order:markers fill stroke"
       d="m 624.62525,411.359 -1.38934,2.93303 2.46992,10.38394 70.57444,-19.40944 -4.04106,-12.27752 -2.46992,-0.61749 z"
       id="path9"
       sodipodi:nodetypes="ccccccc" /><path
       style="fill:none;fill-opacity:1;stroke:#46413a;stroke-width:4;stroke-linecap:square;stroke-linejoin:miter;stroke-dasharray:none;stroke-opacity:1;paint-order:markers fill stroke"
       d="m 605.99835,322.63927 69.31852,-5.40716"
       id="path31"
       sodipodi:nodetypes="cc" /><path
       style="fill:none;fill-opacity:1;stroke:#46413a;stroke-width:4;stroke-linecap:square;stroke-linejoin:miter;stroke-dasharray:none;stroke-opacity:1;paint-order:markers fill stroke"
       d="m 607.35228,338.25854 68.45066,-8.53271"
       id="path32"
       sodipodi:nodetypes="cc" /><path
       style="fill:none;fill-opacity:1;stroke:#46413a;stroke-width:4;stroke-linecap:square;stroke-linejoin:miter;stroke-dasharray:none;stroke-opacity:1;paint-order:markers fill stroke"
       d="m 608.57077,353.00722 70.54701,-11.26899"
       id="path33" /><path
       style="fill:none;fill-opacity:1;stroke:#46413a;stroke-width:4;stroke-linecap:square;stroke-linejoin:miter;stroke-dasharray:none;stroke-opacity:1;paint-order:markers fill stroke"
       d="m 610.88633,368.44421 70.70136,-16.20883"
       id="path34" /><path
       style="fill:none;fill-opacity:1;stroke:#46413a;stroke-width:4;stroke-linecap:square;stroke-linejoin:miter;stroke-dasharray:none;stroke-opacity:1;paint-order:markers fill stroke"
       d="m 613.81936,382.95 69.39007,-19.73017"
       id="path35"
       sodipodi:nodetypes="cc" /><path
       style="fill:none;fill-opacity:1;stroke:#46413a;stroke-width:4;stroke-linecap:square;stroke-linejoin:miter;stroke-dasharray:none;stroke-opacity:1;paint-order:markers fill stroke"
       d="m 617.6786,395.6133 68.22945,-19.68827"
       id="path36"
       sodipodi:nodetypes="cc" /><path
       style="fill:none;fill-opacity:1;stroke:#323036;stroke-width:8;stroke-linecap:round;stroke-linejoin:round;stroke-dasharray:none;stroke-opacity:1;paint-order:markers fill stroke"
       d="m 605.72382,306.23139 c 2.01312,35.36652 5.61514,70.73304 18.55651,106.09956 l 65.93017,-18.77482 c -10.36782,-31.72798 -15.99971,-60.59004 -17.05864,-92.31802 z"
       id="path8-0"
       sodipodi:nodetypes="ccccc" /><path
       style="fill:#cc762d;fill-opacity:1;stroke:#5d3b0f;stroke-width:4;stroke-linecap:square;stroke-linejoin:miter;stroke-dasharray:none;stroke-opacity:1;paint-order:markers fill stroke"
       d="m 683.72677,201.44037 c -3.28202,-1.50281 -7.99327,-1.58613 -13.06014,-0.23094 -3.34538,0.89476 -4.36965,0.83112 -7.02814,-0.43663 -3.58994,-1.71192 -15.15549,-2.04479 -19.418,-0.55886 -2.05866,0.71764 -3.38486,0.61972 -5.91306,-0.43663 -3.86529,-1.61502 -15.03787,-1.82859 -18.28411,-0.34951 -1.78005,0.81105 -3.23473,0.70555 -7.31789,-0.53073 -4.65835,-1.41043 -8.93645,-1.50892 -15.43015,-0.3552 -2.20833,0.39235 -3.68891,-10.4055 -3.68891,-10.4055 -0.49228,-3.13793 0.21966,-6.13136 2.53581,-8.93228 l 1.23719,-1.0625 c 3.64515,-3.13046 8.0755,4.31799 19.45273,1.87805 3.55463,-0.76232 4.82002,-0.68323 6.98559,0.43662 3.08584,1.59575 13.30809,1.85151 17.37245,0.43466 2.06942,-0.7214 3.5909,-0.6224 6.71018,0.43663 4.15251,1.40981 16.75896,1.73434 21.87449,0.56312 1.7341,-0.39703 3.89889,-0.0669 6.40344,0.97656 4.83199,2.01311 7.80309,1.98591 10.96777,-0.1004 1.94499,-1.28223 2.96806,-1.46384 4.44792,-0.78958 1.83427,0.83576 1.90534,1.28032 1.5585,9.74856 -0.19987,4.88008 -0.51902,9.36407 -0.7092,9.96443 -0.44999,1.42043 -5.35655,1.27947 -8.69647,-0.24985 z"
       id="path39"
       sodipodi:nodetypes="ssssssssccsssssssssssss" /><path
       style="fill:#cc762d;fill-opacity:1;stroke:#58380e;stroke-width:8;stroke-linecap:round;stroke-linejoin:round;stroke-dasharray:none;stroke-opacity:1;paint-order:markers fill stroke"
       d="m 723.88501,239.54544 v 58.66052 c 0.25358,6.05199 4.51573,7.52656 8.9961,8.46191 l 137.34646,-9.38813 9.26219,4.01361 h 4.93984 c 5.90636,-0.60731 7.81832,-5.20902 7.89934,-11.64168 l -0.49868,-47.63632 z"
       id="path10"
       sodipodi:nodetypes="ccccccccc" /><path
       style="fill:#6c6774;fill-opacity:1;stroke:#323036;stroke-width:7.89805;stroke-linecap:round;stroke-linejoin:round;stroke-dasharray:none;stroke-opacity:1;paint-order:markers fill stroke"
       d="m 196.32323,267.58239 c 3.20039,41.01428 1.76418,76.53563 -1.42605,115.70102 0.80715,2.81341 2.66856,4.53664 5.22327,5.39477 2.7598,0.927 6.14892,2.23133 10.07182,1.42302 -1.17124,-42.03284 0.0802,-84.81619 2.41989,-127.83996 -7.92084,-0.15916 -12.84304,2.02785 -16.28893,5.32115 z"
       id="path40"
       sodipodi:nodetypes="ccsccc" /><circle
       style="fill:#323036;fill-opacity:1;stroke:#323036;stroke-width:1;stroke-linecap:round;stroke-linejoin:round;stroke-dasharray:none;stroke-opacity:1;paint-order:markers fill stroke"
       id="path41-1-7-0"
       cx="541.7027"
       cy="302.53119"
       r="3.7550263" /><rect
       style="fill:#323036;fill-opacity:1;stroke:#323036;stroke-width:1;stroke-linecap:round;stroke-linejoin:round;stroke-dasharray:none;stroke-opacity:1;paint-order:markers fill stroke"
       id="rect41"
       width="9.5250196"
       height="11.548033"
       x="464.87155"
       y="265.77335" /><path
       style="fill:#da9154;fill-opacity:1;stroke:#323036;stroke-width:0;stroke-linecap:round;stroke-linejoin:round;stroke-dasharray:none;stroke-opacity:1;paint-order:markers fill stroke"
       d="m 743.02062,252.58043 0.2526,-1.70086 61.51397,0.66726 61.74472,0.75441 -0.0219,1.78796 -0.0218,1.78797 -61.74472,-0.75438 -61.74472,-0.7544 z"
       id="path43"
       sodipodi:nodetypes="ccccccccc" /><path
       style="fill:#da9154;fill-opacity:1;stroke:#323036;stroke-width:0;stroke-linecap:round;stroke-linejoin:round;stroke-dasharray:none;stroke-opacity:1;paint-order:markers fill stroke"
       d="m 742.28711,264.54398 -0.0156,-1.78805 61.74698,-0.53885 61.74697,-0.53886 0.0156,1.78804 0.0156,1.78804 -61.74697,0.53885 -61.74698,0.53886 z"
       id="path43-4" /><path
       style="fill:#da9154;fill-opacity:1;stroke:#323036;stroke-width:0;stroke-linecap:butt;stroke-linejoin:bevel;stroke-dasharray:none;stroke-opacity:1;paint-order:markers fill stroke"
       d="m 742.91841,277.82392 -0.0624,-1.78702 61.71172,-2.15502 61.7117,-2.15502 0.0624,1.78702 0.0624,1.78701 -61.71171,2.15502 -61.71171,2.15502 z"
       id="path43-4-3" /><path
       style="fill:#da9154;fill-opacity:1;stroke:#323036;stroke-width:0;stroke-linecap:butt;stroke-linejoin:bevel;stroke-dasharray:none;stroke-opacity:1;paint-order:markers fill stroke"
       d="m 743.36881,290.48356 -0.0936,-1.78566 61.66471,-3.23171 61.66469,-3.23171 0.0936,1.78566 0.0936,1.78565 -61.6647,3.23171 -61.6647,3.23171 z"
       id="path43-4-3-1" /><rect
       style="fill:#45414a;fill-opacity:1;stroke:#323036;stroke-width:3;stroke-linecap:round;stroke-linejoin:round;stroke-dasharray:none;stroke-opacity:1;paint-order:markers fill stroke"
       id="rect44"
       width="2.205333"
       height="13.112791"
       x="1044.0302"
       y="269.06085" /></g></svg>
