<?xml version="1.0" encoding="UTF-8"?>
<svg id="Layer_2" data-name="Layer 2" xmlns="http://www.w3.org/2000/svg" viewBox="0 0 50.78 56.53">
  <defs>
    <style>
      .cls-1, .cls-2 {
        fill-rule: evenodd;
      }

      .cls-1, .cls-2, .cls-3 {
        stroke-width: 0px;
      }

      .cls-1, .cls-3 {
        fill: #fff;
      }

      .cls-2 {
        fill: #323232;
      }
    </style>
  </defs>
  <path class="cls-2" d="M41.41,31.78h0c-.45-.19-.98-.42-1.42-.64-.87-.42-1.99-.99-2.66-1.35-.58-.32-1.01-.59-1.4-.83-.08-.05-.16-.1-.24-.15-.19-.12-.36-.23-.5-.32h0s-1.13-.77-1.13-.77l-3.41,5.36.88.62s.03.02.04.03l.19.14h0c.17.11.4.27.68.44.08.05.16.1.24.15.38.24.85.53,1.46.86.7.38,1.82.95,2.72,1.39.62.3,1.39.64,1.89.86.02,0,.04.02.06.02h-.01s1.63.76,1.63.76l2.73-5.83-1.75-.74ZM39.8,36.63l-.09-.04h0c-.1-.06-.25-.13-.43-.21-.5-.22-1.26-.55-1.86-.84-.88-.43-1.98-.99-2.66-1.36-.58-.31-1.01-.58-1.39-.82-.09-.05-.17-.1-.24-.15-.31-.19-.56-.36-.72-.48l2.03-3.19c.15.11.34.23.57.37.07.05.15.1.23.15.38.24.86.53,1.47.87.7.37,1.81.94,2.71,1.38.62.3,1.39.64,1.89.86.03.01.06.03.09.04l-1.6,3.42Z"/>
  <path class="cls-1" d="M41.4,33.21l-1.6,3.42-.09-.04h0c-.1-.06-.25-.13-.44-.21-.5-.22-1.25-.55-1.85-.84-.89-.43-1.98-.99-2.66-1.35-.58-.31-1.01-.58-1.39-.82-.08-.05-.17-.1-.24-.15-.3-.19-.55-.36-.72-.47,0,0,0,0,0,0l2.03-3.19c.16.11.35.23.57.37.08.05.16.1.24.15.38.24.85.53,1.46.87.7.38,1.81.95,2.71,1.38.62.3,1.39.64,1.89.86.03.01.06.03.09.04Z"/>
  <path class="cls-2" d="M15.35,38.76l1.43-1.43-2.54-2.54-1.43,1.43-.36-.35L1.92,46.39l-.78.59-.83.51c-.18.11-.3.31-.31.52,0,.21.08.42.25.55l10.07,7.83c.21.17.51.19.74.04.04-.03.08-.06.12-.09.15-.15.22-.37.17-.59l-1.05-4.98c.17.16.4.22.63.17.22-.06.39-.24.46-.46l.92-3.33,3.52-3.52-1.72-1.72,2.2-2.19-.96-.96ZM11.28,46.35c-.08.08-.14.18-.17.29l-.68,2.42-.36-.36c-.16-.16-.4-.23-.63-.16-.22.06-.4.24-.45.46l-.18.69c-.02.1-.02.2,0,.29l.91,4.3-4.74-3.69.9-.9.5.5c.19.19.49.19.68,0l2.9-2.89c.19-.19.19-.5,0-.69l-.5-.5,3.51-3.51,1.03,1.03-2.72,2.72ZM6.59,49.03l2.21-2.2.13.13-2.21,2.2-.13-.13ZM4.2,49.99l-2.42-1.88.04-.02.05-.03.07-.05h0s.84-.63.84-.63l9.67-9.68,2.02,2.02-10.27,10.27ZM14.5,37.77l-.7-.7.44-.45.71.71-.45.44Z"/>
  <rect class="cls-3" x="14.06" y="36.7" width=".63" height=".99" transform="translate(-22.09 21.06) rotate(-45)"/>
  <path class="cls-1" d="M12.97,42.6l1.03,1.03-2.72,2.72c-.08.08-.14.18-.17.28l-.68,2.43-.36-.36c-.17-.17-.41-.23-.63-.17-.22.06-.4.24-.46.47l-.17.69c-.02.1-.03.2,0,.29l.91,4.3-4.74-3.69.9-.9.5.5c.19.19.5.19.69,0l2.89-2.89c.19-.19.19-.5,0-.69l-.5-.5,3.51-3.51Z"/>
  <polygon class="cls-1" points="12.45 37.7 14.47 39.72 4.2 49.99 1.78 48.11 1.82 48.09 1.82 48.09 1.87 48.06 1.94 48.01 1.94 48 2.78 47.38 12.45 37.7"/>
  <path class="cls-2" d="M34.12,26.57c-.14-.21-.38-.33-.63-.29l-.27.03-1.35-1.35.18-1.47-4.33-4.33h0s-.53-.55-.53-.55l-.54.54.41.4-.33.33-.41-.4-.53.53.41.4-.3.3-.41-.41-.53.53.41.41-.33.33-.41-.41-.53.54.41.4-.3.3-.41-.41-.53.53.41.41-.33.33-.41-.41-.54.53.42.41-.3.3-.41-.41-.53.53.41.41-.33.33-.42-.41-.53.53.42.41-.3.3-.42-.42-.53.53.42.42-.33.33-.42-.42-.53.54.42.41-.3.3-.42-.42-.53.53.42.42-.33.33-.42-.42-.53.53.42.42-3.62,3.62.62,1.09-.75.75,4.28,4.28.96-.67h0c.06-.05.12-.09.17-.11.16-.08.32-.14.43-.17.13-.03.25-.04.41-.03.1.01.29.05.43.08l.27.08,2.24,9.73,5.41-3.47-.23-1.23-.48-.15-.69-2.59.31-.59c.08-.16.09-.34.04-.51-.06-.16-.18-.3-.34-.37l-.67-.32-.15-1.11,3.5-3.5h.01s.74-1.05.74-1.05h.01l3.46-5.35c.14-.21.14-.48.01-.7ZM26.81,43.65l-2.77,1.77-1.86-8.1,1.47-1.48,1.45,1.45.26,1.88.69.32-.23.44.99,3.72ZM26.42,36.22c-.09-.02-.18-.06-.26-.1-.2-.13-.48-.38-.62-.57-.15-.17-.22-.36-.31-.59-.05-.14-.11-.38-.14-.55l.3-.3s.08.11.12.16c.14.15.31.36.51.51.2.14.45.32.69.37.24.04.76-.01.76-.09,0-.07-.58-.23-.79-.36-.2-.13-.33-.24-.45-.42-.11-.18-.19-.48-.22-.65-.01-.05-.01-.1-.01-.14l1.5-1.5c.16.05.37.12.51.18.22.1.39.18.58.33.18.15.43.43.57.63.05.07.09.16.12.24l-2.86,2.85ZM29.72,31.67l-1.86-1.87-6.69,6.69h-.04v-.02s-.07-.01-.12-.03h-.06c-.22-.06-.44-.1-.61-.11-.29-.02-.53,0-.78.05-.23.05-.48.15-.74.29-.14.06-.28.16-.39.24l-2.59-2.59.54-.54-.62-1.08,11.83-11.84,3.09,3.1-.18,1.47,1.2,1.19h-.01s.79.8.79.8l-2.76,4.25Z"/>
  <polygon class="cls-1" points="25.1 37.29 25.36 39.17 26.05 39.49 25.82 39.93 25.82 39.93 26.81 43.65 24.04 45.42 22.18 37.32 23.65 35.84 25.1 37.29"/>
  <path class="cls-1" d="M31.69,26.63h.01s-1.2-1.2-1.2-1.2l.18-1.47-3.09-3.1-11.83,11.84.62,1.08-.54.54,2.59,2.59c.11-.08.25-.18.39-.24.26-.14.51-.24.74-.29.25-.05.49-.07.78-.05.17.01.39.05.61.1h.04s0,.01.02.01c.05.02.1.02.12.03h0s.04.02.04.02l6.69-6.69,1.86,1.87,2.76-4.25-.79-.79ZM20.91,30.33l-.33.64-2.3,2.3-.14-.14-.55.55c.07.13.09.23.03.29-.03.04-.12.06-.29-.03-.12-.06-.26-.17-.38-.3-.25-.25-.45-.56-.33-.67.05-.06.16-.04.28.02l.56-.55-.14-.14,2.3-2.3.64-.33c.18-.09.41-.06.56.09.15.15.19.38.09.57ZM24.89,27.51l-.87-.86c-.31-.32-.31-.83,0-1.15l3.15-3.14c.15-.16.36-.24.57-.24s.42.08.57.24l.87.86-4.29,4.29Z"/>
  <path class="cls-2" d="M14.08,31.83l.27.28,3.25-3.25-.82-.82-1.07-.29-2.08,2.08s-.04.03-.06.05-.03.04-.05.05l-.02.02h0c-.21.26-.28.61-.19.92l-.84.84.4.63.82-.82.39.31Z"/>
  <path class="cls-2" d="M28.32,22.36l.86.86h0s-4.29,4.29-4.29,4.29l-.86-.86c-.32-.32-.32-.83,0-1.15l3.14-3.14c.15-.15.36-.24.57-.24.21,0,.42.09.57.24Z"/>
  <path class="cls-2" d="M20.82,29.76c.15.15.19.38.09.57l-.33.64h0s-2.3,2.29-2.3,2.29l-.14-.14-.55.55c.07.13.09.23.03.29-.04.04-.12.06-.29-.03-.12-.06-.26-.17-.39-.3-.25-.25-.44-.56-.33-.68.06-.06.16-.04.29.03l.55-.55-.14-.14,2.3-2.3h.01s-.01,0-.01,0l.63-.33c.19-.1.42-.06.57.09Z"/>
  <path class="cls-2" d="M44.74,10.29l-4.11-4.1h.01s-.53-.54-.53-.54l-.54.53.37.37-.34.34-.37-.37-.53.54-.06.05.37.37-.33.33-.37-.37-.59.59.37.37-.33.33-.37-.37-.53.53.37.37-.3.29-.37-.37-.53.54.37.36-.33.34-.37-.38-.53.54.37.37-.3.29-.37-.37-.53.53.37.37-.33.33-.37-.37-.53.53.37.38-.3.29-.37-.37-.53.53.37.37-.33.33-.37-.37-.54.53.38.38-.3.29-.37-.38-.54.54.38.37-.33.33-.38-.38-.53.54.38.38-.29.29-.39-.38-.53.53.38.38-.33.33-.38-.38-.53.53.53.54h.01s.19.18.19.18l-1.36.81,4.34,4.35.81-1.36.12.11h0s.54.54.54.54l.53-.53-.31-.31.33-.33.31.31.53-.53-.31-.31.29-.3.32.32.53-.54-.31-.31.33-.33.31.32.54-.54-.32-.31.3-.3.31.32.54-.53-.32-.32.33-.33.32.32.53-.53-.32-.32.29-.3.33.32.53-.53-.32-.32.33-.33.32.32.53-.53-.32-.32.29-.3.33.33.53-.54-.32-.32.33-.33.32.33.53-.54-.32-.32.29-.3.33.33.53-.53-.32-.33.33-.33.32.33.54-.53.05-.06-.33-.33.33-.33.33.33.53-.53.06-.06-.33-.32.34-.35.33.33.54-.53-.54-.53ZM31.92,21.63l-2.59-2.58.43-.26,2.41,2.41-.25.43ZM33.26,20.34l-2.64-2.64.5-.5,2.64,2.64-.5.5ZM34.22,19.38l-2.64-2.64.46-.46,2.64,2.64-.46.46ZM35.14,18.46l-2.64-2.64.46-.46,2.64,2.64-.46.46ZM36.06,17.55l-2.64-2.64.45-.46,2.65,2.64-.46.46ZM36.97,16.63l-2.64-2.64.46-.46,2.64,2.64-.46.46ZM37.89,15.71l-2.64-2.64.46-.46,2.64,2.64-.46.46ZM38.81,14.79l-2.64-2.64.46-.45,2.64,2.64-.46.45ZM39.72,13.88l-2.64-2.64.46-.46,2.64,2.64-.46.46ZM40.64,12.96l-2.64-2.64.46-.46,2.64,2.64-.46.46ZM41.56,12.04l-2.64-2.64.46-.46,2.64,2.65-.46.45ZM42.48,11.13l-2.65-2.64.63-.63,2.65,2.64-.63.63Z"/>
  <rect class="cls-3" x="41.03" y="7.62" width=".89" height="3.73" transform="translate(5.43 32.1) rotate(-45)"/>
  <rect class="cls-3" x="40.14" y="8.63" width=".65" height="3.73" transform="translate(4.43 31.69) rotate(-45)"/>
  <rect class="cls-3" x="39.23" y="9.54" width=".65" height="3.73" transform="translate(3.51 31.31) rotate(-45)"/>
  <rect class="cls-3" x="38.31" y="10.46" width=".65" height="3.73" transform="translate(2.6 30.93) rotate(-45)"/>
  <rect class="cls-3" x="37.39" y="11.38" width=".65" height="3.73" transform="translate(1.68 30.55) rotate(-45)"/>
  <rect class="cls-3" x="36.48" y="12.29" width=".65" height="3.73" transform="translate(.76 30.17) rotate(-45)"/>
  <rect class="cls-3" x="35.56" y="13.21" width=".65" height="3.73" transform="translate(-.15 29.79) rotate(-45)"/>
  <rect class="cls-3" x="34.64" y="14.13" width=".65" height="3.73" transform="translate(-1.07 29.41) rotate(-45)"/>
  <rect class="cls-3" x="33.73" y="15.05" width=".65" height="3.73" transform="translate(-1.99 29.03) rotate(-45)"/>
  <rect class="cls-3" x="32.81" y="15.96" width=".65" height="3.73" transform="translate(-2.9 28.65) rotate(-45)"/>
  <rect class="cls-3" x="31.84" y="16.9" width=".71" height="3.73" transform="translate(-3.84 28.26) rotate(-45)"/>
  <polygon class="cls-1" points="29.76 18.79 32.17 21.2 31.92 21.63 29.33 19.05 29.76 18.79"/>
  <path class="cls-2" d="M49.9,0l-1.57,1.57-1.2,1.2-.09-.09-.6.31-1.22,1.22-2.41-2.4c-.17-.17-.36-.36-.46-.45l-.06-.06c-.12-.11-.16-.15-.27-.22-.14-.08-.3-.15-.48-.14-.17,0-.3.12-.39.19l-.06.04c-.08.07-.2.16-.28.31-.06.13-.09.28-.1.49v.12c.01.07.02.14.04.2,0,.03,0,.05.01.08,0,.07.02.15.03.2v.04l.59,3.91c.01.07.04.13.09.18l.61.6,2.32,2.32.53-.53-.45-.77.19-.2.4.11,1.22-1.21-.13-.28.23-.23.96.96.49-.48-.33-.33.53-.53-.46-.46-.71.19-.33-.32,1.3-1.3.26-.5-.09-.09,1.94-1.94.83-.83-.88-.88ZM44.45,4.35v.03s-.04.09-.06.12l-1.76,1.76s-.02,0-.03.02c-.04.01-.1.05-.14.05h-.02c-.08,0-.14.01-.23-.04-.06-.03-.15-.11-.23-.18l-.41-2.73.39-.39.7.7c.07.07.17.07.23,0l.65-.65.55.56s.05.07.08.12c.08.11.22.31.26.4.04.1.03.15.02.23ZM48.87,2.11l-.22-.22.74-.75.23.23-.75.74Z"/>
</svg>