<?xml version="1.0" encoding="UTF-8"?>
<svg width="41.5" height="61.3" id="Layer_2" data-name="Layer 2" xmlns="http://www.w3.org/2000/svg" viewBox="0 0 41.5 61.3">
  <defs>
    <style>
      .cls-1 {
        fill: none;
      }

      .cls-1, .cls-2, .cls-3, .cls-4 {
        stroke-width: 0px;
      }

      .cls-2 {
        fill: #323232;
      }

      .cls-3 {
        fill: #fff;
      }

      .cls-4 {
        fill: #7e7e7e;
      }
    </style>
  </defs>
  <path class="cls-1" d="M27.89,24.41c-.34-.06-.82-.02-1.24.03l-2.82,2.82c.23.48.57,1.18.85,1.53.37.47.81.68,1.23.9s.86.41,1.29.47.99-.07,1.37-.16.73-.42.9-.44c.16-.02.26.07.09.32s-.63.9-1.08,1.18-1.14.45-1.62.51-.9-.04-1.29-.14-.72-.31-1.09-.45-.65-.39-1.14-.35-1.15.58-1.76.55c-.33-.02-.76-.18-1.14-.35-.02.14-.02.26.03.43.2.59.83,1.66,1.4,2.59.22.37.44.72.63,1.04,0,.02.02.04.03.07.24.17.57.45.78.49.34.07.33.1.96-.19.63-.3,1.99-.95,2.82-1.57s1.5-1.45,2.17-2.15,1.48-1.48,1.85-2.08c.37-.6.44-1.03.4-1.55-.04-.52-.35-1.06-.65-1.53-.3-.46-.64-.94-1.14-1.27s-1.2-.59-1.84-.72Z"/>
  <path class="cls-4" d="M18.52,31.76c.07.16.21.41.38.71.4.73.96,1.76,1.32,2.52l-.28.16c-.2.12-.35.31-.41.53-.06.22-.03.46.08.66l.42.72c.21.36.65.52,1.03.39.04.19.08.36.12.53.08.38.08.71.09,1.01,0,.33,0,.63.12.97.14.45.31.74.59,1.24.12.22.27.47.45.8l.16.31c.58,1.07,1.38,2.53,2.26,4.01.17.29.36.61.56.96.94,1.6,2.11,3.58,2.82,4.5.6.78,1.08.95,1.43,1.08.05.02.1.03.15.05l-5.95,5.95-.02.02c-.13.12-.46.38-.65.5-.06-.04-.12-.09-.18-.13l-.12-.09c-.48-.36-1.14-.86-1.88-1.76-.82-.99-2.12-2.73-2.9-4.02-.68-1.1-1.17-2.26-1.62-3.28-.07-.16-.14-.32-.21-.47-.36-.82-.72-1.82-.95-2.48-.02-.06-.04-.11-.07-.16h.02c-.04-.1-.12-.27-.2-.47-.27-.65-.63-1.54-1.02-2.14-.53-.82-1.17-1.57-1.81-2.06-.59-.46-1.33-.95-2.31-1.02-.21-.02-.43-.02-.65,0l8.8-9.24s-.02-.03-.02-.04l.13-.07.19-.21.03.08.1-.05Z"/>
  <path class="cls-4" d="M36.77,6.22l2.75,2.75-11.54,11.51-.31-.31c-.13-.13-.21-.31-.21-.5,0-.18.07-.37.21-.5l7.83-7.83-.89-.89.81-.81-.59-1.04h0s-.05-.07-.07-.12l-.06-.11c.05-.07.11-.12.15-.18.23-.28.86-.91,1.21-1.28l.34-.34.36-.36h0Z"/>
  <path class="cls-2" d="M41.5,8.3l-3.4-3.4.38-.39-4.51-4.51-15.51,15.51.23.24-4.54,4.54-.24-.23L.62,33.35l1.36,2.4-.47,1.03-.17.16s-.05.04-.08.08c-.06.06-.15.14-.24.2-.04.02-.1.04-.17.06-.11.03-.23.07-.33.13-.2.13-.4.3-.48.53-.08.26.02.61.09.76.09.22.26.39.46.44.13.04.3,0,.47-.07h0s.08-.03.08-.03l1.17-.51h1.25l.88,1.56c.18.34.34.69.44.98.18.55.27,1.36.32,1.89.03.23.04.41.06.55h.1s1.16,1.36,1.16,1.36c.1-.09.22-.21.37-.36.3-.3.82-.8,1.17-.97.57-.28,1.32-.46,1.78-.42.38.04.76.22,1.3.65.47.36.98.94,1.38,1.59.29.46.64,1.28.87,1.84.05.12.11.32.19.56.25.68.62,1.71,1,2.6.07.15.13.31.19.47.47,1.07,1,2.29,1.74,3.51.84,1.38,2.19,3.22,3.07,4.25.89,1.07,1.67,1.66,2.19,2.06l.12.09c.49.38.89.67,1.69.5.45-.1.91-.45,1.41-.87h0s.12-.11.12-.11c.06-.04.09-.08.12-.09l-.02-.02,9.68-9.68-1.57-1.56-1.72,1c-.3-.32-.61-.65-1.04-1.34-.44-.66-.86-1.39-1.51-2.51-.19-.31-.38-.64-.6-1.02-.47-.78-1.08-1.86-1.73-3-.76-1.32-1.55-2.69-2.09-3.61-.1-.17-.21-.34-.29-.49.19-.38.4-.9.6-1.17.35-.46.64-.78,1.02-1.11.39-.32.76-.38,1.29-.84.54-.45,1.18-1.1,1.9-1.89.72-.8,1.73-2.01,2.46-2.82.71-.82,1.58-1.59,1.85-2.04.28-.44-.02-.46-.21-.63-.19-.17-.62-.22-.9-.44-.28-.22-.52-.48-.84-.88-.31-.4-.7-.93-1.02-1.48-.32-.55-.73-1.19-.9-1.82-.1-.36-.1-.85-.09-1.27l11.98-11.95v-1.32ZM5.04,37.37h0s-2.1-3.69-2.1-3.69h0s11.03-11.04,11.03-11.04l.82.73-1.85,1.85h0s-.06.06-.09.09c-.08.07-.12.15-.16.24-.11.27-.07.57.15.78.11.11.24.18.38.2.22.04.46-.03.64-.21.02-.02.05-.04.06-.07t.02,0l1.92-1.92.86.79h0s4.9-4.91,4.9-4.91h0s0,0,0,0c.02-.03.05-.07.09-.1.14-.18.37-.44.52-.67l.03-.04c.13-.22.29-.47.4-.78.04-.1.07-.21.08-.31.09-.57-.1-.98-.31-1.3-.11-.18-.29-.38-.49-.59l-.86-.87h0s12.86-12.87,12.86-12.87l1.87,1.87-1.54,1.54h0c-.33.36-.66.71-.85.93l-.14.17c-.09.1-.16.21-.25.31h0c-.07.11-.13.22-.19.33-.08.17-.13.35-.14.56-.02.42.16.75.35.98L5.04,37.37ZM27.69,33.21c-.19.18-.39.34-.6.5-.3.23-.68.47-1.07.68-.13.08-.28.15-.41.22-.39.21-.76.39-1.05.53,0,0,0,0-.02,0-.09.05-.19.09-.27.12-.05.02-.09.04-.12.07-.5.22-.51.18-.85.12-.05,0-.1-.04-.16-.08,0,0,0,0,0,0-.07-.03-.12-.08-.19-.12-.14-.09-.28-.21-.4-.3h0s-.03-.04-.04-.06c-.2-.33-.4-.68-.63-1.04-.57-.93-1.22-2-1.41-2.59-.05-.16-.07-.29-.03-.43,0,0,0,0,.02,0,.19.09.4.17.59.23.19.07.38.11.53.11.08,0,.16,0,.25-.02.08-.02.15-.04.23-.07.31-.09.63-.27.91-.37.07-.04.13-.06.2-.07.06-.02.11-.04.17-.04.09,0,.16,0,.23,0,.34.05.6.24.91.34h0c.18.07.35.15.52.24h0c.17.08.35.15.54.21.4.09.81.2,1.3.14.15-.02.31-.05.48-.09.11-.03.24-.06.35-.09.07-.02.13-.04.2-.07.21-.08.41-.16.58-.27.45-.28.92-.93,1.08-1.18.1-.16.1-.26.05-.3-.03-.02-.09-.03-.14-.02-.02,0-.03,0-.05.02-.17.05-.49.31-.84.42h-.02c-.15.04-.34.09-.54.11-.26.05-.54.08-.79.05h-.04c-.45-.05-.87-.23-1.29-.47-.1-.06-.2-.11-.3-.17-.22-.11-.43-.25-.64-.43-.1-.09-.2-.19-.29-.3-.28-.35-.62-1.04-.85-1.53l2.82-2.82h.02c.41-.03.89-.09,1.22-.03.03,0,.07,0,.1.02.11.02.23.05.34.08.1.03.2.06.29.09.09.03.16.06.24.09.24.09.47.2.66.31.07.04.13.09.19.12.52.34.86.81,1.16,1.27.29.47.6,1.02.65,1.53.05.51-.02.94-.4,1.55-.37.6-1.18,1.38-1.85,2.08-.49.52-.99,1.12-1.56,1.65h0ZM28,20.48h0s-9.09,9.08-9.09,9.08l.03.02s-.02.06-.03.07c-.18.39-.54,1.19-.21,2.22.11.35.3.76.54,1.2.04.06.07.12.1.19.28.51.61,1.06.94,1.59,0,.04.04.07.05.09l-.1.06h0l-.28.17h0s-.09.06-.13.1c-.09.08-.15.17-.21.27-.03.05-.05.09-.07.15,0,.04-.02.07,0,.1-.04.19,0,.39.09.56l.43.71c.12.21.31.35.53.41.16.04.33.04.49-.02.05-.02.1-.04.16-.08h0l.42-.25s0,0,0,.02c.07.09.12.21.19.29.32.52.68,1.1,1.19,1.95.53.92,1.32,2.28,2.08,3.58.65,1.14,1.28,2.23,1.74,3.01.22.37.41.71.59,1.03.64,1.09,1.1,1.89,1.57,2.58.58.88.98,1.31,1.33,1.68l.06.06c.09.1.19.19.28.27,0,0,0,0,.02,0,.08.08.16.13.23.19l-7.07,7.07-.02.02c-.13.11-.47.38-.65.5-.06-.05-.12-.09-.18-.13l-.12-.09c-.47-.36-1.14-.85-1.88-1.77-.83-.99-2.11-2.71-2.89-4.01,0,0-.02,0-.02-.02-.67-1.1-1.17-2.26-1.61-3.28-.08-.15-.13-.31-.19-.46t0-.02c-.13-.3-.27-.63-.39-.96,0,0,0,0,0-.02-.17-.43-.32-.85-.45-1.22-.04-.09-.08-.19-.1-.28-.03-.05-.05-.1-.06-.15t0-.02h.02c-.04-.09-.11-.27-.2-.47-.09-.24-.21-.51-.32-.79,0,0,0-.02,0-.02-.12-.28-.26-.56-.39-.83-.1-.18-.19-.36-.29-.51-.4-.62-.86-1.19-1.34-1.64-.15-.15-.31-.29-.47-.42-.6-.47-1.33-.95-2.32-1.03-.2-.02-.4-.02-.61,0h-.04c-.2.02-.4.05-.6.09-.36.08-.71.18-1.02.3-.19.07-.35.13-.5.21-.07.03-.12.06-.18.09-.03,0-.05.03-.07.04-.07-.49-.16-1.04-.31-1.51-.14-.44-.4-.96-.66-1.43l29.43-29.43-.6-1.03h0s-.05-.08-.08-.11l-.06-.11c.06-.07.11-.12.15-.18.23-.28.85-.9,1.22-1.27.14-.15.26-.27.33-.34l.36-.35,2.78,2.78-11.5,11.48Z"/>
  <path class="cls-3" d="M21.66,37.13c.07.1.13.21.2.31.32.52.68,1.1,1.19,1.95.54.92,1.32,2.28,2.08,3.58.66,1.14,1.29,2.23,1.74,3.01.22.37.41.71.59,1.02.63,1.1,1.1,1.89,1.56,2.58.59.88.98,1.31,1.34,1.68l.06.06c.19.21.37.35.53.46l-1.12,1.12s-.1-.03-.15-.05c-.35-.12-.82-.3-1.43-1.08-.71-.92-1.88-2.9-2.82-4.5-.2-.35-.39-.67-.56-.96-.88-1.48-1.67-2.94-2.26-4.01l-.16-.31c-.17-.32-.33-.58-.45-.8-.28-.49-.45-.78-.59-1.24-.1-.33-.12-.64-.12-.97,0-.31,0-.63-.09-1.01-.03-.16-.07-.34-.12-.53.05-.02.11-.04.16-.07l.44-.24Z"/>
  <path class="cls-3" d="M34.62,10.43l.9.9-7.83,7.83c-.13.13-.21.31-.21.5,0,.18.07.37.21.5l.31.31-9.09,9.07.02.02s-.02.05-.03.07c-.17.39-.54,1.18-.21,2.22.26.8.93,1.9,1.58,2.98.02.03.04.06.05.08l-.11.06c-.36-.76-.92-1.8-1.32-2.52-.16-.3-.31-.55-.38-.71l-.06.02-.03-.08-.19.21-.13.07s.02.03.02.04l-8.8,9.24c-.79.07-1.59.34-2.11.59-.09.04-.17.09-.26.14-.07-.49-.16-1.05-.31-1.52-.14-.44-.4-.96-.65-1.43l28.61-28.61h0Z"/>
  <path class="cls-3" d="M35.85,4.5l-1.87-1.87-.02.02-12.86,12.86.86.87c.2.2.38.41.49.59.2.31.39.72.31,1.3-.02.11-.05.22-.09.32-.1.3-.27.56-.4.78l-.03.04c-.15.24-.38.49-.52.67-.04.04-.07.08-.09.1h0s0,0,0,0l-4.9,4.9-.86-.79-1.92,1.92h0s0,.02-.02.02c0,.03-.04.05-.06.07-.18.18-.42.25-.64.21-.14-.03-.28-.1-.37-.21-.21-.21-.27-.51-.16-.77.04-.09.09-.17.16-.24.03-.03.05-.05.09-.08h0s1.85-1.86,1.85-1.86l-.81-.74h0s-11.03,11.04-11.03,11.04l2.1,3.7,28.03-28.02c-.19-.23-.37-.56-.35-.98,0-.21.07-.39.14-.56.05-.11.11-.22.19-.32h0c.08-.11.16-.22.25-.32l.14-.17c.19-.22.52-.57.85-.92h0s1.56-1.57,1.56-1.57ZM11.16,27.11h0s-.09.09-.14.09c-.16.07-.36.04-.49-.09-.02-.02-.05-.05-.06-.08-.05-.05-.07-.1-.07-.16,0-.06-.02-.1,0-.16,0-.09.05-.17.11-.24.05-.05.1-.08.14-.09.06-.04.12-.05.18-.05.11,0,.23.05.31.13h0c.09.09.13.21.13.33,0,.11-.04.23-.12.31Z"/>
  <polygon class="cls-2" points="2.81 29.64 2.28 29.64 1.09 30.83 1.47 31.72 3.18 30.01 2.81 29.64"/>
  <path class="cls-2" d="M11.15,26.48c.17.17.18.46,0,.64s-.46.18-.64,0-.18-.46,0-.64c.08-.08.2-.13.31-.13.13,0,.25.05.33.13Z"/>
</svg>