<?xml version="1.0" encoding="UTF-8"?>
<svg width="57.79" height="61.64" id="Layer_2" data-name="Layer 2" xmlns="http://www.w3.org/2000/svg" viewBox="0 0 57.79 61.64">
  <defs>
    <style>
      .cls-1 {
        fill: #fff;
      }

      .cls-1, .cls-2, .cls-3 {
        fill-rule: evenodd;
        stroke-width: 0px;
      }

      .cls-2 {
        fill: #323232;
      }

      .cls-3 {
        fill: #7e7e7e;
      }
    </style>
  </defs>
  <path class="cls-3" d="M31.54,13.56c.07.05.14.13.23.24.15.2.31.47.44.77.2.46.55,1.22.56,1.75v.02c0,.52-.05.79-.53,1.42-.48.64-1.82,1.88-2.35,2.41s-.56.64-.83.77c-.27.13-.47.03-.79.02-.07,0-.14,0-.22-.01-.27-.02-.59-.05-.88-.11-.38-.07-.85-.15-1.19-.29-.2-.09-.51-.15-.69-.27-.12-.07-.18-.17-.14-.3.12-.34.54-.43,1.53-1.47.99-1.04,3.6-3.95,4.41-4.78.81-.82.27-.31.45-.17Z"/>
  <g>
    <path class="cls-2" d="M7.61,51.83c-.07-.12-.18-.22-.32-.28l-.89-.34s-.05-.05-.08-.07c-.12-.12-.18-.22-.19-.24,0-.02-.01-.08,0-.17.02-.02.04-.04.05-.06.07-.1.28-.33.39-.46.05-.06.09-.1.11-.13l.13-.15c.08-.09.14-.21.15-.34l.2-1.66,1.91-1.91c.13-.13.19-.29.19-.46v-1.24h-.15l13.48-13.48-1.36-1.35-13.83,13.83-1.86.56c-.1.03-.19.09-.26.16L.19,49.13c-.23.23-.25.61-.04.86l9.41,11.42c.13.15.32.24.52.23.16-.01.31-.07.43-.18.02-.03.05-.06.07-.1l1.11-1.62c.14-.2.15-.46.03-.68l-4.11-7.23ZM10.01,59.94L1.51,49.62l4.56-4.56,1.65-.5.25.25v.49s-1.87,1.88-1.87,1.88c-.1.1-.16.23-.18.37l-.2,1.69-.29.32h.01c-.12.14-.22.26-.28.34-.02.02-.03.04-.05.06-.1.14-.18.26-.23.5-.04.23-.06.55.04.86.11.29.33.55.5.72.2.2.4.31.59.41.15.08.36.17.58.26.02,0,.04.02.06.03l3.76,6.61-.4.59Z"/>
    <path class="cls-1" d="M7.71,44.55l.25.25v.49s-1.87,1.88-1.87,1.88c-.1.1-.17.23-.18.37l-.2,1.69-.28.32h0c-.11.14-.21.26-.28.34-.02.02-.03.05-.05.06-.11.14-.19.25-.23.5-.04.22-.07.55.04.85.1.3.33.56.49.73.2.2.4.31.59.41.15.08.36.17.58.26.02,0,.04.02.06.03l3.76,6.61-.41.59L1.5,49.62l4.56-4.56,1.65-.5Z"/>
    <path class="cls-2" d="M29.23,20.26l2.81-2.81c.11-.11.11-.28,0-.38l-.77-.77c-.05-.05-.12-.08-.19-.08-.07,0-.14.03-.19.08l-2.81,2.81c-.11.11-.11.28,0,.38l.77.77c.11.11.28.11.38,0Z"/>
    <path class="cls-2" d="M27.47,24.59c.26.26.26.67,0,.93s-.67.26-.93,0-.25-.67,0-.93c.12-.12.29-.19.46-.19.17,0,.34.07.46.19Z"/>
    <path class="cls-2" d="M31.3,21.46c.26.26.26.67,0,.93s-.67.26-.93,0-.26-.67,0-.93c.12-.12.29-.19.46-.19.17,0,.34.07.46.19Z"/>
    <path class="cls-2" d="M56.84,14.8c-.21-.2-.53-.51-.89-.79-.52-.4-1.1-.84-1.78-1.25-.63-.38-1.58-.87-2.21-1.19l-.21-.11c-.63-.32-.94-.46-1.4-.66-.22-.1-.46-.19-.69-.28-.24-.09-.46-.17-.6-.24-.12-.06-.19-.1-.24-.13l-.5-1.02-1.02-.68-3.13,4.71,1.03.69,1.14.03c.05.03.11.08.22.17.11.1.27.27.45.45.17.18.34.37.52.54.36.34.61.57,1.16,1.03l.17.15c.54.46,1.36,1.14,1.96,1.58.64.46,1.27.83,1.84,1.16.31.17.61.31.86.42l1.36.66,2.91-4.37-.95-.87ZM48.41,14.11c-.15-.15-.32-.32-.47-.49-.2-.2-.38-.4-.54-.54-.3-.26-.51-.38-.79-.48-.18-.06-.36-.06-.5-.05l1.39-2.09c.06.13.13.29.25.43.2.23.38.36.75.54.19.09.44.19.7.29.22.08.44.16.64.25.36.16.62.27,1.02.47l-1.62,2.43c-.34-.3-.54-.49-.83-.76ZM50.41,15.85c-.15-.12-.29-.25-.43-.36l1.74-2.61c.16.08.32.17.49.26l-1.8,2.71ZM51.16,16.45l1.9-2.85c.15.08.29.16.42.24l-1.93,2.91c-.12-.09-.25-.19-.39-.3ZM54.44,18.39c-.05-.02-.11-.05-.18-.08-.06-.03-.13-.06-.2-.09l-.07-.03c-.22-.1-.46-.21-.7-.34-.3-.18-.62-.36-.95-.57l1.94-2.92c.32.23.61.45.89.67.25.19.49.41.68.59l.12.12c.06.05.1.09.15.13l-1.68,2.52Z"/>
    <path class="cls-1" d="M56.11,15.87l-1.67,2.52c-.05-.02-.11-.05-.18-.08-.06-.03-.13-.05-.2-.09l-.07-.04h0c-.21-.09-.46-.21-.69-.34-.31-.17-.63-.36-.95-.56l1.94-2.92c.32.22.61.44.89.66.25.2.49.42.68.59h0s.12.12.12.12c.05.05.1.1.14.14Z"/>
    <path class="cls-1" d="M53.48,13.83l-1.93,2.91c-.12-.09-.25-.19-.38-.29l1.9-2.86c.15.08.29.17.42.24Z"/>
    <path class="cls-1" d="M52.21,13.14l-1.8,2.71c-.15-.12-.29-.24-.43-.36l1.74-2.61c.16.08.32.17.49.26Z"/>
    <path class="cls-1" d="M50.85,12.44l-1.61,2.43c-.34-.29-.54-.48-.83-.76-.15-.15-.32-.32-.48-.49-.19-.21-.38-.4-.54-.54-.3-.26-.51-.39-.79-.48-.18-.06-.36-.06-.5-.05l1.39-2.09c.05.14.13.29.25.43.2.23.38.36.75.54.19.09.44.19.71.29.22.08.44.17.63.25.36.16.62.27,1.02.47Z"/>
    <path class="cls-2" d="M47.99,0c-.1,0-.2.04-.27.11l-.3.3s-.02.03-.04.04l-2.59,2.59,3.08.93,1.51-1.51.14-.11h-.01s.21-.22.21-.22c.15-.15.15-.39,0-.53l-1.48-1.48c-.07-.07-.17-.11-.27-.11Z"/>
    <path class="cls-2" d="M44.89,28.78l.58-.58-3.84-3.84-1.97-3.43s.01-.04.01-.06c.06-.09.1-.14.25-.23.13-.09.55-.24.61-.32.03-.02.05-.04.07-.06l2.32-2.32c.1-.1.15-.24.14-.38l-.24-2.82c.05-.03.09-.06.13-.1.03-.03.05-.06.08-.09l5.42-8.1c.3-.15.69-.37.91-.44.32-.09.39-.06.65,0,.27.06.69.26.93.36.24.1.42.27.54.24s.36-.2.2-.41c-.17-.21-.69-.59-1.2-.86-.4-.22-1.05-.6-1.51-.73-.06-.05-.13-.09-.2-.11l-6.92-2.09c-.22-.07-.47,0-.63.16l-.61.6-1.58,1.57-.45-.45-.66.66.45.45-.24.25-.46-.46-.65.66.45.45-.25.25-.45-.45-.66.66.45.45-.24.24-.46-.45-.65.66.45.45-.25.25-.45-.45-.66.65.45.46-.24.24-.45-.45-.66.66.45.45-.25.25-.45-.45-.66.65.46.46-.25.24-.45-.45-.66.66.45.45-.24.25-.46-.46-.66.66.46.45-.25.25-.45-.45-.66.66.45.45-.24.25-.46-.46-.65.66.45.45-.25.25-.45-.45-.66.66.45.45-.24.24-.45-.45-.66.66.45.45-.25.25-.45-.45-.66.65.45.46-.24.24-.45-.45-.66.66.45.45-.25.25-.45-.46-.66.66.46.46-5.26,5.25,2.39,2.4-1.59,1.59,3.69,3.7,5.01-5.01,1.31-.76,4.42-4.41,1.76-3.06,1.67-1.67c.08.01.14.01.19.03.05.03.07.02.11.1.04.07.06.24.12.37.05.13.1.28.21.42.1.14.29.32.43.44.14.11.28.17.4.22.13.05.22.06.36.06.14.01.38,0,.49-.04.11-.04.19-.16.17-.2-.01-.04-.14-.02-.27-.04-.13-.03-.35-.01-.51-.08-.16-.08-.32-.23-.46-.36-.13-.13-.26-.29-.34-.44-.07-.14-.09-.26-.09-.43s.02-.4.08-.6c.07-.2.28-.48.31-.6.01-.02.01-.04.01-.05h0l1.07-1.07.71.03c.17.17.4.37.51.52.12.18.18.51.24.64l.12,1.5-2.07,2.08-1.02.27-1.13-1.96-1.35,1.35-1.64,2.85-2.83,2.83,1.34.48,1.15.43,2.54,4.55c.03.06.06.1.1.15l3.16,3.15.97-.97,6.74,6.75,3.73-3.73-6.88-6.87ZM21.36,24.22l14-14,1.47,1.46.45-.45-1.47-1.46.46-.46,1.46,1.47.45-.45-1.46-1.47.45-.45,1.46,1.46.46-.45-1.47-1.46.46-.45,1.46,1.46.45-.45-1.46-1.47.45-.45,1.46,1.46.46-.45-1.46-1.45.18-.19.27-.27,1.46,1.46.45-.45-1.46-1.46.45-.45,1.46,1.46.45-.46-1.45-1.45.6-.61,2.71.82-12.25,12.25.3.3-3.77,3.77-.35-.36-.44.44-4.98,4.98-1.71-1.72ZM40.28,13.44c-.18-.01-.36.06-.49.18l-4.27,4.27-1.76,3.05-4.18,4.18-1.31.76-4.23,4.22-1.88-1.89,1.59-1.59,4.74-4.74.35.36,5.13-5.13-.3-.3,11.93-11.93,1.97.59-5.4,8.06-1.89-.09ZM41.34,29.25c-.11.18-.19.39-.24.58-.05.22-.06.41-.03.63.02.14.06.31.11.48l-.85.85-.98-.98,1.94-1.94-.45-.46-1.94,1.95-.46-.45,1.95-1.95-.45-.45-1.91,1.9-.32-.58,1.77-1.77-.45-.45-1.64,1.64-.33-.58,1.52-1.52-.45-.45-1.39,1.39-.32-.58,1.25-1.26-.45-.45-1.13,1.13-.32-.59,1-1-.45-.45-.89.89c-.07-.06-.14-.11-.23-.14l-.83-.32,1.52-1.52,1.65-2.86.05-.05.99,1.74-1.3,1.3.45.45,1.18-1.18.33.57-1.06,1.07.46.45.93-.94.33.57-.81.82.45.45.7-.69.33.57-.58.58.45.45.56-.56.45.45-.55.56.45.45.56-.56.45.45-.56.56.45.46.56-.56.85.85-.21.2h-.08c-.14,0-.32,0-.47,0-.19.01-.39.03-.58.08-.23.07-.4.15-.56.28-.15.12-.3.29-.42.48ZM42.2,31.73l.46-.46-.32-1.02h-.01s.01-.08.02-.13c.01-.06.04-.14.08-.2.04-.07.09-.12.13-.15.02-.01.04-.03.11-.05.09-.02.25-.03.32-.04h.13s.78.08.78.08l.08-.08,5.98,5.97-1.92,1.92-5.84-5.84Z"/>
    <path class="cls-1" d="M43.98,29.68l5.97,5.97-1.92,1.92-5.84-5.84.45-.45-.32-1.02h0s0-.08.01-.13c.01-.06.05-.14.09-.2.04-.07.09-.12.12-.15.02-.02.04-.03.12-.05.09-.03.25-.04.31-.04.04,0,.08,0,.13,0h0s.79.09.79.09l.08-.08Z"/>
    <path class="cls-1" d="M37.27,22.93l.45.45,1.18-1.18.33.57-1.06,1.06.45.45.94-.94.33.57-.82.82.45.45.7-.7.33.57-.57.57.45.45.56-.56.45.45-.56.56.45.45.56-.56.45.45-.56.56.45.45.56-.56.85.85-.21.21s-.05,0-.08,0c-.14,0-.32,0-.47,0-.19.01-.39.03-.59.09-.22.06-.39.15-.55.28-.15.12-.3.29-.42.48-.11.18-.2.39-.24.58-.05.22-.06.41-.03.63.02.14.06.31.11.48l-.85.85-.98-.98,1.94-1.94-.45-.45-1.94,1.94-.45-.45,1.94-1.94-.45-.45-1.9,1.9-.32-.58,1.77-1.77-.45-.45-1.64,1.64-.32-.58,1.51-1.51-.45-.45-1.39,1.39-.32-.58,1.26-1.26-.45-.45-1.13,1.13-.32-.58,1-1-.45-.45-.89.89c-.06-.06-.14-.12-.23-.15l-.83-.31,1.52-1.53,1.64-2.85.05-.05,1,1.73-1.31,1.31Z"/>
    <path class="cls-1" d="M28.05,20.95l-4.98,4.98-1.71-1.71,3.94-3.94c.18.12.48.18.69.27.34.14.81.23,1.19.29.3.05.61.09.88.11Z"/>
    <path class="cls-1" d="M44.56,4.56l-11.79,11.79v-.02c0-.53-.35-1.29-.56-1.75-.13-.3-.3-.57-.44-.77l3.59-3.59,1.46,1.46.45-.45-1.46-1.46.45-.45,1.46,1.46.45-.45-1.46-1.46.45-.45,1.46,1.46.45-.45-1.46-1.46.45-.45,1.46,1.46.45-.45-1.46-1.46.45-.45,1.46,1.46.45-.45-1.45-1.45.18-.19.27-.27,1.46,1.46.45-.45-1.46-1.46.45-.45,1.46,1.46.45-.45-1.46-1.46.6-.6,2.71.82Z"/>
    <path class="cls-1" d="M45.6,4.88l-11.93,11.93.3.3-5.13,5.13-.35-.36-4.74,4.74-1.59,1.59,1.88,1.89,4.23-4.22,1.31-.76,4.18-4.18,1.76-3.05,4.27-4.27c.13-.12.31-.19.49-.18l1.89.09,5.4-8.06-1.97-.59ZM27.47,25.52c-.25.26-.67.26-.92,0-.26-.25-.26-.67,0-.92.12-.13.29-.2.46-.2s.34.07.46.2c.26.25.26.67,0,.92ZM31.31,22.39c-.26.26-.67.26-.93,0s-.25-.67,0-.92c.13-.13.29-.2.47-.2.17,0,.34.07.46.2.25.25.26.67,0,.92Z"/>
    <polygon class="cls-2" points="21.72 19.13 21.53 19.31 22.08 20.34 18.92 23.51 19.48 24.07 24.16 19.37 21.72 19.13"/>
    <polygon class="cls-2" points="39.93 2.61 38.67 4.19 39.05 4.56 41.07 2.54 39.93 2.61"/>
  </g>
</svg>