<?xml version="1.0" encoding="UTF-8"?>
<svg width="81.31" height="81.31" id="Layer_1" data-name="Layer 1" xmlns="http://www.w3.org/2000/svg" xmlns:xlink="http://www.w3.org/1999/xlink" viewBox="0 0 81.31 81.31">
  <defs>
    <style>
      .cls-1 {
        fill: none;
      }

      .cls-1, .cls-2, .cls-3, .cls-4 {
        stroke-width: 0px;
      }

      .cls-5 {
        fill: url(#radial-gradient);
        stroke: #0071bc;
        stroke-miterlimit: 10;
        stroke-width: 2px;
      }

      .cls-2 {
        fill: #323232;
      }

      .cls-3 {
        fill: #fff;
      }

      .cls-4 {
        fill: #7e7e7e;
      }
    </style>
    <radialGradient id="radial-gradient" cx="872.2" cy="-1151.27" fx="872.2" fy="-1151.27" r="39.66" gradientTransform="translate(237.99 1471.46) rotate(-45)" gradientUnits="userSpaceOnUse">
      <stop offset="0" stop-color="#b3b2b3" stop-opacity=".5"/>
      <stop offset="1" stop-color="#333" stop-opacity=".5"/>
    </radialGradient>
  </defs>
  <circle class="cls-5" cx="40.66" cy="40.66" r="39.66"/>
  <g>
    <path class="cls-1" d="M37.05,52.03h-.01s0,0,.01,0Z"/>
    <path class="cls-1" d="M23.35,59.31l-.02.02s0,0,.02-.02Z"/>
    <path class="cls-1" d="M36.84,48.24c-.08.43-.04.77.12,1.02.25.37.72.43.95.47.11.02.18.02.17.1,0,.01,0,.02-.01.03,0,0-.01.01-.03.03-.09.09-.39.34-.88.26-.47-.08-1.13-.65-1.36-.86l-.2.2,1.04,1.04c.08.07.23.16.41.17.2,0,.39-.09.59-.28h0s1-1,1-1c0,0,.18-.18.12-.5-.06-.31-.18-.44-.39-.64l-.77-.77-.76.76Z"/>
    <path class="cls-1" d="M20.47,61.76s-.1.1-.17.16c-.37.37-.96.96-1.39,1.4-.35.36-.54.61-.59.7-.02.1-.05.22-.08.36-.06.23-.18.74-.18.97.43.34.76.61,1,.8.24.2.45.36.58.46.02-.09.05-.23.08-.43.04-.27.13-.72.23-1.24.17-.85.49-2.47.51-3.18Z"/>
    <polygon class="cls-3" points="30.27 45.03 30.03 44.79 27.17 47.65 27.17 48.13 30.27 45.03"/>
    <path class="cls-3" d="M45.9,36.37l-2.9-2.9-3.11,3.11-.34-.34c-.19-.19-.33-.11-.43,0l-2.08,2.08-.27-.27-6.06,6.06.92.92-4.46,4.46-.14.14-2.87,2.87c-.07.18-.24.43-.58.78l-.03.03c-.08.08-.16.16-.22.23l1.65,1.65,14.2-14.2.68.68-14.2,14.2.46.46,10.96-10.96s.05-.05.09-.09c.03-.03.07-.06.1-.09.04-.04.09-.07.13-.1.05-.04.11-.07.16-.1.03-.02.06-.03.1-.05.04-.02.07-.03.11-.04.04-.01.08-.02.13-.03.05,0,.1,0,.14,0,.04,0,.07,0,.11.01l2.7-2.7c-.11-.3-.09-.65.18-.92l4.88-4.88ZM26.67,52.88l-.35.35c-.06.06-.17.06-.23,0l-.6-.6c-.12-.12,0-.32.16-.27l.95.25c.12.03.16.18.07.27ZM27.02,52.19l-1.26-.34c-.12-.03-.16-.18-.07-.27l.92-.92c.09-.09.24-.05.27.07l.34,1.26c.03.12-.08.23-.2.2ZM28.82,50.74l-.92.92c-.09.09-.24.05-.27-.07l-.34-1.26c-.03-.12.08-.23.2-.2l1.26.34c.12.03.16.18.07.27ZM29.17,50.04l-1.26-.34c-.12-.03-.16-.18-.07-.27l.92-.92c.09-.09.24-.05.27.07l.34,1.26c.03.12-.08.23-.2.2ZM30.97,48.59l-.92.92c-.09.09-.24.05-.27-.07l-.34-1.26c-.03-.12.08-.23.2-.2l1.26.34c.12.03.16.18.07.27ZM31.31,47.9l-1.26-.34c-.12-.03-.16-.18-.07-.27l.92-.92c.09-.09.24-.05.27.07l.34,1.26c.03.12-.08.23-.2.2ZM33.11,46.45l-.92.92c-.09.09-.24.05-.27-.07l-.34-1.26c-.03-.12.08-.23.2-.2l1.26.34c.12.03.16.18.07.27ZM33.12,45.66l-.93-.25c-.12-.03-.16-.18-.07-.27l.33-.33c.06-.06.17-.06.23,0,.21.21.42.41.59.58.12.12,0,.32-.16.28ZM39.09,39.71l-4.4,4.4-1.02-1.02,4.4-4.4,1.02,1.02Z"/>
    <path class="cls-3" d="M53.01,23.85l-.22-.16-9.1,9.1,2.9,2.9,8.44-8.44-1.04-2.42-.98-.98ZM47.86,33.41l-1.17,1.17c-.14.14-.37.14-.51,0s-.14-.37,0-.51l1.17-1.17c.14-.14.37-.14.51,0s.14.37,0,.51ZM46.42,31.97l-1.17,1.17c-.14.14-.37.14-.51,0s-.14-.37,0-.51l1.17-1.17c.14-.14.37-.14.51,0s.14.37,0,.51ZM49.83,31.44l-1.17,1.17c-.14.14-.37.14-.51,0s-.14-.37,0-.51l1.17-1.17c.14-.14.37-.14.51,0s.14.37,0,.51ZM48.39,30l-1.17,1.17c-.14.14-.37.14-.51,0s-.14-.37,0-.51l1.17-1.17c.14-.14.37-.14.51,0s.14.37,0,.51ZM51.81,29.47l-1.17,1.17c-.14.14-.37.14-.51,0s-.14-.37,0-.51l1.17-1.17c.14-.14.37-.14.51,0s.14.37,0,.51ZM50.37,28.03l-1.17,1.17c-.14.14-.37.14-.51,0s-.14-.37,0-.51l1.17-1.17c.14-.14.37-.14.51,0s.14.37,0,.51ZM53.78,27.49l-1.17,1.17c-.14.14-.37.14-.51,0s-.14-.37,0-.51l1.17-1.17c.14-.14.37-.14.51,0s.14.37,0,.51ZM52.34,26.05l-1.17,1.17c-.14.14-.37.14-.51,0s-.14-.37,0-.51l1.17-1.17c.14-.14.37-.14.51,0s.14.37,0,.51Z"/>
    <path class="cls-2" d="M53.63,23.11l-.95-.67-2.05,2.05-.25-.25-.42.42.25.25-.29.29-.25-.25-.42.42.25.25-.29.29-.25-.25-.42.42.25.25-.29.29-.25-.25-.42.42.25.25-.29.29-.25-.25-.42.42.25.25-.29.29-.25-.25-.42.42.25.25-.29.29-.25-.25-.42.42.25.25-.29.29-.25-.25-.42.42.25.25-.29.29-.25-.25-.42.42.25.25-.29.29-.25-.25-.42.42.25.25-.29.29-.25-.25-.42.42.25.25-.29.29-.25-.25-.42.42.25.25-.29.29-.25-.25-.42.42.25.25-.63.63-.36-.36-.21.21-.21-.21c-.13-.13-.25-.08-.3-.04l-2.37,2.37-.15-.15-.27.27.15.15-.03.03c-.1.1-.1.22,0,.36l-.23.23-.27-.27-.37.37-.25-.25-.42.42.25.25-.29.29-.25-.25-.42.42.25.25-.29.29-.25-.25-.42.42.25.25-.29.29-.25-.25-.42.42.25.25-.29.29-.25-.25-.42.42.25.25-.29.29-.25-.25-.42.42.25.25-.29.29-.25-.25-.42.42.25.25-.29.29-.25-.25-.42.42.25.25-.29.29-.25-.25-.42.42.25.25-.29.29-.25-.25-.42.42.25.25-.29.29-.25-.25-.42.42.25.25-.29.29-.25-.25-.42.42.25.25-.29.29-.25-.25-.42.42.25.25-.29.29-.25-.25-.42.42.25.25-.5.5v1.84s-1.64,1.64-1.64,1.64l-.25-.25-.42.42.25.25-.29.29-.25-.25-.42.42.25.25-.15.15v.12s-.12.2-.38.46l-.03.03c-.26.26-.42.42-.51.59-.08.14-.21.5.14.85l3.61,3.61,11.64-11.64.02-.02s.02-.02.04-.04c.02-.01.03-.03.06-.05.02-.02.04-.04.06-.05.01,0,.02-.02.04-.02l.33.23,3.47-3.47.33-.31-.31-.34s-.03-.05-.05-.07l14.4-14.4-1.37-3.19-1.16-1.16ZM40.84,42.17l-2.7,2.7s-.07-.01-.11-.01c-.05,0-.09,0-.14,0-.04,0-.08.01-.13.03-.04.01-.07.02-.11.04-.03.01-.06.03-.1.05-.05.03-.11.06-.16.1-.04.03-.09.06-.13.1-.03.03-.07.06-.1.09-.04.04-.07.07-.09.09l-10.96,10.96-.46-.46,14.2-14.2-.68-.68-14.2,14.2-1.65-1.65c.06-.07.15-.15.22-.23l.03-.03c.34-.34.5-.6.58-.78l2.87-2.87.14-.14,4.46-4.46-.92-.92,6.06-6.06.27.27,2.08-2.08c.1-.1.24-.19.43,0l.34.34,3.11-3.11,2.9,2.9-4.88,4.88c-.27.27-.29.61-.18.92ZM30.03,44.79l.24.24-3.1,3.1v-.48s2.86-2.86,2.86-2.86ZM46.58,35.69l-2.9-2.9,9.1-9.1.22.16.98.98,1.04,2.42-8.44,8.44Z"/>
    <path class="cls-3" d="M13.74,63.72c.39.49.66.75,1.03,1.03l8.02-8.02h-.01s.2-.21.2-.21l-.98-.98h-.08l-8.18,8.18ZM16.98,62.38l-1.15,1.15c-.14.14-.37.14-.51,0s-.14-.37,0-.51l1.15-1.15c.14-.14.37-.14.51,0s.14.37,0,.51ZM21.4,57.96l-1.15,1.15c-.14.14-.37.14-.51,0s-.14-.37,0-.51l1.15-1.15c.14-.14.37-.14.51,0s.14.37,0,.51Z"/>
    <path class="cls-3" d="M15.36,65.17c.08.05.16.11.26.17.15.1.31.2.49.33,1.42.96,3.57,2.82,3.89,3.13.16.16.26.25.31.3.12-.08.27-.2.43-.37.11-.11.16-.18.17-.2,0-.02-.02-.06-.03-.09-.05-.17-.14-.43-.11-.84.03-.56.57-3.25,1.17-6.21.19-.95.37-1.84.39-1.96.06-.48.27-.72.35-.8l1-1-.39-.39-7.93,7.93ZM21.27,60.99c.31.46.14,1.6-.36,4.14-.1.51-.19.95-.22,1.19-.07.51-.17.91-.4,1.14-.04.04-.09.08-.14.11-.3.18-.59.07-.68.03-.23-.09-.43-.25-.99-.7-.26-.21-.62-.5-1.09-.87l-.02-.02c-.38-.33-.26-.95-.04-1.86.03-.13.06-.26.08-.33.02-.11.07-.39.84-1.17.43-.44,1.02-1.03,1.39-1.4.42-.42.72-.68,1.08-.65.32.03.48.28.56.39Z"/>
    <path class="cls-2" d="M21.51,54.58l-8.69,8.69c-.28.28-.31.57-.29.77.06.66.76,1.33,2.86,2.75,1.56,1.06,2.85,2.22,3.54,2.85.38.34.49.44.59.5.47.26,1.16-.02,1.89-.75.5-.5.52-.82.38-1.26-.04-.14-.08-.26-.07-.5.03-.53.73-4,1.15-6.07.26-1.27.38-1.89.4-2.03.02-.16.07-.23.08-.24l1.68-1.68-.91-.91.2-.2-2.26-2.26-.32.32h-.23ZM22.68,58.62c-.08.08-.29.32-.35.8-.02.11-.2,1.01-.39,1.96-.6,2.95-1.14,5.65-1.17,6.21-.02.41.06.67.11.84,0,.03.02.07.03.09-.02.03-.06.09-.17.2-.17.17-.31.28-.43.37-.05-.04-.15-.14-.31-.3-.31-.31-2.47-2.18-3.89-3.13-.18-.12-.34-.23-.49-.33-.09-.06-.18-.12-.26-.17l7.93-7.93.39.39-1,1ZM22.97,56.52l-.2.2h.01s-8.02,8.03-8.02,8.03c-.37-.28-.63-.54-1.03-1.03l8.18-8.18h.08l.98.98ZM23.34,59.33l.02-.02s-.01.01-.02.02Z"/>
    <path class="cls-2" d="M19.63,61.24c-.37.37-.96.97-1.39,1.4-.78.79-.83,1.07-.84,1.17-.01.07-.04.2-.08.33-.22.91-.34,1.52.04,1.86l.02.02c.47.37.83.66,1.09.87.55.45.76.61.99.7.1.04.39.15.68-.03.05-.03.1-.07.14-.11.23-.23.33-.63.4-1.14.03-.24.12-.68.22-1.19.51-2.54.67-3.68.36-4.14-.08-.12-.24-.36-.56-.39-.37-.04-.67.23-1.08.65ZM19.66,66.62c-.13-.1-.34-.27-.58-.46-.25-.2-.58-.47-1-.8,0-.22.12-.74.18-.97.03-.14.07-.26.08-.36.05-.09.23-.34.59-.7.43-.43,1.02-1.03,1.39-1.4.06-.06.12-.12.17-.16-.01.71-.34,2.34-.51,3.18-.1.52-.19.98-.23,1.24-.03.2-.06.34-.08.43Z"/>
    <path class="cls-3" d="M35.27,50.49l-1.76,1.76c.08.05.15.1.23.16.45.38.52.75.64,1.63.09.65.46,1.99.68,2.8.07.26.13.47.16.6l.03.13c.02.09.05.19.07.27.46-.13,1.81-.67,2.34-.88.07-.03.13-.05.18-.07-.11-.08-.22-.19-.27-.37-.06-.18-1.26-3.48-1.43-3.91-.2-.49-.06-.9.11-1.13l-.99-.99Z"/>
    <path class="cls-2" d="M37.52,46.89l-2.25,2.25h0s-3.83,3.83-3.83,3.83h1.18s.28,0,.5.18c.15.13.19.16.32,1.04.1.7.47,2.03.71,2.91.07.25.13.46.16.59l.03.12c.12.49.25,1,.9,1.02.24,0,.7-.13,2.8-.97.2-.08.36-.15.46-.18.19-.07.32-.16.41-.25.17-.17.21-.35.22-.47.02-.29-.16-.58-.44-.72-.08-.04-.15-.07-.21-.09,0,0,0,0,0,0-.22-.64-1.26-3.48-1.42-3.88-.05-.12-.02-.19,0-.22l.56-.56-.26-.26,1.55-1.55s0,0,0,0c.05-.05.31-.34.23-.82-.08-.42-.27-.61-.49-.84l-.87-.87h0s-.24-.24-.24-.24ZM36.15,52.61c.18.43,1.37,3.72,1.43,3.91.05.18.16.29.27.37-.06.02-.12.05-.18.07-.54.22-1.89.76-2.34.88-.02-.08-.05-.18-.07-.27l-.03-.13c-.04-.14-.09-.34-.16-.6-.22-.8-.59-2.15-.68-2.8-.13-.88-.2-1.25-.64-1.63-.08-.06-.15-.12-.23-.16l1.76-1.76.99.99c-.17.24-.31.64-.11,1.13ZM37.04,52.04h.01s0,0-.01,0ZM38.77,48.89c.06.32-.12.5-.12.5l-1,1h0c-.2.2-.39.29-.59.28-.18,0-.33-.1-.41-.17l-1.04-1.04.2-.2c.23.21.89.78,1.36.86.49.08.79-.17.88-.26.02-.02.02-.03.03-.03,0,0,.01-.02.01-.03,0-.07-.06-.08-.17-.1-.23-.03-.7-.1-.95-.47-.17-.25-.21-.59-.12-1.02l.76-.76.77.77c.21.21.33.33.39.64Z"/>
    <path class="cls-3" d="M42.79,43.48l-3.3,3.3c.62.55,1.85,1.63,2.52,2.12.5.36,1.45,1.22,2.37,2.05.58.52,1.28,1.15,1.63,1.43.59-.53,2.16-2.22,2.77-2.94.24-.29.35-.41-.5-1.13-.62-.53-4.33-3.81-5.49-4.83Z"/>
    <path class="cls-2" d="M44.09,42.81c-.18-.16-.44-.16-.62-.01-.23-.21-.38-.33-.38-.34l-.34-.3-4.65,4.65.37.34c.08.07,2.01,1.83,2.98,2.53.46.33,1.43,1.21,2.29,1.98,1.9,1.71,2.01,1.78,2.28,1.78.18,0,.31,0,1.09-.78.19-.19.41-.42.68-.7.67-.71,1.4-1.52,1.72-1.89.7-.83.36-1.51-.1-2,.11-.19.07-.44-.1-.6l-5.22-4.65ZM48.78,49.44c-.61.72-2.18,2.42-2.77,2.94-.35-.28-1.05-.91-1.63-1.43-.92-.83-1.87-1.68-2.37-2.05-.68-.49-1.9-1.57-2.52-2.12l3.3-3.3c1.16,1.02,4.88,4.3,5.49,4.83.84.72.74.84.5,1.13Z"/>
    <path class="cls-2" d="M64.06,12.27c-.13-.02-.18,0-.2,0h0s-1.92,1.92-1.92,1.92l.07.12-1.2,1.2v.11l-4.67,4.67-.17.05-.67-.67-.37-.1-.2.2.1.1-.49.49h-.17l-.18.18.82.82c-.09.1-.29.33-.36.46-.05.09-.09.15-.1.17l-.7.7.2.15,1,1.01.61-.61c.06-.03.37-.18.54-.35l.17-.17.53.53-1.34,1.33.65,1.51h0s.02.04.02.04l.03.08h0s.43.96.43.96l.71-.71c.06.03.16.04.23-.03s.05-.19.02-.27l.87-.87c.07.02.17.02.27-.08.11-.11.05-.27-.02-.38l.4-.4s.06-.09.06-.15c0-.13-.12-.24-.13-.25l-.34-.34c.13-.14.21-.24.22-.27.08-.2-.05-.32-.3-.57-.03-.03-.07-.07-.11-.11l-1.12-1.12h0s-.17-.18-.17-.18l6.02-6.02.15.09,1.93-1.93v-.02s.06-.28-.37-.71-.6-.57-.75-.59Z"/>
    <path class="cls-2" d="M53.21,30.89c.07.07.24.12.88-.25.08-.05.13-.03.14-.02l.1.1-.57.57.09.09-.33.33.07.11-2.22,2.22c-.58.58-.69.99-.7,1.09l-3.33,3.33c-.07-.05-.22-.13-.36-.04-.02.01-.04.02-.07.04-.17.09-.46.25-.32.75.16.56.78.85,1.08.93.29.07.45-.1.58-.24.02-.03.05-.05.07-.07h0c.06-.06.09-.13.09-.2,0-.09-.06-.14-.06-.15l-.11-.11,5.54-5.54h.5s1.12-1.12,1.12-1.12c.1-.1.07-.24.04-.32.13-.07.47-.27.69-.4.04-.02.07-.04.1-.06.14-.08.24-.13.35-.24.05-.05.1-.11.16-.19.23-.31.3-.7.28-.93-.02-.26-.11-.48-.17-.55-.04-.06-.11-.06-.17-.06-.04,0-.07,0-.1-.02-.02,0-.02-.03-.03-.08,0-.05,0-.1-.05-.15-.06-.08-.5-.43-.55-.47l-.04-.03-.15.15s-.11.1-.14.09c-.03,0-.06-.04-.08-.07-.05-.09.15-.57.36-.97l.02-.04-.12-.12-2.61,2.61.04.04Z"/>
    <path class="cls-2" d="M24.66,50.28h.01s1.2-1.2,1.2-1.2l-.14-.14h-.6s-.22.22-.22.22l-.89-.89-.23.06-.62-.62-.33.33.61.61-.08.28.89.89c0,.07,0,.22.17.38.09.09.19.09.23.07Z"/>
    <path class="cls-2" d="M50.65,24.1l1.35-1.35h-.82s-.31.31-.31.31l-.96-.96s-.39-.36-.58-.17c-.02.02-.04.04-.06.05-.11.1-.24.22-.24.37,0,.08.04.16.11.24.24.24,1.46,1.45,1.47,1.46l.04.04Z"/>
    <path class="cls-2" d="M16.47,61.87l-1.15,1.15c-.14.14-.14.37,0,.51s.37.14.51,0l1.15-1.15c.14-.14.14-.37,0-.51s-.37-.14-.51,0Z"/>
    <path class="cls-2" d="M20.89,57.45l-1.15,1.15c-.14.14-.14.37,0,.51s.37.14.51,0l1.15-1.15c.14-.14.14-.37,0-.51s-.37-.14-.51,0Z"/>
    <rect class="cls-2" x="33.27" y="40.68" width="6.22" height="1.44" transform="translate(-18.62 37.85) rotate(-45)"/>
    <path class="cls-2" d="M45.91,31.46l-1.17,1.17c-.14.14-.14.37,0,.51s.37.14.51,0l1.17-1.17c.14-.14.14-.37,0-.51s-.37-.14-.51,0Z"/>
    <path class="cls-2" d="M47.88,29.49l-1.17,1.17c-.14.14-.14.37,0,.51s.37.14.51,0l1.17-1.17c.14-.14.14-.37,0-.51s-.37-.14-.51,0Z"/>
    <path class="cls-2" d="M49.86,27.52l-1.17,1.17c-.14.14-.14.37,0,.51s.37.14.51,0l1.17-1.17c.14-.14.14-.37,0-.51s-.37-.14-.51,0Z"/>
    <path class="cls-2" d="M51.83,25.55l-1.17,1.17c-.14.14-.14.37,0,.51s.37.14.51,0l1.17-1.17c.14-.14.14-.37,0-.51s-.37-.14-.51,0Z"/>
    <path class="cls-2" d="M47.35,32.9l-1.17,1.17c-.14.14-.14.37,0,.51s.37.14.51,0l1.17-1.17c.14-.14.14-.37,0-.51s-.37-.14-.51,0Z"/>
    <path class="cls-2" d="M49.32,30.93l-1.17,1.17c-.14.14-.14.37,0,.51s.37.14.51,0l1.17-1.17c.14-.14.14-.37,0-.51s-.37-.14-.51,0Z"/>
    <path class="cls-2" d="M51.3,28.96l-1.17,1.17c-.14.14-.14.37,0,.51s.37.14.51,0l1.17-1.17c.14-.14.14-.37,0-.51s-.37-.14-.51,0Z"/>
    <path class="cls-2" d="M53.27,26.99l-1.17,1.17c-.14.14-.14.37,0,.51s.37.14.51,0l1.17-1.17c.14-.14.14-.37,0-.51s-.37-.14-.51,0Z"/>
    <path class="cls-4" d="M26.61,50.65l-.92.92c-.09.09-.05.24.07.27l1.26.34c.12.03.23-.08.2-.2l-.34-1.26c-.03-.12-.18-.16-.27-.07Z"/>
    <path class="cls-4" d="M30.9,46.36l-.92.92c-.09.09-.05.24.07.27l1.26.34c.12.03.23-.08.2-.2l-.34-1.26c-.03-.12-.18-.16-.27-.07Z"/>
    <path class="cls-4" d="M28.76,48.5l-.92.92c-.09.09-.05.24.07.27l1.26.34c.12.03.23-.08.2-.2l-.34-1.26c-.03-.12-.18-.16-.27-.07Z"/>
    <path class="cls-4" d="M31.78,45.83c-.12-.03-.23.08-.2.2l.34,1.26c.03.12.18.16.27.07l.92-.92c.09-.09.05-.24-.07-.27l-1.26-.34Z"/>
    <path class="cls-4" d="M29.63,47.98c-.12-.03-.23.08-.2.2l.34,1.26c.03.12.18.16.27.07l.92-.92c.09-.09.05-.24-.07-.27l-1.26-.34Z"/>
    <path class="cls-4" d="M27.48,50.12c-.12-.03-.23.08-.2.2l.34,1.26c.03.12.18.16.27.07l.92-.92c.09-.09.05-.24-.07-.27l-1.26-.34Z"/>
    <path class="cls-4" d="M25.65,52.36c-.16-.04-.28.16-.16.27l.6.6c.06.06.17.06.23,0l.35-.35c.09-.09.05-.24-.07-.27l-.95-.25Z"/>
    <path class="cls-4" d="M32.46,44.8l-.33.33c-.09.09-.05.24.07.27l.93.25c.16.04.28-.16.16-.28-.18-.17-.39-.38-.59-.58-.06-.06-.17-.06-.23,0Z"/>
  </g>
</svg>