<?xml version="1.0" encoding="UTF-8"?>
<svg width="81.31" height="81.31" id="Layer_1" data-name="Layer 1" xmlns="http://www.w3.org/2000/svg" xmlns:xlink="http://www.w3.org/1999/xlink" viewBox="0 0 81.31 81.31">
  <defs>
    <style>
      .cls-1 {
        fill: none;
      }

      .cls-1, .cls-2, .cls-3, .cls-4 {
        stroke-width: 0px;
      }

      .cls-2 {
        fill: #323232;
      }

      .cls-3 {
        fill: #fff;
      }

      .cls-5 {
        fill: url(#radial-gradient);
        stroke: #9a63c1;
        stroke-miterlimit: 10;
        stroke-width: 2px;
      }

      .cls-4 {
        fill: #7e7e7e;
      }
    </style>
    <radialGradient id="radial-gradient" cx="872.2" cy="-1151.27" fx="872.2" fy="-1151.27" r="39.66" gradientTransform="translate(237.99 1471.46) rotate(-45)" gradientUnits="userSpaceOnUse">
      <stop offset="0" stop-color="#b3b2b3" stop-opacity=".5"/>
      <stop offset="1" stop-color="#333" stop-opacity=".5"/>
    </radialGradient>
  </defs>
  <circle class="cls-5" cx="40.66" cy="40.66" r="39.66"/>
  <g>
    <path class="cls-1" d="M42.89,37.04c-.53-.35-1.24-.48-2.13-.38l-2.81,2.81c-.07.08-.96,1.1-.31,2.25.27.48.7.81,1.13,1.13.17.13.35.26.52.42v-.05s.15.2.15.2c.04.04.08.08.12.12.1.09.31.22.56.19h.07q.27-.04,1.2-.98c.17-.17.36-.36.59-.59.13-.13.26-.25.37-.37,1.33-1.32,1.73-1.72,1.57-2.88-.12-.87-.46-1.5-1.03-1.87ZM40.81,42.85c-.3.3-.48.42-.77.39-.19-.02-.29-.13-.42-.26-.07-.07-.16-.17-.3-.28-.08-.07-.17-.13-.26-.2-.35-.26-.75-.56-.98-.94-.24-.4-.29-1.28.12-1.69,0,0,0,0,0,0l.61-.59.09.23s.32.8,1.1,1.53c.78.72,1.45.79,1.46.8l.34.03-.99.99Z"/>
    <path class="cls-3" d="M48.57,18.46l.6,1.26c.09-.11.18-.23.28-.33l-.58-1.23-.3.3Z"/>
    <path class="cls-3" d="M23.38,47.03l2.05-2.05-1.47-3.1.62-.62,1.47,3.1.3-.3-1.47-3.1.62-.62,1.47,3.1.3-.3-1.47-3.1.62-.62,1.47,3.1.3-.3-1.47-3.1.62-.62,1.47,3.1.3-.3-1.47-3.1.62-.62,1.47,3.1.3-.3-1.47-3.1.62-.62,1.47,3.1,16.75-16.75c.08-.22.27-.68.53-1.23l-.86-1.82-9.12,9.12.64.64-3.92,3.92c-.15.16-.9.95-1.84.85-.78-.08-1.1-.35-1.4-.66-.02-.02-.04-.04-.06-.06l-.33-.33-.41-.11-5.09,5.09.88.52-3.32,3.32-.37-.6-1.3,1.3c.13.55.45,1.68.99,2.56.39.62.73,1.13.99,1.49Z"/>
    <path class="cls-3" d="M47.66,19.37l.72,1.53c.08-.14.16-.27.24-.41l-.67-1.42-.3.3Z"/>
    <polygon class="cls-3" points="50.84 14.36 50.33 14.06 36.44 27.63 37.01 28.19 50.84 14.36"/>
    <path class="cls-3" d="M50.96,17.81c.72-.75,1.47-1.51,1.92-1.98l-.84-.84-1.64,1.64.56,1.18Z"/>
    <path class="cls-3" d="M49.49,17.54l.57,1.21c.09-.1.19-.2.29-.3l-.57-1.2-.3.3Z"/>
    <path class="cls-2" d="M22.8,48.42l.45.56,25.13-25.13.1-.1.05-.14s.81-2.24,1.94-3.43c1.23-1.29,3.75-3.88,3.78-3.9l.45-.46-2.13-2.13h-.01c-.14-.14-.62-.59-1-.73-.34-.13-.47-.15-.57-.15h-.25s-.61-.35-.61-.35l-15.52,15.16.39.39-4.09,4.09-.69-.19-6.8,6.79.89.52-.98.98-.37-.6-2.95,2.95.06.34c.01.08.37,1.92,1.24,3.33.82,1.34,1.49,2.17,1.51,2.2ZM48.38,20.9l-.72-1.53.3-.3.67,1.42c-.09.13-.17.27-.24.41ZM49.17,19.72l-.6-1.26.3-.3.58,1.23c-.1.11-.19.22-.28.33ZM50.06,18.75l-.57-1.21.3-.3.57,1.2c-.1.1-.2.21-.29.3ZM52.04,14.99l.84.84c-.46.47-1.2,1.23-1.92,1.98l-.56-1.18,1.64-1.64ZM50.33,14.06l.51.3-13.83,13.83-.57-.57,13.89-13.56ZM22.69,41.68l.37.6,3.32-3.32-.88-.52,5.09-5.09.41.11.33.33s.04.04.06.06c.3.31.62.58,1.4.66.94.1,1.69-.69,1.84-.85l3.92-3.92-.64-.64,9.12-9.12.86,1.82c-.26.55-.45,1.01-.53,1.23l-16.75,16.75-1.47-3.1-.62.62,1.47,3.1-.3.3-1.47-3.1-.62.62,1.47,3.1-.3.3-1.47-3.1-.62.62,1.47,3.1-.3.3-1.47-3.1-.62.62,1.47,3.1-.3.3-1.47-3.1-.62.62,1.47,3.1-.3.3-1.47-3.1-.62.62,1.47,3.1-2.05,2.05c-.26-.36-.61-.87-.99-1.49-.54-.88-.86-2.01-.99-2.56l1.3-1.3Z"/>
    <path class="cls-3" d="M24.81,50c-.08.65-.29,1.07-.49,1.39-.13.2-.31.41-.55.62.17-.07.38-.16.65-.27l.18-.07c.08-.03.15-.07.23-.1.82-.35,1.93-.83,3.11-.35.95.39,1.7,1.31,2.31,2.81.37.92.88,2.18,1.44,3.55,1.6,3.95,3.78,9.35,4.09,10.01.01.03.03.05.03.06.07-.02.18-.08.25-.13l.03-.02,8.71-6.58c-.82-1.59-3.45-6.67-4.32-8.22-.11-.2-.24-.42-.37-.64-1.11-1.91-2.62-4.52-1.54-6.61.41-.78.19-.95-.6-1.55-.48-.36-1.07-.82-1.47-1.53-.9-1.61-.06-3.17.51-3.78h.01s12.22-12.24,12.22-12.24l-.4-.4-24.04,24.04ZM43.78,61.02l-6.25,4.63-.23-.3s-.22-.22-.68,0c-.5.23-.66.43-.66.43l-.09.11-.05-.13-7.19-17.6.03-.04c.39-.47.67-.78.86-.99.23-.26.36-.4.33-.44l-.19-.25.02-.04s.38-.85,1.5-1.65c1.34-.95,2.6-1.22,2.74-1.24.47-.09.67-.09.68-.09h.05l.94,1.62-.06.04s-.27.21-.37.5c-.05.13-.05.26-.02.39.15.51.68,1.01.9,1.02.25,0,.39-.05.4-.05l.07-.03.03.07,7.25,14.05ZM36.53,44.93c.04-.14.12-.28.24-.4.37-.37.96-.37,1.32,0,.37.37.37.96,0,1.32-.26.26-.64.34-.97.22l-.54.31c-.31.18-.7.07-.88-.24-.18-.31-.07-.7.24-.88l.6-.34Z"/>
    <path class="cls-2" d="M48.85,24.13l-25.3,25.3v.24c-.04.49-.16.77-.33,1.04-.19.31-.8.75-1.62,1.18-.36.19-.54.58-.47.97.08.4.4.69.8.73.3.03.6.03.91,0,.72-.08.92-.17,2.09-.66l.18-.07c.08-.03.16-.07.25-.11.67-.29,1.43-.62,2.11-.34.6.25,1.14.95,1.61,2.1.04.1.09.21.13.33-.11.32-.23.68-.26.79-.05.18.19.85.7,2.02h0c.12.28.27.49.84.39,0,.01,0,.02.01.04,1.69,4.18,3.79,9.38,4.11,10.07.25.54.64.73.91.79.65.14,1.22-.28,1.36-.4l.08-.06c.34.33.53.3,1.19-.2.22-.17.86-.65,1.67-1.26,3-2.27,5.95-4.49,6.12-4.65.03-.03.07-.06.1-.09.08-.07.17-.15.25-.23.27-.27.51-.62.34-1.01h0s0,0,0,0l-.54-.8-.17.11c-.84-1.62-3.45-6.66-4.34-8.25-.12-.21-.24-.43-.38-.65-.96-1.65-2.26-3.9-1.51-5.37.03-.05.05-.1.07-.15.27-.5.81-1.04,1-1.22.04-.02.08-.05.1-.08.21-.23,2.72-2.72,2.74-2.74,0,0,.02-.01.04-.04.22-.22,1.28-1.37,1.11-3.01-.11-1.07-.57-1.57-.93-1.98-.26-.28-.46-.51-.49-.86-.07-.77.52-1.35,1-1.81.05-.05.1-.1.15-.15l1.08-1.08-.55-.55.86-.86.55.55.91-.91-.55-.55.84-.84.55.55.91-.91-.55-.55.84-.84.55.55.91-.91-.55-.55.74-.74-2.22-2.22ZM43.92,38.92c.16,1.16-.24,1.56-1.57,2.88-.12.12-.24.24-.37.37-.23.23-.43.43-.59.59q-.93.94-1.2.97h-.07c-.26.04-.46-.09-.56-.18-.04-.04-.08-.08-.12-.12l-.16-.2v.05c-.16-.15-.34-.29-.51-.42-.42-.32-.86-.65-1.13-1.13-.65-1.15.24-2.17.31-2.25l2.81-2.81c.89-.1,1.6.02,2.13.38.56.38.91,1.01,1.03,1.87ZM37.02,38.58h-.01c-.57.61-1.41,2.18-.51,3.79.4.71.99,1.16,1.47,1.53.79.6,1.01.77.6,1.55-1.08,2.09.43,4.7,1.54,6.61.13.22.25.44.37.64.87,1.55,3.5,6.62,4.32,8.22l-8.71,6.58-.03.02c-.07.06-.18.12-.25.13,0-.01-.02-.03-.03-.06-.31-.66-2.49-6.06-4.09-10.01-.56-1.37-1.06-2.63-1.44-3.55-.61-1.5-1.37-2.42-2.31-2.81-1.18-.48-2.3,0-3.11.35-.08.03-.16.07-.23.1l-.18.07c-.27.11-.48.2-.65.27.24-.21.42-.41.55-.62.2-.32.41-.74.49-1.39l24.04-24.04.4.4-12.22,12.22Z"/>
    <path class="cls-3" d="M54.81,18.43c-.76.75-2.27,2.26-2.91,2.95-.45.51-.93,1.41-1.2,1.99l.4.4,4.51-4.51-.12-.16-.68-.68Z"/>
    <path class="cls-2" d="M56.47,18.26l-1.66-1.65-.46.45c-.1.1-2.52,2.49-3.41,3.45h0c-.84.96-1.57,2.68-1.6,2.76l-.17.4,1.93,1.94,6.22-6.22-.85-1.13ZM51.1,23.78l-.4-.4c.27-.58.74-1.48,1.2-1.99.64-.7,2.15-2.2,2.91-2.95l.68.68.12.16-4.51,4.51Z"/>
    <path class="cls-4" d="M36.49,46.91l-.07.03s-.14.06-.4.05c-.23,0-.75-.5-.9-1.02-.04-.12-.03-.26.02-.39.1-.29.37-.49.37-.5l.06-.04-.94-1.62h-.05s-.21,0-.68.09c-.14.03-1.4.29-2.74,1.24-1.12.8-1.48,1.61-1.5,1.65l-.02.04.19.25s-.1.18-.33.44c-.19.21-.47.53-.86.99l-.03.04,7.19,17.6.05.13.09-.11s.16-.2.66-.43c.46-.21.68,0,.68,0l.23.3,6.25-4.63-7.25-14.05-.03-.07Z"/>
    <polygon class="cls-2" points="22.98 39.14 23.39 39.75 23.85 39.31 23.03 38.78 20.31 40.26 20.03 40.54 20.41 41.71 22.98 39.14"/>
    <path class="cls-2" d="M49.63,12.53l-.08-.06s-.37-.24-.62-.01c-.21.19-2.05,1.87-2.12,1.95l-.05.04.31.57,2.57-2.49Z"/>
    <path class="cls-2" d="M35.7,46.16c.18.31.57.42.88.24l.54-.31c.33.11.71.04.97-.22.37-.37.37-.96,0-1.32-.37-.37-.96-.37-1.32,0-.11.11-.19.25-.24.4l-.6.34c-.31.18-.42.57-.24.88Z"/>
    <path class="cls-2" d="M39.99,41.03c-.78-.72-1.1-1.52-1.1-1.53l-.09-.23-.61.59s0,0,0,0c-.41.41-.36,1.29-.12,1.69.23.38.63.68.98.94.09.07.18.14.26.2.14.11.23.2.3.28.13.13.23.23.42.26.3.04.47-.08.77-.39l.99-.99-.34-.03s-.68-.08-1.46-.8Z"/>
  </g>
</svg>