<?xml version="1.0" encoding="UTF-8"?>
<svg width="81.31" height="81.31" id="Layer_1" data-name="Layer 1" xmlns="http://www.w3.org/2000/svg" xmlns:xlink="http://www.w3.org/1999/xlink" viewBox="0 0 81.31 81.31">
  <defs>
    <style>
      .cls-1 {
        fill: none;
      }

      .cls-1, .cls-2, .cls-3, .cls-4, .cls-5 {
        stroke-width: 0px;
      }

      .cls-2 {
        fill: gray;
      }

      .cls-3 {
        fill: #333;
      }

      .cls-4 {
        fill: #323232;
      }

      .cls-5 {
        fill: #fff;
      }

      .cls-6 {
        fill: url(#radial-gradient);
        stroke: #9a63c1;
        stroke-miterlimit: 10;
        stroke-width: 2px;
      }
    </style>
    <radialGradient id="radial-gradient" cx="872.2" cy="-1151.27" fx="872.2" fy="-1151.27" r="39.66" gradientTransform="translate(237.99 1471.46) rotate(-45)" gradientUnits="userSpaceOnUse">
      <stop offset="0" stop-color="#b3b2b3" stop-opacity=".5"/>
      <stop offset="1" stop-color="#333" stop-opacity=".5"/>
    </radialGradient>
  </defs>
  <circle class="cls-6" cx="40.66" cy="40.66" r="39.66"/>
  <g>
    <path class="cls-1" d="M52.53,40.38s-.05.03-.08.04c.03-.01.06-.03.08-.04Z"/>
    <path class="cls-1" d="M52.74,40.1s0-.03.01-.05c0-.02,0-.03,0-.05,0-.02,0-.03,0-.05,0,.06-.01.13-.04.19,0-.01.01-.03.02-.04Z"/>
    <path class="cls-1" d="M52.72,40.15s-.03.06-.04.08c.02-.03.03-.05.04-.08Z"/>
    <path class="cls-1" d="M47.16,38.79s-.02.01-.03.02c0,0,.02-.01.03-.02Z"/>
    <path class="cls-1" d="M51.78,39.85s0-.04.02-.06c0,.02-.01.04-.02.06Z"/>
    <path class="cls-1" d="M52.4,40.44s.03,0,.04-.01c-.03.01-.06.02-.09.03.02,0,.03,0,.05-.01Z"/>
    <path class="cls-1" d="M49.29,43.15s-.04.02-.06.02c.02,0,.04-.01.06-.02.08-.04.15-.09.21-.16.02-.03.04-.06.06-.09,0,0,0-.02.01-.03-.06.12-.15.22-.28.28Z"/>
    <path class="cls-1" d="M52.31,40.46s.03,0,.05,0h0s-.06,0-.09,0c.02,0,.03,0,.05,0Z"/>
    <path class="cls-1" d="M51.77,39.96s0-.06,0-.08c0,.03,0,.06,0,.08Z"/>
    <path class="cls-1" d="M47.05,38.89s-.01.01-.01.02c0,0,0,.01-.01.02,0,0,.01-.02.02-.02,0,0,0-.01.01-.01,0,0,0,0,0,0Z"/>
    <polygon class="cls-1" points="47.02 38.93 47.01 38.94 47.01 38.94 47.01 38.94 47.02 38.93"/>
    <path class="cls-1" d="M47.02,38.93s0,0,0,0c0,0,0,0,0,0Z"/>
    <path class="cls-1" d="M46.98,38.99s0,0,0-.01c0,0,0,0,0,.01Z"/>
    <path class="cls-1" d="M46.99,38.98s0,0,0,0c0,0,0-.02.01-.02,0,0,0,0,0-.01,0,0-.01.02-.02.03Z"/>
    <path class="cls-1" d="M47.08,38.86s.01-.01.02-.02c0,0,0,0,0,0,0,0-.02.02-.03.03Z"/>
    <rect class="cls-1" x="49.78" y="18.63" width="1.08" height="0" transform="translate(1.57 41.04) rotate(-45)"/>
    <polygon class="cls-1" points="47.06 38.88 47.06 38.88 47.06 38.88 47.06 38.88"/>
    <path class="cls-1" d="M47.25,38.74s-.04.02-.06.03c.02-.01.04-.02.06-.03Z"/>
    <path class="cls-1" d="M51.88,39.64s-.02.02-.02.03c0-.01.02-.02.02-.03Z"/>
    <path class="cls-1" d="M51.99,39.55s0,0,0,0c0,0-.01,0-.02.01,0,0-.01.01-.02.02-.01.01-.02.02-.03.03.02-.02.05-.04.07-.06,0,0,0,0,0,0Z"/>
    <path class="cls-1" d="M51.97,39.56s-.02.02-.03.02c.01,0,.02-.02.03-.02Z"/>
    <path class="cls-1" d="M52.54,40.37s.02-.02.03-.02c.01-.01.03-.02.04-.03.01-.01.02-.03.03-.04,0-.01.02-.02.02-.03-.02.03-.04.05-.06.07s-.05.04-.07.06Z"/>
    <path class="cls-1" d="M51.91,39.61s-.02.02-.03.03c0,0,0,0,0,0,0,0-.01.02-.02.02v.02s-.02,0-.02.01c0,0,0,.01-.01.02,0,0,0,0,0,0,0,0,0-.02.01-.02,0,0,0-.02.01-.02.02-.02.04-.05.06-.07Z"/>
    <path class="cls-1" d="M51.8,39.79s0,0,0,0c0,0,0,0,0,0,0,0,0,.02,0,.03,0,0,0,.01,0,.02,0-.02.01-.05.02-.07,0,0,0,0,0,0,0,0,0,0,0,.01Z"/>
    <path class="cls-1" d="M49.56,33.02s0-.06,0-.08c0,.03,0,.06,0,.08Z"/>
    <path class="cls-1" d="M49.57,32.91s0-.04.02-.06c0,.02-.01.04-.02.06Z"/>
    <path class="cls-1" d="M49.59,32.85s0,0,0,0c0,0,0,0,0,0,0,0,0,.02,0,.03,0,0,0,.01,0,.02,0-.02.01-.05.02-.07,0,0,0,0,0,0,0,0,0,0,0,.01Z"/>
    <path class="cls-1" d="M52.06,39.51s0,0,.01,0c0,0,0,0,0,0,0,0,0,0,0,0-.01,0-.02,0-.03.02-.01,0-.03.02-.04.02,0,0,0,0,.01,0,.02-.01.04-.02.06-.03Z"/>
    <path class="cls-1" d="M52.15,39.48s-.01,0-.02,0c0,0-.02,0-.03,0,0,0,0,0,0,0,0,0-.01,0-.02,0,0,0,0,0,0,0,.02,0,.04-.01.07-.02Z"/>
    <path class="cls-1" d="M51.82,39.74s0,.02-.01.02c0,0,0,0,0,0,0,0,0,0,0-.01,0,0,0-.01,0-.02Z"/>
    <path class="cls-1" d="M51.81,39.75s.01-.02.02-.03c0,.01-.01.02-.02.03Z"/>
    <path class="cls-1" d="M52.09,39.5s.04-.01.06-.02c-.02,0-.04.01-.06.02Z"/>
    <path class="cls-1" d="M52.05,39.51s-.02.01-.04.02c.01,0,.02-.01.04-.02Z"/>
    <path class="cls-1" d="M52.18,39.47s.05,0,.08,0c-.03,0-.06,0-.08,0Z"/>
    <path class="cls-1" d="M38,40.42l2.4-1.07.34-.15,1.63-1.63-1.05-2.38s-.02-.04-.02-.06c-.1-.38-.36-.68-.68-.76-.35-.09-.77.08-1.18.49l-1.4,1.4c.3.79.9,1.66,2.07,2.05.15.05.24.17.25.32,0,.11-.03.21-.11.28-.03.03-.07.06-.11.07l-2.32,1.07.16.38Z"/>
    <rect class="cls-1" x="40.94" y="27.46" width="1.08" height="0" transform="translate(-7.27 37.38) rotate(-45)"/>
    <polygon class="cls-1" points="24.79 64.29 21.09 57.64 21.09 57.64 24.79 64.29 22.49 66.59 23.4 67.51 23.4 67.51 22.49 66.59 24.79 64.29"/>
    <path class="cls-1" d="M24.34,66.57h0s1.49,1.49,1.49,1.49c.02.02.04.04.06.05-.02-.01-.04-.03-.06-.05l-1.49-1.49Z"/>
    <rect class="cls-1" x="42.05" y="26.36" width="1.08" height="0" transform="translate(-6.16 37.83) rotate(-45)"/>
    <path class="cls-1" d="M20.47,56.53l-.96-1.73q-.82-1.59.49-2.9l6.66-6.66,1.26-3.14.82-.86h0s-.82.86-.82.86l-1.26,3.14-6.66,6.66q-1.31,1.31-.49,2.9l.96,1.73-4.03,4.03.87.87h0s-.87-.87-.87-.87l4.03-4.03Z"/>
    <rect class="cls-1" x="38.74" y="29.67" width="1.08" height="0" transform="translate(-9.47 36.46) rotate(-45)"/>
    <polygon class="cls-1" points="20.89 59.11 17.94 62.05 21.86 65.96 23.69 64.13 20.89 59.11"/>
    <rect class="cls-1" x="39.84" y="28.56" width="1.08" height="0" transform="translate(-8.37 36.92) rotate(-45)"/>
    <rect class="cls-1" x="43.15" y="25.25" width="1.08" height="0" transform="translate(-5.06 38.29) rotate(-45)"/>
    <rect class="cls-1" x="50.88" y="17.52" width="1.08" height="0" transform="translate(2.67 41.49) rotate(-45)"/>
    <path class="cls-1" d="M46.98,38.99s0,.01-.01.02c0,0,0,0,0,0,0,0,0,0,0,0,0,0,0-.01,0-.02Z"/>
    <rect class="cls-1" x="48.67" y="19.73" width="1.08" height="0" transform="translate(.46 40.58) rotate(-45)"/>
    <rect class="cls-1" x="46.46" y="21.94" width="1.08" height="0" transform="translate(-1.75 39.66) rotate(-45)"/>
    <rect class="cls-1" x="51.98" y="16.42" width="1.08" height="0" transform="translate(3.77 41.95) rotate(-45)"/>
    <rect class="cls-1" x="44.26" y="24.15" width="1.08" height="0" transform="translate(-3.95 38.75) rotate(-45)"/>
    <rect class="cls-1" x="45.36" y="23.04" width="1.08" height="0" transform="translate(-2.85 39.21) rotate(-45)"/>
    <rect class="cls-1" x="47.57" y="20.84" width="1.08" height="0" transform="translate(-.64 40.12) rotate(-45)"/>
    <rect class="cls-1" x="37.63" y="30.77" width="1.08" height="0" transform="translate(-10.58 36.01) rotate(-45)"/>
    <path class="cls-1" d="M46.92,39.18s0,.04,0,.07c0-.02,0-.05,0-.07,0,0,0,0,0,0Z"/>
    <path class="cls-1" d="M49.58,42.86s0,0,0,0c0-.01.01-.03.02-.05,0,0,0,0,0,0,0,.02-.02.05-.03.07,0,0,0,0,0-.01Z"/>
    <path class="cls-1" d="M49.62,42.75s0-.01,0-.02c0,.02,0,.04-.01.05,0-.01,0-.02,0-.03Z"/>
    <path class="cls-1" d="M49.09,43.2s.03,0,.04,0c-.04,0-.07,0-.11,0,.02,0,.04,0,.07,0Z"/>
    <polygon class="cls-1" points="46.96 39.04 46.96 39.03 46.96 39.03 46.96 39.04"/>
    <path class="cls-1" d="M46.95,39.06s0-.01,0-.02c0,0,0,.01,0,.02Z"/>
    <polygon class="cls-1" points="46.92 39.18 46.92 39.18 46.92 39.17 46.92 39.18"/>
    <path class="cls-1" d="M49.63,42.69s0-.04,0-.05c0,.02,0,.05,0,.07,0,0,0-.01,0-.02Z"/>
    <rect class="cls-1" x="34.32" y="34.08" width="1.08" height="0" transform="translate(-13.89 34.63) rotate(-45)"/>
    <path class="cls-1" d="M49.61,32.8s0,.02-.01.02c0,0,0,0,0,0,0,0,0,0,0-.01,0,0,0-.01,0-.02Z"/>
    <rect class="cls-1" x="46" y="23.49" width="4.3" height="1.85" transform="translate(-3.16 41.2) rotate(-45)"/>
    <rect class="cls-1" x="36.53" y="31.88" width="1.08" height="0" transform="translate(-11.68 35.55) rotate(-45)"/>
    <rect class="cls-1" x="35.42" y="32.98" width="1.08" height="0" transform="translate(-12.79 35.09) rotate(-45)"/>
    <path class="cls-1" d="M44.83,43.16l-2.07-4.71-1.44,1.44s-.08.07-.13.09l-2.83,1.26,2.43,5.54c.12.22.23.45.34.68.38.82.65,1.33,1.29,1.34l2.28-.98c.77-.53.82-2.09.14-4.66Z"/>
    <path class="cls-1" d="M37.68,38.96l.15.35.29-.13s-.05-.09-.08-.12c-.1-.1-.24-.13-.36-.1Z"/>
    <path class="cls-1" d="M37.02,37.44l.4.9c.38-.14.81-.05,1.1.24.09.09.16.2.22.32l.52-.24c-.73-.39-1.29-.99-1.67-1.79l-.57.57Z"/>
    <path class="cls-1" d="M47.07,38.87s0,0,0,0c0,0,0,0,0,0Z"/>
    <path class="cls-1" d="M52.02,25.42s0-.04.02-.06c0,.02-.01.04-.02.06Z"/>
    <path class="cls-1" d="M52.03,25.36s0,0,0,0c0,0,0,0,0,0,0,0,0,.02,0,.03,0,0,0,.01,0,.02,0-.02.01-.05.02-.07,0,0,0,0,0,0,0,0,0,0,0,.01Z"/>
    <path class="cls-1" d="M52,25.53s0-.06,0-.08c0,.03,0,.06,0,.08Z"/>
    <path class="cls-1" d="M52.55,26.03s.03,0,.05,0h0s-.06,0-.09,0c.02,0,.03,0,.05,0Z"/>
    <path class="cls-1" d="M52.33,25.06s.04-.01.06-.02c-.02,0-.04.01-.06.02Z"/>
    <path class="cls-1" d="M52.05,25.32s.01-.02.02-.03c0,.01-.01.02-.02.03Z"/>
    <path class="cls-1" d="M52.06,25.31s0,.02-.01.02c0,0,0,0,0,0,0,0,0,0,0-.01,0,0,0-.01,0-.02Z"/>
    <path class="cls-1" d="M52.39,25.05s-.01,0-.02,0c0,0-.02,0-.03,0,0,0,0,0,0,0,0,0-.01,0-.02,0,0,0,0,0,0,0,.02,0,.04-.01.07-.02Z"/>
    <rect class="cls-1" x="58.23" y="20.27" width=".47" height="0" transform="translate(2.79 47.28) rotate(-45)"/>
    <path class="cls-1" d="M52.64,26.01s.03,0,.04-.01c-.03.01-.06.02-.09.03.02,0,.03,0,.05-.01Z"/>
    <path class="cls-1" d="M54,36.23l-2.72-6.07c-.04-.08-.04-.17,0-.25.02-.04.04-.08.08-.12.03-.03.06-.05.1-.07h0s-.07.04-.1.07c-.03.03-.06.07-.08.12-.03.08-.03.17,0,.25l2.72,6.07c.03.06.07.11.13.15-.05-.03-.1-.08-.13-.15Z"/>
    <path class="cls-1" d="M52.98,25.67s0-.03.01-.05c0-.02,0-.03,0-.05,0-.02,0-.03,0-.05,0,.06-.01.13-.04.19,0-.01.01-.03.02-.04Z"/>
    <path class="cls-1" d="M52.77,25.95s-.05.03-.08.04c.03-.01.06-.03.08-.04Z"/>
    <path class="cls-1" d="M51.7,29.71s.04.02.06.03c-.02-.01-.04-.02-.06-.03-.08-.03-.17-.03-.25,0h0c.08-.04.17-.04.25,0Z"/>
    <path class="cls-1" d="M52.96,25.72s-.03.06-.04.08c.02-.03.03-.05.04-.08Z"/>
    <path class="cls-1" d="M52.12,25.21s-.02.02-.02.03c0-.01.02-.02.02-.03Z"/>
    <rect class="cls-1" x="55.07" y="23.43" width=".47" height="0" transform="translate(-.37 45.97) rotate(-45)"/>
    <path class="cls-1" d="M52.23,25.12s0,0,0,0c0,0-.01,0-.02.01,0,0-.01.01-.02.02-.01.01-.02.02-.03.03.02-.02.05-.04.07-.06,0,0,0,0,0,0Z"/>
    <path class="cls-1" d="M52.42,25.04s.05,0,.08,0c-.03,0-.06,0-.08,0Z"/>
    <path class="cls-1" d="M52.78,25.94s.02-.02.03-.02c.01-.01.03-.02.04-.03.01-.01.02-.03.03-.04,0-.01.02-.02.02-.03-.02.03-.04.05-.06.07s-.05.04-.07.06Z"/>
    <polygon class="cls-1" points="53.5 24.76 53.98 24.76 54.68 24.05 54.68 24.05 53.98 24.76 53.5 24.76"/>
    <path class="cls-1" d="M52.21,25.13s-.02.02-.03.02c.01,0,.02-.02.03-.02Z"/>
    <rect class="cls-1" x="57.44" y="21.06" width=".47" height="0" transform="translate(2 46.95) rotate(-45)"/>
    <path class="cls-1" d="M52.3,25.08s0,0,.01,0c0,0,0,0,0,0,0,0,0,0,0,0-.01,0-.02,0-.03.02-.01,0-.03.02-.04.02,0,0,0,0,.01,0,.02-.01.04-.02.06-.03Z"/>
    <path class="cls-1" d="M52.29,25.08s-.02.01-.04.02c.01,0,.02-.01.04-.02Z"/>
    <rect class="cls-1" x="55.86" y="22.64" width=".47" height="0" transform="translate(.42 46.3) rotate(-45)"/>
    <path class="cls-1" d="M49.61,32.81s.01-.02.02-.03c0,.01-.01.02-.02.03Z"/>
    <rect class="cls-1" x="56.65" y="21.85" width=".47" height="0" transform="translate(1.21 46.62) rotate(-45)"/>
    <path class="cls-1" d="M52.15,25.18s-.02.02-.03.03c0,0,0,0,0,0,0,0-.01.02-.02.02v.02s-.02,0-.02.01c0,0,0,.01-.01.02,0,0,0,0,0,0,0,0,0-.02.01-.02,0,0,0-.02.01-.02.02-.02.04-.05.06-.07Z"/>
    <path class="cls-1" d="M50.33,33.43s.02-.02.03-.02c.01-.01.03-.02.04-.03.01-.01.02-.03.03-.04,0-.01.02-.02.02-.03-.02.03-.04.05-.06.07s-.05.04-.07.06Z"/>
    <path class="cls-1" d="M50.51,33.21s-.03.06-.04.08c.02-.03.03-.05.04-.08Z"/>
    <path class="cls-1" d="M49.84,32.57s-.02.01-.04.02c.01,0,.02-.01.04-.02Z"/>
    <path class="cls-1" d="M49.94,32.54s-.01,0-.02,0c0,0-.02,0-.03,0,0,0,0,0,0,0,0,0-.01,0-.02,0,0,0,0,0,0,0,.02,0,.04-.01.07-.02Z"/>
    <path class="cls-1" d="M49.85,32.57s0,0,.01,0c0,0,0,0,0,0,0,0,0,0,0,0-.01,0-.02,0-.03.02-.01,0-.03.02-.04.02,0,0,0,0,.01,0,.02-.01.04-.02.06-.03Z"/>
    <path class="cls-1" d="M49.97,32.53s.05,0,.08,0c-.03,0-.06,0-.08,0Z"/>
    <path class="cls-1" d="M49.88,32.55s.04-.01.06-.02c-.02,0-.04.01-.06.02Z"/>
    <path class="cls-1" d="M49.78,32.61s0,0,0,0c0,0-.01,0-.02.01,0,0-.01.01-.02.02-.01.01-.02.02-.03.03.02-.02.05-.04.07-.06,0,0,0,0,0,0Z"/>
    <path class="cls-1" d="M50.32,33.44s-.05.03-.08.04c.03-.01.05-.03.08-.04Z"/>
    <path class="cls-1" d="M50.19,33.5s.03,0,.04-.01c-.03.01-.06.02-.09.03.02,0,.03,0,.05-.01Z"/>
    <path class="cls-1" d="M50.1,33.52s.03,0,.05,0c0,0,0,0,0,0-.03,0-.06,0-.09,0,.02,0,.03,0,.05,0Z"/>
    <path class="cls-1" d="M54.55,37.29c-.06.01-.12.02-.18.02.06,0,.12-.01.18-.02Z"/>
    <path class="cls-1" d="M55.47,36.47s0-.02,0-.02c0,.03-.02.05-.03.08,0-.02.01-.04.02-.05Z"/>
    <path class="cls-1" d="M55.42,36.59s.02-.04.02-.06c-.01.03-.03.07-.04.1,0-.01.01-.03.02-.04Z"/>
    <path class="cls-1" d="M49.77,32.62s-.02.02-.03.02c.01,0,.02-.02.03-.02Z"/>
    <path class="cls-1" d="M54.8,37.21c-.06.02-.11.05-.17.06.06-.02.12-.04.17-.06.14-.06.26-.15.36-.25.09-.09.16-.19.22-.3-.06.11-.13.21-.22.3-.1.1-.22.19-.36.25Z"/>
    <path class="cls-1" d="M55.5,36.37s0-.04.01-.06c0,.03-.01.05-.02.08,0,0,0-.02,0-.02Z"/>
    <polygon class="cls-1" points="59.08 19.65 59.08 19.65 59.78 18.95 59.78 18.48 59.78 18.95 59.08 19.65"/>
    <path class="cls-1" d="M50.53,33.16s0-.03.01-.05c0-.02,0-.03,0-.05,0-.02,0-.03,0-.05,0,.06-.01.13-.04.19,0-.01.01-.03.02-.04Z"/>
    <path class="cls-1" d="M49.67,32.7s-.02.02-.02.03c0-.01.02-.02.02-.03Z"/>
    <path class="cls-1" d="M49.7,32.67s-.02.02-.03.03c0,0,0,0,0,0,0,0-.01.02-.02.02v.02s-.02,0-.02.01c0,0,0,.01-.01.02,0,0,0,0,0,0,0,0,0-.02.01-.02,0,0,0-.02.01-.02.02-.02.04-.05.06-.07Z"/>
    <path class="cls-2" d="M39.36,48.12l-2.52-5.18c-.21-.43-.73-.62-1.17-.43l-.9.4s.01.09.02.14c0,0,0,.01,0,.02t0,0s0,.01,0,.02c0,0,0,0,0,.01h0c.01.07.02.14.04.22.01.07.03.14.04.21.02.09.04.18.05.26.01.05.02.11.04.16,0,0,0,.01,0,.02.01.07.03.13.05.2.02.07.03.14.05.21.04.14.07.29.12.43.47,1.64,1.22,3.32,2.34,5.25,0,0,0,0,0,0t0,0l1.46-.8c.42-.23.58-.75.38-1.17Z"/>
    <path class="cls-5" d="M57.99,15.89l-3.79,3.79.2.74c.04.15,0,.32-.12.43l-10.45,10.45c-.54.54-.59,1.78-.29,2.61l5.17,10.8,4.98-4.98c.25-1.22.74-1.72,1.87-1.87l1.06-1.06-3.48-9.33c-.06-.16-.02-.35.1-.47l7.96-7.96-.81-.81-.04.04-1.91-1.91.04-.04-.3-.3-.02.02-.16-.16ZM48.03,39.02l1.55,3.35c.04.09.06.18.05.26,0,.02,0,.04,0,.05,0,0,0,.01,0,.02,0,0,0,.01,0,.02,0,0,0,.01,0,.02,0,.01,0,.02,0,.03,0,0,0,.01,0,.02,0,0,0,0,0,0,0,.02-.01.03-.02.05,0,0,0,0,0,0,0,0,0,0,0,.01,0,0,0,0,0,0,0,0,0,.02-.01.03-.02.03-.04.06-.06.09-.05.07-.12.12-.21.16-.02,0-.04.02-.06.02-.03.01-.07.02-.1.02-.01,0-.03,0-.04,0-.02,0-.04,0-.07,0-.21,0-.42-.13-.51-.34l-1.55-3.35c-.04-.09-.06-.18-.05-.26,0-.02,0-.04,0-.07,0,0,0,0,0,0,0,0,0,0,0,0,0,0,0,0,0,0,0,0,0,0,0,0,0-.04.02-.07.03-.11,0,0,0-.01,0-.02,0,0,0,0,0-.01,0,0,0,0,0,0,0,0,0,0,0-.01,0,0,0,0,0-.01,0,0,0,0,0,0,0,0,0-.01.01-.02,0,0,0,.01,0,.02,0,0,0,0,0-.01,0,0,0,0,0-.01,0,0,0-.01,0-.02,0,0-.01.01-.01.02,0,0,0,0,0,0,0,0,.01-.02.02-.03,0,0,0,0,0,0,0,0,0,0,0,0,0,0,0,0,0-.01,0,0,0,0,0,.01,0,0,0,0,0-.01,0,0,0,0,0,0,0,0,0-.01.02-.02,0,0-.01.02-.02.02,0,0,0-.01.01-.02,0,0,0-.01.01-.02,0,0,0,0,0,0,0,0,0,0,0,0,0,0,0,0,0,0,0,0,0,0,0,0,0,0,0,0,0,0,0,0,0,0,0,0,0,0,.02-.02.02-.02,0,0-.01.01-.02.02,0,0,.02-.02.03-.03.04-.04.09-.07.15-.1-.02,0-.04.02-.06.03.02-.01.04-.02.06-.03.09-.04.18-.06.27-.05.21,0,.41.13.51.34ZM47.13,38.81s.02-.01.03-.02c0,0-.02.01-.03.02ZM52.76,39.96s0,.03,0,.05c0,.02,0,.03,0,.05,0,.02,0,.03-.01.05,0,.02,0,.03-.02.04,0,0,0,0,0,0-.01.03-.03.06-.04.08,0,0,0,0,0,0,0,.01-.02.02-.02.03-.01.01-.02.03-.03.04-.01.01-.03.02-.04.03-.01,0-.02.02-.03.02,0,0,0,0,0,0-.03.02-.05.03-.08.04,0,0,0,0,0,0-.01,0-.03.01-.04.01-.01,0-.03,0-.05.01h0s0,0,0,0c-.02,0-.03,0-.05,0-.02,0-.03,0-.05,0-.13,0-.26-.05-.35-.15-.04-.04-.06-.08-.09-.12-.02-.04-.04-.09-.05-.14h0s0-.06,0-.1c0-.03,0-.06,0-.08,0-.01,0-.02,0-.03,0-.02,0-.04.02-.06,0,0,0,0,0,0,0,.02-.01.04-.02.07,0,0,0-.01,0-.02,0-.01,0-.02,0-.03,0,0,0,0,0,0,0,0,0,0,0,0,0,0,0,0,0-.01,0,0,0,0,0,0,0,0,0,0,0,0,0,0,0-.02.01-.02,0,0,0,.01,0,.02,0,0,0,0,0,0,0-.01.01-.02.02-.03,0,0,0,0,0-.01,0,0-.01.02-.01.02,0,0,0,0,0,0,0,0,0-.01.01-.02,0,0,0,0,0-.01v-.02s.03-.02.03-.02c0,0,0,0,0,0,0,0,.02-.02.03-.03.01-.01.02-.02.03-.03,0,0,.02-.01.02-.02,0,0,.01,0,.02-.01,0,0,0,0,0,0,0,0,0,0,0,0,.01,0,.03-.02.04-.02.01,0,.02-.01.03-.02,0,0,0,0,0,0,0,0,0,0,0,0,0,0,0,0,0,0,0,0,.01,0,.02,0,0,0,0,0,0,0,0,0,.02,0,.03,0,0,0,.01,0,.02,0-.02,0-.04.01-.07.02,0,0,0,0,0,0,.02,0,.04-.01.06-.02.01,0,.02,0,.03,0,.03,0,.05,0,.08,0,.03,0,.06,0,.09,0h0s.09.03.14.05c.04.02.08.05.12.09.1.1.15.22.15.35ZM49.61,33.25s-.04-.09-.05-.14h0s0-.06,0-.1c0-.03,0-.06,0-.08,0-.01,0-.02,0-.03,0-.02,0-.04.02-.06,0,0,0,0,0,0,0,.02-.01.04-.02.07,0,0,0-.01,0-.02,0-.01,0-.02,0-.03,0,0,0,0,0,0,0,0,0,0,0,0,0,0,0,0,0-.01,0,0,0,0,0,0,0,0,0,0,0,0,0,0,0-.02.01-.02,0,0,0,.01,0,.02,0,0,0,0,0,0,0-.01.01-.02.02-.03,0,0,0,0,0-.01,0,0-.01.02-.01.02,0,0,0,0,0,0,0,0,0-.01.01-.02,0,0,0,0,0-.01v-.02s.03-.02.03-.02c0,0,0,0,0,0,0,0,.02-.02.03-.03.01-.01.02-.02.03-.03,0,0,.02-.01.02-.02,0,0,.01,0,.02-.01,0,0,0,0,0,0,0,0,0,0,0,0,.01,0,.03-.02.04-.02.01,0,.02-.01.03-.02,0,0,0,0,0,0,0,0,0,0,0,0,0,0,0,0,0,0,0,0,.01,0,.02,0,0,0,0,0,0,0,0,0,.02,0,.03,0,0,0,.01,0,.02,0-.02,0-.04.01-.07.02,0,0,0,0,0,0,.02,0,.04-.01.06-.02.01,0,.02,0,.03,0,.03,0,.05,0,.08,0,.03,0,.06,0,.09,0h0s.09.03.14.05c.04.02.08.05.12.09.1.1.15.22.15.35,0,.02,0,.03,0,.05,0,.02,0,.03,0,.05,0,.02,0,.03-.01.05,0,.02,0,.03-.02.04,0,0,0,0,0,0-.01.03-.03.06-.04.08,0,0,0,0,0,0,0,.01-.02.02-.02.03-.01.01-.02.03-.03.04-.01.01-.03.02-.04.03-.01,0-.02.02-.03.02,0,0,0,0,0,0-.03.02-.05.03-.08.04,0,0,0,0,0,0-.01,0-.03.01-.04.01-.01,0-.03,0-.05.01,0,0,0,0,0,0,0,0,0,0,0,0-.02,0-.03,0-.05,0-.02,0-.03,0-.05,0-.13,0-.26-.05-.35-.15-.04-.04-.06-.08-.09-.12ZM52.7,29.52l2.72,6.07c.08.18.11.37.11.55,0,.06,0,.11-.02.17,0,.02,0,.04-.01.06,0,0,0,.02,0,.02,0,.02-.01.04-.02.06,0,0,0,.02,0,.02,0,.02-.01.04-.02.05,0,.02-.02.04-.02.06,0,.01-.01.03-.02.04,0,0,0,.02-.01.03-.06.11-.13.21-.22.3-.1.1-.22.19-.36.25-.06.02-.11.05-.17.06-.03,0-.06.01-.09.02-.06.01-.12.02-.18.02-.03,0-.06,0-.09,0-.04,0-.08,0-.12,0-.04,0-.08-.01-.12-.02-.06-.01-.12-.03-.18-.05-.31-.12-.55-.34-.68-.64l-2.72-6.07c-.07-.15-.1-.31-.11-.46,0-.02,0-.04,0-.06,0-.14.03-.28.08-.41.12-.31.34-.55.64-.68.06-.02.11-.05.17-.06.07-.02.14-.03.21-.04.07,0,.14,0,.21,0,.04,0,.08,0,.12.01.04,0,.08.01.12.03.04.01.08.02.12.04.31.12.55.35.68.64ZM53,25.53s0,.03,0,.05c0,.02,0,.03,0,.05,0,.02,0,.03-.01.05,0,.02,0,.03-.02.04,0,0,0,0,0,0-.01.03-.03.06-.04.08,0,0,0,0,0,0,0,.01-.02.02-.02.03-.01.01-.02.03-.03.04-.01.01-.03.02-.04.03-.01,0-.02.02-.03.02,0,0,0,0,0,0-.03.02-.05.03-.08.04,0,0,0,0,0,0-.01,0-.03.01-.04.01-.01,0-.03,0-.05.01h0s0,0,0,0c-.02,0-.03,0-.05,0-.02,0-.03,0-.05,0-.13,0-.26-.05-.35-.15-.04-.04-.06-.08-.09-.12-.02-.04-.04-.09-.05-.14h0s0-.06,0-.1c0-.03,0-.06,0-.08,0-.01,0-.02,0-.03,0-.02,0-.04.02-.06,0,0,0,0,0,0,0,.02-.01.04-.02.07,0,0,0-.01,0-.02,0-.01,0-.02,0-.03,0,0,0,0,0,0,0,0,0,0,0,0,0,0,0,0,0-.01,0,0,0,0,0,0,0,0,0,0,0,0,0,0,0-.02.01-.02,0,0,0,.01,0,.02,0,0,0,0,0,0,0-.01.01-.02.02-.03,0,0,0,0,0-.01,0,0-.01.02-.01.02,0,0,0,0,0,0,0,0,0-.01.01-.02,0,0,0,0,0-.01v-.02s.03-.02.03-.02c0,0,0,0,0,0,0,0,.02-.02.03-.03.01-.01.02-.02.03-.03,0,0,.02-.01.02-.02,0,0,.01,0,.02-.01,0,0,0,0,0,0,0,0,0,0,0,0,.01,0,.03-.02.04-.02.01,0,.02-.01.03-.02,0,0,0,0,0,0,0,0,0,0,0,0,0,0,0,0,0,0,0,0,.01,0,.02,0,0,0,0,0,0,0,0,0,.02,0,.03,0,0,0,.01,0,.02,0-.02,0-.04.01-.07.02,0,0,0,0,0,0,.02,0,.04-.01.06-.02.01,0,.02,0,.03,0,.03,0,.05,0,.08,0,.03,0,.06,0,.09,0h0s.09.03.14.05c.04.02.08.05.12.09.1.1.15.22.15.35ZM53.36,22.74l1.32,1.32h0s-.7.7-.7.7h-.47s-.84-.84-.84-.84h0s0-.47,0-.47h0s.7-.7.7-.7h0ZM54.15,21.95l1.32,1.32h0s-.33.33-.33.33h0s-1.32-1.32-1.32-1.32h0s.33-.33.33-.33h0ZM54.94,21.16l1.32,1.32h0s-.33.33-.33.33h0s-1.32-1.32-1.32-1.32h0s.33-.33.33-.33h0ZM55.73,20.37l1.32,1.32h0s-.33.33-.33.33h0s-1.32-1.32-1.32-1.32h0s.33-.33.33-.33h0ZM56.52,19.58l1.32,1.32h0s-.33.33-.33.33h0s-1.32-1.32-1.32-1.32h0s.33-.33.33-.33h0ZM57.31,18.79l1.32,1.32h0s-.33.33-.33.33h0s-1.32-1.32-1.32-1.32h0s.33-.33.33-.33h0ZM58.94,17.63l.84.84v.47l-.7.7h0s-1.32-1.32-1.32-1.32h0s.7-.7.7-.7h0s.47,0,.47,0h0Z"/>
    <path class="cls-5" d="M42.71,34.24c-.4-1.1-.33-2.74.5-3.56l3.46-3.46-1.94-1.94,4.3-4.3,1.94,1.94,2.51-2.51-.2-.74c-.04-.15,0-.32.12-.43l3.98-3.98-1.41-1.41-23.9,23.9-.9.9-.99.99,1.62,1.62,7.04-7.04c.87-.87,1.65-.82,2.04-.72.61.16,1.1.68,1.3,1.36l3.5,7.98s.02.04.02.06c.35,1.29.69,2.92.43,4.17.62-.42,1.26-.98,1.93-1.68l-5.32-11.1s-.01-.02-.02-.04ZM51.36,19.82c.19-.19.51-.19.7,0s.19.51,0,.7-.51.19-.7,0-.19-.51,0-.7ZM41.19,30.37l.34-1.47h.01c.03-.15.11-.29.24-.39.23-.19.57-.2.81-.02.33.24.36.7.1.99,0,.01-.02.02-.03.03l-1.09,1.09c-.17.17-.45.01-.4-.22ZM34.5,37.68s-.02.02-.03.03l-1.09,1.09c-.17.17-.45.01-.4-.22l.34-1.47h.01c.03-.15.11-.29.24-.39.23-.19.57-.2.81-.02.33.24.36.7.1.99ZM47.46,45.62c-.19.19-.51.19-.7,0s-.19-.51,0-.7.51-.19.7,0,.19.51,0,.7ZM39.66,32.31c-.19-.19-.19-.51,0-.7s.51-.19.7,0,.19.51,0,.7-.51.19-.7,0Z"/>
    <path class="cls-5" d="M32.86,41.44c.51.08.98.26,1.32.53.33.26.53.58.59.95l.9-.4c.44-.2.96,0,1.17.43l2.52,5.18c.21.43.04.95-.38,1.17l-1.46.8c.12.21.25.43.39.66l3.36-1.45c-.45-.38-.72-.95-.96-1.46-.1-.23-.2-.44-.31-.63,0-.01-.02-.03-.02-.04l-3.91-8.93-3.21,3.21Z"/>
    <path class="cls-5" d="M55.8,38.74c-.79.08-1.04.22-1.23,1.11-.01.06-.02.12-.04.19-.02.09-.06.17-.12.24l-.48.48.7,1.54,4.59,10.3,3.03-1.36-5.82-12.99-.37.37c-.07.07-.17.12-.27.13Z"/>
    <path class="cls-5" d="M49.77,32.62s0,0,0,0c-.02.02-.05.04-.07.06.01-.01.02-.02.03-.03.01,0,.02-.02.03-.02Z"/>
    <path class="cls-5" d="M52.21,25.13s0,0,0,0c-.02.02-.05.04-.07.06.01-.01.02-.02.03-.03.01,0,.02-.02.03-.02Z"/>
    <path class="cls-5" d="M51.86,39.67s.02-.02.02-.03c0-.01.02-.02.03-.03-.02.02-.04.05-.06.07,0,0,0,0,0,0Z"/>
    <path class="cls-5" d="M51.97,39.56s0,0,0,0c-.02.02-.05.04-.07.06.01-.01.02-.02.03-.03.01,0,.02-.02.03-.02Z"/>
    <path class="cls-5" d="M52.1,25.24s.02-.02.02-.03c0-.01.02-.02.03-.03-.02.02-.04.05-.06.07,0,0,0,0,0,0Z"/>
    <path class="cls-5" d="M49.81,32.59s.02-.01.04-.02c0,0,0,0,0,0-.02,0-.04.02-.06.03,0,0,0,0,.01,0Z"/>
    <path class="cls-5" d="M49.65,32.73s.02-.02.02-.03c0-.01.02-.02.03-.03-.02.02-.04.05-.06.07,0,0,0,0,0,0Z"/>
    <path class="cls-5" d="M52.25,25.1s.02-.01.04-.02c0,0,0,0,0,0-.02,0-.04.02-.06.03,0,0,0,0,.01,0Z"/>
    <path class="cls-5" d="M52.02,39.53s.02-.01.04-.02c0,0,0,0,0,0-.02,0-.04.02-.06.03,0,0,0,0,.01,0Z"/>
    <path class="cls-3" d="M47.25,38.74c-.06.03-.1.06-.15.1,0,0,0,0,0,0,0,0-.02.02-.02.02,0,0,0,0,0,0,0,0,0,0,0,0,0,0,0,0,0,0,0,0,0,0,0,0,0,0,0,.01-.01.01,0,0-.01.01-.02.02,0,0,0,0,0,0,0,0,0,0,0,.01,0,0,0,0,0,0,0,0,0,0,0,0,0,0,0,0,0,.01,0,0,0,.01,0,.02,0,0,0,0,0,.01,0,0,0,0,0,.01,0,0,0,0,0,0,0,0,0,0,0,.01,0,0,0,0,0,0,0,0,0,0,0,.01,0,0,0,.01,0,.02-.01.04-.02.07-.03.11,0,0,0,0,0,0,0,0,0,0,0,0,0,.02,0,.04,0,.07,0,.09.01.18.05.26l1.55,3.35c.1.21.3.33.51.34.03,0,.07,0,.11,0,.03,0,.07-.01.1-.02.02,0,.04-.01.06-.02.13-.06.22-.16.28-.28,0,0,0,0,0,0,.01-.02.02-.04.03-.07,0,0,0-.01,0-.02,0-.02,0-.04.01-.05,0,0,0-.01,0-.02,0-.02,0-.05,0-.07,0-.09-.01-.18-.05-.26l-1.55-3.35c-.1-.21-.3-.33-.51-.34-.09,0-.18.01-.27.05Z"/>
    <path class="cls-2" d="M40.36,31.61c-.19-.19-.51-.19-.7,0s-.19.51,0,.7.51.19.7,0,.19-.51,0-.7Z"/>
    <path class="cls-4" d="M33.58,36.71c-.13.11-.21.25-.24.4h-.01s-.34,1.47-.34,1.47c-.05.23.23.39.4.22l1.09-1.09s.02-.02.03-.03c.26-.29.22-.75-.1-.99-.24-.18-.58-.17-.81.02Z"/>
    <path class="cls-3" d="M41.59,30.59l1.09-1.09s.02-.02.03-.03c.26-.29.22-.75-.1-.99-.24-.18-.58-.17-.81.02-.13.11-.21.25-.24.4h-.01s-.34,1.47-.34,1.47c-.05.23.23.39.4.22Z"/>
    <path class="cls-4" d="M51.9,28.84s-.08-.02-.12-.03c-.04,0-.08-.01-.12-.01-.07,0-.14,0-.21,0-.07,0-.14.02-.21.04-.06.02-.12.04-.17.06-.3.13-.53.38-.64.68-.05.13-.08.27-.08.41,0,.02,0,.04,0,.06,0,.16.04.32.11.46l2.72,6.07c.13.3.38.53.68.64.06.02.12.04.18.05.04,0,.08.01.12.02.04,0,.08,0,.12,0,.03,0,.06,0,.09,0,.06,0,.12-.01.18-.02.03,0,.06-.01.09-.02.06-.02.12-.04.17-.06.14-.06.26-.15.36-.25.09-.09.16-.19.22-.3,0,0,0-.02.01-.03.02-.03.03-.07.04-.1,0-.03.02-.05.03-.08,0-.02.01-.04.02-.06,0-.03.01-.05.02-.08.01-.06.02-.11.02-.17,0-.18-.03-.37-.11-.55l-2.72-6.07c-.13-.3-.38-.53-.68-.64-.04-.01-.08-.03-.12-.04ZM51.89,29.88l2.72,6.07c.07.17,0,.37-.17.44-.08.04-.17.04-.25,0-.02,0-.04-.02-.06-.03-.06-.03-.1-.08-.13-.15l-2.72-6.07c-.04-.08-.04-.17,0-.25.02-.04.04-.08.08-.12.03-.03.06-.05.1-.07h0s0,0,0,0h0c.08-.04.17-.04.25,0,.02,0,.04.02.06.03.06.03.1.09.13.15Z"/>
    <path class="cls-5" d="M51.7,29.71c-.08-.03-.17-.03-.25,0h0s0,0,0,0t0,0s-.07.04-.1.07c-.03.03-.06.07-.08.12-.03.08-.03.17,0,.25l2.72,6.07c.03.06.07.11.13.15.02.01.04.02.06.03.08.03.17.03.25,0,.17-.07.24-.27.17-.44l-2.72-6.07c-.03-.06-.07-.11-.13-.15-.02-.01-.04-.02-.06-.03Z"/>
    <path class="cls-4" d="M28.74,39.95l-1.58,1.66-1.25,3.12-6.53,6.53c-1.59,1.59-1.65,1.99-.65,3.94l.65,1.16-3.55,3.55-.43-.43c-.1-.1-.23-.14-.36-.13s-.26.09-.33.21l-1.62,2.57c-.12.2-.08.45.11.59,3.51,2.68,6.29,5.46,9.02,9.02.14.18.4.23.59.11l2.57-1.62s.05-.04.08-.06c.07-.07.12-.16.13-.27.01-.13-.03-.27-.13-.36l-1.41-1.41.31-.31.86.86c.28.28.67.41,1.07.35.26-.04.49-.16.67-.34.09-.09.17-.2.23-.32l.68-1.35-.69-2.39-6-11.03,8.75-8.75,1.26-2.37-2.44-2.52ZM17.94,62.05l2.94-2.94,2.8,5.02-1.83,1.83-3.91-3.91ZM30.08,42.62l-.89,1.68-9.13,9.13,6.27,11.53.56,1.96-.52,1.04c-.05.1-.14.17-.25.18-.08.01-.16,0-.23-.04-.02-.01-.04-.03-.06-.05l-1.49-1.49-.94.94h0s0,0,0,0l-.91-.91,2.31-2.31-3.7-6.64-3.78,3.78h0s0,0,0,0l-.87-.87,4.03-4.03-.96-1.73q-.82-1.59.49-2.9l6.66-6.66,1.26-3.14.82-.86h0s0,0,0,0l1.34,1.38Z"/>
    <path class="cls-5" d="M27.92,42.1l-1.26,3.14-6.66,6.66q-1.31,1.31-.49,2.9l.96,1.73-4.03,4.03.87.87h0s3.78-3.78,3.78-3.78h0s3.7,6.64,3.7,6.64l-2.31,2.31.91.91h0s.94-.94.94-.94h0s1.49,1.49,1.49,1.49c.02.02.04.04.06.05.07.04.15.06.23.04.11-.02.2-.09.25-.18l.52-1.04-.56-1.96-6.27-11.53,9.13-9.13.89-1.68-1.34-1.38h0s-.82.86-.82.86Z"/>
    <path class="cls-2" d="M46.75,44.92c-.19.19-.19.51,0,.7s.51.19.7,0,.19-.51,0-.7-.51-.19-.7,0Z"/>
    <path class="cls-2" d="M52.36,39.47h0s-.06-.01-.09,0c-.03,0-.06,0-.08,0-.01,0-.02,0-.03,0-.02,0-.04.01-.06.02,0,0,0,0,0,0,0,0,0,0,0,0,0,0,0,0,0,0,0,0,0,0-.01,0,0,0,0,0,0,0-.01,0-.02.01-.04.02,0,0,0,0-.01,0,0,0,0,0-.01,0,0,0,0,0,0,0,0,0,0,0,0,0,0,0,0,0,0,0-.01,0-.02.02-.03.02-.01,0-.02.02-.03.03s-.02.02-.03.03c0,0-.02.02-.02.03,0,0,0,0,0,0,0,0,0,.02-.01.02,0,0,0,0,0,.01,0,.01-.01.02-.02.03,0,0,0,0,0,0,0,0,0,0,0,.01,0,0,0,0,0,0,0,0,0,0,0,0,0,0,0,0,0,0,0,.02-.01.04-.02.06,0,.01,0,.02,0,.03,0,.03,0,.06,0,.08,0,.03,0,.06,0,.09h0s.02.09.05.14c.02.04.05.08.09.12.1.1.22.15.35.15.03,0,.06,0,.09,0h0s.06-.02.09-.03c0,0,0,0,0,0,.03-.01.05-.03.08-.04,0,0,0,0,0,0,.03-.02.05-.04.07-.06s.04-.05.06-.07c0,0,0,0,0,0,.02-.03.03-.05.04-.08,0,0,0,0,0,0,.02-.06.04-.12.04-.19,0-.13-.05-.25-.15-.35-.04-.04-.08-.06-.12-.09-.04-.02-.09-.04-.14-.05Z"/>
    <path class="cls-2" d="M50.15,33.51s0,0,0,0c.03,0,.06-.01.09-.03,0,0,0,0,0,0,.03-.01.05-.03.08-.04,0,0,0,0,0,0,.03-.02.05-.04.07-.06s.04-.05.06-.07c0,0,0,0,0,0,.02-.03.03-.05.04-.08,0,0,0,0,0,0,.02-.06.04-.12.04-.19,0-.13-.05-.25-.15-.35-.04-.04-.08-.06-.12-.09-.04-.02-.09-.04-.14-.05h0s-.06-.01-.09,0c-.03,0-.06,0-.08,0-.01,0-.02,0-.03,0-.02,0-.04.01-.06.02,0,0,0,0,0,0,0,0,0,0,0,0,0,0,0,0,0,0,0,0,0,0-.01,0,0,0,0,0,0,0-.01,0-.02.01-.04.02,0,0,0,0-.01,0,0,0,0,0-.01,0,0,0,0,0,0,0,0,0,0,0,0,0,0,0,0,0,0,0-.01,0-.02.02-.03.02-.01,0-.02.02-.03.03s-.02.02-.03.03c0,0-.02.02-.02.03,0,0,0,0,0,0,0,0,0,.02-.01.02,0,0,0,0,0,.01,0,.01-.01.02-.02.03,0,0,0,0,0,0,0,0,0,0,0,.01,0,0,0,0,0,0,0,0,0,0,0,0,0,0,0,0,0,0,0,.02-.01.04-.02.06,0,.01,0,.02,0,.03,0,.03,0,.06,0,.08,0,.03,0,.06,0,.09h0s.02.09.05.14c.02.04.05.08.09.12.1.1.22.15.35.15.03,0,.06,0,.09,0Z"/>
    <path class="cls-2" d="M52.6,25.04h0s-.06-.01-.09,0c-.03,0-.06,0-.08,0-.01,0-.02,0-.03,0-.02,0-.04.01-.06.02,0,0,0,0,0,0,0,0,0,0,0,0,0,0,0,0,0,0,0,0,0,0-.01,0,0,0,0,0,0,0-.01,0-.02.01-.04.02,0,0,0,0-.01,0,0,0,0,0-.01,0,0,0,0,0,0,0,0,0,0,0,0,0,0,0,0,0,0,0-.01,0-.02.02-.03.02-.01,0-.02.02-.03.03s-.02.02-.03.03c0,0-.02.02-.02.03,0,0,0,0,0,0,0,0,0,.02-.01.02,0,0,0,0,0,.01,0,.01-.01.02-.02.03,0,0,0,0,0,0,0,0,0,0,0,.01,0,0,0,0,0,0,0,0,0,0,0,0,0,0,0,0,0,0,0,.02-.01.04-.02.06,0,.01,0,.02,0,.03,0,.03,0,.06,0,.08,0,.03,0,.06,0,.09h0s.02.09.05.14c.02.04.05.08.09.12.1.1.22.15.35.15.03,0,.06,0,.09,0h0s.06-.02.09-.03c0,0,0,0,0,0,.03-.01.05-.03.08-.04,0,0,0,0,0,0,.03-.02.05-.04.07-.06s.04-.05.06-.07c0,0,0,0,0,0,.02-.03.03-.05.04-.08,0,0,0,0,0,0,.02-.06.04-.12.04-.19,0-.13-.05-.25-.15-.35-.04-.04-.08-.06-.12-.09-.04-.02-.09-.04-.14-.05Z"/>
    <circle class="cls-2" cx="51.71" cy="20.17" r=".5"/>
    <polygon class="cls-2" points="52.66 23.44 52.66 23.91 52.66 23.91 53.5 24.76 53.98 24.76 54.68 24.05 53.36 22.74 53.36 22.74 52.66 23.44 52.66 23.44"/>
    <polygon class="cls-2" points="53.82 22.28 55.14 23.59 55.47 23.26 54.15 21.95 54.15 21.95 53.82 22.28 53.82 22.28"/>
    <polygon class="cls-2" points="54.61 21.49 55.93 22.81 56.26 22.48 54.94 21.16 54.94 21.16 54.61 21.49 54.61 21.49"/>
    <polygon class="cls-2" points="55.4 20.7 56.72 22.02 57.05 21.69 55.73 20.37 55.73 20.37 55.4 20.7 55.4 20.7"/>
    <polygon class="cls-2" points="56.19 19.91 57.5 21.23 57.83 20.9 56.52 19.58 56.52 19.58 56.19 19.91 56.19 19.91"/>
    <polygon class="cls-2" points="56.98 19.12 58.29 20.44 58.62 20.11 57.31 18.79 57.31 18.79 56.98 19.12 56.98 19.12"/>
    <polygon class="cls-2" points="58.47 17.63 57.77 18.34 57.77 18.34 59.08 19.65 59.78 18.95 59.78 18.48 58.94 17.63 58.94 17.63 58.47 17.63 58.47 17.63"/>
    <polygon class="cls-3" points="35.24 33.7 35.24 33.7 35.04 33.5 34.63 33.08 33.86 33.85 34.28 34.27 34.48 34.47 35.24 33.7"/>
    <polygon class="cls-3" points="36.35 32.6 36.35 32.6 36.15 32.4 35.73 31.98 34.97 32.74 35.38 33.16 35.58 33.36 36.35 32.6"/>
    <polygon class="cls-3" points="37.45 31.49 37.45 31.49 37.25 31.29 36.83 30.88 36.07 31.64 36.49 32.06 36.69 32.26 37.45 31.49"/>
    <polygon class="cls-3" points="38.55 30.39 38.56 30.39 38.36 30.19 37.94 29.77 37.17 30.54 37.59 30.95 37.79 31.15 38.55 30.39"/>
    <polygon class="cls-3" points="39.66 29.29 39.66 29.28 39.46 29.09 39.04 28.67 38.28 29.43 38.69 29.85 38.89 30.05 39.66 29.29"/>
    <polygon class="cls-3" points="40.76 28.18 40.76 28.18 40.56 27.98 40.15 27.56 39.38 28.33 39.8 28.75 40 28.95 40.76 28.18"/>
    <polygon class="cls-3" points="41.87 27.08 41.87 27.08 41.67 26.88 41.25 26.46 40.49 27.22 40.9 27.64 41.1 27.84 41.87 27.08"/>
    <polygon class="cls-3" points="42.97 25.97 42.97 25.97 42.77 25.77 42.35 25.36 41.59 26.12 42.01 26.54 42.21 26.74 42.97 25.97"/>
    <polygon class="cls-3" points="44.07 24.87 44.08 24.87 43.88 24.67 43.46 24.25 42.69 25.02 43.11 25.43 43.31 25.63 44.07 24.87"/>
    <polygon class="cls-3" points="45.18 23.77 45.18 23.76 44.98 23.57 44.56 23.15 43.8 23.91 44.21 24.33 44.41 24.53 45.18 23.77"/>
    <polygon class="cls-3" points="46.28 22.66 46.28 22.66 46.08 22.46 45.67 22.04 44.9 22.81 45.32 23.23 45.52 23.43 46.28 22.66"/>
    <polygon class="cls-3" points="47.39 21.56 47.39 21.56 47.19 21.36 46.77 20.94 46.01 21.7 46.42 22.12 46.62 22.32 47.39 21.56"/>
    <polygon class="cls-3" points="48.49 20.45 48.49 20.45 48.29 20.25 47.87 19.84 47.11 20.6 47.53 21.02 47.73 21.22 48.49 20.45"/>
    <polygon class="cls-3" points="49.59 19.35 49.6 19.35 49.4 19.15 48.98 18.73 48.21 19.5 48.63 19.91 48.83 20.11 49.59 19.35"/>
    <polygon class="cls-3" points="50.7 18.25 50.7 18.24 50.5 18.04 50.08 17.63 49.32 18.39 49.73 18.81 49.93 19.01 50.7 18.25"/>
    <polygon class="cls-3" points="51.8 17.14 51.8 17.14 51.6 16.94 51.19 16.52 50.42 17.29 50.84 17.71 51.04 17.91 51.8 17.14"/>
    <polygon class="cls-3" points="52.91 16.04 52.91 16.04 52.71 15.84 52.29 15.42 51.53 16.18 51.94 16.6 52.14 16.8 52.91 16.04"/>
    <polygon class="cls-3" points="54.14 26.86 54.14 26.86 54.76 27.48 55.52 26.72 55.16 26.35 54.9 26.1 54.14 26.86"/>
    <polygon class="cls-3" points="55.24 25.76 55.24 25.76 55.86 26.38 56.62 25.61 56.26 25.25 56.01 24.99 55.24 25.76"/>
    <polygon class="cls-3" points="56.35 24.66 56.35 24.66 56.96 25.27 57.73 24.51 57.36 24.14 57.11 23.89 56.35 24.66"/>
    <polygon class="cls-3" points="57.45 23.55 57.45 23.55 58.07 24.17 58.83 23.4 58.47 23.04 58.21 22.79 57.45 23.55"/>
    <polygon class="cls-3" points="58.55 22.45 58.55 22.45 59.17 23.07 59.94 22.3 59.57 21.94 59.32 21.68 58.55 22.45"/>
    <polygon class="cls-3" points="59.66 21.34 59.66 21.34 60.28 21.96 61.04 21.2 60.68 20.83 60.42 20.58 59.66 21.34"/>
    <polygon class="cls-3" points="60.76 20.24 60.76 20.24 61.38 20.86 62.14 20.09 61.78 19.73 61.53 19.47 60.76 20.24"/>
    <path class="cls-4" d="M60.08,14.32l.2.2-1.17,1.17-.3-.3,1.26-1.26-.25-.25,1.49-1.49-2.16-2.16-1.49,1.49-.25-.25-1.29,1.29c-.12-.04-.26-.03-.37.03l-.58-.58-1.55.5-.07.07-1.59-1.59-.83.83,1.59,1.59-.18.18,1.1,1.1-.93.93.2.2h0s0,0,0,0l-.76.76h0s-.2-.2-.2-.2l-.34.34.2.2h0s0,0,0,0l-.76.76h0s-.2-.2-.2-.2l-.34.34.2.2h0s0,0,0,0l-.76.76h0s-.2-.2-.2-.2l-.34.34.2.2h0s0,0,0,0l-.76.76h0s-.2-.2-.2-.2l-.34.34.2.2h0s0,0,0,0l-.76.76h0s-.2-.2-.2-.2l-.34.34.2.2h0s0,0,0,0l-.76.76h0s-.2-.2-.2-.2l-.34.34.2.2h0s0,0,0,0l-.76.76h0s-.2-.2-.2-.2l-.34.34.2.2h0s0,0,0,0l-.76.76h0s-.2-.2-.2-.2l-.34.34.2.2h0s0,0,0,0l-.76.76h0s-.2-.2-.2-.2l-.34.34.2.2h0s0,0,0,0l-.76.76h0s-.2-.2-.2-.2l-.34.34.2.2h0s0,0,0,0l-.76.76h0s-.2-.2-.2-.2l-.34.34.2.2h0s0,0,0,0l-.76.76h0s-.2-.2-.2-.2l-.34.34.2.2h0s0,0,0,0l-.76.76h0s-.2-.2-.2-.2l-.34.34.2.2h0s0,0,0,0l-.76.76h0s-.2-.2-.2-.2l-.34.34.2.2h0s0,0,0,0l-.76.76h0s-.2-.2-.2-.2l-.34.34.2.2h0s0,0,0,0l-.76.76h0s-.2-.2-.2-.2l-.34.34.2.2h0s0,0,0,0l-.76.76h0s-.2-.2-.2-.2l-.75.75-.59-.59-1.55.5-.07.07-1.59-1.59-.83.83,1.59,1.59-.18.18,1.12,1.12-2.21,2.21c-.17.17-.17.46,0,.63l2.25,2.25s0,0,0,0c.02.02.04.04.06.05,0,0,.01,0,.02.01.02.01.03.02.05.03,0,0,.02,0,.03.01.02,0,.03.01.05.01,0,0,.02,0,.03,0,.02,0,.04,0,.06,0,0,0,.01,0,.02,0,.03,0,.05,0,.08,0t0,0c.61-.12,1.37.03,1.76.34.18.14.26.29.27.46,0,0,0,0,0,.01h0s0,.06,0,.09c.39,2.33,1.26,4.58,2.84,7.3.19.32.38.65.61,1.02.12.19.35.26.56.18l4.78-2.07s.01,0,.02,0l2.34-1.01s0,0,.01,0c1.09-.41,2.2-1.19,3.37-2.36.1-.1.2-.21.3-.31l4.53-4.53.56,1.24,4.77,10.71c.05.11.14.19.25.23.11.04.23.04.34,0l.25-.11c.1.22.36.32.59.22l3.19-1.43c.05-.02.1-.05.13-.09.04-.04.08-.1.1-.16.04-.11.04-.23,0-.34l-.15-.33s-.01-.02-.02-.04c0-.01,0-.03-.01-.04l-6.14-13.71.33-.33c.12-.12.16-.31.1-.47l-3.48-9.34.32-.32-.25-.25h0s0,0,0,0l.76-.76.25.25.34-.34-.25-.25h0s0,0,0,0l.76-.76.25.25.34-.34-.25-.25h0s0,0,0,0l.76-.76.25.25.34-.34-.25-.25h0s0,0,0,0l.76-.76.25.25.34-.34-.25-.25h0s0,0,0,0l.76-.76.25.25.34-.34-.25-.25h0s0,0,0,0l.76-.76.25.25.34-.34-.25-.25h0s0,0,0,0l.76-.76.25.25.37-.37c.17-.17.17-.46,0-.63l-1.13-1.13,1.17-1.17.2.2,1.91-1.91-2.31-2.31-1.91,1.91ZM39.98,47.16s.01.03.02.04c.11.19.21.4.31.63.24.5.5,1.08.96,1.46l-3.36,1.45c-.14-.23-.26-.44-.39-.66t0,0s0,0,0,0c-1.12-1.93-1.87-3.61-2.34-5.25-.04-.14-.08-.29-.12-.43-.02-.07-.04-.14-.05-.21-.02-.07-.03-.13-.05-.2,0,0,0-.01,0-.02-.01-.05-.02-.11-.04-.16-.02-.09-.04-.17-.05-.26-.01-.07-.03-.14-.04-.21-.01-.07-.03-.14-.04-.21h0s0,0,0-.01c0,0,0-.01,0-.02t0,0s0-.01,0-.02c0-.05,0-.09-.02-.14-.06-.37-.26-.69-.59-.95-.34-.27-.81-.45-1.32-.53l3.21-3.21,3.91,8.93ZM40.15,38.98s.08-.04.11-.07c.07-.07.11-.17.11-.28,0-.15-.1-.28-.25-.32-1.17-.39-1.76-1.26-2.07-2.05l1.4-1.4c.41-.41.83-.58,1.18-.49.31.08.57.38.68.76,0,.02.01.04.02.06l1.05,2.38-1.63,1.63-.34.15-2.4,1.07-.16-.38,2.32-1.07ZM37.84,39.31l-.15-.35c.13-.03.26,0,.36.1.04.04.06.08.08.12l-.29.13ZM39.26,38.66l-.52.24c-.05-.12-.13-.23-.22-.32-.29-.29-.72-.38-1.1-.24l-.4-.9.57-.57c.38.79.94,1.39,1.67,1.79ZM44.69,47.82l-2.28.98c-.64,0-.91-.52-1.29-1.34-.1-.23-.21-.46-.34-.68l-2.43-5.54,2.83-1.26s.09-.05.13-.09l1.44-1.44,2.07,4.71c.68,2.56.63,4.13-.14,4.66ZM48.04,45.38c-.67.7-1.31,1.26-1.93,1.68.26-1.25-.08-2.87-.43-4.17,0-.02-.01-.04-.02-.06l-3.5-7.98c-.19-.67-.69-1.19-1.3-1.36-.39-.1-1.17-.15-2.04.72l-7.04,7.04-1.62-1.62.99-.99.9-.9,23.9-23.9,1.41,1.41-3.98,3.98c-.11.11-.16.28-.12.43l.2.74-2.51,2.51-1.94-1.94-4.3,4.3,1.94,1.94-3.46,3.46c-.83.83-.9,2.46-.5,3.56,0,.01.01.03.02.04l5.32,11.1ZM49.02,22.24l1.31,1.31-3.04,3.04-1.31-1.31,3.04-3.04ZM62.26,51.24l-3.03,1.36-4.59-10.3-.7-1.54.48-.48c.06-.06.11-.15.12-.24.01-.07.02-.13.04-.19.18-.88.44-1.03,1.23-1.11.1-.01.2-.06.27-.13l.37-.37,5.82,12.99ZM58.48,16.33l-.04.04,1.91,1.91.04-.04.81.81-7.96,7.96c-.12.12-.16.31-.1.47l3.48,9.33-1.06,1.06c-1.13.15-1.62.64-1.87,1.87l-4.98,4.98-5.17-10.8c-.3-.83-.25-2.06.29-2.61l10.45-10.45c.11-.11.16-.28.12-.43l-.2-.74,3.79-3.79.16.16.02-.02.3.3Z"/>
  </g>
</svg>