<?xml version="1.0" encoding="UTF-8"?>
<svg id="Layer_1" data-name="Layer 1" xmlns="http://www.w3.org/2000/svg" xmlns:xlink="http://www.w3.org/1999/xlink" viewBox="0 0 81.31 81.31">
  <defs>
    <style>
      .cls-1 {
        stroke: #000;
      }

      .cls-1, .cls-2, .cls-3 {
        fill: none;
      }

      .cls-1, .cls-2, .cls-3, .cls-4, .cls-5 {
        stroke-width: 0px;
      }

      .cls-1, .cls-3 {
        stroke-linecap: round;
        stroke-linejoin: round;
      }

      .cls-6 {
        fill: url(#radial-gradient);
        stroke: #0071bc;
        stroke-miterlimit: 10;
        stroke-width: 2px;
      }

      .cls-3 {
        stroke: #fff;
      }

      .cls-4 {
        fill: #323232;
      }

      .cls-5 {
        fill: #fff;
      }
    </style>
    <radialGradient id="radial-gradient" cx="872.2" cy="-1151.27" fx="872.2" fy="-1151.27" r="39.66" gradientTransform="translate(237.99 1471.46) rotate(-45)" gradientUnits="userSpaceOnUse">
      <stop offset="0" stop-color="#b3b2b3" stop-opacity=".5"/>
      <stop offset="1" stop-color="#333" stop-opacity=".5"/>
    </radialGradient>
  </defs>
  <circle class="cls-6" cx="40.66" cy="40.66" r="39.66"/>
  <g>
    <path class="cls-2" d="M35.84,49.55l-.92.92c0,.2.06.4.17.6.24.44.71.75,1.25.84v.02c-.34.11-1.08.03-1.71-.63l-.44-.08-.14.14c.08.6.38.9.63,1.05.42.25.96.24,1.27.11.66-.29,1.62-.89,1.63-1.97l-.77-.77c-.36-.36-.87-.28-.97-.21Z"/>
    <path class="cls-2" d="M52.86,23.22c.12.01.17,0,.23-.06l1.77-1.77c.05-.05.05-.14-.01-.19l-.29-.29c-.06-.06-.14-.06-.19-.01l-2.1,2.1s-.03.06-.02.09c.02.04.06.07.13.08l.48.06Z"/>
    <path class="cls-2" d="M52.32,24.04s.06-.09.04-.12c-.02-.04-.07-.07-.16-.07l-.72-.02c-.12,0-.18,0-.27.09l-1.56,1.56,1.29-.07,1.37-1.37Z"/>
    <path class="cls-4" d="M52.64,21.67l1.13-1.13-.11-.11c-.17-.11-.43-.12-.67-.02l-.37.37s-.13.12-.22.04l-1.56-1.42-.26-.03-.13.13.09.23,1.4,1.4.18.07.51.47Z"/>
    <path class="cls-5" d="M29.99,54.02l5.17-5.17c.48-.48,1.62-.49,2.33.22l.54.54,3.25-4.53-.74-.74c-.43-.43-.65-.99-.61-1.57v-.03s.13-1,.13-1l-.17-.17-13.25,13.25.17.2.38-.38c1.07-1.07,2-.95,2.79-.63ZM34.45,47.99c-.12-.12-.12-.31,0-.42l.44-.44c.12-.12.31-.12.42,0l.46.46c.12.12.12.31,0,.42l-.44.44c-.12.12-.31.12-.42,0l-.46-.46ZM30.89,51.65l.46-.46c-.03-.15.01-.31.12-.42.18-.18.47-.18.65,0s.18.47,0,.65c-.11.11-.27.16-.42.12l-.46.46c-.1.1-.26.1-.36,0s-.1-.26,0-.36Z"/>
    <path class="cls-5" d="M26.02,54.08l13.19-13.19-1.91-1.91-11.36,11.36-.55-.55-.23.23-.98,1.85,1.85,2.2ZM32.67,44.97c-.09-.09-.09-.24,0-.34l4.12-4.12c.09-.09.24-.09.34,0l.77.77c.09.09.09.24,0,.34l-4.12,4.12c-.09.09-.24.09-.34,0l-.77-.77ZM28.92,49.3c.14-.14.36-.14.5,0s.14.36,0,.5-.36.14-.5,0-.14-.36,0-.5ZM26.83,50.53c.14-.14.36-.14.5,0s.14.36,0,.5-.36.14-.5,0-.14-.36,0-.5ZM26.59,51.96c.14-.14.36-.14.5,0s.14.36,0,.5-.36.14-.5,0-.14-.36,0-.5Z"/>
    <path class="cls-4" d="M41.44,46.53h0s1.04-1.44,1.04-1.44h0s.08-.11.08-.11l-1.32-1.32c-.16-.16-.35-.43-.33-.81l.18-1.46-3.78-3.78-.06.06-.33-.33-.24.24.17.17-.19.19-.17-.17-.24.24.17.17-.19.19-.17-.17-.24.24.17.17-.19.19-.17-.17-.24.24.17.17-.19.19-.17-.17-.24.24.17.17-.19.19-.17-.17-.24.24.17.17-.19.19-.17-.17-.24.24.17.17-.19.19-.17-.17-.24.24.17.17-.19.19-.17-.17-.24.24.17.17-.19.19-.17-.17-.24.24.17.17-.19.19-.17-.17-.24.24.17.17-.19.19-.17-.17-.24.24.17.17-.19.19-.17-.17-.24.24.17.17-.19.19-.17-.17-.24.24.17.17-.19.19-.17-.17-.24.24.17.17-.19.19-.17-.17-.24.24.17.17-.19.19-.17-.17-.24.24.17.17-.19.19-.17-.17-.24.24.17.17-.19.19-.17-.17-.24.24.17.17-.19.19-.17-.17-.24.24.17.17-.19.19-.17-.17-.24.24.17.17-.19.19-.17-.17-.24.24.17.17-.19.19-.17-.17-.24.24.17.17-1.67,1.67-.39-.39-1.02,1.02-1.36,2.56,3.75,4.46,1.13-1.13c.8-.8,1.28-.63,2.01-.3l.31.14,3.28-3.28,1.63,1.63.27-.27c.29-.29.59-.42.9-.56.33-.15.67-.3,1.02-.64.1-.1.21-.22.31-.36l.47-.65.06.06,3.29-4.58ZM25.39,49.8l.55.55,11.36-11.36,1.91,1.91-13.19,13.19-1.85-2.2.98-1.85.23-.23ZM26.65,54.83l13.25-13.25.17.17-.13,1v.03c-.04.58.18,1.14.61,1.57l.74.74-3.25,4.53-.54-.54c-.71-.71-1.85-.7-2.33-.22l-5.17,5.17c-.8-.32-1.72-.45-2.79.63l-.38.38-.17-.2ZM37.58,50.53c-.01,1.08-.97,1.68-1.63,1.97-.32.14-.85.15-1.27-.11-.25-.15-.56-.45-.63-1.05l.14-.14.44.08c.63.66,1.37.74,1.71.63v-.02c-.54-.09-1-.4-1.25-.84-.11-.19-.16-.4-.17-.6l.92-.92c.1-.06.61-.15.97.21l.77.77ZM42.08,44.81h0s0,0,0,0Z"/>
    <line class="cls-3" x1="42.08" y1="44.81" x2="42.08" y2="44.81"/>
    <rect class="cls-4" x="32.13" y="42.35" width="6.3" height="1.56" rx=".24" ry=".24" transform="translate(-20.16 37.58) rotate(-45)"/>
    <rect class="cls-4" x="34.5" y="47.17" width="1.22" height="1.25" rx=".3" ry=".3" transform="translate(-23.51 38.83) rotate(-45)"/>
    <path class="cls-5" d="M19.95,62.05l-2.98-1.06-.17-.17-1.78,1.54,6.41,6.41.86-1-2.15-5.53-.19-.19ZM17.49,62.98c-.22.22-.57.22-.79,0s-.22-.57,0-.79.57-.22.79,0,.22.57,0,.79Z"/>
    <polygon class="cls-5" points="17.34 60 17.5 60.16 20.48 61.21 20.56 61.29 23.67 58.18 25.25 56.6 22.84 53.73 17.34 60"/>
    <path class="cls-4" d="M22.85,52.24l-6.84,7.8.1.1-1.76,1.52-.4.4c-.23.23-.34.48-.34.74.01.39.29.64.46.78l.37.32c2.33,2.04,3.87,3.39,5.97,5.85.24.28.48.41.75.41.27,0,.45-.14.57-.26.04-.04.07-.08.1-.11l1.58-1.83-2.29-5.87,5.44-5.44-3.71-4.42ZM21.44,68.78l-6.41-6.41,1.78-1.54.17.17,2.98,1.06.19.19,2.15,5.53-.86,1ZM25.25,56.6l-1.58,1.58-3.11,3.11-.08-.08-2.98-1.06-.16-.16,5.49-6.27,2.41,2.87Z"/>
    <path class="cls-4" d="M16.71,62.19c-.22.22-.22.57,0,.79s.57.22.79,0,.22-.57,0-.79-.57-.22-.79,0Z"/>
    <path class="cls-5" d="M34.72,61.66l2.82-1.68c-.62-.02-.86-.43-1.01-.67-.01-.02-.03-.05-.04-.07l-1.95-3.13c-.32-.52-.62-1.29-.58-2.02l-.52-.52-1.79,1.79c.5.65.66,1.31.83,2,.25,1.06.57,2.36,2.23,4.31Z"/>
    <path class="cls-4" d="M30.65,55.67c.57.57.7,1.13.89,1.91.28,1.15.66,2.73,2.72,5.03l.27.3,3.52-2.1c.1-.06.19-.13.26-.2.28-.28.32-.62.26-.87-.11-.42-.51-.72-.98-.73-.09,0-.09,0-.21-.2-.02-.03-.03-.06-.05-.09l-1.95-3.13c-.27-.43-.51-1.1-.41-1.59l.05-.25-1.55-1.55-3.14,3.14.34.34ZM33.44,53.56l.52.52c-.05.72.25,1.5.58,2.02l1.95,3.13s.03.05.04.07c.15.24.39.65,1.01.67l-2.82,1.68c-1.67-1.95-1.98-3.25-2.23-4.31-.17-.69-.33-1.35-.83-2l1.79-1.79Z"/>
    <path class="cls-4" d="M63.75,14.8l1.21-1.21-.45-.45-2.05,2.05.09.09-.12.12-.09-.09-1.01,1.01-.04.23-4.72,4.72,1.01,1.01,4.72-4.72.23-.04,1.01-1.01-.09-.09.12-.12.09.09,2.05-2.05-.45-.45-1.21,1.21c-.08.08-.21.08-.29,0s-.08-.21,0-.29Z"/>
    <path class="cls-4" d="M55.6,20.86l-.89-.55-.22-.22-.16.16-.17-.17-.26.26.17.17-1.48,1.48-.16-.16-.24.24.16.16-.19.19-.16-.16-.24.24.16.16-.19.19-.16-.16-.24.24.16.16-.19.19-.16-.16-.24.24.16.16-.19.19-.16-.16-.24.24.16.16-.19.19-.16-.16-.24.24.16.16-.19.19-.16-.16-.24.24.16.16-.19.19-.16-.16-.24.24.16.16-.19.19-.16-.16-.24.24.16.16-.19.19-.16-.16-.24.24.16.16-.19.19-.16-.16-.24.24.16.16-.19.19-.16-.16-.24.24.16.16-.19.19-.16-.16-.24.24.16.16-.19.19-.16-.16-.24.24.16.16-.19.19-.16-.16-.24.24.16.16-.19.19-.16-.16-.24.24.16.16-.19.19-.16-.16-.24.24.16.16-.19.19-.16-.16-.24.24.16.16-.19.19-.16-.16-.24.24.16.16-.19.19-.16-.16-.24.24.16.16-.19.19-.16-.16-.24.24.16.16-.19.19-.16-.16-.24.24.16.16-.19.19-.16-.16-.24.24.16.16-.19.19-.16-.16-.24.24.16.16-.19.19-.16-.16-.24.24.16.16-.19.19-.16-.16-.24.24.16.16-.19.19-.16-.16-.24.24.16.16-.19.19-.16-.16-.24.24.16.16-.19.19-.16-.16-.24.24.16.16-.19.19-.16-.16-.24.24.16.16-.19.19-.16-.16-.24.24.16.16-.19.19-.16-.16-.24.24.16.16-.19.19-.16-.16-.24.24.16.16-.19.19-.16-.16-.24.24.16.16-.19.19-.16-.16-.24.24.16.16-.19.19-.16-.16-.24.24.16.16h-.01s.17.18.17.18l-.05.05,3.81,3.81,2.87-2.87.06.06.13-.13.16.16.24-.24-.16-.16.19-.19.16.16.24-.24-.16-.16.19-.19.16.16.24-.24-.16-.16.19-.19.16.16.24-.24-.16-.16.19-.19.16.16.24-.24-.16-.16.19-.19.16.16.24-.24-.16-.16.19-.19.16.16.24-.24-.16-.16.19-.19.16.16.24-.24-.16-.16.19-.19.16.16.24-.24-.16-.16.19-.19.16.16.24-.24-.16-.16.13-.13-.06-.06,2.93-2.93.18.18,5.97-5.97.73.05.2.2h.29s.3-.3.3-.3v-.29s-.67-.67-.67-.67h-.2s.28-.29.28-.29l-.84-1.12-2.05-2.05-.05.05h0ZM52.25,23.08s0-.07.02-.09l2.1-2.1c.05-.05.14-.05.19.01l.29.29c.06.06.06.14.01.19l-1.77,1.77c-.06.06-.11.08-.23.06l-.48-.06c-.07,0-.11-.04-.13-.08ZM51.22,23.92c.09-.09.15-.09.27-.09l.72.02c.08,0,.14.03.16.07.01.03,0,.08-.04.12l-1.37,1.37-1.29.07,1.56-1.56ZM47.14,31.52l.18-.18,1.11,1.11-.18.18-1.11-1.11ZM52.2,26.45l1.11,1.11-.13.13-1.11-1.11.13-.13ZM52.5,28.38l-.13.13-1.11-1.11.13-.13,1.11,1.11ZM49.76,28.89l1.11,1.11-.13.13-1.11-1.11.13-.13ZM50.45,28.21l.13-.13,1.11,1.11-.13.13-1.11-1.11ZM49.76,28.21h0s0,0,0,0ZM48.95,29.71l1.11,1.11-.13.13-1.11-1.11.13-.13ZM49.25,31.63l-.13.13-1.11-1.11.13-.13,1.11,1.11ZM54,26.88l-1.11-1.11.18-.18,1.11,1.11-.18.18ZM51.39,26.58h0s0,0,0,0ZM48.14,29.83h0s0,0,0,0ZM54.47,25.61l.67-.67c.07-.07.07-.19,0-.26l-.17-.17c-.07-.07-.19-.07-.26,0l-.67.67-.69-.69,2.3-2.3,1.32,1.32.3.39-2.26,2.26-.54-.54ZM38.87,37.41l.46-.46.11.11-.24.24.31.31.71-.2.58-.58-.56-.56-.24.24-.11-.11,9.95-9.95,1.06-.06-5.13,5.13.96.96-.67.67c-.07.07-.07.19,0,.26l.17.17c.07.07.19.07.26,0l.67-.67.54.54-.15.15c-.09-.04-.2-.02-.27.05l-1.37,1.37c-.07.07-.09.18-.05.27l-.54.54c-.09-.04-.2-.02-.27.05l-1.37,1.37c-.07.07-.09.18-.05.27l-2.33,2.33-2.44-2.44Z"/>
    <path class="cls-5" d="M56.97,23.5l-1.32-1.32-2.3,2.3.69.69.67-.67c.07-.07.19-.07.26,0l.17.17c.07.07.07.19,0,.26l-.67.67.54.54,2.26-2.26-.3-.39ZM56.34,23.96c-.18.18-.47.18-.65,0s-.18-.47,0-.65.47-.18.65,0,.18.47,0,.65Z"/>
    <path class="cls-5" d="M43.69,37.25l1.37-1.37c.07-.07.18-.09.27-.05l.54-.54c-.04-.09-.02-.2.05-.27l1.37-1.37c.07-.07.18-.09.27-.05l.15-.15-.54-.54-.67.67c-.07.07-.19.07-.26,0l-.17-.17c-.07-.07-.07-.19,0-.26l.67-.67-.96-.96,5.13-5.13-1.06.06-9.95,9.95.11.11.24-.24.56.56-.58.58-.71.2-.31-.31.24-.24-.11-.11-.46.46,2.44,2.44,2.33-2.33c-.04-.09-.02-.2.05-.27ZM48.26,28.16l1.37-1.37c.09-.09.23-.09.32,0s.09.23,0,.32l-1.37,1.37c-.09.09-.23.09-.32,0s-.09-.23,0-.32ZM45.91,30.5l1.37-1.37c.09-.09.23-.09.32,0s.09.23,0,.32l-1.37,1.37c-.09.09-.23.09-.32,0s-.09-.23,0-.32ZM43.53,32.88l1.37-1.37c.09-.09.23-.09.32,0s.09.23,0,.32l-1.37,1.37c-.09.09-.23.09-.32,0s-.09-.23,0-.32ZM43.83,35.65c-.07-.07-.07-.19,0-.26l1.59-1.59c.07-.07.19-.07.26,0l.17.17c.07.07.07.19,0,.26l-1.59,1.59c-.07.07-.19.07-.26,0l-.17-.17ZM41.77,38.05l-.17-.17c-.07-.07-.07-.19,0-.26l1.59-1.59c.07-.07.19-.07.26,0l.17.17c.07.07.07.19,0,.26l-1.59,1.59c-.07.07-.19.07-.26,0Z"/>
    <path class="cls-5" d="M40.38,50.14c2.11,1.46,5.69,3.53,9.55,5.04l1.7-3.81c-2.13-.74-5.67-2.19-8.87-4.56l-2.39,3.33Z"/>
    <path class="cls-4" d="M42.96,45.75l-.4-.31-3.54,4.93.39.28c2.16,1.55,6.23,3.95,10.59,5.61l.43.16,2.52-5.63-.51-.17c-2.06-.68-6.03-2.21-9.48-4.88ZM49.93,55.18c-3.86-1.52-7.44-3.58-9.55-5.04l2.39-3.33c3.2,2.37,6.73,3.82,8.87,4.56l-1.7,3.81Z"/>
    <rect class="cls-4" x="41.3" y="36.73" width="2.62" height=".61" rx=".18" ry=".18" transform="translate(-13.71 40.98) rotate(-45)"/>
    <rect class="cls-4" x="43.53" y="34.5" width="2.62" height=".61" rx=".18" ry=".18" transform="translate(-11.48 41.9) rotate(-45)"/>
    <path class="cls-4" d="M43.86,33.2l1.37-1.37c.09-.09.09-.23,0-.32s-.23-.09-.32,0l-1.37,1.37c-.09.09-.09.23,0,.32s.23.09.32,0Z"/>
    <path class="cls-4" d="M46.23,30.83l1.37-1.37c.09-.09.09-.23,0-.32s-.23-.09-.32,0l-1.37,1.37c-.09.09-.09.23,0,.32s.23.09.32,0Z"/>
    <path class="cls-4" d="M48.58,28.48l1.37-1.37c.09-.09.09-.23,0-.32s-.23-.09-.32,0l-1.37,1.37c-.09.09-.09.23,0,.32s.23.09.32,0Z"/>
    <path class="cls-4" d="M31.25,52l.46-.46c.15.03.31-.01.42-.12.18-.18.18-.47,0-.65s-.47-.18-.65,0c-.11.11-.16.27-.12.42l-.46.46c-.1.1-.1.26,0,.36s.26.1.36,0Z"/>
    <polygon class="cls-5" points="50.29 33.77 51.01 34.49 51.23 35.11 53.72 37.6 55.06 36.25 52.57 33.76 51.96 33.55 51.23 32.83 50.29 33.77"/>
    <path class="cls-4" d="M49.32,34.58l.43.02.41.41.21.62,3.33,3.33,2.72-2.72-3.33-3.33-.62-.21-.41-.41-.02-.43-.61-.61-2.72,2.72.61.61ZM52.57,33.76l2.49,2.49-1.35,1.35-2.49-2.49-.21-.62-.72-.72.94-.94.72.72.62.21Z"/>
    <path class="cls-4" d="M55.69,23.3c-.18.18-.18.47,0,.65s.47.18.65,0,.18-.47,0-.65-.47-.18-.65,0Z"/>
    <path class="cls-4" d="M27.33,51.03c.14-.14.14-.36,0-.5s-.36-.14-.5,0-.14.36,0,.5.36.14.5,0Z"/>
    <path class="cls-4" d="M27.08,52.45c.14-.14.14-.36,0-.5s-.36-.14-.5,0-.14.36,0,.5.36.14.5,0Z"/>
    <path class="cls-4" d="M29.42,49.79c.14-.14.14-.36,0-.5s-.36-.14-.5,0-.14.36,0,.5.36.14.5,0Z"/>
    <rect class="cls-5" x="52.61" y="26.29" width=".18" height="1.57" transform="translate(-3.71 45.19) rotate(-45)"/>
    <rect class="cls-5" x="48.54" y="30.35" width=".18" height="1.57" transform="translate(-7.77 43.51) rotate(-45)"/>
    <rect class="cls-5" x="47.66" y="31.19" width=".26" height="1.57" transform="translate(-8.62 43.16) rotate(-45)"/>
    <rect class="cls-5" x="50.98" y="27.91" width=".18" height="1.57" transform="translate(-5.34 44.52) rotate(-45)"/>
    <rect class="cls-5" x="50.17" y="28.73" width=".18" height="1.57" transform="translate(-6.15 44.18) rotate(-45)"/>
    <rect class="cls-5" x="49.35" y="29.54" width=".18" height="1.57" transform="translate(-6.96 43.84) rotate(-45)"/>
    <rect class="cls-5" x="51.79" y="27.1" width=".18" height="1.57" transform="translate(-4.52 44.86) rotate(-45)"/>
    <rect class="cls-5" x="53.41" y="25.44" width=".26" height="1.57" transform="translate(-2.87 45.54) rotate(-45)"/>
    <line class="cls-1" x1="48.14" y1="29.83" x2="48.14" y2="29.83"/>
    <line class="cls-1" x1="49.76" y1="28.21" x2="49.76" y2="28.21"/>
    <line class="cls-1" x1="51.39" y1="26.58" x2="51.39" y2="26.58"/>
    <path class="cls-4" d="M25.87,48.45l1.25-1.25-.11-.11h0c-.38-.04-.8.03-1.25.23l-1.71-1.62-.29.29,1.54,1.68h0s.11.01.11.01c-.09.18-.06.39.08.54.08.08.19.13.3.13l.09.09Z"/>
  </g>
</svg>