<?xml version="1.0" encoding="UTF-8"?>
<svg id="Layer_1" data-name="Layer 1" xmlns="http://www.w3.org/2000/svg" xmlns:xlink="http://www.w3.org/1999/xlink" viewBox="0 0 81.31 81.31">
  <defs>
    <style>
      .cls-1 {
        fill: url(#radial-gradient);
        stroke: #ed1c24;
        stroke-miterlimit: 10;
        stroke-width: 2px;
      }

      .cls-2 {
        fill: none;
      }

      .cls-2, .cls-3, .cls-4, .cls-5 {
        stroke-width: 0px;
      }

      .cls-3 {
        fill: #323232;
      }

      .cls-4 {
        fill: #fff;
      }

      .cls-5 {
        fill: #7e7e7e;
      }
    </style>
    <radialGradient id="radial-gradient" cx="872.2" cy="-1151.27" fx="872.2" fy="-1151.27" r="39.66" gradientTransform="translate(237.99 1471.46) rotate(-45)" gradientUnits="userSpaceOnUse">
      <stop offset="0" stop-color="#b3b2b3" stop-opacity=".5"/>
      <stop offset="1" stop-color="#333" stop-opacity=".5"/>
    </radialGradient>
  </defs>
  <circle class="cls-1" cx="40.66" cy="40.66" r="39.66"/>
  <g>
    <polygon class="cls-2" points="22.03 65.08 23.77 57.43 19.07 62.13 22.03 65.08"/>
    <path class="cls-2" d="M39.38,43.21c-.1-.02-.28-.03-.43-.03l-1.39,1.39c.06.08.12.15.19.22.42.42.98.64,1.53.59-.52.52-1.41.47-2-.12-.07-.07-.13-.15-.19-.22l-.09.09v.87l.59.59c.27-.03.69-.06,1.02-.18.5-.18,1.18-.53,1.58-.82.16-.11.32-.25.46-.39,0-.13,0-.28-.04-.42-.07-.26-.23-.64-.37-.87-.13-.22-.29-.41-.44-.53-.12-.09-.21-.12-.42-.17Z"/>
    <path class="cls-3" d="M41.77,34.14l.05.05c.36.36.36.93,0,1.29l-3.35,3.35c-.36.36-.93.36-1.29,0l-.05-.05c-.36-.36-.36-.93,0-1.29l3.35-3.35c.17-.17.4-.27.65-.27.24,0,.47.1.65.27Z"/>
    <path class="cls-3" d="M56.62,21.85l-.22-.22,1.92-1.92-2.42-2.42h-.01s0-.01,0-.01l-1.73.46-23.41,23.4h-.01c-.04.07-.11.17-.18.3-.2.32-.5.81-.78,1.19-.37.49-.93,1.18-1.44,1.74-.34.37-.8.81-1.1,1.1l-.23.23,4.05,4.04,9.14-9.14h.01l4.85-4.86c.41.03.78-.1,1.01-.19.24-.08.42-.23.55-.36.05-.05.09-.1.13-.14.01-.01.02-.02.02-.03h-.01s10.64-10.64,10.64-10.64l.88-.88-1.65-1.66h-.01ZM54.8,18.87l.73-.2,1.14,1.14-1.03,1.03-.27-.27-.88-.89-5.5,5.5.04.05-.05-.03-.46.74-5.29,5.29-.39-.4,11.96-11.96ZM31.02,48.01l-2.27-2.26c.18-.18.36-.36.52-.54.54-.6,1.12-1.3,1.52-1.83.32-.43.63-.95.84-1.29.03-.05.05-.09.08-.13l10.24-10.24.4.4-.48.48h.01s-.01.02-.01.02c.02.04.06.1.1.18.12.25.32.63.52.9.24.34.53.65.9.99.05.05.1.1.16.15.1.1.22.21.33.31l-12.86,12.86ZM44.12,32.12l5.37-5.37.5-.79,4.49-4.5.27.27-10.51,10.51-.12-.12ZM45.62,34.38c-.07.03-.17.06-.27.09l-.39-.4-.19.19c-.13-.11-.26-.24-.36-.34-.02-.01-.03-.02-.05-.03l11.28-11.28.87.88-10.89,10.89Z"/>
    <polygon class="cls-4" points="55.53 18.68 56.67 19.81 55.64 20.84 55.37 20.58 55.38 20.57 54.49 19.69 48.99 25.19 49.03 25.23 48.98 25.2 48.52 25.95 43.24 31.23 42.84 30.83 54.8 18.87 55.53 18.68"/>
    <polygon class="cls-4" points="54.49 21.46 54.75 21.73 44.24 32.24 44.12 32.12 49.49 26.75 49.5 26.75 49.99 25.96 54.49 21.46"/>
    <path class="cls-4" d="M55.64,22.62l.88.88-10.89,10.89c-.07.03-.17.06-.27.09l-.4-.4-.19.19c-.13-.11-.27-.24-.37-.33-.01-.01-.03-.02-.04-.04l11.27-11.27Z"/>
    <path class="cls-4" d="M43.55,34.84c-.06-.05-.11-.1-.16-.15-.37-.34-.66-.65-.9-.99-.2-.27-.4-.65-.52-.9-.04-.08-.08-.14-.1-.18h.01s-.01-.02-.01-.02l.48-.48-.4-.4-10.24,10.24s-.05.08-.08.13c-.21.34-.52.86-.84,1.29-.4.53-.98,1.23-1.52,1.83-.16.18-.34.36-.52.54l2.27,2.26,12.86-12.86c-.11-.1-.23-.21-.33-.31ZM41.81,35.48l-3.34,3.35c-.36.35-.94.35-1.29,0l-.05-.05c-.36-.36-.36-.94,0-1.29l3.34-3.35c.17-.17.41-.27.65-.27s.47.1.64.27l.05.05c.36.36.36.93,0,1.29Z"/>
    <path class="cls-3" d="M40.91,53.31c-.09-.12-.21-.23-.38-.29-.29-.1-.53,0-.62.05h-.06l-2.01-5.88c.29-.03.66-.08.99-.2.55-.2,1.28-.57,1.73-.89.2-.15.41-.33.58-.5.23-.23.43-.47.54-.64.2-.32.11-.6.06-.74-.01-.03-.02-.08-.04-.14-.04-.15-.11-.38-.15-.59-.01-.06-.02-.11-.03-.17-.06-.26-.12-.56-.12-.86-.01-.37.04-.89.09-1.23.04-.24.13-.5.19-.67.02-.07.04-.12.05-.16h.01s-.45-.45-.45-.45l-.87.86h.01s-9.21,9.22-9.21,9.22l.87.88c.07.01.18.02.31.03.23.01.72.05.89.11.24.09.32.17.41.31.07.11.11.28.18.6.02.09.04.19.06.3.05.22.1.53.15.85.06.39.13.79.21,1.14.14.63.3,1.19.49,1.76.21.62.44,1.26.7,1.71.22.38.53.67.74.86l.03.03.06.08h.02s.04-.05.04-.05l5.33-4.37-.79-.97h-.01ZM37,45.12l.09-.08c.05.07.12.15.19.22.58.59,1.48.64,2,.11-.55.05-1.12-.17-1.53-.58-.07-.07-.13-.15-.19-.22l1.39-1.39c.15,0,.33,0,.43.03.21.04.3.07.42.17.15.12.32.31.44.53.07.12.14.27.21.42.07.16.13.32.16.45.04.14.04.29.05.42h-.01c-.15.15-.3.27-.46.38-.4.29-1.08.64-1.58.82-.33.12-.74.16-1.01.19l-.6-.6v-.87ZM36.49,56.93c-.19-.38-.38-.94-.51-1.32-.18-.53-.33-1.05-.46-1.64-.07-.31-.13-.69-.19-1.06-.06-.34-.11-.66-.17-.92-.02-.1-.04-.19-.05-.28-.08-.38-.15-.71-.35-1.03-.25-.39-.58-.64-1.05-.81-.13-.05-.29-.08-.46-.11l2.87-2.87.43.43,2.1,6.12s0,.03.01.04c.07.22.19.54.46.72.17.11.36.15.52.15l-3.15,2.58Z"/>
    <path class="cls-4" d="M38.65,53.45s0-.01,0-.02c0,.02.01.04.02.06.08.22.19.54.47.72.17.11.35.14.52.15l-3.15,2.59c-.19-.39-.38-.94-.51-1.33-.18-.53-.32-1.05-.46-1.63-.07-.31-.13-.69-.19-1.07-.06-.34-.11-.66-.16-.92-.02-.1-.04-.19-.06-.28-.08-.38-.14-.71-.34-1.03-.25-.39-.58-.65-1.05-.82-.13-.05-.29-.08-.46-.11l2.87-2.87.43.43,2.1,6.12h0Z"/>
    <path class="cls-3" d="M64.84,16.73c.18-.18.18-.46,0-.64l-.84-.84c-.08-.08-.2-.13-.32-.13-.12,0-.23.05-.32.13l-6.44,6.44,1.48,1.48,6.44-6.44Z"/>
    <path class="cls-3" d="M64.03,13.26l-.11.11c-.09.1-.24.1-.33,0-.09-.09-.09-.24,0-.33l.11-.11-.85-.85-.11.11c-.09.09-.24.09-.34,0-.09-.09-.09-.24,0-.33l.12-.11-.16-.16-5.01,5.02v.49l-.6.6,1.33,1.33.6-.6h.49l5.02-5.01-.16-.16ZM60.41,16.32c-.09.1-.24.1-.33,0l-.63-.62c-.09-.09-.09-.24,0-.33.1-.1.25-.1.34,0l.62.62c.09.09.09.24,0,.33ZM61.19,15.55c-.09.09-.24.09-.33,0l-.63-.63c-.09-.09-.09-.24,0-.33s.24-.09.33,0l.63.63c.09.09.09.24,0,.33ZM61.92,14.81c-.09.1-.24.1-.33,0l-.62-.62c-.1-.09-.1-.24,0-.33.09-.1.24-.1.33,0l.62.62c.09.09.09.24,0,.33ZM62.66,14.08c-.09.09-.24.09-.34,0l-.62-.63c-.09-.09-.09-.24,0-.33.09-.09.24-.09.33,0l.63.63c.09.09.09.24,0,.33Z"/>
    <path class="cls-3" d="M53.48,17.33l-.6.61-.63-.33-1.36,1.37.32.63-.72.72-.26-.26-.61.6.26.26-.58.58-.26-.26-.6.61.26.26-.58.58-.26-.26-.61.6.26.26-.58.58-.25-.26-.61.61.26.26-.58.58-.26-.26-.61.6.26.26-.58.58-.26-.26-.6.61.26.26-.6.59-.26-.25-.6.6.26.26-.6.6-.26-.26-.6.6.25.26-.58.58-.26-.26-.6.61.26.26-.58.58-.26-.26-.6.6.26.26-.59.58-.26-.26-.6.61.26.26-.58.58-.26-.26-.6.6.26.26-.58.58-.26-.26-.61.61.26.25-.22.23-.95-.55-1.34,1.34h-1.23l-.43.43c-.39.38-.39,1.01,0,1.4l.67.66-1.79,1.79.44.44,23.15-23.14-.45-.45ZM32.83,37.71c-.2.2-.52.2-.72,0-.2-.2-.2-.52,0-.72.1-.1.23-.15.36-.15.14,0,.27.05.36.15.2.2.2.52,0,.72Z"/>
    <path class="cls-3" d="M52.42,30.51h0s.12.12.12.12c.18-.18.43-.28.68-.28s.5.1.68.28l.22.22,1.12-1.12-.1-.1-.43-.9.81-.81.27.27.6-.6-.27-.27.58-.58.27.27.6-.6-.27-.27.58-.58.27.27.6-.6-.27-.27.52-.52h0c.09-.1.08-.25,0-.34l-.35-.35s-.06-.05-.09-.06l-6.48,6.48.34.34Z"/>
    <path class="cls-3" d="M25.17,54.9c-.25-.14-.55-.1-.75.1l-6.68,6.68c-.24.25-.24.64,0,.89l4.2,4.2c.16.16.4.22.62.16.1-.03.19-.09.27-.16.08-.08.14-.19.17-.31l2.48-10.88c.06-.27-.07-.55-.31-.68ZM22.03,65.08l-2.96-2.96,4.7-4.69-1.74,7.65Z"/>
    <path class="cls-3" d="M26.8,45.92l-.85.85h-.01v.02h-.01c-.03.11-.08.26-.13.46-.15.5-.38,1.26-.65,1.85-.37.79-.98,1.87-1.55,2.74-.39.58-.96,1.26-1.33,1.71-.13.16-.24.29-.32.39l-6.62,6.63-.06.05c-.29.3-.57.58-.73.88-.24.43-.38.94-.38,1.38-.01.54.2,1,.38,1.29.17.27.44.5.73.74.03.02.05.04.07.06l5.42,5.42s.03.04.05.06c.21.23.5.55.75.76.05.04.11.1.18.17.24.25.69.73,1.33.51.23-.09.47-.27.69-.49.38-.38.7-.86.83-1.09.23-.42.31-.77.4-1.18.04-.19.09-.4.16-.66.22-.82.49-1.85.82-3.24.33-1.41.79-3.48,1.12-5.08.14-.64.23-1.27.32-1.87.15-.95.28-1.84.54-2.72.45-1.52,1.4-3.52,1.76-4.27.11-.25.21-.43.3-.56l.8-.8-4.01-4.01ZM28.57,50.75c-.37.78-1.34,2.85-1.82,4.46-.28.96-.43,1.93-.58,2.88-.09.59-.18,1.2-.31,1.81-.32,1.59-.79,3.65-1.11,5.04-.32,1.37-.6,2.39-.82,3.21-.07.28-.12.51-.16.71-.09.37-.13.58-.28.84-.01.03-.03.06-.05.09l-7.76-7.76c.12-.16.35-.39.48-.52.07-.07.13-.13.17-.18l6.59-6.58h-.01c.08-.1.19-.23.32-.39.4-.48.99-1.19,1.41-1.83.61-.92,1.25-2.06,1.64-2.9.28-.6.5-1.31.66-1.84l2.11,2.12c-.14.2-.3.47-.48.84Z"/>
    <path class="cls-4" d="M26.94,47.79c-.16.53-.38,1.24-.66,1.84-.39.84-1.03,1.98-1.64,2.9-.42.64-1.01,1.35-1.41,1.83-.13.16-.24.29-.32.38h.01s-6.59,6.59-6.59,6.59c-.04.05-.1.11-.17.18-.13.13-.36.36-.48.52l7.76,7.76s.04-.06.05-.09c.15-.26.19-.47.28-.84.04-.2.09-.43.16-.71.22-.82.5-1.84.82-3.21.32-1.39.79-3.45,1.11-5.04.13-.61.22-1.22.31-1.81.15-.95.3-1.92.58-2.88.48-1.61,1.45-3.68,1.82-4.46.18-.37.34-.64.48-.84l-2.11-2.12ZM25.48,55.58l-2.48,10.88c-.03.12-.09.23-.17.31-.08.07-.17.13-.27.16-.22.06-.46,0-.62-.16l-4.2-4.2c-.24-.25-.24-.64,0-.89l6.68-6.68c.2-.2.5-.24.75-.1.24.13.37.41.31.68ZM26.62,53.91c-.33.33-.86.33-1.18,0-.33-.33-.33-.86,0-1.18.15-.16.37-.25.59-.25s.43.09.59.25c.33.32.33.85,0,1.18Z"/>
    <path class="cls-5" d="M32.11,36.99c-.2.2-.2.52,0,.72s.52.2.72,0,.2-.52,0-.72c-.1-.1-.22-.15-.36-.15-.13,0-.26.05-.36.15Z"/>
    <path class="cls-5" d="M26.62,52.73c.33.33.33.86,0,1.18s-.86.33-1.18,0-.33-.86,0-1.18c.16-.16.37-.24.59-.24s.43.09.59.25Z"/>
  </g>
</svg>