<?xml version="1.0" encoding="UTF-8"?>
<svg id="Layer_2" data-name="Layer 2" xmlns="http://www.w3.org/2000/svg" viewBox="0 0 11.11 4.42">
  <defs>
    <style>
      .cls-1 {
        fill: #fbb03b;
      }

      .cls-1, .cls-2 {
        stroke-width: 0px;
      }

      .cls-2 {
        fill: #000;
      }

      .cls-3 {
        opacity: .5;
      }
    </style>
  </defs>
  <g class="cls-3">
    <path class="cls-1" d="M6.2,3.92s-.07,0-.1,0H1c-.28,0-.5-.22-.5-.5V1c0-.28.22-.5.5-.5h5.18c.06,0,.12.01.18.03l1.42.54h2.32c.28,0,.5.22.5.5v1.3c0,.28-.22.5-.5.5h-2.32l-1.34.51c-.07.03-.15.04-.23.04Z"/>
    <path class="cls-2" d="M1,1h5.18s1.51.57,1.51.57h2.42v1.3h-2.42l-1.43.54-.04.02-.04-.02H1v-1.18s0-1.24,0-1.24M1,0C.73,0,.48.11.29.29.11.48,0,.73,0,1v2.41c0,.27.11.52.29.71.19.19.44.29.71.29h5.1s.09,0,.14,0c.12,0,.24-.02.34-.06l1.3-.49h2.23c.55,0,1-.45,1-1v-1.3c0-.55-.45-1-1-1h-2.23L6.53.06C6.42.02,6.3,0,6.18,0H1Z"/>
  </g>
</svg>