<?xml version="1.0" encoding="UTF-8"?>
<svg id="Layer_2" data-name="Layer 2" xmlns="http://www.w3.org/2000/svg" viewBox="0 0 17.1 6.02">
  <defs>
    <style>
      .cls-1 {
        fill: #fbb03b;
      }

      .cls-1, .cls-2 {
        stroke-width: 0px;
      }

      .cls-2 {
        fill: #000;
      }

      .cls-3 {
        opacity: .5;
      }
    </style>
  </defs>
  <g class="cls-3">
    <path class="cls-1" d="M9.63,5.51s-.09,0-.12-.01H1c-.28,0-.5-.22-.5-.5V1c0-.28.22-.5.5-.5h8.59c.06,0,.12.01.18.03l2.42.91h3.91c.28,0,.5.22.5.5v2.15c0,.28-.22.5-.5.5h-3.91l-2.28.87c-.07.03-.18.05-.28.05Z"/>
    <path class="cls-2" d="M9.59,1l2.5.95h4.01v2.15h-4.01l-2.37.9-.07.03-.07-.02H1V1h8.59M9.59,0H1C.45,0,0,.45,0,1v4c0,.55.45,1,1,1h8.43c.07.02.15.02.22.02.12,0,.24-.02.35-.07l.07-.03,2.2-.83h3.82c.55,0,1-.45,1-1V1.95c0-.55-.45-1-1-1h-3.82L9.94.06c-.11-.04-.23-.06-.35-.06h0Z"/>
  </g>
</svg>