<?xml version="1.0" encoding="UTF-8"?>
<svg id="Layer_2" data-name="Layer 2" xmlns="http://www.w3.org/2000/svg" xmlns:xlink="http://www.w3.org/1999/xlink" viewBox="0 0 62.05 62.05">
  <defs>
    <style>
      .cls-1 {
        fill: url(#radial-gradient);
        stroke: url(#radial-gradient-2);
        stroke-miterlimit: 10;
        stroke-width: 2px;
      }

      .cls-2 {
        fill: #323232;
      }

      .cls-2, .cls-3, .cls-4 {
        stroke-width: 0px;
      }

      .cls-3 {
        fill: #fff;
      }

      .cls-4 {
        fill: #7e7e7e;
      }
    </style>
    <radialGradient id="radial-gradient" cx="135.74" cy="-714.38" fx="135.74" fy="-714.38" r="30.02" gradientTransform="translate(-104.72 745.4)" gradientUnits="userSpaceOnUse">
      <stop offset="0" stop-color="#b3b2b3" stop-opacity=".5"/>
      <stop offset="1" stop-color="#333" stop-opacity=".5"/>
    </radialGradient>
    <radialGradient id="radial-gradient-2" cx="-185.02" cy="845.15" fx="-185.02" fy="845.15" r="31.02" gradientTransform="translate(759.47 -435.76) rotate(45)" gradientUnits="userSpaceOnUse">
      <stop offset="0" stop-color="#000" stop-opacity=".25"/>
      <stop offset="1" stop-color="#000" stop-opacity=".25"/>
    </radialGradient>
  </defs>
  <circle class="cls-1" cx="31.02" cy="31.02" r="30.02"/>
  <g>
    <path class="cls-3" d="M27.92,30.33v.17s0,.04.01.06c.03-.03.06-.07.07-.11.02-.08,0-.16-.03-.22-.03.03-.05.06-.05.1Z"/>
    <path class="cls-3" d="M46.55,48.14h-1.74c-1.51,0-2.76-1.08-3.03-2.51h-1.55v5.21l.06-.13h3.98l2.27-2.57Z"/>
    <path class="cls-3" d="M44.74,22.79c0-1.25.75-2.32,1.81-2.81-.15-.43-.3-.85-.47-1.27-.07.22-.16.43-.25.64-1.11,2.44-3.56,4.01-6.24,4.01h-1.35c-.49,0-.98-.05-1.46-.16l-4.58-1c-.38-.08-.76-.13-1.15-.13-.38,0-.77.04-1.15.13l-4.58,1c-.48.1-.97.16-1.46.16h-1.35c-2.68,0-5.13-1.58-6.24-4.01-.11-.23-.2-.47-.28-.71-.18.44-.35.89-.5,1.33,1.07.48,1.81,1.56,1.81,2.81v.99h27.44v-.99Z"/>
    <rect class="cls-3" x="20.31" y="39.66" width="1.49" height="1.97"/>
    <path class="cls-3" d="M17.23,48.14h-1.74l2.27,2.57h3.98l.06.13v-5.21h-1.55c-.27,1.43-1.52,2.51-3.03,2.51Z"/>
    <rect class="cls-3" x="40.24" y="39.66" width="1.49" height="1.97"/>
    <path class="cls-3" d="M27.48,30.3s-.01.09,0,.13l.12-.28c-.05.03-.1.09-.11.15Z"/>
    <path class="cls-3" d="M29.03,30.2h-.83s0,0,0,0c.08.12.11.27.09.42v.02s.74,0,.74,0c.08,0,.14-.06.14-.14v-.17c0-.08-.06-.14-.14-.14Z"/>
    <path class="cls-3" d="M32.31,30.33v.17s0,.04.01.06c.03-.03.06-.07.07-.11.02-.08,0-.16-.03-.22-.03.03-.05.06-.05.1Z"/>
    <path class="cls-3" d="M41.31,30.55c-.46.02-2.48-.19-2.66.09-.12.33,2.22.16,2.53.21.38.03.71-.22.13-.3Z"/>
    <path class="cls-3" d="M33.42,30.2h-.83s0,0,0,0c.08.12.11.27.09.42v.02s.74,0,.74,0c.08,0,.14-.06.14-.14v-.17c0-.08-.06-.14-.14-.14Z"/>
    <path class="cls-3" d="M22.98,30.57c-.46.02-2.48-.19-2.66.09-.12.33,2.22.16,2.53.21.38.03.71-.22.13-.3Z"/>
    <path class="cls-3" d="M47.82,29.61c-1.25,0-2.34-.75-2.82-1.83h-2.95c.09.25.08.53.06.82,0,.03,0,.06,0,.08,0,.11-.02.2-.08.26-.19.18-.53.14-.8.1h-.01c-.71-.14-1.33-.14-1.9,0h-.05c-.11.04-.22.06-.33.07-.32.03-.53-.01-.6-.13-.13-.22-.12-.84-.01-1.19h-14.6c.1.25.08.54.06.83,0,.03,0,.06,0,.08,0,.11-.02.2-.08.26-.19.18-.53.14-.8.1h-.01c-.71-.14-1.33-.14-1.9,0h-.05c-.11.04-.22.06-.33.07-.32.03-.53-.01-.6-.13-.13-.22-.12-.86,0-1.21h-2.97c-.48,1.08-1.56,1.83-2.82,1.83h-.11v.1h3.12c1.7,0,3.08,1.38,3.08,3.08v2.87h1.49v-1.51c0-1.7,1.38-3.08,3.08-3.08h1.92l.33-.78c.12-.28.43-.43.72-.35.06.02.11.04.16.07h1.23s.09.02.11.06l.22.33s.07.06.11.06h.06c.08,0,.14.06.14.14v.35c0,.05-.03.09-.07.12h1.38l.33-.78c.12-.28.43-.43.72-.35.06.02.11.04.16.07h1.23s.09.02.11.06l.22.33s.07.06.11.06h.06c.08,0,.14.06.14.14v.35c0,.05-.03.09-.07.12h2.94c1.7,0,3.08,1.38,3.08,3.08v1.51h1.49v-2.87c0-1.7,1.38-3.08,3.08-3.08h3.12v-.1h-.11ZM23.81,30.71c-.03.42-.41.54-.78.53-.93-.02-1.86-.01-2.79-.09-.22-.03-.38-.19-.4-.42-.03-.44-.07-.88-.01-1.32.01-.06.03-.12.04-.18.16.14.42.19.77.15,0,0,0,0,0,0-.23.09-.45.33-.15.49.43.15.92.03,1.37.08.33,0,1.25.11,1.46-.12.12-.39-.33-.49-.42-.51.3.04.7.08.98-.16.04.51,0,1.04-.06,1.55ZM42.14,30.7c-.03.42-.41.54-.78.53-.93-.02-1.86-.01-2.79-.09-.22-.03-.38-.19-.4-.42-.03-.44-.07-.88-.01-1.32.01-.06.03-.12.04-.18.16.14.42.19.77.15,0,0,0,0,0,0-.23.09-.45.33-.15.49.43.15.92.03,1.37.08.33,0,1.25.11,1.46-.12.12-.39-.33-.49-.42-.51.3.04.7.08.98-.16.04.51,0,1.04-.06,1.55Z"/>
    <path class="cls-3" d="M31.87,30.3s-.01.09,0,.13l.12-.28c-.05.03-.1.09-.11.15Z"/>
    <path class="cls-3" d="M45.03,16.4c-.02-.91-.27-1.81-.72-2.61l-.32-.56c-.66-1.17-1.73-2.05-3-2.48l-2.73-.94c-.58-.2-1.18-.3-1.79-.3h-10.92c-.61,0-1.21.1-1.79.3l-2.73.94c-1.27.44-2.33,1.32-3,2.48l-.32.56c-.42.73-.66,1.57-.71,2.41,0,.1,0,.2,0,.31,0,.79.17,1.56.5,2.28.89,1.95,2.86,3.22,5,3.22h1.3c.39,0,.79-.04,1.17-.13l4.58-1c.49-.11.97-.16,1.46-.16s.98.05,1.46.16l4.58,1c.38.08.78.13,1.17.13h1.3c2.15,0,4.11-1.26,5-3.22h0c.34-.75.51-1.57.49-2.4ZM37.18,19.6h-12.31v-3.99h12.31v3.99ZM37.18,14.38h-12.31v-2.32h12.31v2.32Z"/>
    <rect class="cls-4" x="40.24" y="35.67" width="1.49" height="3.99"/>
    <rect class="cls-4" x="20.31" y="35.67" width="1.49" height="3.99"/>
    <path class="cls-4" d="M41.36,24.75h0s.01,0,.01,0c.08-.04.11-.07.11-.08-.01-.02-.09-.08-.23-.09-.47-.02-.95-.01-1.41,0-.22,0-.44,0-.66,0h-.01c-.09,0-.19,0-.27.02-.07.01-.12.03-.15.05-.03.03-.05.07-.04.11.1.05.51.11,1.31.11.74,0,1.24-.06,1.33-.1Z"/>
    <path class="cls-4" d="M23.04,24.76h0s.01,0,.01,0c.08-.04.11-.07.11-.08-.01-.02-.09-.08-.23-.09-.47-.02-.95-.01-1.41,0-.22,0-.44,0-.66,0h-.01c-.09,0-.19,0-.27.02-.07.01-.12.03-.15.05-.03.03-.05.07-.04.11.1.05.51.11,1.31.11.74,0,1.24-.06,1.33-.1Z"/>
    <path class="cls-4" d="M44.74,26.52v-2.75h-27.44v2.75c0,.44-.1.87-.27,1.25h2.97c.02-.05.04-.09.06-.13h0c.04-.09.1-.17.17-.25.05-.06.1-.12.14-.19h0c.23-.42.17-1.04.03-1.48-.05-.19-.16-.32-.26-.45-.05-.06-.1-.13-.14-.19-.13-.23-.12-.49-.08-.81.01-.11.03-.23.09-.29h0s.03,0,.03,0c0,0,.54-.03.71-.04.39.01.79,0,1.17,0,.46-.01.94-.02,1.4,0,.32.04.38.13.39.2.07.28.02.73-.15.95-.47.49-.47.97-.41,1.61.01.39.14.54.32.74.04.04.08.09.12.14.04.06.08.12.1.19h14.6c.02-.06.04-.11.06-.15h0c.04-.09.1-.17.17-.25.05-.06.1-.12.14-.19h0c.23-.42.17-1.04.03-1.48-.05-.19-.16-.32-.26-.45-.05-.06-.1-.13-.14-.19-.13-.23-.12-.49-.08-.81.01-.11.03-.23.09-.29h0s.03,0,.03,0c0,0,.54-.03.71-.04.39.01.79,0,1.17,0,.46-.01.94-.02,1.4,0,.32.04.38.13.39.2.07.28.02.73-.15.95-.47.49-.47.97-.41,1.61.01.39.14.54.32.74.04.04.08.09.12.14.05.06.08.13.11.2h2.95c-.17-.38-.27-.8-.27-1.25ZM19.92,26.44c0-.25.09-.47.23-.64.11.37.18.91,0,1.25-.04.05-.08.11-.12.16-.03.04-.07.09-.1.13-.06-.29-.09-.57,0-.91ZM23.87,27.47s-.02-.03-.03-.04h0c-.05-.06-.09-.11-.13-.15-.17-.19-.24-.28-.25-.57h0c-.04-.41-.05-.72.06-1.01.34.32.37.87.4,1.39.02.14,0,.26-.04.39ZM38.25,26.43c0-.25.09-.47.23-.64.11.37.18.91,0,1.25-.04.05-.08.11-.12.16-.03.04-.07.09-.1.13-.06-.29-.09-.57,0-.91ZM42.2,27.45s-.02-.03-.03-.04h0c-.05-.06-.09-.11-.13-.15-.17-.19-.24-.28-.25-.57h0c-.04-.41-.05-.72.06-1.01.34.32.37.87.4,1.39.02.14,0,.26-.04.39Z"/>
    <path class="cls-4" d="M20.31,45.06c0,.19-.02.38-.05.57h1.55v-3.99h-1.49v3.43Z"/>
    <path class="cls-4" d="M41.73,45.06v-3.43h-1.49v3.99h1.55c-.03-.18-.05-.37-.05-.57Z"/>
    <path class="cls-3" d="M30.9,32.72c-.08.29.08.58.37.67.29.08.58-.08.67-.37.06-.23-.03-.46-.21-.59h-.62c-.1.07-.17.17-.21.29Z"/>
    <path class="cls-3" d="M26.51,32.72c-.08.29.08.58.37.67.29.08.58-.08.67-.37.06-.23-.03-.46-.21-.59h-.62c-.1.07-.17.17-.21.29Z"/>
    <path class="cls-3" d="M37.16,32.43h-4.77l-.08.51c-.09.52-.6.85-1.11.7-.5-.15-.77-.7-.57-1.18v-.03s-2.63,0-2.63,0l-.08.51c-.08.52-.6.85-1.11.7-.5-.15-.77-.7-.57-1.18v-.03s-1.34,0-1.34,0c-.95,0-1.72.77-1.72,1.72v18.55c0,.95.77,1.72,1.72,1.72h12.27c.95,0,1.72-.77,1.72-1.72v-18.55c0-.95-.77-1.72-1.72-1.72ZM37.47,46.5c-.25.47-.56.9-.92,1.28v3.36l-.82-.94-.24.21.84.96.22-.19v.21h-11.06v-.21l.22.19.83-.96-.24-.21-.82.94v-12.18l.82.94.24-.21-.83-.96-.22.19v-.21h3.07c1.82-1.32,4.31-1.56,6.43-.43.24.13.47.27.69.43h.87v.21l-.22-.19-.26.29c.08.07.16.14.23.21l.25-.28v.53c1.73,1.85,2.18,4.67.92,7.02Z"/>
    <path class="cls-3" d="M15.81,37.12s-.09,0-.13.02c.03.04.07.06.11.06h.12v-.05s-.07-.03-.1-.03Z"/>
    <path class="cls-3" d="M15.78,37.66s.08,0,.11-.02l-.32-.14s-.01,0-.02,0c.04.09.12.16.23.16Z"/>
    <path class="cls-3" d="M15.83,36.94s.06,0,.09.01v-1.01h-.12c-.08,0-.14.06-.14.14v.87c.05-.01.11-.02.16-.01Z"/>
    <path class="cls-3" d="M15.65,39.45c-.3-.02-.55.2-.57.5-.02.3.2.55.5.57.12,0,.24-.03.34-.09v-.89c-.08-.05-.17-.08-.26-.09Z"/>
    <path class="cls-3" d="M17.23,46.78c.95,0,1.72-.77,1.72-1.72v-12.27c0-.95-.77-1.72-1.72-1.72h-1.07c.37.48.59,1.07.59,1.72v9.13h-.84v-1.18c-.11.04-.23.06-.36.05-.52-.04-.9-.52-.8-1.04l.43-2.32c.03-.18.14-.33.29-.41v-1.15s.02-.09.06-.11l.33-.22s.04-.03.05-.06v-2.69c0-.74-.4-1.38-1-1.72h-3.04c-.95,0-1.72.77-1.72,1.72v12.27c0,.95.77,1.72,1.72,1.72h5.36Z"/>
    <path class="cls-4" d="M15.92,37.2h.05s0,0,.01,0c-.02-.02-.04-.04-.07-.05v.05Z"/>
    <path class="cls-4" d="M15.92,32.79v2.69s.01-.04.01-.06v-.06c0-.08.06-.14.14-.14h.35c.08,0,.14.06.14.14v2.42c0,.08-.06.14-.14.14h-.01l.09,1.94c.02.4-.23.74-.58.87v1.18h.84v-9.13c0-.65-.22-1.24-.59-1.72h-1.25c.6.34,1,.98,1,1.72Z"/>
    <path class="cls-4" d="M15.92,39.54v.89c.13-.09.22-.24.24-.41.01-.2-.08-.38-.24-.48Z"/>
    <path class="cls-4" d="M16.11,37.04v-.95c0-.08-.06-.14-.14-.14h-.05v1.01c.07.02.13.04.19.08Z"/>
    <path class="cls-2" d="M16.42,35.23h-.35c-.08,0-.14.06-.14.14v.06s0,.04-.01.06c-.01.02-.03.04-.05.06l-.33.22s-.06.07-.06.11v1.15c-.15.09-.26.23-.29.41l-.43,2.32c-.1.52.28,1,.8,1.04.13,0,.25,0,.36-.05.35-.13.6-.47.58-.87l-.09-1.94h.01c.08,0,.14-.06.14-.14v-2.42c0-.08-.06-.14-.14-.14ZM15.66,36.09c0-.08.06-.14.14-.14h.17c.08,0,.14.06.14.14v.95c-.06-.04-.12-.06-.19-.08-.03,0-.06-.01-.09-.01-.06,0-.11,0-.16.01v-.87ZM15.99,37.2s0,0-.01,0h-.17s-.09-.02-.11-.06c.04-.02.08-.03.13-.02.04,0,.07.01.1.03.03.01.05.03.07.05ZM15.57,37.5l.32.14s-.07.02-.11.02c-.11,0-.19-.07-.23-.16,0,0,.01,0,.02,0ZM16.15,40.02c-.01.17-.1.32-.24.41-.1.06-.21.1-.34.09-.3-.02-.52-.28-.5-.57.02-.3.28-.52.57-.5.1,0,.19.04.26.09.15.1.25.28.24.48Z"/>
    <path class="cls-3" d="M50.17,31.07h-3.04c-.6.34-1,.98-1,1.72v2.69s.03.04.05.06l.33.22s.06.07.06.11v1.15c.15.09.26.23.29.41l.43,2.32c.1.52-.28,1-.8,1.04-.13,0-.25,0-.36-.05v1.18h-.84v-9.13c0-.65.22-1.24.59-1.72h-1.07c-.95,0-1.72.77-1.72,1.72v12.27c0,.95.77,1.72,1.72,1.72h5.36c.95,0,1.72-.77,1.72-1.72v-12.27c0-.95-.77-1.72-1.72-1.72Z"/>
    <path class="cls-3" d="M46.39,39.45c-.1,0-.19.04-.26.09v.89c.1.06.21.1.34.09.3-.02.52-.28.5-.57-.02-.3-.28-.52-.57-.5Z"/>
    <path class="cls-3" d="M46.22,36.94c.06,0,.11,0,.16.01v-.87c0-.08-.06-.14-.14-.14h-.12v1.01s.06-.01.09-.01Z"/>
    <path class="cls-3" d="M46.27,37.66c.1,0,.19-.07.23-.16,0,0-.01,0-.02,0l-.32.14s.07.02.11.02Z"/>
    <path class="cls-3" d="M46.13,37.15v.05h.12s.09-.02.11-.06c-.04-.02-.08-.03-.13-.02-.04,0-.07.01-.1.03Z"/>
    <path class="cls-4" d="M45.94,36.09v.95c.06-.04.12-.06.19-.08v-1.01h-.05c-.08,0-.14.06-.14.14Z"/>
    <path class="cls-4" d="M45.29,41.92h.84v-1.18c-.35-.13-.6-.47-.58-.87l.09-1.94h-.01c-.08,0-.14-.06-.14-.14v-2.42c0-.08.06-.14.14-.14h.35c.08,0,.14.06.14.14v.06s0,.04.01.06v-2.69c0-.74.4-1.38,1-1.72h-1.25c-.37.48-.59,1.07-.59,1.72v9.13Z"/>
    <path class="cls-4" d="M45.89,40.02c.01.17.1.32.24.41v-.89c-.15.1-.25.28-.24.48Z"/>
    <path class="cls-4" d="M46.06,37.2s0,0,.01,0h.05v-.05s-.05.03-.07.05Z"/>
    <path class="cls-2" d="M50.17,29.71h-.87v-.35c1.11-.47,1.89-1.56,1.89-2.84v-3.73c0-1.7-1.38-3.08-3.08-3.08h-.2c-.42-1.24-.92-2.45-1.52-3.61-.06-1.04-.37-2.07-.88-2.98l-.32-.56c-.83-1.45-2.15-2.55-3.74-3.1l-2.73-.94c-.72-.25-1.47-.37-2.23-.37h-1.04c-.48-.59-1.71-1.89-3.22-1.89h-2.21c-1.51,0-2.74,1.3-3.22,1.89h-1.24c-.76,0-1.51.13-2.23.37l-2.73.94c-1.58.54-2.91,1.64-3.74,3.1l-.32.56c-.52.91-.82,1.94-.88,2.98-.59,1.17-1.1,2.37-1.52,3.61h-.2c-1.7,0-3.08,1.38-3.08,3.08v3.73c0,1.28.78,2.37,1.89,2.84v.35h-.87c-1.7,0-3.08,1.38-3.08,3.08v12.27c0,1.7,1.38,3.08,3.08,3.08h1.8l3.48,3.93h3.73l.7,1.47h.33c.36,1.3,1.56,2.25,2.97,2.25h12.27c1.41,0,2.6-.95,2.97-2.25h.33l.7-1.47h3.73l3.48-3.93h1.8c1.7,0,3.08-1.38,3.08-3.08v-12.27c0-1.7-1.38-3.08-3.08-3.08ZM46.66,21.53c.28-.26.63-.42,1.03-.45.05,0,.09,0,.14,0h.28c.95,0,1.72.77,1.72,1.72v3.73c0,.95-.77,1.72-1.72,1.72h-.28c-.95,0-1.72-.77-1.72-1.72v-3.73c0-.5.21-.95.55-1.26ZM30.02,7.62h2.21c.43,0,.87.22,1.26.51h-4.72c.38-.29.82-.51,1.26-.51ZM17.02,16.2c.05-.84.29-1.68.71-2.41l.32-.56c.66-1.17,1.73-2.05,3-2.48l2.73-.94c.58-.2,1.18-.3,1.79-.3h10.92c.61,0,1.21.1,1.79.3l2.73.94c1.27.44,2.33,1.32,3,2.48l.32.56c.45.79.7,1.69.72,2.61.02.82-.15,1.65-.49,2.39h0c-.89,1.96-2.86,3.22-5,3.22h-1.3c-.39,0-.79-.04-1.17-.13l-4.58-1c-.48-.11-.97-.16-1.46-.16s-.98.05-1.46.16l-4.58,1c-.38.08-.78.13-1.17.13h-1.3c-2.15,0-4.11-1.26-5-3.22-.33-.72-.5-1.49-.5-2.28,0-.11,0-.21,0-.31ZM12.22,26.52v-3.73c0-.95.77-1.72,1.72-1.72h.28s.09,0,.14,0c.4.03.75.2,1.03.45.34.31.55.76.55,1.26v3.73c0,.95-.77,1.72-1.72,1.72h-.28c-.95,0-1.72-.77-1.72-1.72ZM11.88,46.78c-.95,0-1.72-.77-1.72-1.72v-12.27c0-.95.77-1.72,1.72-1.72h5.36c.95,0,1.72.77,1.72,1.72v12.27c0,.95-.77,1.72-1.72,1.72h-5.36ZM38.88,52.71c0,.95-.77,1.72-1.72,1.72h-12.27c-.95,0-1.72-.77-1.72-1.72v-18.55c0-.95.77-1.72,1.72-1.72h1.36v.03c-.22.48.05,1.04.55,1.18.5.14,1.02-.18,1.11-.7l.08-.51h2.64v.03c-.22.48.05,1.04.56,1.18.5.14,1.02-.18,1.11-.7l.08-.51h4.77c.95,0,1.72.77,1.72,1.72v18.55ZM27.54,33.02c-.08.29-.38.45-.67.37-.29-.08-.45-.38-.37-.67.04-.12.11-.22.21-.29h.62c.18.13.27.36.21.59ZM27.48,30.3c.02-.07.06-.12.11-.15l-.12.28s0-.08,0-.13ZM27.92,30.51v-.17s.02-.08.05-.1c.04.06.06.14.03.22-.01.05-.04.08-.07.11,0-.02-.01-.04-.01-.06ZM28.21,30.2s0,0,0,0h.83c.08,0,.14.06.14.14v.17c0,.08-.06.14-.14.14h-.74v-.02c.03-.15,0-.3-.08-.42ZM31.93,33.02c-.08.29-.38.45-.67.37-.28-.08-.45-.38-.37-.67.04-.12.11-.22.21-.29h.62c.18.13.27.36.21.59ZM31.87,30.3c.02-.07.06-.12.11-.15l-.12.28s0-.08,0-.13ZM32.31,30.51v-.17s.02-.08.05-.1c.04.06.06.14.03.22-.01.05-.04.08-.07.11,0-.02-.01-.04-.01-.06ZM32.6,30.2s0,0,0,0h.83c.08,0,.14.06.14.14v.17c0,.08-.06.14-.14.14h-.74v-.02c.03-.15,0-.3-.08-.42ZM44.28,50.71h-3.98l-.06.13v-16.68c0-1.7-1.38-3.08-3.08-3.08h-2.94s.07-.07.07-.12v-.35c0-.08-.06-.14-.14-.14h-.06s-.09-.02-.11-.06l-.22-.33s-.07-.06-.11-.06h-1.23s-.1-.06-.16-.07c-.29-.08-.61.06-.72.35l-.33.78h-1.38s.07-.07.07-.12v-.35c0-.08-.06-.14-.14-.14h-.06s-.09-.02-.11-.06l-.22-.33s-.07-.06-.11-.06h-1.23s-.1-.06-.16-.07c-.29-.08-.61.06-.72.35l-.33.78h-1.92c-1.7,0-3.08,1.38-3.08,3.08v16.68l-.06-.13h-3.98l-2.27-2.57h1.74c1.5,0,2.76-1.08,3.03-2.51.03-.18.05-.37.05-.57v-12.27c0-1.7-1.38-3.08-3.08-3.08h-3.12v-.1h.11c1.25,0,2.34-.75,2.82-1.83.17-.38.27-.8.27-1.25v-3.73c0-1.25-.75-2.32-1.81-2.81.15-.45.32-.89.5-1.33.08.24.17.48.28.71,1.11,2.44,3.56,4.01,6.24,4.01h1.35c.49,0,.98-.05,1.46-.16l4.58-1c.38-.08.76-.13,1.15-.13.38,0,.77.04,1.15.13l4.58,1c.48.1.97.16,1.46.16h1.35c2.68,0,5.13-1.58,6.24-4.01.09-.21.18-.42.25-.64.17.42.33.84.47,1.27-1.07.48-1.81,1.56-1.81,2.81v3.73c0,.44.1.87.27,1.25.48,1.08,1.56,1.83,2.82,1.83h.11v.1h-3.12c-1.7,0-3.08,1.38-3.08,3.08v12.27c0,.19.02.38.05.57.27,1.43,1.52,2.51,3.03,2.51h1.74l-2.27,2.57ZM51.89,45.06c0,.95-.77,1.72-1.72,1.72h-5.36c-.95,0-1.72-.77-1.72-1.72v-12.27c0-.95.77-1.72,1.72-1.72h5.36c.95,0,1.72.77,1.72,1.72v12.27Z"/>
    <path class="cls-2" d="M47.29,39.75l-.43-2.32c-.03-.18-.14-.33-.29-.41v-1.15s-.02-.09-.06-.11l-.33-.22s-.04-.03-.05-.06c0-.02-.01-.04-.01-.06v-.06c0-.08-.06-.14-.14-.14h-.35c-.08,0-.14.06-.14.14v2.42c0,.08.06.14.14.14h.01l-.09,1.94c-.02.4.23.74.58.87.11.04.23.06.36.05.52-.04.9-.52.8-1.04ZM46.5,37.49c-.04.09-.12.16-.23.16-.04,0-.08,0-.11-.02l.32-.14s.01,0,.02,0ZM46.08,37.2s0,0-.01,0c.02-.02.04-.04.07-.05.03-.02.07-.03.1-.03.05,0,.09,0,.13.02-.03.04-.07.06-.11.06h-.17ZM45.94,36.09c0-.08.06-.14.14-.14h.17c.08,0,.14.06.14.14v.87c-.05-.01-.11-.02-.16-.01-.03,0-.06,0-.09.01-.07.02-.13.04-.19.08v-.95ZM46.47,40.52c-.12,0-.24-.03-.34-.09-.13-.09-.22-.24-.24-.41-.01-.2.08-.38.24-.48.08-.05.17-.08.26-.09.3-.02.55.2.57.5.02.3-.2.55-.5.57Z"/>
    <path class="cls-3" d="M48.1,21.07h-.28s-.09,0-.14,0c-.12.14-.19.32-.19.51v1.51s0,.02,0,.03v.58c.07.04.13.12.15.21l.22,1.16c.05.25-.12.48-.37.51v.57h-.84v-4.56s0-.04,0-.06c-.34.31-.55.76-.55,1.26v3.73c0,.95.77,1.72,1.72,1.72h.28c.95,0,1.72-.77,1.72-1.72v-3.73c0-.95-.77-1.72-1.72-1.72Z"/>
    <path class="cls-3" d="M47.49,24.92v.52c.13-.03.22-.15.21-.28,0-.12-.1-.22-.21-.24Z"/>
    <path class="cls-4" d="M46.65,26.15h.84v-.57s-.02,0-.03,0c-.26.02-.48-.2-.47-.46l.05-.97h0s-.07-.03-.07-.07v-1.21s.03-.07.07-.07h.18s.07.03.07.07v.03s.01.04.03.06l.16.11s.02.02.02.03v-1.51c0-.2.07-.38.19-.51-.4.03-.75.2-1.03.45,0,.02,0,.04,0,.06v4.56Z"/>
    <path class="cls-4" d="M47.33,23.67s.06,0,.08,0v-.43s-.03-.07-.07-.07h-.09s-.07.03-.07.07v.48s.09-.04.14-.05Z"/>
    <path class="cls-4" d="M47.25,23.79s0,0,0,0h.09s.04-.01.06-.03c-.02,0-.04-.01-.06-.01-.03,0-.06.02-.09.04Z"/>
    <path class="cls-4" d="M47.41,24.92c-.15.01-.26.14-.25.29.01.15.14.26.29.25.01,0,.03,0,.04,0v-.52s-.05,0-.08,0Z"/>
    <path class="cls-4" d="M47.35,24.02c.05,0,.1-.04.11-.08,0,0,0,0,0,0l-.16.07s.04,0,.06,0Z"/>
    <path class="cls-2" d="M47.86,25.07l-.22-1.16c-.02-.09-.07-.16-.15-.2v-.58s0-.02,0-.03c0,0-.01-.02-.02-.03l-.16-.11s-.03-.03-.03-.06v-.03s-.03-.07-.07-.07h-.18s-.07.03-.07.07v1.21s.03.07.07.07h0l-.05.97c-.01.26.21.48.47.46.01,0,.02,0,.03,0,.25-.03.42-.27.37-.51ZM47.47,23.94s-.06.08-.11.08c-.02,0-.04,0-.06,0l.16-.07s0,0,0,0ZM47.26,23.8s0,0,0,0c.02-.02.05-.04.09-.04.02,0,.04,0,.06.01-.01.02-.03.03-.06.03h-.09ZM47.19,23.24s.03-.07.07-.07h.09s.07.03.07.07v.43s-.05,0-.08,0c-.05,0-.1.02-.14.05v-.48ZM47.49,25.45s-.03,0-.04,0c-.15.01-.28-.1-.29-.25-.01-.15.1-.28.25-.29.03,0,.05,0,.08,0,.11.03.2.12.21.24,0,.13-.08.25-.21.28Z"/>
    <path class="cls-3" d="M12.22,26.52c0,.95.77,1.72,1.72,1.72h.28c.95,0,1.72-.77,1.72-1.72v-3.73c0-.5-.21-.95-.55-1.26,0,.02,0,.04,0,.06v4.56h-.84v-.57c-.25-.03-.42-.27-.37-.51l.22-1.16c.02-.09.07-.16.15-.21v-.58s0-.02,0-.03v-1.51c0-.2-.07-.38-.19-.51-.05,0-.09,0-.14,0h-.28c-.95,0-1.72.77-1.72,1.72v3.73Z"/>
    <path class="cls-3" d="M14.35,25.17c0,.13.08.25.21.28v-.52c-.11.03-.2.12-.21.24Z"/>
    <path class="cls-4" d="M14.65,23.77s.03.03.06.03h.09s0,0,0,0c-.02-.02-.05-.04-.09-.04-.02,0-.04,0-.06.01Z"/>
    <path class="cls-4" d="M14.64,23.67s.05,0,.08,0c.05,0,.1.02.14.05v-.48s-.03-.07-.07-.07h-.09s-.07.03-.07.07v.43Z"/>
    <path class="cls-4" d="M14.55,21.59v1.51s.01-.02.02-.03l.16-.11s.03-.03.03-.06v-.03s.03-.07.07-.07h.18s.07.03.07.07v1.21s-.03.07-.07.07h0l.05.97c.01.26-.21.48-.47.46-.01,0-.02,0-.03,0v.57h.84v-4.56s0-.04,0-.06c-.28-.26-.63-.42-1.03-.45.12.14.19.32.19.51Z"/>
    <path class="cls-4" d="M14.69,24.02s.04,0,.06,0l-.16-.07s0,0,0,0c.02.05.06.08.11.08Z"/>
    <path class="cls-4" d="M14.88,25.2c.01-.15-.1-.28-.25-.29-.03,0-.05,0-.08,0v.52s.03,0,.04,0c.15.01.28-.1.29-.25Z"/>
    <path class="cls-2" d="M15.02,22.81h-.18s-.07.03-.07.07v.03s-.01.04-.03.06l-.16.11s-.02.02-.02.03c0,0,0,.02,0,.03v.58c-.07.04-.13.12-.15.2l-.22,1.16c-.05.25.12.48.37.51.01,0,.02,0,.03,0,.26.02.48-.2.47-.46l-.05-.97h0s.07-.03.07-.07v-1.21s-.03-.07-.07-.07ZM14.64,23.24s.03-.07.07-.07h.09s.07.03.07.07v.48s-.09-.04-.14-.05c-.03,0-.06,0-.08,0v-.43ZM14.8,23.79s0,0,0,0h-.09s-.04-.01-.05-.03c.02,0,.04-.01.06-.01.03,0,.06.02.09.04ZM14.59,23.95l.16.07s-.04,0-.06,0c-.05,0-.1-.04-.11-.08,0,0,0,0,0,0ZM14.6,25.45s-.03,0-.04,0c-.13-.03-.22-.15-.21-.28,0-.12.1-.22.21-.24.03,0,.05,0,.08,0,.15.01.26.14.25.29,0,.15-.14.26-.29.25Z"/>
    <path class="cls-2" d="M42.2,29.15c-.27.24-.67.19-.98.16.1.02.54.11.42.51-.2.23-1.13.12-1.46.12-.45-.05-.94.07-1.37-.08-.3-.15-.07-.39.15-.49,0,0,0,0,0,0-.36.04-.62-.01-.77-.15-.02.06-.03.12-.04.18-.06.45-.02.88.01,1.32.02.22.18.38.4.42.93.08,1.86.08,2.79.09.37,0,.75-.11.78-.53.07-.51.1-1.03.06-1.55ZM41.18,30.86c-.31-.05-2.65.12-2.53-.21.18-.28,2.2-.07,2.66-.09.58.08.25.33-.13.3Z"/>
    <path class="cls-2" d="M38.35,27.21c.04-.06.09-.11.12-.16.19-.34.12-.89,0-1.25-.14.17-.23.39-.23.64-.09.34-.06.62,0,.91.03-.05.07-.09.1-.13Z"/>
    <path class="cls-2" d="M41.78,26.67h0c0,.3.09.39.25.58.04.04.08.09.13.15h0s.02.03.03.05c.04-.13.06-.26.04-.39-.03-.52-.05-1.07-.4-1.39-.11.28-.1.59-.06,1Z"/>
    <path class="cls-2" d="M42.06,27.77c-.03-.07-.06-.14-.11-.2-.04-.05-.08-.1-.12-.14-.18-.2-.31-.35-.32-.74-.06-.64-.06-1.12.41-1.61.17-.22.21-.67.15-.95-.02-.07-.07-.17-.39-.2-.46-.03-.94-.02-1.4,0-.38,0-.78.02-1.17,0-.17,0-.71.04-.71.04h-.03s0,0,0,0c-.06.06-.08.18-.09.29-.04.32-.06.58.08.81.04.07.09.13.14.19.1.13.2.27.26.45.14.44.2,1.06-.03,1.48h0c-.04.07-.09.14-.14.2-.06.08-.13.16-.17.24h0s-.04.1-.06.15c-.11.35-.12.98.01,1.19.07.12.28.17.6.13.11-.01.22-.04.33-.06h.05c.57-.15,1.19-.14,1.9,0h.01c.27.03.61.07.8-.1.05-.06.07-.14.08-.26,0-.03,0-.06,0-.08.02-.29.04-.57-.06-.82ZM41.38,24.74h-.01s0,0,0,0c-.08.04-.59.1-1.33.1-.8,0-1.21-.07-1.31-.11,0-.03,0-.08.04-.11.03-.03.08-.04.15-.05.08-.01.18-.01.27-.02h.01c.22,0,.44,0,.66,0,.46,0,.94-.01,1.41,0,.14.01.21.07.23.09,0,0-.03.04-.11.08Z"/>
    <path class="cls-2" d="M23.87,29.17c-.27.24-.67.19-.98.16.1.02.54.11.42.51-.2.23-1.13.12-1.46.12-.45-.05-.94.07-1.37-.08-.3-.15-.07-.39.15-.49,0,0,0,0,0,0-.36.04-.62-.01-.77-.15-.02.06-.03.12-.04.18-.06.45-.02.88.01,1.32.02.22.18.38.4.42.93.08,1.86.08,2.79.09.37,0,.75-.11.78-.53.07-.51.1-1.03.06-1.55ZM22.85,30.87c-.31-.05-2.65.12-2.53-.21.18-.28,2.2-.07,2.66-.09.58.08.25.33-.13.3Z"/>
    <path class="cls-2" d="M20.02,27.22c.04-.06.09-.11.12-.16.19-.34.12-.89,0-1.25-.14.17-.23.39-.23.64-.09.34-.06.62,0,.91.03-.05.07-.09.1-.13Z"/>
    <path class="cls-2" d="M23.46,26.68h0c0,.3.09.39.25.58.04.04.08.09.13.15h0s.02.03.03.05c.04-.13.06-.26.04-.39-.03-.52-.05-1.07-.4-1.39-.11.28-.1.59-.06,1Z"/>
    <path class="cls-2" d="M23.73,27.77c-.03-.06-.06-.13-.1-.19-.04-.05-.08-.1-.12-.14-.18-.2-.31-.35-.32-.74-.06-.64-.06-1.12.41-1.61.17-.22.21-.67.15-.95-.02-.07-.07-.17-.39-.2-.46-.03-.94-.02-1.4,0-.38,0-.78.02-1.17,0-.17,0-.71.04-.71.04h-.03s0,0,0,0c-.06.06-.08.18-.09.29-.04.32-.06.58.08.81.04.07.09.13.14.19.1.13.2.27.26.45.14.44.2,1.06-.03,1.48h0c-.04.07-.09.14-.14.2-.06.08-.13.16-.17.24h0s-.04.09-.06.14c-.12.35-.12.99,0,1.21.07.12.28.17.6.13.11-.01.22-.04.33-.06h.05c.57-.15,1.19-.14,1.9,0h.01c.27.03.61.07.8-.1.05-.06.07-.14.08-.26,0-.03,0-.06,0-.08.02-.3.04-.58-.06-.83ZM23.05,24.75h-.01s0,0,0,0c-.08.04-.59.1-1.33.1-.8,0-1.21-.07-1.31-.11,0-.03,0-.08.04-.11.03-.03.08-.04.15-.05.08-.01.18-.01.27-.02h.01c.22,0,.44,0,.66,0,.46,0,.94-.01,1.41,0,.14.01.21.07.23.09,0,0-.03.04-.11.08Z"/>
    <rect class="cls-4" x="24.87" y="12.06" width="12.31" height="2.32"/>
    <rect class="cls-4" x="24.87" y="15.61" width="12.31" height="3.99"/>
    <path class="cls-4" d="M36.55,51.14v-3.36c-.52.55-1.12.99-1.79,1.31l.13.15-.24.21-.19-.22c-1.63.68-3.54.65-5.21-.25-2.95-1.58-4.06-5.27-2.48-8.22.45-.84,1.07-1.53,1.79-2.05h-3.07v.21l.22-.19.83.96-.24.21-.82-.94v12.18l.82-.94.24.21-.83.96-.22-.19v.21h11.06v-.21l-.22.19-.84-.96.24-.21.82.94ZM27.38,49.45l-.24-.21.84-.96.24.21-.83.96Z"/>
    <path class="cls-4" d="M36.55,39.49v-.53l-.25.28c.08.08.17.16.25.25Z"/>
    <path class="cls-4" d="M36.33,38.73l.22.19v-.21h-.87c.14.1.27.2.39.31l.26-.29Z"/>
    <path class="cls-3" d="M34.66,49.45l.24-.21-.13-.15c-.1.05-.2.09-.3.13l.19.22Z"/>
    <rect class="cls-3" x="27.05" y="48.71" width="1.27" height=".31" transform="translate(-27.33 37.55) rotate(-48.84)"/>
    <path class="cls-2" d="M36.55,39.49c-.08-.08-.16-.17-.25-.25-.08-.07-.15-.14-.23-.21-.13-.11-.26-.21-.39-.31-.22-.16-.45-.3-.69-.43-2.11-1.13-4.6-.88-6.43.43-.72.52-1.34,1.21-1.79,2.05-1.58,2.95-.47,6.63,2.48,8.22,1.67.9,3.58.93,5.21.25.1-.04.2-.09.3-.14.66-.32,1.27-.76,1.79-1.31.35-.38.66-.8.92-1.28,1.26-2.35.81-5.17-.92-7.02ZM36.6,46.68c-1.1-.59-2.2-1.18-3.3-1.77,0,0,0,0,0,0,.66,1.06,1.32,2.12,1.97,3.18-.24.17-.48.33-.75.46-.36-.58-.72-1.16-1.07-1.73,0,0,0,0,0,0,.2.65.39,1.3.59,1.96-.18.06-.35.12-.53.17-.1.03-.21.05-.31.08,0,0,0,0,0,0,0-.01,0-.02,0-.03-.47-1.56-.94-3.12-1.41-4.68,0,0,0-.02,0-.03-.02,0-.02,0-.03,0-1.57.47-3.13.94-4.7,1.42,0,0-.01,0-.02,0,0,0,0,0,0,0-.01-.04-.03-.08-.04-.12-.08-.23-.15-.46-.21-.7,0,0,0,0,0-.01.65-.2,1.3-.39,1.95-.59,0,0,0,0,0,0-.68.02-1.36.04-2.04.06-.03-.29-.04-.58-.03-.88,1.25-.04,2.5-.08,3.75-.12h0c-1.1-.59-2.2-1.18-3.3-1.78,0-.02.02-.04.03-.06.03-.06.06-.13.09-.2,0,0,0-.01,0-.02.04-.08.08-.15.12-.23,0,0,.01-.01.02-.02.04-.06.07-.12.11-.19.01-.02.02-.04.04-.06,1.22.66,2.44,1.31,3.66,1.97.76-1.42,1.52-2.84,2.28-4.26,0,0,.02,0,.02,0,.29.08.57.18.84.31.16.08.32.16.47.25.14.08.27.16.39.25.15.11.29.23.43.34.02.02.02.03,0,.06-.75,1.4-1.5,2.79-2.25,4.19,0,.01-.01.02-.02.04,1.22.65,2.44,1.31,3.65,1.96-.12.27-.26.52-.41.77Z"/>
    <path class="cls-3" d="M31.18,42.78c-1.22-.66-2.44-1.31-3.66-1.97-.01.02-.03.04-.04.06-.04.06-.07.12-.11.19,0,0,0,.01-.02.02-.04.08-.08.15-.12.23,0,0,0,.02,0,.02-.03.07-.06.13-.09.2,0,.02-.02.04-.03.06,1.1.59,2.2,1.18,3.3,1.77h0c-1.25.04-2.5.08-3.74.12-.01.3,0,.59.03.88.68-.02,1.36-.04,2.04-.06,0,0,0,0,0,0-.65.2-1.3.39-1.95.59,0,0,0,0,0,.01.06.24.12.47.21.7.02.04.03.08.04.12,0,0,0,0,0,0,0,0,.01,0,.02,0,1.57-.47,3.13-.94,4.7-1.42,0,0,.02,0,.03,0,0,.01,0,.02,0,.03.47,1.56.94,3.12,1.41,4.68,0,0,0,.02,0,.03,0,0,0,0,0,0,.1-.03.21-.05.31-.08.18-.05.35-.11.53-.17-.2-.66-.39-1.31-.59-1.96,0,0,0,0,0,0,.36.58.72,1.15,1.07,1.73.26-.13.51-.29.75-.46-.66-1.06-1.32-2.12-1.97-3.18,0,0,0,0,0,0,1.1.59,2.2,1.18,3.3,1.77.16-.25.3-.5.41-.77-1.22-.65-2.43-1.31-3.65-1.96,0-.01.01-.02.02-.04.75-1.4,1.5-2.79,2.25-4.19.01-.03.01-.04-.01-.06-.14-.11-.29-.23-.43-.34-.13-.09-.26-.18-.39-.25-.15-.09-.31-.17-.47-.25-.27-.13-.55-.23-.84-.31,0,0-.01,0-.02,0-.76,1.42-1.52,2.84-2.28,4.26Z"/>
  </g>
</svg>