<?xml version="1.0" encoding="UTF-8"?>
<svg width="452.77" height="169.95" id="Layer_1" data-name="Layer 1" xmlns="http://www.w3.org/2000/svg" viewBox="0 0 452.77 169.95">
  <defs>
    <style>
      .cls-1 {
        fill: #000;
      }

      .cls-1, .cls-2, .cls-3 {
        stroke-width: 0px;
      }

      .cls-4 {
        opacity: .5;
      }

      .cls-2 {
        fill: #ffbd00;
      }

      .cls-3 {
        fill: #fff;
      }
    </style>
  </defs>
  <path class="cls-1" d="M362.35,168.41v-4.74c0-.8-.62-1.47-1.42-1.53l-5.99-.44c-.92-.07-1.82-.19-2.68-.35l-.75-.15h-38.36c-.85,0-1.53-.69-1.53-1.53h0c0-1.03-1-1.77-1.98-1.46l-8.39,2.6c-2.07.64-4.34.97-6.73.97-1.54,0-3.06-.14-4.51-.43l-.76-.15h-53.66l-.8.17c-1.32.27-2.7.41-4.1.41s-2.78-.14-4.07-.41l-.39-.08-.36-.09c-.93-.24-1.86-.56-2.77-.98l-2.37-1.07c-.36-.16-.77-.18-1.14-.05l-2.45.87c-2.33.82-5.02,1.24-7.99,1.24h-20.05c-.85,0-1.53-.69-1.53-1.53v-1.86c0-1.07-1.07-1.81-2.07-1.43l-8.77,3.33c-2.6.99-5.56,1.49-8.8,1.49h-45.4c-.85,0-1.53-.69-1.53-1.53v-8.92c0-1.44.12-2.84.35-4.14l.13-.7v-15.99c0-4.09,1.11-7.8,3.22-10.72l5.24-7.28c.61-.85.21-2.04-.78-2.36l-8.56-2.68c-.42-.13-.83-.27-1.24-.42l-8.66-3.12c-1-.36-2.05.38-2.05,1.44v.66c0,.85-.69,1.53-1.53,1.53h-23.91c-.85,0-1.53-.69-1.53-1.53v-1.11c0-1.06-1.05-1.8-2.05-1.44l-8.65,3.09c-4.62,1.65-10.07,2.48-16.21,2.48s-11.96-.83-16.65-2.45l-8.59-2.99c-.99-.35-2.03.39-2.03,1.45v.97c0,.85-.69,1.53-1.53,1.53H2.03c-.85,0-1.53-.69-1.53-1.53V31.08h-.5V4.4c0-.85.69-1.53,1.53-1.53h24.9c.85,0,1.53.69,1.53,1.53v25.22c0,1.07,1.07,1.81,2.07,1.43l8.75-3.3c4.51-1.7,9.84-2.57,15.83-2.57s11.58.9,16.11,2.67l8.82,3.45c1,.39,2.09-.35,2.09-1.43V1.53c0-.85.69-1.53,1.53-1.53h23.91c.85,0,1.53.69,1.53,1.53v30.2c0,1.12,1.17,1.86,2.18,1.38l9.23-4.35c5.04-2.38,11.09-3.58,17.98-3.58,7.26,0,13.51,1.33,18.58,3.96l9.44,4.89c1.02.53,2.23-.21,2.23-1.36v-4.47c0-.85.69-1.53,1.53-1.53h26.95c.14,0,.27-.02.41-.05l.84-.23c2.93-.8,6.1-1.21,9.44-1.21,4.84,0,13.95,1.04,20.51,7.99l4.53,4.81c.59.62,1.58.64,2.19.04l4.71-4.63c5.46-5.37,13.12-8.21,22.15-8.21,1.26,0,2.51.06,3.72.17l7.06.64c.9.08,1.67-.62,1.67-1.52V1.53c0-.85.69-1.53,1.53-1.53h23.91c.85,0,1.53.69,1.53,1.53v23.61c0,.85.69,1.53,1.53,1.53h23.91c.13,0,.26-.02.39-.05l.8-.21c2.5-.65,5.23-.99,8.12-.99h20.88c.85,0,1.53-.69,1.53-1.53V4.4c0-.85.69-1.53,1.53-1.53h24.9c.85,0,1.53.69,1.53,1.53v28.37c0,1.15,1.21,1.88,2.23,1.36l9.43-4.84c5.3-2.72,11.65-4.1,18.86-4.1,22.75,0,35.8,13.27,35.8,36.42v10.47c0,15.71-6.38,27.37-17.95,32.81l-20.23,9.51c-1.39.65-1.06,2.71.46,2.9l22.18,2.76c7.33.91,12.67,5.3,14.67,12.03l1.21,4.08c.05.17.07.35.06.53l-.4,6.29s0,.06,0,.1v6.88h-.1l-2.32,3.95c-2.93,4.99-8.67,7.86-15.75,7.86-1.54,0-3.06-.14-4.51-.43l-.76-.15h-26.3l-.8.17c-1.32.27-2.7.41-4.11.41s-2.78-.14-4.07-.41l-.81-.17h-5.08c-.49,0-.94.23-1.23.62l-1.94,2.63c-2.73,3.69-6.56,5.49-11.73,5.49h-8.97c-.85,0-1.53-.69-1.53-1.53Z"/>
  <g class="cls-4">
    <path class="cls-3" d="M141.92,140.92c7.25-3.26,9.98-6.43,9.98-11.62,0-5.71-3.74-9.31-10.85-9.31s-11.19,3.5-11.19,9.94v1.1h4.13v-.67c0-4.37,2.45-6.53,7.01-6.53s6.67,2.16,6.67,5.57-2.02,5.57-7.78,8.21c-7.63,3.5-10.51,7.1-10.51,13.15v2.45h22.42v-3.98h-18.24c.19-3.5,2.35-5.62,8.35-8.3Z"/>
  </g>
  <g class="cls-4">
    <path class="cls-3" d="M168.32,120.57h-11.23v32.64h11.23c8.54,0,12.38-3.98,12.38-12.67v-7.3c0-8.69-3.84-12.67-12.38-12.67ZM176.38,140.49c0,6.29-2.45,8.79-8.59,8.79h-6.38v-24.77h6.38c6.14,0,8.59,2.5,8.59,8.79v7.2Z"/>
  </g>
  <g class="cls-4">
    <path class="cls-3" d="M214.69,136.17v-.1c2.98-1.1,4.27-3.41,4.27-7.06,0-5.81-3.36-8.45-10.37-8.45h-12.62v32.64h13.58c7.2,0,10.51-2.88,10.51-9.03,0-4.32-1.63-6.86-5.38-8.02ZM200.29,124.5h7.97c4.56,0,6.43,1.44,6.43,5.09s-1.82,4.99-6.38,4.99h-8.02v-10.08ZM208.93,149.27h-8.64v-10.75h8.11c5.33,0,7.34,1.49,7.34,5.38s-1.92,5.38-6.82,5.38Z"/>
  </g>
  <g class="cls-4">
    <path class="cls-3" d="M233.55,127.86c-6.19,0-9.55,2.74-9.98,8.11h4.13c.14-3.02,2.21-4.46,5.71-4.46,3.84,0,5.62,1.78,5.62,5.62v1.34h-5.95c-6.96,0-10.22,2.78-10.22,7.73s3.17,7.58,8.26,7.58c3.6,0,6.38-1.39,8.4-3.94l.14,3.36h3.6v-16.18c0-6.14-3.17-9.17-9.7-9.17ZM239.02,145.48c-1.49,3.02-3.98,4.66-7.3,4.66-3.12,0-4.66-1.44-4.66-4.03,0-2.78,1.82-4.13,6.14-4.13h5.81v3.5Z"/>
  </g>
  <g class="cls-4">
    <path class="cls-3" d="M266.81,145.53v-13.63h6.1v-3.46h-6.1v-6.53h-3.79l-.34,6.53h-9.6v-6.53h-3.79l-.34,6.53h-4.37v3.46h4.27v13.59c0,5.42,2.02,7.73,6.77,7.73h3.84v-3.65h-2.83c-2.83,0-3.55-.82-3.55-4.03v-13.63h9.5v13.59c0,5.42,2.02,7.73,6.77,7.73h3.84v-3.65h-2.83c-2.83,0-3.55-.82-3.55-4.03Z"/>
  </g>
  <g class="cls-4">
    <rect class="cls-3" x="275.64" y="118.17" width="4.22" height="35.04"/>
  </g>
  <g class="cls-4">
    <path class="cls-3" d="M294.65,127.86c-6.77,0-10.47,3.7-10.47,10.51v4.9c0,6.82,3.79,10.51,10.75,10.51,5.95,0,9.65-2.69,9.99-7.97h-4.08c-.29,2.69-2.26,4.32-6,4.32-4.42,0-6.43-2.21-6.43-7.06v-1.1h16.71v-3.6c0-6.82-3.7-10.51-10.46-10.51ZM288.41,138.47c0-4.75,1.97-6.96,6.34-6.96s6.29,2.21,6.29,6.96h-12.62Z"/>
  </g>
  <g class="cls-4">
    <path class="cls-3" d="M343.09,130.26c0-6.86-3.07-9.7-10.51-9.7h-12.53v32.64h4.32v-13.25h7.15l7.78,13.25h4.99l-7.97-13.54c4.75-.91,6.77-3.84,6.77-9.41ZM324.36,136.02v-11.52h7.82c4.9,0,6.58,1.58,6.58,5.76s-1.68,5.76-6.58,5.76h-7.82Z"/>
  </g>
  <g class="cls-4">
    <path class="cls-3" d="M357.29,127.86c-7.01,0-10.7,3.74-10.7,10.95v4.03c0,7.2,3.7,10.95,10.7,10.95s10.71-3.75,10.71-10.95v-4.03c0-7.2-3.7-10.95-10.71-10.95ZM363.77,142.7c0,4.99-2.11,7.39-6.48,7.39s-6.48-2.4-6.48-7.39v-3.79c0-4.99,2.11-7.34,6.48-7.34s6.48,2.35,6.48,7.34v3.79Z"/>
  </g>
  <g class="cls-4">
    <path class="cls-3" d="M385.71,128.44l-6.1,18.29-6.58-18.29h-4.51l8.93,23.81-1.15,3.46c-.67,2.02-1.49,2.59-3.41,2.59h-2.11v3.65h2.5c3.79,0,5.52-1.39,7.06-5.76l9.7-27.75h-4.32Z"/>
  </g>
  <g class="cls-4">
    <path class="cls-3" d="M400.59,127.86c-6.19,0-9.55,2.74-9.98,8.11h4.13c.14-3.02,2.21-4.46,5.71-4.46,3.84,0,5.62,1.78,5.62,5.62v1.34h-5.95c-6.96,0-10.22,2.78-10.22,7.73s3.17,7.58,8.26,7.58c3.6,0,6.38-1.39,8.4-3.94l.14,3.36h3.6v-16.18c0-6.14-3.17-9.17-9.7-9.17ZM406.06,145.48c-1.49,3.02-3.98,4.66-7.3,4.66-3.12,0-4.66-1.44-4.66-4.03,0-2.78,1.82-4.13,6.14-4.13h5.81v3.5Z"/>
  </g>
  <g class="cls-4">
    <rect class="cls-3" x="415.32" y="118.17" width="4.22" height="35.04"/>
  </g>
  <g class="cls-4">
    <path class="cls-3" d="M444.8,141.98v-3.6c0-6.82-3.7-10.51-10.46-10.51s-10.46,3.7-10.46,10.51v4.9c0,6.82,3.79,10.51,10.75,10.51,5.95,0,9.65-2.69,9.99-7.97h-4.08c-.29,2.69-2.26,4.32-6,4.32-4.42,0-6.43-2.21-6.43-7.06v-1.1h16.71ZM434.43,131.51c4.32,0,6.29,2.21,6.29,6.96h-12.62c0-4.75,1.97-6.96,6.34-6.96Z"/>
  </g>
  <path class="cls-3" d="M8.43,10.87h11.97v12.22h-11.97v-12.22ZM8.93,34.67h10.97v64.32h-10.97V34.67Z"/>
  <path class="cls-3" d="M28.75,80.05h10.47c0,7.35,5.24,11.09,15.96,11.09,9.97,0,14.96-3.37,14.96-9.47s-4.36-9.1-16.83-10.59c-16.83-2-23.06-6.98-23.06-18.45,0-12.46,8.85-19.45,24.81-19.45s24.43,6.86,24.43,19.82h-10.72c0-6.86-4.61-10.47-13.84-10.47s-13.96,3.37-13.96,9.22,4.36,8.23,16.2,9.47c17.2,1.87,23.68,7.35,23.68,19.57,0,12.96-8.73,19.7-25.68,19.7s-26.43-6.86-26.43-20.44Z"/>
  <path class="cls-3" d="M90.07,8h10.97v90.99h-10.97V8Z"/>
  <path class="cls-3" d="M163.61,56.99v42.01h-9.35l-.37-8.73c-5.24,6.61-12.46,10.22-21.81,10.22-13.21,0-21.44-7.11-21.44-19.7s8.48-20.07,26.55-20.07h15.46v-3.49c0-9.97-4.61-14.58-14.58-14.58-9.1,0-14.46,3.74-14.83,11.59h-10.72c1.12-13.96,9.85-21.07,25.93-21.07,16.95,0,25.18,7.85,25.18,23.81ZM152.64,78.93v-9.1h-15.08c-11.22,0-15.96,3.49-15.96,10.72,0,6.73,3.99,10.47,12.09,10.47,8.6,0,15.08-4.24,18.95-12.09Z"/>
  <path class="cls-3" d="M228.05,56.74v42.26h-10.97v-41.26c0-10.1-3.74-14.46-11.34-14.46s-13.46,4.49-18.07,13.96v41.76h-10.97V34.67h9.35l.37,10.1c5.61-7.98,12.46-11.59,21.44-11.59,13.46,0,20.19,8.1,20.19,23.56Z"/>
  <path class="cls-3" d="M293.36,8v90.99h-9.35l-.37-10.22c-5.48,8.1-12.34,11.72-21.69,11.72-14.96,0-23.68-9.22-23.68-26.8v-13.71c0-17.58,8.73-26.8,23.68-26.8,8.6,0,15.21,3.12,20.44,9.97V8h10.97ZM282.39,76.31v-18.95c-4.24-9.22-10.84-14.58-19.07-14.58-8.85,0-14.08,6.11-14.08,17.58v12.96c0,11.47,5.24,17.58,14.08,17.58,8.23,0,14.83-5.36,19.07-14.58Z"/>
  <path class="cls-3" d="M340.47,33.43v10.84h-3.24c-10.47,0-16.33,5.36-18.45,17.7v37.02h-10.97V34.67h9.35l.5,11.97c3.24-9.1,9.1-13.21,18.45-13.21h4.36Z"/>
  <path class="cls-2" d="M339.22,86.28h12.71v12.71h-12.71v-12.71Z"/>
  <path class="cls-2" d="M366.52,10.87h11.97v12.22h-11.97v-12.22ZM367.02,34.67h10.97v64.32h-10.97V34.67Z"/>
  <path class="cls-2" d="M389.2,72.07v-10.47c0-18.7,9.6-28.42,27.8-28.42s27.8,9.72,27.8,28.42v10.47c0,18.7-9.6,28.42-27.8,28.42s-27.8-9.72-27.8-28.42ZM433.83,71.7v-9.85c0-12.96-5.49-19.07-16.83-19.07s-16.83,6.11-16.83,19.07v9.85c0,12.96,5.48,19.2,16.83,19.2s16.83-6.23,16.83-19.2Z"/>
</svg>