<?xml version="1.0" encoding="UTF-8"?>
<svg id="Layer_2" data-name="Layer 2" xmlns="http://www.w3.org/2000/svg" viewBox="0 0 64.36 53.63">
  <defs>
    <style>
      .cls-1 {
        fill: #000;
      }

      .cls-1, .cls-2, .cls-3, .cls-4 {
        stroke-width: 0px;
      }

      .cls-2 {
        fill: #705328;
      }

      .cls-3 {
        fill: #483415;
      }

      .cls-4 {
        fill: #221f1f;
      }
    </style>
  </defs>
  <g>
    <rect class="cls-3" x="47.33" y="9.31" width="14.03" height="19.65" transform="translate(108.7 38.27) rotate(-180)"/>
    <rect class="cls-3" x="3" y="9.31" width="14.03" height="19.65" transform="translate(20.03 38.27) rotate(-180)"/>
    <rect class="cls-2" x="8.92" y="3" width="46.3" height="47.63" rx="17.1" ry="17.1" transform="translate(64.14 53.63) rotate(-180)"/>
    <g>
      <path class="cls-4" d="M30.12,6.35c-.03-.41.23-.76.64-.79h.14l.39-.03c.87-.04,1.73-.05,2.58-.02.41.01.73.36.72.77-.01.42-.36.74-.78.73-.79-.03-1.62-.02-2.44.02l-.4.03c-.42.02-.83-.3-.85-.71Z"/>
      <path class="cls-4" d="M22.91,7.05c.93-.34,1.91-.62,2.9-.84.04-.01.08-.02.12-.02.36-.02.69.22.77.59.09.4-.16.8-.56.89-.93.21-1.85.48-2.72.79-.39.15-.82-.06-.96-.45-.14-.39.06-.82.45-.96Z"/>
      <path class="cls-4" d="M37.94,6.72c.07-.33.36-.55.68-.57.07-.01.15,0,.22.02.99.23,1.96.54,2.89.9.38.15.57.58.42.97-.15.38-.58.57-.97.42-.86-.33-1.77-.61-2.69-.83-.4-.1-.65-.5-.55-.91Z"/>
      <path class="cls-4" d="M15.99,11.13c.75-.67,1.56-1.29,2.41-1.84.11-.08.24-.12.37-.12.26-.02.51.1.67.34.22.34.13.81-.22,1.03-.79.52-1.54,1.09-2.24,1.71-.31.28-.78.25-1.05-.06-.28-.31-.25-.79.06-1.06Z"/>
      <path class="cls-4" d="M45.13,9.63c.14-.2.35-.31.57-.32.17-.01.33.04.47.14.83.58,1.61,1.23,2.35,1.93.3.28.31.76.02,1.06s-.76.31-1.06.02c-.68-.65-1.41-1.25-2.17-1.79-.34-.24-.42-.7-.18-1.04Z"/>
      <path class="cls-4" d="M11.14,17.54c.44-.91.96-1.79,1.52-2.62.14-.2.35-.31.58-.32.16,0,.32.03.46.13.34.23.43.7.2,1.04-.52.77-1,1.59-1.42,2.43-.18.38-.63.53-1,.35-.37-.19-.52-.63-.34-1.01Z"/>
      <path class="cls-4" d="M50.68,15.05c.11-.07.24-.11.36-.12.26-.01.52.11.67.35.54.84,1.03,1.73,1.45,2.66.18.37.01.82-.36.99-.38.18-.83.01-1-.37-.4-.86-.85-1.69-1.35-2.47-.22-.35-.12-.82.23-1.04Z"/>
    </g>
  </g>
  <path class="cls-1" d="M38.12,3c5.35,0,10.12,2.46,13.26,6.31h9.98v19.65h-6.14v4.57c0,9.44-7.66,17.1-17.1,17.1h-12.09c-9.44,0-17.1-7.66-17.1-17.1v-4.57H3V9.31h9.76c3.14-3.85,7.91-6.31,13.26-6.31h12.09M38.12,0h-12.09c-5.57,0-10.82,2.28-14.62,6.31H0v25.65h5.92v1.57c0,11.08,9.02,20.1,20.1,20.1h12.09c11.08,0,20.1-9.02,20.1-20.1v-1.57h6.14V6.31h-11.63c-3.79-4.03-9.04-6.31-14.62-6.31h0Z"/>
</svg>