<?xml version="1.0" encoding="UTF-8"?>
<svg width="72.58" height="57.91" id="Layer_2" data-name="Layer 2" xmlns="http://www.w3.org/2000/svg" viewBox="0 0 72.58 57.91">
  <defs>
    <style>
      .cls-1 {
        fill: #000;
      }

      .cls-1, .cls-2, .cls-3, .cls-4, .cls-5 {
        stroke-width: 0px;
      }

      .cls-2 {
        fill: #705328;
      }

      .cls-3 {
        fill: #483415;
      }

      .cls-4 {
        fill: #221f1f;
      }

      .cls-5, .cls-6 {
        fill: #b4905f;
      }

      .cls-6 {
        stroke: #483415;
        stroke-miterlimit: 10;
        stroke-width: 2px;
      }
    </style>
  </defs>
  <g>
    <rect class="cls-3" x="3" y="13.59" width="66.58" height="19.65"/>
    <rect class="cls-2" x="8.81" y="3" width="54.73" height="51.91" rx="17.04" ry="17.04" transform="translate(72.36 57.91) rotate(180)"/>
    <path class="cls-5" d="M10.09,30.64c0-12.9,11.68-23.36,26.08-23.36,14.41,0,26.08,10.46,26.08,23.36,0,12.9-11.68,23.36-26.08,23.36-14.41,0-26.08-10.46-26.08-23.36Z"/>
    <g>
      <path class="cls-4" d="M33.86,6.93c-.04-.52.27-.96.76-1h.17s.46-.04.46-.04c1.03-.05,2.04-.06,3.05-.03.48.01.86.45.85.97-.01.53-.43.93-.92.92-.93-.04-1.91-.03-2.88.03l-.47.04c-.5.03-.98-.38-1-.9Z"/>
      <path class="cls-4" d="M25.35,7.82c1.1-.43,2.26-.78,3.42-1.06.05-.01.09-.03.14-.03.43-.03.81.28.91.74.11.5-.19,1.01-.66,1.12-1.1.27-2.18.61-3.21,1-.46.19-.97-.08-1.13-.57-.17-.49.07-1.04.53-1.21Z"/>
      <path class="cls-4" d="M43.1,7.4c.08-.42.43-.69.8-.72.08-.01.18,0,.26.03,1.17.29,2.31.68,3.41,1.14.45.19.67.73.5,1.22-.18.48-.68.72-1.15.53-1.02-.42-2.09-.77-3.18-1.05-.47-.13-.77-.63-.65-1.15Z"/>
      <path class="cls-4" d="M17.18,12.97c.89-.85,1.84-1.63,2.85-2.32.13-.1.28-.15.44-.15.31-.03.6.13.79.43.26.43.15,1.02-.26,1.3-.93.66-1.82,1.38-2.64,2.16-.37.35-.92.32-1.24-.08-.33-.39-.3-1,.07-1.34Z"/>
      <path class="cls-4" d="M51.58,11.07c.17-.25.41-.39.67-.4.2-.01.39.05.55.18.98.73,1.9,1.55,2.77,2.44.35.35.37.96.02,1.34s-.9.39-1.25.03c-.8-.82-1.66-1.58-2.56-2.26-.4-.3-.5-.88-.21-1.31Z"/>
      <path class="cls-4" d="M11.45,21.06c.52-1.15,1.13-2.26,1.79-3.31.17-.25.41-.39.68-.4.19-.01.38.04.54.16.4.29.51.88.24,1.31-.61.97-1.18,2.01-1.68,3.07-.21.48-.74.67-1.18.44-.44-.24-.61-.8-.4-1.28Z"/>
      <path class="cls-4" d="M58.14,17.92c.13-.09.28-.14.43-.15.31-.01.61.14.79.44.64,1.06,1.22,2.18,1.71,3.36.21.47.01,1.04-.43,1.25-.45.23-.98.01-1.18-.47-.47-1.09-1-2.13-1.59-3.12-.26-.44-.14-1.04.27-1.31Z"/>
    </g>
    <polygon class="cls-6" points="24.05 12.79 36.14 13.79 48.22 12.79 48.22 16.28 24.05 16.28 24.05 12.79"/>
  </g>
  <path class="cls-1" d="M46.5,3c7.13,0,13.23,4.38,15.77,10.59h7.31v19.65h-6.04v4.62c0,9.41-7.63,17.04-17.04,17.04h-20.64c-9.41,0-17.04-7.63-17.04-17.04v-4.62H3V13.59h7.09c2.54-6.21,8.64-10.59,15.77-10.59h20.64M46.5,0h-20.64c-7.48,0-14.21,4.09-17.67,10.59H0v25.65h5.81v1.62c0,11.05,8.99,20.04,20.04,20.04h20.64c11.05,0,20.04-8.99,20.04-20.04v-1.62h6.04V10.59h-8.41C60.71,4.09,53.97,0,46.5,0h0Z"/>
</svg>