<?xml version="1.0" encoding="UTF-8"?>
<svg width="12.82" height="88.05" id="Layer_2" data-name="Layer 2" xmlns="http://www.w3.org/2000/svg" viewBox="0 0 12.82 88.05">
  <defs>
    <style>
      .cls-1 {
        fill: #58595b;
      }

      .cls-1, .cls-2, .cls-3, .cls-4 {
        stroke-width: 0px;
      }

      .cls-2 {
        fill: #000;
      }

      .cls-3 {
        fill: #bcb179;
      }

      .cls-4 {
        fill: #404041;
      }
    </style>
  </defs>
  <path class="cls-3" d="M9.82,6.7v66.96H3V6.7c0-2.04,1.53-3.7,3.41-3.7.94,0,1.8.42,2.41,1.08.63.68,1.01,1.6,1.01,2.62Z"/>
  <rect class="cls-1" x="3" y="33.73" width="6.82" height="33.19"/>
  <rect class="cls-2" x="3.91" y="73.66" width="5" height="6.63"/>
  <rect class="cls-2" x="3" y="79.29" width="6.82" height="8.76"/>
  <path class="cls-2" d="M6.41,3c1.88,0,3.41,1.66,3.41,3.7v66.96H3V6.7c0-2.04,1.53-3.7,3.41-3.7M6.41,0C2.88,0,0,3.01,0,6.7v66.96c0,1.66,1.34,3,3,3h6.82c1.66,0,3-1.34,3-3V6.7c0-3.69-2.88-6.7-6.41-6.7h0Z"/>
  <rect class="cls-4" x="3" y="33.73" width="6.82" height="3.19"/>
  <rect class="cls-4" x="3" y="38.73" width="6.82" height="3.19"/>
  <rect class="cls-4" x="3" y="43.73" width="6.82" height="3.19"/>
  <rect class="cls-4" x="3" y="48.73" width="6.82" height="3.19"/>
  <rect class="cls-4" x="3" y="53.73" width="6.82" height="3.19"/>
  <rect class="cls-4" x="3" y="58.73" width="6.82" height="3.19"/>
  <rect class="cls-4" x="3" y="63.73" width="6.82" height="3.19"/>
  <rect class="cls-1" x="4.94" y="33.73" width="2.94" height="33.19"/>
</svg>