<?xml version="1.0" encoding="UTF-8"?>
<svg id="Layer_2" data-name="Layer 2" xmlns="http://www.w3.org/2000/svg" viewBox="0 0 20.46 128.01">
  <defs>
    <style>
      .cls-1, .cls-2, .cls-3, .cls-4, .cls-5 {
        stroke-width: 0px;
      }

      .cls-1, .cls-6 {
        fill: #58595b;
      }

      .cls-2 {
        fill: #000;
      }

      .cls-3 {
        fill: #6d6e70;
      }

      .cls-4 {
        fill: #404041;
      }

      .cls-5 {
        fill: #333;
      }

      .cls-6 {
        stroke: #000;
        stroke-miterlimit: 10;
        stroke-width: 3px;
      }
    </style>
  </defs>
  <rect class="cls-6" x="10.06" y="13.83" width="7.4" height="18.17"/>
  <polygon class="cls-2" points="0 67.94 0 72.49 10.28 72.49 10.28 66.94 0 67.94"/>
  <path class="cls-5" d="M17.46,6.7v12.77h-7.4V6.7c0-2.04,1.66-3.7,3.7-3.7,1.02,0,1.95.42,2.61,1.08.68.68,1.09,1.6,1.09,2.62Z"/>
  <path class="cls-2" d="M13.76,3c2.04,0,3.7,1.66,3.7,3.7v12.77h-7.4V6.7c0-2.04,1.66-3.7,3.7-3.7M13.76,0c-3.69,0-6.7,3.01-6.7,6.7v12.77c0,1.66,1.34,3,3,3h7.4c1.66,0,3-1.34,3-3V6.7c0-3.69-3.01-6.7-6.7-6.7h0Z"/>
  <g>
    <path class="cls-1" d="M8.56,56.35v-23.5c0-1.3,1.13-2.36,2.52-2.36h5.37c1.39,0,2.51,1.06,2.51,2.36v23.5h-10.4Z"/>
    <path class="cls-2" d="M16.45,32c.56,0,1.01.38,1.01.86v22h-7.4v-22c0-.47.45-.86,1.01-.86h5.37M16.45,29h-5.37c-2.21,0-4.01,1.73-4.01,3.86v25h13.4v-25c0-2.13-1.8-3.86-4.01-3.86h0Z"/>
  </g>
  <g>
    <path class="cls-3" d="M11.94,105.68c-1.87,0-3.38-1.52-3.38-3.38v-48.95h10.4v48.95c0,1.87-1.52,3.38-3.38,3.38h-3.63Z"/>
    <path class="cls-2" d="M17.46,54.85v47.45c0,1.04-.84,1.88-1.88,1.88h-3.63c-1.04,0-1.88-.84-1.88-1.88v-47.45h7.4M20.46,51.85H7.06v50.45c0,2.69,2.19,4.88,4.88,4.88h3.63c2.69,0,4.88-2.19,4.88-4.88v-50.45h0Z"/>
  </g>
  <rect class="cls-4" x="10.06" y="39.48" width="7.4" height="3.19"/>
  <rect class="cls-4" x="10.06" y="46.29" width="7.4" height="3.19"/>
  <rect class="cls-3" x="12.25" y="51.85" width="3.03" height="18.94"/>
  <path class="cls-2" d="M11.27,102.18v25.83h4.98v-25.83h-4.98ZM15.09,123.13c0,.54-.15,1.04-.39,1.4s-.58.58-.94.58c-.73,0-1.33-.89-1.33-1.98v-1.19c0-1.09.6-1.98,1.33-1.98s1.33.89,1.33,1.98v1.19Z"/>
  <path class="cls-4" d="M15.49,94.31c0-.95-.77-1.72-1.72-1.72s-1.72.77-1.72,1.72c0,.55.26,1.03.66,1.35v2.45c0,.59.47,1.06,1.06,1.06h0c.59,0,1.06-.47,1.06-1.06v-2.45c.4-.32.66-.8.66-1.35Z"/>
  <path class="cls-4" d="M15.49,84.31c0-.95-.77-1.72-1.72-1.72s-1.72.77-1.72,1.72c0,.55.26,1.03.66,1.35v2.45c0,.59.47,1.06,1.06,1.06h0c.59,0,1.06-.47,1.06-1.06v-2.45c.4-.32.66-.8.66-1.35Z"/>
  <path class="cls-4" d="M15.49,74.31c0-.95-.77-1.72-1.72-1.72s-1.72.77-1.72,1.72c0,.55.26,1.03.66,1.35v2.45c0,.59.47,1.06,1.06,1.06h0c.59,0,1.06-.47,1.06-1.06v-2.45c.4-.32.66-.8.66-1.35Z"/>
</svg>